<?xml version="1.0" encoding="UTF-8"?>
<svg width="1920px" height="1080px" viewBox="0 0 1920 1080" version="1.1" xmlns="http://www.w3.org/2000/svg" xmlns:xlink="http://www.w3.org/1999/xlink">
    <!-- Generator: Sketch 62 (91390) - https://sketch.com -->
    <title>aarau3</title>
    <desc>Created with Sketch.</desc>
    <g id="aarau3" stroke="none" stroke-width="1" fill="none" fill-rule="evenodd">
        <g id="Group-39" transform="translate(0.000000, 233.362254)" stroke="#FFFFFF">
            <line x1="528.793986" y1="72.8066042" x2="610.340444" y2="61.8186073" id="Path-398" stroke-width="0.5" stroke-dasharray="3"></line>
            <line x1="528.793986" y1="81.0261289" x2="613.334382" y2="70.5304753" id="Path-399" stroke-width="2"></line>
            <line x1="528.793986" y1="88.9542355" x2="628.354685" y2="78.1288193" id="Path-400" stroke-width="0.5" stroke-dasharray="3"></line>
            <line x1="537.237442" y1="97.5940158" x2="642.890314" y2="88.9542355" id="Path-401" stroke-width="2"></line>
            <line x1="531.783322" y1="106.384106" x2="664.064141" y2="97.5940158" id="Path-402" stroke-width="0.5" stroke-dasharray="3"></line>
            <line x1="531.783322" y1="118.511702" x2="672.690117" y2="108.864228" id="Path-403" stroke-width="2"></line>
            <line x1="526.372148" y1="127.973588" x2="672.690117" y2="125.143764" id="Path-404" stroke-width="0.5" stroke-dasharray="3"></line>
            <line x1="523.507048" y1="136.946198" x2="642.890314" y2="139.326624" id="Path-405" stroke-width="2"></line>
            <line x1="519.467072" y1="149.063057" x2="621.866798" y2="154.253367" id="Path-406" stroke-width="0.5" stroke-dasharray="3"></line>
            <line x1="519.467072" y1="162.897748" x2="613.334382" y2="171.493049" id="Path-407" stroke-width="2"></line>
            <line x1="487.512309" y1="169.483798" x2="617.782343" y2="180.474862" id="Path-408" stroke-width="0.5" stroke-dasharray="3"></line>
            <line x1="569.581585" y1="189.889406" x2="613.334382" y2="194.231331" id="Path-409" stroke-width="2"></line>
            <line x1="457.006967" y1="191.281873" x2="602.23672" y2="213.481799" id="Path-410" stroke-width="0.5" stroke-dasharray="3"></line>
            <line x1="438.909902" y1="202.381836" x2="574.736819" y2="233.200069" id="Path-411" stroke-width="2"></line>
            <line x1="423.855855" y1="213.481799" x2="517.353524" y2="236.209344" id="Path-412" stroke-width="0.5" stroke-dasharray="3"></line>
            <line x1="404.826252" y1="224.845571" x2="479.190021" y2="243.375162" id="Path-413" stroke-width="2"></line>
            <line x1="379.183254" y1="233.200069" x2="457.006967" y2="256.596673" id="Path-414" stroke-width="0.5" stroke-dasharray="3"></line>
            <line x1="356.70859" y1="244.898371" x2="432.225285" y2="268.729508" id="Path-415" stroke-width="2"></line>
            <line x1="332.971514" y1="256.81394" x2="418.09511" y2="281.998308" id="Path-416" stroke-width="0.5" stroke-dasharray="3"></line>
            <line x1="314.879016" y1="264.196019" x2="399.740461" y2="297.854119" id="Path-417" stroke-width="2"></line>
            <line x1="301.668258" y1="269.406124" x2="364.40951" y2="303.266529" id="Path-418" stroke-width="0.5" stroke-dasharray="3"></line>
            <line x1="285.752332" y1="274.583452" x2="349.426401" y2="320.349512" id="Path-419" stroke-width="2"></line>
            <line x1="263.793827" y1="274.583452" x2="317.589367" y2="320.349512" id="Path-420" stroke-width="0.5" stroke-dasharray="3"></line>
            <line x1="249.874129" y1="274.583452" x2="290.691597" y2="333.491863" id="Path-421" stroke-width="2"></line>
            <line x1="242.504877" y1="274.583452" x2="270.282863" y2="348.976621" id="Path-422" stroke-width="0.5" stroke-dasharray="3"></line>
            <line x1="212.553286" y1="268.729508" x2="22.4113604" y2="271.65648" id="Path-423" stroke-width="2"></line>
            <line x1="33.1841243" y1="259.510641" x2="202.780166" y2="256.81394" id="Path-424" stroke-dasharray="1"></line>
            <line x1="44.7706674" y1="249.218252" x2="190.991865" y2="244.898371" id="Path-425" stroke-width="2"></line>
            <line x1="47.8418861" y1="238.235349" x2="190.991865" y2="229.932025" id="Path-426" stroke-dasharray="1"></line>
            <line x1="43.5358" y1="229.932025" x2="195.420132" y2="216.663652" id="Path-427" stroke-width="2"></line>
            <line x1="59.5432759" y1="213.050844" x2="195.420132" y2="201.37605" id="Path-428" stroke-dasharray="1"></line>
            <line x1="65.8339541" y1="198.878896" x2="190.991865" y2="187.859754" id="Path-429" stroke-width="2"></line>
            <line x1="73.3537937" y1="185.05643" x2="190.991865" y2="173.229298" id="Path-430" stroke-dasharray="1"></line>
            <line x1="77.5804364" y1="173.229298" x2="187.612044" y2="162.323663" id="Path-431" stroke-width="2"></line>
            <line x1="70.8013794" y1="158.731764" x2="187.612044" y2="147.130152" id="Path-432" stroke-dasharray="1"></line>
            <line x1="62.1151059" y1="150.429323" x2="187.612044" y2="137.362575" id="Path-433" stroke-width="2"></line>
            <line x1="62.1151059" y1="137.362575" x2="185.113396" y2="123.257835" id="Path-434" stroke-dasharray="1"></line>
            <line x1="49.2455015" y1="130.310205" x2="185.113396" y2="113.29162" id="Path-435" stroke-width="2"></line>
            <line x1="39" y1="100.768511" x2="139.574681" y2="89.6552784" id="Path-436" stroke-dasharray="1"></line>
            <line x1="49.2455015" y1="89.6552784" x2="135.666157" y2="81.2960843" id="Path-437" stroke-width="2"></line>
            <line x1="49.2455015" y1="81.2960843" x2="124.863575" y2="72.9144875" id="Path-438" stroke-dasharray="1"></line>
            <line x1="49.2455015" y1="72.9144875" x2="123.614251" y2="63.8040562" id="Path-439" stroke-width="2"></line>
            <line x1="43.5358" y1="61.662358" x2="119.477966" y2="52.8312137" id="Path-440" stroke-dasharray="1"></line>
            <line x1="43.5358" y1="52.8312137" x2="113.248522" y2="44.6542282" id="Path-441" stroke-width="2"></line>
            <line x1="43.5358" y1="44.6542282" x2="107.862913" y2="35.7439276" id="Path-442" stroke-dasharray="1"></line>
            <line x1="43.5358" y1="35.7439276" x2="102.762565" y2="28.6303236" id="Path-443" stroke-width="2"></line>
            <line x1="43.5358" y1="28.6303236" x2="102.762565" y2="23.9780296" id="Path-444" stroke-dasharray="1"></line>
            <line x1="43.5358" y1="21.0567175" x2="102.762565" y2="18.2668346" id="Path-445" stroke-width="2"></line>
            <line x1="43.5358" y1="12.4391456" x2="100.665672" y2="12.4391456" id="Path-446" stroke-dasharray="1"></line>
            <line x1="62.1151059" y1="5.89606367" x2="97.3396178" y2="5.89606367" id="Path-447" stroke-width="2"></line>
            <line x1="81.506883" y1="0.5" x2="97.3396178" y2="0.5" id="Path-448" stroke-dasharray="1"></line>
            <line x1="223.791149" y1="274.877289" x2="247.257296" y2="346.758822" id="Path-449" stroke-width="2"></line>
            <line x1="217.396201" y1="281.025069" x2="5.37927908" y2="281.841856" id="Path-450" stroke-dasharray="1"></line>
            <path d="M88.4558292,0.5 L76.0690331,7.1866328 C63.5272967,13.9569053 55.9892096,27.3289106 56.6897066,41.5641151 C57.9570099,53.8672754 58.9081997,62.4965719 59.5432759,67.4520046 C62.207588,88.2413508 64.2648122,100.041326 64.9457377,103.308911 M68.1725241,118.793424 C68.9744259,122.641544 70.3677962,129.327967 72.3526349,138.852695 C72.4184728,139.168634 72.4884415,139.483698 72.562523,139.797807 M73.1068375,142.105722 L81.3479147,177.04821 C83.5047127,186.193118 82.1016026,195.816052 77.4233018,203.964341 C74.4399228,209.160551 72.3336246,212.829132 71.1044072,214.970084" id="Shape" stroke-width="2"></path>
            <path d="M65.3982954,224.908532 C64.8329727,225.893165 58.5936147,245.033149 43.5358,271.65648 C27.3220787,300.323539 2.18739211,336.654742 0.969953248,338.77518" id="Path" stroke-width="2"></path>
            <path d="M99.4558292,1.5 L83.1857817,10.2828872 C73.0168063,15.7722974 66.9048438,26.6144638 67.4728143,38.1565215 L68.8457228,66.0561873 C69.0250371,69.7001362 69.488957,73.3244901 70.2332422,76.8961223 C72.669725,88.5881734 74.3713576,96.7538681 75.33814,101.393207 M78.7662172,117.843663 C79.655227,122.109791 80.9887417,128.508983 82.7667612,137.041239" id="Shape" stroke-dasharray="3"></path>
            <path d="M83.2645507,139.430001 C83.3891089,140.027724 83.5214821,140.623792 83.6616363,141.218051 L89.5781379,166.304249 C93.5144745,182.994469 90.9536814,200.557129 82.4153912,215.428437 C80.6553318,218.493968 79.3352872,220.793115 78.4552575,222.32588 C76.0085403,226.587376 70.3002522,245.33544 53.5748113,274.877289 C42.4245174,294.571855 24.8895647,322.614926 0.969953248,359.006503" id="Path" stroke-dasharray="3"></path>
            <path d="M101.455829,10.0682892 L94.7636141,12.9570434 C83.4429244,17.8437198 76.2651502,29.1595934 76.6690999,41.4833284 C76.6087477,51.6683388 76.8536153,58.7842594 77.4037026,62.8310901 C80.5740129,86.1541319 84.4688012,97.9612888 85.0880674,100.252561 M89.359169,116.055545 C90.3801237,119.833056 92.1472798,126.371496 94.6606374,135.670865 M95.5814001,139.077668 L102.444947,164.472645 C107.201573,182.072061 104.904404,200.832844 96.0420339,216.764679 M93.7727251,220.844203 C93.1951801,221.882452 92.5615458,223.021533 91.8718223,224.261446" id="Shape" stroke-width="2"></path>
            <path d="M88.5713815,230.19463 C87.201087,232.658001 66.3922889,277.38507 59.5432759,289.848386 C46.4599051,313.656514 26.9354642,346.848684 0.969953248,389.424895" id="Path" stroke-width="2"></path>
            <path d="M100.665672,21.0567175 C90.976077,25.5826782 85.2548565,35.7867233 86.44805,46.4144634 L88.7568438,66.9788228 C89.2003091,70.9287559 89.9793961,74.8337412 91.0856575,78.6514393 C93.5672404,87.2153591 95.3266366,93.2870191 96.3638459,96.8664192 M101.732332,115.393016 C102.933154,119.537042 104.734387,125.75308 107.136031,134.041132 M108.313231,138.103637 L116.451288,166.187997 C121.075287,182.145375 119.872909,199.227195 113.059123,214.379476" id="Shape" stroke-dasharray="3"></path>
            <path d="M110.973746,219.01687 C107.802887,226.068126 87.0976541,286.644446 78.7662172,303.266529 C63.0460804,334.629836 37.1139924,378.723868 0.969953248,435.548626" id="Path" stroke-dasharray="3"></path>
            <path d="M129.32495,211.572073 C135.940063,196.268289 136.875713,179.105927 131.963512,163.173703 L123.830271,136.794366 M122.597398,132.795671 C119.749919,123.560164 117.755686,117.092072 116.614698,113.391394 M112.283145,99.3424435 C109.722267,91.0364993 105.880951,78.577583 100.759196,61.9656946 C100.696847,61.7634713 100.635415,61.5609662 100.574903,61.3581857 L96.4209297,47.4380486 C94.2387944,40.1256217 95.8292655,32.2069281 100.665672,26.3041766" id="Shape" stroke-width="2"></path>
            <path d="M0.969953248,465.83896 C43.8956003,397.274284 74.2422502,345.92131 92.0099032,311.780036 C101.656077,293.244518 123.556044,224.918194 127.468367,215.8672" id="Path" stroke-width="2"></path>
            <path d="M104.032824,35.7439276 L125.591734,99.1600815 M129.181264,109.718787 L136.318601,130.713471 M137.951709,135.517305 L145.688102,158.274128 C151.229064,174.573025 151.355764,192.195436 146.100014,208.528113" id="Shape" stroke-dasharray="3"></path>
            <path d="M143.912229,214.676068 C139.679195,226.199241 133.329644,243.484001 124.863575,266.530347 C115.850857,296.735736 107.381609,319.056241 99.4558292,333.491863 C79.8496928,369.201509 47.0210675,422.098905 0.969953248,492.184053" id="Path" stroke-dasharray="3"></path>
            <path d="M129.412909,85.4756814 L134.359453,98.0919382 M138.602086,108.912857 L146.783125,129.778756 M148.593813,134.396951 L158.20195,158.902692 C164.38831,174.681126 165.392691,191.985087 161.125413,208.321607" id="Shape" stroke-width="2"></path>
            <path d="M159.12989,215.020809 C154.784288,228.982695 148.265885,249.925525 139.574681,277.849297 C126.693339,310.813344 116.155456,334.522452 107.961032,348.976621 C88.7935917,382.786126 58.2886779,431.47253 16.4462907,495.035832" id="Path" stroke-width="2"></path>
            <path d="M151.895588,107.220824 L160.885667,127.966419 M164.233682,135.692332 L171.866505,153.305911 C178.548408,168.725138 180.205056,185.856996 176.601405,202.270834 C176.216158,204.02555 175.927222,205.341587 175.734599,206.218945" id="Shape" stroke-dasharray="3"></path>
            <path d="M174.369331,212.437439 C174.025521,214.003414 173.427332,216.728034 172.574763,220.611299 L154.792994,281.998308 C143.676281,309.392013 132.137187,334.57628 120.175712,357.551109 C108.214238,380.525938 89.0745674,414.267464 62.7567006,458.775687" id="Path" stroke-dasharray="3"></path>
            <path d="M190.991865,195.493903 L188.848003,204.470039 M187.701308,209.271141 C186.367888,228.964869 178.860469,255.823951 165.179051,289.848386 C151.497634,323.87282 128.675901,372.439567 96.713853,435.548626" id="Shape" stroke-width="2"></path>
            <path d="M193.116799,246.726392 L182.144463,298.894759 L115.265972,435.548626" id="Path-468" stroke-dasharray="3"></path>
            <polyline id="Path-469" stroke-width="2" points="202.780166 259.510641 190.991865 306.780603 138.098017 426.584081"></polyline>
            <path d="M163.7838,106.44583 L174.10952,126.141229 M176.201162,130.130852 L185.113396,147.130152" id="Shape" stroke-dasharray="3"></path>
            <path d="M537.237442,61.8186073 L543.218866,82.9633208 C546.248639,93.673762 546.05852,108.429197 542.64851,127.229626 C540.380522,139.733732 535.166303,151.517637 527.437659,161.605475 L512.34068,181.310858 L512.34068,181.310858 M497.951067,191.604208 L497.342734,191.900837 L356.123182,260.760859 C345.290154,266.043149 333.723167,269.663319 321.811596,271.499506 C264.371815,281.954804 221.473549,288.213285 193.116799,290.274948 C150.234099,293.392712 86.2731897,294.903372 1.23407153,294.806929" id="Shape" stroke-width="2"></path>
            <path d="M0.839477515,306.780603 C80.6746274,306.910866 142.961904,305.163017 187.701308,301.537056 C214.546879,299.361323 259.768596,293.416353 323.366458,283.702144 C334.758982,281.926695 345.836161,278.518605 356.256398,273.582971 L509.084928,201.194433 L513.631765,198.340494 M531.783322,179.419142 L542.574849,163.439726 C551.293229,150.530096 556.87503,135.76216 558.875247,120.313281 C560.817289,105.313724 560.647559,93.3024007 558.366057,84.2793119 L552.647326,61.662358" id="Shape" stroke-dasharray="3"></path>
            <path d="M566.400727,58.9615684 L572.779113,87.6355706 C574.690536,96.2283648 574.747757,108.126041 572.950776,123.328598 C571.804803,133.02359 569.373311,142.522886 565.720369,151.576181 C563.863487,156.178196 562.454118,159.505043 561.492261,161.556724 C559.81362,165.137332 556.865308,170.449714 552.647326,177.493869 M543.63232,191.281873 C527.05028,202.5476 512.463794,211.383959 499.872862,217.790952 C473.114505,231.407149 429.465956,252.605575 368.927216,281.386229 C358.798982,286.05511 348.069333,289.289285 337.048044,290.995379 C263.096004,302.549744 207.559687,310.060188 170.439091,313.526711 C132.804982,317.041189 76.2092434,320.002246 0.651874312,322.409883" id="Shape" stroke-width="2"></path>
            <line x1="0.651874312" y1="458.775687" x2="62.7567006" y2="458.775687" id="Path-485" stroke-width="2"></line>
            <line x1="0" y1="468.090611" x2="50.3356873" y2="472.569675" id="Path-486" stroke-dasharray="1"></line>
            <line x1="0" y1="478.802848" x2="33.1841243" y2="486.344802" id="Path-487" stroke-width="2"></line>
            <path d="M-2.27373675e-13,337.351269 C64.49826,334.020067 113.125946,330.663893 145.883057,327.282748 C190.311842,322.696868 257.463002,314.102504 347.336535,301.499656 C358.660181,299.771959 369.678125,296.431842 380.054977,291.580981 L525.333786,219.9065 C528.185985,218.499345 530.897418,216.823264 533.431227,214.901042 L566.400727,189.889406 L566.400727,189.889406 M574.256921,177.493869 L585.106932,134.764705 C588.381886,122.561173 589.314421,109.84754 587.855178,97.296759 L583.198681,57.2467859" id="Shape" stroke-dasharray="3"></path>
            <path d="M592.833037,57.2467859 L599.145398,98.3717688 C601.185322,111.661851 600.524145,125.226832 597.201406,138.25553 L588.345775,172.979103 L588.046829,174.15129 M581.390614,189.889406 C573.458363,198.319819 566.988866,204.871267 561.982125,209.54375 C556.975383,214.216233 549.404634,220.76768 539.269877,229.198093" id="Shape" stroke-width="2"></path>
            <path d="M563.452123,231.817075 C573.523568,222.179793 580.598872,214.755351 584.678036,209.54375 C588.757199,204.332148 592.780146,197.577297 596.746875,189.279195 M598.438582,182.061844 L608.977844,137.098054 C611.856213,124.818032 612.385492,112.104331 610.537764,99.6275588 L604.26145,57.2467859" id="Shape" stroke-dasharray="3"></path>
            <path d="M617.782343,75.7783021 L622.511955,101.528077 C624.576333,112.767327 624.699034,124.277263 622.874727,135.557968 L619.851321,154.253367 L619.851321,154.253367" id="Path-466" stroke-width="2"></path>
            <path d="M628.354685,78.1288193 L633.463662,101.013132 C636.047459,112.58657 636.552159,124.527322 634.954183,136.277512 L632.862472,151.658212 L632.862472,151.658212" id="Path-467" stroke-dasharray="3"></path>
            <path d="M642.890314,88.9542355 L647.003787,108.155249 C648.478785,115.040296 649.222472,122.061874 649.222472,129.103144 L649.222472,133.332935 L649.222472,133.332935" id="Path-470" stroke-width="2"></path>
            <line x1="654.972822" y1="93.2741256" x2="660.828059" y2="127.973588" id="Path-471" stroke-dasharray="3"></line>
            <path d="M1.23407153,353.43006 C67.2478165,348.648862 121.410487,343.763901 163.722082,338.77518 C206.033678,333.786458 269.62188,324.788077 354.486689,311.780036" id="Path-472" stroke-width="2"></path>
            <path d="M-5.68434189e-14,369.920933 C64.0668728,363.800929 112.694559,358.836725 145.883057,355.028321 C179.071556,351.219916 225.053756,345.327565 283.829658,337.351269" id="Path-478" stroke-dasharray="1"></path>
            <line x1="1.23407153" y1="386.248019" x2="221.220897" y2="359.175476" id="Path-479" stroke-width="2"></line>
            <line x1="2.07321742" y1="400.626205" x2="216.220897" y2="374.133237" id="Path-480" stroke-dasharray="1"></line>
            <line x1="2.23407153" y1="414.011961" x2="187.094598" y2="391.576667" id="Path-481" stroke-width="2"></line>
            <line x1="3.23407153" y1="427.801834" x2="174.574763" y2="407.549967" id="Path-482" stroke-dasharray="1"></line>
            <line x1="2" y1="439.74909" x2="147.883057" y2="424.074876" id="Path-483" stroke-width="2"></line>
            <line x1="0.651874312" y1="449.517175" x2="84.7525932" y2="445.510055" id="Path-484" stroke-dasharray="1"></line>
            <path d="M212.553286,268.729508 C202.392681,303.485595 194.108689,329.495367 187.701308,346.758822 C181.293927,364.022278 170.779473,388.661304 156.157947,420.675901" id="Path-488" stroke-dasharray="2"></path>
            <path d="M217.396201,271.65648 C213.041755,300.774118 208.949139,322.672381 205.118351,337.351269 C201.287564,352.030156 194.946313,370.112597 186.094598,391.59859" id="Path-489" stroke-width="2"></path>
            <line x1="219.781937" y1="274.877289" x2="219.781937" y2="360.250432" id="Path-490" stroke-dasharray="2"></line>
        </g>
    </g>
</svg>