<?xml version="1.0" encoding="UTF-8"?>
<svg width="1920px" height="1080px" viewBox="0 0 1920 1080" version="1.1" xmlns="http://www.w3.org/2000/svg" xmlns:xlink="http://www.w3.org/1999/xlink">
    <!-- Generator: Sketch 61.2 (89653) - https://sketch.com -->
    <title>aarau1</title>
    <desc>Created with Sketch.</desc>
    <g id="aarau1" stroke="none" stroke-width="1" fill="none" fill-rule="evenodd" stroke-linecap="square">
        <path d="M909.5,767.5 C756.225963,644.433361 720.309111,548.600027 801.749444,480 C883.189776,411.399973 965.939962,458.066639 1050,620 C1196.3752,237.827745 1339.27892,74.55268 1478.71117,130.174804 C1618.14342,185.796927 1557.64809,378.912715 1297.22517,709.522167 C1490.40839,662.161469 1587,699.081754 1587,820.283023 C1587,941.484291 1490.40839,965.184539 1297.22517,891.383767" id="Line" stroke="#FFFFFF" stroke-width="8"></path>
        <path d="M1215,162 C1250.88017,269.067597 1290.72464,337.734264 1334.53341,368 C1378.34218,398.265736 1462.49771,415.265736 1587,419" id="Line-2" stroke="#FFFFFF" stroke-width="8"></path>
        <line x1="1462.5" y1="190.5" x2="1551.5" y2="111.5" id="Line-3" stroke="#FFFFFF" stroke-width="8"></line>
        <line x1="1498" y1="731" x2="1587" y2="652" id="Line-3-Copy" stroke="#FFFFFF" stroke-width="8"></line>
        <line x1="839" y1="498" x2="810" y2="368" id="Line-3-Copy-4" stroke="#FFFFFF" stroke-width="8"></line>
        <line x1="795" y1="577" x2="674" y2="498" id="Line-3-Copy-5" stroke="#FFFFFF" stroke-width="8"></line>
        <line x1="1552" y1="810" x2="1679" y2="764" id="Line-3-Copy-2" stroke="#FFFFFF" stroke-width="8"></line>
        <line x1="1542" y1="889" x2="1662" y2="924" id="Line-3-Copy-3" stroke="#FFFFFF" stroke-width="8"></line>
        <line x1="226.5" y1="231.5" x2="249.5" y2="149.5" id="Line-4" stroke="#FFFFFF" stroke-width="8"></line>
        <line x1="226.5" y1="190.5" x2="283.5" y2="190.5" id="Line-5" stroke="#FFFFFF" stroke-width="8"></line>
        <line x1="283.5" y1="171.5" x2="255.5" y2="231.5" id="Line-6" stroke="#FFFFFF" stroke-width="8"></line>
        <line x1="293.5" y1="222.5" x2="330.5" y2="149.5" id="Line-7" stroke="#FFFFFF" stroke-width="8"></line>
        <line x1="330.5" y1="160.5" x2="362.5" y2="250.5" id="Line-8" stroke="#FFFFFF" stroke-width="8"></line>
        <line x1="312.5" y1="190.5" x2="346.5" y2="201.5" id="Line-9" stroke="#FFFFFF" stroke-width="8"></line>
        <line x1="400.5" y1="160.5" x2="400.5" y2="231.5" id="Line-10" stroke="#FFFFFF" stroke-width="8"></line>
        <line x1="415.5" y1="160.5" x2="441.5" y2="186.5" id="Line-11" stroke="#FFFFFF" stroke-width="8"></line>
        <line x1="441.5" y1="190.5" x2="400.5" y2="211.5" id="Line-12" stroke="#FFFFFF" stroke-width="8"></line>
        <line x1="473.5" y1="173.5" x2="473.5" y2="250.5" id="Line-13" stroke="#FFFFFF" stroke-width="8"></line>
        <line x1="473.5" y1="173.5" x2="524.5" y2="201.5" id="Line-14" stroke="#FFFFFF" stroke-width="8"></line>
        <line x1="514.5" y1="201.5" x2="473.5" y2="222.5" id="Line-15" stroke="#FFFFFF" stroke-width="8"></line>
        <line x1="548.5" y1="179.5" x2="574.5" y2="222.5" id="Line-16" stroke="#FFFFFF" stroke-width="8"></line>
        <line x1="618.5" y1="190.5" x2="528.5" y2="270.610029" id="Line-17" stroke="#FFFFFF" stroke-width="8"></line>
        <line x1="238.5" y1="326.5" x2="293.5" y2="400.5" id="Line-19" stroke="#FFFFFF" stroke-width="8"></line>
        <line x1="293.5" y1="400.5" x2="329.5" y2="326.5" id="Line-20" stroke="#FFFFFF" stroke-width="8"></line>
        <line x1="346.5" y1="338.5" x2="311.5" y2="413.5" id="Line-21" stroke="#FFFFFF" stroke-width="8"></line>
        <line x1="362.5" y1="338.5" x2="400.5" y2="338.5" id="Line-22" stroke="#FFFFFF" stroke-width="8"></line>
        <line x1="346.5" y1="363.5" x2="381.5" y2="363.5" id="Line-23" stroke="#FFFFFF" stroke-width="8"></line>
        <line x1="330.5" y1="400.5" x2="381.5" y2="413.5" id="Line-24" stroke="#FFFFFF" stroke-width="8"></line>
        <line x1="428.5" y1="350.5" x2="441.5" y2="413.5" id="Line-25" stroke="#FFFFFF" stroke-width="8"></line>
        <line x1="441.5" y1="413.5" x2="473.5" y2="400.5" id="Line-26" stroke="#FFFFFF" stroke-width="8"></line>
        <line x1="473.5" y1="407.5" x2="473.5" y2="428.5" id="Line-27" stroke="#FFFFFF" stroke-width="8"></line>
        <line x1="494.5" y1="418.5" x2="548.5" y2="350.5" id="Line-28" stroke="#FFFFFF" stroke-width="8"></line>
        <line x1="226.5" y1="493.5" x2="255.5" y2="572.5" id="Line-29" stroke="#FFFFFF" stroke-width="8"></line>
        <line x1="283.5" y1="519.5" x2="238.5" y2="637.5" id="Line-30" stroke="#FFFFFF" stroke-width="8"></line>
        <line x1="293.5" y1="540.5" x2="293.5" y2="597.5" id="Line-31" stroke="#FFFFFF" stroke-width="8"></line>
        <line x1="311.5" y1="540.5" x2="346.5" y2="540.5" id="Line-32" stroke="#FFFFFF" stroke-width="8"></line>
        <line x1="293.5" y1="569.5" x2="330.5" y2="572.5" id="Line-33" stroke="#FFFFFF" stroke-width="8"></line>
        <line x1="293.5" y1="611.5" x2="346.5" y2="611.5" id="Line-34" stroke="#FFFFFF" stroke-width="8"></line>
        <line x1="396" y1="538" x2="356" y2="635" id="Line-35" stroke="#FFFFFF" stroke-width="8"></line>
        <line x1="396.5" y1="538.5" x2="413" y2="650" id="Line-36" stroke="#FFFFFF" stroke-width="8"></line>
        <line x1="381.5" y1="597.5" x2="406.5" y2="597.5" id="Line-37" stroke="#FFFFFF" stroke-width="8"></line>
        <line x1="428.5" y1="558.5" x2="428.5" y2="637.5" id="Line-38" stroke="#FFFFFF" stroke-width="8"></line>
        <line x1="441.5" y1="558.5" x2="494.5" y2="597.5" id="Line-39" stroke="#FFFFFF" stroke-width="8"></line>
        <line x1="473.5" y1="597.5" x2="428.5" y2="598.5" id="Line-40" stroke="#FFFFFF" stroke-width="8"></line>
        <line x1="435.5" y1="611.5" x2="473.5" y2="649.5" id="Line-41" stroke="#FFFFFF" stroke-width="8"></line>
        <line x1="521.5" y1="540.5" x2="524.5" y2="630.5" id="Line-42" stroke="#FFFFFF" stroke-width="8"></line>
        <line x1="528.5" y1="630.5" x2="561.5" y2="540.5" id="Line-43" stroke="#FFFFFF" stroke-width="8"></line>
        <line x1="561.5" y1="540.5" x2="524.5" y2="540.5" id="Line-44" stroke="#FFFFFF" stroke-width="8"></line>
        <line x1="521.5" y1="649.5" x2="514.5" y2="670.5" id="Line-45" stroke="#FFFFFF" stroke-width="8"></line>
        <line x1="518.5" y1="670.5" x2="528.5" y2="670.5" id="Line-46" stroke="#FFFFFF" stroke-width="8"></line>
        <line x1="528.5" y1="670.5" x2="538.5" y2="649.5" id="Line-47" stroke="#FFFFFF" stroke-width="8"></line>
        <line x1="534.5" y1="649.5" x2="523.5" y2="649.5" id="Line-48" stroke="#FFFFFF" stroke-width="8"></line>
        <line x1="236.5" y1="326.5" x2="236.5" y2="400.5" id="Line-18" stroke="#FFFFFF" stroke-width="8"></line>
    </g>
</svg>