<?xml version="1.0" encoding="UTF-8"?>
<svg width="1920px" height="1080px" viewBox="0 0 1920 1080" version="1.1" xmlns="http://www.w3.org/2000/svg" xmlns:xlink="http://www.w3.org/1999/xlink">
    <!-- Generator: Sketch 63.1 (92452) - https://sketch.com -->
    <title>aarau2</title>
    <desc>Created with Sketch.</desc>
    <g id="aarau2" stroke="none" stroke-width="1" fill="none" fill-rule="evenodd">
        <g id="Group-33" transform="translate(804.206318, 222.048274)" stroke="#FFFFFF">
            <polyline id="Path-297" stroke-width="2" points="6 232.84271 72.0943937 186.805043 72.0943937 172.388657 139.752273 97.3085877 211.906266 113.81035"></polyline>
            <path d="M0,220.84271 L66.0943937,174.805043 L66.0943937,160.388657 L133.752273,85.3085877 L205.906266,101.81035" id="Path-297-Copy-3" stroke-dasharray="1"></path>
            <path d="M12,243.84271 L78.0943937,197.805043 L78.0943937,183.388657 L145.752273,108.308588 L217.906266,124.81035" id="Path-297-Copy" stroke-dasharray="1"></path>
            <polyline id="Path-297-Copy-2" stroke-width="2" points="19 255.84271 85.0943937 209.805043 85.0943937 195.388657 152.752273 120.308588 224.906266 136.81035"></polyline>
            <path d="M27,267.84271 L93.0943937,221.805043 L93.0943937,207.388657 L160.752273,132.308588 L232.906266,148.81035" id="Path-297-Copy-4" stroke-dasharray="1"></path>
            <polyline id="Path-297-Copy-5" stroke-width="2" points="35 281.84271 101.094394 235.805043 101.094394 221.388657 171.483247 145.813203 245.107125 161.890419"></polyline>
            <path d="M43,296.84271 L109.094394,250.805043 L109.094394,236.388657 L180.953133,160.388657 L239.029791,173.670905" id="Path-297-Copy-6" stroke-dasharray="1"></path>
            <polyline id="Path-297-Copy-7" stroke-width="2" points="52 308.84271 118.094394 262.805043 118.094394 248.388657 189.953133 172.388657 235.625235 184.097982 251.472665 174.765935"></polyline>
            <polyline id="Path-297-Copy-15" stroke-width="2" points="66 334.84271 132.094394 288.805043 132.094394 274.388657 203.953133 198.388657 225.992166 204.038982 267.019359 180.395321"></polyline>
            <path d="M60,322.84271 L126.094394,276.805043 L126.094394,262.388657 L197.953133,186.388657 L231.317089,194.942443 L260.036079,176.856953" id="Path-297-Copy-14" stroke-dasharray="1"></path>
            <path d="M72,345.84271 L138.094394,299.805043 L138.094394,285.388657 L209.953133,209.388657 L239.299814,216.912502 L278.479603,207.122338" id="Path-297-Copy-13" stroke-dasharray="1"></path>
            <polyline id="Path-297-Copy-12" stroke-width="2" points="79 357.84271 145.094394 311.805043 145.094394 297.388657 216.953133 221.388657 264.869378 233.673331 287.216715 230.006858"></polyline>
            <path d="M87,369.84271 L153.094394,323.805043 L153.094394,309.388657 L224.953133,233.388657 L283.125508,248.302778 L292.615243,244.405287" id="Path-297-Copy-11" stroke-dasharray="1"></path>
            <polyline id="Path-297-Copy-10" stroke-width="2" points="95 383.84271 161.094394 337.805043 161.094394 323.388657 232.953133 247.388657 309.86096 267.075649"></polyline>
            <path d="M103,398.84271 L169.094394,352.805043 L169.094394,338.388657 L242.433327,262.388657 L315.774443,279.390124" id="Path-297-Copy-9" stroke-dasharray="1"></path>
            <polyline id="Path-297-Copy-8" stroke-width="2" points="112 410.84271 178.094394 364.805043 178.094394 350.388657 250.394881 274.388657 325.538566 292.743434"></polyline>
            <path d="M121,424.84271 L187.094394,378.805043 L187.094394,364.388657 L259.394881,288.388657 L334.538566,306.743434" id="Path-297-Copy-16" stroke-dasharray="1"></path>
            <polyline id="Path-297-Copy-17" stroke-width="2" points="127 438.84271 193.094394 392.805043 193.094394 378.388657 267.803616 300.388657 340.538566 320.743434"></polyline>
            <path d="M131.867618,453.227761 L202.094394,405.805043 L202.094394,391.388657 L276.803616,313.388657 L349.538566,333.743434" id="Path-297-Copy-18" stroke-dasharray="1"></path>
            <polyline id="Path-297-Copy-19" stroke-width="2" points="139.867618 464.227761 210.094394 416.805043 210.094394 402.388657 284.803616 324.388657 357.538566 344.743434"></polyline>
            <path d="M147.867618,477.227761 L218.094394,429.805043 L218.094394,415.388657 L292.803616,337.388657 L364.538566,354.743434" id="Path-297-Copy-20" stroke-dasharray="1"></path>
            <polyline id="Path-297-Copy-21" stroke-width="2" points="154.867618 490.227761 225.094394 442.805043 225.094394 428.388657 299.803616 350.388657 371.807394 367.615684"></polyline>
            <path d="M162.867618,505.227761 L233.094394,457.805043 L233.094394,443.388657 L308.322007,365.388657 L381.430081,381.308209" id="Path-297-Copy-22" stroke-dasharray="1"></path>
            <polyline id="Path-297-Copy-23" stroke-width="2" points="170.867618 519.227761 241.094394 471.805043 241.094394 457.388657 316.322007 379.388657 389.430081 395.308209"></polyline>
            <path d="M177.867618,534.227761 L248.094394,486.805043 L248.094394,472.388657 L325.538566,394.308209 L385.495471,407.308209 M391.495471,408.998394 L400.826647,410.077318" id="Shape" stroke-dasharray="1"></path>
            <path d="M185.867618,548.227761 L256.094394,500.805043 L256.094394,486.388657 L333.538566,408.308209 L382.430081,417.388657 M387.595976,418.308209 L409.651433,422.228648" id="Shape" stroke-width="2"></path>
            <path d="M194.867618,564.227761 L265.094394,516.805043 L265.094394,502.388657 L344.757877,422.228648 L373.495471,427.388657 M386.8459,430.388657 L414.807394,432.220593 M387.595976,441.888657 L420.119317,443.388657" id="Shape-Copy-3" stroke-dasharray="1"></path>
            <path d="M203.867618,580.227761 L274.094394,532.805043 L274.094394,518.388657 L351.538566,440.308209 L357.538566,440.388657 M382.485598,467.299461 L438.119317,464.267985 M391.495471,453.227761 L427.807394,453.227761" id="Shape-Copy-4" stroke-width="2"></path>
            <line x1="319.495471" y1="274.388657" x2="366.119317" y2="262.388657" id="Path-298" stroke-dasharray="1"></line>
            <line x1="324.495471" y1="283.388657" x2="371.119317" y2="271.388657" id="Path-298-Copy" stroke-width="2"></line>
            <line x1="330.495471" y1="292.388657" x2="377.119317" y2="280.388657" id="Path-298-Copy-2" stroke-dasharray="1"></line>
            <line x1="336.495471" y1="301.388657" x2="383.119317" y2="289.388657" id="Path-298-Copy-3" stroke-width="2"></line>
            <line x1="342.495471" y1="311.388657" x2="389.119317" y2="299.388657" id="Path-298-Copy-4" stroke-dasharray="1"></line>
            <line x1="349.495471" y1="320.388657" x2="396.119317" y2="308.388657" id="Path-298-Copy-5" stroke-width="2"></line>
            <line x1="355.495471" y1="329.388657" x2="402.119317" y2="317.388657" id="Path-298-Copy-6" stroke-dasharray="1"></line>
            <line x1="361.495471" y1="338.388657" x2="408.119317" y2="326.388657" id="Path-298-Copy-7" stroke-width="2"></line>
            <line x1="366.495471" y1="347.388657" x2="413.119317" y2="335.388657" id="Path-298-Copy-8" stroke-dasharray="1"></line>
            <line x1="373.495471" y1="356.388657" x2="420.119317" y2="344.388657" id="Path-298-Copy-9" stroke-width="2"></line>
            <line x1="379.495471" y1="365.388657" x2="426.119317" y2="353.388657" id="Path-298-Copy-10" stroke-dasharray="1"></line>
            <line x1="385.495471" y1="374.388657" x2="432.119317" y2="362.388657" id="Path-298-Copy-11" stroke-width="2"></line>
            <line x1="391.495471" y1="383.388657" x2="438.119317" y2="371.388657" id="Path-298-Copy-12" stroke-dasharray="1"></line>
            <line x1="398.495471" y1="392.388657" x2="445.119317" y2="380.388657" id="Path-298-Copy-13" stroke-width="2"></line>
            <line x1="404.495471" y1="401.388657" x2="451.119317" y2="389.388657" id="Path-298-Copy-14" stroke-dasharray="1"></line>
            <line x1="411.495471" y1="410.388657" x2="458.119317" y2="398.388657" id="Path-298-Copy-15" stroke-width="2"></line>
            <line x1="417.495471" y1="420.388657" x2="464.119317" y2="408.388657" id="Path-298-Copy-16" stroke-dasharray="1"></line>
            <line x1="424.495471" y1="430.388657" x2="471.119317" y2="417.388657" id="Path-298-Copy-17" stroke-width="2"></line>
            <line x1="430.495471" y1="440.388657" x2="477.119317" y2="427.388657" id="Path-298-Copy-18" stroke-dasharray="1"></line>
            <line x1="353.807394" y1="262.388657" x2="471.119317" y2="432.220593" id="Path-299" stroke-dasharray="1"></line>
            <line x1="344.807394" y1="265.388657" x2="460.052769" y2="433.888657" id="Path-299-Copy" stroke-width="2"></line>
            <line x1="334.807394" y1="269.388657" x2="450.052769" y2="437.888657" id="Path-299-Copy-2" stroke-dasharray="1"></line>
            <line x1="324.807394" y1="273.388657" x2="440.052769" y2="441.888657" id="Path-299-Copy-3" stroke-width="2"></line>
            <line x1="6" y1="209.388657" x2="224.906266" y2="589.093954" id="Path-300" stroke-dasharray="1"></line>
            <line x1="17" y1="201.388657" x2="235.906266" y2="581.093954" id="Path-300-Copy" stroke-width="2"></line>
            <line x1="31" y1="194.388657" x2="249.906266" y2="574.093954" id="Path-300-Copy-2" stroke-dasharray="1"></line>
            <line x1="43" y1="182.388657" x2="261.906266" y2="562.093954" id="Path-300-Copy-3" stroke-width="2"></line>
            <line x1="56" y1="173.388657" x2="274.906266" y2="553.093954" id="Path-300-Copy-4" stroke-dasharray="1"></line>
            <line x1="286.757877" y1="529.792123" x2="357.538566" y2="459.436131" id="Path-301" stroke-dasharray="1"></line>
            <line x1="294.757877" y1="544.792123" x2="366.538566" y2="472.84271" id="Path-301-Copy" stroke-width="2"></line>
            <path d="M308.757877,555.792123 L382.485598,481.761694 L448.434075,475.077457" id="Path-301-Copy-2" stroke-dasharray="1"></path>
            <polyline id="Path-301-Copy-3" stroke-width="2" points="317.757877 567.792123 391.485598 493.761694 457.434075 487.077457"></polyline>
            <path d="M326.757877,578.792123 L400.485598,504.761694 L466.434075,498.077457" id="Path-301-Copy-4" stroke-dasharray="1"></path>
            <polyline id="Path-301-Copy-5" stroke-width="2" points="335.757877 590.792123 409.485598 516.761694 475.434075 510.077457"></polyline>
            <path d="M344.757877,602.792123 L418.485598,528.761694 L481.434075,521.077457" id="Path-301-Copy-6" stroke-dasharray="1"></path>
            <polyline id="Path-301-Copy-7" stroke-width="2" points="353.757877 615.792123 427.485598 540.761694 490.434075 533.216802"></polyline>
            <path d="M361.703564,628.193507 L436.485598,552.761694 L499.434075,545.216802" id="Path-301-Copy-8" stroke-dasharray="1"></path>
            <polyline id="Path-301-Copy-9" stroke-width="2" points="369.920912 639.851673 444.485598 564.761694 507.434075 557.216802"></polyline>
            <path d="M378.293186,652.561868 L455.485598,575.761694 L518.434075,568.216802" id="Path-301-Copy-10" stroke-dasharray="1"></path>
            <polyline id="Path-301-Copy-11" stroke-width="2" points="386.197542 665.357902 463.485598 588.761694 526.434075 581.216802"></polyline>
            <path d="M395.197542,678.357902 L472.485598,601.761694 L535.434075,594.216802" id="Path-301-Copy-12" stroke-dasharray="1"></path>
            <polyline id="Path-305" stroke-width="2" points="403.857647 692.465345 484.820845 618.65238 543.233491 607.542437"></polyline>
            <line x1="425.808931" y1="705.077012" x2="490.434075" y2="639.851673" id="Path-306" stroke-dasharray="1"></line>
            <line x1="448.434075" y1="710.396778" x2="490.434075" y2="641.754149" id="Path-307" stroke-width="2"></line>
            <line x1="471.595945" y1="714.830745" x2="490.434075" y2="641.754149" id="Path-308" stroke-dasharray="1"></line>
            <line x1="492.355706" y1="712.513752" x2="497.587266" y2="641.754149" id="Path-309" stroke-width="2"></line>
            <line x1="507.434075" y1="699.635494" x2="499.434075" y2="641.754149" id="Path-310" stroke-dasharray="1"></line>
            <line x1="524.120253" y1="687.22312" x2="503.434075" y2="641.754149" id="Path-311" stroke-width="2"></line>
            <line x1="543.233491" y1="618.664972" x2="509.47785" y2="630.091205" id="Path-312" stroke-dasharray="1"></line>
            <line x1="543.233491" y1="636.287352" x2="509.47785" y2="634.845212" id="Path-313" stroke-width="2"></line>
            <line x1="540.393296" y1="656.387858" x2="509.47785" y2="636.287352" id="Path-314" stroke-dasharray="1"></line>
            <line x1="440.052769" y1="460.201857" x2="479.6859" y2="447.859391" id="Path-315" stroke-dasharray="1"></line>
            <line x1="447.052769" y1="469.201857" x2="486.6859" y2="456.859391" id="Path-315-Copy" stroke-width="2"></line>
            <line x1="453.052769" y1="478.201857" x2="492.6859" y2="465.859391" id="Path-315-Copy-2" stroke-dasharray="1"></line>
            <line x1="459.052769" y1="487.201857" x2="498.6859" y2="474.859391" id="Path-315-Copy-3" stroke-width="2"></line>
            <line x1="466.052769" y1="496.201857" x2="505.6859" y2="483.859391" id="Path-315-Copy-4" stroke-dasharray="1"></line>
            <line x1="472.052769" y1="505.201857" x2="511.6859" y2="492.859391" id="Path-315-Copy-5" stroke-width="2"></line>
            <line x1="478.052769" y1="514.201857" x2="517.6859" y2="501.859391" id="Path-315-Copy-6" stroke-dasharray="1"></line>
            <line x1="485.052769" y1="524.201857" x2="524.6859" y2="510.859391" id="Path-315-Copy-7" stroke-width="2"></line>
            <line x1="491.052769" y1="533.201857" x2="528.683808" y2="520.533394" id="Path-315-Copy-8" stroke-dasharray="1"></line>
            <line x1="498.052769" y1="543.201857" x2="534.676958" y2="530.274446" id="Path-315-Copy-9" stroke-width="2"></line>
            <line x1="505.052769" y1="552.201857" x2="541.547198" y2="539.320248" id="Path-315-Copy-10" stroke-dasharray="1"></line>
            <line x1="511.052769" y1="561.201857" x2="546.730309" y2="548.05412" id="Path-315-Copy-11" stroke-width="2"></line>
            <line x1="519.052769" y1="569.201857" x2="552.207368" y2="556.187513" id="Path-315-Copy-12" stroke-dasharray="1"></line>
            <line x1="460.052769" y1="717.291129" x2="433.113683" y2="742.11631" id="Path-316" stroke-width="2"></line>
            <line x1="429.18204" y1="732.550481" x2="422.208481" y2="739.609612" id="Path-317" stroke-dasharray="1"></line>
            <line x1="416.50842" y1="729.703719" x2="409.903919" y2="736.761871" id="Path-318" stroke-width="2"></line>
            <line x1="418.230475" y1="708.143691" x2="395.197542" y2="733.718162" id="Path-319" stroke-dasharray="1"></line>
            <line x1="402.470373" y1="697.91092" x2="378.595976" y2="725.143823" id="Path-320" stroke-width="2"></line>
            <line x1="396.595976" y1="689.058042" x2="373.495471" y2="717.291129" id="Path-321" stroke-dasharray="1"></line>
            <line x1="373.495471" y1="698.751885" x2="366.598446" y2="706.085195" id="Path-322" stroke-width="2"></line>
            <line x1="368.480128" y1="692.465345" x2="361.703564" y2="699.635494" id="Path-323" stroke-dasharray="1"></line>
            <line x1="373.495471" y1="655.413207" x2="352.009516" y2="684.075849" id="Path-324" stroke-dasharray="1"></line>
            <line x1="366.538566" y1="646.337605" x2="346.876787" y2="677.133951" id="Path-325" stroke-width="2"></line>
            <line x1="217.943612" y1="594.216802" x2="216.943612" y2="615.792123" id="Path-326" stroke-dasharray="1"></line>
            <line x1="227.278517" y1="587.898991" x2="226.278517" y2="610.389335" id="Path-327" stroke-width="2"></line>
            <line x1="234.527723" y1="583.2417" x2="233.527723" y2="606.226575" id="Path-328" stroke-dasharray="1"></line>
            <line x1="240.930532" y1="578.792123" x2="239.930532" y2="602.792123" id="Path-329" stroke-width="2"></line>
            <line x1="247.344588" y1="574.504462" x2="246.285278" y2="599.69168" id="Path-330" stroke-dasharray="1"></line>
            <line x1="254.323144" y1="569.255063" x2="252.831728" y2="595.323553" id="Path-331" stroke-width="2"></line>
            <line x1="261.906266" y1="564.227761" x2="259.578531" y2="590.792123" id="Path-332" stroke-dasharray="1"></line>
            <line x1="269.327003" y1="558.725016" x2="266.765294" y2="587.098071" id="Path-333" stroke-width="2"></line>
            <line x1="276.757579" y1="554.161925" x2="273.260638" y2="583.2417" id="Path-334" stroke-dasharray="1"></line>
            <line x1="286.757877" y1="584.705154" x2="295.759525" y2="549.43479" id="Path-335" stroke-dasharray="1"></line>
            <line x1="292.258701" y1="592.734137" x2="303.485743" y2="557.216802" id="Path-336" stroke-width="2"></line>
            <line x1="297.759525" y1="600.792123" x2="310.855702" y2="567.069972" id="Path-337" stroke-dasharray="1"></line>
            <line x1="299.83005" y1="609.212082" x2="303.781135" y2="601.389858" id="Path-338" stroke-width="2"></line>
            <line x1="304.408027" y1="614.614869" x2="308.175635" y2="607.186469" id="Path-339" stroke-width="2"></line>
            <line x1="308.688917" y1="620.442149" x2="313.022487" y2="611.58834" id="Path-340" stroke-width="2"></line>
            <line x1="313.188585" y1="629.361226" x2="329.430657" y2="593.445137" id="Path-341" stroke-dasharray="1"></line>
            <line x1="317.923975" y1="634.350185" x2="334.364198" y2="600.731395" id="Path-342" stroke-width="2"></line>
            <line x1="322.159565" y1="640.938403" x2="339.405205" y2="608.186469" id="Path-343" stroke-dasharray="1"></line>
            <line x1="325.561038" y1="646.390287" x2="343.757877" y2="614.792123" id="Path-344" stroke-width="2"></line>
            <line x1="334.822367" y1="646.390287" x2="330.699336" y2="652.711287" id="Path-345" stroke-width="2"></line>
            <line x1="359.859535" y1="638.770683" x2="341.59976" y2="668.055127" id="Path-346" stroke-dasharray="1"></line>
            <line x1="378.293186" y1="663.795316" x2="356.901747" y2="691.058042" id="Path-347" stroke-width="2"></line>
            <line x1="339.59976" y1="651.087325" x2="334.364198" y2="659.334976" id="Path-348" stroke-width="2"></line>
            <line x1="465.315809" y1="440.388657" x2="543.233491" y2="564.227761" id="Path-349" stroke-width="2"></line>
            <line x1="474.315809" y1="439.388657" x2="552.233491" y2="563.227761" id="Path-349-Copy-4" stroke-dasharray="1"></line>
            <line x1="457.315809" y1="445.388657" x2="535.233491" y2="569.227761" id="Path-349-Copy" stroke-dasharray="1"></line>
            <line x1="448.315809" y1="448.388657" x2="526.233491" y2="572.227761" id="Path-349-Copy-2" stroke-width="2"></line>
            <line x1="439.315809" y1="451.388657" x2="456.019642" y2="477.93703" id="Path-349-Copy-3" stroke-width="2"></line>
            <path d="M213.845782,602.889597 L286.757877,554.161925 L308.458538,584.263544 M319.347898,599.368494 L339.854463,627.813749 M351.413473,643.847588 L373.759602,674.844556 M383.996044,689.043824 L400.110588,711.396778 L402.103932,712.527371 L422.002169,717.071546 M443.35056,721.946894 L465.315809,726.963114" id="Shape" stroke-dasharray="1"></path>
            <path d="M213.845782,610.889597 L283.757877,563.216802 L305.410748,593.153643 M316.120581,607.960852 L335.912575,635.324879 M346.876787,650.483787 L368.322943,680.134828 M379.087311,695.017436 L395.197542,717.291129 L397.624703,718.927117 L414.78467,722.791395 M435.699453,727.501226 L458.121503,732.550481" id="Shape" stroke-width="2"></path>
            <path d="M213.845782,618.889597 L283.757877,571.216802 L386.197542,720.930926 L389.430081,725.143823 L451.146376,739.609612" id="Path-350-Copy-2" stroke-dasharray="1"></path>
            <path d="M290.758701,545.761053 L311.717908,575.471912 M322.584723,590.876236 L342.889207,619.658988 M355.35401,637.328551 L377.998318,669.428137 M388.465256,684.265612 L403.857647,706.085195 L426.861681,711.770541 M448.624411,717.149103 L472.052769,722.939318" id="Shape" stroke-width="2"></path>
            <path d="M66,139.536237 L413.206169,689.058042 L485.052769,705.077012 L531.163918,670.694822 L537.512923,616.456931 L289.258701,254.615684 L261.906266,194.388657 L235.906266,186.388657 L180.259405,89.1908709" id="Path-350" stroke-dasharray="1"></path>
            <polyline id="Path-351" stroke-width="2" points="194.867618 92.8340922 240.703092 172.388657 272.148849 182.388657 295.615243 251.854135"></polyline>
            <path d="M76.9382797,130.566211 L426.861681,680.134828 L487.27465,692.465345 L524.120253,662.057463 L528.891539,619.658988 L388.830431,415.928509 M384.949638,410.283574 L263.337506,233.388657 L249.906266,201.388657 L231.317089,192.448995 L165.453133,85.3085877" id="Shape" stroke-width="2"></path>
            <path d="M87,120.308588 L440.807394,670.694822 L488.794983,680.134828 L519.052769,656.387858 L521.153346,623.287352 L385.643397,425.498973 M381.585585,419.576248 L235.906266,206.944803 L227.769283,200.075649 L152.453133,80.1320219" id="Shape" stroke-dasharray="1"></path>
            <path d="M95,108.308588 L456.019642,663.795316 L491.869334,666.055127 L513.27465,649.087325 L513.27465,627.193507 L390.784747,448.339326 M371.119317,430.388657 L135.784793,76" id="Shape" stroke-width="2"></path>
            <path d="M102.953133,98.8714906 L469.434075,653.211151 L492.355706,653.378344 L506.308952,643.847588 L506.308952,639.851673" id="Path-355" stroke-dasharray="1"></path>
            <path d="M112,89.1908709 L354.144931,451.367524 M365.296994,468.047687 L481.434075,641.754149 L494.971486,640.562519" id="Shape" stroke-width="2"></path>
            <path d="M121.953133,77.3734458 L360.923313,434.435564 M382.701287,466.975564 L491.869334,630.091205" id="Shape" stroke-width="2"></path>
            <line x1="259.757821" y1="80.1320219" x2="251.472665" y2="172.388657" id="Path-352" stroke-dasharray="1"></line>
            <line x1="266.757821" y1="88.1320219" x2="258.977617" y2="174.765935" id="Path-352-Copy" stroke-width="2"></line>
            <path d="M273.757821,99.1320219 L272.73857,110.481555 M270.054188,140.372613 L266.697765,177.746966" id="Shape" stroke-dasharray="1"></path>
            <path d="M281.757821,108.132022 L281.122049,114.4599 M277.362215,151.881776 L275.201385,173.388657" id="Shape" stroke-width="2"></path>
            <path d="M289.709893,123.145477 L288.783976,131.180282 M285.284501,161.547572 L280.219304,205.501675" id="Shape" stroke-dasharray="1"></path>
            <line x1="296.544521" y1="137.611375" x2="285.837651" y2="223.179267" id="Path-352-Copy-5" stroke-width="2"></line>
            <line x1="305.269676" y1="147.035552" x2="292.615243" y2="242.085123" id="Path-352-Copy-6" stroke-dasharray="1"></line>
            <line x1="319.652735" y1="153.075649" x2="302.269676" y2="250.033938" id="Path-353" stroke-dasharray="1"></line>
            <polyline id="Path-353-Copy" stroke-width="2" points="316.598169 98.8714906 327.345814 139.748335 326.73181 146.031158 330.066356 146.453935 309.461206 265.388657"></polyline>
            <path d="M310.684903,32.6042778 L338.504224,133.599659 L338.02148,140.897572 L340.646961,141.64519 L318.478339,266.615684" id="Path-353-Copy-2" stroke-dasharray="1"></path>
            <path d="M322.435194,27.9389203 L350.247216,127.587074 L349.833515,133.474829 L352.119874,133.782531 L351.025066,141.031582 M345.73138,172.330738 L341.807394,195.388657 M339.872524,207.913329 L336.029323,230.006858 M332.896557,246.756371 L331.434766,255.233746" id="Shape" stroke-width="2"></path>
            <path d="M336.809001,20.9017224 L346.833863,61.5232664 M352.988541,86.4625137 L361.667985,121.632315 L361.667985,127.151638 L363.68543,127.700387 L363.149607,131.106201 M357.847755,164.805998 L353.847471,190.232729 M351.967288,202.183604 L339.495471,262.388657" id="Shape" stroke-dasharray="1"></path>
            <path d="M348.750759,13.2369215 L359.643311,59.7138432 M363.596166,76.5800952 L372.631732,115.133531 L372.631732,122.46698 L375.367473,123.145477 L374.090886,130.262563 M368.787559,159.829081 L347.797476,260.125394" id="Shape" stroke-width="2"></path>
            <path d="M363.082474,6.83073209 L385.473457,108.308588 L385.473457,113.942914 L387.724898,115.440167 L357.538566,258.765582" id="Path-353-Copy-6" stroke-dasharray="1"></path>
            <polyline id="Path-353-Copy-7" stroke-width="2" points="375.367473 0.818783852 397.215169 101.113757 396.792031 108.308588 398.724898 108.784357 364.130842 258.765582"></polyline>
            <path d="M251.472665,81.7001074 L271.88376,108.824897 M289.713463,132.519212 L310.684903,160.388657 L349.191747,143.280036 M375.375906,131.646394 L406.981678,117.603925" id="Shape" stroke-dasharray="1"></path>
            <path d="M250.472665,93.7001074 L269.599492,119.118202 M290.395116,146.754001 L309.684903,172.388657 L341.162197,158.403271 M373.491808,144.0392 L403.484341,130.713494" id="Shape" stroke-width="2"></path>
            <path d="M248.472665,105.700107 L268.161037,131.864453 M289.538009,160.272819 L307.684903,184.388657 L338.44951,170.719918 M370.861952,156.319045 L400.021724,143.363336" id="Shape" stroke-dasharray="1"></path>
            <polyline id="Path-354-Copy-3" stroke-width="2" points="247.472665 116.700107 306.684903 195.388657 396.414677 155.521649"></polyline>
            <path d="M245.472665,127.700107 L304.684903,206.388657 L393.832806,166.780174" id="Path-354-Copy-4" stroke-dasharray="1"></path>
            <path d="M244.472665,138.700107 L271.034387,173.998611 M277.291772,182.314198 L303.684903,217.388657 L337.570824,202.333116 M352.368541,195.758479 L389.577761,179.226393" id="Shape" stroke-width="2"></path>
            <path d="M243.472665,149.700107 L263.907882,176.856953 M277.284134,194.632972 L302.684903,228.388657 L386.521424,191.140025" id="Shape" stroke-dasharray="1"></path>
            <path d="M241.472665,159.700107 L251.075147,172.461073 M285.166596,217.76601 L300.684903,238.388657 L384.157363,201.301778" id="Shape" stroke-width="2"></path>
            <path d="M294.038253,242.213614 L298.684903,248.388657 L334.812287,232.337232 M344.752279,227.920886 L381.429744,211.62506" id="Shape" stroke-dasharray="1"></path>
            <path d="M305.785749,255.233746 L330.899903,244.075507 M344.104077,238.208883 L377.910413,223.188701" id="Shape" stroke-dasharray="1"></path>
            <line x1="309.808144" y1="261.446592" x2="375.935517" y2="232.066149" id="Path-354-Copy-10" stroke-width="2"></line>
            <path d="M314.247542,268.474164 L327.81091,262.447949 M338.531051,257.684982 L372.971882,242.382894" id="Shape" stroke-dasharray="1"></path>
            <line x1="387.724898" y1="9.69954216" x2="317.025213" y2="46.6780332" id="Path-356" stroke-dasharray="1"></line>
            <line x1="387.724898" y1="22.6995422" x2="317.025213" y2="59.6780332" id="Path-356-Copy" stroke-width="2"></line>
            <path d="M390.724898,33.6995422 L354.670442,52.5573261 M347.891202,56.1031137 L320.025213,70.6780332" id="Shape" stroke-dasharray="1"></path>
            <path d="M391.724898,45.6995422 L363.344859,60.338146 M343.014667,70.8245876 L319.652735,82.8748197" id="Shape" stroke-width="2"></path>
            <path d="M394.724898,56.6995422 L369.192713,70.0592751 M349.407852,80.411717 L321.439023,95.0464258" id="Shape" stroke-dasharray="1"></path>
            <line x1="398.724898" y1="67.6995422" x2="325.665932" y2="105.700107" id="Path-356-Copy-5"></line>
            <line x1="401.724898" y1="80.6995422" x2="325.665932" y2="121.044382" id="Path-356-Copy-6" stroke-dasharray="1"></line>
        </g>
    </g>
</svg>