<?xml version="1.0" encoding="UTF-8"?>
<svg width="1920px" height="1080px" viewBox="0 0 1920 1080" version="1.1" xmlns="http://www.w3.org/2000/svg" xmlns:xlink="http://www.w3.org/1999/xlink">
    <!-- Generator: Sketch 62 (91390) - https://sketch.com -->
    <title>aarau3</title>
    <desc>Created with Sketch.</desc>
    <g id="aarau3" stroke="none" stroke-width="1" fill="none" fill-rule="evenodd">
        <g id="Group-36" transform="translate(1287.666809, 660.232058)" stroke="#FFFFFF">
            <line x1="1" y1="-2.10205969e-12" x2="20.5716064" y2="61.8512289" id="Path-370"></line>
            <line x1="7" y1="-2.10205969e-12" x2="26.5716064" y2="61.8512289" id="Path-370-Copy" stroke-width="0.5" stroke-dasharray="1"></line>
            <line x1="14" y1="-2.10205969e-12" x2="33.5716064" y2="61.8512289" id="Path-370-Copy-2"></line>
            <line x1="20.2858032" y1="-2.10205969e-12" x2="40.5716064" y2="61.8512289" id="Path-370-Copy-3" stroke-width="0.5" stroke-dasharray="1"></line>
            <line x1="-5.68434189e-14" y1="2.42803388" x2="24.5716064" y2="2.42803388" id="Path-371" stroke-width="0.5" stroke-dasharray="1"></line>
            <line x1="1" y1="6.42803388" x2="25.5716064" y2="6.42803388" id="Path-371-Copy"></line>
            <line x1="2" y1="10.4280339" x2="26.5716064" y2="10.4280339" id="Path-371-Copy-2" stroke-width="0.5" stroke-dasharray="1"></line>
            <line x1="3" y1="14.4280339" x2="27.5716064" y2="14.4280339" id="Path-371-Copy-3"></line>
            <line x1="4" y1="18.4280339" x2="28.5716064" y2="18.4280339" id="Path-371-Copy-4" stroke-width="0.5" stroke-dasharray="1"></line>
            <line x1="6" y1="22.4280339" x2="30.5716064" y2="22.4280339" id="Path-371-Copy-5"></line>
            <line x1="7" y1="26.4280339" x2="31.5716064" y2="26.4280339" id="Path-371-Copy-6" stroke-width="0.5" stroke-dasharray="1"></line>
            <line x1="9" y1="30.4280339" x2="33.5716064" y2="30.4280339" id="Path-371-Copy-7"></line>
            <line x1="10" y1="34.4280339" x2="34.5716064" y2="34.4280339" id="Path-371-Copy-8" stroke-width="0.5" stroke-dasharray="1"></line>
            <line x1="11" y1="38.4280339" x2="35.5716064" y2="38.4280339" id="Path-371-Copy-9"></line>
            <line x1="12" y1="42.4280339" x2="36.5716064" y2="42.4280339" id="Path-371-Copy-10" stroke-width="0.5" stroke-dasharray="1"></line>
            <line x1="13" y1="46.4280339" x2="37.5716064" y2="46.4280339" id="Path-371-Copy-11"></line>
            <line x1="14" y1="50.4280339" x2="38.5716064" y2="50.4280339" id="Path-371-Copy-12" stroke-width="0.5" stroke-dasharray="1"></line>
            <line x1="15" y1="54.4280339" x2="39.5716064" y2="54.4280339" id="Path-371-Copy-13"></line>
            <line x1="16" y1="58.4280339" x2="40.5716064" y2="58.4280339" id="Path-371-Copy-14" stroke-width="0.5" stroke-dasharray="1"></line>
        </g>
    </g>
</svg>