<?xml version="1.0" encoding="UTF-8"?>
<svg width="1920px" height="1080px" viewBox="0 0 1920 1080" version="1.1" xmlns="http://www.w3.org/2000/svg" xmlns:xlink="http://www.w3.org/1999/xlink">
    <!-- Generator: Sketch 63.1 (92452) - https://sketch.com -->
    <desc>Created with Sketch.</desc>
    <g id="aarau3" stroke="none" stroke-width="1" fill="none" fill-rule="evenodd">
        <g id="Group-38" transform="translate(0.000000, 234.154415)" stroke="#FFFFFF">
            <line x1="79.1596392" y1="0.816635149" x2="94.2696673" y2="0.816635149" id="Path-516"></line>
            <line x1="46.6955855" y1="9.74398765" x2="94.2696673" y2="8.14372086" id="Path-518"></line>
            <line x1="40.8080007" y1="15.6891982" x2="98.9794634" y2="13.4171389" id="Path-519" stroke-width="0.5" stroke-dasharray="1"></line>
            <line x1="42.8080007" y1="21.499392" x2="100.29935" y2="19.4128942" id="Path-520"></line>
            <line x1="41.8080007" y1="27.8584975" x2="100.29935" y2="25.3094673" id="Path-521" stroke-width="0.5" stroke-dasharray="1"></line>
            <line x1="43.773525" y1="34.4979834" x2="102.139943" y2="31.2785197" id="Path-522"></line>
            <line x1="50.116418" y1="40.2143836" x2="107.035562" y2="36.4979834" id="Path-523" stroke-width="0.5" stroke-dasharray="1"></line>
            <line x1="43.773525" y1="46.7284613" x2="105.715676" y2="42.1450988" id="Path-524"></line>
            <line x1="43.773525" y1="51.675174" x2="109.966206" y2="46.7284613" id="Path-525" stroke-width="0.5" stroke-dasharray="1"></line>
            <line x1="43.773525" y1="57.3209305" x2="116.822176" y2="51.675174" id="Path-526"></line>
            <line x1="45.6955855" y1="62.6619161" x2="117.822176" y2="57.3209305" id="Path-527" stroke-width="0.5" stroke-dasharray="1"></line>
            <line x1="46.6955855" y1="68.0917369" x2="113.78186" y2="62.6619161" id="Path-528"></line>
            <line x1="46.6955855" y1="73.6764583" x2="116.822176" y2="68.0917369" id="Path-529" stroke-width="0.5" stroke-dasharray="1"></line>
            <line x1="45.6955855" y1="80.2787509" x2="123.66098" y2="73.6764583" id="Path-530"></line>
            <line x1="48.6983032" y1="86.7685099" x2="126.231134" y2="80.2787509" id="Path-531" stroke-width="0.5" stroke-dasharray="1"></line>
            <line x1="48.6983032" y1="93.3202577" x2="131.61463" y2="86.7685099" id="Path-532"></line>
            <line x1="31.1335154" y1="100.830306" x2="141.047836" y2="91.3202577" id="Path-533" stroke-width="0.5" stroke-dasharray="1"></line>
            <path d="M50.116418,8.94385426 L43.773525,19.4128942 L44.9043735,33.5747564 M45.7132422,43.7043964 L45.4776281,53.2769676 L55.4910686,100.998891" id="Shape" stroke-width="0.5" stroke-dasharray="1"></path>
            <path d="M63.8866766,6.71468775 L59.7117032,13.4171389 L56.7196779,21.499392 L59.7117032,51.675174 L72.0536752,99.6595742" id="Path-535" stroke-width="0.5" stroke-dasharray="1"></path>
            <polyline id="Path-537" points="56.116418 8.94385426 51.1795838 14.122855 48.6983032 20.4561431 51.1795838 52.0944433 61.2208202 100.998891"></polyline>
            <path d="M59.7502791,8.14372086 L55.2266935,14.0951272 L52.7328899,21.4636409 L55.2266935,52.5039774 L66.7934287,99.6595742" id="Path-538" stroke-width="0.5" stroke-dasharray="1"></path>
            <line x1="41.8080007" y1="93.3202577" x2="42.8080007" y2="101.998891" id="Path-534"></line>
            <line x1="47.8080007" y1="93.3202577" x2="48.8080007" y2="100.998891" id="Path-534-Copy" stroke-width="0.5" stroke-dasharray="1"></line>
            <polyline id="Path-536" points="67.1984657 6.71468775 63.5698172 12.9637209 61.2208202 21.499392 63.5698172 51.675174 75.7446004 98.0752817"></polyline>
            <path d="M81.2978504,98.0752817 L67.7064782,50.5506177 L66.7934287,15.6891982 L67.7064782,9.74398765 L71.5536752,4.69709205" id="Path-539" stroke-width="0.5" stroke-dasharray="1"></path>
            <polyline id="Path-540" points="75.6214112 2.99545393 71.9679236 8.14372086 69.893732 13.4171389 71.5536752 50.5506177 85.6782827 98.0752817"></polyline>
            <path d="M80.9062621,0.816635149 L77.7167139,4.16516454 L74.7446004,11.7287848 L76.95008,49.5506177 L91.1564666,96.7594588" id="Path-541" stroke-width="0.5" stroke-dasharray="1"></path>
            <polyline id="Path-542" points="86.7146533 -9.23705556e-14 82.4505335 3.40793986 79.1596392 9.74398765 81.7588807 49.2018176 95.2696673 96.7594588"></polyline>
            <path d="M89.7888592,0.816635149 L85.9046882,4.69709205 L82.9521196,11.0322509 L86.7146533,50.5506177 L99.9794634,96.7594588" id="Path-543" stroke-width="0.5" stroke-dasharray="1"></path>
            <polyline id="Path-544" points="92.9972737 2.2050703 89.4478366 5.33461706 86.9663272 9.94465469 90.7149985 50.2617437 104.355021 95.3202577"></polyline>
            <path d="M94.249613,4.69709205 L91.0256618,10.3182544 L95.0348374,50.2617437 L108.035562,96.7594588" id="Path-545" stroke-width="0.5" stroke-dasharray="1"></path>
            <polyline id="Path-546" points="95.0348374 8.14372086 98.9794634 49.8314818 113.114374 95.3202577"></polyline>
            <path d="M100.29935,27.8584975 L103.355021,50.5506177 L117.822176,95.3202577" id="Path-547" stroke-width="0.5" stroke-dasharray="1"></path>
            <polyline id="Path-548" points="105.715676 34.4979834 107.035562 50.7319893 122.398231 93.3202577"></polyline>
            <line x1="115.611722" y1="62.9091206" x2="128.279985" y2="95.3202577" id="Path-549" stroke-width="0.5" stroke-dasharray="1"></line>
            <line x1="42.8080007" y1="126.399886" x2="181.352701" y2="113.667517" id="Path-517" stroke-width="0.5" stroke-dasharray="1"></line>
            <line x1="52.7328899" y1="132.8114" x2="175.216605" y2="120.033702" id="Path-550"></line>
            <line x1="64.3866766" y1="137.229573" x2="105.042249" y2="133.523591" id="Path-551" stroke-width="0.5" stroke-dasharray="1"></line>
            <line x1="64.3866766" y1="150.439334" x2="186.017602" y2="137.229573" id="Path-552"></line>
            <line x1="68.4827103" y1="157.02528" x2="188.727032" y2="143.834453" id="Path-553" stroke-width="0.5" stroke-dasharray="1"></line>
            <line x1="74.0456396" y1="163.091373" x2="183.191119" y2="152.109059" id="Path-554"></line>
            <line x1="75.7446004" y1="168.900409" x2="186.017602" y2="159.608476" id="Path-555" stroke-width="0.5" stroke-dasharray="1"></line>
            <line x1="75.7446004" y1="176.246051" x2="186.017602" y2="166.060155" id="Path-556"></line>
            <line x1="74.0456396" y1="183.024789" x2="188.727032" y2="171.153103" id="Path-557" stroke-width="0.5" stroke-dasharray="1"></line>
            <line x1="74.0456396" y1="188.962354" x2="188.727032" y2="178.863674" id="Path-558"></line>
            <line x1="69.893732" y1="197.666727" x2="188.727032" y2="185.566673" id="Path-559" stroke-width="0.5" stroke-dasharray="1"></line>
            <line x1="64.3866766" y1="206.81636" x2="191.974675" y2="191.6167" id="Path-560"></line>
            <line x1="59.7631593" y1="214.738086" x2="191.974675" y2="200.761743" id="Path-561" stroke-width="0.5" stroke-dasharray="1"></line>
            <line x1="40.6955855" y1="122.033702" x2="48.8080007" y2="128.711107" id="Path-562" stroke-width="0.5" stroke-dasharray="1"></line>
            <line x1="48.9595617" y1="122.033702" x2="56.7196779" y2="131.814729" id="Path-563"></line>
            <line x1="55.2208202" y1="120.098313" x2="64.3866766" y2="135.420991" id="Path-564" stroke-width="0.5" stroke-dasharray="1"></line>
            <line x1="62.4827103" y1="120.098313" x2="72.0536752" y2="135.420991" id="Path"></line>
            <line x1="72.5346964" y1="142.102857" x2="74.0456396" y2="163.091373" id="Path"></line>
            <line x1="66.7934287" y1="150.429866" x2="66.7934287" y2="155.449656" id="Path-566"></line>
            <path d="M68.7446004,120.098313 L75.8037123,134.815184 M78.57599,147.594843 L81.2978504,174.366319 L76.8698653,197.666727 L64.3866766,217.286855" id="Shape" stroke-width="0.5" stroke-dasharray="1"></path>
            <line x1="55.1929037" y1="225.813204" x2="43.3783193" y2="236.770106" id="Path" stroke-width="0.5" stroke-dasharray="1"></line>
            <path d="M75.2978504,120.098313 L81.3060425,135.301375 M83.4203962,140.651511 L84.6782827,143.834453 L86.9663272,176.246051 L81.7588807,202.360318 L72.8422635,214.738086" id="Shape"></path>
            <polyline id="Path" points="65.3487831 223.645476 57.4580778 233.025042 43.3783193 248.665344 18.751725 274.831282 0 290.081036"></polyline>
            <path d="M80.9663272,118.561707 L86.2215775,134.512536 M88.1925203,140.494776 L91.4657915,150.429866 L93.0707325,174.437469 L87.4647187,202.428025 L82.9521196,214.738086" id="Shape" stroke-width="0.5" stroke-dasharray="1"></path>
            <path d="M77.3939474,221.40343 L62.3380849,239.458377 L43.3783193,259.84403 L19.899231,282.105563 L-1.13686838e-13,300.312817" id="Path" stroke-width="0.5" stroke-dasharray="1"></path>
            <path d="M87.4657915,118.561707 L92.7603884,134.389202 M94.3782103,139.225466 L97.7184666,149.21072 L99.5306119,177.088946 L95.0348374,202.149963 L91.4657915,214.738086" id="Shape"></path>
            <path d="M85.7170207,222.180941 L79.177046,230.648158 L56.0826834,258.151237 L19.899231,292.080301 C6.633077,303.43548 0,309.113069 0,309.113069" id="Path"></path>
            <path d="M91.6606743,118.561707 L97.9199157,133.657056 M99.9274141,138.49852 L102.139943,143.834453 L105.715676,176.246051 L98.9794634,212.171558" id="Shape" stroke-width="0.5" stroke-dasharray="1"></path>
            <path d="M94.5181821,219.256555 L92.3934835,222.630806 M87.7761118,229.963691 L86.9663272,231.249716 L69.893732,254.108058 L46.5353663,275.922871 L20.0778194,302.403694 L0,320.628767" id="Shape" stroke-width="0.5" stroke-dasharray="1"></path>
            <path d="M98.1399426,117.344469 L103.800141,132.201597 M105.715676,137.229573 L112.080351,171.153103 L109.966206,185.566673 L105.715676,212.171558" id="Shape"></path>
            <polyline id="Path" points="101.543857 219.038156 93.0707325 232.984479 75.7446004 258.989459 54.9595617 279.364336 29.3459674 305.31243 0 331.03368"></polyline>
            <path d="M105.060763,117.344469 L109.158289,132.41399 M110.478032,137.267624 L114.056953,150.429866 L117.822176,173.366379 L116.822176,191.6167 L113.78186,209.752694" id="Shape" stroke-width="0.5" stroke-dasharray="1"></path>
            <path d="M110.107583,217.433552 L105.715676,226.614575 L93.0707325,246.579643 L81.2978504,264.093007 L59.7631593,285.081036 L31.1335154,315.43256 L1.13686838e-13,340.948906" id="Path" stroke-width="0.5" stroke-dasharray="1"></path>
            <path d="M111.611722,117.344469 L115.357946,130.959412 M117.144108,137.450876 L120.313192,148.968309 L123.788898,171.153103 L123.788898,187.050912 L122.398231,207.749914" id="Shape"></path>
            <polyline id="Path" points="118.457422 216.207162 111.611722 230.898505 96.2901189 257.114346 81.2978504 275.423502 56.0401753 301.521404 19.5498725 336.549619 1.13686838e-13 352.829783"></polyline>
            <path d="M118.398231,117.344469 L122.050873,130.486454 M123.592464,136.033004 L126.231134,145.526777 L130.881101,171.153103 L129.310382,206.81636" id="Shape" stroke-width="0.5" stroke-dasharray="1"></path>
            <path d="M125.613773,215.108729 L117.822176,232.587126 L100.29935,263.375399 L74.0456396,292.890944 L43.773525,320.285846 L16.7773548,348.172627 L0,362.827941" id="Path" stroke-width="0.5" stroke-dasharray="1"></path>
            <path d="M124.618379,115.980005 L128.482062,129.775525 M130.038888,135.33427 L134.969622,152.939761 L137.874435,168.900409 L137.874435,181.787978 L136.369444,206.81636" id="Shape"></path>
            <polyline id="Path" points="133.078558 214.651819 123.788898 236.770106 109.060763 262.862024 90.1564666 285.081036 69.893732 305.988442 41.8080007 332.946756 13.906933 360.827941 0 374.408946"></polyline>
            <path d="M131.450131,115.980005 L136.184214,129.060794 M138.231018,134.71634 L139.682236,138.726215 L144.315068,163.048582 L145.481889,174.702738 L144.315068,206.81636" id="Shape" stroke-width="0.5" stroke-dasharray="1"></path>
            <path d="M141.095681,214.737274 L133.840763,232.587126 L121.945853,254.396239 L112.080351,270.203142 L91.4657915,295.312817 L62.4827103,323.430441 L36.0463895,350.408488 L17.9272021,370.058893 L-1.13686838e-13,387.156584" id="Path" stroke-width="0.5" stroke-dasharray="1"></path>
            <path d="M138.30509,114.667517 L142.415755,128.130009 M144.078819,133.576569 L149.737567,152.109059 L151.669575,164.258014 L151.669575,177.088946 L151.669575,205.151594" id="Shape"></path>
            <polyline id="Path" points="148.458087 213.263128 137.874435 239.995171 117.822176 272.918292 103.262098 291.395583 81.2978504 315.628767 59.7631593 335.948906 36.8143533 359.836677 11.7219434 385.156584 0 397.1541"></polyline>
            <path d="M145.751166,114.667517 L150.322507,127.309222 M152.220188,132.557119 L154.490979,138.836823 L158.058531,157.02528 L158.058531,168.192584 L158.058531,185.566673 L158.058531,205.151594" id="Shape" stroke-width="0.5" stroke-dasharray="1"></path>
            <path d="M155.793366,212.772549 L151.669575,226.646688 L141.71344,245.275795 L129.310382,266.865507 L112.080351,291.80964 L93.0707325,313.570011 L75.7446004,332.244538 L58.0401753,349.685288 L37.1906415,369.408946 L8.59693258,398.640012 L-1.13686838e-13,408.248308" id="Path" stroke-width="0.5" stroke-dasharray="1"></path>
            <path d="M151.916187,113.24745 L157.686032,126.36713 M162.667788,138.420991 L164.223552,159.409556 L164.223552,188.962354 L164.223552,205.151594" id="Shape"></path>
            <polyline id="Path" points="161.467553 215.878317 158.058531 229.146688 141.047836 261.457913 115.611722 300.312817 96.0348374 321.628767 69.893732 352.829783 40.6955855 381.084431 11.4077666 410.799599 -1.13686838e-13 423.116981"></polyline>
            <path d="M158.854555,113.24745 L164.748206,125.876946 M167.519119,131.814729 L169.826468,147.762503 L169.826468,166.918199 L169.826468,202.683773" id="Shape" stroke-width="0.5" stroke-dasharray="1"></path>
            <path d="M167.726038,212.604232 L164.223552,229.146688 L154.637887,251.568295 L139.874435,275.181122 L126.231134,296.587301 L99.5306119,331.03368 L79.0292657,352.829783 L48.3080007,387.156584 L20.8335842,413.913453 L0,436.085099" id="Path" stroke-width="0.5" stroke-dasharray="1"></path>
            <path d="M165.826468,111.678997 L172.033183,122.434241 L172.34952,123.724735 M174.052,130.669991 L175.216605,135.420991 L175.216605,145.952888 L175.216605,168.192584 L177.01597,202.683773" id="Shape"></path>
            <polyline id="Path" points="175.444179 210.698833 171.826468 229.146688 160.964192 255.910809 145.481889 281.052091 126.231134 312.014952 100.29935 343.771961 76.7446004 369.57554 49.6322968 397.1541 19.8888513 429.728319 0 450.498102"></polyline>
            <line x1="171.216605" y1="111.678997" x2="177.01597" y2="116.344469" id="Path-583" stroke-width="0.5" stroke-dasharray="1"></line>
            <path d="M178.288866,121.033702 L178.872391,124.118299 M179.910828,129.607628 L181.352701,137.229573 L181.352701,157.02528 L183.191119,183.024789 L183.191119,200.761743" id="Shape" stroke-width="0.5" stroke-dasharray="1"></path>
            <path d="M181.512952,210.478637 L178.288866,229.146688 L165.223552,261.457913 L144.133515,300.312817 L121.66098,331.03368 L93.0707325,362.827941 L52.8578379,408.248308 L0,467.428004" id="Path" stroke-width="0.5" stroke-dasharray="1"></path>
            <line x1="188.727032" y1="188.962354" x2="188.727032" y2="200.354529" id="Path"></line>
            <polyline id="Path" points="188.727032 210.07826 188.727032 219.595237 177.01597 251.568295 150.669575 305.113069 128.279985 335.256816 75.8347877 397.1541 33.0147235 445.482234 1.13686838e-13 481.996969"></polyline>
            <path d="M188.727032,240.086205 L177.01597,271.14584 L164.223552,294.230853 L151.669575,317.520217 L129.310382,346.41076 L112.080351,367.492467 L91.5955597,394.608275 L68.2641749,423.116981 L43.3783193,450.498102 L17.5189519,477.427473 L1.13686838e-13,496.313169" id="Path-586" stroke-width="0.5" stroke-dasharray="1"></path>
            <polyline id="Path-587" points="195.107235 248.653308 177.01597 294.230853 164.223552 315.385156 137.874435 349.426018 108.618457 389.893573 75.8347877 431.612407 43.4831636 464.841192 22.1583615 488.271286 -1.19102151e-13 510.048546"></polyline>
            <path d="M199.121376,253.910809 L188.974675,290.081036 L169.826468,325.056151 L131.61463,379.350927 L90.1564666,432.086327 L65.4405506,458.005249" id="Path-588" stroke-width="0.5" stroke-dasharray="1"></path>
            <polyline id="Path-589" points="204.150221 262.9659 202.092732 280.842442 195.107235 300.312817 175.216605 335.479661 141.133515 382.863154 100.29935 436.085099"></polyline>
            <path d="M211.971147,268.347347 L211.797667,284.03384 L207.212488,300.312817 L186.017602,340.948906 L158.058531,379.350927 L126.231134,419.388723 L114.056953,436.085099" id="Path-590" stroke-width="0.5" stroke-dasharray="1"></path>
            <polyline id="Path-591" points="221.042557 272.084818 218.848502 290.952716 211.413873 313.273584 195.107235 345.171399 169.826468 386.156584 133.780963 428.981041"></polyline>
            <path d="M231.006727,274.666275 L230.659317,288.17886 L225.022621,309.113069 L211.413873,340.948906 L195.107235,368.199687 L177.01597,397.1541 L164.223552,413.254078" id="Path-592" stroke-width="0.5" stroke-dasharray="1"></path>
            <polyline id="Path-593" points="239.977879 276.377848 241.359923 288.917907 238.518712 305.988442 220.971147 346.35619 196.107235 384.583983"></polyline>
            <line x1="450.342523" y1="32.090821" x2="455.189341" y2="30.2457582" id="Path-594"></line>
            <line x1="455.189341" y1="33.090821" x2="461.896319" y2="31.6682896" id="Path-595"></line>
            <line x1="461.896319" y1="33.6000001" x2="466.899398" y2="32.3795553" id="Path-596"></line>
            <line x1="468.010053" y1="34.6000001" x2="473.245908" y2="32.3795553" id="Path-597"></line>
            <line x1="474.245908" y1="35.6766688" x2="480.344251" y2="33.4897777" id="Path-598"></line>
            <line x1="478.375314" y1="37.6979074" x2="487.665752" y2="34.5832233" id="Path-599"></line>
            <line x1="483.84715" y1="38.9015448" x2="493.988535" y2="35.6766688" id="Path-600"></line>
            <line x1="490.494409" y1="39.8589399" x2="499.647055" y2="37.2891068" id="Path-601"></line>
            <line x1="496.440134" y1="42.0032996" x2="508.246296" y2="38.5740233" id="Path-602"></line>
            <line x1="500.510826" y1="44.5766596" x2="514.923694" y2="42.0032996" id="Path-603"></line>
            <line x1="525.21711" y1="59.0355208" x2="591.551764" y2="54.5177971" id="Path-604" stroke-width="0.5" stroke-dasharray="1"></line>
            <line x1="525.21711" y1="63.3359438" x2="607.839942" y2="56.7766589" id="Path-605"></line>
            <line x1="525.21711" y1="67.551577" x2="611.187224" y2="61.328256" id="Path-606" stroke-width="0.5" stroke-dasharray="1"></line>
            <line x1="526.702424" y1="72.4216687" x2="613.77012" y2="65.9145786" id="Path-607"></line>
            <line x1="526.702424" y1="76.9866873" x2="618.601012" y2="71.0224228" id="Path-608" stroke-width="0.5" stroke-dasharray="1"></line>
            <line x1="526.702424" y1="81.8397358" x2="632.99143" y2="76.9866873" id="Path-609"></line>
            <line x1="526.702424" y1="86.9066763" x2="636.940337" y2="81.8397358" id="Path-610" stroke-width="0.5" stroke-dasharray="1"></line>
            <line x1="534.883156" y1="91.7120039" x2="639.586293" y2="86.9066763" id="Path-611"></line>
            <line x1="536.18696" y1="97.3848299" x2="646.886743" y2="90.5573277" id="Path-612" stroke-width="0.5" stroke-dasharray="1"></line>
            <line x1="531.765956" y1="102.624759" x2="662.886038" y2="95.4154892" id="Path-613"></line>
            <line x1="530.765956" y1="107.081988" x2="669.235479" y2="101.020124" id="Path-614" stroke-width="0.5" stroke-dasharray="1"></line>
            <line x1="531.765956" y1="111.806778" x2="669.235479" y2="107.081988" id="Path-615"></line>
            <line x1="536.18696" y1="117.491534" x2="671.994772" y2="114.047105" id="Path-616" stroke-width="0.5" stroke-dasharray="1"></line>
            <line x1="525.21711" y1="123.115787" x2="671.994772" y2="120.578056" id="Path-617" stroke-width="0.5" stroke-dasharray="1"></line>
            <line x1="525.21711" y1="129.882691" x2="671.994772" y2="128.168501" id="Path-618"></line>
            <line x1="521.89217" y1="136.919466" x2="646.886743" y2="135.738347" id="Path-619" stroke-width="0.5" stroke-dasharray="1"></line>
            <line x1="519.085125" y1="143.418412" x2="636.940337" y2="142.771637" id="Path-620"></line>
            <line x1="516.898255" y1="150.637578" x2="633.99143" y2="149.637578" id="Path-621" stroke-width="0.5" stroke-dasharray="1"></line>
            <line x1="513.228309" y1="157.826548" x2="618.601012" y2="157.826548" id="Path-622"></line>
            <line x1="502.343215" y1="164.238502" x2="613.77012" y2="164.238502" id="Path-623" stroke-width="0.5" stroke-dasharray="1"></line>
            <line x1="487.665752" y1="169.90253" x2="611.187224" y2="169.90253" id="Path-624"></line>
            <line x1="485.020533" y1="176.353916" x2="562.677657" y2="176.973876" id="Path-625" stroke-width="0.5" stroke-dasharray="1"></line>
            <path d="M452.765932,30.2457582 L485.020533,34.5832233 L510.934555,39.8589399 L528.998855,43.2899796" id="Path-626" stroke-width="0.5" stroke-dasharray="1"></path>
            <path d="M458.54283,32.9897777 L480.344251,35.6766688 L502.343215,40.2886615 L513.228309,43.2899796" id="Path-627" stroke-width="0.5" stroke-dasharray="1"></path>
            <path d="M519.89217,54.0398114 L526.998855,60.7766589 L531.765956,69.1681236 L531.765956,88.9066763" id="Path-628" stroke-width="0.5" stroke-dasharray="1"></path>
            <polyline id="Path-629" points="524.702424 54.0398114 532.883156 60.7766589 537.18696 69.4732438 537.18696 89.3093401 536.18696 95.4154892"></polyline>
            <path d="M529.998855,54.0398114 L537.18696,58.7766589 L541.011554,67.551577 L541.011554,84.3732061 L541.011554,93.9710788 L536.18696,111.806778" id="Path-630" stroke-width="0.5" stroke-dasharray="1"></path>
            <polyline id="Path" points="537.18696 56.0398114 542.718616 60.7766589 544.860811 67.551577 545.860811 76.9866873 545.860811 91.7120039 540.953422 115.769319 534.883156 135.738347 528.998855 149.637578 520.686291 162.222356 504.726077 179.70781"></polyline>
            <polyline id="Path" points="491.407174 190.601283 461.896319 214.738086 421.327895 238.086205 323.355025 281.088549 232.1054 313.158188 158.058531 331.03368 74.7446004 356.958029 -1.13686838e-13 374.408946"></polyline>
            <path d="M541.011554,53.7376012 L548.369923,60.7766589 L550.426488,65.9145786 L550.426488,79.4132115 L550.426488,93.9710788 L547.369923,109.444383 L544.719021,123.115787 L540.523886,136.919466 L531.765956,155.389989 L521.89217,168.199738 L512.034584,178.919389 L510.634167,180.442276" id="Path" stroke-width="0.5" stroke-dasharray="1"></path>
            <path d="M499.114116,190.458017 L470.62798,215.224379 L418.182139,245.194476 L329.30399,285.268849 L239.137521,317.004986 L171.216605,335.479661 L97.5536174,356.958029 L49.765306,370.782169 L0,379.350927" id="Path" stroke-width="0.5" stroke-dasharray="1"></path>
            <path d="M534.505205,120.578056 L527.694464,140.169444 L522.688547,150.637578 L513.228309,163.180795 L495.920556,179.70781" id="Path" stroke-width="0.5" stroke-dasharray="1"></path>
            <path d="M482.139449,190.299666 L450.342523,214.738086 L410.033757,235.087126 L336.962862,268.182216 L266.706502,294.230853 L151.669575,326.214994 L43.3783193,356.908844 L-1.13686838e-13,368.199687" id="Path" stroke-width="0.5" stroke-dasharray="1"></path>
            <polyline id="Path" points="506.52618 162.820003 491.083743 177.369125 486.993913 180.012698"></polyline>
            <polyline id="Path" points="471.717296 189.887155 463.546084 195.16884 425.149587 219.366027 397.6054 233.73671 371.048007 246.628375 337.966944 261.211155 302.761283 274.666275 248.627123 290.081036 188.727032 309.113069 131.386336 324.14968 68.4827103 340.948906 0 356.958029"></polyline>
            <polyline id="Path" points="542.798232 51.888964 552.10889 57.1511225 554.541301 63.328256 555.45908 65.9145786 555.45908 80.4401322 555.45908 95.4154892 551.10889 118.833837 545.838867 137.925497 537.76361 155.214178 527.651523 169.90253 519.085125 179.70781"></polyline>
            <polyline id="Path" points="505.942133 192.281616 482.469112 214.738086 433.45288 245.194476 369.906382 274.666275 303.588847 301.741314 236.161485 324.126972 158.058531 346.846639 79.1596392 368.199687 40.6955855 378.350927 0 387.156584"></polyline>
            <path d="M550.426488,51.888964 L557.124046,56.5177971 L559.384437,62.0563014 L560.403604,70.4732438 L560.403604,81.8397358 L558.384437,97.3848299 L556.124046,117.491534 L549.426488,139.797713 L542.896309,156.27039 L533.181273,171.142852 L526.702424,178.763832" id="Path" stroke-width="0.5" stroke-dasharray="1"></path>
            <path d="M511.007073,195.44175 L499.424035,207.749914 L477.695791,226.064464 L434.387751,251.568295 L399.739199,268.182216 L338.182615,294.230853 L286.985606,315.013304 L220.971147,335.479661 L167.51405,350.851377 L99.5306119,368.199687 L37.7690973,386.156584 L-1.13686838e-13,394.571017" id="Path" stroke-width="0.5" stroke-dasharray="1"></path>
            <polyline id="Path" points="559.056667 53.7376012 564.094343 58.7766589 565.533476 64.4399165 565.533476 74.004555 565.533476 81.9232945 565.533476 93.9710788 563.094343 104.051056 559.403604 124.775474 555.698735 138.906114 547.35289 159.518155 533.29078 178.763832"></polyline>
            <line x1="521.911057" y1="191.241363" x2="517.670515" y2="195.890994" id="Path"></line>
            <polyline id="Path" points="513.228309 200.761743 478.452171 232.044812 440.806375 255.910809 395.658636 277.377848 342.134169 299.84683 291.504444 320.628767 244.006727 335.479661 186.017602 352.829783 123.788898 370.914712 65.4405506 385.583983 0 401.581667"></polyline>
            <path d="M565.533476,56.0398114 L569.202167,61.0355208 L571.236272,69.1681236 L571.236272,79.4132115 L571.236272,93.9710788 L567.384874,111.806778 L564.533476,131.057691 L559.403604,145.282153 L554.45908,157.826548 L548.603879,168.813847 L540.011554,178.763832" id="Path" stroke-width="0.5" stroke-dasharray="1"></path>
            <path d="M529.720459,191.886071 L526.702424,195.734386 L487.665752,233.364616 L464.928688,247.494123 L402.435085,282.556969 L328.785122,312.292621 L282.766738,329.60443 L239.800916,343.960176 L142.566567,372.231388 L52.8578379,394.571017 L-1.13686838e-13,408.248308" id="Path" stroke-width="0.5" stroke-dasharray="1"></path>
            <path d="M567.528526,51.888964 L573.651718,58.7766589 L576.444843,65.9145786 L576.444843,81.8397358 L575.444843,97.3848299 L572.651718,115.250717 L570.236272,132.205916 L561.974146,154.760004 L553.345551,170.094564 L548.603879,177.369125 M536.492167,191.320355 L508.789929,223.229991 L491.649761,237.385195" id="Shape"></path>
            <path d="M399.745076,291.122648 L372.837314,302.884515 M350.244037,312.109251 L318.136307,324.07513 M299.028327,331.196275 L293.616324,333.213215 L254.540158,346.250106 M223.158106,356.720028 L214.956055,359.456459 L142.676877,379.350927 L72.7409445,397.1541 L0,413.254078" id="Shape"></path>
            <path d="M575.444843,51.888964 L578.012731,56.7766589 L581.821381,64.4399165 L581.821381,76.9866873 L581.821381,95.4154892 L578.012731,120.578056 L572.651718,145.174374 L562.524361,164.238502 L555.45908,177.369125 M545.181195,190.458067 L535.505205,202.780492 L513.228309,227.659634 L500.380249,239.227787" id="Shape" stroke-width="0.5" stroke-dasharray="1"></path>
            <path d="M207.361884,368.634693 L108.66001,397.1541 L37.2176429,413.254078 L1.13686838e-13,420.210904" id="Path" stroke-width="0.5" stroke-dasharray="1"></path>
            <path d="M579.846927,51.888964 L586.101987,63.3359438 L586.101987,76.9866873 L586.101987,104.051056 L579.846927,136.919466 L573.980463,154.075656 L562.524361,177.369125 M554.813029,189.197516 L542.016833,208.825566 L519.085125,232.571521 L514.29959,236.09981" id="Shape"></path>
            <polyline id="Path" points="214.005533 374.040167 167.51405 389.042077 82.1117761 410.619882 24.2858378 423.116981 0 426.62915"></polyline>
            <path d="M586.101987,54.5177971 L590.052421,62.1695336 L591.536852,71.0224228 L591.551764,84.3732061 L591.536852,99.020124 L588.826876,115.769319 L585.23405,136.919466 L579.846927,153.51333 L571.236272,169.90253 L567.528526,177.369125 M561.292537,188.780275 L558.056667,194.701547 L539.310928,223.229991 L533.489167,228.345721" id="Shape" stroke-width="0.5" stroke-dasharray="1"></path>
            <path d="M223.357098,380.067498 L216.295276,382.074598 L164.223552,397.1541 L123.788898,408.248308 L72.7409445,420.210904 L24.5620825,429.981041 L0,436.085099" id="Path" stroke-width="0.5" stroke-dasharray="1"></path>
            <path d="M591.551764,54.5177971 L595.556648,63.3359438 L596.325997,74.004555 L596.325997,84.3732061 L596.325997,99.020124 L594.556648,112.637927 L591.551764,129.025596 L589.042294,142.771637 L584.389457,155.978169 L578.012731,167.855204 L573.754647,176.519585 M568.214378,188.926916 L560.403604,206.81636 L545.860811,229.146688 L538.823787,235.671398" id="Shape"></path>
            <polyline id="Path" points="181.352701 401.581667 69.893732 428.981041 0 445.05847"></polyline>
            <path d="M597.325997,56.0398114 L600.500718,63.3359438 L601.748019,73.8759076 L601.748019,91.7120039 L600.500718,104.051056 L598.605941,123.115787 L594.756911,139.771098 L590.643699,154.076299 L586.101987,165.502959 L579.012731,177.369125" id="Path" stroke-width="0.5" stroke-dasharray="1"></path>
            <path d="M574.594148,188.916212 L571.236272,197.691353 L563.984936,215.224379 L550.426488,232.14406" id="Path" stroke-width="0.5" stroke-dasharray="1"></path>
            <polyline id="Path" points="601.748019 56.7766589 606.834685 65.9145786 606.834685 78.435153 606.834685 90.5573277 605.871525 104.051056 604.291352 115.326398 601.748019 129.882691 597.325997 148.755439 593.255231 160.238074 584.389457 177.369125"></polyline>
            <polyline id="Path" points="580.572415 189.056764 578.012731 196.894421 571.236272 215.224379 558.056667 232.571521"></polyline>
            <path d="M607.839942,60.0563014 L611.187224,65.9145786 L612.187224,74.004555 L612.187224,84.3732061 L612.187224,95.4154892 L611.187224,109.444383 L608.839942,120.578056 L606.834685,131.41664 L603.087564,146.255857 L598.605941,161.702437 L593.3897,171.87255 L590.880375,177.369125" id="Path" stroke-width="0.5" stroke-dasharray="1"></path>
            <path d="M587.433077,188.977454 L586.101987,193.459727 L578.012731,212.514867 L565.91466,232.571521" id="Path" stroke-width="0.5" stroke-dasharray="1"></path>
            <polyline id="Path" points="615.683102 70.0298664 617.683102 82.9232945 617.683102 97.3848299 616.683102 113.179664 614.731047 124.987856 609.894019 142.771637 604.090866 161.064191 596.325997 177.369125"></polyline>
            <polyline id="Path" points="592.571704 189.496614 586.101987 210.395729 576.444843 227.659634"></polyline>
            <path d="M621.197417,74.004555 L623.197417,90.5573277 L623.197417,109.444383 L620.72415,129.025596 L613.77012,150.142933 L604.090866,177.369125" id="Path" stroke-width="0.5" stroke-dasharray="1"></path>
            <path d="M600.414298,189.513821 L594.043252,210.559105 L591.536852,216.544264" id="Path" stroke-width="0.5" stroke-dasharray="1"></path>
            <polyline id="Path-649" points="626.18988 75.9866873 628.18988 85.9066763 629.06051 93.9710788 629.06051 110.511248 626.18988 123.699496 623.197417 139.487364 617.683102 155.283996"></polyline>
            <path d="M631.315016,80.0991995 L633.99143,90.5573277 L634.655618,108.816939 L632.003715,125.078649 L627.277942,141.84202 L624.07636,151.250123" id="Path-650" stroke-width="0.5" stroke-dasharray="1"></path>
            <polyline id="Path-651" points="638.380811 84.3732061 640.539283 92.8556782 640.539283 104.051056 639.586293 116.250717 635.973566 131.376631 629.365989 150.137578"></polyline>
            <path d="M644.290543,88.050334 L646.886743,101.76715 L645.588643,111.806778 L643.043934,125.68684 L639.586293,136.919466 L636.940337,142.771637" id="Path-652" stroke-width="0.5" stroke-dasharray="1"></path>
            <polyline id="Path-653" points="648.987964 90.5573277 652.089853 99.020124 652.089853 108.634932 648.987964 121.846921 645.329994 135.738347"></polyline>
            <path d="M654.351676,92.3869422 L657.333294,101.020124 L657.333294,111.806778 L655.03443,120.578056 L652.089853,129.882691" id="Path-654" stroke-width="0.5" stroke-dasharray="1"></path>
            <polyline id="Path-655" points="659.793129 93.9710788 662.886038 103.291799 662.886038 113.147837 661.339584 120.578056 658.338904 128.168501"></polyline>
            <path d="M664.566005,96.0718931 L667.347324,102.624759 L668.074894,113.147837 L667.347324,123.115787 L664.566005,128.168501" id="Path-656" stroke-width="0.5" stroke-dasharray="1"></path>
            <path d="M164.223552,415.536653 L86.9663272,433.401278 L-1.13686838e-13,451.498102" id="Path-657" stroke-width="0.5" stroke-dasharray="1"></path>
            <polyline id="Path-658" points="140.087246 428.981041 88.5079852 440.762891 46.5353663 450.498102 -1.13686838e-13 459.005249"></polyline>
            <path d="M82.1117761,450.498102 L19.7572319,463.915082 L0,468.428004" id="Path-659" stroke-width="0.5" stroke-dasharray="1"></path>
            <polyline id="Path-660" points="58.9110879 463.754496 26.0332946 470.400919 1.10416615e-13 475.589331"></polyline>
            <line x1="50.2652506" y1="473.315155" x2="1.13686838e-13" y2="483.617781" id="Path-661" stroke-width="0.5" stroke-dasharray="1"></line>
            <line x1="35.7271497" y1="481.996969" x2="1.13686838e-13" y2="492.11376" id="Path-662"></line>
            <line x1="22.425364" y1="493.395666" x2="0" y2="501.022739" id="Path-663" stroke-width="0.5" stroke-dasharray="1"></line>
            <line x1="607.367134" y1="191.169744" x2="601.748019" y2="207.203999" id="Path-664"></line>
            <path d="M246.897272,276.377848 L248.627306,291.858646 L246.897272,309.018719 L234.955357,335.479661 L223.710133,359.225959" id="Path-665" stroke-width="0.5" stroke-dasharray="1"></path>
            <polyline id="Path-666" points="255.047137 278.02889 257.202667 290.472281 255.047137 305.988442 248.627306 325.921625 236.168719 350.53293"></polyline>
            <path d="M262.71423,278.02889 L262.71423,301.486055 L258.708265,317.801904 L250.84479,342.328899" id="Path-667" stroke-width="0.5" stroke-dasharray="1"></path>
            <polyline id="Path-668" points="269.143413 278.02889 269.143413 288.013995 269.143413 302.347565 267.252602 317.801904 260.993547 342.328899 257.202667 349.525499"></polyline>
            <path d="M275.213244,278.02889 L277.72954,286.556324 L277.72954,301.25928 L276.471392,314.28091 L270.732005,335.479661 L269.143413,347.334309" id="Path-669" stroke-width="0.5" stroke-dasharray="1"></path>
            <polyline id="Path-670" points="283.766738 278.02889 286.618136 288.639379 285.192437 305.988442 283.766738 321.257545 278.72954 339.759563"></polyline>
            <path d="M290.222421,276.377848 L295.050994,284.122586 L295.050994,295.924227 L292.91069,310.178894 L287.618136,336.118308" id="Path-671" stroke-width="0.5" stroke-dasharray="1"></path>
            <polyline id="Path-672" points="298.775882 274.666275 303.971928 281.397782 303.971928 296.437393 302.162999 312.6816 299.775882 330.480916"></polyline>
            <path d="M306.917662,271.084818 L313.630838,283.049497 L313.630838,298.367317 L313.630838,312.6816 L311.27425,320.69879" id="Path-673" stroke-width="0.5" stroke-dasharray="1"></path>
            <polyline id="Path-674" points="313.630838 267.868504 321.323587 276.377848 323.221949 287.141964 323.221949 299.241686 323.221949 306.248078 323.221949 317.801904"></polyline>
            <path d="M323.221949,265.347347 L332.239109,275.377848 L334.155006,291.232708 L334.155006,301.573595 L334.155006,319.69879" id="Path-675" stroke-width="0.5" stroke-dasharray="1"></path>
            <polyline id="Path-676" points="328.688477 261.523757 337.574788 269.653049 341.696896 285.944875 343.862428 300.80536 343.862428 317.801904"></polyline>
            <path d="M336.275453,257.67519 L345.668937,265.347347 L349.001766,274.666275 L350.889008,289.662831 L352.17598,306.248078" id="Path-677" stroke-width="0.5" stroke-dasharray="1"></path>
            <polyline id="Path-678" points="343.862428 254.200841 350.307734 259.889016 356.695102 271.084818 361.65113 286.812987 364.884231 299.719745"></polyline>
            <path d="M349.905971,249.788133 L358.113145,257.67519 L364.884231,267.868504 L371.890865,284.58192 L377.819483,302.573595 L380.537795,311.360427" id="Path-679" stroke-width="0.5" stroke-dasharray="1"></path>
            <polyline id="Path-680" points="354.373329 245.301448 370.742563 257.67519 377.78339 271.084818 384.966687 287.905251 392.25446 305.988442"></polyline>
            <path d="M362.868767,243.036007 L376.842144,252.248064 L385.393144,263.780469 L400.075069,290.931296" id="Path-681" stroke-width="0.5" stroke-dasharray="1"></path>
            <path d="M447.092298,195.705169 L506.52618,199.186871 L550.426488,202.072158 L601.748019,207.203999" id="Path-682" stroke-width="0.5" stroke-dasharray="1"></path>
            <line x1="474.885497" y1="191.169744" x2="508.69963" y2="192.431829" id="Path"></line>
            <polyline id="Path" points="520.417249 192.86918 536.18696 193.457772 591.536852 195.705169 612.187224 195.705169"></polyline>
            <polyline id="Path-684" points="444.897225 201.454584 492.262309 204.762398 537.18696 209.197212 570.236272 212.746339 591.551764 216.544264"></polyline>
            <path d="M440.234702,207.999424 L470.836098,210.71462 L519.89217,215.224379 L550.426488,219.522774 L581.821381,223.229991" id="Path-685" stroke-width="0.5" stroke-dasharray="1"></path>
            <polyline id="Path-686" points="430.982759 213.088362 485.020533 218.544264 534.505205 223.229991 572.651718 229.935548"></polyline>
            <path d="M423.802828,219.522774 L458.72491,223.229991 L525.21711,229.935548" id="Path-687" stroke-width="0.5" stroke-dasharray="1"></path>
            <polyline id="Path-688" points="414.523539 223.229991 474.509969 232.14406 496.156011 236.049934"></polyline>
            <path d="M404.414717,227.659634 L447.092298,236.049934 L474.885497,244.388871" id="Path-689" stroke-width="0.5" stroke-dasharray="1"></path>
            <polyline id="Path-690" points="396.21765 229.935548 430.982759 239.259057 462.189807 249.788133"></polyline>
            <path d="M388.739087,232.571521 L416.629278,243.036007 L448.919824,254.200841" id="Path-691" stroke-width="0.5" stroke-dasharray="1"></path>
            <polyline id="Path-692" points="381.471918 236.024253 423.802828 254.200841 437.460777 261.523757"></polyline>
            <path d="M376.372658,239.259057 L409.466347,257.67519 L423.802828,267.868504" id="Path-693" stroke-width="0.5" stroke-dasharray="1"></path>
            <polyline id="Path-694" points="372.313895 240.861841 392.25446 257.67519 409.466347 276.960293"></polyline>
            <path d="M267.252602,278.02889 L218.733579,290.081036 L158.854555,308.894227 L110.478032,321.69879 L56.7196779,336.118308 L-1.13686838e-13,346.250106" id="Path-565" stroke-width="0.5" stroke-dasharray="1"></path>
            <polyline id="Path-567" points="235.858648 278.02889 188.727032 291.122648 123.592464 312.6816 66.7934287 324.344665 19.4821037 333.390708 1.13686838e-13 336.118308"></polyline>
            <path d="M221.042557,273.422592 L165.826468,289.662831 L127.236783,302.573595 L91.6606743,310.510429 L50.4843483,319.497649 L15.96223,324.344665 L1.13686838e-13,324.344665" id="Path-568" stroke-width="0.5" stroke-dasharray="1"></path>
            <polyline id="Path-569" points="211.971147 268.182216 174.052 279.249676 130.881101 294.230853 102.34757 298.883629 70.5478405 305.208614 37.0301353 312.139498 10.1129397 314.28091 1.15157683e-13 314.28091"></polyline>
            <path d="M204.150221,262.9659 L144.078819,282.505115 L75.8347877,296.96529 L25.9770166,305.988442 L-1.13686838e-13,307.073599" id="Path-570" stroke-width="0.5" stroke-dasharray="1"></path>
            <polyline id="Path-571" points="199.872538 255.910809 144.078819 275.296229 97.5536174 284.518472 56.0401753 294.230853 26.6291975 298.883629 0 298.883629"></polyline>
            <path d="M195.107235,248.653308 L151.904849,265.647005 L111.441469,274.666275 L75.8347877,282.505115 L43.8880559,288.968335 L23.0776578,291.122648 L-1.13686838e-13,290.081036" id="Path-572" stroke-width="0.5" stroke-dasharray="1"></path>
            <polyline id="Path-573" points="4.32620707 281.088549 23.3013768 282.505115 64.3866766 278.02889 125.868917 262.9659 171.421219 251.568295 191.974675 244.388871"></polyline>
            <path d="M16.7815648,273.422592 L49.2856115,272.084818 L85.7170207,265.647005 L147.874197,249.788133 L188.727032,239.259057" id="Path-574" stroke-width="0.5" stroke-dasharray="1"></path>
            <polyline id="Path-575" points="27.7228241 263.446993 49.765306 263.446993 83.8630191 259.889016 124.639666 249.788133 186.017602 232.571521"></polyline>
            <path d="M38.6969737,253.910809 L59.2287108,253.910809 L94.5181821,249.788133 L135.971878,240.086205 L188.727032,225.813204" id="Path-576" stroke-width="0.5" stroke-dasharray="1"></path>
            <polyline id="Path-577" points="43.8880559 245.194476 59.7631593 245.301448 92.3934835 242.611551 147.874197 229.963691 191.974675 217.286855"></polyline>
            <path d="M43.8880559,235.087126 L69.893732,236.049934 L98.1504413,235.087126 L138.46601,225.813204 L186.017602,209.752694" id="Path-578" stroke-width="0.5" stroke-dasharray="1"></path>
            <polyline id="Path-579" points="50.7719283 227.659634 82.1117761 227.659634 112.080351 225.813204 148.458087 215.878317 161.467553 212.604232"></polyline>
            <path d="M92.3934835,221.131933 L114.952829,219.433552 L136.46601,214.738086" id="Path-580" stroke-width="0.5" stroke-dasharray="1"></path>
        </g>
    </g>
</svg>
