<?xml version="1.0" encoding="UTF-8"?>
<svg width="1920px" height="1080px" viewBox="0 0 1920 1080" version="1.1" xmlns="http://www.w3.org/2000/svg" xmlns:xlink="http://www.w3.org/1999/xlink">
    <!-- Generator: Sketch 62 (91390) - https://sketch.com -->
    <desc>Created with Sketch.</desc>
    <g id="aarau1" stroke="none" stroke-width="1" fill="none" fill-rule="evenodd">
        <g id="Group-34" transform="translate(358.400359, 477.247627)" stroke="#FFFFFF">
            <line x1="0" y1="2.24554822" x2="483.832208" y2="598.323802" id="Path-365" stroke-dasharray="1"></line>
            <path d="M15.4855655,3.26255781 L298.923553,356.131617 M304.526004,363.033193 L496.89421,600.008706" id="Shape" stroke-width="2" transform="translate(256.189886, 301.635632) rotate(-0.400000) translate(-256.189886, -301.635632) "></path>
            <path d="M28.002714,2.57920328 L218.428373,236.954358 M223.681457,243.419834 L513.415256,600.023059" id="Shape" stroke-dasharray="1" transform="translate(270.708985, 301.301131) rotate(-0.400000) translate(-270.708985, -301.301131) "></path>
            <line x1="44.0027551" y1="2.45760849" x2="532.249456" y2="600.035372" id="Path-365-Copy-3" stroke-width="2" transform="translate(288.126105, 301.246213) rotate(-0.400000) translate(-288.126105, -301.246213) "></line>
            <line x1="56.6981227" y1="2.35173355" x2="549.885753" y2="600.279923" id="Path-365-Copy-4" stroke-dasharray="1" transform="translate(303.291938, 301.315541) rotate(-0.400000) translate(-303.291938, -301.315541) "></line>
            <line x1="72.9263252" y1="3.21925218" x2="566.740524" y2="600.164452" id="Path-365-Copy-5" stroke-width="2" transform="translate(319.833425, 301.691565) rotate(-0.400000) translate(-319.833425, -301.691565) "></line>
            <path d="M88.3113219,3.11072068 L111.349118,30.9417174 M126.217949,48.9041288 L140.8094,66.5314505 M159.150241,88.6882524 L582.447006,600.055346" id="Shape" stroke-dasharray="1" transform="translate(335.379164, 301.583033) rotate(-0.400000) translate(-335.379164, -301.583033) "></path>
            <path d="M103.962326,2 L230.457109,153.481228 M250.449262,177.42242 L292.713673,228.035297 M311.768803,250.854377 L603.384662,600.072955" id="Shape" stroke-width="2" transform="translate(353.673494, 301.036477) rotate(-0.400000) translate(-353.673494, -301.036477) "></path>
            <line x1="128.872561" y1="14.1737078" x2="625.995613" y2="600.066214" id="Path-365-Copy-8" stroke-dasharray="1" transform="translate(377.434087, 307.119553) rotate(-0.400000) translate(-377.434087, -307.119553) "></line>
            <line x1="178.487136" y1="52.8962869" x2="644.15125" y2="602.014842" id="Path-365-Copy-9" stroke-width="2" transform="translate(411.319193, 327.454739) rotate(-0.900000) translate(-411.319193, -327.454739) "></line>
            <line x1="190.89865" y1="48.0963172" x2="663.831259" y2="605.034901" id="Path-365-Copy-10" stroke-dasharray="1" transform="translate(427.364954, 326.565371) rotate(-1.600000) translate(-427.364954, -326.565371) "></line>
            <path d="M153.710649,12.2285381 L263.480701,130.190126 M323.587743,194.782627 L672.425654,569.652395 L742.376573,597.946503" id="Shape" stroke-width="2" transform="translate(448.043611, 305.087521) rotate(0.400000) translate(-448.043611, -305.087521) "></path>
            <line x1="138.377684" y1="21.8361508" x2="39.8421646" y2="57.835939" id="Path-369" stroke-dasharray="1"></line>
            <path d="M145.608692,30.0578035 L121.768766,38.710805 M106.261029,44.3395333 L47.4302872,65.6928921" id="Shape" stroke-width="2"></path>
            <path d="M153.438178,38.2695295 L127.05998,48.0017646 M114.286595,52.7145044 L53.8033182,75.0298069" id="Shape" stroke-dasharray="1"></path>
            <line x1="161.191195" y1="46.2485046" x2="60.2856849" y2="83.0298069" id="Path-369-Copy-7" stroke-width="2"></line>
            <line x1="168.336804" y1="54.4723264" x2="67.1140934" y2="91.0298069" id="Path-369-Copy-8" stroke-dasharray="1"></line>
            <path d="M202.463449,53.0364566 L157.083622,69.3334802 M137.715695,76.288984 L74.3928072,99.0298069" id="Shape" stroke-width="2"></path>
            <path d="M210.463449,61.0364566 L165.477649,77.4391142 M145.985031,84.5464846 L82.0429242,107.860964" id="Shape" stroke-dasharray="1"></path>
            <polyline id="Path-369-Copy-11" stroke-width="2" points="218.463449 69.0364566 171.871165 85.8247514 152.210243 92.9090433 88.5478344 115.848105"></polyline>
            <line x1="226.463449" y1="77.0364566" x2="94.9873686" y2="125.036457" id="Path-369-Copy-13" stroke-dasharray="1"></line>
            <line x1="234.463449" y1="85.0364566" x2="101.880759" y2="133.036457" id="Path-369-Copy-14" stroke-width="2"></line>
            <line x1="242.463449" y1="93.0364566" x2="108.946868" y2="141.901561" id="Path-369-Copy-15" stroke-dasharray="1"></line>
            <line x1="249.588796" y1="101.036457" x2="116.133384" y2="149.889266" id="Path-369-Copy-16" stroke-width="2"></line>
            <line x1="257.209185" y1="109.036457" x2="121.426317" y2="157.036457" id="Path-369-Copy-17" stroke-dasharray="1"></line>
            <line x1="264.706203" y1="117.469009" x2="126.833487" y2="165.036457" id="Path-369-Copy-18" stroke-width="2"></line>
            <line x1="271.555959" y1="125.462861" x2="134.363998" y2="174.994206" id="Path-369-Copy-19" stroke-dasharray="1"></line>
            <line x1="260.587696" y1="140.791357" x2="139.669598" y2="183.656524" id="Path-369-Copy-20" stroke-width="2"></line>
            <path d="M268.155384,149.024171 L245.892621,156.995665 M228.261312,163.308801 L146.463449,192.597669" id="Shape" stroke-dasharray="1"></path>
            <path d="M275.208245,157.363307 L252.613748,165.453583 M234.757887,171.847123 L154.463449,200.597669" id="Shape" stroke-width="2"></path>
            <path d="M283.021351,165.430227 L257.370363,174.614922 M241.324175,180.360484 L162.463449,208.597669" id="Shape" stroke-dasharray="1"></path>
            <line x1="289.481535" y1="173.257062" x2="170.463449" y2="216.597669" id="Path-369-Copy-24" stroke-width="2"></line>
            <line x1="296.918753" y1="181.302409" x2="175.705159" y2="224.585833" id="Path-369-Copy-25" stroke-dasharray="1"></line>
            <line x1="304.780352" y1="188.973215" x2="183.298416" y2="231.925978" id="Path-369-Copy-26" stroke-width="2"></line>
            <path d="M333.451018,189.469751 L311.933581,197.072677 L189.73259,240.250916" id="Path-369-Copy-27" stroke-dasharray="1"></path>
            <path d="M340.089798,198.912483 L225.105988,238.487813 M210.70661,243.443816 L196.648468,248.282372" id="Shape" stroke-width="2"></path>
            <line x1="349.375733" y1="206.582555" x2="204.413724" y2="256.813938" id="Path-369-Copy-29" stroke-dasharray="1"></line>
            <path d="M356.805863,214.745024 L307.568189,231.926272 M288.474698,238.588854 L212.068988,265.250258" id="Shape" stroke-width="2"></path>
            <path d="M364.658602,222.760752 L314.248053,240.419555 M295.000942,247.161814 L218.463449,273.972879" id="Shape" stroke-dasharray="1"></path>
            <path d="M373.191923,230.925197 L322.01492,249.006686 M302.99326,255.727281 L225.463449,283.119553" id="Shape" stroke-width="2"></path>
            <line x1="379.251093" y1="239.143357" x2="233.463449" y2="291.119553" id="Path-369-Copy-33" stroke-dasharray="1"></line>
            <line x1="386.469826" y1="246.28667" x2="237.916104" y2="299.108253" id="Path-369-Copy-34" stroke-width="2"></line>
            <line x1="390.961314" y1="254.291583" x2="242.463449" y2="307.119553" id="Path-369-Copy-35" stroke-dasharray="1"></line>
            <line x1="398.961314" y1="262.291583" x2="250.463449" y2="315.119553" id="Path-369-Copy-36" stroke-width="2"></line>
            <line x1="406.961314" y1="270.291583" x2="258.463449" y2="323.292294" id="Path-369-Copy-37" stroke-dasharray="1"></line>
            <line x1="414.961314" y1="278.291583" x2="265.018461" y2="331.029807" id="Path-369-Copy-38" stroke-width="2"></line>
            <line x1="422.961314" y1="286.291583" x2="271.555959" y2="340.224673" id="Path-369-Copy-39" stroke-dasharray="1"></line>
            <line x1="430.961314" y1="294.291583" x2="279.438586" y2="349.036457" id="Path-369-Copy-40" stroke-width="2"></line>
            <line x1="438.961314" y1="302.291583" x2="286.241984" y2="357.036457" id="Path-369-Copy-41" stroke-dasharray="1"></line>
            <path d="M446.961314,310.291583 L306.151053,361.096394 M301.892742,362.632806 L290.463449,366.756533" id="Shape" stroke-width="2"></path>
            <line x1="452.19147" y1="318.706815" x2="298.463449" y2="374.756533" id="Path-369-Copy-43" stroke-dasharray="1"></line>
            <line x1="460.19147" y1="326.706815" x2="306.463449" y2="382.756533" id="Path-369-Copy-44" stroke-width="2"></line>
            <line x1="468.19147" y1="334.706815" x2="312.65729" y2="390.706815" id="Path-369-Copy-45" stroke-dasharray="1"></line>
            <line x1="476.19147" y1="342.706815" x2="318.963449" y2="399.260451" id="Path-369-Copy-46" stroke-width="2"></line>
            <line x1="484.19147" y1="350.706815" x2="325.451018" y2="407.723565" id="Path-369-Copy-47" stroke-dasharray="1"></line>
            <line x1="492.19147" y1="358.706815" x2="333.451018" y2="415.723565" id="Path-369-Copy-48" stroke-width="2"></line>
            <line x1="500.19147" y1="366.706815" x2="340.089798" y2="424.735258" id="Path-369-Copy-49" stroke-dasharray="1"></line>
            <line x1="508.19147" y1="374.706815" x2="346.463449" y2="433.124314" id="Path-369-Copy-50" stroke-width="2"></line>
            <line x1="516.19147" y1="382.706815" x2="353.673494" y2="441.037791" id="Path-369-Copy-51" stroke-dasharray="1"></line>
            <line x1="523.37349" y1="390.706815" x2="359.499654" y2="448.81811" id="Path-369-Copy-52" stroke-width="2"></line>
            <line x1="529.239445" y1="399.723565" x2="366.362744" y2="457.023157" id="Path-369-Copy-53" stroke-dasharray="1"></line>
            <line x1="537.239445" y1="407.723565" x2="373.191923" y2="465.023157" id="Path-369-Copy-54" stroke-width="2"></line>
            <line x1="544.180321" y1="417.10415" x2="377.937721" y2="477.036457" id="Path-369-Copy-55" stroke-dasharray="1"></line>
            <line x1="552.3118" y1="425.05675" x2="385.937721" y2="485.036457" id="Path-369-Copy-56" stroke-width="2"></line>
            <line x1="559.224864" y1="433.448603" x2="393.937721" y2="493.036457" id="Path-369-Copy-57" stroke-dasharray="1"></line>
            <line x1="567.679673" y1="441.284639" x2="401.937721" y2="501.036457" id="Path-369-Copy-58" stroke-width="2"></line>
            <line x1="575.05755" y1="449.541667" x2="407.102091" y2="510.534794" id="Path-369-Copy-59" stroke-dasharray="1"></line>
            <line x1="581.938762" y1="457.947283" x2="415.077399" y2="518.534794" id="Path-369-Copy-60" stroke-width="2"></line>
            <line x1="589.336639" y1="466.083742" x2="420.140634" y2="526.534794" id="Path-369-Copy-61" stroke-dasharray="1"></line>
            <line x1="596.12603" y1="474.526095" x2="428.468615" y2="534.534794" id="Path-369-Copy-62" stroke-width="2"></line>
            <line x1="605.565512" y1="482.055252" x2="433.937721" y2="544.033132" id="Path-369-Copy-63" stroke-dasharray="1"></line>
            <line x1="613.178766" y1="490.245735" x2="443.747759" y2="552.033132" id="Path-369-Copy-64" stroke-width="2"></line>
            <line x1="619.367162" y1="498.790371" x2="448.043611" y2="560.033132" id="Path-369-Copy-65" stroke-dasharray="1"></line>
            <line x1="626.795187" y1="507.010266" x2="456.527776" y2="568.033132" id="Path-369-Copy-66" stroke-width="2"></line>
            <line x1="632.940842" y1="515.923359" x2="464.165225" y2="578.675929" id="Path-369-Copy-67" stroke-dasharray="1"></line>
            <line x1="641.754956" y1="523.681394" x2="471.026791" y2="587.745454" id="Path-369-Copy-68" stroke-width="2"></line>
            <line x1="649.551004" y1="531.807444" x2="478.224517" y2="596.56965" id="Path-369-Copy-69" stroke-dasharray="1"></line>
            <line x1="656.52367" y1="540.211376" x2="503.196973" y2="598.295825" id="Path-369-Copy-70" stroke-width="2"></line>
            <line x1="665.18899" y1="547.959334" x2="532.214895" y2="598.333647" id="Path-369-Copy-71" stroke-dasharray="1"></line>
            <line x1="674.952516" y1="555.291261" x2="561.263043" y2="598.360019" id="Path-369-Copy-72" stroke-width="2"></line>
            <line x1="678.889928" y1="564.830283" x2="590.762849" y2="598.21529" id="Path-369-Copy-73" stroke-dasharray="1"></line>
            <line x1="694.463555" y1="569.961181" x2="619.889473" y2="598.211933" id="Path-369-Copy-74" stroke-width="2"></line>
            <line x1="707.710905" y1="575.973338" x2="648.648655" y2="598.347773" id="Path-369-Copy-75" stroke-dasharray="1"></line>
            <line x1="721.365391" y1="581.83126" x2="678.104721" y2="598.219614" id="Path-369-Copy-76" stroke-width="2"></line>
            <line x1="731.463449" y1="589.036457" x2="706.772888" y2="598.389933" id="Path-369-Copy-77" stroke-dasharray="1"></line>
            <line x1="115.664867" y1="19.4587177" x2="32.5063974" y2="50.3704953" id="Path-369-Copy" stroke-width="2"></line>
            <line x1="109.514972" y1="10.5193884" x2="25.9227832" y2="41.0231572" id="Path-369-Copy-2" stroke-dasharray="1"></line>
            <line x1="79.7348628" y1="10.4672055" x2="17.9227832" y2="33.0231572" id="Path-369-Copy-3" stroke-width="2"></line>
            <line x1="59.7498347" y1="6.84068258" x2="9.92278317" y2="25.0231572" id="Path-369-Copy-4" stroke-dasharray="1"></line>
        </g>
    </g>
</svg>
