<?xml version="1.0" encoding="UTF-8"?>
<svg width="1920px" height="1080px" viewBox="0 0 1920 1080" version="1.1" xmlns="http://www.w3.org/2000/svg" xmlns:xlink="http://www.w3.org/1999/xlink">
    <!-- Generator: Sketch 62 (91390) - https://sketch.com -->
    <title>aarau1</title>
    <desc>Created with Sketch.</desc>
    <g id="aarau1" stroke="none" stroke-width="1" fill="none" fill-rule="evenodd">
        <g id="Group-32" transform="translate(647.776092, 334.441366)" stroke="#FFFFFF">
            <path d="M9,120.00167 L41.5580049,146.557389 M75.282869,174.064849 L160.406572,243.495428" id="Shape" stroke-width="2"></path>
            <line x1="1.13686838e-13" y1="122.00167" x2="151.406572" y2="245.495428" id="Path-267-Copy-6" stroke-dasharray="1"></line>
            <path d="M18,116.00167 L41.4323721,135.114128 M83.5126787,169.436648 L169.406572,239.495428" id="Shape" stroke-dasharray="1"></path>
            <path d="M27,113.00167 L41.0350248,124.384226 M92.5499814,166.163408 L182.970513,239.495428" id="Shape" stroke-width="2"></path>
            <path d="M35,109.00167 L50.06273,121.270771 M100.568593,162.409497 L190.456475,235.626204" id="Shape" stroke-dasharray="1"></path>
            <path d="M45,106.00167 L51.4502923,111.262808 M94.0816609,146.034799 L196.406572,229.495428" id="Shape" stroke-width="2"></path>
            <path d="M60,106.00167 L76.7471783,119.618672 M89.3370842,129.855427 L216.401499,233.170523" id="Shape" stroke-dasharray="1"></path>
            <line x1="138.20075" y1="239.495428" x2="196.406572" y2="216.34093" id="Path-268" stroke-dasharray="1"></line>
            <line x1="131.20075" y1="234.495428" x2="189.406572" y2="211.34093" id="Path-268-Copy" stroke-width="2"></line>
            <line x1="126.20075" y1="229.495428" x2="184.406572" y2="206.34093" id="Path-268-Copy-2" stroke-dasharray="1"></line>
            <line x1="121.20075" y1="224.495428" x2="179.406572" y2="201.34093" id="Path-268-Copy-3" stroke-width="2"></line>
            <line x1="114.20075" y1="220.495428" x2="172.406572" y2="197.34093" id="Path-268-Copy-4" stroke-dasharray="1"></line>
            <line x1="109.20075" y1="215.495428" x2="167.406572" y2="192.34093" id="Path-268-Copy-5" stroke-width="2"></line>
            <line x1="103.20075" y1="211.495428" x2="161.406572" y2="188.34093" id="Path-268-Copy-6" stroke-dasharray="1"></line>
            <line x1="97.2007496" y1="206.495428" x2="155.406572" y2="183.34093" id="Path-268-Copy-7" stroke-width="2"></line>
            <line x1="92.2007496" y1="201.495428" x2="150.406572" y2="178.34093" id="Path-268-Copy-8" stroke-dasharray="1"></line>
            <line x1="85.2007496" y1="196.495428" x2="143.406572" y2="173.34093" id="Path-268-Copy-9" stroke-width="2"></line>
            <line x1="79.2007496" y1="191.495428" x2="137.406572" y2="168.34093" id="Path-268-Copy-10" stroke-dasharray="1"></line>
            <line x1="73.2007496" y1="186.495428" x2="131.406572" y2="163.34093" id="Path-268-Copy-11" stroke-width="2"></line>
            <line x1="66.2007496" y1="181.495428" x2="124.406572" y2="158.34093" id="Path-268-Copy-12" stroke-dasharray="1"></line>
            <line x1="59.2007496" y1="176.495428" x2="65.9350437" y2="173.8165" id="Path-268-Copy-13" stroke-width="2"></line>
            <line x1="53.2007496" y1="171.495428" x2="60.821029" y2="168.464052" id="Path-268-Copy-14" stroke-dasharray="1"></line>
            <line x1="48.2007496" y1="165.495428" x2="54.347911" y2="163.050063" id="Path-268-Copy-15" stroke-width="2"></line>
            <line x1="42.2007496" y1="159.495428" x2="47.0288027" y2="157.936885" id="Path-268-Copy-16" stroke-dasharray="1"></line>
            <line x1="36.2007496" y1="153.495428" x2="41.922941" y2="151.648249" id="Path-268-Copy-17" stroke-width="2"></line>
            <line x1="30.2007496" y1="147.495428" x2="41.2109014" y2="143.941244" id="Path-268-Copy-18" stroke-dasharray="1"></line>
            <line x1="23.2007496" y1="142.495428" x2="41.1323616" y2="136.70693" id="Path-268-Copy-19" stroke-width="2"></line>
            <line x1="15.2007496" y1="137.495428" x2="41.063724" y2="129.146609" id="Path-268-Copy-20" stroke-dasharray="1"></line>
            <line x1="8.20074959" y1="132.495428" x2="51.9148222" y2="118.384102" id="Path-268-Copy-21" stroke-width="2"></line>
            <line x1="2.20074959" y1="126.495428" x2="45.5927691" y2="112.488064" id="Path-268-Copy-22" stroke-dasharray="1"></line>
            <line x1="99.4603311" y1="158.716156" x2="116.545815" y2="151.648249" id="Path-267" stroke-width="2"></line>
            <line x1="94.4603311" y1="153.716156" x2="111.545815" y2="146.648249" id="Path-267-Copy"></line>
            <line x1="93.6886755" y1="146.5533" x2="105.545815" y2="141.648249" id="Path-267-Copy-2" stroke-width="2"></line>
            <line x1="90.2495044" y1="141.493938" x2="99.5458153" y2="137.648249" id="Path-267-Copy-3"></line>
            <path d="M45,155.182203 L45.5927691,136.70693 L51.9148222,134.051809" id="Path-281" stroke-width="0.5" stroke-dasharray="1"></path>
            <polyline id="Path-281-Copy" points="49 158.182203 49.5927691 139.70693 55.9148222 137.051809"></polyline>
            <path d="M53,162.182203 L53.5927691,143.70693 L59.9148222,141.051809" id="Path-281-Copy-2" stroke-width="0.5" stroke-dasharray="1"></path>
            <polyline id="Path-281-Copy-3" points="58 166.182203 58.5927691 147.70693 64.9148222 145.051809"></polyline>
            <path d="M63,169.182203 L63.5927691,150.70693 L69.9148222,148.051809" id="Path-281-Copy-4" stroke-width="0.5" stroke-dasharray="1"></path>
            <polyline id="Path-282" points="66.2007496 171.495428 66.4574111 166.182203 83.5126787 157.30751 83.5126787 145.718336 90.2495044 143.515166"></polyline>
            <path d="M68.9775265,174.918179 L69.394611,169.182203 L86.7928114,160.369873 L91.1991492,158.617006 L88.3215867,145.718336 L84.703286,142.495428" id="Path-283" stroke-width="0.5" stroke-dasharray="1"></path>
            <line x1="64.9148222" y1="160.929778" x2="79.2007496" y2="153.495428" id="Path-284"></line>
            <line x1="42.531365" y1="147.617006" x2="70.8029694" y2="172.313937" id="Path-285" stroke-width="0.5" stroke-dasharray="1"></line>
            <line x1="44.6147762" y1="145.051809" x2="63.846785" y2="160.929778" id="Path-286"></line>
            <line x1="44.6147762" y1="140.316808" x2="63.846785" y2="155.182203" id="Path-287" stroke-width="0.5" stroke-dasharray="1"></line>
            <line x1="47.0288027" y1="135.114128" x2="66.2007496" y2="150.182203" id="Path-288"></line>
            <line x1="65.9350437" y1="157.936885" x2="75.703286" y2="167.748549" id="Path-289" stroke-width="0.5" stroke-dasharray="1"></line>
            <line x1="69.9350437" y1="155.936885" x2="79.703286" y2="165.748549" id="Path-289-Copy"></line>
            <line x1="73.9350437" y1="153.936885" x2="83.703286" y2="163.748549" id="Path-289-Copy-2" stroke-width="0.5" stroke-dasharray="1"></line>
            <line x1="77.9350437" y1="151.936885" x2="87.703286" y2="161.748549" id="Path-289-Copy-3"></line>
            <path d="M67.9775265,141.493938 L53.2307806,105.08524 L60.6041535,96.7364815" id="Path-290" stroke-width="0.5" stroke-dasharray="1"></path>
            <polyline id="Path-291" points="70.6497117 137.495428 55.6671672 105.305961 62 97.8534313"></polyline>
            <path d="M52.3967618,109.708643 L52.3967618,107.401863 L58.4790796,106.00167" id="Path-292" stroke-width="0.5" stroke-dasharray="1"></path>
            <polyline id="Path-293" points="53.2307806 112.072055 53.2307806 110.060657 59.4488061 108.632239"></polyline>
            <path d="M54.2307806,115.136221 L54.2307806,113.060657 L60.6041535,111.635517" id="Path-293-Copy" stroke-width="0.5" stroke-dasharray="1"></path>
            <polyline id="Path-293-Copy-2" points="55.8776503 117.987861 55.8776503 116.00167 62.4488061 114.632239"></polyline>
            <path d="M57.0181284,120.778265 L57.0181284,119.11521 L64.263981,117.467542" id="Path-293-Copy-3" stroke-width="0.5" stroke-dasharray="1"></path>
            <polyline id="Path-293-Copy-4" points="58.2307806 123.515316 58.2307806 122.060657 65.7239079 120.058634"></polyline>
            <path d="M59.2307806,126.495428 L59.2307806,125.060657 L67.9775265,122.664565" id="Path-293-Copy-5" stroke-width="0.5" stroke-dasharray="1"></path>
            <polyline id="Path-293-Copy-6" points="61.2307806 131.138929 61.2307806 129.060657 69.7239079 126.495428"></polyline>
            <path d="M62.2307806,134.510598 L62.2307806,132.060657 L71.6419154,129.146609" id="Path-293-Copy-7" stroke-width="0.5" stroke-dasharray="1"></path>
            <polyline id="Path-293-Copy-8" points="63.2307806 137.051809 63.2307806 135.060657 72.6419154 132.146609"></polyline>
            <path d="M64.9148222,138.95111 L64.9148222,137.694959 L70.6497117,136.07311" id="Path-293-Copy-9" stroke-width="0.5" stroke-dasharray="1"></path>
            <path d="M70.8191648,138.95111 L75.703286,143.941244 L85.2007496,140.316808" id="Path-294" stroke-width="0.5" stroke-dasharray="1"></path>
            <polyline id="Path-294-Copy" points="71.8191648 133.95111 76.703286 138.941244 86.2007496 135.316808"></polyline>
            <path d="M73.8191648,127.95111 L78.703286,132.941244 L88.2007496,129.316808" id="Path-294-Copy-2" stroke-width="0.5" stroke-dasharray="1"></path>
            <polyline id="Path-294-Copy-3" points="75.8191648 121.95111 80.703286 126.941244 90.2007496 123.316808"></polyline>
            <path d="M77.8191648,115.95111 L82.703286,120.941244 L92.2007496,117.316808" id="Path-294-Copy-4" stroke-width="0.5" stroke-dasharray="1"></path>
            <polyline id="Path-294-Copy-5" points="79.8191648 109.95111 84.703286 114.941244 94.2007496 111.316808"></polyline>
            <path d="M81.8191648,103.95111 L86.703286,108.941244 L96.2007496,105.316808" id="Path-294-Copy-6" stroke-width="0.5" stroke-dasharray="1"></path>
            <polyline id="Path-294-Copy-7" points="83.8191648 97.9511097 88.703286 102.941244 98.2007496 99.316808"></polyline>
            <path d="M85.8191648,91.9511097 L90.703286,96.9412441 L100.20075,93.316808" id="Path-294-Copy-8" stroke-width="0.5" stroke-dasharray="1"></path>
            <polyline id="Path-294-Copy-9" points="87.8191648 85.9511097 92.703286 90.9412441 102.20075 87.316808"></polyline>
            <path d="M89.8191648,79.9511097 L94.703286,84.9412441 L104.20075,81.316808" id="Path-294-Copy-10" stroke-width="0.5" stroke-dasharray="1"></path>
            <polyline id="Path-294-Copy-11" points="91.8191648 73.9511097 96.703286 78.9412441 106.20075 75.316808"></polyline>
            <path d="M93.8191648,67.9511097 L98.703286,72.9412441 L108.20075,69.316808" id="Path-294-Copy-12" stroke-width="0.5" stroke-dasharray="1"></path>
            <polyline id="Path-294-Copy-13" points="95.8191648 60.9511097 100.703286 65.9412441 110.20075 62.316808"></polyline>
            <path d="M97.8191648,53.9511097 L102.703286,58.9412441 L112.20075,55.316808" id="Path-294-Copy-14" stroke-width="0.5" stroke-dasharray="1"></path>
            <polyline id="Path-294-Copy-15" points="99.8191648 46.9511097 104.703286 51.9412441 114.20075 48.316808"></polyline>
            <path d="M102.819165,39.9511097 L107.703286,44.9412441 L117.20075,41.316808" id="Path-294-Copy-16" stroke-width="0.5" stroke-dasharray="1"></path>
            <polyline id="Path-294-Copy-17" points="104.819165 31.9511097 109.703286 36.9412441 119.20075 33.316808"></polyline>
            <path d="M106.819165,24.9511097 L111.703286,29.9412441 L121.20075,26.316808" id="Path-294-Copy-18" stroke-width="0.5" stroke-dasharray="1"></path>
            <polyline id="Path-294-Copy-19" points="109.819165 16.9511097 114.703286 21.9412441 124.20075 18.316808"></polyline>
            <path d="M111.819165,8.95110966 L116.703286,13.9412441 L126.20075,10.316808" id="Path-294-Copy-20" stroke-width="0.5" stroke-dasharray="1"></path>
            <polyline id="Path-294-Copy-21" points="114.819165 0.95110966 119.703286 5.94124409 129.20075 2.31680801"></polyline>
            <path d="M70.6419154,143.100774 L111.542137,15.527652 L119.009957,-3.97903932e-13" id="Path-295" stroke-width="0.5" stroke-dasharray="1"></path>
            <polyline id="Path-295-Copy" points="74.6419154 143.100774 114.398562 19.0946131 120.856673 0.95110966"></polyline>
            <path d="M78.0099572,144.617006 L117.784238,18.170724 L122.740749,1.52464657" id="Path-296" stroke-width="0.5" stroke-dasharray="1"></path>
            <polyline id="Path-296-Copy" points="81.0099572 144.617006 120.802711 20.0299863 124.520165 1.79618426"></polyline>
        </g>
    </g>
</svg>