<?xml version="1.0" encoding="UTF-8"?>
<svg width="1920px" height="1080px" viewBox="0 0 1920 1080" version="1.1" xmlns="http://www.w3.org/2000/svg" xmlns:xlink="http://www.w3.org/1999/xlink">
    <!-- Generator: Sketch 62 (91390) - https://sketch.com -->
    <title>aarau2</title>
    <desc>Created with Sketch.</desc>
    <g id="aarau2" stroke="none" stroke-width="1" fill="none" fill-rule="evenodd">
        <g id="Group-33" transform="translate(804.206318, 298.048274)" stroke="#FFFFFF">
            <polyline id="Path-297" stroke-width="2" points="6 156.84271 72.0943937 110.805043 72.0943937 96.3886569 139.752273 21.3085877 211.906266 37.8103497"></polyline>
            <path d="M-1.42108547e-14,144.84271 L66.0943937,98.8050434 L66.0943937,84.3886569 L133.752273,9.30858766 L205.906266,25.8103497" id="Path-297-Copy-3" stroke-dasharray="1"></path>
            <path d="M12,167.84271 L78.0943937,121.805043 L78.0943937,107.388657 L145.752273,32.3085877 L217.906266,48.8103497" id="Path-297-Copy" stroke-dasharray="1"></path>
            <polyline id="Path-297-Copy-2" stroke-width="2" points="19 179.84271 85.0943937 133.805043 85.0943937 119.388657 152.752273 44.3085877 224.906266 60.8103497"></polyline>
            <path d="M27,191.84271 L93.0943937,145.805043 L93.0943937,131.388657 L160.752273,56.3085877 L232.906266,72.8103497" id="Path-297-Copy-4" stroke-dasharray="1"></path>
            <polyline id="Path-297-Copy-5" stroke-width="2" points="35 205.84271 101.094394 159.805043 101.094394 145.388657 171.483247 69.8132034 245.107125 85.890419"></polyline>
            <path d="M43,220.84271 L109.094394,174.805043 L109.094394,160.388657 L180.953133,84.3886569 L239.029791,97.6709046" id="Path-297-Copy-6" stroke-dasharray="1"></path>
            <polyline id="Path-297-Copy-7" stroke-width="2" points="52 232.84271 118.094394 186.805043 118.094394 172.388657 189.953133 96.3886569 235.625235 108.097982"></polyline>
            <polyline id="Path-297-Copy-15" stroke-width="2" points="66 258.84271 132.094394 212.805043 132.094394 198.388657 203.953133 122.388657 225.992166 128.038982"></polyline>
            <path d="M60,246.84271 L126.094394,200.805043 L126.094394,186.388657 L197.953133,110.388657 L231.317089,118.942443" id="Path-297-Copy-14" stroke-dasharray="1"></path>
            <path d="M72,269.84271 L138.094394,223.805043 L138.094394,209.388657 L209.953133,133.388657 L239.299814,140.912502" id="Path-297-Copy-13" stroke-dasharray="1"></path>
            <polyline id="Path-297-Copy-12" stroke-width="2" points="79 281.84271 145.094394 235.805043 145.094394 221.388657 216.953133 145.388657 264.869378 157.673331"></polyline>
            <path d="M87,293.84271 L153.094394,247.805043 L153.094394,233.388657 L224.953133,157.388657 L283.125508,172.302778" id="Path-297-Copy-11" stroke-dasharray="1"></path>
            <polyline id="Path-297-Copy-10" stroke-width="2" points="95 307.84271 161.094394 261.805043 161.094394 247.388657 232.953133 171.388657 309.86096 191.075649"></polyline>
            <path d="M103,322.84271 L169.094394,276.805043 L169.094394,262.388657 L242.433327,186.388657 L315.774443,203.390124" id="Path-297-Copy-9" stroke-dasharray="1"></path>
            <polyline id="Path-297-Copy-8" stroke-width="2" points="112 334.84271 178.094394 288.805043 178.094394 274.388657 250.394881 198.388657 325.538566 216.743434"></polyline>
            <path d="M121,348.84271 L187.094394,302.805043 L187.094394,288.388657 L259.394881,212.388657 L334.538566,230.743434" id="Path-297-Copy-16" stroke-dasharray="1"></path>
            <polyline id="Path-297-Copy-17" stroke-width="2" points="127 362.84271 193.094394 316.805043 193.094394 302.388657 267.803616 224.388657 340.538566 244.743434"></polyline>
            <path d="M131.867618,377.227761 L202.094394,329.805043 L202.094394,315.388657 L276.803616,237.388657 L349.538566,257.743434" id="Path-297-Copy-18" stroke-dasharray="1"></path>
            <polyline id="Path-297-Copy-19" stroke-width="2" points="139.867618 388.227761 210.094394 340.805043 210.094394 326.388657 284.803616 248.388657 357.538566 268.743434"></polyline>
            <path d="M147.867618,401.227761 L218.094394,353.805043 L218.094394,339.388657 L292.803616,261.388657 L364.538566,278.743434" id="Path-297-Copy-20" stroke-dasharray="1"></path>
            <polyline id="Path-297-Copy-21" stroke-width="2" points="154.867618 414.227761 225.094394 366.805043 225.094394 352.388657 299.803616 274.388657 371.807394 291.615684"></polyline>
            <path d="M162.867618,429.227761 L233.094394,381.805043 L233.094394,367.388657 L308.322007,289.388657 L381.430081,305.308209" id="Path-297-Copy-22" stroke-dasharray="1"></path>
            <polyline id="Path-297-Copy-23" stroke-width="2" points="170.867618 443.227761 241.094394 395.805043 241.094394 381.388657 316.322007 303.388657 389.430081 319.308209"></polyline>
            <path d="M177.867618,458.227761 L248.094394,410.805043 L248.094394,396.388657 L325.538566,318.308209 L385.495471,331.308209 M391.495471,332.998394 L400.826647,334.077318" id="Shape" stroke-dasharray="1"></path>
            <path d="M185.867618,472.227761 L256.094394,424.805043 L256.094394,410.388657 L333.538566,332.308209 L382.430081,341.388657 M387.595976,342.308209 L409.651433,346.228648" id="Shape" stroke-width="2"></path>
            <path d="M194.867618,488.227761 L265.094394,440.805043 L265.094394,426.388657 L344.757877,346.228648 L373.495471,351.388657 M386.8459,354.388657 L414.807394,356.220593 M387.595976,365.888657 L420.119317,367.388657" id="Shape-Copy-3" stroke-dasharray="1"></path>
            <path d="M203.867618,504.227761 L274.094394,456.805043 L274.094394,442.388657 L351.538566,364.308209 L357.538566,364.388657 M382.485598,391.299461 L438.119317,388.267985 M391.495471,377.227761 L427.807394,377.227761" id="Shape-Copy-4" stroke-width="2"></path>
            <line x1="319.495471" y1="198.388657" x2="366.119317" y2="186.388657" id="Path-298" stroke-dasharray="1"></line>
            <line x1="324.495471" y1="207.388657" x2="371.119317" y2="195.388657" id="Path-298-Copy" stroke-width="2"></line>
            <line x1="330.495471" y1="216.388657" x2="377.119317" y2="204.388657" id="Path-298-Copy-2" stroke-dasharray="1"></line>
            <line x1="336.495471" y1="225.388657" x2="383.119317" y2="213.388657" id="Path-298-Copy-3" stroke-width="2"></line>
            <line x1="342.495471" y1="235.388657" x2="389.119317" y2="223.388657" id="Path-298-Copy-4" stroke-dasharray="1"></line>
            <line x1="349.495471" y1="244.388657" x2="396.119317" y2="232.388657" id="Path-298-Copy-5" stroke-width="2"></line>
            <line x1="355.495471" y1="253.388657" x2="402.119317" y2="241.388657" id="Path-298-Copy-6" stroke-dasharray="1"></line>
            <line x1="361.495471" y1="262.388657" x2="408.119317" y2="250.388657" id="Path-298-Copy-7" stroke-width="2"></line>
            <line x1="366.495471" y1="271.388657" x2="413.119317" y2="259.388657" id="Path-298-Copy-8" stroke-dasharray="1"></line>
            <line x1="373.495471" y1="280.388657" x2="420.119317" y2="268.388657" id="Path-298-Copy-9" stroke-width="2"></line>
            <line x1="379.495471" y1="289.388657" x2="426.119317" y2="277.388657" id="Path-298-Copy-10" stroke-dasharray="1"></line>
            <line x1="385.495471" y1="298.388657" x2="432.119317" y2="286.388657" id="Path-298-Copy-11" stroke-width="2"></line>
            <line x1="391.495471" y1="307.388657" x2="438.119317" y2="295.388657" id="Path-298-Copy-12" stroke-dasharray="1"></line>
            <line x1="398.495471" y1="316.388657" x2="445.119317" y2="304.388657" id="Path-298-Copy-13" stroke-width="2"></line>
            <line x1="404.495471" y1="325.388657" x2="451.119317" y2="313.388657" id="Path-298-Copy-14" stroke-dasharray="1"></line>
            <line x1="411.495471" y1="334.388657" x2="458.119317" y2="322.388657" id="Path-298-Copy-15" stroke-width="2"></line>
            <line x1="417.495471" y1="344.388657" x2="464.119317" y2="332.388657" id="Path-298-Copy-16" stroke-dasharray="1"></line>
            <line x1="424.495471" y1="354.388657" x2="471.119317" y2="341.388657" id="Path-298-Copy-17" stroke-width="2"></line>
            <line x1="430.495471" y1="364.388657" x2="477.119317" y2="351.388657" id="Path-298-Copy-18" stroke-dasharray="1"></line>
            <line x1="353.807394" y1="186.388657" x2="471.119317" y2="356.220593" id="Path-299" stroke-dasharray="1"></line>
            <line x1="344.807394" y1="189.388657" x2="460.052769" y2="357.888657" id="Path-299-Copy" stroke-width="2"></line>
            <line x1="334.807394" y1="193.388657" x2="450.052769" y2="361.888657" id="Path-299-Copy-2" stroke-dasharray="1"></line>
            <line x1="324.807394" y1="197.388657" x2="440.052769" y2="365.888657" id="Path-299-Copy-3" stroke-width="2"></line>
            <line x1="6" y1="133.388657" x2="224.906266" y2="513.093954" id="Path-300" stroke-dasharray="1"></line>
            <line x1="17" y1="125.388657" x2="235.906266" y2="505.093954" id="Path-300-Copy" stroke-width="2"></line>
            <line x1="31" y1="118.388657" x2="249.906266" y2="498.093954" id="Path-300-Copy-2" stroke-dasharray="1"></line>
            <line x1="43" y1="106.388657" x2="261.906266" y2="486.093954" id="Path-300-Copy-3" stroke-width="2"></line>
            <line x1="56" y1="97.3886569" x2="274.906266" y2="477.093954" id="Path-300-Copy-4" stroke-dasharray="1"></line>
            <line x1="286.757877" y1="453.792123" x2="357.538566" y2="383.436131" id="Path-301" stroke-dasharray="1"></line>
            <line x1="294.757877" y1="468.792123" x2="366.538566" y2="396.84271" id="Path-301-Copy" stroke-width="2"></line>
            <path d="M308.757877,479.792123 L382.485598,405.761694 L448.434075,399.077457" id="Path-301-Copy-2" stroke-dasharray="1"></path>
            <polyline id="Path-301-Copy-3" stroke-width="2" points="317.757877 491.792123 391.485598 417.761694 457.434075 411.077457"></polyline>
            <path d="M326.757877,502.792123 L400.485598,428.761694 L466.434075,422.077457" id="Path-301-Copy-4" stroke-dasharray="1"></path>
            <polyline id="Path-301-Copy-5" stroke-width="2" points="335.757877 514.792123 409.485598 440.761694 475.434075 434.077457"></polyline>
            <path d="M344.757877,526.792123 L418.485598,452.761694 L481.434075,445.077457" id="Path-301-Copy-6" stroke-dasharray="1"></path>
            <polyline id="Path-301-Copy-7" stroke-width="2" points="353.757877 539.792123 427.485598 464.761694 490.434075 457.216802"></polyline>
            <path d="M361.703564,552.193507 L436.485598,476.761694 L499.434075,469.216802" id="Path-301-Copy-8" stroke-dasharray="1"></path>
            <polyline id="Path-301-Copy-9" stroke-width="2" points="369.920912 563.851673 444.485598 488.761694 507.434075 481.216802"></polyline>
            <path d="M378.293186,576.561868 L455.485598,499.761694 L518.434075,492.216802" id="Path-301-Copy-10" stroke-dasharray="1"></path>
            <polyline id="Path-301-Copy-11" stroke-width="2" points="386.197542 589.357902 463.485598 512.761694 526.434075 505.216802"></polyline>
            <path d="M395.197542,602.357902 L472.485598,525.761694 L535.434075,518.216802" id="Path-301-Copy-12" stroke-dasharray="1"></path>
            <polyline id="Path-305" stroke-width="2" points="403.857647 616.465345 484.820845 542.65238 543.233491 531.542437"></polyline>
            <line x1="425.808931" y1="629.077012" x2="490.434075" y2="563.851673" id="Path-306" stroke-dasharray="1"></line>
            <line x1="448.434075" y1="634.396778" x2="490.434075" y2="565.754149" id="Path-307" stroke-width="2"></line>
            <line x1="471.595945" y1="638.830745" x2="490.434075" y2="565.754149" id="Path-308" stroke-dasharray="1"></line>
            <line x1="492.355706" y1="636.513752" x2="497.587266" y2="565.754149" id="Path-309" stroke-width="2"></line>
            <line x1="507.434075" y1="623.635494" x2="499.434075" y2="565.754149" id="Path-310" stroke-dasharray="1"></line>
            <line x1="524.120253" y1="611.22312" x2="503.434075" y2="565.754149" id="Path-311" stroke-width="2"></line>
            <line x1="543.233491" y1="542.664972" x2="509.47785" y2="554.091205" id="Path-312" stroke-dasharray="1"></line>
            <line x1="543.233491" y1="560.287352" x2="509.47785" y2="558.845212" id="Path-313" stroke-width="2"></line>
            <line x1="540.393296" y1="580.387858" x2="509.47785" y2="560.287352" id="Path-314" stroke-dasharray="1"></line>
            <line x1="440.052769" y1="384.201857" x2="479.6859" y2="371.859391" id="Path-315" stroke-dasharray="1"></line>
            <line x1="447.052769" y1="393.201857" x2="486.6859" y2="380.859391" id="Path-315-Copy" stroke-width="2"></line>
            <line x1="453.052769" y1="402.201857" x2="492.6859" y2="389.859391" id="Path-315-Copy-2" stroke-dasharray="1"></line>
            <line x1="459.052769" y1="411.201857" x2="498.6859" y2="398.859391" id="Path-315-Copy-3" stroke-width="2"></line>
            <line x1="466.052769" y1="420.201857" x2="505.6859" y2="407.859391" id="Path-315-Copy-4" stroke-dasharray="1"></line>
            <line x1="472.052769" y1="429.201857" x2="511.6859" y2="416.859391" id="Path-315-Copy-5" stroke-width="2"></line>
            <line x1="478.052769" y1="438.201857" x2="517.6859" y2="425.859391" id="Path-315-Copy-6" stroke-dasharray="1"></line>
            <line x1="485.052769" y1="448.201857" x2="524.6859" y2="434.859391" id="Path-315-Copy-7" stroke-width="2"></line>
            <line x1="491.052769" y1="457.201857" x2="528.683808" y2="444.533394" id="Path-315-Copy-8" stroke-dasharray="1"></line>
            <line x1="498.052769" y1="467.201857" x2="534.676958" y2="454.274446" id="Path-315-Copy-9" stroke-width="2"></line>
            <line x1="505.052769" y1="476.201857" x2="541.547198" y2="463.320248" id="Path-315-Copy-10" stroke-dasharray="1"></line>
            <line x1="511.052769" y1="485.201857" x2="546.730309" y2="472.05412" id="Path-315-Copy-11" stroke-width="2"></line>
            <line x1="519.052769" y1="493.201857" x2="552.207368" y2="480.187513" id="Path-315-Copy-12" stroke-dasharray="1"></line>
            <line x1="460.052769" y1="641.291129" x2="433.113683" y2="666.11631" id="Path-316"></line>
            <line x1="429.18204" y1="656.550481" x2="422.208481" y2="663.609612" id="Path-317" stroke-width="0.5" stroke-dasharray="1"></line>
            <line x1="416.50842" y1="653.703719" x2="409.903919" y2="660.761871" id="Path-318"></line>
            <line x1="418.230475" y1="632.143691" x2="395.197542" y2="657.718162" id="Path-319" stroke-width="0.5" stroke-dasharray="1"></line>
            <line x1="402.470373" y1="621.91092" x2="378.595976" y2="649.143823" id="Path-320"></line>
            <line x1="396.595976" y1="613.058042" x2="373.495471" y2="641.291129" id="Path-321" stroke-width="0.5" stroke-dasharray="1"></line>
            <line x1="373.495471" y1="622.751885" x2="366.598446" y2="630.085195" id="Path-322"></line>
            <line x1="368.480128" y1="616.465345" x2="361.703564" y2="623.635494" id="Path-323" stroke-width="0.5" stroke-dasharray="1"></line>
            <line x1="373.495471" y1="580.387858" x2="350.009516" y2="606.075849" id="Path-324" stroke-width="0.5" stroke-dasharray="1"></line>
            <line x1="366.538566" y1="570.337605" x2="344.757877" y2="596.464342" id="Path-325"></line>
            <line x1="217.943612" y1="518.216802" x2="216.943612" y2="539.792123" id="Path-326" stroke-width="0.5" stroke-dasharray="1"></line>
            <line x1="227.278517" y1="511.898991" x2="226.278517" y2="534.389335" id="Path-327"></line>
            <line x1="234.527723" y1="507.2417" x2="233.527723" y2="530.226575" id="Path-328" stroke-width="0.5" stroke-dasharray="1"></line>
            <line x1="240.930532" y1="502.792123" x2="239.930532" y2="526.792123" id="Path-329"></line>
            <line x1="247.344588" y1="498.504462" x2="246.285278" y2="523.69168" id="Path-330" stroke-width="0.5" stroke-dasharray="1"></line>
            <line x1="254.323144" y1="493.255063" x2="252.831728" y2="519.323553" id="Path-331"></line>
            <line x1="261.906266" y1="488.227761" x2="259.578531" y2="514.792123" id="Path-332" stroke-width="0.5" stroke-dasharray="1"></line>
            <line x1="269.327003" y1="482.725016" x2="266.765294" y2="511.098071" id="Path-333"></line>
            <line x1="276.757579" y1="478.161925" x2="273.260638" y2="507.2417" id="Path-334" stroke-width="0.5" stroke-dasharray="1"></line>
            <line x1="283.757877" y1="508.705154" x2="297.759525" y2="474.43479" id="Path-335" stroke-width="0.5" stroke-dasharray="1"></line>
            <line x1="289.258701" y1="516.734137" x2="303.781135" y2="481.216802" id="Path-336"></line>
            <line x1="294.759525" y1="524.792123" x2="308.757877" y2="489.56586" id="Path-337" stroke-width="0.5" stroke-dasharray="1"></line>
            <line x1="300.320547" y1="532.389335" x2="303.781135" y2="525.389858" id="Path-338"></line>
            <line x1="304.898524" y1="537.792123" x2="308.175635" y2="531.186469" id="Path-339"></line>
            <line x1="309.179414" y1="543.619402" x2="313.022487" y2="535.58834" id="Path-340"></line>
            <line x1="312.022487" y1="551.193507" x2="329.430657" y2="517.445137" id="Path-341" stroke-width="0.5" stroke-dasharray="1"></line>
            <line x1="316.757877" y1="556.182466" x2="334.364198" y2="524.731395" id="Path-342"></line>
            <line x1="319.993467" y1="561.770683" x2="339.405205" y2="532.186469" id="Path-343" stroke-width="0.5" stroke-dasharray="1"></line>
            <line x1="325.561038" y1="569.390287" x2="343.757877" y2="538.792123" id="Path-344"></line>
            <line x1="334.822367" y1="568.390287" x2="329.699336" y2="574.711287" id="Path-345"></line>
            <line x1="359.859535" y1="562.770683" x2="339.59976" y2="590.055127" id="Path-346" stroke-width="0.5" stroke-dasharray="1"></line>
            <line x1="378.293186" y1="587.795316" x2="354.901747" y2="613.058042" id="Path-347"></line>
            <line x1="339.59976" y1="573.087325" x2="333.364198" y2="581.334976" id="Path-348"></line>
            <line x1="465.315809" y1="364.388657" x2="543.233491" y2="488.227761" id="Path-349" stroke-width="2"></line>
            <line x1="474.315809" y1="363.388657" x2="552.233491" y2="487.227761" id="Path-349-Copy-4" stroke-dasharray="1"></line>
            <line x1="457.315809" y1="369.388657" x2="535.233491" y2="493.227761" id="Path-349-Copy" stroke-dasharray="1"></line>
            <line x1="448.315809" y1="372.388657" x2="526.233491" y2="496.227761" id="Path-349-Copy-2" stroke-width="2"></line>
            <line x1="439.315809" y1="375.388657" x2="456.019642" y2="401.93703" id="Path-349-Copy-3" stroke-width="2"></line>
            <path d="M213.845782,526.889597 L286.757877,478.161925 L308.458538,508.263544 M319.347898,523.368494 L339.854463,551.813749 M351.413473,567.847588 L373.759602,598.844556 M383.996044,613.043824 L400.110588,635.396778 L402.103932,636.527371 L422.002169,641.071546 M443.35056,645.946894 L465.315809,650.963114" id="Shape" stroke-width="0.5" stroke-dasharray="1"></path>
            <path d="M213.845782,534.889597 L283.757877,487.216802 L305.410748,517.153643 M316.120581,531.960852 L335.912575,559.324879 M346.876787,574.483787 L368.322943,604.134828 M379.087311,619.017436 L395.197542,641.291129 L397.624703,642.927117 L414.78467,646.791395 M435.699453,651.501226 L458.121503,656.550481" id="Shape"></path>
            <path d="M213.845782,542.889597 L283.757877,495.216802 L386.197542,644.930926 L389.430081,649.143823 L451.146376,663.609612" id="Path-350-Copy-2" stroke-width="0.5" stroke-dasharray="1"></path>
            <path d="M290.758701,469.761053 L311.717908,499.471912 M322.584723,514.876236 L342.889207,543.658988 M355.35401,561.328551 L377.998318,593.428137 M388.465256,608.265612 L403.857647,630.085195 L426.861681,635.770541 M448.624411,641.149103 L472.052769,646.939318" id="Shape"></path>
            <path d="M66,63.5362371 L413.206169,613.058042 L485.052769,629.077012 L531.163918,594.694822 L537.512923,540.456931 L289.258701,178.615684 L261.906266,118.388657 L235.906266,110.388657 L180.259405,13.1908709" id="Path-350" stroke-dasharray="1"></path>
            <polyline id="Path-351" stroke-width="2" points="194.867618 16.8340922 240.703092 96.3886569 272.148849 106.388657"></polyline>
            <path d="M76.9382797,54.5662108 L426.861681,604.134828 L487.27465,616.465345 L524.120253,586.057463 L528.891539,543.658988 L388.830431,339.928509 M384.949638,334.283574 L263.337506,157.388657 L249.906266,125.388657 L231.317089,116.448995 L165.453133,9.30858766" id="Shape" stroke-width="2"></path>
            <path d="M87,44.3085877 L440.807394,594.694822 L488.794983,604.134828 L519.052769,580.387858 L521.153346,547.287352 L385.643397,349.498973 M381.585585,343.576248 L235.906266,130.944803 L227.769283,124.075649 L152.453133,4.1320219" id="Shape" stroke-dasharray="1"></path>
            <path d="M95,32.3085877 L456.019642,587.795316 L491.869334,590.055127 L513.27465,573.087325 L513.27465,551.193507 L390.784747,372.339326 M371.119317,354.388657 L135.784793,0" id="Shape" stroke-width="2"></path>
            <path d="M102.953133,22.8714906 L469.434075,577.211151 L492.355706,577.378344 L506.308952,567.847588 L506.308952,563.851673" id="Path-355" stroke-dasharray="1"></path>
            <path d="M112,13.1908709 L354.144931,375.367524 M365.296994,392.047687 L481.434075,565.754149 L494.971486,564.562519" id="Shape" stroke-width="2"></path>
            <path d="M121.953133,1.37344577 L360.923313,358.435564 M382.701287,390.975564 L491.869334,554.091205" id="Shape" stroke-width="2"></path>
        </g>
    </g>
</svg>