<?xml version="1.0" encoding="UTF-8"?>
<svg width="1920px" height="1080px" viewBox="0 0 1920 1080" version="1.1" xmlns="http://www.w3.org/2000/svg" xmlns:xlink="http://www.w3.org/1999/xlink">
    <!-- Generator: Sketch 63.1 (92452) - https://sketch.com -->
    <title>aarau3</title>
    <desc>Created with Sketch.</desc>
    <g id="aarau3" stroke="none" stroke-width="1" fill="none" fill-rule="evenodd">
        <g id="education" transform="translate(1327.726922, 390.590294)" stroke="#FFFFFF">
            <line x1="103.196977" y1="77.8579613" x2="98.3753166" y2="151.282773" id="Path-581" stroke-width="0.5" stroke-dasharray="1"></line>
            <line x1="98.1969766" y1="77.8579613" x2="93.3753166" y2="151.282773" id="Path-581-Copy"></line>
            <line x1="93.1969766" y1="76.8579613" x2="88.3753166" y2="150.282773" id="Path-581-Copy-2" stroke-width="0.5" stroke-dasharray="1"></line>
            <line x1="88.1969766" y1="76.8579613" x2="83.3753166" y2="150.282773" id="Path-581-Copy-3"></line>
            <line x1="83.1969766" y1="76.8579613" x2="78.3753166" y2="150.282773" id="Path-581-Copy-4" stroke-width="0.5" stroke-dasharray="1"></line>
            <line x1="78.1969766" y1="76.8579613" x2="73.3753166" y2="150.282773" id="Path-581-Copy-5"></line>
            <line x1="73.1969766" y1="76.8579613" x2="68.3753166" y2="150.282773" id="Path-581-Copy-6" stroke-width="0.5" stroke-dasharray="1"></line>
            <line x1="68.1969766" y1="76.8579613" x2="63.3753166" y2="150.282773" id="Path-581-Copy-7"></line>
            <line x1="63.1969766" y1="76.8579613" x2="58.3753166" y2="150.282773" id="Path-581-Copy-8" stroke-width="0.5" stroke-dasharray="1"></line>
            <line x1="58.1969766" y1="76.8579613" x2="53.3753166" y2="150.282773" id="Path-581-Copy-9"></line>
            <line x1="53.1969766" y1="76.8579613" x2="48.3753166" y2="150.282773" id="Path-581-Copy-10" stroke-width="0.5" stroke-dasharray="1"></line>
            <line x1="48.1969766" y1="75.8579613" x2="44.3753166" y2="149.282773" id="Path-581-Copy-11"></line>
            <line x1="43.1969766" y1="75.8579613" x2="39.3753166" y2="149.282773" id="Path-581-Copy-12" stroke-width="0.5" stroke-dasharray="1"></line>
            <line x1="38.1969766" y1="75.8579613" x2="35.3753166" y2="149.282773" id="Path-581-Copy-13"></line>
            <line x1="33.1969766" y1="75.8579613" x2="30.3753166" y2="149.282773" id="Path-581-Copy-14" stroke-width="0.5" stroke-dasharray="1"></line>
            <line x1="28.1969766" y1="75.8579613" x2="25.3753166" y2="149.282773" id="Path-581-Copy-15"></line>
            <line x1="23.1969766" y1="75.8579613" x2="20.3753166" y2="149.282773" id="Path-581-Copy-16" stroke-width="0.5" stroke-dasharray="1"></line>
            <line x1="18.1969766" y1="75.8579613" x2="15.3753166" y2="149.282773" id="Path-581-Copy-17"></line>
            <line x1="13.1969766" y1="75.8579613" x2="10.3753166" y2="149.282773" id="Path-581-Copy-18" stroke-width="0.5" stroke-dasharray="1"></line>
            <line x1="8.19697657" y1="75.8579613" x2="5.3753166" y2="149.282773" id="Path-581-Copy-19"></line>
            <path d="M21.7861466,15.7708052 L39.3753166,4 L60.7861466,16.7077022" id="Path-582" stroke-width="0.5" stroke-dasharray="1"></path>
            <polyline id="Path-582-Copy-2" points="21.7861466 20.7708052 40.3753166 9 60.7595371 20.7708052"></polyline>
            <path d="M21.7861466,25.7708052 L41.3753166,14 L63.1969766,25.7708052" id="Path-582-Copy-3" stroke-width="0.5" stroke-dasharray="1"></path>
            <polyline id="Path-582-Copy-4" points="22.7861466 29.7708052 42.3753166 18 64.4512995 28.8854026"></polyline>
            <path d="M23.7861466,34.7708052 L43.3753166,23 L65.7861466,33.8854026" id="Path-582-Copy-5" stroke-width="0.5" stroke-dasharray="1"></path>
            <polyline id="Path-582-Copy-6" points="24.7861466 39.7708052 44.3753166 28 65.8121075 38"></polyline>
            <path d="M25.7861466,44.7708052 L45.3753166,33 L66.9423541,41.8518925" id="Path-582-Copy-7" stroke-width="0.5" stroke-dasharray="1"></path>
            <polyline id="Path-582-Copy-8" points="26.7861466 49.7708052 46.3753166 38 68.3753166 46.4518027"></polyline>
            <path d="M27.7861466,54.7708052 L47.3753166,43 L69.3753166,50.7708052" id="Path-582-Copy-9" stroke-width="0.5" stroke-dasharray="1"></path>
            <polyline id="Path-582-Copy" points="21.7861466 11.7708052 39.3753166 8.8817842e-16 59.3070268 12.8108186"></polyline>
            <path d="M0,20.4847003 L8.19697657,15.7077022 L20.3753166,15.7077022" id="Path-584" stroke-width="0.5" stroke-dasharray="1"></path>
            <polyline id="Path-584-Copy" points="0 24.4847003 8.19697657 19.7077022 20.3753166 19.7077022"></polyline>
            <path d="M0,28.4847003 L8.19697657,23.7077022 L20.3753166,23.7077022" id="Path-584-Copy-2" stroke-width="0.5" stroke-dasharray="1"></path>
            <polyline id="Path-584-Copy-3" points="0 32.4847003 8.19697657 27.7077022 20.3753166 27.7077022"></polyline>
            <path d="M0,36.4847003 L8.19697657,31.7077022 L20.3753166,31.7077022" id="Path-584-Copy-4" stroke-width="0.5" stroke-dasharray="1"></path>
            <polyline id="Path-584-Copy-5" points="1 40.4847003 9.19697657 35.7077022 21.3753166 35.7077022"></polyline>
            <path d="M2,44.4847003 L10.1969766,39.7077022 L22.3753166,39.7077022" id="Path-584-Copy-6" stroke-width="0.5" stroke-dasharray="1"></path>
            <polyline id="Path-584-Copy-7" points="3 48.4847003 11.1969766 43.7077022 23.3753166 43.7077022"></polyline>
            <path d="M3,52.4847003 L11.1969766,47.7077022 L23.3753166,47.7077022" id="Path-584-Copy-8" stroke-width="0.5" stroke-dasharray="1"></path>
            <polyline id="Path-584-Copy-9" points="3 56.4847003 11.1969766 51.7077022 23.3753166 51.7077022"></polyline>
            <path d="M3,60.4847003 L11.1969766,55.7077022 L23.3753166,55.7077022" id="Path-584-Copy-10" stroke-width="0.5" stroke-dasharray="1"></path>
            <line x1="2" y1="79.192291" x2="107.824836" y2="81.6218294" id="Path-585" stroke-width="0.5" stroke-dasharray="1"></line>
            <line x1="2" y1="84.192291" x2="107.824836" y2="86.6218294" id="Path-585-Copy"></line>
            <line x1="2" y1="89.192291" x2="107.824836" y2="91.6218294" id="Path-585-Copy-2" stroke-width="0.5" stroke-dasharray="1"></line>
            <line x1="2" y1="94.192291" x2="107.824836" y2="96.6218294" id="Path-585-Copy-3"></line>
            <line x1="2" y1="99.192291" x2="107.824836" y2="101.621829" id="Path-585-Copy-4" stroke-width="0.5" stroke-dasharray="1"></line>
            <line x1="1" y1="104.192291" x2="106.824836" y2="106.621829" id="Path-585-Copy-5"></line>
            <line x1="1" y1="109.192291" x2="106.824836" y2="111.621829" id="Path-585-Copy-6" stroke-width="0.5" stroke-dasharray="1"></line>
            <line x1="-5.68434189e-14" y1="114.192291" x2="105.824836" y2="116.621829" id="Path-585-Copy-7"></line>
            <line x1="-5.68434189e-14" y1="119.192291" x2="105.824836" y2="121.621829" id="Path-585-Copy-8" stroke-width="0.5" stroke-dasharray="1"></line>
            <line x1="-5.68434189e-14" y1="124.192291" x2="105.824836" y2="126.621829" id="Path-585-Copy-9"></line>
            <line x1="-5.68434189e-14" y1="129.192291" x2="105.824836" y2="131.621829" id="Path-585-Copy-10" stroke-width="0.5" stroke-dasharray="1"></line>
            <line x1="-5.68434189e-14" y1="134.192291" x2="105.824836" y2="136.621829" id="Path-585-Copy-11"></line>
            <line x1="-5.68434189e-14" y1="139.192291" x2="105.824836" y2="141.621829" id="Path-585-Copy-12" stroke-width="0.5" stroke-dasharray="1"></line>
            <line x1="-5.68434189e-14" y1="144.192291" x2="105.824836" y2="146.621829" id="Path-585-Copy-13"></line>
            <path d="M16.7861466,13 L17.9424952,33.4324909 L21.3753166,56.4847003" id="Path-631" stroke-width="0.5" stroke-dasharray="1"></path>
            <polyline id="Path-632" points="12.1969766 13 13.2698697 32.4847003 15.7861466 56.4847003"></polyline>
            <polyline id="Path-633" points="2 18 4.3753166 59.4645861 4.3753166 69.8439618 104.512634 71.1649708"></polyline>
            <path d="M5.3753166,16.6978514 L8.19697657,58.0962012 L8.19697657,66.846691 L101.50451,67.5717234" id="Path-634" stroke-width="0.5" stroke-dasharray="1"></path>
            <line x1="57.1969766" y1="9.35385108" x2="66.2610026" y2="55.7077022" id="Path-638"></line>
            <line x1="53.1969766" y1="7.35385108" x2="60.7861466" y2="55.4335032" id="Path-638-Copy" stroke-width="0.5" stroke-dasharray="1"></line>
            <line x1="48.1969766" y1="5.35385108" x2="55.7861466" y2="54.7708052" id="Path-638-Copy-2"></line>
            <line x1="43.3753166" y1="1.86890713" x2="50.7861466" y2="54.7708052" id="Path-638-Copy-3" stroke-width="0.5" stroke-dasharray="1"></line>
            <line x1="36.3753166" y1="0.992020691" x2="45.8395714" y2="55.4335032" id="Path-639"></line>
            <line x1="31.3753166" y1="3.99202069" x2="41.2728418" y2="56.4847003" id="Path-639-Copy" stroke-width="0.5" stroke-dasharray="1"></line>
            <line x1="27.3753166" y1="6.99202069" x2="36.3753166" y2="56.4847003" id="Path-639-Copy-2"></line>
            <line x1="23.3753166" y1="8.99202069" x2="32.1969766" y2="57.0962012" id="Path-639-Copy-3" stroke-width="0.5" stroke-dasharray="1"></line>
            <line x1="81.3753166" y1="58.0962012" x2="97.3271874" y2="73.5792312" id="Path-635"></line>
            <line x1="87.3753166" y1="58.0962012" x2="104.786147" y2="73.5792312" id="Path-635-Copy" stroke-width="0.5" stroke-dasharray="1"></line>
            <line x1="77.4629704" y1="58.0962012" x2="89.9120748" y2="73.5792312" id="Path-636" stroke-width="0.5" stroke-dasharray="1"></line>
            <line x1="72.0947261" y1="58.0962012" x2="79.6089515" y2="73.5792312" id="Path-637"></line>
            <line x1="66.9423541" y1="58.0962012" x2="70.7861466" y2="73.5792312" id="Path-640" stroke-width="0.5" stroke-dasharray="1"></line>
            <line x1="60.9915616" y1="58.0962012" x2="63.1969766" y2="73.6400902" id="Path-641"></line>
            <line x1="54.9124182" y1="58.0962012" x2="54.9124182" y2="73.5792312" id="Path-642" stroke-width="0.5" stroke-dasharray="1"></line>
            <line x1="48.7861466" y1="58.0962012" x2="48.7861466" y2="72.8715525" id="Path-643"></line>
            <line x1="5.3753166" y1="71.1649708" x2="11.3753166" y2="59.4645861" id="Path-644" stroke-width="0.5" stroke-dasharray="1"></line>
            <line x1="11.7861466" y1="71.9291201" x2="17.0807316" y2="59.4847003" id="Path-645"></line>
            <line x1="19.0807316" y1="71.9291201" x2="22.7861466" y2="59.4847003" id="Path-646" stroke-width="0.5" stroke-dasharray="1"></line>
            <line x1="25.3753166" y1="71.9291201" x2="28.1969766" y2="59.4847003" id="Path-647"></line>
            <line x1="31.1969766" y1="71.9291201" x2="33.1969766" y2="58.4645861" id="Path-648" stroke-width="0.5" stroke-dasharray="1"></line>
            <line x1="36.3753166" y1="72.8715525" x2="38.1969766" y2="58.0962012" id="Path-683"></line>
            <line x1="42.4915616" y1="72.8715525" x2="43.618723" y2="58.0962012" id="Path-695" stroke-width="0.5" stroke-dasharray="1"></line>
            <polyline id="Path-696" points="31.1969766 56.4847003 48.7861466 48.4847003 70.0619267 54.7708052"></polyline>
            <line x1="3" y1="65.1968531" x2="10.1876583" y2="58.4645861" id="Path-697"></line>
            <line x1="10.3753166" y1="62.5947235" x2="95.7861466" y2="63.8065478" id="Path-698"></line>
            <line x1="12.1876583" y1="58.4645861" x2="89.9120748" y2="59.4645861" id="Path-699" stroke-width="0.5" stroke-dasharray="1"></line>
        </g>
    </g>
</svg>