<?xml version="1.0" encoding="UTF-8"?>
<svg width="1920px" height="1080px" viewBox="0 0 1920 1080" version="1.1" xmlns="http://www.w3.org/2000/svg" xmlns:xlink="http://www.w3.org/1999/xlink">
    <!-- Generator: Sketch 62 (91390) - https://sketch.com -->
    <title>aarau3</title>
    <desc>Created with Sketch.</desc>
    <g id="aarau3" stroke="none" stroke-width="1" fill="none" fill-rule="evenodd">
        <g id="Group-36" transform="translate(1045.218167, 751.327837)" stroke="#FFFFFF">
            <line x1="17.8677655" y1="73.3662936" x2="17.8677655" y2="137.175162" id="Path-451"></line>
            <line x1="25.8677655" y1="73.3662936" x2="25.8677655" y2="137.175162" id="Path-451-Copy" stroke-width="0.5" stroke-dasharray="1"></line>
            <line x1="33.8677655" y1="73.3662936" x2="33.8677655" y2="137.175162" id="Path-451-Copy-2"></line>
            <line x1="41.8677655" y1="73.3662936" x2="41.8677655" y2="137.175162" id="Path-451-Copy-3" stroke-width="0.5" stroke-dasharray="1"></line>
            <line x1="49.8677655" y1="73.3662936" x2="49.8677655" y2="123.815762" id="Path-451-Copy-4"></line>
            <line x1="57.8677655" y1="73.3662936" x2="57.8677655" y2="124.473814" id="Path-451-Copy-5" stroke-width="0.5" stroke-dasharray="1"></line>
            <line x1="65.8677655" y1="73.3662936" x2="65.8677655" y2="122.513104" id="Path-451-Copy-6"></line>
            <line x1="73.8677655" y1="72.3662936" x2="73.8677655" y2="113.211941" id="Path-451-Copy-7" stroke-width="0.5" stroke-dasharray="1"></line>
            <line x1="81.8677655" y1="72.3662936" x2="81.8677655" y2="112.428648" id="Path-451-Copy-8"></line>
            <line x1="89.8677655" y1="72.3662936" x2="89.8677655" y2="115.522903" id="Path-451-Copy-9" stroke-width="0.5" stroke-dasharray="1"></line>
            <line x1="97.8677655" y1="71.3662936" x2="97.8677655" y2="111.784041" id="Path-451-Copy-10"></line>
            <line x1="105.867766" y1="70.3662936" x2="105.867766" y2="111.338265" id="Path-451-Copy-11" stroke-width="0.5" stroke-dasharray="1"></line>
            <line x1="113.867766" y1="69.3662936" x2="113.867766" y2="116.227655" id="Path-451-Copy-12" stroke-width="0.5" stroke-dasharray="1"></line>
            <line x1="121.867766" y1="69.3662936" x2="121.867766" y2="111.694178" id="Path-451-Copy-13"></line>
            <line x1="129.867766" y1="69.3662936" x2="129.867766" y2="111.216563" id="Path-451-Copy-14" stroke-width="0.5" stroke-dasharray="1"></line>
            <line x1="137.867766" y1="69.3662936" x2="137.867766" y2="115.931886" id="Path-451-Copy-15"></line>
            <line x1="145.867766" y1="69.3662936" x2="145.867766" y2="115.558283" id="Path-451-Copy-16" stroke-width="0.5" stroke-dasharray="1"></line>
            <line x1="153.867766" y1="69.3662936" x2="153.867766" y2="115.439409" id="Path-451-Copy-17"></line>
            <line x1="161.867766" y1="69.3662936" x2="161.867766" y2="115.23704" id="Path-451-Copy-18" stroke-width="0.5" stroke-dasharray="1"></line>
            <line x1="3.31739469" y1="39.2654315" x2="3.31739469" y2="103.270728" id="Path-452" stroke-width="0.5" stroke-dasharray="1"></line>
            <line x1="6.31739469" y1="53.2654315" x2="6.31739469" y2="117.270728" id="Path-452-Copy"></line>
            <line x1="9.31739469" y1="64.2654315" x2="9.31739469" y2="128.270728" id="Path-452-Copy-2" stroke-width="0.5" stroke-dasharray="1"></line>
            <path d="M0,40.6009904 L10.9971374,79.9256939 L163.782267,75.1126674" id="Path-453" stroke-width="0.5" stroke-dasharray="1"></path>
            <polyline id="Path-454" points="-5.68434189e-14 55.9047266 10.7772928 87.360171 153.867766 82.546163"></polyline>
            <path d="M0,70.3662936 L9.31739469,93.9445985 L163.782267,89.360171" id="Path-455" stroke-width="0.5" stroke-dasharray="1"></path>
            <polyline id="Path-456" points="0 79.9256939 9.31739469 101.270728 163.782267 96.2680797"></polyline>
            <path d="M-5.68434189e-14,90.5302359 L9.31739469,109.428648 L153.867766,104.270728" id="Path-457" stroke-width="0.5" stroke-dasharray="1"></path>
            <path d="M-5.68434189e-14,97.939699 L9.31739469,117.270728 L70.4723521,114.843805 M86.3703938,114.212894 L96.0216967,113.829884 M108.431971,113.337384 L118.671631,112.931025 M133.858022,112.328356 L156.529358,111.428648" id="Shape"></path>
            <line x1="9.31739469" y1="123.815762" x2="69.524964" y2="121.22799" id="Path-458" stroke-width="0.5" stroke-dasharray="1"></line>
            <line x1="10.9238128" y1="129.270728" x2="48.1185636" y2="127.971563" id="Path-459"></line>
            <line x1="13.0462001" y1="134.981474" x2="48.1185636" y2="133.577105" id="Path-460" stroke-width="0.5" stroke-dasharray="1"></line>
            <line x1="2.78183336" y1="30.1161056" x2="38.885618" y2="8.67216274" id="Path-461" stroke-width="0.5" stroke-dasharray="1"></line>
            <line x1="6.31739469" y1="46.1386861" x2="43.1946692" y2="19.3941342" id="Path-462" stroke-width="0.5" stroke-dasharray="1"></line>
            <line x1="177.159528" y1="11.9793212" x2="142.258836" y2="5.32842753" id="Path-463"></line>
            <line x1="142.258836" y1="11.9793212" x2="177.159528" y2="20.1262594" id="Path-464" stroke-width="0.5" stroke-dasharray="1"></line>
            <line x1="142.258836" y1="18.5766481" x2="179.159674" y2="29.3282726" id="Path-465"></line>
            <line x1="143.545396" y1="23.9524603" x2="181.873407" y2="44.4522881" id="Path-473" stroke-width="0.5" stroke-dasharray="1"></line>
            <path d="M4.31739469,23.4047621 L15.8677655,65.5522779 L159.867766,59.9335853" id="Path-474" stroke-width="0.5" stroke-dasharray="1"></path>
            <polyline id="Path-475" points="8.92381282 19.5766481 20.5925801 59.9335853 160.601796 54.7002837"></polyline>
            <path d="M13.3456661,17.0527903 L25.0518817,53.6135746 L168.128601,48.3060979 L165.098988,3.98111963" id="Path-476" stroke-width="0.5" stroke-dasharray="1"></path>
            <polyline id="Path-477" points="18.8337257 12.9793212 29.9896399 47.1386861 162.601796 43.4502966 160.484369 2.24142579"></polyline>
            <path d="M23.8677655,9.67216274 L35.4228452,41.6009904 L156.421898,38.3557101 L154.987554,1.16265131" id="Path-491" stroke-width="0.5" stroke-dasharray="1"></path>
            <line x1="169.829387" y1="3.98111963" x2="174.276279" y2="50.5836525" id="Path-492"></line>
            <line x1="174.276279" y1="5.32842753" x2="179.159674" y2="53.7271575" id="Path-493"></line>
            <polyline id="Path-494" points="29.4916074 7.42788442 39.8677655 35.2023742 152.080376 32.957716 150.595973 1.16265131"></polyline>
            <path d="M33.2361761,4.98111963 L43.8179524,31.1161056 L146.783342,28.5281131 L145.64288,4.54747351e-13" id="Path-495" stroke-width="0.5" stroke-dasharray="1"></path>
            <line x1="137.867766" y1="25.784118" x2="160.709255" y2="53.7271575" id="Path-496"></line>
            <line x1="129.867766" y1="27.1090761" x2="158.120391" y2="65.887552" id="Path-497" stroke-width="0.5" stroke-dasharray="1"></line>
            <line x1="123.371193" y1="27.2823861" x2="143.545396" y2="65.887552" id="Path-498"></line>
            <line x1="117.174364" y1="27.2823861" x2="128.90938" y2="67.2573128" id="Path-499" stroke-width="0.5" stroke-dasharray="1"></line>
            <line x1="110.187974" y1="27.2823861" x2="115.330476" y2="67.2573128" id="Path-500"></line>
            <line x1="102.245202" y1="27.1090761" x2="103.69812" y2="67.641734" id="Path-501" stroke-width="0.5" stroke-dasharray="1"></line>
            <line x1="94.2840737" y1="28.2973471" x2="94.2840737" y2="68.3148486" id="Path-502"></line>
            <line x1="86.101234" y1="28.2973471" x2="84.461457" y2="68.3148486" id="Path-503" stroke-width="0.5" stroke-dasharray="1"></line>
            <line x1="78.3209161" y1="29.3282726" x2="73.8677655" y2="68.3148486" id="Path-504"></line>
            <line x1="22.5925801" y1="70.6115941" x2="49.8677655" y2="29.3282726" id="Path-505"></line>
            <line x1="56.6903766" y1="29.3282726" x2="37.0041734" y2="70.6115941" id="Path-506" stroke-width="0.5" stroke-dasharray="1"></line>
            <line x1="63.2505235" y1="29.3282726" x2="49.8677655" y2="69.3662936" id="Path-507"></line>
            <line x1="70.4723521" y1="29.3282726" x2="63.2505235" y2="68.3148486" id="Path-508" stroke-width="0.5" stroke-dasharray="1"></line>
            <line x1="40.7035049" y1="15.0580528" x2="3.31739469" y2="38.7551167" id="Path-509"></line>
            <line x1="43.1946692" y1="23.9524603" x2="7.21349646" y2="52.6135746" id="Path-510"></line>
            <line x1="45.7473965" y1="27.1090761" x2="9.97338703" y2="63.0647967" id="Path-511" stroke-width="0.5" stroke-dasharray="1"></line>
            <line x1="166.752561" y1="64.0651638" x2="166.752561" y2="113.337384" id="Path-512" stroke-width="0.5" stroke-dasharray="1"></line>
            <line x1="172.752561" y1="64.0651638" x2="172.752561" y2="113.337384" id="Path-512-Copy"></line>
            <line x1="178.752561" y1="64.0651638" x2="178.752561" y2="113.337384" id="Path-512-Copy-2" stroke-width="0.5" stroke-dasharray="1"></line>
            <line x1="163.782267" y1="69.3662936" x2="185.102807" y2="69.3662936" id="Path-513" stroke-width="0.5" stroke-dasharray="1"></line>
            <line x1="163.782267" y1="75.3662936" x2="185.102807" y2="75.3662936" id="Path-513-Copy"></line>
            <line x1="163.782267" y1="81.3662936" x2="185.102807" y2="81.3662936" id="Path-513-Copy-2" stroke-width="0.5" stroke-dasharray="1"></line>
            <line x1="163.782267" y1="87.3662936" x2="185.102807" y2="87.3662936" id="Path-513-Copy-3"></line>
            <line x1="163.782267" y1="93.3662936" x2="185.102807" y2="93.3662936" id="Path-513-Copy-4" stroke-width="0.5" stroke-dasharray="1"></line>
            <line x1="163.782267" y1="99.3662936" x2="185.102807" y2="99.3662936" id="Path-513-Copy-5"></line>
            <line x1="163.782267" y1="105.366294" x2="185.102807" y2="105.366294" id="Path-513-Copy-6" stroke-width="0.5" stroke-dasharray="1"></line>
            <line x1="163.782267" y1="111.366294" x2="185.102807" y2="111.366294" id="Path-513-Copy-7"></line>
        </g>
    </g>
</svg>