<?xml version="1.0" encoding="UTF-8"?>
<svg width="1920px" height="1080px" viewBox="0 0 1920 1080" version="1.1" xmlns="http://www.w3.org/2000/svg" xmlns:xlink="http://www.w3.org/1999/xlink">
    <!-- Generator: Sketch 62 (91390) - https://sketch.com -->
    <desc>Created with Sketch.</desc>
    <g id="baden03" stroke="none" stroke-width="1" fill="none" fill-rule="evenodd">
        <g id="Group-37" transform="translate(318.411731, 681.768715)" stroke="#FFFFFF">
            <path d="M29.7385575,0 L8.66224598,21.3761426 L13.0417556,51.4762712" id="Path-372" stroke-width="0.5" stroke-dasharray="1"></path>
            <polyline id="Path-372-Copy" points="23.7385575 -1.46304362e-12 2.66224598 21.3761426 7.04175564 51.4762712"></polyline>
            <path d="M275.502428,75.0635497 L271.508827,43.2162159 L267.773535,39.8149783 L1.33333847,15.2629957" id="Path-373" stroke-width="0.5" stroke-dasharray="1"></path>
            <polyline id="Path-374" points="8.66224598 9.24270862 270.387705 33.9695109 276.168767 38.1180011 279.988857 69.0369743"></polyline>
            <path d="M15.0763035,3.52530096 L276.168767,27.7601268 L279.988857,33.1280627 L283.748427,63.4017476" id="Path-375" stroke-width="0.5" stroke-dasharray="1"></path>
            <path d="M35.6121831,0 L15.0763035,22.6890592 L19.8116145,51.4762712" id="Path-376" stroke-width="0.5" stroke-dasharray="1"></path>
            <polyline id="Path-377" points="41.166992 1.39832491 21.9475261 22.6890592 25.7385575 51.4762712"></polyline>
            <path d="M46.9769631,1.39832491 L27.746072,23.5029666 L31.6121831,53.3155879" id="Path-378" stroke-width="0.5" stroke-dasharray="1"></path>
            <polyline id="Path-379" points="52.8794236 2.20070634 34.1915001 23.5029666 37.166992 45.1632727"></polyline>
            <path d="M58.9848169,2.20070634 L40.1255159,24.3903214 L42.9769631,45.1632727" id="Path-380" stroke-width="0.5" stroke-dasharray="1"></path>
            <polyline id="Path-381" points="64.7082831 3.52530096 46.0856463 25.3391546 48.8794236 51.4762712"></polyline>
            <path d="M70.7560065,3.52530096 L52.2143387,25.127513 L55.9848169,55.386808" id="Path-382" stroke-width="0.5" stroke-dasharray="1"></path>
            <polyline id="Path-383" points="77.2470053 3.52530096 58.9643711 25.4831932 61.7082831 55.386808"></polyline>
            <path d="M82.7551875,4.92613229 L64.7560065,26.8946099 L67.7560065,56.2436958" id="Path-384" stroke-width="0.5" stroke-dasharray="1"></path>
            <polyline id="Path-385" points="90.0324423 4.92613229 70.8625973 27.3569564 73.4350578 57.6778274"></polyline>
            <path d="M97.0142888,5.68563359 L77.4663092,27.5007861 L79.7551875,57.6778274" id="Path-386" stroke-width="0.5" stroke-dasharray="1"></path>
            <polyline id="Path-387" points="104.251437 6.55862126 84.4535572 28.7067833 86.2319493 58.383834"></polyline>
            <path d="M111.307319,7.45373254 L93.0142888,29.4560545 L95.0142888,59.3152606" id="Path-388" stroke-width="0.5" stroke-dasharray="1"></path>
            <polyline id="Path-389" points="117.811039 7.45373254 100.251437 29.4560545 102.251437 60.4586287"></polyline>
            <path d="M124.685238,9.24270862 L107.307319,31.6885133 L109.307319,60.4586287" id="Path-390" stroke-width="0.5" stroke-dasharray="1"></path>
            <polyline id="Path-391" points="131.513177 10.1431571 113.811039 32.475857 115.401521 54.728914"></polyline>
            <path d="M138.417883,10.1431571 L120.795809,31.6817305 L122.795809,52.4369256" id="Path-392" stroke-width="0.5" stroke-dasharray="1"></path>
            <polyline id="Path-393" points="145.812447 11.1329929 127.459879 32.4712276 129.459879 55.386808"></polyline>
            <path d="M152.571112,11.1329929 L133.017188,34.2981891 L137.903591,64.4017476" id="Path-394" stroke-width="0.5" stroke-dasharray="1"></path>
            <polyline id="Path-394-Copy" points="159.571112 12.1329929 140.017188 35.2981891 144.903591 65.4017476"></polyline>
            <path d="M167.571112,13.1329929 L148.017188,36.2981891 L152.903591,66.4017476" id="Path-394-Copy-2" stroke-width="0.5" stroke-dasharray="1"></path>
            <polyline id="Path-395" points="176.273456 14.1596689 159.571112 35.3008929 163.385427 67.3556001"></polyline>
            <path d="M183.273456,14.1596689 L166.571112,35.3008929 L170.385427,67.3556001" id="Path-395-Copy" stroke-width="0.5" stroke-dasharray="1"></path>
            <polyline id="Path-395-Copy-2" points="189.273456 15.1596689 172.571112 36.3008929 176.385427 68.3556001"></polyline>
            <path d="M196.273456,16.1596689 L179.571112,37.3008929 L183.385427,69.3556001" id="Path-395-Copy-3" stroke-width="0.5" stroke-dasharray="1"></path>
            <polyline id="Path-395-Copy-4" points="203.273456 17.1596689 186.571112 38.3008929 190.385427 70.3556001"></polyline>
            <path d="M210.273456,18.1596689 L193.571112,39.3008929 L197.385427,71.3556001" id="Path-395-Copy-5" stroke-width="0.5" stroke-dasharray="1"></path>
            <polyline id="Path-395-Copy-6" points="217.273456 18.1596689 200.571112 39.3008929 204.385427 71.3556001"></polyline>
            <path d="M224.273456,18.1596689 L207.571112,39.3008929 L211.385427,71.3556001" id="Path-395-Copy-7" stroke-width="0.5" stroke-dasharray="1"></path>
            <polyline id="Path-395-Copy-8" points="231.273456 19.1596689 214.571112 40.3008929 217.423105 64.2684428"></polyline>
            <path d="M238.273456,19.1596689 L221.571112,40.3008929 L224.514295,65.0347869" id="Path-395-Copy-9" stroke-width="0.5" stroke-dasharray="1"></path>
            <polyline id="Path-395-Copy-10" points="245.273456 20.1596689 228.571112 41.3008929 232.385427 73.3556001"></polyline>
            <path d="M252.273456,21.1596689 L235.571112,42.3008929 L239.385427,74.3556001" id="Path-395-Copy-11" stroke-width="0.5" stroke-dasharray="1"></path>
            <polyline id="Path-395-Copy-12" points="259.273456 22.1596689 242.571112 43.3008929 246.385427 75.3556001"></polyline>
            <path d="M266.273456,23.1596689 L249.571112,44.3008929 L253.385427,76.3556001" id="Path-395-Copy-13" stroke-width="0.5" stroke-dasharray="1"></path>
            <polyline id="Path-395-Copy-14" points="273.273456 24.1596689 256.571112 45.3008929 260.385427 77.3556001"></polyline>
            <path d="M280.273456,25.1596689 L263.571112,46.3008929 L267.385427,78.3556001" id="Path-395-Copy-15" stroke-width="0.5" stroke-dasharray="1"></path>
            <polyline id="Path-396" points="1.98951966e-13 24.6368411 131.513177 36.1559926 152.571112 38.7673702 264.922284 49.7576345 268.441732 48.7576345 283.748427 29.6860238"></polyline>
            <path d="M1.98951966e-13,29.6368411 L131.513177,41.1559926 L152.571112,43.7673702 L264.922284,54.7576345 L268.441732,53.7576345 L283.748427,34.6860238" id="Path-396-Copy" stroke-width="0.5" stroke-dasharray="1"></path>
            <polyline id="Path-396-Copy-2" points="1.98951966e-13 34.6368411 131.513177 46.1559926 152.571112 48.7673702 264.922284 59.7576345 268.441732 58.7576345 283.748427 39.6860238"></polyline>
            <path d="M3.97903932e-13,39.6368411 L131.513177,51.1559926 L152.571112,53.7673702 L264.922284,64.7576345 L268.441732,63.7576345 L284.98817,43.5611052" id="Path-396-Copy-3" stroke-width="0.5" stroke-dasharray="1"></path>
            <path d="M1.13686838e-13,44.6368411 L32.3290177,47.4685182 M44.5616783,48.5399688 L115.671678,54.7684463 M127.304382,55.7873471 L131.513177,56.1559926 L152.571112,58.7673702 L215.369602,64.9103591 M226.33052,65.9825632 L264.922284,69.7576345 L268.441732,68.7576345 L285.52496,47.7576345" id="Shape"></path>
            <path d="M1.13686838e-13,49.6368411 L32.5117602,52.4845245 M47.0045126,53.753935 L115.031548,59.7123778 M129.90151,61.0148278 L131.513177,61.1559926 L152.571112,63.7673702 L214.256727,69.801497 M229.015215,71.2451818 L264.922284,74.7576345 L268.441732,73.7576345 L286.863443,51.7576345" id="Shape" stroke-width="0.5" stroke-dasharray="1"></path>
        </g>
    </g>
</svg>
