<?xml version="1.0" encoding="UTF-8"?>
<svg width="1920px" height="1080px" preserveAspectRatio="xMidYMid slice" viewBox="0 0 1920 1080" version="1.1"
     xmlns="http://www.w3.org/2000/svg">
    <!-- Generator: Sketch 60.1 (88133) - https://sketch.com -->
    <title>baden01</title>
    <desc>Created with Sketch.</desc>
    <g id="baden01" stroke="none" stroke-width="1" fill="none" fill-rule="evenodd">
        <g id="LAFARGE-HOPLCIM"
           transform="translate(1610.000000, 632.000000) rotate(0.500000) translate(-1618.000000, -632.000000) translate(1512.000000, 515.000000)"
           stroke="#FFFFFF">
            <line x1="81.9420711" y1="1.19992389" x2="78.5912437" y2="177.653466" id="Path-50"
                  stroke-dasharray="1.265000001192092,1.265000001192092"></line>
            <line x1="65.497071" y1="1.19992389" x2="64.6668647" y2="39.2003826" id="Path-50-Copy-8"
                  stroke-dasharray="1.265000001192092,1.265000001192092"></line>
            <line x1="114.832071" y1="1.19992389" x2="111.41298" y2="175.595382" id="Path-50-Copy-2"
                  stroke-dasharray="1.265000001192092,1.265000001192092"></line>
            <line x1="131.277071" y1="1.19992389" x2="127.343635" y2="199.238251" id="Path-50-Copy-3"
                  stroke-dasharray="1.265000001192092,1.265000001192092"></line>
            <path d="M147.722071,1.19992389 L144.636133,131.038209 M144.365681,142.417248 L142.769167,209.589249"
                  id="Shape" stroke-dasharray="1.265000001192092,1.265000001192092"></path>
            <line x1="180.612071" y1="1.19992389" x2="174.627852" y2="233.36957" id="Path-50-Copy-6"
                  stroke-dasharray="1.265000001192092,1.265000001192092"></line>
            <line x1="197.057071" y1="1.19992389" x2="196.100315" y2="52.5989064" id="Path-50-Copy-7"
                  stroke-dasharray="1.265000001192092,1.265000001192092"></line>
            <path d="M14.3292153,51.2942351 L38.7638945,53.5877831 M54.5682151,55.1852868 L67.8308785,55.9944152 L194.166596,55.9944152"
                  id="Shape" stroke-dasharray="1.265000001192092"></path>
            <path d="M0.936749689,12.0953333 L46.5833062,15.871372 M59.4724531,16.7794151 L211.97216,16.7794151"
                  id="Shape" stroke-dasharray="1.265000001192092"></path>
            <path d="M12.0310019,86.705785 L66.4569466,92.6794152 L193.110275,92.6794152" id="Path-51-Copy-4"
                  stroke-dasharray="1.265000001192092,1.265000001192092"></path>
            <path d="M11.9578668,102.196383 L65.5728125,109.124415 L192.978235,109.124415" id="Path-51-Copy-5"
                  stroke-dasharray="1.265000001192092,1.265000001192092"></path>
            <path d="M12.3696458,134.11834 L64.1908511,142.014415 L192.140493,142.014415" id="Path-51-Copy-7"
                  stroke-dasharray="1.265000001192092,1.265000001192092"></path>
            <path d="M12.3696458,149.41082 L62.0828727,158.459415 L191.623038,158.459415" id="Path-51-Copy-8"
                  stroke-dasharray="1.265000001192092,1.265000001192092"></path>
            <line x1="122.475378" y1="191.349415" x2="190.540844" y2="191.349415" id="Path-51-Copy-10"
                  stroke-dasharray="1.265000001192092,1.265000001192092"></line>
            <line x1="140.197623" y1="207.794415" x2="190.190223" y2="207.794415" id="Path-51-Copy-11"
                  stroke-dasharray="1.265000001192092,1.265000001192092"></line>
            <line x1="26.7083579" y1="0.766938731" x2="21.5816476" y2="192.8239" id="Path-39"
                  stroke-dasharray="1.265000001192092,1.265000001192092"></line>
            <path d="M39.7171657,1.19992389 L38.760052,53.1474758 M38.799098,57.6217048 L35.5580187,188.19545"
                  id="Shape" stroke-dasharray="1.100000023841858"></path>
            <path d="M54.3868444,1.19992389 L54.2239892,12.3030934 M52.984768,62.2277441 L49.9791599,183.315034"
                  id="Shape" stroke-dasharray="1.100000023841858"></path>
            <line x1="160.751271" y1="224.239415" x2="189.807485" y2="224.239415" id="Path-51-Copy-12"
                  stroke-width="2"></line>
            <path d="M98.3870711,1.19992389 L96.4482294,90.7072685 M96.4482294,90.7072685 L94.4579466,182.589411"
                  id="Shape" stroke-width="2"></path>
            <line x1="164.167071" y1="1.19992389" x2="159.742835" y2="222.904108" id="Path-50-Copy-5"
                  stroke-width="2"></line>
            <path d="M4.31815399,27.0235686 L42.8068396,30.3841704 M59.6039293,31.8450939 L211.97216,31.9594151"
                  id="Shape" stroke-width="2"></path>
            <polyline id="Path-51-Copy-3" stroke-width="2"
                      points="13.0538329 70.0353351 66.5657906 76.2344152 193.875751 76.2344152"></polyline>
            <polyline id="Path-51-Copy-6" stroke-width="2"
                      points="11.4334603 118.253323 65.084799 125.569415 192.314465 125.569415"></polyline>
            <polyline id="Path-51-Copy-9" stroke-width="2"
                      points="11.1046458 162.501923 70.1335528 174.904415 190.589913 174.904415"></polyline>
        </g>
    </g>
</svg>
