<?xml version="1.0" encoding="UTF-8"?>
<svg width="1920px" height="1080px" preserveAspectRatio="xMidYMid slice" viewBox="0 0 1920 1080" version="1.1"
     xmlns="http://www.w3.org/2000/svg">
    <!-- Generator: Sketch 60.1 (88133) - https://sketch.com -->
    <title>baden02</title>
    <desc>Created with Sketch.</desc>
    <g id="baden02" stroke="none" stroke-width="1" fill="none" fill-rule="evenodd">
        <g id="stairways" transform="translate(922.831934, 675.057317)" stroke="#FFFFFF">
            <path d="M138.732052,152.800712 C118.78738,142.748026 104.427161,133.651421 95.6513948,125.510897 C82.487746,113.30011 76.5948065,106.570843 73.6803284,92.4578117 C71.737343,83.0491242 74.5572388,72.2577101 82.140016,60.0835694"
                  id="Path-122"></path>
            <path d="M132.732052,156.800712 C112.78738,146.748026 98.4271607,137.651421 89.6513948,129.510897 C76.487746,117.30011 70.5948065,110.570843 67.6803284,96.4578117 C66.2627071,89.5931408 68.4084392,78.5689532 75.0804049,64.6512557 C76.7288055,61.2126977 79.8530804,56.8448135 84.4532296,51.5476029"
                  id="Path-122-Copy"></path>
            <line x1="90.8731298" y1="157.692414" x2="117.891196" y2="149.227717" id="Path-123"></line>
            <line x1="77.7397583" y1="144.511845" x2="101.073017" y2="138.691588" id="Path-123-Copy"></line>
            <line x1="65.5878964" y1="132.196804" x2="87.7526054" y2="127.685077" id="Path-123-Copy-2"></line>
            <line x1="53.5287301" y1="118.189554" x2="75.0804049" y2="114.179164" id="Path-123-Copy-3"></line>
            <line x1="14.9140016" y1="90.387731" x2="67.158036" y2="87.9673544" id="Path-123-Copy-6"></line>
            <line x1="17.9140016" y1="70.9375916" x2="69.9199061" y2="76.3316017" id="Path-123-Copy-8"></line>
            <line x1="25.8944021" y1="53.7319556" x2="75.3117142" y2="64.3538948" id="Path-123-Copy-9"></line>
            <line x1="38.6148185" y1="38.0178993" x2="83.3797876" y2="52.8009864" id="Path-123-Copy-10"></line>
            <line x1="51.7922824" y1="25.8472285" x2="81.5426417" y2="36.3683565" id="Path-123-Copy-11"></line>
            <line x1="68.3813852" y1="17.2140826" x2="87.3813852" y2="25.3273169" id="Path-123-Copy-12"></line>
            <line x1="18.7830311" y1="107.917789" x2="68.964303" y2="101.418024" id="Path-123-Copy-7"></line>
            <polyline id="Path-124"
                      points="17.9140016 28.268591 19.5720957 25.1819952 16.5283009 24.3158233 14.9140016 27.3683565 14.9140016 62.5485853"></polyline>
            <line x1="17.9140016" y1="28.268591" x2="17.9140016" y2="56.0037986" id="Path-124-Copy"></line>
            <line x1="19.9140016" y1="24.9044752" x2="19.9140016" y2="52.8009864" id="Path-124-Copy-2"></line>
            <line x1="2.60511826" y1="93.9768577" x2="4.05530197" y2="125.447847" id="Path-125"></line>
            <line x1="6.13700068" y1="94.2009149" x2="7.09350188" y2="125.447847" id="Path-125-Copy"></line>
            <line x1="7.39435579" y1="90.387731" x2="9.01710206" y2="125.447847" id="Path-125-Copy-2"></line>
            <path d="M14.6226193,103.216448 C13.4544154,91.9644551 14.5515428,81.2048363 17.9140016,70.9375916 C22.9576897,55.5367246 27.0173271,49.7798369 39.6159517,36.3683565 C50.8494846,24.620661 66.4157554,16.1388799 86.3147643,10.9230133"
                  id="Path-126"></path>
            <path d="M8.32980376,95.0126181 C8.23609006,86.5449702 9.43082266,78.5199614 11.9140016,70.9375916 C16.9576897,55.5367246 21.0173271,49.7798369 33.6159517,36.3683565 C47.9003846,22.1103437 65.4666555,12.5184171 86.3147643,7.59257678"
                  id="Path-126-Copy"></path>
            <line x1="14.9140016" y1="27.3683565" x2="18.3550489" y2="28.268591" id="Path-131"></line>
            <polyline id="Path-132"
                      points="39.8576869 30.7396679 39.8576869 1.3248835 43.2727961 -1.75859327e-13 46.1900563 2.85782274 42.7749471 4.31423779 42.7749471 27.9609716"></polyline>
            <line x1="46.1900563" y1="3.22037272" x2="46.1900563" y2="25.3273169" id="Path-133"></line>
            <line x1="42.7749471" y1="4.31423779" x2="40.2901971" y2="1.55330612" id="Path-134"></line>
            <polyline id="Path-121"
                      points="5.63993297e-14 58.3024705 1.43648768 54.9644575 5.31158464 56.0037986 3.90476398 59.0429252 5.70254326 90.387731"></polyline>
            <line x1="5.48800281" y1="55.7427426" x2="7.39435579" y2="87.2240143" id="Path-135"></line>
            <line x1="-4.02514837e-13" y1="58.0630066" x2="2.31158464" y2="90.387731" id="Path-136"></line>
            <line x1="-3.41282558e-13" y1="58.3024705" x2="3.90476398" y2="59.0429252" id="Path-137"></line>
            <polygon id="Path-138"
                     transform="translate(4.852970, 92.415870) rotate(-13.000000) translate(-4.852970, -92.415870) "
                     points="2.31158464 93.4311931 3.90476398 90.387731 7.39435579 91.4246653 5.70254326 94.4440083"></polygon>
            <line x1="8.20572892" y1="94.9637146" x2="25.0423042" y2="116.184359" id="Path-139"></line>
            <line x1="23.8665274" y1="120.329489" x2="7.78545217" y2="98.860777" id="Path-140"></line>
            <line x1="3.05840772" y1="55.2082552" x2="14.9140016" y2="36.6492506" id="Path-141"></line>
            <line x1="5.70254326" y1="56.0037986" x2="14.9140016" y2="41.4428125" id="Path-142"></line>
            <line x1="19.9140016" y1="25.8472285" x2="39.8576869" y2="7.59257678" id="Path-143"></line>
            <line x1="19.9140016" y1="29.396516" x2="39.8576869" y2="10.9230133" id="Path-144"></line>
            <path d="M8.98620464,100.377774 C10.0104001,108.060466 11.0142885,113.648936 11.9978698,117.143185 C12.9814512,120.637434 15.2431716,125.655307 18.7830311,132.196804"
                  id="Path-145"></path>
            <path d="M15.1509928,108.709881 C16.1168817,112.162589 17.0378846,114.788673 17.9140016,116.588132 C18.7901185,118.387592 20.2951793,120.960169 22.4291839,124.305863"
                  id="Path-146"></path>
            <line x1="59.7029691" y1="21.2706998" x2="84.9271701" y2="31.1077925" id="Path-147"></line>
            <line x1="45.0011742" y1="31.1077925" x2="83.3797876" y2="45.4094428" id="Path-148"></line>
            <line x1="31.6403084" y1="45.9287529" x2="77.8813852" y2="58.6726978" id="Path-149"></line>
            <line x1="21.3033823" y1="61.8827339" x2="72.3150696" y2="70.9375916" id="Path-150"></line>
            <line x1="15.8259898" y1="80.9264859" x2="68.0901395" y2="82.7564994" id="Path-151"></line>
            <line x1="14.1707979" y1="100.377774" x2="67.158036" y2="95.0126181" id="Path-152"></line>
            <line x1="48.733897" y1="112.119004" x2="70.8399557" y2="107.917789" id="Path-153"></line>
            <line x1="59.7869264" y1="125.447847" x2="79.650272" y2="120.329489" id="Path-154"></line>
            <line x1="92.8647366" y1="132.843339" x2="71.6285023" y2="138.691588" id="Path-155"></line>
            <line x1="85.0519671" y1="151.452936" x2="107.831471" y2="143.491746" id="Path-156"></line>
        </g>
    </g>
</svg>
