<?xml version="1.0" encoding="UTF-8"?>
<svg width="1920px" height="1080px" viewBox="0 0 1920 1080" version="1.1" xmlns="http://www.w3.org/2000/svg" xmlns:xlink="http://www.w3.org/1999/xlink">
    <!-- Generator: Sketch 62 (91390) - https://sketch.com -->
    <desc>Created with Sketch.</desc>
    <g id="baden03" stroke="none" stroke-width="1" fill="none" fill-rule="evenodd">
        <g id="bridge" transform="translate(887.000000, 370.656010)" stroke="#FFFFFF">
            <path d="M19.4101786,43.3336062 L35.9467862,10.7263481 L35.5445456,8.92327801" id="Path-175" stroke-width="0.5" stroke-dasharray="1"></path>
            <path d="M38.7530211,42.3935202 L52.5488691,8.92327801 L52.0884438,7.37948935" id="Path-179" stroke-width="0.5" stroke-dasharray="1"></path>
            <path d="M59.3234608,40.5824384 L69.9466115,8.2639996 L69.4056654,6.95141469" id="Path-180" stroke-width="0.5" stroke-dasharray="1"></path>
            <path d="M80.3481082,39.003635 L88.9434986,6.69326769 L88.4739725,5.41027148" id="Path-181" stroke-width="0.5" stroke-dasharray="1"></path>
            <path d="M98.5735747,37.9488238 L103.337376,6.24527935 L102.601915,4.37700299" id="Path-182" stroke-width="0.5" stroke-dasharray="1"></path>
            <path d="M116.860667,36.5854096 L118.531662,4.8655891 L117.687497,3.43433795" id="Path-183" stroke-width="0.5" stroke-dasharray="1"></path>
            <path d="M134.949637,35.7737117 L134.949637,4.4530068 L134.409268,2.57811973" id="Path-184" stroke-width="0.5" stroke-dasharray="1"></path>
            <path d="M149.184781,2.57811973 L150.049203,4.4530068 L153.652505,35.113894" id="Path-185" stroke-width="0.5" stroke-dasharray="1"></path>
            <path d="M164.048613,1.67442664 L165.380165,3 L172.61554,33.4335887" id="Path-186" stroke-width="0.5" stroke-dasharray="1"></path>
            <path d="M180.218046,1 L182.017364,3 L191.359481,32.226622" id="Path-187" stroke-width="0.5" stroke-dasharray="1"></path>
            <path d="M196.791786,0.689828608 L199.303547,2.603386 L215.961914,32.7765562" id="Path-188" stroke-width="0.5" stroke-dasharray="1"></path>
            <path d="M215.961914,0.267440016 L218.493979,2 L239.731357,32.7765562" id="Path-176" stroke-width="0.5" stroke-dasharray="1"></path>
            <path d="M235.512757,0.267440016 L238.000767,2 L263.737677,32.7765562" id="Path-177" stroke-width="0.5" stroke-dasharray="1"></path>
            <path d="M6.0081111,57.471537 L111.956391,49.594701 M138.457042,46.9089306 L141.879785,46.7651818 M168.835976,47.6330724 L269.049288,45.4940233" id="Shape"></path>
            <path d="M25.4260969,64.2698972 L111.956391,56.7673421 M138.301209,55.5624082 L141.879785,55.5624082 M168.651858,54.3971139 L264.542036,53.662774" id="Shape" stroke-width="0.5" stroke-dasharray="1"></path>
            <path d="M38.7530211,76.864977 L61.8560597,74.6415587 M223.598349,69.4276501 L260.001808,68.8315247" id="Shape" stroke-width="0.5" stroke-dasharray="1"></path>
            <path d="M6.0081111,49.594701 C67.6947077,45.3627771 105.670688,42.7759913 119.936052,41.8343435 M128.916115,41.2476921 C134.749892,40.8718615 145.244472,40.4349616 151.32513,40.3294423 M160.277088,40.177989 C198.003883,39.5428574 234.261284,38.7998023 269.049288,37.9488238" id="Shape" stroke-width="0.5" stroke-dasharray="1"></path>
            <line x1="242.754453" y1="80.424144" x2="257.177364" y2="79.9424636" id="Path-191"></line>
            <line x1="250.869222" y1="90.398196" x2="257.177364" y2="90.398196" id="Path-192" stroke-width="0.5" stroke-dasharray="1"></line>
            <line x1="0" y1="32.4313706" x2="22.8607111" y2="10.7263481" id="Path-178"></line>
            <line x1="2.67189729" y1="42.7492411" x2="23.8071383" y2="10.2208128" id="Path-189" stroke-width="0.5" stroke-dasharray="1"></line>
            <path d="M4.50686502,21.5788594 L6.0081111,37.9488238 C54.9264747,34.4830285 98.6103826,31.9120815 137.059835,30.235983 C175.509287,28.5598845 220.095622,27.3095658 270.818839,26.4850269" id="Path-193" stroke-width="0.5" stroke-dasharray="1"></path>
            <path d="M10.2049372,17.2753291 L10.6031731,22.2212156 L11.1667109,27.5853016 C70.3669333,23.7637282 112.331308,21.3139554 137.059835,20.235983 C173.915301,18.6293699 216.409369,17.4139656 264.542036,16.5897701" id="Path-193-Copy"></path>
            <path d="M16.6744992,13.4451166 L17.0733217,18.2048871 C81.132338,14.2534626 121.127842,11.9304946 137.059835,11.235983 C171.636234,9.7287196 211.175436,8.56577784 255.677441,7.74715771" id="Path-193-Copy-2" stroke-width="0.5" stroke-dasharray="1"></path>
            <line x1="259.001808" y1="35.113894" x2="259.001808" y2="66.4820056" id="Path-194" stroke-width="0.5" stroke-dasharray="1"></line>
            <line x1="241.754453" y1="35.113894" x2="241.754453" y2="79.9424636" id="Path-195" stroke-width="0.5" stroke-dasharray="1"></line>
            <line x1="225.478763" y1="36.4269629" x2="225.478763" y2="70.401488" id="Path-196" stroke-width="0.5" stroke-dasharray="1"></line>
            <line x1="208.283774" y1="36.5854096" x2="208.283774" y2="65.2698972" id="Path-197" stroke-width="0.5" stroke-dasharray="1"></line>
            <line x1="190.730122" y1="36.5854096" x2="190.730122" y2="63.8139951" id="Path-198" stroke-width="0.5" stroke-dasharray="1"></line>
            <line x1="173.61554" y1="37.9488238" x2="173.61554" y2="63.8139951" id="Path-199" stroke-width="0.5" stroke-dasharray="1"></line>
            <line x1="139.61554" y1="39.9488238" x2="140.168413" y2="66.8073111" id="Path-199-Copy"></line>
            <line x1="105.612249" y1="39.9488238" x2="106.128329" y2="69.108873" id="Path-200" stroke-width="0.5" stroke-dasharray="1"></line>
            <line x1="87.2286148" y1="41.5824384" x2="87.9466115" y2="71.3871778" id="Path-201" stroke-width="0.5" stroke-dasharray="1"></line>
            <line x1="69.1556495" y1="42.0501836" x2="69.9466115" y2="73.3871778" id="Path-201-Copy" stroke-width="0.5" stroke-dasharray="1"></line>
            <line x1="51.2346999" y1="43.3336062" x2="52.2884646" y2="76.864977" id="Path-201-Copy-2" stroke-width="0.5" stroke-dasharray="1"></line>
            <path d="M33.1770351,45.4940233 L33.9209922,67.8315247 L33.1770351,45.4940233 Z" id="Path-201-Copy-3" stroke-width="0.5" stroke-dasharray="1"></path>
            <path d="M17.1770351,46.4940233 L17.6447524,60.5373542 L17.1770351,46.4940233 Z" id="Path-201-Copy-4" stroke-width="0.5" stroke-dasharray="1"></path>
            <line x1="250.869222" y1="35.7737117" x2="250.869222" y2="90.398196" id="Path-190"></line>
            <line x1="233.526544" y1="35.7737117" x2="233.526544" y2="73.0205161" id="Path-202"></line>
            <line x1="216.948916" y1="36.4269629" x2="216.948916" y2="67.6295874" id="Path-203"></line>
            <line x1="199.652979" y1="36.5854096" x2="199.652979" y2="63.8139951" id="Path-204"></line>
            <line x1="182.414679" y1="37.1819442" x2="182.414679" y2="63.0859539" id="Path-205"></line>
            <line x1="95.7189592" y1="40.5824384" x2="96.4481925" y2="69.7030329" id="Path-206"></line>
            <line x1="77.4664973" y1="41.5824384" x2="78.045411" y2="71.6934672" id="Path-207"></line>
            <line x1="59.8563766" y1="43.3336062" x2="60.9485765" y2="75.7573471" id="Path-208"></line>
            <line x1="41.5958487" y1="44.5094732" x2="42.4090409" y2="78.4113021" id="Path-209"></line>
            <line x1="24.9441068" y1="46.4940233" x2="25.4260969" y2="61.4603876" id="Path-210"></line>
            <path d="M37.4636067,69.7030329 L113.886619,62.7794371 M135.697193,60.8832998 L145.1493,60.5186196 M166.400829,60.5186196 L263.737677,60.5186196" id="Shape"></path>
            <line x1="28.7522843" y1="10.7263481" x2="10.2049372" y2="43.7717624" id="Path-211"></line>
            <polyline id="Path-212" points="43.3187781 8.2639996 43.9286059 10.2208128 29.938025 42.7492411"></polyline>
            <polyline id="Path-213" points="60.339836 7.37948935 60.9485765 8.92327801 49.7866481 41.1624347"></polyline>
            <polyline id="Path-214" points="78.0934142 5.97223998 79.1628272 8.2639996 70.4295621 39.9488238"></polyline>
            <polyline id="Path-215" points="94.9945885 4.8655891 95.7189592 6.69326769 89.8925822 37.9488238"></polyline>
            <polyline id="Path-216" points="109.970699 3.71216489 110.795155 5.41027148 108.177506 36.5854096"></polyline>
            <polyline id="Path-217" points="125.537148 3.12058816 126.204254 4.95083348 126.204254 35.7737117"></polyline>
            <polyline id="Path-218" points="141.279211 2.57811973 141.879785 4.4530068 143.711667 34.6315624"></polyline>
            <polyline id="Path-219" points="156.073696 2 157.086088 3.75135882 162.129475 33.4335887"></polyline>
            <polyline id="Path-220" points="172.61554 1.37370445 174.089769 3 182.414679 33.4335887"></polyline>
            <polyline id="Path-221" points="188.469479 1 189.798196 2.29593371 202.585248 32.226622"></polyline>
            <polyline id="Path-222" points="206.654604 -4.97379915e-14 208.584339 2 226.483056 32.226622"></polyline>
            <polyline id="Path-223" points="225.073439 0.267440016 226.932592 2.15268923 249.45284 32.7765562"></polyline>
        </g>
    </g>
</svg>
