<?xml version="1.0" encoding="UTF-8"?>
<svg width="1920px" height="1080px" preserveAspectRatio="xMidYMid slice" viewBox="0 0 1920 1080" version="1.1" xmlns="http://www.w3.org/2000/svg" xmlns:xlink="http://www.w3.org/1999/xlink">
    <!-- Generator: Sketch 61 (89581) - https://sketch.com -->
    <title>baden-short@1x</title>
    <desc>Created with Sketch.</desc>
    <g id="baden-short" stroke="none" stroke-width="1" fill="none" fill-rule="evenodd">
        <g id="rent" transform="translate(767.000000, 630.000000)" stroke="#FFFFFF">
            <line x1="16" y1="84" x2="67" y2="2.33146835e-15" id="Path-44-Copy-2" stroke-dasharray="1"></line>
            <line x1="2" y1="84" x2="53" y2="2.33146835e-15" id="Path-44-Copy-17" stroke-dasharray="1"></line>
            <line x1="29" y1="85" x2="80" y2="1" id="Path-44-Copy-10" stroke-width="2"></line>
            <line x1="54" y1="89" x2="109" y2="1" id="Path-44-Copy-11" stroke-dasharray="1"></line>
            <line x1="80" y1="93" x2="133" y2="4" id="Path-44-Copy-12" stroke-dasharray="1"></line>
            <line x1="103" y1="106" x2="163" y2="7" id="Path-44-Copy-13" stroke-width="2"></line>
            <line x1="130" y1="100" x2="186" y2="10" id="Path-44-Copy-14" stroke-dasharray="1"></line>
            <line x1="158" y1="105" x2="214" y2="12" id="Path-44-Copy-15" stroke-dasharray="1"></line>
            <path d="M184.5348,109.775381 L240,14" id="Shape" stroke-width="2"></path>
            <line x1="211" y1="91" x2="257" y2="15" id="Path-44-Copy-18" fill="#D8D8D8" stroke-dasharray="1"></line>
            <line x1="42" y1="88" x2="93" y2="3" id="Path-44-Copy-3" stroke-dasharray="1"></line>
            <line x1="68" y1="91" x2="121" y2="2" id="Path-44-Copy-5" stroke-width="2"></line>
            <line x1="93" y1="96" x2="147" y2="6" id="Path-44-Copy-6" stroke-dasharray="1"></line>
            <line x1="113" y1="108" x2="174" y2="8" id="Path-44-Copy-7" stroke-dasharray="1"></line>
            <line x1="145" y1="104" x2="201" y2="11" id="Path-44-Copy-8" stroke-width="2"></line>
            <line x1="170" y1="108" x2="227" y2="13" id="Path-44-Copy-9" stroke-dasharray="1"></line>
            <line x1="42" y1="9" x2="252" y2="34" id="Path-44" stroke-width="2"></line>
            <line x1="34" y1="21" x2="243" y2="48" id="Path-44-Copy-16" stroke-dasharray="1"></line>
            <line x1="24" y1="35" x2="233" y2="62" id="Path-44-Copy-21" stroke-dasharray="1"></line>
            <line x1="15" y1="47" x2="223" y2="75" id="Path-44-Copy-19" stroke-width="2"></line>
            <line x1="0" y1="73" x2="201" y2="103" id="Path-44-Copy-20" stroke-dasharray="1"></line>
            <line x1="8" y1="60" x2="209" y2="90" id="Path-44-Copy-22" stroke-dasharray="1"></line>
        </g>
    </g>
</svg>
