<?xml version="1.0" encoding="UTF-8"?>
<svg width="1920px" height="1080px" preserveAspectRatio="xMidYMid slice" viewBox="0 0 1920 1080" version="1.1" xmlns="http://www.w3.org/2000/svg" xmlns:xlink="http://www.w3.org/1999/xlink">
    <!-- Generator: Sketch 60.1 (88133) - https://sketch.com -->
    <title>baden03</title>
    <desc>Created with Sketch.</desc>
    <g id="baden03" stroke="none" stroke-width="1" fill="none" fill-rule="evenodd">
        <g id="bridge" transform="translate(887.000000, 370.656010)" stroke="#FFFFFF">
            <line x1="19.4101786" y1="41.3336062" x2="35.9467862" y2="8.7263481" id="Path-175" stroke-width="0.5" stroke-dasharray="1"></line>
            <line x1="38.7530211" y1="40.3935202" x2="52.5488691" y2="6.92327801" id="Path-179" stroke-width="0.5" stroke-dasharray="1"></line>
            <line x1="59.3234608" y1="38.5824384" x2="69.9466115" y2="6.2639996" id="Path-180" stroke-width="0.5" stroke-dasharray="1"></line>
            <line x1="80.3481082" y1="37.003635" x2="88.9434986" y2="4.69326769" id="Path-181" stroke-width="0.5" stroke-dasharray="1"></line>
            <line x1="98.5735747" y1="35.9488238" x2="103.337376" y2="4.24527935" id="Path-182" stroke-width="0.5" stroke-dasharray="1"></line>
            <line x1="116.860667" y1="34.5854096" x2="118.514327" y2="2.4530068" id="Path-183" stroke-width="0.5" stroke-dasharray="1"></line>
            <line x1="134.949637" y1="33.7737117" x2="134.949637" y2="2.4530068" id="Path-184" stroke-width="0.5" stroke-dasharray="1"></line>
            <line x1="150.049203" y1="2.4530068" x2="153.652505" y2="33.113894" id="Path-185" stroke-width="0.5" stroke-dasharray="1"></line>
            <line x1="165.509873" y1="1.75135882" x2="172.61554" y2="31.4335887" id="Path-186" stroke-width="0.5" stroke-dasharray="1"></line>
            <line x1="182.414679" y1="1.75135882" x2="191.359481" y2="30.226622" id="Path-187" stroke-width="0.5" stroke-dasharray="1"></line>
            <line x1="199.652979" y1="1" x2="215.961914" y2="30.7765562" id="Path-188" stroke-width="0.5" stroke-dasharray="1"></line>
            <line x1="218.493979" y1="1.97175609e-13" x2="239.731357" y2="30.7765562" id="Path-176" stroke-width="0.5" stroke-dasharray="1"></line>
            <line x1="238.000767" y1="-2.27373675e-13" x2="263.737677" y2="30.7765562" id="Path-177" stroke-width="0.5" stroke-dasharray="1"></line>
            <path d="M6.0081111,55.471537 L111.956391,47.594701 M138.457042,44.9089306 L141.879785,44.7651818 M168.835976,45.6330724 L269.049288,43.4940233" id="Shape"></path>
            <path d="M25.4260969,62.2698972 L111.956391,54.7673421 M138.301209,53.5624082 L141.879785,53.5624082 M168.651858,52.3971139 L264.542036,51.662774" id="Shape" stroke-width="0.5" stroke-dasharray="1"></path>
            <path d="M38.7530211,74.864977 L61.8560597,72.6415587 M223.598349,67.4276501 L260.001808,66.8315247" id="Shape" stroke-width="0.5" stroke-dasharray="1"></path>
            <path d="M6.0081111,47.594701 C67.6947077,43.3627771 105.670688,40.7759913 119.936052,39.8343435 M128.916115,39.2476921 C134.749892,38.8718615 145.244472,38.4349616 151.32513,38.3294423 M160.277088,38.177989 C198.003883,37.5428574 234.261284,36.7998023 269.049288,35.9488238" id="Shape" stroke-width="0.5" stroke-dasharray="1"></path>
            <line x1="242.754453" y1="78.424144" x2="257.177364" y2="77.9424636" id="Path-191" stroke-width="0.5" stroke-dasharray="1"></line>
            <line x1="250.869222" y1="88.398196" x2="257.177364" y2="88.398196" id="Path-192"></line>
            <line x1="-4.61852778e-14" y1="30.4313706" x2="22.8607111" y2="8.7263481" id="Path-178"></line>
            <line x1="2.67189729" y1="40.7492411" x2="23.8071383" y2="8.22081278" id="Path-189" stroke-width="0.5" stroke-dasharray="1"></line>
            <path d="M4.50686502,19.5788594 L6.0081111,35.9488238 C54.9264747,32.4830285 98.6103826,29.9120815 137.059835,28.235983 C175.509287,26.5598845 220.095622,25.3095658 270.818839,24.4850269" id="Path-193" stroke-width="0.5" stroke-dasharray="1"></path>
            <path d="M10.2049372,15.2753291 L10.6031731,20.2212156 L11.1667109,25.5853016 C70.3669333,21.7637282 112.331308,19.3139554 137.059835,18.235983 C173.915301,16.6293699 216.409369,15.4139656 264.542036,14.5897701" id="Path-193-Copy"></path>
            <path d="M16.6744992,11.4451166 L17.0733217,16.2048871 C81.132338,12.2534626 121.127842,9.93049455 137.059835,9.23598299 C171.636234,7.7287196 211.175436,6.56577784 255.677441,5.74715771" id="Path-193-Copy-2" stroke-width="0.5" stroke-dasharray="1"></path>
            <line x1="259.001808" y1="33.113894" x2="259.001808" y2="64.4820056" id="Path-194" stroke-width="0.5" stroke-dasharray="1"></line>
            <line x1="241.754453" y1="33.113894" x2="241.754453" y2="77.9424636" id="Path-195"></line>
            <line x1="225.478763" y1="34.4269629" x2="225.478763" y2="68.401488" id="Path-196" stroke-width="0.5" stroke-dasharray="1"></line>
            <line x1="208.283774" y1="34.5854096" x2="208.283774" y2="63.2698972" id="Path-197"></line>
            <line x1="190.730122" y1="34.5854096" x2="190.730122" y2="61.8139951" id="Path-198" stroke-width="0.5" stroke-dasharray="1"></line>
            <line x1="173.61554" y1="35.9488238" x2="173.61554" y2="61.8139951" id="Path-199"></line>
            <line x1="139.61554" y1="37.9488238" x2="140.168413" y2="64.8073111" id="Path-199-Copy"></line>
            <line x1="105.612249" y1="37.9488238" x2="106.128329" y2="67.108873" id="Path-200" stroke-width="0.5" stroke-dasharray="1"></line>
            <line x1="87.2286148" y1="39.5824384" x2="87.9466115" y2="69.3871778" id="Path-201"></line>
            <line x1="69.1556495" y1="40.0501836" x2="69.9466115" y2="71.3871778" id="Path-201-Copy" stroke-width="0.5" stroke-dasharray="1"></line>
            <line x1="51.2346999" y1="41.3336062" x2="52.2884646" y2="74.864977" id="Path-201-Copy-2"></line>
            <path d="M33.1770351,43.4940233 L33.9209922,65.8315247 L33.1770351,43.4940233 Z" id="Path-201-Copy-3" stroke-width="0.5" stroke-dasharray="1"></path>
            <path d="M17.1770351,44.4940233 L17.6447524,58.5373542 L17.1770351,44.4940233 Z" id="Path-201-Copy-4" stroke-width="0.5" stroke-dasharray="1"></path>
            <line x1="250.869222" y1="33.7737117" x2="250.869222" y2="88.398196" id="Path-190"></line>
            <line x1="233.526544" y1="33.7737117" x2="233.526544" y2="71.0205161" id="Path-202"></line>
            <line x1="216.948916" y1="34.4269629" x2="216.948916" y2="65.6295874" id="Path-203"></line>
            <line x1="199.652979" y1="34.5854096" x2="199.652979" y2="61.8139951" id="Path-204"></line>
            <line x1="182.414679" y1="35.1819442" x2="182.414679" y2="61.0859539" id="Path-205"></line>
            <line x1="95.7189592" y1="38.5824384" x2="96.4481925" y2="67.7030329" id="Path-206"></line>
            <line x1="77.4664973" y1="39.5824384" x2="78.045411" y2="69.6934672" id="Path-207"></line>
            <line x1="59.8563766" y1="41.3336062" x2="60.9485765" y2="73.7573471" id="Path-208"></line>
            <line x1="41.5958487" y1="42.5094732" x2="42.4090409" y2="76.4113021" id="Path-209"></line>
            <line x1="24.9441068" y1="44.4940233" x2="25.4260969" y2="59.4603876" id="Path-210"></line>
            <path d="M37.4636067,67.7030329 L113.886619,60.7794371 M135.697193,58.8832998 L145.1493,58.5186196 M166.400829,58.5186196 L263.737677,58.5186196" id="Shape"></path>
            <line x1="28.7522843" y1="8.7263481" x2="10.2049372" y2="41.7717624" id="Path-211"></line>
            <line x1="43.9286059" y1="8.22081278" x2="29.938025" y2="40.7492411" id="Path-212"></line>
            <line x1="60.9485765" y1="6.92327801" x2="49.7866481" y2="39.1624347" id="Path-213"></line>
            <line x1="79.1628272" y1="6.2639996" x2="70.4295621" y2="37.9488238" id="Path-214"></line>
            <line x1="95.7189592" y1="4.69326769" x2="89.8925822" y2="35.9488238" id="Path-215"></line>
            <line x1="110.828418" y1="3.7584162" x2="108.177506" y2="34.5854096" id="Path-216"></line>
            <line x1="126.204254" y1="2.95083348" x2="126.204254" y2="33.7737117" id="Path-217"></line>
            <line x1="141.879785" y1="2.4530068" x2="143.711667" y2="32.6315624" id="Path-218"></line>
            <line x1="157.086088" y1="1.75135882" x2="162.129475" y2="31.4335887" id="Path-219"></line>
            <line x1="174.466863" y1="2.4530068" x2="182.414679" y2="31.4335887" id="Path-220"></line>
            <line x1="189.790629" y1="1" x2="202.585248" y2="30.226622" id="Path-221"></line>
            <line x1="209.203174" y1="1" x2="226.483056" y2="30.226622" id="Path-222"></line>
            <line x1="227.242125" y1="0.603385996" x2="249.45284" y2="30.7765562" id="Path-223"></line>
        </g>
    </g>
</svg>
