<?xml version="1.0" encoding="UTF-8"?>
<svg width="1920px" height="1080px" viewBox="0 0 1920 1080" version="1.1" xmlns="http://www.w3.org/2000/svg" xmlns:xlink="http://www.w3.org/1999/xlink">
    <!-- Generator: Sketch 62 (91390) - https://sketch.com -->
    <title>baden03</title>
    <desc>Created with Sketch.</desc>
    <g id="baden03" stroke="none" stroke-width="1" fill="none" fill-rule="evenodd">
        <g id="bar" transform="translate(1300.000000, 659.000000)" stroke="#FFFFFF">
            <line x1="107.028438" y1="86.9271608" x2="90.0417086" y2="44.8162968" id="Path-224"></line>
            <line x1="100.535074" y1="86.9271608" x2="84.2389683" y2="44.8162968" id="Path-225" stroke-width="0.5" stroke-dasharray="1"></line>
            <line x1="92.0417086" y1="85.3146891" x2="78.0182757" y2="48.9225218" id="Path-226"></line>
            <line x1="84.2389683" y1="85.3146891" x2="72.6139602" y2="51.8756775" id="Path-227" stroke-width="0.5" stroke-dasharray="1"></line>
            <line x1="78.2389683" y1="85.3146891" x2="66.6139602" y2="51.8756775" id="Path-227-Copy"></line>
            <line x1="-4.81836793e-14" y1="42.868072" x2="3.48408868" y2="27.5239029" id="Path-228"></line>
            <line x1="2" y1="48.868072" x2="5.48408868" y2="33.5239029" id="Path-228-Copy-4" stroke-width="0.5" stroke-dasharray="1"></line>
            <line x1="4" y1="54.868072" x2="7.86278299" y2="38.5808524" id="Path-228-Copy"></line>
            <line x1="7" y1="68.868072" x2="10.862783" y2="52.5808524" id="Path-228-Copy-2"></line>
            <line x1="6" y1="60.868072" x2="9.86278299" y2="44.5808524" id="Path-228-Copy-6" stroke-width="0.5" stroke-dasharray="1"></line>
            <line x1="9" y1="76.868072" x2="12.862783" y2="60.5808524" id="Path-228-Copy-5" stroke-width="0.5" stroke-dasharray="1"></line>
            <line x1="12.6372257" y1="79.1812436" x2="15.862783" y2="65.5808524" id="Path-228-Copy-3"></line>
            <line x1="1.74204434" y1="25.6699713" x2="15.862783" y2="79.1812436" id="Path-229" stroke-width="0.5" stroke-dasharray="1"></line>
            <line x1="0" y1="35.1959874" x2="12.6372257" y2="79.1812436" id="Path-230"></line>
            <path d="M25.7962736,19.6493479 L23.1485294,27.5239029 L28.898714,49.8183933 L30.7492358,50.1452838 L39.7962736,82.0595606" id="Path-231" stroke-width="0.5" stroke-dasharray="1"></path>
            <path d="M19.7962736,19.6493479 L17.1485294,27.5239029 L22.898714,49.8183933 L24.7492358,50.1452838 L33.7962736,82.0595606" id="Path-231-Copy" stroke-width="0.5" stroke-dasharray="1"></path>
            <path d="M12.7962736,19.6493479 L10.1485294,27.5239029 L15.898714,49.8183933 L17.7492358,50.1452838 L26.7962736,82.0595606" id="Path-231-Copy-2" stroke-width="0.5" stroke-dasharray="1"></path>
            <path d="M30.7962736,19.6493479 L28.1485294,27.5239029 L33.7962736,48.9225218 L35.7962736,50.2411757 L37.6065501,56.0011832 M39.2219821,61.1886155 L45.7962736,82.0595606" id="Shape"></path>
            <path d="M35.7962736,19.6493479 L33.1485294,27.5239029 L39.1498009,48.9225218 L40.7962736,50.0657144 L41.5920626,52.4491482 M46.2623587,66.4369542 L47.7914735,71.0167411" id="Shape" stroke-width="0.5" stroke-dasharray="1"></path>
            <polyline id="Path-231-Copy-3" points="45.7962736 19.6493479 43.7962736 26.5239029 48.7962736 48.9225218 50.7962736 50.8544543 51.1533169 51.8341065"></polyline>
            <polyline id="Path-231-Copy-5" points="50.7962736 19.6493479 48.1485294 27.5239029 53.7962736 48.9225218 55.3851109 50.8544543 55.6890707 51.8341065"></polyline>
            <path d="M55.7962736,19.6493479 L53.1485294,27.5239029 L59.5430619,48.9225218 L60.881273,50.0017736 L62.6781517,55.2643904 M65.4378373,63.1324609 L68.1204762,70.9907108 M71.4969331,80.7802195 L72.6139602,84.0188651" id="Shape" stroke-width="0.5" stroke-dasharray="1"></path>
            <polyline id="Path-231-Copy-4" points="40.7962736 19.6493479 38.1485294 27.5239029 43.7962736 48.9225218 45.7962736 50.2460436 46.373662 51.8756775"></polyline>
            <line x1="23.7962736" y1="23.0866254" x2="59.9759708" y2="23.0866254" id="Path-232" stroke-width="0.5" stroke-dasharray="1"></line>
            <path d="M14.2500043,57.1886155 L37.1596706,57.0555687 M67.8154563,56.8056692 L73.5906318,56.7643817 L73.5906318,54.868072 L79.5355365,54.868072 L79.5355365,53.0555687 L85.7840218,53.0555687 L85.7840218,48.9225218 L93.6268055,48.9225218" id="Shape"></path>
            <path d="M16.2500043,61.1886155 L39.2219821,61.1111061 M66.7503632,60.827582 L75.5906318,60.7643817 L75.5906318,58.868072 L81.5355365,58.868072 L81.5355365,57.0555687 L87.7840218,57.0555687 L87.7840218,52.9225218 L95.6268055,52.9225218" id="Shape" stroke-width="0.5" stroke-dasharray="1"></path>
            <path d="M17.2500043,66.1886155 L46.2623587,66.0861932 M63.8470967,65.8554869 L76.5906318,65.7643817 L76.5906318,63.868072 L82.984838,63.868072 L82.984838,62.0555687 L89.3846267,62.0555687 L89.3846267,57.9225218 L97.6268055,57.9225218" id="Shape"></path>
            <path d="M18.2500043,71.1886155 L49.3913741,70.9907108 M65.691559,70.8646068 L78.4264643,70.777632 L78.4264643,68.8813223 L85.0299921,68.868072 L85.0299921,67.0555687 L91.1852918,67.0555687 L91.1852918,62.9225218 L99.6268055,62.9225218" id="Shape" stroke-width="0.5" stroke-dasharray="1"></path>
            <path d="M21.2500043,76.1886155 L46.5051737,76.0080631 M71.8695042,75.8267302 L80.5906318,75.7643817 L80.5906318,73.868072 L86.9013311,73.868072 L86.9013311,72.0555687 L93.2744346,72.0555687 L93.2744346,67.9225218 L101.354648,67.9225218" id="Shape"></path>
            <path d="M25.2500043,81.1886155 L49.9566698,81.1886155 M70.5080532,81.1886155 L82.0541525,81.1886155 L82.0541525,79.2923058 L88.9638113,79.2923058 L88.9638113,77.3465869 L95.080449,77.3465869 L95.080449,72.9225218 L103.528574,72.9225218" id="Shape" stroke-width="0.5" stroke-dasharray="1"></path>
            <polyline id="Path-233-Copy-7" points="81.4515372 83.868072 90.7982014 83.868072 90.7982014 82.0555687 97.0893138 82.0555687 97.0893138 77.9225218 105.611863 77.9225218"></polyline>
            <path d="M99.0893138,85.3146891 L99.0893138,82.9225218 L107.611863,82.9225218" id="Path-233-Copy-8" stroke-width="0.5" stroke-dasharray="1"></path>
            <path d="M13.2500043,53.1886155 L40.1858098,52.996048 M57.6612766,52.9225218 L72.5906318,52.7643817 L72.5906318,50.868072 L78.5355365,50.868072 L78.5355365,49.0555687 L84.7840218,49.0555687 L84.7840218,44.9225218 L92.6268055,44.9225218" id="Shape" stroke-width="0.5" stroke-dasharray="1"></path>
            <line x1="11.5648088" y1="44.9225218" x2="62.1740239" y2="44.8162968" id="Path-233" stroke-width="0.5" stroke-dasharray="1"></line>
            <line x1="10.5648088" y1="39.9225218" x2="61.1740239" y2="39.8162968" id="Path-233-Copy"></line>
            <line x1="9.86278299" y1="35.0061421" x2="60.1740239" y2="34.8162968" id="Path-233-Copy-2" stroke-width="0.5" stroke-dasharray="1"></line>
            <line x1="7.86278299" y1="29.8529909" x2="59.1740239" y2="29.8162968" id="Path-233-Copy-3"></line>
            <line x1="50.8728206" y1="51.3207443" x2="65.768106" y2="60.169529" id="Path-234" stroke-width="0.5" stroke-dasharray="1"></line>
            <line x1="44.7787598" y1="52.4256075" x2="64.3892894" y2="64.2745221" id="Path-235"></line>
            <line x1="39.8728206" y1="53.3207443" x2="59.4509223" y2="66.0038575" id="Path-236" stroke-width="0.5" stroke-dasharray="1"></line>
            <line x1="37.8728206" y1="57.3207443" x2="52.8776088" y2="67.20929" id="Path-237"></line>
            <line x1="39.5959221" y1="61.1886155" x2="45.9031133" y2="52.4256075" id="Path-238"></line>
            <line x1="42.6960979" y1="62.9225218" x2="49.9566698" y2="52.4491482" id="Path-239" stroke-width="0.5" stroke-dasharray="1"></line>
            <line x1="45.9031133" y1="65.1260391" x2="54.5840246" y2="52.4256075" id="Path-240"></line>
            <line x1="49.9566698" y1="66.4369542" x2="58.3204633" y2="53.3207443" id="Path-241" stroke-width="0.5" stroke-dasharray="1"></line>
            <line x1="54.5840246" y1="66.0038575" x2="62.1740239" y2="54.4620185" id="Path-242"></line>
            <line x1="59.4509223" y1="65.8554869" x2="65.3170745" y2="56.8750519" id="Path-243" stroke-width="0.5" stroke-dasharray="1"></line>
            <line x1="58.1065363" y1="68.7792191" x2="73.0018216" y2="77.6280038" id="Path-234" stroke-width="0.5" stroke-dasharray="1" transform="translate(65.554179, 73.203611) rotate(4.000000) translate(-65.554179, -73.203611) "></line>
            <line x1="51.8398666" y1="69.617096" x2="71.4503962" y2="81.4660107" id="Path-235" transform="translate(61.645131, 75.541553) rotate(4.000000) translate(-61.645131, -75.541553) "></line>
            <line x1="46.8543806" y1="70.1656843" x2="66.4324823" y2="82.8487975" id="Path-236" stroke-width="0.5" stroke-dasharray="1" transform="translate(56.643431, 76.507241) rotate(4.000000) translate(-56.643431, -76.507241) "></line>
            <line x1="44.7198323" y1="73.82397" x2="58.6470679" y2="82.7017573" id="Path-237" transform="translate(51.683450, 78.262864) rotate(4.000000) translate(-51.683450, -78.262864) "></line>
            <line x1="46.7934882" y1="77.5583292" x2="53.1006794" y2="68.7953211" id="Path-238" transform="translate(49.947084, 73.176825) rotate(4.000000) translate(-49.947084, -73.176825) "></line>
            <line x1="49.8236542" y1="79.5396045" x2="57.0842261" y2="69.0662309" id="Path-239" stroke-width="0.5" stroke-dasharray="1" transform="translate(53.453940, 74.302918) rotate(4.000000) translate(-53.453940, -74.302918) "></line>
            <line x1="52.9450939" y1="82.0137156" x2="61.6260051" y2="69.313284" id="Path-240" transform="translate(57.285550, 75.663500) rotate(4.000000) translate(-57.285550, -75.663500) "></line>
            <line x1="56.9122191" y1="83.5936452" x2="65.2760126" y2="70.4774352" id="Path-241" stroke-width="0.5" stroke-dasharray="1" transform="translate(61.094116, 77.035540) rotate(4.000000) translate(-61.094116, -77.035540) "></line>
            <line x1="61.5045444" y1="83.4554853" x2="69.0945437" y2="71.9136462" id="Path-242" transform="translate(65.299544, 77.684566) rotate(4.000000) translate(-65.299544, -77.684566) "></line>
            <line x1="66.2826988" y1="83.5837293" x2="72.148851" y2="74.6032942" id="Path-243" stroke-width="0.5" stroke-dasharray="1" transform="translate(69.215775, 79.093512) rotate(4.000000) translate(-69.215775, -79.093512) "></line>
            <line x1="1.74204434" y1="7" x2="19.0274048" y2="17.5759456" id="Path-246" stroke-width="0.5" stroke-dasharray="1"></line>
            <line x1="6.74204434" y1="4" x2="24.0274048" y2="14.5759456" id="Path-246-Copy"></line>
            <line x1="10.7420443" y1="0" x2="28.0274048" y2="10.5759456" id="Path-246-Copy-2" stroke-width="0.5" stroke-dasharray="1"></line>
            <path d="M1.74204434,21.6994238 L2,11.2595941 L20.0324826,-2.27373675e-13" id="Path-247" stroke-width="0.5" stroke-dasharray="1"></path>
            <polyline id="Path-247-Copy" points="7 25.6699713 7 14.2595941 25.0324826 3"></polyline>
            <path d="M11.5648088,27.5239029 L12,17.2595941 L30.0324826,6" id="Path-247-Copy-2" stroke-width="0.5" stroke-dasharray="1"></path>
        </g>
    </g>
</svg>