<?xml version="1.0" encoding="UTF-8"?>
<svg width="1920px" height="1080px" viewBox="0 0 1920 1080" version="1.1" xmlns="http://www.w3.org/2000/svg" xmlns:xlink="http://www.w3.org/1999/xlink">
    <!-- Generator: Sketch 62 (91390) - https://sketch.com -->
    <title>baden03</title>
    <desc>Created with Sketch.</desc>
    <g id="baden03" stroke="none" stroke-width="1" fill="none" fill-rule="evenodd">
<!--        <g id="Group" transform="translate(516.000000, 849.000000)" stroke="#FFFFFF">-->
<!--            <line x1="3.33845271" y1="15.9498304" x2="1.36690889" y2="22.7553611" id="Path-354" stroke-width="0.2"></line>-->
<!--            <line x1="7.87848503" y1="15.9498304" x2="4.88653326" y2="25.9713931" id="Path-357" stroke-width="0.6"></line>-->
<!--            <line x1="7.87848503" y1="26.9077176" x2="11.8127818" y2="13.5662816" id="Path-358" stroke-width="0.2"></line>-->
<!--            <line x1="21.2826543" y1="28.242646" x2="25.6903332" y2="13.1026591" id="Path-359" stroke-width="0.2"></line>-->
<!--            <line x1="1.36690889" y1="16.612659" x2="26.887269" y2="24.1949622" id="Path-361" stroke-width="0.2"></line>-->
<!--            <line x1="1.36690889" y1="13.1026591" x2="26.887269" y2="20.6849623" id="Path-361-Copy" stroke-width="0.6"></line>-->
<!--            <line x1="1.93285381e-13" y1="19.8407315" x2="25.5374947" y2="27.8367301" id="Path-362" stroke-width="0.6"></line>-->
<!--            <line x1="2.88033921" y1="24.1949622" x2="12.7968917" y2="27.3187916" id="Path-363" stroke-width="0.2"></line>-->
<!--            <line x1="11.8127818" y1="13.1026591" x2="27.7601923" y2="17.9826274" id="Path-364" stroke-width="0.2"></line>-->
<!--            <line x1="11.8127818" y1="9.59265927" x2="27.7601923" y2="14.4726275" id="Path-364-Copy" stroke-width="0.6"></line>-->
<!--            <line x1="14.0532113" y1="6.76823936" x2="24.2517987" y2="9.88904586" id="Path-364-Copy-2" stroke-width="0.2"></line>-->
<!--            <line x1="14.9576261" y1="3.53499384" x2="23.6915686" y2="6.20761344" id="Path-364-Copy-3" stroke-width="0.6"></line>-->
<!--            <line x1="14.8759475" y1="-1.24700246e-14" x2="20.4660206" y2="1.71058362" id="Path-364-Copy-4" stroke-width="0.2"></line>-->
<!--            <line x1="24.4933974" y1="28.6530513" x2="28.379619" y2="15.9498304" id="Path-367" stroke-width="0.6"></line>-->
<!--            <line x1="11.1096652" y1="27.3187916" x2="18.5416193" y2="1.78280408" id="Path-360" stroke-width="0.6"></line>-->
<!--            <line x1="14.8256422" y1="27.8367301" x2="21.2826543" y2="4.8887184" id="Path-366" stroke-width="0.2"></line>-->
<!--            <line x1="18.0541483" y1="27.8367301" x2="22.9990227" y2="11.2102769" id="Path-368" stroke-width="0.6"></line>-->
<!--        </g>-->
    </g>
</svg>
