<?xml version="1.0" encoding="UTF-8"?>
<svg width="1920px" height="1080px" preserveAspectRatio="xMidYMid slice" viewBox="0 0 1920 1080" version="1.1" xmlns="http://www.w3.org/2000/svg" xmlns:xlink="http://www.w3.org/1999/xlink">
    <!-- Generator: Sketch 61 (89581) - https://sketch.com -->
    <title>baden-short@1x</title>
    <desc>Created with Sketch.</desc>
    <g id="baden-short" stroke="none" stroke-width="1" fill="none" fill-rule="evenodd">
        <g id="lafarge-holcim" transform="translate(1504.000000, 515.000000)" stroke="#FFFFFF">
            <line x1="78" y1="2" x2="75" y2="171" id="Path-50" stroke-dasharray="1.149999976158142,1.149999976158142"></line>
            <line x1="62.8773665" y1="2" x2="62.1226335" y2="39" id="Path-50-Copy-8" stroke-dasharray="1.149999976158142"></line>
            <line x1="110" y1="2" x2="107" y2="168" id="Path-50-Copy-2" stroke-dasharray="1.149999976158142"></line>
            <line x1="126" y1="2" x2="122" y2="197" id="Path-50-Copy-3" stroke-dasharray="1.149999976158142,1.149999976158142"></line>
            <path d="M142,2 L138.982176,127.541465 M138.717694,138.543929 L137,210" id="Shape" stroke-dasharray="1.149999976158142,1.149999976158142"></path>
            <line x1="174" y1="2" x2="168" y2="231" id="Path-50-Copy-6" stroke-dasharray="1.149999976158142"></line>
            <line x1="189.878164" y1="2" x2="189.121836" y2="52" id="Path-50-Copy-7" stroke-dasharray="1.149999976158142"></line>
            <path d="M14,51 L31.7130206,52.950865 M47.4231446,54.7690636 L64.5244177,55.9007326 L187,55.9007326" id="Shape" stroke-dasharray="1.149999976158142"></path>
            <path d="M0,12 L38.6091386,15.4321602 M56.5842645,16.4051629 L204,16.4051629" id="Shape" stroke-dasharray="1.149999976158142"></path>
            <path d="M15,85 L63.9133012,91 L186,91" id="Path-51-Copy-4" stroke-dasharray="1.149999976158142"></path>
            <path d="M15,99 L63.0968452,106 L186,106" id="Path-51-Copy-5" stroke-dasharray="1.149999976158142"></path>
            <path d="M11,130 L61.1576861,138 L185,138" id="Path-51-Copy-7" stroke-dasharray="1.149999976158142"></path>
            <path d="M11,145 L58.9789428,154 L184,154" id="Path-51-Copy-8" stroke-dasharray="1.149999976158142"></path>
            <line x1="107" y1="185.5" x2="183" y2="185.5" id="Path-51-Copy-10" stroke-dasharray="1.149999976158142"></line>
            <line x1="129" y1="201.5" x2="183" y2="201.5" id="Path-51-Copy-11" stroke-dasharray="1.149999976158142"></line>
            <path d="M93,2 L91.0261845,87.8609739 M91.0261845,87.8609739 L89,176" id="Shape" stroke-width="2"></path>
            <line x1="157" y1="2" x2="153" y2="220" id="Path-50-Copy-5" stroke-width="2"></line>
            <path d="M3,26 L36.3803221,29.5411821 M52.5463687,31.3184691 L203,31.3184691" id="Shape" stroke-width="2"></path>
            <polyline id="Path-51-Copy-3" stroke-width="2" points="14 68 64.1830705 74 187 74"></polyline>
            <polyline id="Path-51-Copy-6" stroke-width="2" points="11 115 61.973608 122 185 122"></polyline>
            <polyline id="Path-51-Copy-9" stroke-width="2" points="10 158 67.2249188 170 184 170"></polyline>
            <line x1="149" y1="217.5" x2="182" y2="217.5" id="Path-51-Copy-12" stroke-width="2"></line>
            <line x1="25" y1="-1.62536651e-13" x2="20" y2="183" id="Path-39" stroke-dasharray="1"></line>
            <path d="M37.7470533,2 L37.2723023,41.2073249 M36.9286006,56.1003184 L34,183" id="Shape" stroke-dasharray="1"></path>
            <path d="M51.5352721,2 L51.3737531,12.6463319 M50.5456057,44.9019113 L47,183" id="Shape" stroke-dasharray="1"></path>
        </g>
    </g>
</svg>
