<?xml version="1.0" encoding="UTF-8"?>
<svg width="1920px" height="1080px" viewBox="0 0 1920 1080" version="1.1" xmlns="http://www.w3.org/2000/svg" xmlns:xlink="http://www.w3.org/1999/xlink">
    <!-- Generator: Sketch 62 (91390) - https://sketch.com -->
    <title>baden03</title>
    <desc>Created with Sketch.</desc>
    <g id="baden03" stroke="none" stroke-width="1" fill="none" fill-rule="evenodd">
        <g id="Group" transform="translate(537.000000, 141.000000)">
            <path d="M560.722435,169.290731 C561.253983,180.607831 562.207982,191.587315 563.58443,202.229184 C564.960877,212.871053 566.508346,221.050909 568.226835,226.768753" id="Path" stroke="#FFFFFF" stroke-width="0.5" stroke-dasharray="3"></path>
            <path d="M509.325328,-2.27373675e-13 C457.193694,23.0245404 422.446971,50.5309495 405.085158,82.5192273 C395.368491,100.421704 376.955077,134.540712 377.396028,168.542897 C377.665299,189.306574 380.366225,212.270051 383.0529,237.150654" id="Path" stroke="#FFFFFF"></path>
            <path d="M523.325328,-2.27373675e-13 C471.193694,23.0245404 436.446971,50.5309495 419.085158,82.5192273 C409.368491,100.421704 390.955077,134.540712 391.396028,168.542897 C391.665299,189.306574 394.366225,212.270051 397.0529,237.150654" id="Path" stroke="#FFFFFF" stroke-width="0.5" stroke-dasharray="3"></path>
            <path d="M534.716571,1.16245258 C484.032874,23.9486091 450.155737,51.067534 433.085158,82.5192273 C423.368491,100.421704 404.955077,134.540712 405.396028,168.542897 C405.665299,189.306574 407.979447,209.904648 410.666122,234.785251" id="Path" stroke="#FFFFFF"></path>
            <path d="M536.9288,6.20088053 C492.195904,27.9146534 461.91469,53.3541023 446.085158,82.5192273 C436.368491,100.421704 417.955077,134.540712 418.396028,168.542897 C418.665299,189.306574 420.979447,209.904648 423.666122,234.785251" id="Path-Copy-7" stroke="#FFFFFF" stroke-width="0.5" stroke-dasharray="3"></path>
            <path d="M527.654258,19.1830598 C496.050755,37.8682162 473.861055,58.980272 461.085158,82.5192273 C451.368491,100.421704 432.955077,134.540712 433.396028,168.542897 C433.665299,189.306574 434.977482,207.146231 437.664157,232.026835" id="Path-Copy-3" stroke="#FFFFFF"></path>
            <path d="M524.824864,30.6832265 C502.552911,46.4085359 486.306343,63.6872028 476.085158,82.5192273 C466.368491,100.421704 447.955077,134.540712 448.396028,168.542897 C448.665299,189.306574 449.977482,207.146231 452.664157,232.026835" id="Path-Copy-8" stroke="#FFFFFF" stroke-width="0.5" stroke-dasharray="3"></path>
            <path d="M517.354361,48.9881652 C506.238142,59.5568196 497.481742,70.7338403 491.085158,82.5192273 C481.368491,100.421704 462.955077,134.540712 463.396028,168.542897 C463.665299,189.306574 465.966922,206.146231 468.653598,231.026835" id="Path-Copy-6" stroke="#FFFFFF"></path>
            <path d="M523.905695,54.4142008 C515.337811,63.3629169 508.397632,72.731259 503.085158,82.5192273 C493.368491,100.421704 474.955077,134.540712 475.396028,168.542897 C475.665299,189.306574 477.966922,206.146231 480.653598,231.026835" id="Path-Copy-9" stroke="#FFFFFF" stroke-width="0.5" stroke-dasharray="3"></path>
            <path d="M517.085158,82.5192273 C507.368491,100.421704 488.955077,134.540712 489.396028,168.542897 C489.665299,189.306574 492.014937,204.117344 494.701613,228.997948" id="Path" stroke="#FFFFFF"></path>
            <path d="M526.028381,90.0730017 C516.004562,109.066941 502.010954,138.849464 502.396028,168.542897 C502.665299,189.306574 505.014937,204.117344 507.701613,228.997948" id="Path-Copy-10" stroke="#FFFFFF" stroke-width="0.5" stroke-dasharray="3"></path>
            <path d="M535.399703,101.184251 C526.476935,119.67054 517.079522,144.136813 517.396028,168.542897 C517.665299,189.306574 519.64641,203.432053 522.333085,228.312657" id="Path-Copy-3" stroke="#FFFFFF"></path>
            <path d="M544.977222,110.825563 C537.632747,127.766321 531.131898,148.175567 531.396028,168.542897 C531.665299,189.306574 533.64641,203.432053 536.333085,228.312657" id="Path-Copy-11" stroke="#FFFFFF" stroke-width="0.5" stroke-dasharray="3"></path>
            <path d="M555.78476,123.943304 C550.837072,137.83318 547.197056,153.199932 547.396028,168.542897 C547.665299,189.306574 549.616119,203.432053 552.302794,228.312657" id="Path-Copy-6" stroke="#FFFFFF"></path>
            <path d="M579.454789,172.24244 C578.381506,181.924053 578.250889,190.524307 579.062936,198.0432 C580.19791,208.552116 581.514699,218.145738 583.013306,226.824066" id="Path" stroke="#FFFFFF" transform="translate(580.775798, 199.533253) rotate(-10.000000) translate(-580.775798, -199.533253) "></path>
            <line x1="478.633661" y1="6.9447953" x2="532.132225" y2="12.456164" id="Path-244" stroke="#FFFFFF"></line>
            <line x1="471.356788" y1="12.456164" x2="529.354361" y2="20.5082921" id="Path-244-Copy" stroke="#FFFFFF" stroke-width="0.5" stroke-dasharray="3"></line>
            <line x1="460.863139" y1="19.1830598" x2="526.093179" y2="28.3259681" id="Path-245" stroke="#FFFFFF"></line>
            <line x1="450.210543" y1="24.3259681" x2="524.149194" y2="35.3448095" id="Path-248" stroke="#FFFFFF" stroke-width="0.5" stroke-dasharray="3"></line>
            <line x1="436.604144" y1="37.4459335" x2="517.0981" y2="47.5683132" id="Path-249" stroke="#FFFFFF" stroke-width="0.5" stroke-dasharray="3"></line>
            <line x1="441.489845" y1="30.5500488" x2="520.0981" y2="41.5683132" id="Path-249-Copy" stroke="#FFFFFF"></line>
            <line x1="422.717546" y1="49.8288975" x2="524.149194" y2="61.1425395" id="Path-250" stroke="#FFFFFF" stroke-width="0.5" stroke-dasharray="3"></line>
            <line x1="431.605499" y1="44.0180884" x2="530.085158" y2="55.4857185" id="Path-250-Copy" stroke="#FFFFFF"></line>
            <line x1="407.126166" y1="67.5056617" x2="513.436958" y2="76.0693011" id="Path-251" stroke="#FFFFFF" stroke-width="0.5" stroke-dasharray="3"></line>
            <line x1="412.615989" y1="57.7727186" x2="518.780252" y2="68.9550198" id="Path-251-Copy" stroke="#FFFFFF"></line>
            <line x1="389.594053" y1="87.5246145" x2="532.132225" y2="93.0723449" id="Path-252" stroke="#FFFFFF" stroke-width="0.5" stroke-dasharray="3"></line>
            <line x1="395.368491" y1="77.8678924" x2="511.847021" y2="84.6560701" id="Path-252-Copy" stroke="#FFFFFF"></line>
            <line x1="369.127725" y1="112.324468" x2="541.077027" y2="108.721657" id="Path-253" stroke="#FFFFFF" stroke-width="0.5" stroke-dasharray="3"></line>
            <line x1="383.76656" y1="99.7216568" x2="541.077027" y2="99.7216568" id="Path-253-Copy" stroke="#FFFFFF"></line>
            <line x1="362.957064" y1="137.317101" x2="552.302794" y2="125.786818" id="Path-254" stroke="#FFFFFF" stroke-width="0.5" stroke-dasharray="3"></line>
            <line x1="369.127725" y1="123.943304" x2="549.399703" y2="117.392626" id="Path-254-Copy" stroke="#FFFFFF"></line>
            <line x1="362.957064" y1="163.010771" x2="545.905485" y2="148.426023" id="Path-255" stroke="#FFFFFF" stroke-width="0.5" stroke-dasharray="3"></line>
            <line x1="362.957064" y1="150.010771" x2="549.399703" y2="137.317101" id="Path-255-Copy" stroke="#FFFFFF"></line>
            <line x1="362.957064" y1="187.201387" x2="552.302794" y2="169.542897" id="Path-256" stroke="#FFFFFF" stroke-width="0.5" stroke-dasharray="3"></line>
            <line x1="362.957064" y1="175.201387" x2="552.302794" y2="157.542897" id="Path-256-Copy" stroke="#FFFFFF"></line>
            <line x1="362.957064" y1="210.613543" x2="591.517624" y2="192.453829" id="Path-257" stroke="#FFFFFF" stroke-width="0.5" stroke-dasharray="3"></line>
            <line x1="362.957064" y1="198.613543" x2="583.24409" y2="178.922966" id="Path-257-Copy" stroke="#FFFFFF"></line>
            <line x1="367.12844" y1="231.026835" x2="608.719354" y2="221.015001" id="Path-258" stroke="#FFFFFF" stroke-width="0.5" stroke-dasharray="3"></line>
            <line x1="367.12844" y1="220.026835" x2="595.903945" y2="206.509649" id="Path-258-Copy" stroke="#FFFFFF"></line>
            <line x1="399.504194" y1="330.667169" x2="578.830214" y2="320.026835" id="Path-259" stroke="#FFFFFF" stroke-dasharray="3"></line>
            <polyline id="Path-259-Copy" stroke="#FFFFFF" stroke-width="2" points="408.504194 348.667169 587.830214 338.026835 618.766834 338.026835"></polyline>
            <line x1="410.666122" y1="368.377034" x2="650.503595" y2="355.625163" id="Path-260" stroke="#FFFFFF" stroke-dasharray="3"></line>
            <line x1="403.976516" y1="386.551137" x2="638.113934" y2="374.546095" id="Path-260-Copy" stroke="#FFFFFF" stroke-width="2"></line>
            <line x1="400.952246" y1="398.513682" x2="672.689448" y2="392.61444" id="Path-261" stroke="#FFFFFF" stroke-dasharray="3"></line>
            <line x1="399.504194" y1="415.564061" x2="728.962998" y2="415.564061" id="Path-261-Copy" stroke="#FFFFFF" stroke-width="2"></line>
            <line x1="393.646152" y1="429.476548" x2="745.264389" y2="436.742647" id="Path-262" stroke="#FFFFFF" stroke-dasharray="3"></line>
            <line x1="387.646152" y1="447.476548" x2="751.986474" y2="456.054764" id="Path-262-Copy" stroke="#FFFFFF" stroke-width="2"></line>
            <line x1="366.392045" y1="469.775225" x2="764.58677" y2="481.795117" id="Path-263" stroke="#FFFFFF" stroke-dasharray="3"></line>
            <line x1="358.392045" y1="493.775225" x2="767.58677" y2="511.930173" id="Path-263-Copy" stroke="#FFFFFF" stroke-width="2"></line>
            <line x1="308.315541" y1="509.930173" x2="764.58677" y2="544.573984" id="Path-264" stroke="#FFFFFF" stroke-dasharray="3"></line>
            <line x1="296.315541" y1="531.930173" x2="761.58677" y2="566.573984" id="Path-264-Copy" stroke="#FFFFFF" stroke-width="2"></line>
            <line x1="279.338383" y1="551.866377" x2="771.647139" y2="591.868914" id="Path-265" stroke="#FFFFFF" stroke-dasharray="3"></line>
            <path d="M418.40879,304.784182 C421.167668,337.570134 415.34882,377.800922 400.952246,425.476548 C383.76656,482.388587 350.284426,549.442703 342.505073,561.19611" id="Path" stroke="#FFFFFF" stroke-dasharray="3"></path>
            <path d="M446.165738,300.720302 C449.08665,336.215507 443.34882,377.800922 428.952246,425.476548 C411.76656,482.388587 378.284426,549.442703 370.505073,561.19611" id="Path-Copy-2" stroke="#FFFFFF" stroke-width="2"></path>
            <path d="M475.9218,297.85836 C479.672004,335.261526 474.34882,377.800922 459.952246,425.476548 C442.76656,482.388587 409.284426,549.442703 401.505073,561.19611" id="Path-Copy-5" stroke="#FFFFFF" stroke-dasharray="3"></path>
            <path d="M501.042676,295.834146 C504.712296,334.586788 499.34882,377.800922 484.952246,425.476548 C467.76656,482.388587 433.086994,557.290395 425.307642,569.043802" id="Path" stroke="#FFFFFF" stroke-width="2"></path>
            <path d="M531.759258,295.296732 C534.28449,335.074317 528.34882,378.800922 513.952246,426.476548 C496.76656,483.388587 462.344635,561.114239 454.565282,572.867646" id="Path-Copy-2" stroke="#FFFFFF" stroke-dasharray="3" transform="translate(493.444899, 434.082189) rotate(-2.000000) translate(-493.444899, -434.082189) "></path>
            <path d="M560.00132,296.508841 C565.031844,335.478353 560.34882,378.800922 545.952246,426.476548 C528.76656,483.388587 494.731598,564.604097 486.952246,576.357504" id="Path-Copy-5" stroke="#FFFFFF" stroke-width="2" transform="translate(524.453750, 436.433173) rotate(-3.000000) translate(-524.453750, -436.433173) "></path>
            <path d="M588.065178,303.700661 C591.462546,353.365343 589.17215,394.143632 581.193991,426.035529 C569.410942,473.137094 553.57571,524.031973 533.688294,578.720167" id="Path" stroke="#FFFFFF" stroke-dasharray="3" transform="translate(561.637719, 441.210414) rotate(-4.000000) translate(-561.637719, -441.210414) "></path>
            <path d="M629.504297,333.482179 C630.318363,369.872698 627.567115,400.692875 621.250551,425.94271 C609.467503,473.044275 593.63227,523.939154 573.744854,578.627348" id="Path" stroke="#FFFFFF" stroke-width="2" transform="translate(601.694279, 456.054764) rotate(-10.000000) translate(-601.694279, -456.054764) "></path>
            <path d="M669.367983,341.849166 C670.122907,377.884081 667.365757,408.431837 661.096534,433.492433 C649.313485,480.593998 633.478253,531.488878 613.590837,586.177072" id="Path-269-Copy-2" stroke="#FFFFFF" stroke-dasharray="3" transform="translate(641.540262, 464.013119) rotate(-20.000000) translate(-641.540262, -464.013119) "></path>
            <path d="M721.870185,393.00965 C720.545958,410.088195 718.161877,425.510858 714.717944,439.277638 C702.934896,486.379203 687.099663,537.274082 667.212247,591.962276" id="Path-269-Copy-3" stroke="#FFFFFF" stroke-width="2" transform="translate(694.541216, 492.485963) rotate(-27.000000) translate(-694.541216, -492.485963) "></path>
            <path d="M761.482293,386.285517 C760.442549,408.096891 757.815051,427.427605 753.599799,444.277659 C741.81675,491.379224 725.981518,542.274103 706.094101,596.962297" id="Path-269-Copy-4" stroke="#FFFFFF" stroke-dasharray="3" transform="translate(733.788197, 491.623907) rotate(-30.000000) translate(-733.788197, -491.623907) "></path>
            <path d="M64.6512391,812.160422 L638.113934,857.693558 M654.756129,859.014954 L728.962998,864.907005" id="Shape" stroke="#FFFFFF" stroke-width="2"></path>
            <path d="M52.3299731,838.533714 L640.113934,874.693558 M656.756129,876.014954 L753.962998,881.907005" id="Shape-Copy" stroke="#FFFFFF" stroke-dasharray="3"></path>
            <path d="M1.13686838e-13,916.288531 L642.008897,926.887821 M659.208717,927.225364 L829,928.887821" id="Shape" stroke="#FFFFFF" stroke-width="2"></path>
            <path d="M23.7915851,864.907005 L639.783953,891.57078 M657.535237,892.33916 L795.722265,898.320708" id="Shape" stroke="#FFFFFF" stroke-width="2"></path>
            <path d="M18.7915851,890.907005 L638.783953,910.288531 M658.208717,910.288531 L805.353853,914.438354" id="Shape-Copy-2" stroke="#FFFFFF" stroke-dasharray="3"></path>
            <path d="M97.0693831,796.563957 C81.0276821,823.739629 59.6709836,870.103823 32.9992876,935.656539" id="Shape" stroke="#FFFFFF" stroke-width="2"></path>
            <path d="M352.892081,482.388587 C338.081003,512.85546 323.151613,538.784687 308.317926,561.19611" id="Path" stroke="#979797"></path>
            <path d="M366.892081,482.388587 C352.081003,512.85546 337.151613,538.784687 322.317926,561.19611" id="Path" stroke="#FFFFFF" stroke-dasharray="3"></path>
            <path d="M127.069383,796.563957 C111.027682,823.739629 89.6709836,870.103823 62.9992876,935.656539" id="Path" stroke="#FFFFFF" stroke-dasharray="3"></path>
            <path d="M154.003364,789.96575 C137.961663,817.141422 114.670984,870.103823 87.9992876,935.656539" id="Path" stroke="#FFFFFF" stroke-width="2"></path>
            <path d="M193.531724,786.185476 C177.490023,813.361148 154.670984,872.103823 127.999288,937.656539" id="Path-Copy" stroke="#FFFFFF" stroke-dasharray="3"></path>
            <path d="M232.025221,790.585711 C216.152802,819.369735 194.310925,875.446524 168.999288,937.656539" id="Path-Copy-4" stroke="#FFFFFF" stroke-width="2"></path>
            <path d="M797.863129,898.320708 C798.867681,906.137737 799.484685,912.360375 799.714142,916.988624 C799.943598,921.616872 799.943598,927.839511 799.714142,935.656539" id="Path-270" stroke="#FFFFFF" stroke-width="2"></path>
            <path d="M760.174898,886.336326 C761.188752,894.201668 761.50951,902.717684 761.137172,911.884374 C760.764834,921.051063 759.776303,928.975118 758.17158,935.656539" id="Path-271" stroke="#FFFFFF" stroke-dasharray="3"></path>
            <path d="M722.969864,869.758289 C722.525632,885.275425 721.81678,896.920409 720.84331,904.693238 C719.869839,912.466068 717.827655,922.787168 714.716756,935.656539" id="Path-272" stroke="#FFFFFF" stroke-width="2"></path>
            <path d="M679.899249,851.647219 C678.575937,871.624977 677.306772,887.182807 676.091754,898.320708 C674.876735,909.458609 672.696927,921.903886 669.552329,935.656539" id="Path-273" stroke="#FFFFFF" stroke-dasharray="3"></path>
            <path d="M618.545215,838.533714 C616.052779,865.706702 613.986674,884.618298 612.346898,895.268503 C610.707123,905.918709 607.618914,919.381387 603.082273,935.656539" id="Path-274" stroke="#FFFFFF" stroke-width="2"></path>
            <path d="M570.601355,832.589973 C568.718066,850.623308 565.427958,869.764844 560.731031,890.014579 C556.034103,910.264314 551.505218,925.478301 547.144375,935.656539" id="Path-275" stroke="#FFFFFF" stroke-dasharray="3"></path>
            <path d="M517.953764,828.606731 C514.409403,860.169172 511.149518,881.36572 508.17411,892.196375 C505.198702,903.027029 499.953825,917.513751 492.43948,935.656539" id="Path-276" stroke="#FFFFFF" stroke-width="2"></path>
            <path d="M473.497674,824.854998 C468.698263,850.544207 464.151363,872.309962 459.856973,890.152263 C455.562583,907.994564 451.245171,923.162656 446.904737,935.656539" id="Path-277" stroke="#FFFFFF" stroke-dasharray="3"></path>
            <path d="M438.717546,815.951664 C430.458225,849.205489 423.762667,873.590639 418.630872,889.107114 C413.499077,904.623589 407.700615,920.140064 401.235487,935.656539" id="Path-278" stroke="#FFFFFF" stroke-width="2"></path>
            <path d="M402.717546,815.951664 C394.458225,849.205489 387.762667,873.590639 382.630872,889.107114 C377.499077,904.623589 371.700615,920.140064 365.235487,935.656539" id="Path-278-Copy" stroke="#FFFFFF" stroke-dasharray="3"></path>
            <path d="M371.305138,812.160422 C363.704454,838.320473 356.653388,861.433543 350.151938,881.499633 C343.650489,901.565723 337.134844,919.618025 330.605003,935.656539" id="Path-279" stroke="#FFFFFF" stroke-width="2"></path>
            <path d="M302.397936,802.168941 C293.267707,827.794291 285.907703,848.706979 280.317926,864.907005 C274.728148,881.107031 266.734967,904.690209 256.338383,935.656539" id="Path-269" stroke="#FFFFFF" stroke-width="2"></path>
            <path d="M340.397936,802.168941 C331.267707,827.794291 323.907703,848.706979 318.317926,864.907005 C312.728148,881.107031 304.734967,904.690209 294.338383,935.656539" id="Path-269-Copy" stroke="#FFFFFF" stroke-dasharray="3"></path>
            <path d="M267.947601,796.563957 C255.664559,826.587411 246.595246,849.368427 240.739662,864.907005 C234.884079,880.445583 226.481433,904.028761 215.531724,935.656539" id="Path-280" stroke="#FFFFFF" stroke-dasharray="3"></path>
        </g>
    </g>
</svg>