<?xml version="1.0" encoding="UTF-8"?>
<svg width="1920px" height="1080px" viewBox="0 0 1920 1080" version="1.1" xmlns="http://www.w3.org/2000/svg" xmlns:xlink="http://www.w3.org/1999/xlink">
    <!-- Generator: Sketch 62 (91390) - https://sketch.com -->
    <desc>Created with Sketch.</desc>
    <g id="baden03" stroke="none" stroke-width="1" fill="none" fill-rule="evenodd">
        <g id="Group-2" transform="translate(899.957064, 141.000000)" stroke="#FFFFFF">
            <path d="M197.765371,169.290731 C198.29692,180.607831 199.250918,191.587315 200.627366,202.229184 C202.003814,212.871053 203.551282,221.050909 205.269772,226.768753" id="Path" stroke-width="0.5" stroke-dasharray="3"></path>
            <path d="M146.368264,-2.27373675e-13 C94.2366305,23.0245404 59.4899074,50.5309495 42.1280945,82.5192273 C32.4114273,100.421704 13.998013,134.540712 14.4389646,168.542897 C14.7082348,189.306574 17.409161,212.270051 20.0958364,237.150654" id="Path"></path>
            <path d="M160.368264,-2.27373675e-13 C108.236631,23.0245404 73.4899074,50.5309495 56.1280945,82.5192273 C46.4114273,100.421704 27.998013,134.540712 28.4389646,168.542897 C28.7082348,189.306574 31.409161,212.270051 34.0958364,237.150654" id="Path" stroke-width="0.5" stroke-dasharray="3"></path>
            <path d="M171.759507,1.16245258 C121.075811,23.9486091 87.1986732,51.067534 70.1280945,82.5192273 C60.4114273,100.421704 41.998013,134.540712 42.4389646,168.542897 C42.7082348,189.306574 45.0223833,209.904648 47.7090587,234.785251" id="Path"></path>
            <path d="M173.971737,6.20088053 C129.23884,27.9146534 98.9576258,53.3541023 83.1280945,82.5192273 C73.4114273,100.421704 54.998013,134.540712 55.4389646,168.542897 C55.7082348,189.306574 58.0223833,209.904648 60.7090587,234.785251" id="Path-Copy-7" stroke-width="0.5" stroke-dasharray="3"></path>
            <path d="M164.697194,19.1830598 C133.093691,37.8682162 110.903991,58.980272 98.1280945,82.5192273 C88.4114273,100.421704 69.998013,134.540712 70.4389646,168.542897 C70.7082348,189.306574 72.0204182,207.146231 74.7070937,232.026835" id="Path-Copy-3"></path>
            <path d="M161.867801,30.6832265 C139.595848,46.4085359 123.349279,63.6872028 113.128094,82.5192273 C103.411427,100.421704 84.998013,134.540712 85.4389646,168.542897 C85.7082348,189.306574 87.0204182,207.146231 89.7070937,232.026835" id="Path-Copy-8" stroke-width="0.5" stroke-dasharray="3"></path>
            <path d="M154.397297,48.9881652 C143.281079,59.5568196 134.524678,70.7338403 128.128094,82.5192273 C118.411427,100.421704 99.998013,134.540712 100.438965,168.542897 C100.708235,189.306574 103.009858,206.146231 105.696534,231.026835" id="Path-Copy-6"></path>
            <path d="M160.948631,54.4142008 C152.380747,63.3629169 145.440568,72.731259 140.128094,82.5192273 C130.411427,100.421704 111.998013,134.540712 112.438965,168.542897 C112.708235,189.306574 115.009858,206.146231 117.696534,231.026835" id="Path-Copy-9" stroke-width="0.5" stroke-dasharray="3"></path>
            <path d="M154.128094,82.5192273 C144.411427,100.421704 125.998013,134.540712 126.438965,168.542897 C126.708235,189.306574 129.057873,204.117344 131.744549,228.997948" id="Path"></path>
            <path d="M163.071317,90.0730017 C153.047498,109.066941 139.05389,138.849464 139.438965,168.542897 C139.708235,189.306574 142.057873,204.117344 144.744549,228.997948" id="Path-Copy-10" stroke-width="0.5" stroke-dasharray="3"></path>
            <path d="M172.44264,101.184251 C163.519871,119.67054 154.122458,144.136813 154.438965,168.542897 C154.708235,189.306574 156.689346,203.432053 159.376022,228.312657" id="Path-Copy-3"></path>
            <path d="M182.020159,110.825563 C174.675683,127.766321 168.174834,148.175567 168.438965,168.542897 C168.708235,189.306574 170.689346,203.432053 173.376022,228.312657" id="Path-Copy-11" stroke-width="0.5" stroke-dasharray="3"></path>
            <path d="M192.827696,123.943304 C187.880008,137.83318 184.239992,153.199932 184.438965,168.542897 C184.708235,189.306574 186.659055,203.432053 189.34573,228.312657" id="Path-Copy-6"></path>
            <path d="M216.497725,172.24244 C215.424442,181.924053 215.293825,190.524307 216.105873,198.0432 C217.240846,208.552116 218.557636,218.145738 220.056242,226.824066" id="Path" transform="translate(217.818734, 199.533253) rotate(-10.000000) translate(-217.818734, -199.533253) "></path>
            <line x1="115.676597" y1="6.9447953" x2="169.175161" y2="12.456164" id="Path-244"></line>
            <line x1="108.399725" y1="12.456164" x2="166.397297" y2="20.5082921" id="Path-244-Copy" stroke-width="0.5" stroke-dasharray="3"></line>
            <line x1="97.9060749" y1="19.1830598" x2="163.136116" y2="28.3259681" id="Path-245"></line>
            <line x1="87.2534794" y1="24.3259681" x2="161.19213" y2="35.3448095" id="Path-248" stroke-width="0.5" stroke-dasharray="3"></line>
            <line x1="73.6470802" y1="37.4459335" x2="154.141036" y2="47.5683132" id="Path-249" stroke-width="0.5" stroke-dasharray="3"></line>
            <line x1="78.5327814" y1="30.5500488" x2="157.141036" y2="41.5683132" id="Path-249-Copy"></line>
            <line x1="59.7604822" y1="49.8288975" x2="161.19213" y2="61.1425395" id="Path-250" stroke-width="0.5" stroke-dasharray="3"></line>
            <line x1="68.6484351" y1="44.0180884" x2="155.594419" y2="54.1426602" id="Path-250-Copy"></line>
            <line x1="44.169102" y1="67.5056617" x2="150.479894" y2="76.0693011" id="Path-251" stroke-width="0.5" stroke-dasharray="3"></line>
            <line x1="49.6589254" y1="57.7727186" x2="155.823189" y2="68.9550198" id="Path-251-Copy"></line>
            <line x1="26.6369889" y1="87.5246145" x2="169.175161" y2="93.0723449" id="Path-252" stroke-width="0.5" stroke-dasharray="3"></line>
            <line x1="32.4114273" y1="77.8678924" x2="148.889957" y2="84.6560701" id="Path-252-Copy"></line>
            <line x1="6.17066079" y1="112.324468" x2="178.119963" y2="108.721657" id="Path-253" stroke-width="0.5" stroke-dasharray="3"></line>
            <line x1="20.8094958" y1="99.7216568" x2="178.119963" y2="99.7216568" id="Path-253-Copy"></line>
            <line x1="-2.98427949e-13" y1="137.317101" x2="189.34573" y2="125.786818" id="Path-254" stroke-width="0.5" stroke-dasharray="3"></line>
            <line x1="6.17066079" y1="123.943304" x2="186.44264" y2="117.392626" id="Path-254-Copy"></line>
            <line x1="0" y1="163.010771" x2="182.948421" y2="148.426023" id="Path-255" stroke-width="0.5" stroke-dasharray="3"></line>
            <line x1="9.9475983e-14" y1="150.010771" x2="186.44264" y2="137.317101" id="Path-255-Copy"></line>
            <line x1="-2.98427949e-13" y1="187.201387" x2="189.34573" y2="169.542897" id="Path-256" stroke-width="0.5" stroke-dasharray="3"></line>
            <line x1="-2.98427949e-13" y1="175.201387" x2="189.34573" y2="157.542897" id="Path-256-Copy"></line>
            <line x1="1.42108547e-14" y1="210.613543" x2="228.560561" y2="192.453829" id="Path-257" stroke-width="0.5" stroke-dasharray="3"></line>
            <line x1="-2.4158453e-13" y1="198.613543" x2="220.287027" y2="178.922966" id="Path-257-Copy"></line>
            <line x1="4.17137593" y1="231.026835" x2="245.76229" y2="221.015001" id="Path-258" stroke-width="0.5" stroke-dasharray="3"></line>
            <line x1="4.17137593" y1="220.026835" x2="232.946881" y2="206.509649" id="Path-258-Copy"></line>
        </g>
    </g>
</svg>
