<?xml version="1.0" encoding="UTF-8"?>
<svg width="1920px" height="1080px" preserveAspectRatio="xMidYMid slice" viewBox="0 0 1920 1080" version="1.1" xmlns="http://www.w3.org/2000/svg" xmlns:xlink="http://www.w3.org/1999/xlink">
    <!-- Generator: Sketch 60.1 (88133) - https://sketch.com -->
    <desc>Created with Sketch.</desc>
    <g id="baden-short-copy" stroke="none" stroke-width="1" fill="none" fill-rule="evenodd">
        <g id="bus" transform="translate(339.006165, 539.675298)" stroke="#FFFFFF">
            <path d="M236.564068,109.308617 L232.993835,59.0526189 C232.993835,57.2388521 232.993835,55.7727487 232.993835,54.6543085 C232.993835,54.3547626 232.993835,54.0348827 232.993835,53.6946688 C232.993834,51.5687934 233.558582,49.481076 234.6303,47.6451107 L250.017636,21.2849672 L250.017636,21.2849672 C250.631315,20.1845846 250.398818,19.3906719 249.320147,18.9032292 C248.241475,18.4157864 246.9777,18.1271937 245.52882,18.0374512 L24.2217881,-1.42108547e-14 L0.805431209,31.0752736 C0.282718469,31.7689529 9.82479743e-14,32.613925 8.52651283e-14,33.4824982 L8.52651283e-14,35.7582988 L8.52651283e-14,35.7582988 L3.89701582,71.0131282 L3.89701582,81.6113155 C3.89700178,82.0427005 3.99003556,82.4690119 4.16975844,82.861176 C4.91360978,84.4842963 5.66917055,85.6279381 6.43644075,86.2921014 C7.29766854,87.0375961 8.87571837,87.7369481 11.1705902,88.3901571 L53.8743944,91.0994087 C52.8712961,80.5764898 56.9264073,75.6700489 66.039728,76.380086 C75.1530488,77.0901232 80.1620306,83.1567715 81.0666736,94.5800309 L197.89508,105.199254 C197.497681,94.5394866 201.776726,89.4163621 210.732214,89.8298803 C219.687703,90.2433986 225.308618,96.7363108 227.59496,109.308617 L236.564068,109.308617 Z" id="Path-11" stroke-width="2"></path>
            <line x1="-1.42108547e-14" y1="35.7582988" x2="232.993835" y2="56.4443586" id="Path-12" stroke-width="2"></line>
            <polyline id="Path-13" stroke-width="2" points="234.998283 89.5723981 41.1993219 70.7638642 41.1993219 73.6240434 4.59046683 71.3990376"></polyline>
            <line x1="39.2340426" y1="39.701155" x2="41.1993219" y2="70.7638642" id="Path-14" stroke-width="1.5"></line>
            <line x1="76.7575459" y1="42.9243807" x2="78.7007368" y2="73.7916863" id="Path-15" stroke-width="1.5"></line>
            <line x1="112.262451" y1="46.1013287" x2="114.05378" y2="77.5082353" id="Path-16" stroke-width="1.5"></line>
            <line x1="151.855469" y1="81.3802396" x2="150.26677" y2="49.4984312" id="Path-17" stroke-width="1.5"></line>
            <line x1="189.1497" y1="85.590112" x2="189.1497" y2="53.1170344" id="Path-18" stroke-width="1.5"></line>
            <line x1="224.772076" y1="87.7341366" x2="224.772076" y2="56.4443586" id="Path-19" stroke-width="1.5"></line>
            <path d="M22.453222,1.90110768 C19.4957507,1.5607285 17.1414614,2.48424054 15.3903541,4.67164379 C13.6392468,6.85904703 13.6392468,9.29364667 15.3903541,11.9754427" id="Path-22" stroke-width="2"></path>
            <polygon id="Path-23" stroke-width="2" points="104.522899 22.7650406 108.704285 16.5728667 162.467748 19.6689537 170.573981 23.8831962 165.567778 29.7215767 161.07991 28.1224093"></polygon>
            <line x1="113.158115" y1="23.1472217" x2="116.496918" y2="17.2493581" id="Path-24"></line>
            <line x1="127.15498" y1="25.0421942" x2="130.187495" y2="18.0451456" id="Path-25"></line>
            <line x1="141.451249" y1="26.2724841" x2="146.316895" y2="18.8076253" id="Path-26"></line>
            <line x1="156.273187" y1="27.477268" x2="161.325831" y2="19.7882563" id="Path-27"></line>
            <polygon id="Path-28" stroke-width="2" points="353.956639 45.5505892 357.528683 37.8945223 414.748988 41.7225557 421.971184 45.5505892 419.179582 53.7317636 413.186136 50.2266713"></polygon>
            <line x1="362.92088" y1="45.8131429" x2="365.80372" y2="38.9887149" id="Path-29"></line>
            <line x1="409.029254" y1="49.657586" x2="411.661356" y2="42.4009289" id="Path-30"></line>
            <line x1="249.124269" y1="22.3247021" x2="286.463769" y2="24.2165181" id="Path-31" stroke-width="2"></line>
            <line x1="236.728139" y1="108.036043" x2="274.16919" y2="111.521205" id="Path-32" stroke-width="2"></line>
            <path d="M254.003954,109.308617 L251.65673,58.460149 C251.541439,55.9625736 252.052281,53.4757936 253.142808,51.2259212 L266.517382,23.6327621 L266.517382,23.6327621" id="Path-33" stroke-width="1.5"></path>
            <polyline id="Path-34" stroke-width="2" points="470.334395 74.3498389 463.794504 71.8404364 475.928424 41.1715012 481.522453 43.2115294"></polyline>
            <path d="M486.579802,89.9327017 L474.744565,126.778378 C473.76009,127.819474 472.722867,128.478594 471.632898,128.755739 C470.542929,129.032883 468.987926,129.032883 466.967889,128.755739 L398.950445,124.670607 C399.732384,113.706802 394.832163,107.519099 384.24978,106.107497 C373.667397,104.695896 368.888737,110.007653 369.913801,122.042767 L274.558185,113.185102 L269.993835,60.5371814 C269.800839,59.6454197 269.704341,58.6601486 269.704341,57.5813682 C269.704341,56.5025878 269.800839,55.7205156 269.993835,55.2351518 L286.932157,23.4794951 C287.306302,22.7780549 288.060363,22.364807 288.852924,22.4268585 L476.735952,37.1366613 L476.735952,37.1366613 C478.217825,37.9268504 479.275503,38.7239423 479.908985,39.527937 C480.542467,40.3319317 481.08029,41.5597959 481.522453,43.2115294 L486.579802,89.9327017 Z" id="Path-2" stroke-width="2"></path>
            <polyline id="Path-3" stroke-width="2" points="272.959815 92.7252315 461.653694 109.308617 472.480285 97.2918105 470.334395 77.1193986 269.993835 59.0526189"></polyline>
            <line x1="470.334395" y1="77.1193986" x2="481.522453" y2="43.2115294" id="Path-4" stroke-width="1.62000002"></line>
            <line x1="323.015402" y1="96.7772171" x2="323.015402" y2="64.5792471" id="Path-5" stroke-width="1.5"></line>
            <line x1="359.74249" y1="99.8295243" x2="359.74249" y2="67.6698081" id="Path-6" stroke-width="1.5"></line>
            <line x1="403.068108" y1="104.00335" x2="403.068108" y2="71.8404364" id="Path-7" stroke-width="1.5"></line>
            <line x1="440.885351" y1="106.807214" x2="440.885351" y2="75.6441496" id="Path-8" stroke-width="1.5"></line>
        </g>
    </g>
</svg>
