<?xml version="1.0" encoding="UTF-8"?>
<svg width="1999px" height="1340px" preserveAspectRatio="xMidYMid slice" viewBox="0 0 1999 1340" version="1.1"
     xmlns="http://www.w3.org/2000/svg">
    <!-- Generator: Sketch 60.1 (88133) - https://sketch.com -->
    <desc>Created with Sketch.</desc>
    <g id="Intro-screen" stroke="none" stroke-width="1" fill="none" fill-rule="evenodd">
        <g id="AT_PSI_VILLIGEN" stroke="#FFFFFF">
            <g id="Group-7" transform="translate(724.000000, 737.000000)">
                <g id="Group-6" transform="translate(603.000000, 55.000000)">
                    <path d="M53.0263694,66.717829 L22.5553851,77.7666855 L8.94837738,77.7666855 L0,62.8710186 L8.94837738,62.8710186 L8.94837738,54.717867 L34.8429228,44.8256482 C37.1565535,27.43806 58.3556481,15.160667 98.4402067,7.99346937 C121.25678,3.91382129 178.361382,-2.05742759 228.261511,0.704852842 C285.793416,3.88959918 337.303814,14.7368086 359.861537,21.6241518 C381.16564,28.1287387 421.331341,40.0893202 428.835972,58.2542478 C436.340604,76.4191753 405.925172,90.2384702 384.409129,95.6681959 C355.386839,102.992176 307.404172,107.436111 240.461129,109 C191.376056,107.055205 156.166562,103.676519 134.832647,98.8639414 C113.498732,94.0513643 86.2299732,83.3359935 53.0263694,66.717829 Z"
                          id="Path-33" stroke-width="2" fill-opacity="0.1" fill="#FFFFFF"></path>
                    <path d="M436,71 C436,87.0415038 422.03627,98.8176066 392.473815,106.328308 C362.91136,113.83901 314.035637,118.39624 245.846645,120 C195.847997,118.005623 159.983181,114.540799 138.252198,109.605528 C116.521215,104.670256 88.744928,93.6817024 54.9233364,76.639866 L23.885224,87.9704076 L10.0249617,87.9704076 L0,71"
                          id="Path"></path>
                    <path d="M435.935458,71 C436.117706,71.4192702 439.471112,83.2256086 433.247849,93.2498599 C426.808326,103.622458 410.537126,112.280125 395.480107,116.149551 C365.871734,123.758455 316.920095,128.375271 248.625188,130 C198.54888,127.979547 162.628358,124.46942 140.863622,119.46962 C119.098885,114.469821 91.2794542,103.337592 57.4053294,86.0729342 C47.4474052,89.749918 39.9789621,92.5076559 35,94.3461478"
                          id="Path"></path>
                    <path d="M437,85 C437,91.5760554 436.260262,98.6591543 431.633346,104.663205 C424.817557,113.507614 411.322188,120.603972 393.679313,125.139474 C364.059525,132.753914 315.089013,137.374089 246.767776,139 C196.672162,136.978077 160.737791,133.465396 138.964664,128.461959 C117.191536,123.458521 89.3613799,112.318193 55.4741954,95.0409733 L44,99.1103326"
                          id="Path"></path>
                    <path d="M8.89308486,77.5413256 L8,94.7363973 L36.7923789,94.7363973 C56.2949265,108.191001 76.4908996,118.223441 97.3802982,124.833715 C112.169633,129.513676 145.822649,145.796476 217.867757,147.611033 C276.100005,149.077694 324.752356,146.572864 374.694473,137.075425 C408.711199,130.606501 424.550448,120.652795 429.994344,114.463147 C435.758813,107.909012 438.42798,97.8096592 438.001846,84.1650874 L467,85.2592448 L463.000674,70.8842649 L436.084986,70.4162378 C435.403686,65.3145804 433.651388,60.9572137 430.828093,57.3441377 C428.004798,53.7310616 424.244892,49.9496824 419.548376,46"
                          id="Path-34" stroke-width="2"></path>
                    <polyline id="Path-35" stroke-width="2" points="0.748658094 64 0 79.4727222 8 94"></polyline>
                    <path d="M264.271524,53.3813773 C261.231621,48.8744926 243.121712,45.3523342 221.247317,45.2711053 C199.761127,45.191318 181.929373,48.4584691 178.450912,52.8243353"
                          id="Path"
                          transform="translate(221.361218, 49.325526) rotate(2.000000) translate(-221.361218, -49.325526) "></path>
                    <path d="M261.996061,56.3759411 C255.348475,54.4044296 239.959119,52.9835652 222.040506,52.9170258 C204.454329,52.8517209 189.313251,54.1090814 182.485431,55.9729357"
                          id="Path"
                          transform="translate(222.240746, 54.645269) rotate(2.000000) translate(-222.240746, -54.645269) "></path>
                    <path d="M255.716068,59.5112914 C247.748303,58.8127205 235.984331,58.3458539 222.863093,58.2971292 C209.814373,58.2486738 198.110767,58.6237307 190.149831,59.256747"
                          id="Path"
                          transform="translate(222.932949, 58.902116) rotate(2.000000) translate(-222.932949, -58.902116) "></path>
                    <path d="M243,43 C249.554728,32.579455 255.243056,25.1789131 260.064986,20.7983741 C264.886916,16.4178351 272.53192,11.4850438 283,6"
                          id="Path-36"></path>
                    <path d="M252,45 C268.719598,34.8040423 281.779589,27.4098675 291.179974,22.8174758 C300.580359,18.2250841 309.187034,14.2859255 317,11"
                          id="Path-37"></path>
                    <path d="M231,40 C232.2835,31.0156741 233.636025,24.1125442 235.057574,19.2906103 C236.479123,14.4686763 238.793265,8.70513955 242,2"
                          id="Path-38"></path>
                    <path d="M215,38 C214.546181,30.7083323 213.61326,24.5549965 212.201236,19.5399928 C210.789212,14.524989 208.3888,8.01165804 205,0"
                          id="Path-39"></path>
                    <path d="M200,39 C195.146485,30.2791731 190.13081,23.2457582 184.952974,17.8997553 C179.775139,12.5537525 172.457481,6.92050068 163,1"
                          id="Path-40"></path>
                    <path d="M188,42 C176.036663,31.3826713 166.090318,23.6250288 158.160964,18.7270724 C150.23161,13.8291161 138.844622,8.92009192 124,4"
                          id="Path-41"></path>
                    <path d="M182,45 C152.969971,29.5142209 133.355283,20.6143858 123.155936,18.3004947 C107.729731,14.8008039 91.0110853,13.4371178 73,14.2094363"
                          id="Path-42"></path>
                    <path d="M177,49 C151.021716,38.1405136 130.366142,31.5287582 115.033278,29.1647338 C99.7004135,26.8007095 74.3559876,28.0353257 39,32.8685824"
                          id="Path-43"></path>
                    <path d="M261,49 C284.067232,38.6365109 302.45123,31.8990001 316.151994,28.7874676 C329.852759,25.6759351 350.468761,25.169357 378,27.2677332"
                          id="Path-44"></path>
                    <path d="M264,51 C291.103264,42.8241298 313.345287,38.037071 330.72607,36.6388234 C348.106852,35.2405758 373.864829,36.1376766 408,39.3301258"
                          id="Path-45"></path>
                    <path d="M264,54.9597898 C298.419107,48.5347323 324.990231,45.5652271 343.713374,46.0512744 C362.436517,46.5373217 391.198726,51.8535636 430,62"
                          id="Path-46"></path>
                    <path d="M261,56.9462412 C297.866295,54.3512529 325.806589,54.3512529 344.82088,56.9462412 C363.835172,59.5412294 388.228212,67.559149 418,81"
                          id="Path-47"></path>
                    <path d="M259,59.0011605 C286.927921,58.9415224 308.633491,61.1805543 324.11671,65.7182562 C339.599929,70.255958 358.561026,80.3498727 381,96"
                          id="Path-48" stroke-width="1.2"></path>
                    <path d="M254,60 C270.589771,63.3438632 283.206808,67.6995646 291.85111,73.0671042 C300.495412,78.4346437 311.878375,88.745609 326,104"
                          id="Path-49" stroke-width="1.2"></path>
                    <path d="M243,62 C248.289503,70.3815252 252.084505,77.244557 254.385007,82.5890955 C256.685508,87.933634 259.557173,96.0706021 263,107"
                          id="Path-50" stroke-width="1.2"></path>
                    <path d="M211,62 C205.883033,73.7716961 202.537456,82.3761002 200.963269,87.8132123 C199.389083,93.2503244 198.401327,99.3125869 198,106"
                          id="Path-51" stroke-width="1.2"></path>
                    <path d="M202,61 C194.82308,70.8423048 189.846628,78.1482273 187.070644,82.9177676 C184.29466,87.6873078 181.271112,94.7147186 178,104"
                          id="Path-52" stroke-width="1.2"></path>
                    <path d="M189,58 C179.533132,60.4328344 170.804341,64.612559 162.813628,70.5391738 C154.822914,76.4657885 145.218372,85.6193973 134,98"
                          id="Path-53" stroke-width="1.2"></path>
                    <path d="M184,55 C163.336844,55.7931168 147.120098,57.7617987 135.349763,60.9060456 C123.579428,64.0502926 107.796174,71.0816107 88,82"
                          id="Path-54" stroke-width="1.2"></path>
                    <path d="M182,53.3174273 C146.290337,49.8076859 120.232846,49.0828476 103.827528,51.1429123 C87.4222091,53.2029769 71.1463666,58.1553395 55,66"
                          id="Path-55" stroke-width="1.2"></path>
                    <line x1="226.5" y1="63" x2="226.5" y2="108" id="Path-56" stroke-width="1.2"></line>
                    <path d="M177,49.330921 C177,43.6282895 190.727167,39 221,39 C242.716853,39 265,45.9794178 265,52.440238 C265,58.9010582 249.079173,63.4975197 222.236856,62.9568295 C195.394538,62.4161392 177,55.0335524 177,49.330921 Z"
                          id="Path-7" stroke-width="2"></path>
                </g>
                <g id="Group-4">
                    <g id="Group-5" stroke-width="2">
                        <path d="M42.1337859,82.09713 L42.1337859,48.9501809 L72.6489611,16.4231198 L96.5352909,26.7269436 L104.98428,16.4231198 L128.454139,26.7269436 L135.273111,16.4231198 L159.482003,28.85507 L167.830158,16.4231198 L191.637824,28.85507 L199.163423,18.0935046 L219.118322,38.4583413 L230.110125,18.0935046 L253.359204,40.5172861 L261.07759,18.0935046 L287.562518,40.5172861 L293.147398,18.0935046 L323.238919,31.659419 L324.877111,18.0935046 L357.623155,31.659419 L357.623155,18.0935046 L362.772041,18.0935046 L359.055708,137.884459 L309.205394,137.884459 L309.205394,134.001091 L284.290088,134.001091 L284.290088,126.65275 L261.909958,126.65275 M246.580673,126.65275 L234.662856,126.65275 L234.662856,122.000856 L221.399136,122.000856 L219.118322,126.65275 L219.118322,137.884459 L194.600806,137.884459 L194.600806,122.000856 L191.040215,122.000856"
                              id="Shape" stroke-linecap="round"></path>
                        <line x1="42.1337859" y1="48.9501809" x2="361.886625" y2="52.3604887" id="Path-59"></line>
                        <line x1="357.623155" y1="31.659419" x2="357.623155" y2="52.3604887" id="Path-60"></line>
                        <line x1="77.5689732" y1="48.9501809" x2="96.5352909" y2="26.7269436" id="Path-61"></line>
                        <line x1="111.221651" y1="48.9501809" x2="128.454139" y2="26.7269436" id="Path-62"></line>
                        <line x1="145.347188" y1="50.6553348" x2="159.482003" y2="28.85507" id="Path-63"></line>
                        <line x1="191.637824" y1="28.85507" x2="179.372846" y2="50.6553348" id="Path-64"></line>
                        <line x1="219.118322" y1="38.4583413" x2="213.642267" y2="50.6553348" id="Path-65"></line>
                        <line x1="253.359204" y1="40.5172861" x2="249.951202" y2="50.6553348" id="Path-66"></line>
                        <line x1="287.562518" y1="40.5172861" x2="285.344451" y2="50.6553348" id="Path-67"></line>
                        <line x1="323.238919" y1="31.659419" x2="321.742789" y2="52.3604887" id="Path-68"></line>
                        <path d="M169.012941,142.065351 L169.012941,125.307826 L175.184368,112.365714 M181.812828,98.4651592 L193.426244,74.1106435"
                              id="Shape" stroke-linecap="round"></path>
                        <line x1="169.012941" y1="140.962407" x2="178.291057" y2="122.000856" id="Path-70"
                              stroke-linecap="round"></line>
                        <path d="M193.426244,74.1106435 L159.482003,74.1106435 L154.400499,84.3146536 M144.716156,103.761482 L133.986274,125.307826 L133.986274,146.567927"
                              id="Shape" stroke-linecap="round"></path>
                        <line x1="133.986274" y1="125.307826" x2="169.012941" y2="125.307826" id="Path-72"></line>
                        <line x1="193.426244" y1="74.1106435" x2="360.990218" y2="74.1106435" id="Path-73"></line>
                        <line x1="189.752721" y1="82.09713" x2="360.990218" y2="82.09713" id="Path-73-Copy"></line>
                        <line x1="187.752042" y1="86.0903733" x2="360.990218" y2="86.0903733"
                              id="Path-73-Copy-2"></line>
                        <line x1="182.089284" y1="98.070103" x2="360.990218" y2="98.070103" id="Path-73-Copy-3"></line>
                        <path d="M0.448203207,95.043426 L11.8583109,82.09713 L107.864666,83.4570907 L96.5352909,98.070103 L96.5352909,114.567437 L107.864666,101.805539 C107.864666,90.2870403 107.864666,84.1708909 107.864666,83.4570907"
                              id="Path-74"></path>
                        <line x1="0.448203207" y1="95.043426" x2="0.448203207" y2="106.022002" id="Path-75"></line>
                        <line x1="17.9390047" y1="113.531384" x2="96.5352909" y2="114.567437" id="Path-76"></line>
                        <polyline id="Path-77"
                                  points="4.80876205 125.307826 4.80876205 100.532714 8.98055643 95.043426 17.9390047 95.043426 14.1139322 100.532714 14.1139322 125.307826"></polyline>
                        <line x1="17.9390047" y1="95.043426" x2="17.9390047" y2="120.922585" id="Path-78"></line>
                        <path d="M0.448203207,95.043426 L8.44020854,95.2951686 M17.929929,95.5940883 L96.5352909,98.070103"
                              id="Shape"></path>
                        <path d="M183.814857,24.4151915 L183.814857,18.5943069 L194.964613,0 L302.422618,0.99332089 L300.162627,20.7341588 M292.406408,20.5894043 L263.594937,20.0516951 M260.272917,19.9896961 L231.45474,19.4518618 M229.221075,19.4101749 L199.988981,18.8646156 M198.255115,18.8322564 L183.814857,18.5943069"
                              id="Shape"></path>
                    </g>
                    <polyline id="Path-79" points="72.5096562 16 87 35.5852334 57 33.7624424 72 49"></polyline>
                    <path d="M400,143 L400,164.565334 L272,164.565334 L272,195 L400,195 C400,177.666667 400,167.521778 400,164.565334"
                          id="Path-58" stroke-width="2" stroke-linecap="round"></path>
                    <polyline id="Path-69" stroke-width="2"
                              points="272 195 49 195 49 173.086303 65.1667662 173.086303 68.2305962 166.990784 80.0590689 174.480819 84.9900169 166.990784 97.033204 174.480819 103.320251 166.990784 115.54766 174.480819 121.177654 167.656521 128.915666 173.086303 128.915666 164 272 165.033371"></polyline>
                    <polyline id="Path-71" stroke-width="1.9" stroke-linecap="round"
                              points="49 173 63.9231756 149.27665 77.9425533 149.27665 81.7582406 144.618934 94.0738656 151.884174 98.3504327 144.618934 112.045741 150.760249 115.702059 145.630247 127.092103 152.657415 133.428235 146.054068 136.667922 149.27665 139.842619 143 169 143 167.740499 146.054068"></polyline>
                    <polygon id="Path-80" stroke-width="2"
                             points="64 143 115.691259 143 118.33901 138.208597 125.155547 138.208597 139 110.789892 134.538789 108 132.306284 110.789892 120.260828 110.789892 120.260828 117.909045 81.2637031 117.909045"></polygon>
                    <polyline id="Path-81" stroke-width="1.9" points="120 110 122.520451 107 134 107"></polyline>
                    <polyline id="Path-82" stroke-width="1.9" points="120 118 132 118 132 111"></polyline>
                    <line x1="68" y1="167" x2="78" y2="149" id="Path-83" stroke-width="1.9"></line>
                    <line x1="85" y1="167" x2="94" y2="152" id="Path-84" stroke-width="1.9"></line>
                    <line x1="103" y1="167" x2="112" y2="151" id="Path-85" stroke-width="1.9"></line>
                    <line x1="121" y1="169" x2="127" y2="153" id="Path-86" stroke-width="1.9"></line>
                    <line x1="128" y1="164" x2="136" y2="149" id="Path-87" stroke-width="1.9"></line>
                    <line x1="285" y1="134" x2="272" y2="164" id="Path-88" stroke-width="1.9"></line>
                    <line x1="359" y1="138.5" x2="388" y2="138.5" id="Path-89" stroke-width="1.9"
                          stroke-linecap="round"></line>
                    <polyline id="Path-3" points="104.673748 16 121 34.9364551 91 32.5 104.673748 49"></polyline>
                    <polyline id="Path-4" points="135.571298 17 154 37.8518676 123 35.542109 135.571298 49"></polyline>
                    <polyline id="Path-5" points="168.41487 17 186 39.8258231 155 37.2884447 166.635941 50"></polyline>
                    <polyline id="Path-6" points="199.369994 19 215 46.5484751 184 42.4054014 188.594884 50"></polyline>
                    <polyline id="Path-8" points="230.178742 19 250 48.1033773 217 44.6377816 220.651233 50"></polyline>
                    <polyline id="Path-9" points="260.711371 19 285 45.8976059 253 43.7983791 260.711371 51"></polyline>
                    <path d="M293.606823,19 C313.689918,34.8519265 323.481576,42.7778898 322.981797,42.7778898 C322.482019,42.7778898 311.154753,43.2681769 289,44.248751 L304.933607,52"
                          id="Path-10"></path>
                    <polyline id="Path-11"
                              points="325.377271 18 358 41.7301092 323 47.5653924 330.201723 52"></polyline>
                </g>
                <g id="Group-12" transform="translate(478.000000, 99.000000)" stroke-width="2">
                    <path d="M1.8189894e-12,28.9421677 L1.8189894e-12,52.8029192 L8.53472885,94.2428823 L115.567644,94.2428823 L117.199271,70.3035502 C104.050585,40.9240406 97.4762422,26.2342858 97.4762422,26.2342858 C97.4762422,26.2342858 64.9841615,27.1369131 1.8189894e-12,28.9421677 Z"
                          id="Path-104"></path>
                    <polyline id="Path-105"
                              points="1.8189894e-12 28.9421677 9.81464785 71.9991985 117.199271 70.3035502"></polyline>
                    <polygon id="Path-106"
                             points="45.5005813 39.2246701 51.6911423 56.5525277 93.6414622 56.5525277 86.4156849 37.9159977"></polygon>
                    <polyline id="Path-107"
                              points="45.5005813 39.2246701 45.5005813 50.4706831 51.6911423 66.0940855 93.6414622 66.0940855 93.6414622 56.5525277"></polyline>
                    <line x1="51.6911423" y1="56.5525277" x2="51.6911423" y2="66.0940855" id="Path-108"></line>
                    <line x1="9.81464785" y1="71.9991985" x2="9.81464785" y2="94.2428823" id="Path-109"></line>
                    <polygon id="Path-110"
                             points="42.8683051 1.6896699 92.4445529 0.864672968 97.8158432 12.7177915 47.599716 14.2615546"></polygon>
                    <polyline id="Path-111"
                              points="42.8683051 1.6896699 42.8683051 20.801245 44.98488 27.2130757"></polyline>
                    <line x1="47.599716" y1="14.2615546" x2="47.599716" y2="27.2130757" id="Path-112"></line>
                    <line x1="97.8158432" y1="12.7177915" x2="97.4762422" y2="26.2342858" id="Path-113"></line>
                </g>
            </g>
        </g>
    </g>
</svg>
