<?xml version="1.0" encoding="UTF-8"?>
<svg width="2048px" height="1304px" preserveAspectRatio="xMidYMid slice" viewBox="0 0 2048 1304" version="1.1" xmlns="http://www.w3.org/2000/svg" xmlns:xlink="http://www.w3.org/1999/xlink">
    <!-- Generator: Sketch 60.1 (88133) - https://sketch.com -->
    <title>galerie_picture_974</title>
    <desc>Created with Sketch.</desc>
    <defs>
        <linearGradient x1="50%" y1="0%" x2="50%" y2="100%" id="linearGradient-1">
            <stop stop-color="#FFFFFF" stop-opacity="0.05" offset="0%"></stop>
            <stop stop-color="#FFFFFF" stop-opacity="0.1" offset="100%"></stop>
        </linearGradient>
    </defs>
    <g id="Intro-screen" stroke="none" stroke-width="1" fill="none" fill-rule="evenodd">
        <g id="galerie_picture_974">
            <g id="Group-14" transform="translate(657.000000, 520.000000)">
                <polyline id="Path-11" points="9.09494702e-13 207.690461 9.09494702e-13 163.916723 6.4171465 153.130475 13.5776547 153.130475 19.1917535 163.916723 19.1917535 173.219636 22.7620599 173.219636 22.7620599 84.893455 22.7620599 64.9876861 17.9887586 64.9876861 37.750474 23.4335227 39.4772375 0 42.5383513 21.7529064 56.1962357 51.3125677 55.3992059 42.8257878 61.5152242 42.8257878 61.5152242 35.7565725 66.6191501 35.7565725 66.6191501 28.5063556 71.2946443 28.5063556 71.2946443 20.7802338 74.1265837 20.7802338 74.1265837 12.1039942 76.6587902 7.56203609 76.0695329 4.3641468 78.6316083 5.69762036 80.1609528 1.11533125 82.0288494 3.08914966 84.7702053 3.48452733 80.900208 7.56203609 83.9616852 13.7360389 89.9621884 13.7360389 89.9621884 20.7802338 96.0799 25.2782103 105.475481 25.2782103 105.475481 33.0156093 111.829403 33.0156093 111.829403 41.2813529 116.740019 41.2813529 116.740019 47.988001 122.504937 47.988001 122.504937 56.504102 125.240353 56.504102 125.240353 63.7729267 129.316381 63.7729267 129.316381 59.7474718 199.654848 59.7474718 194.633187 56 226.818389 56 242.480479 59.0882709 298.652743 58.8718947 298.806028 52.4487317 373.018333 52.6896922 476.707095 52.6896922 497.182356 78.6400154 500.938319 110.916537 497.182356 114.767138 307.865542 110.916537 298.806028 52.6896922 298.806028 107.195949 125.240353 107.048964 127.852257 73.6153183 120.675344 73.6153183 120.675344 68.8766815 114.219206 68.8766815 114.219206 59.7474718 107.631299 59.7474718 107.631299 51.3125677 102.797058 51.3125677 102.797058 42.8257878 97.4330304 42.8257878 97.4330304 33.7556257 92.7918339 33.7556257 92.7918339 27.2186036 86.4533662 27.2186036 86.4533662 19.782509 83.9616852 19.782509 83.9616852 13.7360389"></polyline>
                <line x1="150.901314" y1="58.3676755" x2="150.901314" y2="108.475534" id="Path-8" stroke="#FFFFFF" stroke-width="0.5" transform="translate(150.901314, 83.421605) rotate(-20.000000) translate(-150.901314, -83.421605) "></line>
                <line x1="158.689657" y1="58.2564575" x2="158.689657" y2="108.804183" id="Path-8" stroke="#FFFFFF" stroke-width="0.5" transform="translate(158.689657, 83.530320) rotate(-20.000000) translate(-158.689657, -83.530320) "></line>
                <line x1="165.528967" y1="58.2414505" x2="165.528967" y2="108.630942" id="Path-8" stroke="#FFFFFF" stroke-width="0.5" transform="translate(165.528967, 83.436196) rotate(-20.000000) translate(-165.528967, -83.436196) "></line>
                <line x1="172.257441" y1="58.108043" x2="172.257441" y2="108.652808" id="Path-8" stroke="#FFFFFF" stroke-width="0.5" transform="translate(172.257441, 83.380426) rotate(-20.000000) translate(-172.257441, -83.380426) "></line>
                <line x1="179.027889" y1="58.2631911" x2="179.027889" y2="108.616764" id="Path-8" stroke="#FFFFFF" stroke-width="0.5" transform="translate(179.027889, 83.439977) rotate(-20.000000) translate(-179.027889, -83.439977) "></line>
                <line x1="186.935366" y1="58.1963803" x2="186.935366" y2="108.869899" id="Path-8" stroke="#FFFFFF" stroke-width="0.5" transform="translate(186.935366, 83.533140) rotate(-20.000000) translate(-186.935366, -83.533140) "></line>
                <line x1="193.669441" y1="58.1603644" x2="193.669441" y2="108.825152" id="Path-8" stroke="#FFFFFF" stroke-width="0.5" transform="translate(193.669441, 83.492758) rotate(-20.000000) translate(-193.669441, -83.492758) "></line>
                <line x1="201.598413" y1="58.292817" x2="201.598413" y2="108.997138" id="Path-8" stroke="#FFFFFF" stroke-width="0.5" transform="translate(201.598413, 83.644978) rotate(-20.000000) translate(-201.598413, -83.644978) "></line>
                <line x1="207.634532" y1="54.0574161" x2="207.558424" y2="108.884908" id="Path-8" stroke="#FFFFFF" stroke-width="0.5" transform="translate(207.596478, 81.471162) rotate(-20.000000) translate(-207.596478, -81.471162) "></line>
                <line x1="205.447191" y1="57.2233705" x2="224.447191" y2="107.797164" id="Path" stroke="#FFFFFF" stroke-width="0.5"></line>
                <line x1="213.234826" y1="56.9872691" x2="232.234826" y2="107.850901" id="Path" stroke="#FFFFFF" stroke-width="0.5"></line>
                <line x1="219.985839" y1="56.9934234" x2="238.985839" y2="107.584915" id="Path" stroke="#FFFFFF" stroke-width="0.5"></line>
                <line x1="227.7586" y1="56.7164567" x2="246.7586" y2="107.508152" id="Path" stroke="#FFFFFF" stroke-width="0.5"></line>
                <line x1="235.210555" y1="58.6484346" x2="254.210555" y2="107.684466" id="Path" stroke="#FFFFFF" stroke-width="0.5"></line>
                <line x1="242.371169" y1="59.7799577" x2="261.371169" y2="107.251566" id="Path" stroke="#FFFFFF" stroke-width="0.5"></line>
                <line x1="250.503368" y1="60.4905405" x2="269.503368" y2="107.541365" id="Path" stroke="#FFFFFF" stroke-width="0.5"></line>
                <line x1="257.115376" y1="60.1147802" x2="276.115376" y2="107.321367" id="Path" stroke="#FFFFFF" stroke-width="0.5"></line>
                <line x1="264.892711" y1="59.8503816" x2="283.892711" y2="107.356685" id="Path" stroke="#FFFFFF" stroke-width="0.5"></line>
                <line x1="271.386063" y1="59.6321542" x2="290.741137" y2="107.575056" id="Path" stroke="#FFFFFF" stroke-width="0.5"></line>
                <line x1="278.245446" y1="59.4263967" x2="297.513797" y2="107.147299" id="Path" stroke="#FFFFFF" stroke-width="0.5"></line>
                <line x1="285.912944" y1="59.6880947" x2="298.652743" y2="91.8412023" id="Path" stroke="#FFFFFF" stroke-width="0.5"></line>
                <line x1="292.869877" y1="59.6321542" x2="298.652743" y2="78.1960299" id="Path" stroke="#FFFFFF" stroke-width="0.5"></line>
                <line x1="299.658306" y1="57.5" x2="319.932092" y2="111.471583" id="Path" stroke="#FFFFFF" stroke-width="0.5"></line>
                <line x1="305.328238" y1="53.512771" x2="327.328238" y2="111.337774" id="Path" stroke="#FFFFFF" stroke-width="0.5"></line>
                <line x1="312.062423" y1="53.4726914" x2="334.062423" y2="111.39303" id="Path" stroke="#FFFFFF" stroke-width="0.5"></line>
                <line x1="319.932092" y1="53.4619771" x2="341.932092" y2="111.471583" id="Path" stroke="#FFFFFF" stroke-width="0.5"></line>
                <line x1="326.691385" y1="53.490881" x2="348.691385" y2="112.045572" id="Path" stroke="#FFFFFF" stroke-width="0.5"></line>
                <line x1="334.454519" y1="53.187466" x2="356.454519" y2="112.195438" id="Path" stroke="#FFFFFF" stroke-width="0.5"></line>
                <line x1="341.264833" y1="53.356548" x2="363.264833" y2="112.210344" id="Path" stroke="#FFFFFF" stroke-width="0.5"></line>
                <line x1="348.068584" y1="53.5075994" x2="370.068584" y2="112.176171" id="Path" stroke="#FFFFFF" stroke-width="0.5"></line>
                <line x1="355.836623" y1="53.2176592" x2="377.836623" y2="112.596681" id="Path" stroke="#FFFFFF" stroke-width="0.5"></line>
                <line x1="362.678311" y1="53.47294" x2="384.678311" y2="112.796667" id="Path" stroke="#FFFFFF" stroke-width="0.5"></line>
                <line x1="370.53599" y1="53.4292844" x2="392.53599" y2="112.648385" id="Path" stroke="#FFFFFF" stroke-width="0.5"></line>
                <line x1="388.033086" y1="50.9366955" x2="388.033086" y2="114.807094" id="Path-8" stroke="#FFFFFF" stroke-width="0.5" transform="translate(388.033086, 82.871895) rotate(-20.000000) translate(-388.033086, -82.871895) "></line>
                <line x1="394.765854" y1="50.8106461" x2="394.765854" y2="114.8452" id="Path-8" stroke="#FFFFFF" stroke-width="0.5" transform="translate(394.765854, 82.827923) rotate(-20.000000) translate(-394.765854, -82.827923) "></line>
                <line x1="402.628282" y1="50.8233382" x2="402.628282" y2="114.771291" id="Path-8" stroke="#FFFFFF" stroke-width="0.5" transform="translate(402.628282, 82.797315) rotate(-20.000000) translate(-402.628282, -82.797315) "></line>
                <line x1="409.421813" y1="50.3714925" x2="409.421813" y2="115.469081" id="Path-8" stroke="#FFFFFF" stroke-width="0.5" transform="translate(409.421813, 82.920287) rotate(-20.000000) translate(-409.421813, -82.920287) "></line>
                <line x1="417.358123" y1="50.7822636" x2="417.358123" y2="115.403073" id="Path-8" stroke="#FFFFFF" stroke-width="0.5" transform="translate(417.358123, 83.092668) rotate(-20.000000) translate(-417.358123, -83.092668) "></line>
                <line x1="424.189049" y1="50.9198004" x2="424.189049" y2="115.716963" id="Path-8" stroke="#FFFFFF" stroke-width="0.5" transform="translate(424.189049, 83.318382) rotate(-20.000000) translate(-424.189049, -83.318382) "></line>
                <line x1="431.023582" y1="50.999217" x2="431.023582" y2="116.108795" id="Path-8" stroke="#FFFFFF" stroke-width="0.5" transform="translate(431.023582, 83.554006) rotate(-20.000000) translate(-431.023582, -83.554006) "></line>
                <line x1="438.716235" y1="50.549618" x2="438.716235" y2="115.564269" id="Path-8" stroke="#FFFFFF" stroke-width="0.5" transform="translate(438.716235, 83.056944) rotate(-20.000000) translate(-438.716235, -83.056944) "></line>
                <line x1="445.581387" y1="50.5582564" x2="445.581387" y2="116.195127" id="Path-8" stroke="#FFFFFF" stroke-width="0.5" transform="translate(445.581387, 83.376692) rotate(-20.000000) translate(-445.581387, -83.376692) "></line>
                <line x1="453.437983" y1="50.7731272" x2="453.437983" y2="115.886993" id="Path-8" stroke="#FFFFFF" stroke-width="0.5" transform="translate(453.437983, 83.330060) rotate(-20.000000) translate(-453.437983, -83.330060) "></line>
                <line x1="460.233187" y1="50.7317566" x2="460.233187" y2="116.183503" id="Path-8" stroke="#FFFFFF" stroke-width="0.5" transform="translate(460.233187, 83.457630) rotate(-20.000000) translate(-460.233187, -83.457630) "></line>
                <line x1="467.021672" y1="50.668834" x2="467.021672" y2="116.464643" id="Path-8" stroke="#FFFFFF" stroke-width="0.5" transform="translate(467.021672, 83.566738) rotate(-20.000000) translate(-467.021672, -83.566738) "></line>
                <line x1="475.050347" y1="51.0858765" x2="475.050347" y2="116.8999" id="Path-8" stroke="#FFFFFF" stroke-width="0.5" transform="translate(475.050347, 83.992888) rotate(-20.000000) translate(-475.050347, -83.992888) "></line>
                <line x1="481.693395" y1="50.5633476" x2="481.693395" y2="116.841479" id="Path-8" stroke="#FFFFFF" stroke-width="0.5" transform="translate(481.693395, 83.702413) rotate(-20.000000) translate(-481.693395, -83.702413) "></line>
                <line x1="489.701002" y1="53.8183858" x2="489.701002" y2="114.322972" id="Path-8" stroke="#FFFFFF" stroke-width="0.5" transform="translate(489.701002, 84.070679) rotate(-20.000000) translate(-489.701002, -84.070679) "></line>
                <line x1="495.290571" y1="71.9985291" x2="495.290571" y2="89.7730574" id="Path-8" stroke="#FFFFFF" stroke-width="0.5" transform="translate(495.290571, 80.885793) rotate(-20.000000) translate(-495.290571, -80.885793) "></line>
                <line x1="144.295073" y1="57.8833104" x2="144.295073" y2="109.057356" id="Path-8-Copy" stroke="#FFFFFF" stroke-width="0.5" transform="translate(144.295073, 83.470333) rotate(-20.000000) translate(-144.295073, -83.470333) "></line>
                <line x1="130.347335" y1="86.6531647" x2="130.547736" y2="107.76131" id="Path" stroke="#FFFFFF" stroke-width="0.5" transform="translate(130.447535, 97.207237) rotate(-20.000000) translate(-130.447535, -97.207237) "></line>
                <line x1="132.759963" y1="62.1373668" x2="132.759963" y2="108.720354" id="Path-8" stroke="#FFFFFF" stroke-width="0.5" transform="translate(132.759963, 85.428860) rotate(-20.000000) translate(-132.759963, -85.428860) "></line>
                <line x1="138.809447" y1="58.369327" x2="138.809447" y2="108.645832" id="Path-8" stroke="#FFFFFF" stroke-width="0.5" transform="translate(138.809447, 83.507579) rotate(-20.000000) translate(-138.809447, -83.507579) "></line>
                <polyline id="Path-11-Copy" stroke="#FFFFFF" stroke-width="2" fill="url(#linearGradient-1)" points="9.09494702e-13 207.690461 9.09494702e-13 163.916723 6.4171465 153.130475 13.5776547 153.130475 19.1917535 163.916723 19.1917535 173.219636 22.7620599 173.219636 22.7620599 84.893455 22.7620599 64.9876861 17.9887586 64.9876861 37.750474 23.4335227 39.4772375 0 42.5383513 21.7529064 56.1962357 51.3125677 55.3992059 42.8257878 61.5152242 42.8257878 61.5152242 35.7565725 66.6191501 35.7565725 66.6191501 28.5063556 71.2946443 28.5063556 71.2946443 20.7802338 74.1265837 20.7802338 74.1265837 12.1039942 76.6587902 7.56203609 76.0695329 4.3641468 78.6316083 5.69762036 80.1609528 1.11533125 82.0288494 3.08914966 84.7702053 3.48452733 80.900208 7.56203609 83.9616852 13.7360389 89.9621884 13.7360389 89.9621884 20.7802338 96.0799 25.2782103 105.475481 25.2782103 105.475481 33.0156093 111.829403 33.0156093 111.829403 41.2813529 116.740019 41.2813529 116.740019 47.988001 122.504937 47.988001 122.504937 56.504102 125.240353 56.504102 125.240353 63.7729267 129.316381 63.7729267 129.316381 59.7474718 199.654848 59.7474718 194.926855 56.504102 197.435281 52.6896922 202.541168 38.86774 218.179697 25.2782103 222.195517 2.38967332 226.160763 24.504065 238.248203 33.0156093 244.760242 47.5127751 248.555656 47.5127751 248.555656 39.9501615 256.975482 39.9501615 256.975482 47.5127751 260.917492 47.5127751 260.917492 39.9501615 268.218889 39.9501615 268.218889 47.988001 273.040129 47.988001 273.040129 39.9501615 280.218167 39.9501615 280.218167 47.988001 284.915023 47.988001 284.915023 39.9501615 291.251079 39.9501615 295.146957 39.9501615 298.21828 34.5325925 298.806028 21.7529064 304.564929 16.1915049 307.865542 19.782509 312.458138 13.7360389 313.980437 0 315.514423 13.7360389 339.062851 13.7360389 341.235311 0.568361598 342.646253 13.7360389 373.018333 52.6896922 476.707095 52.6896922 497.182356 78.6400154 500.938319 110.916537 497.182356 114.767138 307.865542 110.916537 298.806028 52.6896922 298.806028 107.195949 125.240353 107.048964 127.852257 73.6153183 120.675344 73.6153183 120.675344 68.8766815 114.219206 68.8766815 114.219206 59.7474718 107.631299 59.7474718 107.631299 51.3125677 102.797058 51.3125677 102.797058 42.8257878 97.4330304 42.8257878 97.4330304 33.7556257 92.7918339 33.7556257 92.7918339 27.2186036 86.4533662 27.2186036 86.4533662 19.782509 83.9616852 19.782509 83.9616852 13.7360389"></polyline>
                <line x1="198.456646" y1="49.8516594" x2="200.814796" y2="56.1285331" id="Path-Copy-24" stroke="#FFFFFF" stroke-width="0.5"></line>
                <line x1="202.159491" y1="38.8788954" x2="208.646967" y2="56.2460831" id="Path-Copy-23" stroke="#FFFFFF" stroke-width="0.5"></line>
                <line x1="207.480128" y1="34.9485439" x2="215.348413" y2="55.8995038" id="Path-Copy-22" stroke="#FFFFFF" stroke-width="0.5"></line>
                <line x1="213.207401" y1="29.2824502" x2="223.166731" y2="55.9062008" id="Path-Copy-21" stroke="#FFFFFF" stroke-width="0.5"></line>
                <line x1="218.14696" y1="24.2268368" x2="230.856497" y2="57.0281668" id="Path-Copy-20" stroke="#FFFFFF" stroke-width="0.5"></line>
                <line x1="219.985839" y1="14" x2="238.675045" y2="58.5152855" id="Path-Copy-19" stroke="#FFFFFF" stroke-width="0.5"></line>
                <line x1="235.600747" y1="31.1134813" x2="246.764847" y2="58.7598043" id="Path-Copy-18" stroke="#FFFFFF" stroke-width="0.5"></line>
                <line x1="248.66267" y1="46.8046933" x2="253.587101" y2="59.0397242" id="Path-Copy-17" stroke="#FFFFFF" stroke-width="0.5"></line>
                <line x1="253.65014" y1="39.7468599" x2="261.399005" y2="59.1215939" id="Path-Copy-16" stroke="#FFFFFF" stroke-width="0.5"></line>
                <line x1="260.990992" y1="41.4237538" x2="268.222939" y2="59.3374292" id="Path-Copy-15" stroke="#FFFFFF" stroke-width="0.5"></line>
                <line x1="270.604647" y1="48.035774" x2="274.996066" y2="58.9117669" id="Path-Copy-14" stroke="#FFFFFF" stroke-width="0.5"></line>
                <line x1="274.730468" y1="39.7346021" x2="282.484247" y2="59.1214238" id="Path-Copy-13" stroke="#FFFFFF" stroke-width="0.5"></line>
                <line x1="284.546119" y1="48.0889707" x2="288.762925" y2="59.0882709" id="Path-Copy-12" stroke="#FFFFFF" stroke-width="0.5"></line>
                <line x1="288.734348" y1="39.6616607" x2="296.300526" y2="59.8038586" id="Path-Copy-11" stroke="#FFFFFF" stroke-width="0.5"></line>
                <line x1="295.810798" y1="39.0652296" x2="300.902662" y2="52.4487317" id="Path-Copy-10" stroke="#FFFFFF" stroke-width="0.5"></line>
                <line x1="298.360563" y1="28.0540719" x2="307.629313" y2="52.4563063" id="Path-Copy-9" stroke="#FFFFFF" stroke-width="0.5"></line>
                <line x1="302.319376" y1="17.7567686" x2="315.531235" y2="52.5938032" id="Path-Copy-8" stroke="#FFFFFF" stroke-width="0.5"></line>
                <polyline id="Path-Copy-7" stroke="#FFFFFF" stroke-width="0.5" points="308.97149 17.5595556 310.664717 22.0662085 322.184967 52.7282396"></polyline>
                <line x1="315.38822" y1="13.6918188" x2="329.8842" y2="52.5726541" id="Path-Copy-6" stroke="#FFFFFF" stroke-width="0.5"></line>
                <line x1="322.307025" y1="14.1445917" x2="336.691999" y2="52.6268783" id="Path-Copy-5" stroke="#FFFFFF" stroke-width="0.5"></line>
                <line x1="328.914784" y1="13.7642044" x2="343.461802" y2="52.5575124" id="Path-Copy-4" stroke="#FFFFFF" stroke-width="0.5"></line>
                <line x1="336.859431" y1="13.9782658" x2="351.172666" y2="52.6103509" id="Path-Copy-3" stroke="#FFFFFF" stroke-width="0.5"></line>
                <line x1="344.729435" y1="17.0038654" x2="357.855715" y2="52.3993108" id="Path-Copy-2" stroke="#FFFFFF" stroke-width="0.5"></line>
                <line x1="359.348915" y1="35.151715" x2="365.868753" y2="52.7016687" id="Path-Copy" stroke="#FFFFFF" stroke-width="0.5"></line>
                <polyline id="Path-12" stroke="#FFFFFF" stroke-width="2" fill-opacity="0.05" fill="#FFFFFF" points="424 52.944048 469.643107 4 573.971296 3.91407799 636.829234 75 614.709829 92.5805039 500.401371 92.5805039"></polyline>
                <line x1="443.654059" y1="34.9530983" x2="443.654059" y2="53.259872" id="Path-8" stroke="#FFFFFF" stroke-width="0.5" transform="translate(443.654059, 44.106485) rotate(-20.000000) translate(-443.654059, -44.106485) "></line>
                <line x1="449.393339" y1="29.4000495" x2="449.393339" y2="53.3249462" id="Path-8" stroke="#FFFFFF" stroke-width="0.5" transform="translate(449.393339, 41.362498) rotate(-20.000000) translate(-449.393339, -41.362498) "></line>
                <line x1="456.150073" y1="23.4539053" x2="456.150073" y2="53.2031354" id="Path-8" stroke="#FFFFFF" stroke-width="0.5" transform="translate(456.150073, 38.328520) rotate(-20.000000) translate(-456.150073, -38.328520) "></line>
                <line x1="461.880326" y1="17.6263295" x2="461.880326" y2="53.4931314" id="Path-8" stroke="#FFFFFF" stroke-width="0.5" transform="translate(461.880326, 35.559730) rotate(-20.000000) translate(-461.880326, -35.559730) "></line>
                <line x1="467.826538" y1="12.7778482" x2="467.826538" y2="53.9907175" id="Path-8" stroke="#FFFFFF" stroke-width="0.5" transform="translate(467.826538, 33.384283) rotate(-20.000000) translate(-467.826538, -33.384283) "></line>
                <line x1="477.208669" y1="5.79562766" x2="477.208669" y2="69.3314221" id="Path" stroke="#FFFFFF" stroke-width="0.5" transform="translate(477.208669, 37.563525) rotate(-20.000000) translate(-477.208669, -37.563525) "></line>
                <line x1="487.944177" y1="1.57750316" x2="487.944177" y2="95.5156148" id="Path-8" stroke="#FFFFFF" stroke-width="0.5" transform="translate(487.944177, 48.546559) rotate(-20.000000) translate(-487.944177, -48.546559) "></line>
                <line x1="509.125755" y1="1.1362636" x2="509.125755" y2="95.1026471" id="Path-8" stroke="#FFFFFF" stroke-width="0.5" transform="translate(509.125755, 48.119455) rotate(-20.000000) translate(-509.125755, -48.119455) "></line>
                <line x1="495.750379" y1="1.25491039" x2="495.750379" y2="95.5370304" id="Path-8" stroke="#FFFFFF" stroke-width="0.5" transform="translate(495.750379, 48.395970) rotate(-20.000000) translate(-495.750379, -48.395970) "></line>
                <line x1="502.472046" y1="1.11971702" x2="502.472046" y2="95.5824241" id="Path-8" stroke="#FFFFFF" stroke-width="0.5" transform="translate(502.472046, 48.351071) rotate(-20.000000) translate(-502.472046, -48.351071) "></line>
                <line x1="517.121299" y1="1.20314983" x2="517.121299" y2="95.7750052" id="Path-8" stroke="#FFFFFF" stroke-width="0.5" transform="translate(517.121299, 48.489078) rotate(-20.000000) translate(-517.121299, -48.489078) "></line>
                <line x1="523.807862" y1="1.20331971" x2="523.807862" y2="95.4921398" id="Path-8" stroke="#FFFFFF" stroke-width="0.5" transform="translate(523.807862, 48.347730) rotate(-20.000000) translate(-523.807862, -48.347730) "></line>
                <line x1="531.64455" y1="1.30420702" x2="531.64455" y2="95.2575941" id="Path-8" stroke="#FFFFFF" stroke-width="0.5" transform="translate(531.644550, 48.280901) rotate(-20.000000) translate(-531.644550, -48.280901) "></line>
                <line x1="538.3388" y1="1.11603521" x2="538.3388" y2="95.2053046" id="Path-8" stroke="#FFFFFF" stroke-width="0.5" transform="translate(538.338800, 48.160670) rotate(-20.000000) translate(-538.338800, -48.160670) "></line>
                <line x1="545.158036" y1="1.18816217" x2="545.158036" y2="95.5795133" id="Path-8" stroke="#FFFFFF" stroke-width="0.5" transform="translate(545.158036, 48.383838) rotate(-20.000000) translate(-545.158036, -48.383838) "></line>
                <line x1="552.963261" y1="1.39004702" x2="552.963261" y2="95.0710807" id="Path-8" stroke="#FFFFFF" stroke-width="0.5" transform="translate(552.963261, 48.230564) rotate(-20.000000) translate(-552.963261, -48.230564) "></line>
                <line x1="559.788827" y1="1.05450609" x2="559.788827" y2="95.88774" id="Path-8" stroke="#FFFFFF" stroke-width="0.5" transform="translate(559.788827, 48.471123) rotate(-20.000000) translate(-559.788827, -48.471123) "></line>
                <line x1="567.525632" y1="1.15177938" x2="567.525632" y2="95.1079575" id="Path-8" stroke="#FFFFFF" stroke-width="0.5" transform="translate(567.525632, 48.129868) rotate(-20.000000) translate(-567.525632, -48.129868) "></line>
                <line x1="574.375002" y1="1.22225513" x2="574.375002" y2="95.6493964" id="Path-8" stroke="#FFFFFF" stroke-width="0.5" transform="translate(574.375002, 48.435826) rotate(-20.000000) translate(-574.375002, -48.435826) "></line>
                <line x1="581.030674" y1="1.08633918" x2="581.030674" y2="95.3328684" id="Path-8" stroke="#FFFFFF" stroke-width="0.5" transform="translate(581.030674, 48.209604) rotate(-20.000000) translate(-581.030674, -48.209604) "></line>
                <line x1="588.568428" y1="1.33390922" x2="588.882965" y2="95.0928405" id="Path-8" stroke="#FFFFFF" stroke-width="0.5" transform="translate(588.725696, 48.213375) rotate(-20.000000) translate(-588.725696, -48.213375) "></line>
                <line x1="598.948649" y1="14.8686701" x2="598.10693" y2="95.0144124" id="Path-8" stroke="#FFFFFF" stroke-width="0.5" transform="translate(598.527789, 54.941541) rotate(-20.000000) translate(-598.527789, -54.941541) "></line>
                <line x1="607.903789" y1="29.5433061" x2="607.700913" y2="90.7051999" id="Path-8" stroke="#FFFFFF" stroke-width="0.5" transform="translate(607.802351, 60.124253) rotate(-20.000000) translate(-607.802351, -60.124253) "></line>
                <line x1="615.148331" y1="40.4560384" x2="615.535704" y2="86.2408308" id="Path-8" stroke="#FFFFFF" stroke-width="0.5" transform="translate(615.342017, 63.348435) rotate(-20.000000) translate(-615.342017, -63.348435) "></line>
                <line x1="623.591045" y1="54.0315644" x2="624.085017" y2="81.4080735" id="Path-8" stroke="#FFFFFF" stroke-width="0.5" transform="translate(623.838031, 67.719819) rotate(-20.000000) translate(-623.838031, -67.719819) "></line>
                <line x1="438.750675" y1="39.3850038" x2="438.750675" y2="52.7383144" id="Path" stroke="#FFFFFF" stroke-width="0.5" transform="translate(438.750675, 46.061659) rotate(-20.000000) translate(-438.750675, -46.061659) "></line>
                <line x1="429.129579" y1="48.4060113" x2="429.129579" y2="52.5582535" id="Path-8" stroke="#FFFFFF" stroke-width="0.5" transform="translate(429.129579, 50.482132) rotate(-20.000000) translate(-429.129579, -50.482132) "></line>
                <line x1="434.977267" y1="43.1495245" x2="434.977267" y2="52.9224608" id="Path-8" stroke="#FFFFFF" stroke-width="0.5" transform="translate(434.977267, 48.035993) rotate(-20.000000) translate(-434.977267, -48.035993) "></line>
                <polygon id="Path-13" stroke="#FFFFFF" stroke-width="2" fill-opacity="0.05" fill="#FFFFFF" points="601 103.581784 669.869924 48.6582658 808.820114 46 842.723466 79.1422208 876.426729 98.0120295 876.426729 103.581784"></polygon>
                <line x1="607.733111" y1="98.5039256" x2="607.733111" y2="103.698182" id="Path-8" stroke="#FFFFFF" stroke-width="0.5" transform="translate(607.733111, 101.101054) rotate(-20.000000) translate(-607.733111, -101.101054) "></line>
                <line x1="613.805901" y1="94.3347821" x2="613.805901" y2="104.13496" id="Path-8" stroke="#FFFFFF" stroke-width="0.5" transform="translate(613.805901, 99.234871) rotate(-20.000000) translate(-613.805901, -99.234871) "></line>
                <line x1="619.769891" y1="90.2009379" x2="619.769891" y2="103.938591" id="Path-8" stroke="#FFFFFF" stroke-width="0.5" transform="translate(619.769891, 97.069764) rotate(-20.000000) translate(-619.769891, -97.069764) "></line>
                <line x1="626.768321" y1="84.6711863" x2="626.768321" y2="104.638649" id="Path-8" stroke="#FFFFFF" stroke-width="0.5" transform="translate(626.768321, 94.654918) rotate(-20.000000) translate(-626.768321, -94.654918) "></line>
                <line x1="632.790507" y1="80.8412575" x2="632.790507" y2="104.45815" id="Path-8" stroke="#FFFFFF" stroke-width="0.5" transform="translate(632.790507, 92.649704) rotate(-20.000000) translate(-632.790507, -92.649704) "></line>
                <line x1="639.720329" y1="75.7432508" x2="639.720329" y2="104.34947" id="Path-8" stroke="#FFFFFF" stroke-width="0.5" transform="translate(639.720329, 90.046360) rotate(-20.000000) translate(-639.720329, -90.046360) "></line>
                <line x1="645.723178" y1="71.3165319" x2="645.723178" y2="104.6595" id="Path-8" stroke="#FFFFFF" stroke-width="0.5" transform="translate(645.723178, 87.988016) rotate(-20.000000) translate(-645.723178, -87.988016) "></line>
                <line x1="651.681485" y1="66.8822063" x2="651.681485" y2="104.732387" id="Path-8" stroke="#FFFFFF" stroke-width="0.5" transform="translate(651.681485, 85.807296) rotate(-20.000000) translate(-651.681485, -85.807296) "></line>
                <line x1="658.75863" y1="62.116834" x2="658.75863" y2="105.1006" id="Path-8" stroke="#FFFFFF" stroke-width="0.5" transform="translate(658.758630, 83.608717) rotate(-20.000000) translate(-658.758630, -83.608717) "></line>
                <line x1="664.724485" y1="57.66609" x2="664.724485" y2="105.231377" id="Path-8" stroke="#FFFFFF" stroke-width="0.5" transform="translate(664.724485, 81.448734) rotate(-20.000000) translate(-664.724485, -81.448734) "></line>
                <line x1="671.66536" y1="52.6409706" x2="671.66536" y2="105.110545" id="Path-8" stroke="#FFFFFF" stroke-width="0.5" transform="translate(671.665360, 78.875758) rotate(-20.000000) translate(-671.665360, -78.875758) "></line>
                <line x1="677.719361" y1="48.6667298" x2="677.719361" y2="105.249181" id="Path-8" stroke="#FFFFFF" stroke-width="0.5" transform="translate(677.719361, 76.957955) rotate(-20.000000) translate(-677.719361, -76.957955) "></line>
                <line x1="684.108777" y1="46.7302912" x2="684.108777" y2="105.193099" id="Path-8" stroke="#FFFFFF" stroke-width="0.5" transform="translate(684.108777, 75.961695) rotate(-20.000000) translate(-684.108777, -75.961695) "></line>
                <line x1="692.080741" y1="46.9287267" x2="692.080741" y2="105.514497" id="Path-8" stroke="#FFFFFF" stroke-width="0.5" transform="translate(692.080741, 76.221612) rotate(-20.000000) translate(-692.080741, -76.221612) "></line>
                <line x1="698.728839" y1="46.6212738" x2="698.728839" y2="105.250883" id="Path-8" stroke="#FFFFFF" stroke-width="0.5" transform="translate(698.728839, 75.936078) rotate(-20.000000) translate(-698.728839, -75.936078) "></line>
                <line x1="706.504374" y1="46.215034" x2="706.504374" y2="105.097587" id="Path-8" stroke="#FFFFFF" stroke-width="0.5" transform="translate(706.504374, 75.656311) rotate(-20.000000) translate(-706.504374, -75.656311) "></line>
                <line x1="713.36505" y1="46.2495283" x2="713.36505" y2="105.660129" id="Path-8" stroke="#FFFFFF" stroke-width="0.5" transform="translate(713.365050, 75.954829) rotate(-20.000000) translate(-713.365050, -75.954829) "></line>
                <line x1="720.08659" y1="46.2868038" x2="720.08659" y2="105.455338" id="Path-8" stroke="#FFFFFF" stroke-width="0.5" transform="translate(720.086590, 75.871071) rotate(-20.000000) translate(-720.086590, -75.871071) "></line>
                <line x1="727.961355" y1="46.2940229" x2="727.961355" y2="105.433849" id="Path-8" stroke="#FFFFFF" stroke-width="0.5" transform="translate(727.961355, 75.863936) rotate(-20.000000) translate(-727.961355, -75.863936) "></line>
                <line x1="734.559496" y1="45.7603683" x2="734.559496" y2="105.121925" id="Path-8" stroke="#FFFFFF" stroke-width="0.5" transform="translate(734.559496, 75.441147) rotate(-20.000000) translate(-734.559496, -75.441147) "></line>
                <line x1="742.494982" y1="45.5385582" x2="742.494982" y2="105.663122" id="Path-8" stroke="#FFFFFF" stroke-width="0.5" transform="translate(742.494982, 75.600840) rotate(-20.000000) translate(-742.494982, -75.600840) "></line>
                <line x1="749.212135" y1="45.4793948" x2="749.212135" y2="105.530669" id="Path-8" stroke="#FFFFFF" stroke-width="0.5" transform="translate(749.212135, 75.505032) rotate(-20.000000) translate(-749.212135, -75.505032) "></line>
                <line x1="755.937852" y1="45.3684916" x2="755.937852" y2="105.497013" id="Path-8" stroke="#FFFFFF" stroke-width="0.5" transform="translate(755.937852, 75.432752) rotate(-20.000000) translate(-755.937852, -75.432752) "></line>
                <line x1="763.754554" y1="45.1183856" x2="763.754554" y2="105.413795" id="Path-8" stroke="#FFFFFF" stroke-width="0.5" transform="translate(763.754554, 75.266090) rotate(-20.000000) translate(-763.754554, -75.266090) "></line>
                <line x1="770.560475" y1="45.3092069" x2="770.560475" y2="105.519134" id="Path-8" stroke="#FFFFFF" stroke-width="0.5" transform="translate(770.560475, 75.414170) rotate(-20.000000) translate(-770.560475, -75.414170) "></line>
                <line x1="778.436599" y1="45.2385431" x2="778.436599" y2="105.582998" id="Path-8" stroke="#FFFFFF" stroke-width="0.5" transform="translate(778.436599, 75.410771) rotate(-20.000000) translate(-778.436599, -75.410771) "></line>
                <line x1="785.085444" y1="45.0309229" x2="785.085444" y2="105.223648" id="Path-8" stroke="#FFFFFF" stroke-width="0.5" transform="translate(785.085444, 75.127285) rotate(-20.000000) translate(-785.085444, -75.127285) "></line>
                <line x1="791.806389" y1="44.7683215" x2="791.806389" y2="105.315468" id="Path-8" stroke="#FFFFFF" stroke-width="0.5" transform="translate(791.806389, 75.041895) rotate(-20.000000) translate(-791.806389, -75.041895) "></line>
                <line x1="799.658167" y1="44.4800451" x2="799.658167" y2="105.463165" id="Path-8" stroke="#FFFFFF" stroke-width="0.5" transform="translate(799.658167, 74.971605) rotate(-20.000000) translate(-799.658167, -74.971605) "></line>
                <line x1="806.364409" y1="44.3939198" x2="806.364409" y2="105.297719" id="Path-8" stroke="#FFFFFF" stroke-width="0.5" transform="translate(806.364409, 74.845819) rotate(-20.000000) translate(-806.364409, -74.845819) "></line>
                <line x1="814.245188" y1="44.0685257" x2="814.245188" y2="105.641886" id="Path-8" stroke="#FFFFFF" stroke-width="0.5" transform="translate(814.245188, 74.855206) rotate(-20.000000) translate(-814.245188, -74.855206) "></line>
                <line x1="821.387871" y1="46.6693121" x2="821.387871" y2="105.18775" id="Path-8" stroke="#FFFFFF" stroke-width="0.5" transform="translate(821.387871, 75.928531) rotate(-20.000000) translate(-821.387871, -75.928531) "></line>
                <line x1="830.153525" y1="57.7548479" x2="830.153525" y2="105.167019" id="Path-8" stroke="#FFFFFF" stroke-width="0.5" transform="translate(830.153525, 81.460933) rotate(-20.000000) translate(-830.153525, -81.460933) "></line>
                <line x1="840.110592" y1="69.7440134" x2="840.110592" y2="104.605742" id="Path-8" stroke="#FFFFFF" stroke-width="0.5" transform="translate(840.110592, 87.174878) rotate(-20.000000) translate(-840.110592, -87.174878) "></line>
                <line x1="848.598308" y1="79.4958468" x2="848.598308" y2="104.39145" id="Path-8" stroke="#FFFFFF" stroke-width="0.5" transform="translate(848.598308, 91.943649) rotate(-20.000000) translate(-848.598308, -91.943649) "></line>
                <line x1="857.493903" y1="85.0531288" x2="857.493903" y2="104.429318" id="Path-8" stroke="#FFFFFF" stroke-width="0.5" transform="translate(857.493903, 94.741223) rotate(-20.000000) translate(-857.493903, -94.741223) "></line>
                <line x1="864.984778" y1="89.4927525" x2="864.984778" y2="104.049643" id="Path-8" stroke="#FFFFFF" stroke-width="0.5" transform="translate(864.984778, 96.771198) rotate(-20.000000) translate(-864.984778, -96.771198) "></line>
                <line x1="872.660838" y1="94.7569612" x2="872.660838" y2="103.862964" id="Path-8" stroke="#FFFFFF" stroke-width="0.5" transform="translate(872.660838, 99.309963) rotate(-20.000000) translate(-872.660838, -99.309963) "></line>
                <polyline id="Path-18" stroke="#FFFFFF" stroke-width="2" points="993.115861 141.5 866 141.5 866 123.430634 940.582089 123.430634 958.764268 118 993.115861 139.645069 1060.97 139.645069 1060.97 135.978299 1167.85438 135.978299 1167.85438 128.822535 1193.71159 128.822535 1198.63168 135.978299 1198.63168 145.145225 1216.83451 145.145225 1217.52068 139.645069 1245.6061 139.645069 1251.12191 142.300796 1251.12191 195.516333 1251.12191 209.895703 1275 235.682276 1275 252"></polyline>
                <line x1="897.634358" y1="122.484936" x2="898.572458" y2="142.244888" id="Path-8" stroke="#FFFFFF" stroke-width="0.5" transform="translate(898.103408, 132.364912) rotate(-20.000000) translate(-898.103408, -132.364912) "></line>
                <line x1="904.20921" y1="122.277764" x2="905.147352" y2="141.519781" id="Path-8" stroke="#FFFFFF" stroke-width="0.5" transform="translate(904.678281, 131.898772) rotate(-20.000000) translate(-904.678281, -131.898772) "></line>
                <line x1="912.272087" y1="122.825301" x2="913.210232" y2="142.040217" id="Path-8" stroke="#FFFFFF" stroke-width="0.5" transform="translate(912.741159, 132.432759) rotate(-20.000000) translate(-912.741159, -132.432759) "></line>
                <line x1="918.960394" y1="122.738715" x2="919.89855" y2="141.818027" id="Path-8" stroke="#FFFFFF" stroke-width="0.5" transform="translate(919.429472, 132.278371) rotate(-20.000000) translate(-919.429472, -132.278371) "></line>
                <line x1="925.72744" y1="122.507909" x2="926.665548" y2="142.172671" id="Path-8" stroke="#FFFFFF" stroke-width="0.5" transform="translate(926.196494, 132.340290) rotate(-20.000000) translate(-926.196494, -132.340290) "></line>
                <line x1="933.570135" y1="122.605891" x2="934.50827" y2="141.932529" id="Path-8" stroke="#FFFFFF" stroke-width="0.5" transform="translate(934.039202, 132.269210) rotate(-20.000000) translate(-934.039202, -132.269210) "></line>
                <line x1="940.35277" y1="122.810182" x2="941.290921" y2="141.937938" id="Path-8" stroke="#FFFFFF" stroke-width="0.5" transform="translate(940.821846, 132.374060) rotate(-20.000000) translate(-940.821846, -132.374060) "></line>
                <line x1="947.870129" y1="120.93958" x2="948.808132" y2="141.877734" id="Path-8" stroke="#FFFFFF" stroke-width="0.5" transform="translate(948.339130, 131.408657) rotate(-20.000000) translate(-948.339130, -131.408657) "></line>
                <line x1="954.343337" y1="119.23421" x2="955.281183" y2="142.091607" id="Path-8" stroke="#FFFFFF" stroke-width="0.5" transform="translate(954.812260, 130.662908) rotate(-20.000000) translate(-954.812260, -130.662908) "></line>
                <line x1="960.706258" y1="117.406984" x2="961.643976" y2="141.821234" id="Path-8" stroke="#FFFFFF" stroke-width="0.5" transform="translate(961.175117, 129.614109) rotate(-20.000000) translate(-961.175117, -129.614109) "></line>
                <line x1="969.536413" y1="122.60875" x2="970.474551" y2="141.905824" id="Path-8" stroke="#FFFFFF" stroke-width="0.5" transform="translate(970.005482, 132.257287) rotate(-20.000000) translate(-970.005482, -132.257287) "></line>
                <line x1="977.258565" y1="128.337707" x2="978.197201" y2="141.551811" id="Path-8" stroke="#FFFFFF" stroke-width="0.5" transform="translate(977.727883, 134.944759) rotate(-20.000000) translate(-977.727883, -134.944759) "></line>
                <line x1="985.047861" y1="133.79866" x2="986.061581" y2="141.576101" id="Path-8" stroke="#FFFFFF" stroke-width="0.5" transform="translate(985.554721, 137.687380) rotate(-20.000000) translate(-985.554721, -137.687380) "></line>
                <line x1="891.939091" y1="122.534773" x2="892.877233" y2="141.783722" id="Path-8-Copy" stroke="#FFFFFF" stroke-width="0.5" transform="translate(892.408162, 132.159247) rotate(-20.000000) translate(-892.408162, -132.159247) "></line>
                <line x1="873.904492" y1="122.687844" x2="874.842681" y2="141.359865" id="Path-8" stroke="#FFFFFF" stroke-width="0.5" transform="translate(874.373587, 132.023855) rotate(-20.000000) translate(-874.373587, -132.023855) "></line>
                <line x1="868.090153" y1="128.480853" x2="868.864145" y2="141.150801" id="Path-8-Copy-2" stroke="#FFFFFF" stroke-width="0.5" transform="translate(868.477149, 134.815827) rotate(-20.000000) translate(-868.477149, -134.815827) "></line>
                <line x1="880.713139" y1="122.445392" x2="881.651259" y2="141.954753" id="Path-8" stroke="#FFFFFF" stroke-width="0.5" transform="translate(881.182199, 132.200073) rotate(-20.000000) translate(-881.182199, -132.200073) "></line>
                <line x1="887.368541" y1="122.224533" x2="888.306665" y2="141.685958" id="Path-8" stroke="#FFFFFF" stroke-width="0.5" transform="translate(887.837603, 131.955245) rotate(-20.000000) translate(-887.837603, -131.955245) "></line>
                <polyline id="Path-2" stroke="#FFFFFF" stroke-width="2" points="195 56 226.818389 56 242.751416 59 298 59"></polyline>
                <polyline id="Path-3" stroke="#FFFFFF" stroke-width="2" points="298 53 302.84502 46.2313088 313 14"></polyline>
                <line x1="298" y1="52.5" x2="373" y2="52.5" id="Path-4" stroke="#FFFFFF" stroke-width="2"></line>
                <polyline id="Path-14" stroke="#FFFFFF" stroke-width="2" points="866 104 866 228 848.890979 228 841.239727 217.426447 803.138257 204.939864 789.785305 185.940756 739 185.940756"></polyline>
                <polyline id="Path-15" stroke="#FFFFFF" stroke-width="2" points="754 264 754 215.286597 754 207.790743 731.593345 177.285328 712.032787 177.285328 712.032787 170.805994 706.211402 166 701.313922 173.960535 701.313922 177.285328 681.935405 177.285328 670.879863 170.805994 652.043553 170.805994 634 181.167841"></polyline>
                <polyline id="Path-16" stroke="#FFFFFF" stroke-width="2" points="754 215 649 215 670.492194 170.996731"></polyline>
                <path d="M496.674362,269 L500,162 L415.43955,162 L415.43955,195.522703 C410.12851,195.522703 403.536006,195.522703 395.662038,195.522703 C387.78807,195.522703 376.358913,192.846321 361.374567,187.493558 L317.433949,181.543597 L298.886595,181.543597 L298.886595,195.522703 L270.851159,195.522703 L266.816668,203.758566 L256.375239,198.442555 L231.139011,195.522703 L223.083094,198.442555 L223.083094,220.120958 L206.122657,220.120958 L206.122657,198.442555 L182.770479,187.493558 L157.441833,187.493558 L145.430546,207.755281 L124.486905,208.066274 L124.486905,192.251999 L92.1179062,192.251999 L84.0895693,170.887378 L81.2042927,170.887378 L78.7506938,173.759803 L78.7506938,184.281734 L73.8214768,184.281734 L73.8214768,170.260129 L64.4707635,170.260129 L61.8845376,174.261191 L61.8845376,184.281734 L56.4847253,184.281734 L56.4847253,170.260129 L47.8332479,170.260129 L45.6213476,174.261191 L45.6213476,183.894368 L39.1922681,183.894368 L39.1922681,170.260129 L32.1026142,170.260129 L30.5738195,173.759803 L24,173.759803" id="Path-22" stroke="#FFFFFF" stroke-width="2" fill-opacity="0.05" fill="#FFFFFF"></path>
                <line x1="307.5" y1="111" x2="307.5" y2="181" id="Path-23" stroke="#FFFFFF" stroke-width="2"></line>
                <line x1="337.5" y1="112" x2="337.5" y2="184" id="Path-24" stroke="#FFFFFF" stroke-width="2"></line>
                <line x1="500.5" y1="111" x2="500.5" y2="162" id="Path-25" stroke="#FFFFFF" stroke-width="2"></line>
                <line x1="415.5" y1="113" x2="415.5" y2="161" id="Path-26" stroke="#FFFFFF" stroke-width="2"></line>
                <polyline id="Path-27" stroke="#FFFFFF" stroke-width="2" points="634 104 634 127.433238 623.574748 127.433238 623.574748 139 619.92354 139 619.92354 127.433238 609.927877 127.433238 609.927877 139 606.308202 139 606.308202 127.433238 596.232102 127.433238 596.232102 139 591.273149 139 591.273149 127.433238 582.955272 127.433238 582.955272 139 578.402526 139 578.402526 127.433238 568.915628 127.433238 568.915628 139 564.840814 139 564.840814 127.433238 553.966374 127.433238 553.966374 138.076328 551.010307 138.076328 551.010307 127.433238 542 127.433238"></polyline>
                <line x1="931.5" y1="142" x2="931.5" y2="179" id="Path-28" stroke="#FFFFFF" stroke-width="2"></line>
                <line x1="943.5" y1="141" x2="943.5" y2="205" id="Path-28-Copy" stroke="#FFFFFF" stroke-width="2"></line>
                <polyline id="Path-28-Copy-2" stroke="#FFFFFF" stroke-width="2" points="985.5 142 985.5 178.803698 985.5 209"></polyline>
                <path d="M358.103169,186 L398.896831,186 C402.879028,154.015274 396.080085,137.68852 378.5,137.019738 C360.919915,136.350955 354.120972,152.677709 358.103169,186 Z" id="Path-32" stroke="#FFFFFF" stroke-width="2"></path>
                <line x1="689.5" y1="104" x2="689.5" y2="176" id="Path-94" stroke="#FFFFFF" stroke-width="2"></line>
                <line x1="23" y1="64.5" x2="46" y2="64.5" id="Path-95" stroke="#FFFFFF" stroke-width="2"></line>
                <polyline id="Path-96" stroke="#FFFFFF" stroke-width="2" points="23 89 35.7872601 89 35.7872601 79.0713125 41.2136014 79.0713125 41.2136014 70.7967944 46.789845 70.7967944 46.789845 61.8915631 51.8286793 61.8915631 51.8286793 54 57 54"></polyline>
                <line x1="38" y1="23.5" x2="43" y2="23.5" id="Path-97" stroke="#FFFFFF" stroke-width="2"></line>
                <line x1="40.5" y1="65" x2="40.5" y2="23" id="Path-98" stroke="#FFFFFF" stroke-width="0.5"></line>
                <path d="M23,65 C24.895143,63.5045782 27.1672618,59.4844563 29.8163564,52.9396345 C32.4654509,46.3948126 35.8599988,36.4149345 40,23" id="Path-99" stroke="#FFFFFF" stroke-width="0.5"></path>
                <line x1="0" y1="163.5" x2="19" y2="163.5" id="Path-100" stroke="#FFFFFF" stroke-width="2"></line>
                <polyline id="Path-101" stroke="#FFFFFF" stroke-width="2" points="8 152 9 143 10 152"></polyline>
            </g>
        </g>
    </g>
</svg>
