<?xml version="1.0" encoding="UTF-8"?>
<svg width="1999px" height="1274px" preserveAspectRatio="xMidYMid slice" viewBox="0 0 1999 1274" version="1.1" xmlns="http://www.w3.org/2000/svg" xmlns:xlink="http://www.w3.org/1999/xlink">
    <!-- Generator: Sketch 60.1 (88133) - https://sketch.com -->
    <title>galerie_picture_905</title>
    <desc>Created with Sketch.</desc>
    <g id="galerie_picture_905" stroke="none" stroke-width="1" fill="none" fill-rule="evenodd">
        <g id="Group-7" transform="translate(701.205534, 785.700421)" stroke="#FFFFFF">
            <g id="Group-6" transform="translate(627.794466, 50.299579)">
                <path d="M56.5879715,66.006941 L24.6091454,76.8369486 L10.3288016,76.8369486 L0.937618147,62.2363259 L10.3288016,62.2363259 L10.3288016,54.2446669 L37.5047259,44.5483871 C39.9328455,27.5052015 62.180967,15.4709915 104.24909,8.44575729 C128.194731,4.44691636 188.125126,-1.40605771 240.494539,1.30150918 C300.873382,4.42317402 354.932746,15.0555286 378.606727,21.8064516 C400.965053,28.1821997 443.118335,39.9058734 450.994329,57.7110012 C458.870323,75.516129 426.949799,89.0616999 404.369045,94.383877 C373.910601,101.562789 323.553535,105.9187 253.297848,107.451613 C201.783824,105.545339 164.832006,102.233576 142.442393,97.5163231 C120.05278,92.7990706 91.4346394,82.2959432 56.5879715,66.006941 Z" id="Path-33" stroke-width="2" fill-opacity="0.1" fill="#FFFFFF"></path>
                <path d="M458.480187,70.6774194 C458.480187,86.5182724 443.826515,98.1470769 412.803393,105.563833 C381.78027,112.980589 330.489618,117.480817 258.931438,119.064516 C206.462379,117.095085 168.825498,113.6736 146.020797,108.80006 C123.216096,103.92652 94.0673941,93.0754138 58.5746925,76.2467406 L26.0030005,87.4355572 L11.4579088,87.4355572 L0.937618147,70.6774194" id="Path"></path>
                <path d="M459.023005,70.6774194 C459.214609,71.0900418 462.740169,82.7091828 456.197423,92.574493 C449.427314,102.782627 432.3208,111.303021 416.490798,115.111095 C385.362421,122.599354 333.897751,127.142968 262.096789,128.741935 C209.449714,126.753518 171.68514,123.299047 148.803068,118.378522 C125.920995,113.457997 96.6733982,102.502277 61.0602776,85.5113623 C50.5911435,89.1300451 42.7392929,91.8440572 37.5047259,93.6533986" id="Path"></path>
                <path d="M460.142198,84.3939729 C460.142198,90.8552688 459.364482,97.8147598 454.500018,103.714033 C447.334304,112.404098 433.146077,119.376616 414.59741,123.832968 C383.45693,131.314528 331.972253,135.854076 260.143377,137.451613 C207.475835,135.464974 169.696579,132.013594 146.805611,127.097472 C123.914642,122.18135 94.655675,111.235433 59.0287093,94.25972 L46.9654242,98.2580645" id="Path"></path>
                <path d="M10.3137996,77.1496989 L9.37618147,93.8674843 L39.6042797,93.8674843 C60.0793134,106.948627 81.2823498,116.702594 103.213389,123.129386 C118.740187,127.679444 154.071297,143.510281 229.708903,145.27447 C290.844875,146.700421 341.923255,144.265118 394.355714,135.031301 C430.06867,128.741935 446.697735,119.064516 452.413089,113.046675 C458.465,106.674465 461.267264,96.8554412 460.819881,83.5896039 L491.264016,84.6533906 L487.065265,70.6774194 L458.807438,70.2223833 C458.092165,65.2623335 456.25249,61.0259149 453.288413,57.5131276 C450.324335,54.0003402 446.376943,50.3239214 441.446237,46.483871" id="Path-34" stroke-width="2"></path>
                <polyline id="Path-35" stroke-width="2" points="1.72731799 63.6937742 0.937618147 78.7754025 9.37618147 92.9354839"></polyline>
                <path d="M278.269849,53.1747668 C275.091901,48.7651782 256.103371,45.3569867 233.157656,45.3301104 C210.619161,45.3037111 191.906044,48.5486279 188.246666,52.8357264" id="Path" transform="translate(233.258258, 49.252359) rotate(2.000000) translate(-233.258258, -49.252359) "></path>
                <path d="M275.888446,56.1168963 C268.919982,54.2007656 252.780206,52.8453631 233.984012,52.8233471 C215.536535,52.8017396 199.650742,54.0704997 192.483969,55.9136065" id="Path" transform="translate(234.186208, 54.469986) rotate(2.000000) translate(-234.186208, -54.469986) "></path>
                <path d="M269.303275,59.2061892 C260.946894,58.5407708 248.60779,58.1115825 234.843928,58.0954609 C221.156134,58.0794284 208.878324,58.4752114 200.525897,59.1147821" id="Path" transform="translate(234.914586, 58.650590) rotate(2.000000) translate(-234.914586, -58.650590) "></path>
                <path d="M256.907372,42.6129032 C263.748824,32.5728896 269.685978,25.4425962 274.718834,21.2220232 C279.75169,17.0014502 287.731111,12.2487915 298.657097,6.96404735" id="Path-36"></path>
                <path d="M265.345936,44.5483871 C282.790353,34.6813312 296.416514,27.5256783 306.22442,23.0814282 C316.032326,18.6371781 325.012113,14.8250892 333.163782,11.6451613" id="Path-37"></path>
                <path d="M243.914567,40.0718974 C245.266487,31.2277693 246.691111,24.4323607 248.188438,19.6856716 C249.685766,14.9389825 252.123268,9.26538407 255.500945,2.66487626" id="Path-38"></path>
                <path d="M226.107979,39.1935484 C225.658123,31.9225968 224.733348,25.7867432 223.333655,20.7859874 C221.933961,15.7852316 219.554511,9.29040551 216.195303,1.30150918" id="Path-39"></path>
                <path d="M210.488155,40.0718974 C205.400807,31.3228637 200.143485,24.2666999 194.71619,18.9034059 C189.288896,13.5401119 181.618686,7.88863989 171.705561,1.9489899" id="Path-40"></path>
                <path d="M197.837429,42.6129032 C185.388375,32.1678509 175.038203,24.5360836 166.786913,19.7176013 C158.535623,14.899119 146.686318,10.0697485 131.238997,5.22948986" id="Path-41"></path>
                <path d="M191.274102,44.5483871 C161.031933,29.3826984 140.598239,20.6668225 129.973022,18.4007594 C113.9027,14.9734071 96.4859724,13.6379083 77.7228396,14.394263" id="Path-42"></path>
                <path d="M187.104725,49.3899502 C159.764933,39.0471471 138.026811,32.7499723 121.890359,30.4984259 C105.753907,28.2468794 79.0811933,29.4227538 41.8722166,34.0260491" id="Path-43"></path>
                <path d="M274.722117,48.4193548 C299.022057,38.2666161 318.388492,31.6661184 332.821422,28.6178616 C347.254353,25.5696047 368.972069,25.0733283 397.974572,27.1290323" id="Path-44"></path>
                <path d="M278.693108,51.016129 C307.184579,43.2605688 330.565821,38.7196059 348.836832,37.3932403 C367.107844,36.0668746 394.185123,36.9178568 430.06867,39.9461866" id="Path-45"></path>
                <path d="M277.782235,55.1513302 C313.950024,48.9305163 341.871109,46.0554077 361.545492,46.5260042 C381.219874,46.9966007 411.443363,52.1438466 452.215958,61.9677419" id="Path-46"></path>
                <path d="M275.159175,57.5038285 C313.806262,55.0385962 343.096185,55.0385962 363.028944,57.5038285 C382.961703,59.9690607 408.533025,67.5860642 439.742911,80.3548387" id="Path-47"></path>
                <path d="M272.810871,58.6505904 C302.224396,58.5906472 325.084577,60.8411336 341.391414,65.4020496 C357.698251,69.9629656 377.667969,80.108519 401.300567,95.8387097" id="Path-48" stroke-width="1.2"></path>
                <path d="M268.046525,60.4059987 C285.355582,63.6871376 298.519658,67.9611346 307.538752,73.2279897 C316.557847,78.4948447 328.434344,88.6123966 343.168242,103.580645" id="Path-49" stroke-width="1.2"></path>
                <path d="M256.439868,62.4113 C262.018999,70.6234288 266.021797,77.3477539 268.448263,82.5842756 C270.874729,87.8207972 273.903632,95.7933115 277.534972,106.501819" id="Path-50" stroke-width="1.2"></path>
                <path d="M222.026925,62.4113 C216.565272,73.9435034 212.994333,82.3728526 211.314108,87.6993478 C209.633882,93.0258429 208.579589,98.96477 208.151229,105.516129" id="Path-51" stroke-width="1.2"></path>
                <path d="M212.078752,61.1431366 C204.735829,70.8566923 199.644271,78.0670446 196.804078,82.7741935 C193.963886,87.4813425 190.870403,94.4168263 187.523629,103.580645" id="Path-52" stroke-width="1.2"></path>
                <path d="M198.952486,58.0967742 C189.077313,60.509989 179.97205,64.6560061 171.636698,70.5348256 C163.301345,76.4136451 153.28256,85.4934344 141.58034,97.7741935" id="Path-53" stroke-width="1.2"></path>
                <path d="M193.563696,55.551965 C172.082219,56.3089691 155.223242,58.1880114 142.986767,61.1890922 C130.750293,64.1901729 114.341975,70.9013357 93.7618147,81.3225806" id="Path-54" stroke-width="1.2"></path>
                <path d="M191.274102,53.5652522 C153.837504,50.1687283 126.519861,49.4672719 109.321174,51.4608828 C92.1224868,53.4544938 75.0595372,58.2471028 58.1323251,65.8387097" id="Path-55" stroke-width="1.2"></path>
                <line x1="237.6862" y1="63.3723705" x2="237.6862" y2="107.451613" id="Path-56" stroke-width="1.2"></line>
                <path d="M187.104725,49.3899502 C187.104725,43.761458 201.391647,39.1933404 232.898917,39.1933404 C255.50132,39.1933404 278.693108,46.0820195 278.693108,52.4588433 C278.693108,58.8356671 262.123076,63.3723705 234.186208,62.8387097 C206.249339,62.3050489 187.104725,55.0184423 187.104725,49.3899502 Z" id="Path-7" stroke-width="2"></path>
            </g>
            <g id="Group-4" transform="translate(0.794466, 0.299579)">
                <g id="Group-5" transform="translate(0.000000, 0.000000)" stroke-width="2">
                    <path d="M44.0521341,80.5577557 L44.0521341,48.0323333 L75.956663,16.1151757 L100.930536,26.2257961 L109.764207,16.1151757 L134.302646,26.2257961 L141.432086,16.1151757 L166.743207,28.3140188 L175.471453,16.1151757 L200.36308,28.3140188 L208.231319,17.7542397 L229.094763,37.7372225 L240.587022,17.7542397 L264.89463,39.7575608 L272.964433,17.7542397 L300.655218,39.7575608 L306.494377,17.7542397 L337.955963,31.0657844 L339.668742,17.7542397 L373.905711,31.0657844 L373.905711,17.7542397 L379.289025,17.7542397 L375.403488,135.299036 L323.283493,135.299036 L323.283493,131.488484 L297.233795,131.488484 L297.233795,124.277929 L273.834699,124.277929 M257.807473,124.277929 L245.347038,124.277929 L245.347038,119.71326 L231.479422,119.71326 L229.094763,124.277929 L229.094763,135.299036 L203.460966,135.299036 L203.460966,119.71326 L199.738262,119.71326" id="Shape" stroke-linecap="round"></path>
                    <line x1="44.0521341" y1="48.0323333" x2="378.363296" y2="51.3786956" id="Path-59"></line>
                    <line x1="373.905711" y1="31.0657844" x2="373.905711" y2="51.3786956" id="Path-60"></line>
                    <line x1="81.1006828" y1="48.0323333" x2="100.930536" y2="26.2257961" id="Path-61"></line>
                    <line x1="116.285564" y1="48.0323333" x2="134.302646" y2="26.2257961" id="Path-62"></line>
                    <line x1="151.964835" y1="49.7055145" x2="166.743207" y2="28.3140188" id="Path-63"></line>
                    <line x1="200.36308" y1="28.3140188" x2="187.539678" y2="49.7055145" id="Path-64"></line>
                    <line x1="229.094763" y1="37.7372225" x2="223.369383" y2="49.7055145" id="Path-65"></line>
                    <line x1="264.89463" y1="39.7575608" x2="261.331461" y2="49.7055145" id="Path-66"></line>
                    <line x1="300.655218" y1="39.7575608" x2="298.336162" y2="49.7055145" id="Path-67"></line>
                    <line x1="337.955963" y1="31.0657844" x2="336.391714" y2="51.3786956" id="Path-68"></line>
                    <path d="M176.708087,139.401534 L176.708087,122.958223 L183.1605,110.258784 M190.090753,96.6188737 L202.232927,72.721021" id="Shape" stroke-linecap="round"></path>
                    <line x1="176.708087" y1="138.319271" x2="186.408636" y2="119.71326" id="Path-70" stroke-linecap="round"></line>
                    <path d="M202.232927,72.721021 L166.743207,72.721021 L161.430342,82.7336993 M151.305072,101.815887 L140.086659,122.958223 L140.086659,143.819684" id="Shape" stroke-linecap="round"></path>
                    <line x1="140.086659" y1="122.958223" x2="176.708087" y2="122.958223" id="Path-72"></line>
                    <line x1="202.232927" y1="72.721021" x2="377.426076" y2="72.721021" id="Path-73"></line>
                    <line x1="198.392148" y1="80.5577557" x2="377.426076" y2="80.5577557" id="Path-73-Copy"></line>
                    <line x1="196.300379" y1="84.476123" x2="377.426076" y2="84.476123" id="Path-73-Copy-2"></line>
                    <line x1="190.379795" y1="96.2312251" x2="377.426076" y2="96.2312251" id="Path-73-Copy-3"></line>
                    <path d="M0.468609865,93.2613002 L12.3982189,80.5577557 L112.775736,81.8922162 L100.930536,96.2312251 L100.930536,112.419223 L112.775736,99.8966191 C112.775736,88.5940999 112.775736,82.5926322 112.775736,81.8922162" id="Path-74"></path>
                    <line x1="0.468609865" y1="93.2613002" x2="0.468609865" y2="104.034021" id="Path-75"></line>
                    <line x1="18.7557663" y1="111.402597" x2="100.930536" y2="112.419223" id="Path-76"></line>
                    <polyline id="Path-77" points="5.02770463 122.958223 5.02770463 98.6476604 9.3894405 93.2613002 18.7557663 93.2613002 14.7565385 98.6476604 14.7565385 122.958223"></polyline>
                    <line x1="18.7557663" y1="93.2613002" x2="18.7557663" y2="118.655208" id="Path-78"></line>
                    <path d="M0.468609865,93.2613002 L8.82449061,93.5083225 M18.7462774,93.8016372 L100.930536,96.2312251" id="Shape"></path>
                    <path d="M192.183934,23.9573909 L192.183934,18.2456516 L203.841337,0 L316.191897,0.97469548 L313.829009,20.3453799 M305.71965,20.2033396 L275.596395,19.6757128 M272.123123,19.6148764 L241.992857,19.0871268 M239.657494,19.0462215 L209.094464,18.5108918 M207.281655,18.4791394 L192.183934,18.2456516" id="Shape"></path>
                </g>
                <polyline id="Path-79" points="75.956663 16.1151757 91.0156092 35.0577509 59.8384064 33.2947719 75.4270078 48.0323333"></polyline>
                <path d="M417.375745,140.76462 L417.375745,161.689663 L283.902936,161.689663 L283.902936,191.220701 L417.375745,191.220701 C417.375745,174.402007 417.375745,164.558328 417.375745,161.689663" id="Path-58" stroke-width="2" stroke-linecap="round"></path>
                <polyline id="Path-69" stroke-width="2" points="283.902936 191.220701 50.6995727 191.220701 50.6995727 169.625538 67.6060491 169.625538 70.8100647 163.618623 83.179749 170.999784 88.3363125 163.618623 100.930536 170.999784 107.505246 163.618623 120.29212 170.999784 126.179715 164.274682 134.271779 169.625538 134.271779 160.671312 283.902936 161.689663"></polyline>
                <polyline id="Path-71" stroke-width="1.9" stroke-linecap="round" points="50.6995727 169.625538 66.3050933 146.215925 80.9654909 146.215925 84.9556461 141.619807 97.8343889 148.788966 102.306497 141.619807 116.628007 147.679904 120.451507 142.617745 132.362347 149.55198 138.988191 143.035962 142.37601 146.215925 145.695866 140.022283 176.186434 140.022283 174.869344 143.035962"></polyline>
                <polygon id="Path-80" stroke-width="2" points="66.5504338 140.022283 120.438233 140.022283 123.198496 135.299036 130.304691 135.299036 144.737443 108.270352 140.086659 105.520146 137.759288 108.270352 125.201978 108.270352 125.201978 115.288238 84.5477312 115.288238"></polygon>
                <polyline id="Path-81" stroke-width="1.9" points="125.023596 107.944937 127.698149 105.317486 139.879568 105.317486"></polyline>
                <polyline id="Path-82" stroke-width="1.9" points="125.023596 115.36851 137.685394 115.36851 137.685394 108.270352"></polyline>
                <line x1="70.8100647" y1="163.618623" x2="80.9654909" y2="146.215925" id="Path-83" stroke-width="1.9"></line>
                <line x1="88.3363125" y1="163.618623" x2="97.8343889" y2="148.788966" id="Path-84" stroke-width="1.9"></line>
                <line x1="107.505246" y1="163.618623" x2="116.628007" y2="147.679904" id="Path-85" stroke-width="1.9"></line>
                <line x1="125.705918" y1="164.926371" x2="132.451582" y2="149.574275" id="Path-86" stroke-width="1.9"></line>
                <line x1="134.271779" y1="160.671312" x2="142.37601" y2="146.215925" id="Path-87" stroke-width="1.9"></line>
                <line x1="297.233795" y1="131.488484" x2="283.902936" y2="160.671312" id="Path-88" stroke-width="1.9"></line>
                <line x1="375.403488" y1="135.299036" x2="405.284576" y2="135.299036" id="Path-89" stroke-width="1.9" stroke-linecap="round"></line>
                <polyline id="Path-3" points="109.764207 16.1151757 126.608217 34.4302612 95.6568209 32.0737545 109.764207 48.0323333"></polyline>
                <polyline id="Path-4" points="141.428129 16.7351991 160.504208 37.1290647 128.415218 34.8700389 141.428129 48.0323333"></polyline>
                <polyline id="Path-5" points="175.503422 16.7351991 193.951379 39.0097666 161.430342 36.5336672 173.637209 48.9382319"></polyline>
                <polyline id="Path-6" points="208.144952 19.0462215 224.375979 45.61007 192.183934 41.6150764 196.955506 48.9382319"></polyline>
                <polyline id="Path-8" points="240.751644 18.7785567 261.331461 47.0930214 227.068553 43.7213685 230.859518 48.9382319"></polyline>
                <polyline id="Path-9" points="272.953382 18.5108918 298.336162 44.7315376 264.89463 42.6851443 272.953382 49.7055145"></polyline>
                <path d="M306.527087,18.7785567 C327.479671,34.4384054 337.695255,42.2683297 337.173839,42.2683297 C336.652423,42.2683297 324.834747,42.752676 301.720813,43.7213685 L318.34426,51.3786956" id="Path-10"></path>
                <polyline id="Path-11" points="339.668742 17.7542397 373.905711 41.22224 337.173839 46.9930701 344.731918 51.3786956"></polyline>
            </g>
            <g id="Group-12" transform="translate(500.794466, 97.299579)" stroke-width="2">
                <path d="M1.8189894e-12,27.7235501 L1.8189894e-12,50.5796384 L8.8963699,90.274761 L120.464578,90.274761 L122.165342,67.3434007 C108.459508,39.2009231 101.606591,25.1296842 101.606591,25.1296842 C101.606591,25.1296842 67.7377276,25.9943062 1.8189894e-12,27.7235501 Z" id="Path-104"></path>
                <polyline id="Path-105" points="1.8189894e-12 27.7235501 10.2305228 68.9676533 122.165342 67.3434007"></polyline>
                <polygon id="Path-106" points="47.4285721 37.573105 53.8814449 54.1713686 97.6093208 54.1713686 90.0773664 36.3195347"></polygon>
                <polyline id="Path-107" points="47.4285721 37.573105 47.4285721 48.3456017 53.8814449 63.3111766 97.6093208 63.3111766 97.6093208 54.1713686"></polyline>
                <line x1="53.8814449" y1="54.1713686" x2="53.8814449" y2="63.3111766" id="Path-108"></line>
                <line x1="10.2305228" y1="68.9676533" x2="10.2305228" y2="90.274761" id="Path-109"></line>
                <polygon id="Path-110" points="44.6847587 1.6185259 96.361695 0.828265685 101.960582 12.1823055 49.6166531 13.661068"></polygon>
                <polyline id="Path-111" points="44.6847587 1.6185259 44.6847587 19.9254032 46.891019 26.067262"></polyline>
                <line x1="49.6166531" y1="13.661068" x2="49.6166531" y2="26.067262" id="Path-112"></line>
                <line x1="101.960582" y1="12.1823055" x2="101.606591" y2="25.1296842" id="Path-113"></line>
            </g>
        </g>
    </g>
</svg>
