<?xml version="1.0" encoding="UTF-8"?>
<svg width="2048px" height="1304px" preserveAspectRatio="xMidYMid slice" viewBox="0 0 2048 1304" version="1.1" xmlns="http://www.w3.org/2000/svg" xmlns:xlink="http://www.w3.org/1999/xlink">
    <!-- Generator: Sketch 59.1 (86144) - https://sketch.com -->
    <title>galerie_picture_974</title>
    <desc>Created with Sketch.</desc>
    <defs>
        <linearGradient x1="50%" y1="0%" x2="50%" y2="100%" id="linearGradient-1">
            <stop stop-color="#FFFFFF" stop-opacity="0.05" offset="0%"></stop>
            <stop stop-color="#FFFFFF" stop-opacity="0.1" offset="100%"></stop>
        </linearGradient>
        <polyline id="path-2" points="4.26325641e-13 207.690461 4.26325641e-13 163.916723 6.4171465 153.130475 13.5776547 153.130475 19.1917535 163.916723 19.1917535 173.219636 22.7620599 173.219636 22.7620599 84.893455 22.7620599 64.9876861 17.9887586 64.9876861 37.750474 23.4335227 39.4772375 1.42108547e-13 42.5383513 21.7529064 56.1962357 51.3125677 55.3992059 42.8257878 61.5152242 42.8257878 61.5152242 35.7565725 66.6191501 35.7565725 66.6191501 28.5063556 71.2946443 28.5063556 71.2946443 20.7802338 74.1265837 20.7802338 74.1265837 12.1039942 76.6587902 7.56203609 76.0695329 4.3641468 78.6316083 5.69762036 80.1609528 1.11533125 82.0288494 3.08914966 84.7702053 3.48452733 80.900208 7.56203609 83.9616852 13.7360389 89.9621884 13.7360389 89.9621884 20.7802338 96.0799 25.2782103 105.475481 25.2782103 105.475481 33.0156093 111.829403 33.0156093 111.829403 41.2813529 116.740019 41.2813529 116.740019 47.988001 122.504937 47.988001 122.504937 56.504102 125.240353 56.504102 125.240353 63.7729267 129.316381 63.7729267 129.316381 59.7474718 199.654848 59.7474718 194.926855 56.504102 197.435281 52.6896922 202.541168 38.86774 218.179697 25.2782103 222.195517 2.38967332 226.160763 24.504065 238.248203 33.0156093 244.760242 47.5127751 248.555656 47.5127751 248.555656 39.9501615 256.975482 39.9501615 256.975482 47.5127751 260.917492 47.5127751 260.917492 39.9501615 268.218889 39.9501615 268.218889 47.988001 273.040129 47.988001 273.040129 39.9501615 280.218167 39.9501615 280.218167 47.988001 284.915023 47.988001 284.915023 39.9501615 291.251079 39.9501615 295.146957 39.9501615 298.21828 34.5325925 298.806028 21.7529064 304.564929 16.1915049 307.865542 19.782509 312.458138 13.7360389 313.980437 1.42108547e-13 315.514423 13.7360389 339.062851 13.7360389 341.235311 0.568361598 342.646253 13.7360389 373.018333 52.6896922 476.707095 52.6896922 497.182356 78.6400154 500.938319 110.916537 497.182356 114.767138 307.865542 110.916537 298.806028 52.6896922 298.806028 107.195949 125.240353 107.048964 127.852257 73.6153183 120.675344 73.6153183 120.675344 68.8766815 114.219206 68.8766815 114.219206 59.7474718 107.631299 59.7474718 107.631299 51.3125677 102.797058 51.3125677 102.797058 42.8257878 97.4330304 42.8257878 97.4330304 33.7556257 92.7918339 33.7556257 92.7918339 27.2186036 86.4533662 27.2186036 86.4533662 19.782509 83.9616852 19.782509 83.9616852 13.7360389"></polyline>
        <polyline id="path-4" points="-3.41060513e-13 48.944048 45.6431072 2.08242363e-14 147.166472 -1.42108547e-14 209.240641 71.1531467 187.671944 88.5805039 76.4013712 88.5805039"></polyline>
        <polygon id="path-6" points="-4.54747351e-13 57.5817836 68.8699236 2.65826584 207.820114 0 241.723466 33.1422208 275.426729 52.0120295 275.426729 57.5817836"></polygon>
    </defs>
    <g id="galerie_picture_974" stroke="none" stroke-width="1" fill="none" fill-rule="evenodd">
        <g id="Group-14" transform="translate(657.000000, 322.000000)">
            <g id="Path-33" transform="translate(0.000000, 198.000000)">
                <mask id="mask-3" fill="white">
                    <use xlink:href="#path-2"></use>
                </mask>
                <use id="Path-11" stroke="#FFFFFF" stroke-width="2" fill="url(#linearGradient-1)" xlink:href="#path-2"></use>
                <g id="Path-9" mask="url(#mask-3)" stroke="#FFFFFF" stroke-width="0.5">
                    <g transform="translate(319.352357, 93.704290) rotate(-20.000000) translate(-319.352357, -93.704290) translate(141.852357, -151.795710)">
                        <line x1="22.7246835" y1="59.0468609" x2="22.7246835" y2="429.725888" id="Path-8"></line>
                        <line x1="29.0664557" y1="67.4051415" x2="29.0664557" y2="490.796004" id="Path-8"></line>
                        <line x1="36.4651899" y1="53.2542899" x2="36.4651899" y2="476.645153" id="Path-8"></line>
                        <line x1="42.806962" y1="6.33502538" x2="42.806962" y2="429.725888" id="Path-8"></line>
                        <line x1="49.1487342" y1="6.33502538" x2="49.1487342" y2="429.725888" id="Path-8"></line>
                        <line x1="56.5474684" y1="6.33502538" x2="56.5474684" y2="429.725888" id="Path-8"></line>
                        <line x1="62.8892405" y1="6.33502538" x2="62.8892405" y2="429.725888" id="Path-8"></line>
                        <line x1="70.2879747" y1="6.33502538" x2="70.2879747" y2="429.725888" id="Path-8"></line>
                        <line x1="76.6297468" y1="6.33502538" x2="76.6297468" y2="429.725888" id="Path-8"></line>
                        <path d="M67.0800083,0.557141944 L67.0800083,164.302838 M82.971519,172.090278 L82.971519,429.725888" id="Shape"></path>
                        <path d="M74.4787425,0.557141944 L74.4787425,166.962997 M90.3702532,174.531944 L90.3702532,429.725888" id="Shape"></path>
                        <path d="M80.8205147,0.557141944 L80.8205147,169.583597 M96.7120253,176.846709 L96.7120253,429.725888" id="Shape"></path>
                        <path d="M88.2192488,0.557141944 L88.2192488,172.508021 M104.110759,179.244886 L104.110759,429.725888" id="Shape"></path>
                        <path d="M94.561021,0.557141944 L94.561021,176.305403 M110.452532,183.60907 L110.452532,429.725888" id="Shape"></path>
                        <path d="M100.902793,0.557141944 L100.902793,177.278683 M116.794304,187.121429 L116.794304,429.725888" id="Shape"></path>
                        <path d="M108.301527,0.557141944 L108.301527,180.895183 M124.193038,190.570534 L124.193038,429.725888" id="Shape"></path>
                        <path d="M114.643299,0.557141944 L114.643299,185.290032 M130.53481,192.478875 L130.53481,429.725888" id="Shape"></path>
                        <path d="M122.042034,0.557141944 L122.042034,188.190604 M137.933544,194.890426 L137.933544,429.725888" id="Shape"></path>
                        <path d="M128.383806,0.557141944 L128.383806,190.626336 M144.275316,197.490009 L144.275316,429.725888" id="Shape"></path>
                        <path d="M134.725578,0.557141944 L134.725578,192.898291 M150.617089,199.868067 L150.617089,429.725888" id="Shape"></path>
                        <path d="M142.124312,0.557141944 L142.124312,195.579151 M158.015823,202.755967 L158.015823,429.725888" id="Shape"></path>
                        <path d="M148.466084,0.557141944 L148.466084,197.834585 M164.357595,204.87717 L164.357595,429.725888" id="Shape"></path>
                        <path d="M155.864818,0.557141944 L155.462491,200.341715 M171.756329,208.443392 L171.756329,429.725888" id="Shape"></path>
                        <path d="M162.206591,0.557141944 C162.233555,135.251009 162.247037,202.597942 162.247037,202.597942 M178.098101,202.764785 L178.098101,429.725888" id="Shape"></path>
                        <path d="M168.548363,0.557141944 L169.086498,205.295173 M184.439873,205.03035 L184.439873,429.725888" id="Shape"></path>
                        <path d="M175.947097,0.557141944 L175.947097,200.728154 M191.838608,207.711867 L191.838608,429.725888" id="Shape"></path>
                        <path d="M182.288869,0.557141944 L182.288869,203.075703 M198.18038,210.050842 L198.18038,429.725888" id="Shape"></path>
                        <path d="M189.687603,0.557141944 L189.687603,205.629909 M205.579114,212.420874 L205.579114,429.725888" id="Shape"></path>
                        <path d="M196.029375,0.557141944 L196.029375,208.113401 M211.920886,214.909023 L211.920886,429.725888" id="Shape"></path>
                        <path d="M202.371148,0.557141944 L202.371148,210.386635 M218.262658,217.377985 L218.262658,429.725888" id="Shape"></path>
                        <path d="M209.769882,0.557141944 L209.769882,212.948896 M225.661392,219.762356 L225.661392,429.725888" id="Shape"></path>
                        <path d="M216.111654,0.557141944 L216.111654,215.249663 M232.003165,222.342237 L232.003165,429.725888" id="Shape"></path>
                        <path d="M223.510388,0.557141944 L223.510388,218.097454 M239.401899,224.988698 L239.401899,429.725888" id="Shape"></path>
                        <path d="M230.462924,3.08496595 L230.462924,220.625278" id="Shape-Copy"></path>
                        <path d="M236.42224,5.25167224 L236.42224,222.791984" id="Shape-Copy-2"></path>
                        <line x1="245.743671" y1="6.33502538" x2="245.743671" y2="429.725888" id="Path-8"></line>
                        <line x1="252.085443" y1="6.33502538" x2="252.085443" y2="429.725888" id="Path-8"></line>
                        <line x1="259.484177" y1="6.33502538" x2="259.484177" y2="429.725888" id="Path-8"></line>
                        <line x1="265.825949" y1="6.33502538" x2="265.825949" y2="429.725888" id="Path-8"></line>
                        <line x1="273.224684" y1="6.33502538" x2="273.224684" y2="429.725888" id="Path-8"></line>
                        <line x1="279.566456" y1="6.33502538" x2="279.566456" y2="429.725888" id="Path-8"></line>
                        <line x1="285.908228" y1="6.33502538" x2="285.908228" y2="429.725888" id="Path-8"></line>
                        <line x1="293.306962" y1="6.33502538" x2="293.306962" y2="429.725888" id="Path-8"></line>
                        <line x1="299.648734" y1="6.33502538" x2="299.648734" y2="429.725888" id="Path-8"></line>
                        <line x1="307.047468" y1="6.33502538" x2="307.047468" y2="429.725888" id="Path-8"></line>
                        <line x1="313.389241" y1="6.33502538" x2="313.389241" y2="429.725888" id="Path-8"></line>
                        <line x1="319.731013" y1="6.33502538" x2="319.731013" y2="429.725888" id="Path-8"></line>
                        <line x1="327.129747" y1="6.33502538" x2="327.129747" y2="429.725888" id="Path-8"></line>
                        <line x1="333.471519" y1="6.33502538" x2="333.471519" y2="429.725888" id="Path-8"></line>
                        <line x1="340.870253" y1="6.33502538" x2="340.870253" y2="429.725888" id="Path-8"></line>
                        <line x1="347.212025" y1="6.33502538" x2="347.212025" y2="429.725888" id="Path-8"></line>
                        <line x1="353.553797" y1="6.33502538" x2="353.553797" y2="429.725888" id="Path-8"></line>
                        <line x1="17.4398734" y1="49.5443228" x2="17.4398734" y2="420.22335" id="Path-8-Copy"></line>
                        <line x1="0.528481013" y1="174.98185" x2="0.528481013" y2="191.842829" id="Path"></line>
                        <line x1="6.87025316" y1="6.33502538" x2="6.87025316" y2="429.725888" id="Path-8"></line>
                        <line x1="13.2120253" y1="6.33502538" x2="13.2120253" y2="429.725888" id="Path-8"></line>
                    </g>
                </g>
            </g>
            <polyline id="Path-2" stroke="#FFFFFF" stroke-width="2" points="195 254 226.818389 254 242.751416 257 298 257"></polyline>
            <polyline id="Path-3" stroke="#FFFFFF" stroke-width="2" points="298 251 302.84502 244.231309 313 212"></polyline>
            <line x1="298" y1="250.5" x2="373" y2="250.5" id="Path-4" stroke="#FFFFFF" stroke-width="2"></line>
            <g id="Path-34" transform="translate(424.000000, 202.000000)">
                <mask id="mask-5" fill="white">
                    <use xlink:href="#path-4"></use>
                </mask>
                <use id="Path-12" stroke="#FFFFFF" stroke-width="2" fill-opacity="0.05" fill="#FFFFFF" xlink:href="#path-4"></use>
                <g id="Path-9-Copy" mask="url(#mask-5)" stroke="#FFFFFF" stroke-width="0.5">
                    <g transform="translate(186.305434, 66.444417) rotate(-20.000000) translate(-186.305434, -66.444417) translate(2.305434, -146.055583)">
                        <line x1="36.4070352" y1="52.8958683" x2="36.4070352" y2="139.9057" id="Path-8"></line>
                        <line x1="42.7386935" y1="61.2833303" x2="42.7386935" y2="142.099206" id="Path-8"></line>
                        <line x1="50.1256281" y1="47.0830738" x2="50.1256281" y2="144.471305" id="Path-8"></line>
                        <line x1="56.4572864" y1="4.60643944e-17" x2="56.4572864" y2="146.888142" id="Path-8"></line>
                        <line x1="62.7889447" y1="4.60643944e-17" x2="62.7889447" y2="149.550648" id="Path-8"></line>
                        <line x1="70.1758794" y1="0" x2="70.1758794" y2="167.848191" id="Path"></line>
                        <line x1="76.5075377" y1="0" x2="76.5075377" y2="424.869048" id="Path-8"></line>
                        <line x1="83.8944724" y1="0" x2="83.8944724" y2="424.869048" id="Path-8"></line>
                        <line x1="90.2261307" y1="0" x2="90.2261307" y2="424.869048" id="Path-8"></line>
                        <line x1="96.5577889" y1="0" x2="96.5577889" y2="424.869048" id="Path-8"></line>
                        <line x1="103.944724" y1="0" x2="103.944724" y2="424.869048" id="Path-8"></line>
                        <line x1="110.276382" y1="0" x2="110.276382" y2="424.869048" id="Path-8"></line>
                        <line x1="117.663317" y1="0" x2="117.663317" y2="424.869048" id="Path-8"></line>
                        <line x1="123.994975" y1="0" x2="123.994975" y2="424.869048" id="Path-8"></line>
                        <line x1="130.326633" y1="0" x2="130.326633" y2="424.869048" id="Path-8"></line>
                        <line x1="137.713568" y1="0" x2="137.713568" y2="424.869048" id="Path-8"></line>
                        <line x1="144.045226" y1="0" x2="144.045226" y2="424.869048" id="Path-8"></line>
                        <line x1="151.432161" y1="0" x2="151.432161" y2="424.869048" id="Path-8"></line>
                        <line x1="157.763819" y1="0" x2="157.763819" y2="424.869048" id="Path-8"></line>
                        <line x1="164.095477" y1="0" x2="164.095477" y2="424.869048" id="Path-8"></line>
                        <line x1="171.482412" y1="0" x2="171.482412" y2="424.869048" id="Path-8"></line>
                        <line x1="177.81407" y1="0" x2="177.81407" y2="424.869048" id="Path-8"></line>
                        <line x1="185.201005" y1="0" x2="185.201005" y2="424.869048" id="Path-8"></line>
                        <line x1="191.532663" y1="0" x2="191.532663" y2="424.869048" id="Path-8"></line>
                        <line x1="197.864322" y1="0" x2="197.864322" y2="424.869048" id="Path-8"></line>
                        <line x1="205.251256" y1="0" x2="205.251256" y2="424.869048" id="Path-8"></line>
                        <line x1="211.582915" y1="0" x2="211.582915" y2="424.869048" id="Path-8"></line>
                        <line x1="218.969849" y1="0" x2="218.969849" y2="424.869048" id="Path-8"></line>
                        <line x1="225.301508" y1="0" x2="225.301508" y2="424.869048" id="Path-8"></line>
                        <line x1="231.633166" y1="0" x2="231.633166" y2="424.869048" id="Path-8"></line>
                        <line x1="239.020101" y1="0" x2="239.020101" y2="424.869048" id="Path-8"></line>
                        <line x1="245.351759" y1="0" x2="245.351759" y2="424.869048" id="Path-8"></line>
                        <line x1="252.738693" y1="0" x2="252.738693" y2="424.869048" id="Path-8"></line>
                        <line x1="259.070352" y1="0" x2="259.070352" y2="424.869048" id="Path-8"></line>
                        <line x1="265.40201" y1="0" x2="265.40201" y2="424.869048" id="Path-8"></line>
                        <line x1="272.788945" y1="0" x2="272.788945" y2="424.869048" id="Path-8"></line>
                        <line x1="279.120603" y1="0" x2="279.120603" y2="424.869048" id="Path-8"></line>
                        <line x1="286.507538" y1="0" x2="286.507538" y2="424.869048" id="Path-8"></line>
                        <line x1="292.839196" y1="0" x2="292.839196" y2="424.869048" id="Path-8"></line>
                        <line x1="299.170854" y1="0" x2="299.170854" y2="424.869048" id="Path-8"></line>
                        <line x1="306.557789" y1="0" x2="306.557789" y2="424.869048" id="Path-8"></line>
                        <line x1="312.889447" y1="0" x2="312.889447" y2="424.869048" id="Path-8"></line>
                        <line x1="320.276382" y1="0" x2="320.276382" y2="424.869048" id="Path-8"></line>
                        <line x1="326.60804" y1="0" x2="326.60804" y2="424.869048" id="Path-8"></line>
                        <line x1="332.939698" y1="0" x2="332.939698" y2="424.869048" id="Path-8"></line>
                        <line x1="340.326633" y1="0" x2="340.326633" y2="424.869048" id="Path-8"></line>
                        <line x1="346.658291" y1="0" x2="346.658291" y2="424.869048" id="Path-8"></line>
                        <line x1="354.045226" y1="0" x2="354.045226" y2="424.869048" id="Path-8"></line>
                        <line x1="360.376884" y1="0" x2="360.376884" y2="424.869048" id="Path-8"></line>
                        <line x1="366.708543" y1="0" x2="366.708543" y2="424.869048" id="Path-8"></line>
                        <line x1="31.1306533" y1="43.3601541" x2="31.1306533" y2="137.589175" id="Path"></line>
                        <line x1="0.527638191" y1="0" x2="0.527638191" y2="424.869048" id="Path-8"></line>
                        <line x1="6.85929648" y1="0" x2="6.85929648" y2="424.869048" id="Path-8"></line>
                        <line x1="14.2462312" y1="4.60643944e-17" x2="14.2462312" y2="131.748807" id="Path-8"></line>
                        <line x1="20.5778894" y1="4.60643944e-17" x2="20.5778894" y2="133.851918" id="Path-8"></line>
                        <line x1="26.9095477" y1="-7.54672974e-13" x2="26.9095477" y2="136.363673" id="Path-8"></line>
                    </g>
                </g>
            </g>
            <g id="Path-35" transform="translate(601.000000, 244.000000)">
                <mask id="mask-7" fill="white">
                    <use xlink:href="#path-6"></use>
                </mask>
                <use id="Path-13" stroke="#FFFFFF" stroke-width="2" fill-opacity="0.05" fill="#FFFFFF" xlink:href="#path-6"></use>
                <g id="Path-9-Copy" mask="url(#mask-7)" stroke="#FFFFFF" stroke-width="0.5">
                    <g transform="translate(50.163234, -18.815612) rotate(-20.000000) translate(-50.163234, 18.815612) translate(-133.836766, -260.815612)">
                        <line x1="36.4827586" y1="52.647328" x2="36.4827586" y2="422.872727" id="Path-8"></line>
                        <line x1="42.8275862" y1="60.99538" x2="42.8275862" y2="483.868107" id="Path-8"></line>
                        <line x1="50.2298851" y1="46.8618459" x2="50.2298851" y2="469.734573" id="Path-8"></line>
                        <line x1="56.5747126" y1="0" x2="56.5747126" y2="422.872727" id="Path-8"></line>
                        <line x1="62.9195402" y1="0" x2="62.9195402" y2="422.872727" id="Path-8"></line>
                        <line x1="70.3218391" y1="0" x2="70.3218391" y2="422.872727" id="Path-8"></line>
                        <line x1="76.6666667" y1="0" x2="76.6666667" y2="422.872727" id="Path-8"></line>
                        <line x1="84.0689655" y1="0" x2="84.0689655" y2="422.872727" id="Path-8"></line>
                        <line x1="90.4137931" y1="0" x2="90.4137931" y2="422.872727" id="Path-8"></line>
                        <line x1="96.7586207" y1="0" x2="96.7586207" y2="422.872727" id="Path-8"></line>
                        <line x1="104.16092" y1="0" x2="104.16092" y2="422.872727" id="Path-8"></line>
                        <line x1="110.505747" y1="0" x2="110.505747" y2="422.872727" id="Path-8"></line>
                        <line x1="117.908046" y1="0" x2="117.908046" y2="422.872727" id="Path-8"></line>
                        <line x1="124.252874" y1="0" x2="124.252874" y2="422.872727" id="Path-8"></line>
                        <line x1="130.597701" y1="0" x2="130.597701" y2="422.872727" id="Path-8"></line>
                        <line x1="138" y1="0" x2="138" y2="422.872727" id="Path-8"></line>
                        <line x1="144.344828" y1="0" x2="144.344828" y2="422.872727" id="Path-8"></line>
                        <line x1="151.747126" y1="0" x2="151.747126" y2="422.872727" id="Path-8"></line>
                        <line x1="158.091954" y1="0" x2="158.091954" y2="422.872727" id="Path-8"></line>
                        <line x1="164.436782" y1="0" x2="164.436782" y2="422.872727" id="Path-8"></line>
                        <line x1="171.83908" y1="0" x2="171.83908" y2="422.872727" id="Path-8"></line>
                        <line x1="178.183908" y1="0" x2="178.183908" y2="422.872727" id="Path-8"></line>
                        <line x1="185.586207" y1="0" x2="185.586207" y2="422.872727" id="Path-8"></line>
                        <line x1="191.931034" y1="0" x2="191.931034" y2="422.872727" id="Path-8"></line>
                        <line x1="198.275862" y1="0" x2="198.275862" y2="422.872727" id="Path-8"></line>
                        <line x1="205.678161" y1="0" x2="205.678161" y2="422.872727" id="Path-8"></line>
                        <line x1="212.022989" y1="0" x2="212.022989" y2="422.872727" id="Path-8"></line>
                        <line x1="219.425287" y1="0" x2="219.425287" y2="422.872727" id="Path-8"></line>
                        <line x1="225.770115" y1="0" x2="225.770115" y2="422.872727" id="Path-8"></line>
                        <line x1="232.114943" y1="0" x2="232.114943" y2="422.872727" id="Path-8"></line>
                        <line x1="239.517241" y1="0" x2="239.517241" y2="422.872727" id="Path-8"></line>
                        <line x1="245.862069" y1="0" x2="245.862069" y2="422.872727" id="Path-8"></line>
                        <line x1="253.264368" y1="0" x2="253.264368" y2="422.872727" id="Path-8"></line>
                        <line x1="259.609195" y1="0" x2="259.609195" y2="422.872727" id="Path-8"></line>
                        <line x1="265.954023" y1="0" x2="265.954023" y2="422.872727" id="Path-8"></line>
                        <line x1="273.356322" y1="0" x2="273.356322" y2="422.872727" id="Path-8"></line>
                        <line x1="279.701149" y1="0" x2="279.701149" y2="422.872727" id="Path-8"></line>
                        <line x1="287.103448" y1="0" x2="287.103448" y2="422.872727" id="Path-8"></line>
                        <line x1="293.448276" y1="0" x2="293.448276" y2="422.872727" id="Path-8"></line>
                        <line x1="299.793103" y1="0" x2="299.793103" y2="422.872727" id="Path-8"></line>
                        <line x1="307.195402" y1="0" x2="307.195402" y2="422.872727" id="Path-8"></line>
                        <line x1="313.54023" y1="0" x2="313.54023" y2="422.872727" id="Path-8"></line>
                        <line x1="320.942529" y1="0" x2="320.942529" y2="422.872727" id="Path-8"></line>
                        <line x1="327.287356" y1="0" x2="327.287356" y2="422.872727" id="Path-8"></line>
                        <line x1="333.632184" y1="0" x2="333.632184" y2="422.872727" id="Path-8"></line>
                        <line x1="341.034483" y1="0" x2="341.034483" y2="422.872727" id="Path-8"></line>
                        <line x1="347.37931" y1="0" x2="347.37931" y2="422.872727" id="Path-8"></line>
                        <line x1="354.781609" y1="0" x2="354.781609" y2="422.872727" id="Path-8"></line>
                        <line x1="361.126437" y1="0" x2="361.126437" y2="422.872727" id="Path-8"></line>
                        <line x1="367.471264" y1="0" x2="367.471264" y2="422.872727" id="Path-8"></line>
                        <line x1="31.1954023" y1="43.1564189" x2="31.1954023" y2="413.381818" id="Path-8-Copy"></line>
                        <line x1="0.528735632" y1="0" x2="0.528735632" y2="422.872727" id="Path-8"></line>
                        <line x1="6.87356322" y1="0" x2="6.87356322" y2="422.872727" id="Path-8"></line>
                        <line x1="14.2758621" y1="0" x2="14.2758621" y2="422.872727" id="Path-8"></line>
                        <line x1="20.6206897" y1="0" x2="20.6206897" y2="422.872727" id="Path-8"></line>
                        <line x1="26.9655172" y1="0" x2="26.9655172" y2="422.872727" id="Path-8"></line>
                    </g>
                </g>
            </g>
            <polyline id="Path-14" stroke="#FFFFFF" stroke-width="2" points="866 302 866 426 848.890979 426 841.239727 415.426447 803.138257 402.939864 789.785305 383.940756 739 383.940756"></polyline>
            <polyline id="Path-15" stroke="#FFFFFF" stroke-width="2" points="754 462 754 413.286597 754 405.790743 731.593345 375.285328 712.032787 375.285328 712.032787 368.805994 706.211402 364 701.313922 371.960535 701.313922 375.285328 681.935405 375.285328 670.879863 368.805994 652.043553 368.805994 634 379.167841"></polyline>
            <polyline id="Path-16" stroke="#FFFFFF" stroke-width="2" points="754 413 649 413 666.372482 374"></polyline>
            <polyline id="Path-18" stroke="#FFFFFF" stroke-width="2" points="866 321.430634 940.582089 321.430634 958.764268 316 993.115861 337.645069 1060.97 337.645069 1060.97 333.978299 1167.85438 333.978299 1167.85438 326.822535 1193.71159 326.822535 1198.63168 333.978299 1198.63168 343.145225 1216.83451 343.145225 1217.52068 337.645069 1245.6061 337.645069 1251.12191 340.300796 1251.12191 393.516333 1251.12191 407.895703 1275 433.682276 1275 450"></polyline>
            <line x1="898.604204" y1="320.655946" x2="898.602611" y2="340.073878" id="Path-8" stroke="#FFFFFF" stroke-width="0.5" transform="translate(898.603408, 330.364912) rotate(-20.000000) translate(-898.603408, -330.364912) "></line>
            <line x1="905.179056" y1="320.448774" x2="905.177506" y2="339.34877" id="Path-8" stroke="#FFFFFF" stroke-width="0.5" transform="translate(905.178281, 329.898772) rotate(-20.000000) translate(-905.178281, -329.898772) "></line>
            <line x1="913.241934" y1="320.996311" x2="913.240385" y2="339.869207" id="Path-8" stroke="#FFFFFF" stroke-width="0.5" transform="translate(913.241159, 330.432759) rotate(-20.000000) translate(-913.241159, -330.432759) "></line>
            <line x1="919.930241" y1="320.909725" x2="919.928703" y2="339.647017" id="Path-8" stroke="#FFFFFF" stroke-width="0.5" transform="translate(919.929472, 330.278371) rotate(-20.000000) translate(-919.929472, -330.278371) "></line>
            <line x1="926.697287" y1="320.678919" x2="926.695701" y2="340.001661" id="Path-8" stroke="#FFFFFF" stroke-width="0.5" transform="translate(926.696494, 330.340290) rotate(-20.000000) translate(-926.696494, -330.340290) "></line>
            <line x1="934.539981" y1="320.776901" x2="934.538424" y2="339.761519" id="Path-8" stroke="#FFFFFF" stroke-width="0.5" transform="translate(934.539202, 330.269210) rotate(-20.000000) translate(-934.539202, -330.269210) "></line>
            <line x1="941.322616" y1="320.981192" x2="941.321075" y2="339.766928" id="Path-8" stroke="#FFFFFF" stroke-width="0.5" transform="translate(941.321846, 330.374060) rotate(-20.000000) translate(-941.321846, -330.374060) "></line>
            <line x1="948.839975" y1="319.110591" x2="948.838286" y2="339.706724" id="Path-8" stroke="#FFFFFF" stroke-width="0.5" transform="translate(948.839130, 329.408657) rotate(-20.000000) translate(-948.839130, -329.408657) "></line>
            <line x1="955.313184" y1="317.40522" x2="955.311336" y2="339.920596" id="Path-8" stroke="#FFFFFF" stroke-width="0.5" transform="translate(955.312260, 328.662908) rotate(-20.000000) translate(-955.312260, -328.662908) "></line>
            <line x1="961.676104" y1="315.577994" x2="961.674129" y2="339.650224" id="Path-8" stroke="#FFFFFF" stroke-width="0.5" transform="translate(961.675117, 327.614109) rotate(-20.000000) translate(-961.675117, -327.614109) "></line>
            <line x1="970.50626" y1="320.77976" x2="970.504705" y2="339.734814" id="Path-8" stroke="#FFFFFF" stroke-width="0.5" transform="translate(970.505482, 330.257287) rotate(-20.000000) translate(-970.505482, -330.257287) "></line>
            <line x1="978.228411" y1="326.508717" x2="978.227355" y2="339.380801" id="Path-8" stroke="#FFFFFF" stroke-width="0.5" transform="translate(978.227883, 332.944759) rotate(-20.000000) translate(-978.227883, -332.944759) "></line>
            <line x1="987.284213" y1="333.058339" x2="987.283696" y2="339.358098" id="Path-8" stroke="#FFFFFF" stroke-width="0.5" transform="translate(987.283955, 336.208219) rotate(-20.000000) translate(-987.283955, -336.208219) "></line>
            <path d="" id="Path-8" stroke="#FFFFFF" stroke-width="0.5" transform="translate(1070.543047, 1.500000) rotate(-20.000000) translate(-1070.543047, -1.500000) "></path>
            <line x1="892.908938" y1="320.705783" x2="892.907386" y2="339.612712" id="Path-8-Copy" stroke="#FFFFFF" stroke-width="0.5" transform="translate(892.908162, 330.159247) rotate(-20.000000) translate(-892.908162, -330.159247) "></line>
            <path d="" id="Path-8" stroke="#FFFFFF" stroke-width="0.5" transform="translate(744.469707, 120.180990) rotate(-20.000000) translate(-744.469707, -120.180990) "></path>
            <path d="" id="Path-8" stroke="#FFFFFF" stroke-width="0.5" transform="translate(870.347587, 339.209844) rotate(-20.000000) translate(-870.347587, -339.209844) "></path>
            <line x1="874.874339" y1="320.858854" x2="874.872835" y2="339.188855" id="Path-8" stroke="#FFFFFF" stroke-width="0.5" transform="translate(874.873587, 330.023855) rotate(-20.000000) translate(-874.873587, -330.023855) "></line>
            <line x1="881.682985" y1="320.616402" x2="881.681413" y2="339.783743" id="Path-8" stroke="#FFFFFF" stroke-width="0.5" transform="translate(881.682199, 330.200073) rotate(-20.000000) translate(-881.682199, -330.200073) "></line>
            <line x1="888.338387" y1="320.395543" x2="888.336819" y2="339.514947" id="Path-8" stroke="#FFFFFF" stroke-width="0.5" transform="translate(888.337603, 329.955245) rotate(-20.000000) translate(-888.337603, -329.955245) "></line>
            <polyline id="Path-19" stroke="#FFFFFF" stroke-width="2" points="866 339.5 929.92078 339.5 943.287962 339.5 990 339.5"></polyline>
            <path d="M496.674362,467 L500,360 L417.43955,360 L417.43955,393.522703 C410.795177,393.522703 403.536006,393.522703 395.662038,393.522703 C387.78807,393.522703 376.358913,390.846321 361.374567,385.493558 L317.433949,379.543597 L298.886595,379.543597 L298.886595,393.522703 L270.851159,393.522703 L266.816668,401.758566 L256.375239,396.442555 L231.139011,393.522703 L223.083094,396.442555 L223.083094,418.120958 L206.122657,418.120958 L206.122657,396.442555 L182.770479,385.493558 L157.441833,385.493558 L145.430546,405.755281 L124.486905,406.066274 L124.486905,390.251999 L92.1179062,390.251999 L84.0895693,368.887378 L81.2042927,368.887378 L78.7506938,371.759803 L78.7506938,382.281734 L73.8214768,382.281734 L73.8214768,368.260129 L64.4707635,368.260129 L61.8845376,372.261191 L61.8845376,382.281734 L56.4847253,382.281734 L56.4847253,368.260129 L47.8332479,368.260129 L45.6213476,372.261191 L45.6213476,381.894368 L39.1922681,381.894368 L39.1922681,368.260129 L32.1026142,368.260129 L30.5738195,371.759803 L24,371.759803" id="Path-22" stroke="#FFFFFF" stroke-width="2" fill-opacity="0.05" fill="#FFFFFF"></path>
            <line x1="307.5" y1="309" x2="307.5" y2="379" id="Path-23" stroke="#FFFFFF" stroke-width="2"></line>
            <line x1="337.5" y1="310" x2="337.5" y2="380" id="Path-24" stroke="#FFFFFF" stroke-width="2"></line>
            <line x1="500.5" y1="309" x2="500.5" y2="360" id="Path-25" stroke="#FFFFFF" stroke-width="2"></line>
            <line x1="415.5" y1="311" x2="415.5" y2="359" id="Path-26" stroke="#FFFFFF" stroke-width="2"></line>
            <polyline id="Path-27" stroke="#FFFFFF" stroke-width="2" points="634 302 634 325.433238 623.574748 325.433238 623.574748 337 619.92354 337 619.92354 325.433238 609.927877 325.433238 609.927877 337 606.308202 337 606.308202 325.433238 596.232102 325.433238 596.232102 337 591.273149 337 591.273149 325.433238 582.955272 325.433238 582.955272 337 578.402526 337 578.402526 325.433238 568.915628 325.433238 568.915628 337 564.840814 337 564.840814 325.433238 553.966374 325.433238 553.966374 336.076328 551.010307 336.076328 551.010307 325.433238 542 325.433238"></polyline>
            <line x1="931.5" y1="340" x2="931.5" y2="377" id="Path-28" stroke="#FFFFFF" stroke-width="2"></line>
            <line x1="943.5" y1="339" x2="943.5" y2="403" id="Path-28-Copy" stroke="#FFFFFF" stroke-width="2"></line>
            <polyline id="Path-28-Copy-2" stroke="#FFFFFF" stroke-width="2" points="985.5 340 985.5 376.803698 985.5 407"></polyline>
            <path d="M358.103169,384 L398.896831,384 C402.879028,352.015274 396.080085,335.68852 378.5,335.019738 C360.919915,334.350955 354.120972,350.677709 358.103169,384 Z" id="Path-32" stroke="#FFFFFF" stroke-width="2"></path>
            <line x1="689.5" y1="302" x2="689.5" y2="374" id="Path-94" stroke="#FFFFFF" stroke-width="2"></line>
            <line x1="23" y1="262.5" x2="46" y2="262.5" id="Path-95" stroke="#FFFFFF" stroke-width="2"></line>
            <polyline id="Path-96" stroke="#FFFFFF" stroke-width="2" points="23 287 35.7872601 287 35.7872601 277.071312 41.2136014 277.071312 41.2136014 268.796794 46.789845 268.796794 46.789845 259.891563 51.8286793 259.891563 51.8286793 252 57 252"></polyline>
            <line x1="38" y1="221.5" x2="43" y2="221.5" id="Path-97" stroke="#FFFFFF" stroke-width="2"></line>
            <line x1="40.5" y1="263" x2="40.5" y2="221" id="Path-98" stroke="#FFFFFF" stroke-width="0.5"></line>
            <path d="M23,263 C24.895143,261.504578 27.1672618,257.484456 29.8163564,250.939634 C32.4654509,244.394813 35.8599988,234.414934 40,221" id="Path-99" stroke="#FFFFFF" stroke-width="0.5"></path>
            <line x1="0" y1="361.5" x2="19" y2="361.5" id="Path-100" stroke="#FFFFFF" stroke-width="2"></line>
            <polyline id="Path-101" stroke="#FFFFFF" stroke-width="2" points="8 350 9 341 10 350"></polyline>
        </g>
    </g>
</svg>
