<?xml version="1.0" encoding="UTF-8"?>
<svg width="2048px" height="1304px" preserveAspectRatio="xMidYMid slice" viewBox="0 0 2048 1304" version="1.1" xmlns="http://www.w3.org/2000/svg" xmlns:xlink="http://www.w3.org/1999/xlink">
    <!-- Generator: Sketch 59.1 (86144) - https://sketch.com -->
    <title>lenzburg_animation</title>
    <desc>Created with Sketch.</desc>
    <defs>
        <linearGradient x1="50%" y1="0%" x2="50%" y2="100%" id="linearGradient-1">
            <stop stop-color="#FFFFFF" stop-opacity="0.05" offset="0%"></stop>
            <stop stop-color="#FFFFFF" stop-opacity="0.1" offset="100%"></stop>
        </linearGradient>
    </defs>
    <g id="lenzburg_animation" stroke="none" stroke-width="1" fill="none" fill-rule="evenodd">
        <g id="Group-14" transform="translate(657.000000, 323.000000)" stroke="#FFFFFF">
            <polyline id="Path-11" stroke-width="2" fill="url(#linearGradient-1)" points="0 404.916904 0 361.297642 6.41661985 350.549459 13.5765404 350.549459 19.1901785 361.297642 19.1901785 370.567726 22.7601919 370.567726 22.7601919 282.553244 22.7601919 262.717722 17.9872823 262.717722 37.7473759 221.310202 39.4739977 197.959375 42.5348602 219.635517 56.1916238 249.090863 55.3946594 240.634033 61.5101757 240.634033 61.5101757 233.589764 66.6136828 233.589764 66.6136828 226.365133 71.2887932 226.365133 71.2887932 218.666277 74.1205002 218.666277 74.1205002 210.020655 76.652499 205.494725 76.06329 202.308121 78.6251551 203.636889 80.1543741 199.070771 82.0221174 201.037624 84.7632484 201.431606 80.8935686 205.494725 83.9547946 211.64694 89.9548053 211.64694 89.9548053 218.666277 96.0720149 223.14838 105.466825 223.14838 105.466825 230.858474 111.820225 230.858474 111.820225 239.095048 116.730438 239.095048 116.730438 245.778028 122.494884 245.778028 122.494884 254.264076 125.230074 254.264076 125.230074 261.50725 129.305768 261.50725 129.305768 257.496 199.638463 257.496 194.910858 254.264076 197.419078 250.463128 202.524546 236.689952 218.161791 223.14838 222.177282 200.340616 226.142202 222.376966 238.22865 230.858474 244.740154 245.30448 248.535257 245.30448 248.535257 237.768554 256.954393 237.768554 256.954393 245.30448 260.896079 245.30448 260.896079 237.768554 268.196877 237.768554 268.196877 245.778028 273.017721 245.778028 273.017721 237.768554 280.19517 237.768554 280.19517 245.778028 284.89164 245.778028 284.89164 237.768554 291.227176 237.768554 295.122735 237.768554 298.193806 232.370104 298.781505 219.635517 304.539934 214.093741 307.840276 217.672073 312.432495 211.64694 313.954669 197.959375 315.488529 211.64694 339.035024 211.64694 341.207307 198.525731 342.618133 211.64694 372.98772 250.463128 476.667973 250.463128 497.141553 276.321873 500.897207 308.484492 497.141553 312.321504 307.840276 308.484492 298.781505 250.463128 298.781505 304.777034 125.230074 304.630567 127.841765 271.314908 120.66544 271.314908 120.66544 266.592993 114.209832 266.592993 114.209832 257.496 107.622466 257.496 107.622466 249.090863 102.788622 249.090863 102.788622 240.634033 97.4250342 240.634033 97.4250342 231.595879 92.7842186 231.595879 92.7842186 225.081925 86.4462711 225.081925 86.4462711 217.672073 83.9547946 217.672073 83.9547946 211.64694"></polyline>
            <polyline id="Path-2" stroke-width="2" points="195.959786 253.947886 227.771646 253.947886 243.701404 256.94727 298.938653 256.94727"></polyline>
            <polyline id="Path-3" stroke-width="2" points="298.938653 250.948501 303.782679 244.181199 313.935575 211.956503"></polyline>
            <line x1="297.938858" y1="250.448604" x2="372.92347" y2="250.448604" id="Path-4" stroke-width="2"></line>
            <polyline id="Path-12" stroke-width="2" fill-opacity="0.05" fill="#FFFFFF" points="424.912801 250.571876 470.494061 201.958555 571.879861 201.958555 633.869919 272.630903 612.330447 289.940499 501.210647 289.940499"></polyline>
            <polygon id="Path-13" stroke-width="2" fill-opacity="0.05" fill="#FFFFFF" points="600.87669 301.938037 669.875799 246.626961 809.086631 243.949937 843.053579 277.326021 876.820062 296.328981 876.820062 301.938037"></polygon>
            <polyline id="Path-14" stroke-width="2" points="866.822113 301.938037 866.822113 425.912596 849.716602 425.912596 842.066921 415.341212 803.973269 402.857191 790.623056 383.861981 739.848171 383.861981"></polyline>
            <polyline id="Path-15" stroke-width="2" points="754.845093 461.905209 754.845093 413.201801 754.845093 405.707485 732.443035 375.208329 712.886491 375.208329 712.886491 368.730324 707.0663 363.925316 702.169825 371.884218 702.169825 375.208329 682.795284 375.208329 671.74201 368.730324 652.909565 368.730324 634.869714 379.090045"></polyline>
            <polyline id="Path-16" stroke-width="2" points="754.845093 412.915263 649.866636 412.915263 667.235554 373.923265"></polyline>
            <polyline id="Path-18" stroke-width="2" points="865.822319 321.324166 940.57142 321.324166 958.794315 315.935165 993.222832 337.414296 1061.22892 337.414296 1061.22892 333.775636 1168.35264 333.775636 1168.35264 326.67473 1194.26775 326.67473 1199.19887 333.775636 1199.19887 342.872285 1217.44246 342.872285 1218.13016 337.414296 1246.27848 337.414296 1251.80664 340.049663 1251.80664 392.857232 1251.80664 407.126365 1275.7382 432.715249 1275.7382 448.907877"></polyline>
            <line x1="899.123147" y1="320.590745" x2="899.126426" y2="340.006556" id="Path-8" stroke-width="0.5" transform="translate(899.124786, 330.298650) rotate(-20.000000) translate(-899.124786, -330.298650) "></line>
            <line x1="905.701879" y1="320.383639" x2="905.70507" y2="339.28157" id="Path-8" stroke-width="0.5" transform="translate(905.703475, 329.832604) rotate(-20.000000) translate(-905.703475, -329.832604) "></line>
            <line x1="913.769438" y1="320.931067" x2="913.772625" y2="339.801901" id="Path-8" stroke-width="0.5" transform="translate(913.771031, 330.366484) rotate(-20.000000) translate(-913.771031, -330.366484) "></line>
            <line x1="920.461642" y1="320.844504" x2="920.464806" y2="339.579749" id="Path-8" stroke-width="0.5" transform="translate(920.463224, 330.212126) rotate(-20.000000) translate(-920.463224, -330.212126) "></line>
            <line x1="927.232541" y1="320.613718" x2="927.235804" y2="339.934349" id="Path-8" stroke-width="0.5" transform="translate(927.234173, 330.274034) rotate(-20.000000) translate(-927.234173, -330.274034) "></line>
            <line x1="935.079828" y1="320.711696" x2="935.083034" y2="339.694239" id="Path-8" stroke-width="0.5" transform="translate(935.081431, 330.202968) rotate(-20.000000) translate(-935.081431, -330.202968) "></line>
            <line x1="941.866424" y1="320.915955" x2="941.869596" y2="339.699639" id="Path-8" stroke-width="0.5" transform="translate(941.868010, 330.307797) rotate(-20.000000) translate(-941.868010, -330.307797) "></line>
            <line x1="949.387917" y1="319.045646" x2="949.391395" y2="339.639529" id="Path-8" stroke-width="0.5" transform="translate(949.389656, 329.342588) rotate(-20.000000) translate(-949.389656, -329.342588) "></line>
            <line x1="955.864641" y1="317.340529" x2="955.868443" y2="339.853446" id="Path-8" stroke-width="0.5" transform="translate(955.866542, 328.596988) rotate(-20.000000) translate(-955.866542, -328.596988) "></line>
            <line x1="962.231058" y1="315.513599" x2="962.235123" y2="339.5832" id="Path-8" stroke-width="0.5" transform="translate(962.233090, 327.548399) rotate(-20.000000) translate(-962.233090, -327.548399) "></line>
            <line x1="971.066979" y1="320.714556" x2="971.070179" y2="339.667539" id="Path-8" stroke-width="0.5" transform="translate(971.068579, 330.191047) rotate(-20.000000) translate(-971.068579, -330.191047) "></line>
            <line x1="978.794374" y1="326.442641" x2="978.796547" y2="339.313319" id="Path-8" stroke-width="0.5" transform="translate(978.795461, 332.877980) rotate(-20.000000) translate(-978.795461, -332.877980) "></line>
            <line x1="987.856255" y1="332.99125" x2="987.857319" y2="339.290321" id="Path-8" stroke-width="0.5" transform="translate(987.856787, 336.140785) rotate(-20.000000) translate(-987.856787, -336.140785) "></line>
            <path d="" id="Path-8" stroke-width="0.5" transform="translate(1070.543047, 1.500000) rotate(-20.000000) translate(-1070.543047, -1.500000) "></path>
            <line x1="893.42464" y1="320.640595" x2="893.427833" y2="339.545459" id="Path-8-Copy" stroke-width="0.5" transform="translate(893.426236, 330.093027) rotate(-20.000000) translate(-893.426236, -330.093027) "></line>
            <path d="" id="Path-8" stroke-width="0.5" transform="translate(744.469707, 120.180990) rotate(-20.000000) translate(-744.469707, -120.180990) "></path>
            <path d="" id="Path-8" stroke-width="0.5" transform="translate(870.852572, 339.141809) rotate(-20.000000) translate(-870.852572, -339.141809) "></path>
            <line x1="875.379649" y1="320.793662" x2="875.382745" y2="339.121661" id="Path-8" stroke-width="0.5" transform="translate(875.381197, 329.957662) rotate(-20.000000) translate(-875.381197, -329.957662) "></line>
            <line x1="882.192142" y1="320.55122" x2="882.195378" y2="339.716468" id="Path-8" stroke-width="0.5" transform="translate(882.193760, 330.133844) rotate(-20.000000) translate(-882.193760, -330.133844) "></line>
            <line x1="888.851411" y1="320.330408" x2="888.85464" y2="339.447724" id="Path-8" stroke-width="0.5" transform="translate(888.853025, 329.889066) rotate(-20.000000) translate(-888.853025, -329.889066) "></line>
            <polyline id="Path-19" stroke-width="2" points="866.822113 339.430343 930.729778 339.430343 944.094218 339.430343 990.796672 339.430343"></polyline>
            <path d="M497.565267,465.904389 L500.897207,359.926137 L418.180286,359.926137 L418.180286,393.12873 C411.52332,393.12873 404.250392,393.12873 396.361501,393.12873 C388.47261,393.12873 377.021791,390.477905 362.009046,385.176255 L317.985151,379.283111 L299.402645,379.283111 L299.402645,393.12873 L271.314075,393.12873 L267.271938,401.285948 L256.81072,396.0207 L231.526664,393.12873 L223.455479,396.0207 L223.455479,417.492095 L206.462898,417.492095 L206.462898,396.0207 L183.066462,385.176255 L157.689812,385.176255 L145.655762,405.244498 L124.672428,405.552522 L124.672428,389.889258 L92.2420814,389.889258 L84.198529,368.728649 L81.307784,368.728649 L78.849535,371.573645 L78.849535,381.995101 L73.910976,381.995101 L73.910976,368.10739 L64.5425408,368.10739 L61.9514135,372.070245 L61.9514135,381.995101 L56.5413673,381.995101 L56.5413673,368.10739 L47.8734933,368.10739 L45.6574009,372.070245 L45.6574009,381.611435 L39.2161368,381.611435 L39.2161368,368.10739 L32.1130463,368.10739 L30.5813542,371.573645 L23.9950758,371.573645" id="Path-22" stroke-width="2" fill-opacity="0.05" fill="#FFFFFF"></path>
            <line x1="308.436704" y1="308.936601" x2="308.436704" y2="378.922239" id="Path-23" stroke-width="2"></line>
            <line x1="338.430548" y1="310.936191" x2="338.430548" y2="380.921828" id="Path-24" stroke-width="2"></line>
            <line x1="500.39731" y1="308.936601" x2="500.39731" y2="359.926137" id="Path-25" stroke-width="2"></line>
            <line x1="415.41475" y1="311.935985" x2="415.41475" y2="358.926342" id="Path-26" stroke-width="2"></line>
            <polyline id="Path-27" stroke-width="2" points="632.870124 301.938037 632.870124 325.366468 622.560307 325.366468 622.560307 336.930856 618.949526 336.930856 618.949526 325.366468 609.06454 325.366468 609.06454 336.930856 605.484945 336.930856 605.484945 325.366468 595.520412 325.366468 595.520412 336.930856 590.616367 336.930856 590.616367 325.366468 582.390589 325.366468 582.390589 336.930856 577.888254 336.930856 577.888254 325.366468 568.5064 325.366468 568.5064 336.930856 564.476704 336.930856 564.476704 325.366468 553.722672 325.366468 553.722672 336.007373 550.799336 336.007373 550.799336 325.366468 541.888795 325.366468"></polyline>
            <line x1="932.308675" y1="339.930241" x2="932.308675" y2="376.922649" id="Path-28" stroke-width="2"></line>
            <line x1="944.306212" y1="339.930241" x2="944.306212" y2="402.917315" id="Path-28-Copy" stroke-width="2"></line>
            <polyline id="Path-28-Copy-2" stroke-width="2" points="986.297595 339.930241 986.297595 376.726387 986.297595 406.916494"></polyline>
            <path d="M358.029695,383.921213 L398.814987,383.921213 C402.796368,351.943049 395.998819,335.619645 378.422341,334.951 C360.845864,334.282355 354.048315,350.605759 358.029695,383.921213 Z" id="Path-32" stroke-width="2"></path>
            <line x1="690.358327" y1="302.937832" x2="690.358327" y2="373.923265" id="Path-94" stroke-width="2"></line>
            <line x1="22.995281" y1="263.445936" x2="45.990562" y2="263.445936" id="Path-95" stroke-width="2"></line>
            <polyline id="Path-96" stroke-width="2" points="22.995281 286.941115 35.7799175 286.941115 35.7799175 277.014464 41.2051454 277.014464 41.2051454 268.741644 46.7802449 268.741644 46.7802449 259.83824 51.8180454 259.83824 51.8180454 251.948296 56.988305 251.948296"></polyline>
            <line x1="37.9922034" y1="220.454759" x2="42.9911775" y2="220.454759" id="Path-97" stroke-width="2"></line>
            <line x1="40.4916904" y1="262.946039" x2="40.4916904" y2="221.954451" id="Path-98" stroke-width="0.5"></line>
            <path d="M22.995281,262.946039 C24.8900352,261.486522 27.1616878,257.562923 29.8102388,251.175241 C32.4587899,244.787559 35.8526412,235.047296 39.991793,221.954451" id="Path-99" stroke-width="0.5"></path>
            <line x1="0" y1="361.425829" x2="18.9961017" y2="361.425829" id="Path-100" stroke-width="2"></line>
            <polyline id="Path-101" stroke-width="2" points="7.9983586 349.928189 8.99815343 340.930035 9.99794825 349.928189"></polyline>
        </g>
    </g>
</svg>
