<?xml version="1.0" encoding="UTF-8"?>
<svg width="1999px" height="1274px" preserveAspectRatio="xMidYMid slice" viewBox="0 0 1999 1274" version="1.1" xmlns="http://www.w3.org/2000/svg" xmlns:xlink="http://www.w3.org/1999/xlink">
    <!-- Generator: Sketch 59.1 (86144) - https://sketch.com -->
    <title>galerie_picture_905</title>
    <desc>Created with Sketch.</desc>
    <g id="galerie_picture_905" stroke="none" stroke-width="1" fill="none" fill-rule="evenodd">
        <g id="Group-7" transform="translate(701.205534, 785.700421)" stroke="#FFFFFF">
            <g id="Group-6" transform="translate(627.794466, 51.299579)">
                <path d="M56.5879715,65.006941 L24.6091454,75.8369486 L10.3288016,75.8369486 L0,59.6162198 L10.3288016,59.6162198 L10.3288016,55.1678378 L38.2762564,46.2925834 C48.8890146,27.4225085 70.6668054,14.8948732 103.609629,8.70967742 C126.561598,4.40031935 188.883768,-1.73982495 241.253181,0.967741935 C301.632024,4.08940678 354.932746,14.0555286 378.606727,20.8064516 C400.965053,27.1821997 443.118335,38.9058734 450.994329,56.7110012 C458.870323,74.516129 426.949799,88.0616999 404.369045,93.383877 C373.910601,100.562789 323.553535,104.9187 253.297848,106.451613 C201.783824,104.545339 164.832006,101.233576 142.442393,96.5163231 C120.05278,91.7990706 91.4346394,81.2959432 56.5879715,65.006941 Z" id="Path-33" stroke-width="2" fill-opacity="0.1" fill="#FFFFFF"></path>
                <path d="M460.37051,69.6774194 C460.37051,85.5182724 443.826515,97.1470769 412.803393,104.563833 C381.78027,111.980589 330.489618,116.480817 258.931438,118.064516 C206.462379,116.095085 168.825498,112.6736 146.020797,107.80006 C123.216096,102.92652 94.0673941,92.0754138 58.5746925,75.2467406 L26.0030005,86.4355572 L11.4579088,86.4355572 L0.937618147,69.6774194" id="Path" stroke-width="1.2"></path>
                <path d="M460.703724,70.2968456 C461.093591,71.1364292 463.183365,75 463.183365,78.8883483 C463.183365,94.8819198 447.619176,106.622835 416.490798,114.111095 C385.362421,121.599354 333.897751,126.142968 262.096789,127.741935 C209.449714,125.753518 171.68514,122.299047 148.803068,117.378522 C125.920995,112.457997 96.6733982,101.502277 61.0602776,84.5113623 C50.5911435,88.1300451 42.7392929,90.8440572 37.5047259,92.6533986" id="Path" stroke-width="1.2"></path>
                <path d="M461.308129,87.6417372 C461.308129,103.620999 445.737889,115.351409 414.59741,122.832968 C383.45693,130.314528 331.972253,134.854076 260.143377,136.451613 C207.475835,134.464974 169.696579,131.013594 146.805611,126.097472 C123.914642,121.18135 94.655675,110.235433 59.0287093,93.25972 L46.9654242,97.2580645" id="Path" stroke-width="1.2"></path>
                <path d="M10.3137996,76.1496989 L9.37618147,92.8674843 L39.6042797,92.8674843 C61.844009,108.843671 83.9293933,120.045161 105.860433,126.471953 C121.387231,131.022011 173.844604,145.388378 231.176581,148.32043 C295.31361,151.600504 365.443224,142.860857 394.62708,136.061609 C417.119299,130.821377 442.315979,121.70138 455.57501,111.466638 C461.21658,107.111869 465.358051,100.023317 467.999423,90.2009807 L496,90.2009807 L492.526768,70.2968456 L460.703724,70.2968456 C458.72426,64.6204876 456.25249,60.0259149 453.288413,56.5131276 C450.324335,53.0003402 446.376943,49.3239214 441.446237,45.483871" id="Path-34" stroke-width="2"></path>
                <polyline id="Path-35" stroke-width="1.892" points="1.72731799 62.6937742 0.937618147 77.7754025 9.37618147 91.9354839"></polyline>
                <ellipse id="Oval" stroke-width="2" transform="translate(236.095816, 52.212657) rotate(2.000000) translate(-236.095816, -52.212657) " cx="236.095816" cy="52.2126569" rx="45.5695617" ry="12.3093449"></ellipse>
                <path d="M281.269849,54.1747668 C278.091901,49.7651782 259.103371,46.3569867 236.157656,46.3301104 C213.619161,46.3037111 194.906044,49.5486279 191.246666,53.8357264" id="Path" stroke-width="1.2" transform="translate(236.258258, 50.252359) rotate(2.000000) translate(-236.258258, -50.252359) "></path>
                <path d="M277.888446,57.1168963 C270.919982,55.2007656 254.780206,53.8453631 235.984012,53.8233471 C217.536535,53.8017396 201.650742,55.0704997 194.483969,56.9136065" id="Path" stroke-width="1.2" transform="translate(236.186208, 55.469986) rotate(2.000000) translate(-236.186208, -55.469986) "></path>
                <path d="M270.303275,60.2061892 C261.946894,59.5407708 249.60779,59.1115825 235.843928,59.0954609 C222.156134,59.0794284 209.878324,59.4752114 201.525897,60.1147821" id="Path" stroke-width="1.2" transform="translate(235.914586, 59.650590) rotate(2.000000) translate(-235.914586, -59.650590) "></path>
                <path d="M256.907372,41.6129032 C263.748824,31.5728896 269.685978,24.4425962 274.718834,20.2220232 C279.75169,16.0014502 287.731111,11.2487915 298.657097,5.96404735" id="Path-36" stroke-width="1.2"></path>
                <path d="M265.345936,43.5483871 C282.790353,33.6813312 296.416514,26.5256783 306.22442,22.0814282 C316.032326,17.6371781 325.012113,13.8250892 333.163782,10.6451613" id="Path-37" stroke-width="1.2"></path>
                <path d="M243.780718,40.6451613 C245.221871,30.7521906 246.691111,23.4323607 248.188438,18.6856716 C249.685766,13.9389825 252.123268,8.26538407 255.500945,1.66487626" id="Path-38" stroke-width="1.2"></path>
                <path d="M225.965974,40.6451613 C225.610788,31.7398011 224.733348,24.7867432 223.333655,19.7859874 C221.933961,14.7852316 219.554511,8.29040551 216.195303,0.301509177" id="Path-39" stroke-width="1.2"></path>
                <path d="M210.979564,40.6451613 C205.56461,30.8472851 200.143485,23.2666999 194.71619,17.9034059 C189.288896,12.5401119 181.884445,7.12726868 172.502838,1.66487626" id="Path-40" stroke-width="1.2"></path>
                <path d="M198.775047,44.516129 C185.700915,32.1355928 175.038203,23.5360836 166.786913,18.7176013 C158.535623,13.899119 147.064948,9.24550557 132.374888,4.75676095" id="Path-41" stroke-width="1.2"></path>
                <path d="M193.517659,44.516129 C167.22489,29.8665683 146.043344,20.8281117 129.973022,17.4007594 C113.9027,13.9734071 97.5980214,13.1825427 81.0589866,15.0281661" id="Path-42" stroke-width="1.2"></path>
                <path d="M192.21172,50.3225806 C161.467265,38.6913572 138.026811,31.7499723 121.890359,29.4984259 C105.753907,27.2468794 82.3134538,27.6468918 51.5689981,30.6984632" id="Path-43" stroke-width="1.2"></path>
                <path d="M274.722117,47.4193548 C299.022057,37.2666161 318.388492,30.6661184 332.821422,27.6178616 C347.254353,24.5696047 368.972069,24.0733283 397.974572,26.1290323" id="Path-44" stroke-width="1.2"></path>
                <path d="M280.347826,50.3225806 C307.736152,42.3627194 330.565821,37.7196059 348.836832,36.3932403 C367.107844,35.0668746 394.185123,35.9178568 430.06867,38.9461866" id="Path-45" stroke-width="1.2"></path>
                <path d="M280.347826,55.9406903 C314.805221,48.5269697 341.871109,45.0554077 361.545492,45.5260042 C381.219874,45.9966007 411.443363,51.1438466 452.215958,60.9677419" id="Path-46" stroke-width="1.2"></path>
                <path d="M277.534972,59.2933788 C314.598194,54.9684463 343.096185,54.0385962 363.028944,56.5038285 C382.961703,58.9690607 408.533025,66.5860642 439.742911,79.3548387" id="Path-47" stroke-width="1.2"></path>
                <path d="M274.722117,59.4355428 C302.861478,58.1856314 325.084577,59.8411336 341.391414,64.4020496 C357.698251,68.9629656 377.667969,79.108519 401.300567,94.8387097" id="Path-48" stroke-width="1.2"></path>
                <path d="M271.909263,60.9677419 C286.643161,63.2077187 298.519658,66.9611346 307.538752,72.2279897 C316.557847,77.4948447 328.434344,87.6123966 343.168242,102.580645" id="Path-49" stroke-width="1.2"></path>
                <path d="M256.907372,62.9032258 C262.174833,70.1207374 266.021797,76.3477539 268.448263,81.5842756 C270.874729,86.8207972 273.903632,94.7933115 277.534972,105.501819" id="Path-50" stroke-width="1.2"></path>
                <path d="M221.277883,62.9032258 C216.315591,73.440812 212.994333,81.3728526 211.314108,86.6993478 C209.633882,92.0258429 208.579589,97.96477 208.151229,104.516129" id="Path-51" stroke-width="1.2"></path>
                <path d="M211.901701,60.9677419 C204.676812,70.1315608 199.644271,77.0670446 196.804078,81.7741935 C193.963886,86.4813425 190.870403,93.4168263 187.523629,102.580645" id="Path-52" stroke-width="1.2"></path>
                <path d="M197.837429,57.0967742 C188.705627,59.509989 179.97205,63.6560061 171.636698,69.5348256 C163.301345,75.4136451 153.28256,84.4934344 141.58034,96.7741935" id="Path-53" stroke-width="1.2"></path>
                <path d="M192.21172,56.1770553 C171.63156,55.8506658 155.223242,57.1880114 142.986767,60.1890922 C130.750293,63.1901729 114.341975,69.9013357 93.7618147,80.3225806" id="Path-54" stroke-width="1.2"></path>
                <path d="M191.274102,52.5652522 C153.837504,49.1687283 126.519861,48.4672719 109.321174,50.4608828 C92.1224868,52.4544938 75.0595372,57.2471028 58.1323251,64.8387097" id="Path-55" stroke-width="1.2"></path>
                <line x1="237.6862" y1="63.8709677" x2="237.6862" y2="106.451613" id="Path-56" stroke-width="1.2"></line>
            </g>
            <g id="Group-4" transform="translate(0.794466, 0.299579)">
                <g id="Group-5" transform="translate(0.000000, 0.000000)" stroke-width="2">
                    <path d="M44.0521341,80.5577557 L44.0521341,48.0323333 L75.956663,16.1151757 L100.930536,26.2257961 L109.764207,16.1151757 L134.302646,26.2257961 L141.432086,16.1151757 L166.743207,28.3140188 L175.471453,16.1151757 L200.36308,28.3140188 L208.231319,17.7542397 L229.094763,37.7372225 L240.587022,17.7542397 L264.89463,39.7575608 L272.964433,17.7542397 L300.655218,39.7575608 L306.494377,17.7542397 L337.955963,31.0657844 L339.668742,17.7542397 L373.905711,31.0657844 L373.905711,17.7542397 L379.289025,17.7542397 L375.403488,135.299036 L323.283493,135.299036 L323.283493,131.488484 L297.233795,131.488484 L297.233795,124.277929 L273.834699,124.277929 M257.807473,124.277929 L245.347038,124.277929 L245.347038,119.71326 L231.479422,119.71326 L229.094763,124.277929 L229.094763,135.299036 L203.460966,135.299036 L203.460966,119.71326 L199.738262,119.71326" id="Shape" stroke-linecap="round"></path>
                    <line x1="44.0521341" y1="48.0323333" x2="378.363296" y2="51.3786956" id="Path-59"></line>
                    <line x1="373.905711" y1="31.0657844" x2="373.905711" y2="51.3786956" id="Path-60"></line>
                    <line x1="81.1006828" y1="48.0323333" x2="100.930536" y2="26.2257961" id="Path-61"></line>
                    <line x1="116.285564" y1="48.0323333" x2="134.302646" y2="26.2257961" id="Path-62"></line>
                    <line x1="151.964835" y1="49.7055145" x2="166.743207" y2="28.3140188" id="Path-63"></line>
                    <line x1="200.36308" y1="28.3140188" x2="187.539678" y2="49.7055145" id="Path-64"></line>
                    <line x1="229.094763" y1="37.7372225" x2="223.369383" y2="49.7055145" id="Path-65"></line>
                    <line x1="264.89463" y1="39.7575608" x2="261.331461" y2="49.7055145" id="Path-66"></line>
                    <line x1="300.655218" y1="39.7575608" x2="298.336162" y2="49.7055145" id="Path-67"></line>
                    <line x1="337.955963" y1="31.0657844" x2="336.391714" y2="51.3786956" id="Path-68"></line>
                    <path d="M176.708087,139.401534 L176.708087,122.958223 L183.1605,110.258784 M190.090753,96.6188737 L202.232927,72.721021" id="Shape" stroke-linecap="round"></path>
                    <line x1="176.708087" y1="138.319271" x2="186.408636" y2="119.71326" id="Path-70" stroke-linecap="round"></line>
                    <path d="M202.232927,72.721021 L166.743207,72.721021 L161.430342,82.7336993 M151.305072,101.815887 L140.086659,122.958223 L140.086659,143.819684" id="Shape" stroke-linecap="round"></path>
                    <line x1="140.086659" y1="122.958223" x2="176.708087" y2="122.958223" id="Path-72"></line>
                    <line x1="202.232927" y1="72.721021" x2="377.426076" y2="72.721021" id="Path-73"></line>
                    <line x1="198.392148" y1="80.5577557" x2="377.426076" y2="80.5577557" id="Path-73-Copy"></line>
                    <line x1="196.300379" y1="84.476123" x2="377.426076" y2="84.476123" id="Path-73-Copy-2"></line>
                    <line x1="190.379795" y1="96.2312251" x2="377.426076" y2="96.2312251" id="Path-73-Copy-3"></line>
                    <path d="M0.468609865,93.2613002 L12.3982189,80.5577557 L112.775736,81.8922162 L100.930536,96.2312251 L100.930536,112.419223 L112.775736,99.8966191 C112.775736,88.5940999 112.775736,82.5926322 112.775736,81.8922162" id="Path-74"></path>
                    <line x1="0.468609865" y1="93.2613002" x2="0.468609865" y2="104.034021" id="Path-75"></line>
                    <line x1="18.7557663" y1="111.402597" x2="100.930536" y2="112.419223" id="Path-76"></line>
                    <polyline id="Path-77" points="5.02770463 122.958223 5.02770463 98.6476604 9.3894405 93.2613002 18.7557663 93.2613002 14.7565385 98.6476604 14.7565385 122.958223"></polyline>
                    <line x1="18.7557663" y1="93.2613002" x2="18.7557663" y2="118.655208" id="Path-78"></line>
                    <path d="M0.468609865,93.2613002 L8.82449061,93.5083225 M18.7462774,93.8016372 L100.930536,96.2312251" id="Shape"></path>
                    <path d="M192.183934,23.9573909 L192.183934,18.2456516 L203.841337,0 L316.191897,0.97469548 L313.829009,20.3453799 M305.71965,20.2033396 L275.596395,19.6757128 M272.123123,19.6148764 L241.992857,19.0871268 M239.657494,19.0462215 L209.094464,18.5108918 M207.281655,18.4791394 L192.183934,18.2456516" id="Shape"></path>
                </g>
                <polyline id="Path-79" stroke-width="0.8" points="75.956663 16.1151757 91.0156092 35.0577509 59.8384064 33.2947719 75.4270078 48.0323333"></polyline>
                <path d="M417.375745,140.76462 L417.375745,161.689663 L283.902936,161.689663 L283.902936,191.220701 L417.375745,191.220701 C417.375745,174.402007 417.375745,164.558328 417.375745,161.689663" id="Path-58" stroke-width="2" stroke-linecap="round"></path>
                <polyline id="Path-69" stroke-width="2" points="283.902936 191.220701 50.6995727 191.220701 50.6995727 169.625538 67.6060491 169.625538 70.8100647 163.618623 83.179749 170.999784 88.3363125 163.618623 100.930536 170.999784 107.505246 163.618623 120.29212 170.999784 126.179715 164.274682 134.271779 169.625538 134.271779 160.671312 283.902936 161.689663"></polyline>
                <polyline id="Path-71" stroke-width="1.9" stroke-linecap="round" points="50.6995727 169.625538 66.3050933 146.215925 80.9654909 146.215925 84.9556461 141.619807 97.8343889 148.788966 102.306497 141.619807 116.628007 147.679904 120.451507 142.617745 132.362347 149.55198 138.988191 143.035962 142.37601 146.215925 145.695866 140.022283 176.186434 140.022283 174.869344 143.035962"></polyline>
                <polygon id="Path-80" stroke-width="2" points="66.5504338 140.022283 120.438233 140.022283 123.198496 135.299036 130.304691 135.299036 144.737443 108.270352 140.086659 105.520146 137.759288 108.270352 125.201978 108.270352 125.201978 115.288238 84.5477312 115.288238"></polygon>
                <polyline id="Path-81" stroke-width="1.9" points="125.023596 107.944937 127.698149 105.317486 139.879568 105.317486"></polyline>
                <polyline id="Path-82" stroke-width="1.9" points="125.023596 115.36851 137.685394 115.36851 137.685394 108.270352"></polyline>
                <line x1="70.8100647" y1="163.618623" x2="80.9654909" y2="146.215925" id="Path-83" stroke-width="1.9"></line>
                <line x1="88.3363125" y1="163.618623" x2="97.8343889" y2="148.788966" id="Path-84" stroke-width="1.9"></line>
                <line x1="107.505246" y1="163.618623" x2="116.628007" y2="147.679904" id="Path-85" stroke-width="1.9"></line>
                <line x1="125.705918" y1="164.926371" x2="132.451582" y2="149.574275" id="Path-86" stroke-width="1.9"></line>
                <line x1="134.271779" y1="160.671312" x2="142.37601" y2="146.215925" id="Path-87" stroke-width="1.9"></line>
                <line x1="297.233795" y1="131.488484" x2="283.902936" y2="160.671312" id="Path-88" stroke-width="1.9"></line>
                <line x1="375.403488" y1="135.299036" x2="405.284576" y2="135.299036" id="Path-89" stroke-width="1.9" stroke-linecap="round"></line>
                <polyline id="Path-3" stroke-width="1.2" points="109.764207 16.1151757 126.608217 34.4302612 95.6568209 32.0737545 109.764207 48.0323333"></polyline>
                <polyline id="Path-4" stroke-width="1.2" points="141.428129 16.7351991 160.504208 37.1290647 128.415218 34.8700389 141.428129 48.0323333"></polyline>
                <polyline id="Path-5" stroke-width="1.2" points="175.503422 16.7351991 193.951379 39.0097666 161.430342 36.5336672 173.637209 48.9382319"></polyline>
                <polyline id="Path-6" stroke-width="1.2" points="208.144952 19.0462215 224.375979 45.61007 192.183934 41.6150764 196.955506 48.9382319"></polyline>
                <polyline id="Path-8" stroke-width="1.2" points="240.751644 18.7785567 261.331461 47.0930214 227.068553 43.7213685 230.859518 48.9382319"></polyline>
                <polyline id="Path-9" stroke-width="1.2" points="272.953382 18.5108918 298.336162 44.7315376 264.89463 42.6851443 272.953382 49.7055145"></polyline>
                <path d="M306.527087,18.7785567 C327.479671,34.4384054 337.695255,42.2683297 337.173839,42.2683297 C336.652423,42.2683297 324.834747,42.752676 301.720813,43.7213685 L318.34426,51.3786956" id="Path-10" stroke-width="1.2"></path>
                <polyline id="Path-11" stroke-width="1.2" points="339.668742 17.7542397 373.905711 41.22224 337.173839 46.9930701 344.731918 51.3786956"></polyline>
            </g>
            <g id="Group-12" transform="translate(500.794466, 97.299579)" stroke-width="2">
                <path d="M1.8189894e-12,27.7235501 L1.8189894e-12,50.5796384 L8.8963699,90.274761 L120.464578,90.274761 L122.165342,67.3434007 C108.459508,39.2009231 101.606591,25.1296842 101.606591,25.1296842 C101.606591,25.1296842 67.7377276,25.9943062 1.8189894e-12,27.7235501 Z" id="Path-104"></path>
                <polyline id="Path-105" points="1.8189894e-12 27.7235501 10.2305228 68.9676533 122.165342 67.3434007"></polyline>
                <polygon id="Path-106" points="47.4285721 37.573105 53.8814449 54.1713686 97.6093208 54.1713686 90.0773664 36.3195347"></polygon>
                <polyline id="Path-107" points="47.4285721 37.573105 47.4285721 48.3456017 53.8814449 63.3111766 97.6093208 63.3111766 97.6093208 54.1713686"></polyline>
                <line x1="53.8814449" y1="54.1713686" x2="53.8814449" y2="63.3111766" id="Path-108"></line>
                <line x1="10.2305228" y1="68.9676533" x2="10.2305228" y2="90.274761" id="Path-109"></line>
                <polygon id="Path-110" points="44.6847587 1.6185259 96.361695 0.828265685 101.960582 12.1823055 49.6166531 13.661068"></polygon>
                <polyline id="Path-111" points="44.6847587 1.6185259 44.6847587 19.9254032 46.891019 26.067262"></polyline>
                <line x1="49.6166531" y1="13.661068" x2="49.6166531" y2="26.067262" id="Path-112"></line>
                <line x1="101.960582" y1="12.1823055" x2="101.606591" y2="25.1296842" id="Path-113"></line>
            </g>
        </g>
    </g>
</svg>
