<?xml version="1.0" encoding="UTF-8"?>
<svg width="187px" height="189px" viewBox="0 0 187 189" version="1.1" xmlns="http://www.w3.org/2000/svg" xmlns:xlink="http://www.w3.org/1999/xlink">
    <!-- Generator: Sketch 62 (91390) - https://sketch.com -->
    <desc>Created with Sketch.</desc>
    <g id="Real-content" stroke="none" stroke-width="1" fill="none" fill-rule="evenodd">
        <g id="Checkpoint-1-detail" transform="translate(-1158.000000, -865.000000)">
            <g id="map" transform="translate(1159.000000, 866.000000)">
                <g id="Group">
                    <path d="M184.61965,115.209156 C184.952194,116.209441 182.945365,117.874656 182.612821,118.874941 C181.944841,119.875227 180.941427,121.875798 180.605991,122.543618 C179.93512,123.541013 178.599161,125.206228 177.595747,125.541583 C176.927767,126.209404 175.588917,126.874334 174.920938,126.874334 C173.917523,127.206798 171.575258,126.874334 170.907278,127.874619 C170.571843,128.542439 172.578673,129.87519 172.914108,130.540119 C173.582087,131.540405 173.917523,133.208511 174.252958,134.205905 C174.585502,134.873726 174.585502,135.874011 174.920938,136.538941 C175.253482,137.542117 175.924353,138.874867 176.256896,140.204726 C176.592332,141.205012 176.592332,143.540938 176.592332,143.540938 C176.592332,143.540938 175.253482,145.871083 174.920938,146.538903 C174.585502,147.539189 173.582087,148.871939 173.582087,149.872224 C173.582087,151.204974 174.920938,152.87308 175.588917,154.20294 C175.924353,154.87076 176.256896,155.871046 176.592332,156.871331 C176.927767,158.204081 176.927767,159.872187 176.927767,161.204937 C176.927767,162.537687 176.592332,164.202902 176.927767,165.871008 C176.927767,166.871294 177.595747,167.868688 177.931182,168.871865 C178.263726,169.869259 178.263726,171.202009 178.599161,172.202295 C178.934597,173.20258 179.93512,174.202865 179.93512,174.867795 C179.93512,175.86808 178.934597,176.868366 178.599161,177.868651 C178.263726,179.201401 177.931182,182.867187 177.931182,182.867187 C177.931182,182.867187 173.582087,184.199937 172.243237,184.532402 C170.571843,184.867758 167.226163,185.868043 165.890204,185.868043 C165.222225,186.200508 163.547939,186.532973 163.215395,186.532973 C162.209089,186.200508 161.54111,184.199937 161.208566,183.535008 C160.537695,182.202257 159.53428,179.869222 158.866301,178.533581 C158.198321,177.20083 156.859471,174.867795 156.524036,173.535045 C155.856056,171.86983 154.517206,168.536509 153.849227,166.871294 C153.516683,165.535653 153.181247,162.870152 152.845812,161.537402 C152.510376,159.872187 151.506962,156.871331 150.838982,155.538581 C150.171003,153.53801 148.832153,149.53976 148.499609,147.539189 C148.164173,146.206439 147.496194,143.540938 147.160758,141.872832 L147.160758,138.207047 C146.825323,137.542117 146.489887,136.206476 146.157344,135.874011 C146.157344,135.541546 145.821908,135.20619 145.489364,135.20619 C144.150514,134.541261 141.475705,134.541261 140.469399,133.876331 C140.136855,133.540975 139.801419,132.205334 139.468875,131.87576 C138.465461,131.20794 136.458631,130.875475 135.455216,130.875475 C134.787237,130.875475 133.448387,130.540119 132.780407,130.875475 C130.770686,131.87576 129.099292,136.538941 127.427898,137.874582 C126.759918,138.207047 125.088524,138.874867 124.417653,139.539797 C124.082218,140.204726 123.414238,141.872832 123.414238,142.540653 C123.078803,143.540938 122.746259,145.871083 122.410824,147.203833 C122.410824,147.871654 122.07828,149.204404 122.07828,149.872224 L120.73943,152.537725 C120.403994,153.205545 119.068035,154.20294 118.397164,154.538295 C118.061729,154.538295 116.72577,154.87076 116.057791,154.87076 C115.38692,154.87076 114.050961,154.20294 113.38009,153.873366 C113.047547,153.53801 111.708696,152.87308 111.373261,152.20526 C111.373261,151.872795 111.040717,151.204974 111.040717,150.540045 L111.040717,148.871939 C111.708696,148.207009 113.715526,148.207009 114.050961,147.539189 C114.383505,147.203833 114.050961,145.871083 113.715526,145.871083 C113.38009,145.538618 112.04124,146.206439 111.708696,146.206439 C110.369846,146.538903 107.359602,146.874259 105.688207,146.874259 C104.349357,147.203833 101.006569,147.539189 99.6677185,147.539189 C98.6643037,147.539189 96.9929096,147.539189 96.3220386,146.874259 C95.9894948,146.206439 96.6574741,144.205868 96.3220386,143.540938 C96.3220386,142.873118 95.6540593,141.540367 95.3215154,140.872547 C95.3215154,140.540082 94.9860799,140.204726 94.9860799,140.204726 C94.6506444,139.872261 93.3146858,139.872261 92.9792503,139.872261 C92.311271,139.539797 90.6398769,139.207332 89.9690059,139.207332 C89.3010266,139.207332 87.6267408,139.872261 86.9587614,140.204726 C86.6233259,140.204726 85.9553466,140.872547 85.6228028,141.205012 C85.2873673,141.540367 85.2873673,143.205582 84.9519318,143.540938 C84.6164963,144.541224 84.6164963,145.871083 83.948517,146.538903 C83.6130815,146.874259 81.6062519,147.203833 80.9382726,147.203833 C80.2702933,147.539189 78.5960075,147.539189 77.9280281,147.539189 C77.2600488,147.539189 75.585763,147.203833 74.5852399,147.203833 C74.2498044,147.203833 72.9109541,147.871654 72.5755186,147.203833 C72.2429748,146.874259 72.5755186,146.206439 72.5755186,145.871083 C72.9109541,144.873688 72.9109541,142.540653 72.9109541,141.540367 C72.9109541,140.872547 73.2463896,139.207332 72.9109541,138.207047 C72.9109541,137.542117 72.5755186,136.538941 72.2429748,135.874011 C71.9075393,135.20619 71.23956,132.873155 70.2361451,132.54069 C69.9036013,132.54069 68.8972948,133.208511 68.2293155,133.540975 C67.5613362,133.540975 65.8870504,134.205905 64.8865273,134.541261 L63.2122415,134.541261 L60.872868,134.541261 C60.5374325,134.205905 59.8694532,133.208511 59.5340177,132.873155 C59.1985822,132.873155 58.1951674,132.54069 57.8626236,132.873155 C57.5271881,133.208511 57.8626236,134.541261 57.8626236,135.20619 C57.5271881,137.874582 58.1951674,142.873118 57.8626236,145.538618 C57.5271881,145.871083 57.1946443,146.206439 57.1946443,146.538903 C56.8592088,146.874259 56.1883378,147.539189 56.1883378,147.871654 C55.855794,148.207009 54.8523792,148.539474 54.5169437,148.871939 C53.5135288,148.871939 50.8387199,148.871939 49.8353051,148.539474 C49.1644341,148.207009 48.163911,147.539189 47.49304,147.539189 C46.8250607,147.203833 44.818231,146.874259 43.8148162,146.874259 C42.4759659,146.874259 40.1365925,147.203833 38.7977422,147.539189 C38.1297629,147.539189 37.126348,147.871654 36.4583687,148.207009 C35.7874977,148.539474 34.7840829,149.53976 34.1161036,149.872224 C33.1126888,150.204689 30.1024444,150.87251 29.0990295,150.204689 C28.4281585,149.53976 28.763594,147.203833 28.763594,146.206439 C28.4281585,144.541224 28.4281585,141.205012 28.763594,139.872261 C28.763594,138.874867 29.0990295,136.874296 29.4315734,135.874011 C29.7670089,135.541546 29.7670089,134.873726 30.1024444,134.541261 C30.7704237,133.876331 31.7738385,132.873155 32.4447095,132.205334 C33.4481243,130.875475 34.4486474,128.874904 35.4549539,127.542154 C35.7874977,126.874334 36.1229332,125.541583 36.7909125,124.876654 C37.4588919,123.876368 38.7977422,123.208548 39.130286,122.208262 C39.4657215,121.875798 39.801157,120.875512 40.1365925,120.207692 C40.8045718,119.542762 42.1434221,118.874941 42.8114014,117.874656 C43.4793807,117.209726 44.4827955,115.874085 44.4827955,114.876691 C44.818231,113.876406 43.4793807,112.2083 43.4793807,110.875549 C43.8148162,110.21062 43.8148162,108.87787 44.4827955,108.545405 C45.1536665,108.210049 46.1570813,109.54569 46.8250607,110.21062 C47.49304,110.543085 48.4964548,111.54337 49.1644341,111.875835 C49.8353051,112.2083 51.1741554,112.87612 51.8421347,112.87612 C52.8455495,113.208585 54.5169437,113.543941 55.5203585,113.876406 C57.1946443,113.876406 60.5374325,114.20887 62.2088267,114.20887 C63.2122415,114.544226 65.5545066,114.544226 66.5579214,114.544226 C67.2259007,114.544226 68.2293155,114.544226 68.564751,114.20887 C68.8972948,114.20887 69.9036013,113.876406 70.2361451,113.876406 C70.5715806,113.208585 71.23956,112.2083 71.5749955,111.54337 C71.9075393,110.875549 72.2429748,108.545405 72.5755186,107.545119 C73.2463896,105.877013 74.2498044,102.876157 74.9177837,101.210942 C75.585763,100.210657 76.5920695,97.8776214 77.2600488,96.8773361 C77.5954843,95.5445859 79.2668785,92.8790855 79.2668785,91.5463354 C79.602314,90.8785148 79.2668785,89.5486556 78.931443,88.880835 C78.2634636,88.2130144 76.5920695,86.5477994 75.585763,85.8799789 C74.9177837,85.5475141 73.5818251,85.5475141 72.9109541,85.5475141 C72.2429748,85.2150493 71.23956,84.8796935 70.9041245,84.5472287 C70.2361451,84.2147639 68.8972948,83.5469433 68.2293155,83.2144785 C67.5613362,82.5466579 65.5545066,81.5463725 64.5510918,81.2139077 C63.8831125,80.5489782 62.2088267,79.5486928 62.2088267,78.8808722 C62.5442622,78.2159426 64.8865273,77.8805868 65.2190711,77.2156572 C65.5545066,76.5478366 65.2190711,74.8797307 65.2190711,74.2148011 C64.8865273,73.2145157 64.8865273,71.2168359 64.2156563,70.5490153 C63.8831125,70.2165505 62.876806,70.5490153 62.2088267,70.2165505 C61.8762828,69.5487299 61.5408473,68.2159798 61.5408473,67.5510502 C61.5408473,66.8832296 61.8762828,65.8829442 61.5408473,65.2180146 C60.872868,64.8826588 59.5340177,65.2180146 58.8660384,65.2180146 C58.5306029,65.2180146 57.8626236,64.8826588 57.8626236,64.8826588 C57.8626236,64.8826588 55.184923,63.5499087 54.5169437,62.8820881 C53.8489643,61.8818027 53.8489643,59.8841229 53.8489643,58.5484817 C53.8489643,57.8835522 54.5169437,56.550802 54.1843998,55.8829814 C53.5135288,55.2180518 51.5066992,55.5505166 50.8387199,55.5505166 L47.8284755,55.5505166 C47.1576045,55.2180518 46.1570813,54.5502312 45.8216458,54.2177664 C44.818231,53.5499458 43.4793807,51.5493751 42.8114014,50.5519807 C42.4759659,49.2192305 42.1434221,46.886195 41.4754428,45.5505538 C40.8045718,43.8853388 39.130286,40.8844827 38.1297629,39.2192677 C37.4588919,38.2189823 35.7874977,36.2213025 35.1195184,35.2210172 C34.4486474,34.5531966 33.1126888,32.8879816 32.4447095,32.220161 C32.109274,31.8876962 31.7738385,31.2198756 31.438403,30.8874108 C31.1058592,30.2224813 30.1024444,29.5546607 29.4315734,29.5546607 C29.0990295,29.2221959 28.0956147,29.2221959 27.7601792,29.2221959 C27.0921999,29.5546607 26.4213289,29.8871255 26.0887851,30.2224813 C25.7533496,30.8874108 25.0853703,31.5523404 25.0853703,32.220161 C24.7499348,32.8879816 24.7499348,34.2207318 24.417391,34.8856614 C24.417391,35.553482 24.0819555,36.5508763 23.74652,37.2186969 C23.4110845,37.8865175 23.4110845,39.5517325 22.7459969,39.8841973 C22.4105614,40.8844827 21.071711,41.884768 20.4037317,42.5525886 C19.7328607,42.8850534 18.3969021,44.2178036 17.7289228,44.5531594 C16.7226163,44.8856242 14.3832429,45.22098 13.7123719,44.5531594 C13.0443926,44.2178036 13.3798281,42.5525886 13.3798281,41.884768 C13.3798281,41.5523033 13.7123719,40.5520179 13.7123719,40.2195531 C13.7123719,39.8841973 13.3798281,38.8868029 13.0443926,38.8868029 C12.7118487,38.5514471 11.7084339,38.2189823 11.0375629,37.8865175 C10.0341481,37.2186969 8.36275399,35.2210172 7.35933918,34.5531966 C6.69135987,33.888267 4.68453025,33.2204464 4.01365925,32.8879816 C3.01024444,32.5526258 1.00341481,32.220161 0.670870998,31.5523404 C0.335435499,31.2198756 0,29.5546607 0,29.5546607 C0,29.5546607 2.34226512,29.2221959 3.34567993,28.8868401 C4.68453025,28.8868401 6.35592437,28.5543753 7.691883,27.8865547 C8.69818949,27.5540899 10.0341481,26.8891603 11.0375629,26.5538045 C12.3764132,26.2213397 14.3832429,25.8888749 15.7192015,25.2210543 C16.7226163,24.8885895 18.0614666,24.5561248 19.0648814,23.8883042 C19.7328607,22.8880188 21.071711,21.8877334 21.4071465,20.887448 C22.0751259,19.8900536 22.4105614,18.2219477 22.7459969,17.2216623 C23.0785407,16.5538417 23.4110845,15.5564473 23.74652,14.8886267 C24.0819555,14.5561619 24.417391,13.8912323 24.7499348,13.8912323 C25.4208058,13.5558766 26.0887851,13.8912323 26.4213289,13.8912323 C27.4276354,14.2236971 28.4281585,14.8886267 29.0990295,15.2239825 C29.7670089,15.5564473 30.7704237,15.5564473 31.438403,15.5564473 C32.109274,15.5564473 32.7772533,15.2239825 33.4481243,15.2239825 C33.7806681,14.8886267 34.4486474,14.8886267 35.1195184,14.5561619 C35.4549539,14.2236971 36.1229332,13.8912323 36.7909125,13.5558766 C37.4588919,13.2234118 38.7977422,13.2234118 39.801157,13.2234118 C40.1365925,13.2234118 41.1400073,13.2234118 41.8079866,13.5558766 C42.4759659,13.8912323 43.4793807,14.2236971 44.14736,14.8886267 C44.4827955,15.5564473 44.818231,16.5538417 45.1536665,17.2216623 C45.4862103,17.8894829 46.1570813,18.8897683 46.1570813,19.5546978 C46.4896252,19.8900536 46.8250607,20.5549832 46.8250607,21.2228038 C47.1576045,21.8877334 47.1576045,22.8880188 47.1576045,23.5529484 C47.49304,24.220769 47.49304,25.2210543 47.8284755,25.5535191 C48.163911,26.2213397 48.8318903,26.8891603 49.1644341,27.2216251 C50.1678489,27.8865547 51.8421347,27.8865547 52.510114,28.5543753 C52.8455495,28.8868401 53.1780933,29.8871255 53.5135288,29.8871255 C54.5169437,30.2224813 55.855794,29.8871255 56.5237733,29.2221959 C57.1946443,28.8868401 57.5271881,27.8865547 57.8626236,27.2216251 C58.1951674,26.5538045 58.8660384,25.5535191 59.5340177,25.2210543 C60.201997,24.5561248 61.5408473,24.8885895 62.5442622,25.2210543 L66.5579214,25.2210543 C67.5613362,25.5535191 69.2327303,25.5535191 70.2361451,25.5535191 C70.9041245,25.8888749 71.5749955,26.5538045 72.2429748,26.5538045 C73.2463896,26.8891603 74.2498044,26.8891603 74.9177837,26.8891603 C76.256634,27.2216251 77.9280281,27.2216251 79.2668785,26.8891603 C79.9348578,26.8891603 81.2737081,26.8891603 81.9416874,26.2213397 C82.6125584,26.2213397 82.9451022,25.5535191 83.6130815,25.2210543 C83.948517,24.5561248 84.6164963,24.220769 85.2873673,23.8883042 C85.6228028,23.2233746 85.9553466,22.555554 86.6233259,22.2201982 C86.9587614,21.8877334 87.2941969,21.5552686 87.9621763,21.8877334 C88.2976118,21.8877334 88.9655911,22.555554 89.6335704,22.8880188 C89.9690059,22.8880188 90.3044414,23.5529484 90.9724207,23.8883042 L93.9826651,23.8883042 L95.3215154,23.8883042 C95.9894948,23.5529484 95.9894948,22.555554 96.3220386,22.2201982 C96.6574741,21.5552686 97.3283451,20.887448 97.3283451,20.2225184 C97.6608889,19.5546978 97.3283451,18.5544125 97.3283451,17.8894829 L97.3283451,17.2216623 C97.6608889,16.5538417 98.3317599,15.5564473 98.9997392,15.2239825 C99.6677185,14.8886267 100.33859,15.2239825 100.671133,15.2239825 C101.674548,15.2239825 102.677963,14.8886267 103.348834,14.5561619 C103.681378,14.5561619 103.681378,14.2236971 104.016813,14.2236971 C105.020228,13.5558766 106.023643,12.2231264 107.027058,11.5553058 C107.359602,11.222841 108.030472,10.5550204 108.698452,10.2254466 C109.369323,9.89009082 110.705281,10.2254466 111.708696,10.2254466 C112.04124,10.2254466 112.376676,10.2254466 113.047547,9.89009082 C113.715526,9.55762602 114.718941,8.88980544 115.38692,8.55444964 C116.057791,8.22487585 117.058314,8.22487585 117.39375,7.55705526 C117.729185,7.22459047 117.729185,6.55676988 117.729185,6.22430508 C118.7326,5.2240197 120.403994,3.89126953 121.407409,2.89098414 C122.07828,2.55851935 123.078803,2.22316356 123.414238,1.55534297 C124.082218,1.22287817 124.082218,0.22548379 124.753089,0.22548379 C125.421068,-0.109872002 126.424483,-0.109872002 126.759918,0.557948585 C127.092462,0.557948585 127.092462,1.22287817 127.427898,1.55534297 C128.095877,2.22316356 129.099292,2.89098414 129.770163,3.22344894 C130.102707,3.55591373 130.770686,3.55591373 131.106121,3.55591373 C131.441557,3.89126953 132.109536,3.89126953 132.444972,3.55591373 C133.448387,3.55591373 134.787237,3.22344894 136.123196,2.89098414 L138.465461,2.89098414 C138.798004,3.22344894 139.801419,3.55591373 140.136855,3.55591373 C141.14027,3.89126953 142.47912,3.55591373 143.147099,3.55591373 C144.150514,3.89126953 145.153929,3.89126953 145.821908,4.22373432 C146.489887,4.55619911 146.825323,5.5564845 146.825323,5.89184029 C147.160758,6.88923467 146.825323,8.22487585 147.160758,9.22227023 C147.828738,10.5550204 149.167588,11.222841 150.171003,12.2231264 C151.174418,13.2234118 151.842397,15.5564473 153.849227,15.8889121 C155.856056,16.2213769 155.520621,16.8891975 156.191492,17.5541271 C157.194907,18.2219477 158.866301,19.8900536 160.205151,19.8900536 C161.54111,19.8900536 163.215395,20.2225184 164.215919,20.5549832 L168.23247,20.5549832 C169.235884,20.5549832 171.242714,21.2228038 171.910693,20.5549832 C172.243237,20.2225184 171.910693,19.5546978 172.243237,19.2222331 C172.578673,18.5544125 173.582087,17.5541271 174.252958,17.2216623 C174.585502,16.8891975 175.253482,17.2216623 175.588917,17.2216623 C176.256896,17.2216623 177.260311,17.8894829 177.260311,17.8894829 C177.260311,17.8894829 175.588917,19.5546978 175.588917,20.2225184 C175.588917,20.5549832 176.256896,20.887448 176.592332,21.2228038 C176.927767,22.2201982 176.256896,24.5561248 176.256896,25.5535191 C175.588917,27.5540899 174.585502,30.8874108 173.246652,32.5526258 C172.578673,33.888267 169.903864,36.2213025 168.565013,37.2186969 C167.561599,38.2189823 165.222225,39.5517325 164.551354,40.5520179 C164.215919,41.884768 164.88679,44.2178036 164.551354,45.5505538 C164.215919,46.5508392 162.87996,48.5514099 162.544524,49.5516953 C161.876545,51.2169103 160.205151,54.882696 160.205151,56.8832668 C160.205151,58.5484817 161.208566,61.8818027 162.209089,63.2174439 C162.544524,63.8823735 163.547939,64.2177292 163.883375,64.8826588 C164.215919,65.2180146 164.215919,66.215409 164.551354,66.8832296 C164.551354,67.5510502 164.88679,69.2162652 165.222225,70.2165505 C165.222225,71.5493007 165.890204,74.5501569 166.22564,75.880016 C166.22564,76.2153718 166.22564,76.8803014 166.558184,77.2156572 C166.893619,77.548122 168.23247,77.8805868 168.900449,78.2159426 C170.236407,78.8808722 172.578673,79.5486928 173.246652,80.5489782 C173.917523,81.5463725 174.252958,83.5469433 173.917523,84.2147639 C173.917523,84.8796935 173.246652,85.8799789 173.246652,86.5477994 C171.575258,88.880835 166.558184,92.2112649 165.890204,94.8796563 C165.890204,95.5445859 165.890204,96.8773361 166.558184,97.5451566 C167.897034,99.2103716 173.582087,99.5457274 174.585502,101.543407 C174.920938,102.211228 173.917523,103.879334 173.917523,104.544263 C173.582087,106.877299 173.582087,111.54337 174.252958,113.876406 C174.585502,114.544226 175.924353,115.544512 176.256896,116.209441 C176.592332,116.541906 177.595747,117.209726 177.931182,117.542191 C178.599161,117.874656 180.270556,118.542477 181.27397,118.210012 C181.944841,117.542191 182.612821,115.209156 183.616236,114.876691 L184.61965,115.209156 Z" id="Stroke-42" stroke="#FFFFFF" stroke-width="1.5" fill-opacity="0.2" fill="#FFFFFF"></path>
                    <g id="Group-12-Copy-2" transform="translate(120.000000, 31.000000)">
                        <ellipse id="Oval" stroke="#7EE2D1" stroke-width="2.01599993" fill-opacity="0.2" fill="#7EE2D1" cx="26.1488971" cy="25.5580931" rx="25.5958959" ry="25.5580931"></ellipse>
                        <ellipse id="Oval-Copy-6" fill="#FFFFFF" cx="26.583392" cy="25.5580931" rx="5.81724906" ry="5.80865752"></ellipse>
                    </g>
                </g>
            </g>
        </g>
    </g>
</svg>
