<?xml version="1.0" encoding="UTF-8"?>
<svg width="1920px" height="1080px" preserveAspectRatio="xMidYMid slice" viewBox="0 0 1920 1080" version="1.1" xmlns="http://www.w3.org/2000/svg" xmlns:xlink="http://www.w3.org/1999/xlink">
    <!-- Generator: Sketch 63.1 (92452) - https://sketch.com -->
    <title>Aarau Copy</title>
    <desc>Created with Sketch.</desc>
    <defs>
        <linearGradient x1="15.372026%" y1="54.9928429%" x2="99.0853832%" y2="42.576282%" id="linearGradient-1">
            <stop stop-color="#FFFFFF" stop-opacity="0.3" offset="0%"></stop>
            <stop stop-color="#FFFFFF" offset="52.1358719%"></stop>
            <stop stop-color="#FFFFFF" offset="100%"></stop>
        </linearGradient>
        <linearGradient x1="50%" y1="0%" x2="50%" y2="100%" id="linearGradient-2">
            <stop stop-color="#000000" offset="0%"></stop>
            <stop stop-color="#000000" offset="100%"></stop>
        </linearGradient>
        <filter x="-9.9%" y="-352.9%" width="119.7%" height="805.9%" filterUnits="objectBoundingBox" id="filter-3">
            <feGaussianBlur stdDeviation="20" in="SourceGraphic"></feGaussianBlur>
        </filter>
    </defs>
    <g id="Aarau-Copy" stroke="none" stroke-width="1" fill="none" fill-rule="evenodd">
        <g id="Drone" transform="translate(899.349911, 624.349911) rotate(63.000000) translate(-899.349911, -624.349911) translate(869.349911, 594.349911)" fill="#FFFFFF" fill-rule="nonzero">
            <path d="M25.856,22.837 C29.4018379,17.7281902 28.4621635,10.7577552 23.6900677,6.77027409 C18.9179719,2.78279299 11.8914992,3.09685267 7.49417595,7.49417595 C3.09685267,11.8914992 2.78279299,18.9179719 6.77027409,23.6900677 C10.7577552,28.4621635 17.7281902,29.4018379 22.837,25.856 C23.6132798,27.1135078 24.0956061,28.5300638 24.248,30 C24.1471745,31.1988874 23.7934017,32.3627932 23.21,33.415 C18.2788158,29.7051763 11.3378997,30.3400521 7.16157813,34.8829265 C2.9852566,39.425801 2.93518024,46.3955124 7.04579421,50.9979272 C11.1564082,55.6003421 18.0874852,56.3348862 23.0714667,52.6963014 C28.0554481,49.0577167 29.4673534,42.2323297 26.336,36.915 C27.4584986,36.2661126 28.7087576,35.8692646 30,35.752 C31.2899221,35.8676826 32.5391896,36.2628346 33.661,36.91 C30.5109725,42.2383903 31.9168442,49.0873024 36.9112138,52.7438977 C41.9055833,56.400493 48.8592372,55.6719534 52.9872624,51.0595978 C57.1152877,46.4472422 57.071081,39.4556675 52.8850616,34.8958804 C48.6990423,30.3360933 41.7367319,29.6955422 36.789,33.415 C36.2062835,32.362572 35.8528751,31.1987441 35.752,30 C35.9043939,28.5300638 36.3867202,27.1135078 37.163,25.856 C42.2718098,29.4018379 49.2422448,28.4621635 53.2297259,23.6900677 C57.217207,18.9179719 56.9031473,11.8914992 52.5058241,7.49417595 C48.1085008,3.09685267 41.0820281,2.78279299 36.3099323,6.77027409 C31.5378365,10.7577552 30.5981621,17.7281902 34.144,22.837 C32.8865513,23.6134052 31.4699659,24.0957416 30,24.248 C28.5300341,24.0957416 27.1134487,23.6134052 25.856,22.837 Z M5.99998997,16 C5.99385414,11.6410204 8.81195126,7.78024174 12.9653827,6.45746127 C17.1188142,5.1346808 21.650577,6.65468382 24.1663672,10.2143945 C26.6821575,13.7741052 26.6023055,18.5533214 23.969,22.027 C23.4435875,21.9904232 22.9280934,22.1832496 22.5556715,22.5556715 C22.1832496,22.9280934 21.9904232,23.4435875 22.027,23.969 C19.0032398,26.26336 14.9403844,26.6457229 11.5416555,24.9557952 C8.14292663,23.2658676 5.99564905,19.795681 5.99998997,16 Z M16,53.0000023 C11.6080929,53.0029831 7.72827181,50.1400087 6.43593524,45.9425424 C5.14359866,41.7450762 6.74125887,37.1956678 10.3742935,34.7278924 C14.0073282,32.2601169 18.8253107,32.4516352 22.251,35.2 C21.9248359,35.7799831 21.9297399,36.4892162 22.263893,37.0646336 C22.5980461,37.6400509 23.2116084,37.9958275 23.877,38 C24.1155268,37.9935571 24.3506734,37.9419809 24.57,37.848 C25.5096931,39.4018802 26.0043656,41.1840849 26.0000286,43 C25.9939376,48.5203344 21.5203344,52.9939376 16,53.0000023 L16,53.0000023 Z M36.369,35.958 L36.369,35.958 L36.009,36.172 L36.009,36.172 L36.369,35.958 Z M54.000012,43 C53.999218,47.2261963 51.3417398,50.995624 47.3614673,52.416246 C43.3811949,53.836868 38.9375804,52.6019323 36.2610642,49.331306 C33.5845479,46.0606797 33.2530647,41.4605825 35.433,37.84 C36.1224423,38.1298551 36.9188535,37.9715228 37.445,37.44 C38.0422848,36.8477928 38.1654892,35.9274554 37.745,35.199 C40.7437764,32.7866619 44.8614753,32.3110427 48.3312302,33.9762262 C51.8009851,35.6414097 54.005952,39.1513639 54.000012,43 Z M33.752,30 C33.9415589,32.0652342 34.6389281,34.0515342 35.782,35.782 C34.0515342,34.6389281 32.0652342,33.9415589 30,33.752 C27.9347658,33.9415589 25.9484658,34.6389281 24.218,35.782 C25.3610719,34.0515342 26.0584411,32.0652342 26.248,30 C26.0587676,27.9346946 25.3613712,25.9483172 24.218,24.218 C25.9484101,25.3611841 27.9347391,26.0585635 30,26.248 C32.0652342,26.0584411 34.0515342,25.3610719 35.782,24.218 C34.6389281,25.9484658 33.9415589,27.9347658 33.752,30 Z M44,5.99998997 C48.3589796,5.99385414 52.2197583,8.81195126 53.5425387,12.9653827 C54.8653192,17.1188142 53.3453162,21.650577 49.7856055,24.1663672 C46.2258948,26.6821575 41.4466786,26.6023055 37.973,23.969 C38.0095743,23.4433225 37.8166417,22.9275757 37.444033,22.554967 C37.0714243,22.1823583 36.5556775,21.9894257 36.03,22.026 C33.7369501,19.0019104 33.3554696,14.9396705 35.0454161,11.5415422 C36.7353627,8.1434138 40.2048476,5.99632388 44,5.99998997 L44,5.99998997 Z" id="Shape"></path>
            <path d="M8.961,59.274 C9.11262485,58.7432834 8.80558692,58.190078 8.275,58.038 C2.16,56.291 1.99999183,52.185 1.99999183,51.992 C1.99779086,51.4397153 1.54828475,50.9937909 0.996,50.9959918 C0.44371525,50.9982091 -0.002209139,51.4477153 -8.17282762e-06,52 C-8.17282762e-06,52.235 0.088,57.779 7.725,59.962 C7.81458792,59.9867476 7.90705801,59.9995253 7.99999183,60 C8.44648781,59.9996742 8.83866243,59.7034007 8.961,59.274 Z" id="Path"></path>
            <path d="M59,51 C58.4477153,51 58,51.4477153 58,52 C58,52.042 57.928,56.267 51.725,58.038 C51.2445787,58.1743568 50.9384036,58.6442451 51.0077231,59.1388082 C51.0770426,59.6333713 51.5006035,60.0009775 52,60 C52.092942,59.9995253 52.1854121,59.9867476 52.275,59.962 C59.912,57.779 60,52.235 60,52 C60,51.4477153 59.5522847,51 59,51 Z" id="Path"></path>
            <path d="M52.275,0.038 C51.7437021,-0.113878306 51.1898783,0.193702071 51.038,0.725 C50.8861217,1.25629793 51.1937021,1.81012169 51.725,1.962 C57.84,3.709 58,7.815 58,8.008 C58.0022092,8.56028473 58.4517153,9.00620908 59.004,9.00400811 C59.5562847,9.0017908 60.0022091,8.55228473 60.0000082,8 C60.0000082,7.765 59.912,2.221 52.275,0.038 Z" id="Path"></path>
            <path d="M1,9 C1.55228475,9 2,8.55228475 2,8 C2,7.958 2.072,3.733 8.275,1.962 C8.80629792,1.81012169 9.11387829,1.25629793 8.96199999,0.725000004 C8.81012168,0.19370208 8.25629793,-0.113878297 7.725,0.038 C0.088,2.221 9.09494702e-13,7.765 9.09494702e-13,8 C9.09494702e-13,8.55228475 0.44771525,9 1,9 Z" id="Path"></path>
            <g id="figure" transform="translate(8.854875, 12.501475)">
                <g id="subgroup">
                    <path d="M4.13550056,-0.99992455 C6.38213868,-0.972324941 7.27339589,0.248129296 7.87118645,2.9380139 L14.5287255,2.95139772 C15.2644661,2.95271645 15.7469248,3.72131717 15.4282865,4.3844805 C13.8813792,7.60396878 11.9930218,9.25858856 9.77006943,9.08973634 L9.5606876,9.06855635 C7.51045845,8.87912402 6.81272065,7.74884442 6.22945313,4.93779825 L-0.00174065464,4.92572163 C-0.629625918,4.9246287 -1.10117684,4.3519281 -0.981742009,3.73550583 C-0.408058426,0.774633048 1.33720748,-0.88703825 4.13550056,-0.99992455 Z M12.841,4.948 L8.276,4.939 L8.30355196,5.0573721 C8.65702208,6.54787073 9.01775288,7.00997106 9.77762011,7.08063197 C10.7417133,7.20202591 11.7055357,6.62455853 12.6585213,5.22878747 L12.841,4.948 Z M4.16402798,0.99916687 C2.87521101,1.05180908 1.99304688,1.57050417 1.4517177,2.65124336 L1.3597137,2.84781595 L1.326,2.927 L5.817,2.936 L5.81164688,2.91088924 C5.47937489,1.60606488 5.09975659,1.10581156 4.39402817,1.01473577 L4.27333943,1.00327736 L4.16402798,0.99916687 Z" id="propeller"></path>
                </g>
            </g>
            <g id="figure" transform="translate(36.907817, 7.563271)">
                <g id="subgroup">
                    <path d="M4.13550056,4.00007545 C6.38213868,4.02767506 7.27339589,5.2481293 7.87118645,7.9380139 L14.5287255,7.95139772 C15.2644661,7.95271645 15.7469248,8.72131717 15.4282865,9.3844805 C13.8813792,12.6039688 11.9930218,14.2585886 9.77006943,14.0897363 L9.5606876,14.0685564 C7.51045845,13.879124 6.81272065,12.7488444 6.22945313,9.93779825 L-0.00174065464,9.92572163 C-0.629625918,9.9246287 -1.10117684,9.3519281 -0.981742009,8.73550583 C-0.408058426,5.77463305 1.33720748,4.11296175 4.13550056,4.00007545 Z M12.841,9.948 L8.276,9.939 L8.30355196,10.0573721 C8.65702208,11.5478707 9.01775288,12.0099711 9.77762011,12.080632 C10.7417133,12.2020259 11.7055357,11.6245585 12.6585213,10.2287875 L12.841,9.948 Z M4.16402798,5.99916687 C2.87521101,6.05180908 1.99304688,6.57050417 1.4517177,7.65124336 L1.3597137,7.84781595 L1.326,7.927 L5.817,7.936 L5.81164688,7.91088924 C5.47937489,6.60606488 5.09975659,6.10581156 4.39402817,6.01473577 L4.27333943,6.00327736 L4.16402798,5.99916687 Z" id="propeller" transform="translate(7.263920, 9.050782) rotate(63.000000) translate(-7.263920, -9.050782) "></path>
                </g>
            </g>
            <g id="figure" transform="translate(36.020937, 35.992909)">
                <g id="subgroup" transform="translate(0.000000, -0.000000)">
                    <path d="M5.13550056,3.00007545 C7.38213868,3.02767506 8.27339589,4.2481293 8.87118645,6.9380139 L15.5287255,6.95139772 C16.2644661,6.95271645 16.7469248,7.72131717 16.4282865,8.3844805 C14.8813792,11.6039688 12.9930218,13.2585886 10.7700694,13.0897363 L10.5606876,13.0685564 C8.51045845,12.879124 7.81272065,11.7488444 7.22945313,8.93779825 L0.998259345,8.92572163 C0.370374082,8.9246287 -0.10117684,8.3519281 0.0182579908,7.73550583 C0.591941574,4.77463305 2.33720748,3.11296175 5.13550056,3.00007545 Z M13.841,8.948 L9.276,8.939 L9.30355196,9.0573721 C9.65702208,10.5478707 10.0177529,11.0099711 10.7776201,11.080632 C11.7417133,11.2020259 12.7055357,10.6245585 13.6585213,9.22878747 L13.841,8.948 Z M5.16402798,4.99916687 C3.87521101,5.05180908 2.99304688,5.57050417 2.4517177,6.65124336 L2.3597137,6.84781595 L2.326,6.927 L6.817,6.936 L6.81164688,6.91088924 C6.47937489,5.60606488 6.09975659,5.10581156 5.39402817,5.01473577 L5.27333943,5.00327736 L5.16402798,4.99916687 Z" id="propeller" transform="translate(8.263920, 8.050782) rotate(143.000000) translate(-8.263920, -8.050782) "></path>
                </g>
            </g>
            <g id="figure" transform="translate(7.554473, 33.533821)">
                <g id="subgroup">
                    <path d="M5.13550056,5.00007545 C7.38213868,5.02767506 8.27339589,6.2481293 8.87118645,8.9380139 L15.5287255,8.95139772 C16.2644661,8.95271645 16.7469248,9.72131717 16.4282865,10.3844805 C14.8813792,13.6039688 12.9930218,15.2585886 10.7700694,15.0897363 L10.5606876,15.0685564 C8.51045845,14.879124 7.81272065,13.7488444 7.22945313,10.9377983 L0.998259345,10.9257216 C0.370374082,10.9246287 -0.10117684,10.3519281 0.0182579908,9.73550583 C0.591941574,6.77463305 2.33720748,5.11296175 5.13550056,5.00007545 Z M13.841,10.948 L9.276,10.939 L9.30355196,11.0573721 C9.65702208,12.5478707 10.0177529,13.0099711 10.7776201,13.080632 C11.7417133,13.2020259 12.7055357,12.6245585 13.6585213,11.2287875 L13.841,10.948 Z M5.16402798,6.99916687 C3.87521101,7.05180908 2.99304688,7.57050417 2.4517177,8.65124336 L2.3597137,8.84781595 L2.326,8.927 L6.817,8.936 L6.81164688,8.91088924 C6.47937489,7.60606488 6.09975659,7.10581156 5.39402817,7.01473577 L5.27333943,7.00327736 L5.16402798,6.99916687 Z" id="propeller" transform="translate(8.263920, 10.050782) rotate(243.000000) translate(-8.263920, -10.050782) "></path>
                </g>
            </g>
        </g>
        <path d="M198.527539,787.026509 C286.806936,781.585089 350.105023,777.683482 388.421801,775.321689 C445.896968,771.778999 465.744978,770.555595 503.372135,768.236309 C540.999292,765.917023 558.824961,763.184145 578.626449,763.597737 C598.427937,764.01133 619.891108,763.869927 637.21629,781.508365 C654.541471,799.146804 689.320267,910.136379 695.124993,926.261132 C700.929718,942.385884 698.568212,953.747545 713.771471,955.914389 C728.97473,958.081233 726.652421,949.543729 758.352481,935.272626 C790.052541,921.001523 842.650404,921.582043 853.254265,900.894918 C863.858125,880.207793 838.237461,869.745964 846.204556,854.895167 C854.17165,840.044369 893.154296,842.617106 896.281175,829.35603 C899.408055,816.094955 881.2459,780.863698 874.864781,760.236309 C868.483663,739.608921 853.254265,724.854026 863.543831,711.760441 C868.911879,704.929542 898.994164,673.64529 938.52276,653 C974.76326,634.072041 1020.16486,625.373239 1035.84422,625.373239 C1068.62553,625.373239 1069.71377,644.274203 1099.49019,644.274203 C1129.2666,644.274203 1133.62642,635.471736 1157.98972,625.373239 C1160.11395,624.492754 1201.27142,607.348399 1199.27371,597.54812 C1196.40866,583.492802 1176.78584,573.14525 1166.41361,551 C1161.64797,540.825119 1190.18187,531.23822 1187.49466,519.52276 C1180.14843,487.495261 1164.60864,499.765083 1188,476.989893 C1202.68657,462.690191 1230.48409,429.17703 1287.47803,406.5 C1311.10672,397.098499 1343.5625,393.931832 1384.84536,397" id="flying-path" stroke="url(#linearGradient-1)" stroke-width="11" opacity="0.5" stroke-linecap="round"></path>
        <g id="enterprise-interiors-filter" transform="translate(1475.000000, 420.000000)">
            <circle id="Oval" fill="#FFFFFF" opacity="0.400000006" cx="22.8214799" cy="22.8214799" r="22.8214799"></circle>
            <circle id="Oval-Copy-6" fill="#FFFFFF" cx="22.8214799" cy="22.8214799" r="8.29871995"></circle>
            <circle id="Oval-Copy-10" fill="#FF0000" cx="22.85" cy="22.85" r="3.85"></circle>
        </g>
        <g id="enterprise-infrastructure-filter" transform="translate(1057.000000, 303.000000)">
            <circle id="Oval" fill="#FFFFFF" opacity="0.400000006" cx="22.8214799" cy="22.8214799" r="22.8214799"></circle>
            <circle id="Oval-Copy-6" fill="#FFFFFF" cx="22.8214799" cy="22.8214799" r="8.29871995"></circle>
            <circle id="Oval-Copy-7" fill="#FF0000" cx="22.85" cy="22.85" r="3.85"></circle>
        </g>
        <g id="enterprise-construction-filter" transform="translate(1063.000000, 244.000000)">
            <circle id="Oval" fill="#FFFFFF" opacity="0.400000006" cx="22.8214799" cy="22.8214799" r="22.8214799"></circle>
            <circle id="Oval-Copy-6" fill="#FFFFFF" cx="22.8214799" cy="22.8214799" r="8.29871995"></circle>
            <circle id="Oval-Copy-8" fill="#FF0000" cx="22.85" cy="22.85" r="3.85"></circle>
        </g>
        <g id="poi-education-filter" transform="translate(1666.000000, 409.000000)">
            <circle id="Oval" fill="#FFFFFF" opacity="0.400000006" cx="22.8214799" cy="22.8214799" r="22.8214799"></circle>
            <circle id="Oval-Copy-6" fill="#FFFFFF" cx="22.8214799" cy="22.8214799" r="8.29871995"></circle>
            <circle id="Oval-Copy-11" fill="#FFC500" cx="22.87276" cy="22.87276" r="3.85"></circle>
        </g>
        <g id="all-highlights-filter" transform="translate(1092.000000, 173.000000)" fill="#FFFFFF">
            <g id="figure_2" transform="translate(0.000000, 413.000000)">
                <circle id="Oval" stroke="#FFFFFF" fill-opacity="0.2" cx="20" cy="20" r="20"></circle>
                <path d="M33.0448199,28.7709879 L31.6322879,28.7709879 L31.6322879,20.53696 L32.3902319,20.53696 C32.5969439,20.53696 32.7347519,20.399152 32.7347519,20.19244 C32.7347519,19.985728 32.5969439,19.84792 32.3902319,19.84792 L31.5289319,19.84792 C31.4944799,19.84792 31.4944799,19.813468 31.4600279,19.813468 L24.4662719,16.023748 C24.3973679,15.989296 24.3284639,15.989296 24.2595599,15.989296 L24.2595599,9.89129201 L25.4309279,9.89129201 C25.5687359,9.89129201 25.7065439,9.78793601 25.7409959,9.65012802 C25.7754479,9.51232002 25.7409959,9.37451202 25.6376399,9.27115602 L20.1253199,4.68904005 C20.0357727,4.62358257 19.9209327,4.59085384 19.7807997,4.59085384 C19.6406668,4.59085384 19.5258269,4.62358257 19.4362799,4.68904005 L13.9239599,9.27115602 C13.820604,9.37451202 13.786152,9.51232002 13.820604,9.65012802 C13.8550559,9.78793601 13.9928639,9.89129201 14.1306719,9.89129201 L15.3020399,9.89129201 L15.3020399,15.989296 C15.2331359,15.989296 15.1642319,15.989296 15.0953279,16.023748 L8.10157198,19.813468 C8.06711998,19.813468 8.06711998,19.84792 8.03266799,19.84792 L7.171368,19.84792 C6.964656,19.84792 6.82684799,19.985728 6.82684799,20.19244 C6.82684799,20.399152 6.964656,20.53696 7.171368,20.53696 L7.92931199,20.53696 L7.92931199,28.7709879 L6.51678,28.7709879 C6.310068,28.7709879 6.17226,28.9087959 6.17226,29.1155079 L6.17226,31.0103679 C6.17226,31.2170799 6.310068,31.3548879 6.51678,31.3548879 L33.0448199,31.3548879 C33.2515319,31.3548879 33.3893399,31.2170799 33.3893399,31.0103679 L33.3893399,29.1155079 C33.3893399,28.9432479 33.2515319,28.7709879 33.0448199,28.7709879 Z M30.9432478,28.7709879 L24.2595599,28.7709879 L24.2595599,20.53696 L30.9432478,20.53696 L30.9432478,28.7709879 Z M30.0819478,19.84792 L24.2595599,19.84792 L24.2595599,16.678336 L30.0819478,19.84792 Z M19.7807999,5.30917605 L24.4662719,9.20225202 L15.0953279,9.20225202 L19.7807999,5.30917605 Z M23.5705199,9.89129201 L23.5705199,28.7709879 L21.6412079,28.7709879 L21.6412079,25.6014039 C21.6412079,24.5678439 20.8143599,23.7409959 19.7807999,23.7409959 C18.7472399,23.7409959 17.920392,24.5678439 17.920392,25.6014039 L17.920392,28.7709879 L15.99108,28.7709879 L15.99108,9.89129201 L23.5705199,9.89129201 Z M19.4362799,28.7709879 L18.6094319,28.7709879 L18.6094319,25.6014039 C18.6094319,25.0846239 18.9539519,24.6367479 19.4362799,24.4989399 L19.4362799,28.7709879 Z M20.1253199,24.4989399 C20.6076479,24.6367479 20.9521679,25.0846239 20.9521679,25.6014039 L20.9521679,28.7709879 L20.1253199,28.7709879 L20.1253199,24.4989399 Z M15.3020399,16.678336 L15.3020399,19.84792 L9.47965198,19.84792 L15.3020399,16.678336 Z M8.61835199,20.53696 L15.3020399,20.53696 L15.3020399,28.7709879 L8.61835199,28.7709879 L8.61835199,20.53696 Z M32.7003001,30.6658479 L6.8613,30.6658479 L6.8613,29.4600279 L32.7003001,29.4600279 L32.7003001,30.6658479 Z" id="Shape" fill-rule="nonzero"></path>
                <path d="M19.7807999,17.09176 C18.368268,17.09176 17.1969,18.263128 17.1969,19.67566 C17.1969,21.0881919 18.368268,22.2595599 19.7807999,22.2595599 C21.1933319,22.2595599 22.3646999,21.0881919 22.3646999,19.67566 C22.3646999,18.263128 21.1933319,17.09176 19.7807999,17.09176 Z M19.7807999,21.5705199 C18.7472399,21.5705199 17.88594,20.70922 17.88594,19.67566 C17.88594,18.6421 18.7472399,17.7808 19.7807999,17.7808 C20.8143599,17.7808 21.6756599,18.6421 21.6756599,19.67566 C21.6756599,20.70922 20.8143599,21.5705199 19.7807999,21.5705199 Z" id="Shape" fill-rule="nonzero"></path>
                <path d="M20.5731959,19.33114 L20.1253199,19.33114 L20.1253199,18.779908 C20.1253199,18.573196 19.9875119,18.435388 19.7807999,18.435388 C19.5740879,18.435388 19.4362799,18.573196 19.4362799,18.779908 L19.4362799,19.67566 C19.4362799,19.882372 19.5740879,20.02018 19.7807999,20.02018 L20.5731959,20.02018 C20.7799079,20.02018 20.9177159,19.882372 20.9177159,19.67566 C20.9177159,19.468948 20.7454559,19.33114 20.5731959,19.33114 Z" id="Path" fill-rule="nonzero"></path>
                <path d="M17.02464,16.40272 L22.5369599,16.40272 C22.7436719,16.40272 22.8814799,16.264912 22.8814799,16.0582 L22.8814799,10.8904 C22.8814799,10.683688 22.7436719,10.54588 22.5369599,10.54588 L17.02464,10.54588 C16.817928,10.54588 16.68012,10.683688 16.68012,10.8904 L16.68012,16.0582 C16.68012,16.264912 16.817928,16.40272 17.02464,16.40272 Z M17.36916,15.71368 L17.36916,13.267588 L18.4027199,13.267588 L18.23046,13.784368 C18.161556,14.025532 18.196008,14.232244 18.333816,14.438956 C18.4716239,14.611216 18.6783359,14.749024 18.9194999,14.749024 L20.5731959,14.749024 C20.8143599,14.749024 21.0210719,14.645668 21.1588799,14.438956 C21.2966879,14.266696 21.3311399,14.025532 21.2622359,13.784368 L21.1588799,13.267588 L22.1924399,13.267588 L22.1924399,15.71368 L17.36916,15.71368 Z M20.3664839,12.95752 C20.3664839,12.991972 20.3664839,12.991972 20.3664839,13.026424 L20.6420999,13.99108 C20.6420999,13.99108 20.6420999,14.025532 20.6420999,14.025532 C20.6420999,14.025532 20.6076479,14.059984 20.6076479,14.059984 L18.9539519,14.059984 C18.9539519,14.059984 18.9194999,14.059984 18.9194999,14.025532 C18.9194999,14.025532 18.9194999,13.99108 18.9194999,13.99108 L19.1951159,13.026424 C19.1951159,12.991972 19.1951159,12.991972 19.1951159,12.95752 C19.1951159,12.923068 19.2295679,12.888616 19.2295679,12.854164 C19.2295679,12.544096 19.4707319,12.302932 19.7807999,12.302932 C20.0908679,12.302932 20.3320319,12.544096 20.3320319,12.854164 C20.3320319,12.888616 20.3320319,12.923068 20.3664839,12.95752 Z M22.1924399,11.23492 L22.1924399,12.578548 L20.9866199,12.578548 C20.8488119,12.027316 20.3664839,11.613892 19.7807999,11.613892 C19.1951159,11.613892 18.7127879,12.027316 18.5749799,12.578548 L17.36916,12.578548 L17.36916,11.23492 L22.1924399,11.23492 Z" id="Shape" fill-rule="nonzero"></path>
                <path d="M11.202252,25.7392119 L12.580332,25.7392119 C12.787044,25.7392119 12.924852,25.6014039 12.924852,25.3946919 L12.924852,23.7754479 C12.924852,23.1897639 12.476976,22.7418879 11.891292,22.7418879 C11.305608,22.7418879 10.857732,23.1897639 10.857732,23.7754479 L10.857732,25.3946919 C10.857732,25.5669519 10.99554,25.7392119 11.202252,25.7392119 Z M11.546772,23.7754479 C11.546772,23.5687359 11.68458,23.4309279 11.891292,23.4309279 C12.098004,23.4309279 12.235812,23.5687359 12.235812,23.7754479 L12.235812,25.0501719 L11.546772,25.0501719 L11.546772,23.7754479 Z" id="Shape" fill-rule="nonzero"></path>
                <path d="M26.7401038,25.7392119 L28.1181838,25.7392119 C28.3248958,25.7392119 28.4627038,25.6014039 28.4627038,25.3946919 L28.4627038,23.7754479 C28.4627038,23.1897639 28.0148278,22.7418879 27.4291438,22.7418879 C26.8434598,22.7418879 26.3955839,23.1897639 26.3955839,23.7754479 L26.3955839,25.3946919 C26.3955839,25.5669519 26.5678439,25.7392119 26.7401038,25.7392119 Z M27.0846238,23.7754479 C27.0846238,23.5687359 27.2224318,23.4309279 27.4291438,23.4309279 C27.6358558,23.4309279 27.7736638,23.5687359 27.7736638,23.7754479 L27.7736638,25.0501719 L27.0846238,25.0501719 L27.0846238,23.7754479 Z" id="Shape" fill-rule="nonzero"></path>
                <path d="M12.649236,26.3937999 L11.098896,26.3937999 C10.892184,26.3937999 10.754376,26.5316079 10.754376,26.7383199 C10.754376,26.9450319 10.892184,27.0828399 11.098896,27.0828399 L12.649236,27.0828399 C12.855948,27.0828399 12.993756,26.9450319 12.993756,26.7383199 C12.993756,26.5316079 12.821496,26.3937999 12.649236,26.3937999 Z" id="Path" fill-rule="nonzero"></path>
                <path d="M28.2215398,26.3937999 L26.6711998,26.3937999 C26.4644879,26.3937999 26.3266799,26.5316079 26.3266799,26.7383199 C26.3266799,26.9450319 26.4644879,27.0828399 26.6711998,27.0828399 L28.2215398,27.0828399 C28.4282518,27.0828399 28.5660598,26.9450319 28.5660598,26.7383199 C28.5660598,26.5316079 28.4282518,26.3937999 28.2215398,26.3937999 Z" id="Path" fill-rule="nonzero"></path>
            </g>
            <g id="figure_1" transform="translate(325.000000, 0.000000)" stroke="#FFFFFF">
                <circle id="Oval" fill-opacity="0.2" cx="20" cy="20" r="20"></circle>
                <path d="M15.7469504,20.6465568 C15.6522074,20.7386268 15.5984503,20.8693068 15.5984503,21.0029569 C15.5984503,21.1363099 15.6522074,21.2643169 15.7469504,21.3590599 C15.8419904,21.4540999 15.9697004,21.5075599 16.1033504,21.5075599 C16.2399704,21.5075599 16.3647104,21.4540999 16.4597504,21.3590599 C16.5547904,21.2643169 16.6082504,21.1395769 16.6082504,21.0029569 C16.6082504,20.8693068 16.5547904,20.7383298 16.4597504,20.6465568 C16.2729374,20.4567738 15.9343574,20.4597438 15.7469504,20.6465568 Z" id="Path" stroke-width="0.5" fill-rule="nonzero"></path>
                <path d="M14.8803043,20.0400828 C14.5889473,19.8470328 14.3373883,19.6031958 14.1327553,19.3159967 C13.6596342,18.6524987 13.4936112,17.8128796 13.6762662,17.0130586 C13.7383392,16.7410066 13.5684552,16.4704395 13.2967002,16.4083665 C13.0255392,16.3462935 12.7540812,16.5161775 12.6920082,16.7879326 C12.4452012,17.8690126 12.6706242,19.0038497 13.3103622,19.9016808 C13.5868692,20.2901568 13.9272312,20.6198268 14.3222413,20.8817808 C14.4080743,20.9385079 14.5048963,20.9658319 14.6008273,20.9658319 C14.7644743,20.9658319 14.9251513,20.8862358 15.0222703,20.7398148 C15.1761163,20.5078578 15.1125583,20.1945228 14.8803043,20.0400828 Z" id="Path" stroke-width="0.5" fill-rule="nonzero"></path>
                <path d="M16.3459994,7 L15.9685124,7.42411603 C15.7249724,7.69824704 10,14.1737384 10,17.5530046 C10,21.0516649 12.8467452,23.8984101 16.3457024,23.8984101 C19.8440656,23.8984101 22.6905138,21.0516649 22.6905138,17.5530046 C22.6905138,14.1737384 16.9667294,7.69824704 16.7228924,7.42411603 L16.3459994,7 Z M16.3459994,22.888313 C13.4039172,22.888313 11.0100971,20.4947898 11.0100971,17.5527076 C11.0100971,15.2432355 14.5657813,10.6094412 16.3459994,8.52836209 C18.1262175,10.6091442 21.6810107,15.2417505 21.6810107,17.5527076 C21.6810107,20.4950868 19.2877845,22.888313 16.3459994,22.888313 Z" id="Shape" stroke-width="0.5" fill-rule="nonzero"></path>
                <path d="M25.8227646,26.4234541 C25.7564445,26.4879031 25.7188146,26.5793791 25.7188146,26.6729341 C25.7188146,26.7662812 25.7564445,26.8558861 25.8227646,26.9222062 C25.8892926,26.9887342 25.9786895,27.0261562 26.0722446,27.0261562 C26.1678786,27.0261562 26.2551966,26.9887342 26.3217246,26.9222062 C26.3882526,26.8558861 26.4256746,26.7685681 26.4256746,26.6729341 C26.4256746,26.5793791 26.3882526,26.4876952 26.3217246,26.4234541 C26.1909555,26.290606 25.9539494,26.292685 25.8227646,26.4234541 Z" id="Path" stroke-width="0.5" fill-rule="nonzero"></path>
                <path d="M25.2161123,25.9989223 C25.0121624,25.8637873 24.8360711,25.6931014 24.692828,25.4920621 C24.3616433,25.0276134 24.2454272,24.4398801 24.3732857,23.8800054 C24.4167368,23.689569 24.297818,23.5001721 24.1075895,23.456721 C23.9177768,23.4132699 23.7277562,23.5321887 23.6843051,23.7224172 C23.5115402,24.4791732 23.6693363,25.2735591 24.1171529,25.9020409 C24.3107078,26.1739741 24.5489612,26.4047431 24.8254682,26.5881109 C24.8855513,26.6278198 24.9533267,26.6469466 25.0204784,26.6469466 C25.1350313,26.6469466 25.2475052,26.5912294 25.3154885,26.4887347 C25.4231807,26.3263648 25.3786901,26.1070303 25.2161123,25.9989223 Z" id="Path" stroke-width="0.5" fill-rule="nonzero"></path>
                <path d="M26.2420988,16.8708645 L25.977858,17.1677457 C25.8073799,17.3596375 21.7998994,21.8924814 21.7998994,24.2579676 C21.7998994,26.7070297 23.792621,28.6997513 26.2418909,28.6997513 C28.6907451,28.6997513 30.6832588,26.7070297 30.6832588,24.2579676 C30.6832588,21.8924814 26.6766099,17.3596375 26.5059239,17.1677457 L26.2420988,16.8708645 Z M26.2420988,27.9926834 C24.1826414,27.9926834 22.5069673,26.3172172 22.5069673,24.2577597 C22.5069673,22.6411293 24.9959462,19.3974734 26.2420988,17.940718 C27.4882515,19.3972655 29.9766067,22.6400898 29.9766067,24.2577597 C29.9766067,26.3174251 28.3013484,27.9926834 26.2420988,27.9926834 Z" id="Shape" stroke-width="0.5" fill-rule="nonzero"></path>
                <path d="M19.0408108,32.4193393 C18.9877547,32.4708985 18.9576507,32.5440793 18.9576507,32.6189233 C18.9576507,32.693601 18.9877547,32.7652849 19.0408108,32.818341 C19.0940332,32.8715634 19.1655508,32.901501 19.2403948,32.901501 C19.316902,32.901501 19.3867564,32.8715634 19.4399788,32.818341 C19.4932012,32.7652849 19.5231388,32.6954305 19.5231388,32.6189233 C19.5231388,32.5440793 19.4932012,32.4707322 19.4399788,32.4193393 C19.3353635,32.3130608 19.1457587,32.314724 19.0408108,32.4193393 Z" id="Path" stroke-width="0.5" fill-rule="nonzero"></path>
                <path d="M18.555489,32.0797138 C18.3923291,31.9716058 18.251456,31.8350571 18.1368616,31.6742257 C17.8719138,31.3026668 17.7789409,30.8324801 17.8812277,30.3845804 C17.9159886,30.2322313 17.8208536,30.0807138 17.6686708,30.0459529 C17.5168206,30.011192 17.3648041,30.106327 17.3300432,30.2585098 C17.1918313,30.8639146 17.3180682,31.4994233 17.6763215,32.0022087 C17.8311654,32.2197553 18.0217681,32.4043705 18.2429737,32.5510647 C18.2910402,32.5828318 18.3452605,32.5981333 18.3989819,32.5981333 C18.4906242,32.5981333 18.5806033,32.5535595 18.6349899,32.4715638 C18.7211437,32.3416678 18.6855512,32.1662002 18.555489,32.0797138 Z" id="Path" stroke-width="0.5" fill-rule="nonzero"></path>
                <path d="M19.3762782,24.777268 L19.1648855,25.014773 C19.0285031,25.1682863 15.8225188,28.7945613 15.8225188,30.6869502 C15.8225188,32.6461998 17.416696,34.2403769 19.3761119,34.2403769 C21.3351951,34.2403769 22.929206,32.6461998 22.929206,30.6869502 C22.929206,28.7945613 19.723887,25.1682863 19.5873383,25.014773 L19.3762782,24.777268 Z M19.3762782,33.6747226 C17.7287123,33.6747226 16.3881731,32.3343498 16.3881731,30.6867838 C16.3881731,29.3934795 18.3793561,26.798555 19.3762782,25.6331507 C20.3732002,26.7983886 22.3638843,29.3926479 22.3638843,30.6867838 C22.3638843,32.3345161 21.0236777,33.6747226 19.3762782,33.6747226 Z" id="Shape" stroke-width="0.5" fill-rule="nonzero"></path>
            </g>
        </g>

        <path id="Path-7" d="M818.486817,936.292441 L818.603445,936.299058 L832.281775,937.86934 L834.047952,938.072099 L832.95752,939.476183 L824.512568,950.350247 C824.173814,950.78644 823.545596,950.865431 823.109403,950.526677 C822.706763,950.213981 822.608486,949.654641 822.862187,949.227361 L822.932973,949.123512 L829.034,941.265 L821.573894,944.402756 C815.804875,946.767247 810.985544,948.619443 807.113455,949.959941 C801.128214,952.032001 792.875626,954.449858 782.350418,957.215864 C781.81627,957.356237 781.269463,957.037019 781.12909,956.502871 C780.988717,955.968724 781.307934,955.421916 781.842082,955.281543 C792.322266,952.52737 800.529718,950.122737 806.459165,948.069992 C810.132187,946.798411 814.680917,945.056049 820.095795,942.846506 L820.806994,942.555656 L828.26,939.42 L818.375341,938.286008 C817.865852,938.227518 817.489967,937.795791 817.489301,937.295109 L817.495918,937.178482 C817.549909,936.708184 817.921924,936.351726 818.372638,936.299146 L818.486817,936.292441 Z" fill="#FFFFFF" fill-rule="nonzero"></path>
        <path id="Path-8" d="M1002.91774,591.106632 L1003.02867,591.143235 L1015.83334,596.20317 L1017.48671,596.856521 L1016.06978,597.930211 L1005.09625,606.245511 C1004.65607,606.579064 1004.02883,606.492624 1003.69528,606.052441 C1003.38739,605.646118 1003.43735,605.080412 1003.79308,604.733437 L1003.88835,604.651468 L1011.819,598.641 L1003.81621,599.737376 C994.966734,601.027571 988.183486,602.241002 983.474757,603.374928 C976.974169,604.940357 968.385251,607.809454 957.717899,611.981479 C957.203552,612.182641 956.623518,611.928754 956.422356,611.414408 C956.221194,610.900061 956.47508,610.320027 956.989426,610.118865 C967.734379,605.916491 976.403443,603.020621 983.006515,601.430512 C987.644812,600.313548 994.222556,599.128431 1002.75522,597.87154 L1003.5363,597.757079 L1011.547,596.66 L1002.29365,593.003274 C1001.8167,592.814802 1001.56548,592.300441 1001.69454,591.816677 L1001.73114,591.705745 C1001.91961,591.228797 1002.43397,590.977578 1002.91774,591.106632 Z" fill="#FFFFFF" fill-rule="nonzero"></path>
        <path id="Path-9" d="M1207.53926,619.337453 L1206.83222,620.968586 L1201.35653,633.601054 C1201.13688,634.107783 1200.54804,634.340507 1200.04131,634.12086 C1199.57078,633.916902 1199.3365,633.394606 1199.48129,632.915318 L1199.5215,632.805641 L1203.479,623.675 L1197.03018,628.571899 C1191.87623,632.400903 1187.7171,635.313713 1184.54769,637.312963 C1179.72094,640.357649 1172.59118,644.184088 1163.1501,648.79872 C1162.65392,649.041246 1162.05507,648.835615 1161.81255,648.33943 C1161.57002,647.843245 1161.77565,647.244401 1162.27184,647.001875 C1171.65371,642.416183 1178.72609,638.62054 1183.48065,635.621386 C1186.48879,633.723869 1190.42779,630.9727 1195.28558,627.375858 L1195.82912,626.972729 L1202.268,622.083 L1192.41212,623.441869 C1191.90409,623.511909 1191.43266,623.187211 1191.30751,622.702422 L1191.28492,622.587812 C1191.21488,622.079782 1191.53958,621.608348 1192.02437,621.483201 L1192.13898,621.460609 L1205.77814,619.580249 L1207.53926,619.337453 Z" fill="#FFFFFF" fill-rule="nonzero"></path>
    </g>
</svg>
