<?xml version="1.0" encoding="UTF-8"?>
<svg width="1920px" height="1080px" viewBox="0 0 1920 1080" version="1.1" xmlns="http://www.w3.org/2000/svg" xmlns:xlink="http://www.w3.org/1999/xlink">
    <!-- Generator: Sketch 63.1 (92452) - https://sketch.com -->
    <title>menu_aargau</title>
    <desc>Created with Sketch.</desc>
    <g id="menu_aargau" stroke="none" stroke-width="1" fill="none" fill-rule="evenodd">
        <g transform="translate(559.000000, 28.000000)">
            <g id="maps" stroke="#FFFFFF" stroke-width="2">
                <path d="M1004.05938,112.582423 L1001.06294,115.694865 L994.235535,118.001544 L992.001788,126.786502 L993.220518,126.786502 L993.220518,129.804418 L993.220518,131.957697 L991.366159,133.428866 L989.332674,139.849401 L989.332674,142.452382 L989.332674,143.729309 L989.332674,144.980539 L993.220518,149.075851 L989.332674,152.540446 L991.366159,154.562215 L993.220518,158.167011 L987.125355,157.43464 L985.866567,158.167011 L984.518595,157.43464 L978.267359,164.916321 L978.267359,166.627834 L976.004111,165.994094 L976.004111,167.831826 L976.821133,169.306773 L975.481852,170.32446 L976.004111,171.473279 L974.749858,171.473279 L974.749858,174.293175 L972.544429,173.759957 L972.544429,172.361346 L970.358272,170.32446 L970.358272,173.759957 L970.987099,175.149498 L974.749858,180.565951 L974.749858,182.39159 L973.72877,183.146258 L970.987099,184.032058 L965.279662,184.533532 L963.328938,186.691724 L961.075893,187.724905 L961.075893,190.243992 L961.919368,194.103493 L961.919368,196.142647 L957.881497,200.524029 L955.02759,199.236899 L953.386745,199.236899 L954.220394,196.142647 L949.2578,193.56952 L946.723975,194.740256 L945.265277,196.778654 L941.81542,200.524029 L941.81542,203.846911 L941.81542,214.122036 L940.510151,220.333214 L937.435549,226.872788 L934.565014,227.960765 L932.757893,228.848076 L931.747008,231.573497 L928.571129,229.644691 L925.927335,229.644691 L922.726514,227.960765 L919.130032,227.960765 L916.610189,228.848076 L916.610189,231.573497 L913.57829,233.54425 L913.57829,236.040285 L914.23546,237.54622 L910.621216,241.212614 L910.621216,244.062365 L909.421381,247.733672 L909.421381,250.604962 L910.621216,252.2545 L912.353136,253.142567 L915.45608,251.452972 L916.610189,253.142567 L914.874868,254.991635 L911.763232,256.941226 L910.621216,259.655688 L914.23546,263.326617 L914.23546,266.969959 L916.610189,273.704152 L914.874868,278.212132 L914.874868,285.318179 L916.610189,289.418026 L917.200092,292.878464 L918.300917,293.611592 L920.453441,293.611592 L923.504612,292.878464 L926.469244,292.21298 L928.571129,292.21298 L930.54755,292.878464 L931.747008,293.611592 L931.747008,295.384702 L931.747008,299.701842 L931.177511,306.860418 L933.723807,313.518653 L929.507189,316.596277 L926.990748,316.101983 L924.910025,316.596277 L924.910025,318.621826 L923.504612,320.261916 L921.646852,321.791281 L921.074332,323.677762 L921.646852,325.789472 L923.504612,325.789472 L923.504612,324.586235 L925.927335,327.000266 L925.927335,329.959985 L927.550419,332.81805 L930.044564,335.624719 L930.044564,338.066715 L931.177511,338.879202 L936.533878,339.818663 L939.614526,339.818663 L939.614526,342.383098 L941.056973,344.424897 L944.021605,344.424897 L945.265277,346.807562 L947.240943,350.533664 L950.004154,358.293102 L947.240943,360.037115 L943.169061,361.245642 L943.169061,366.48297 L942.333522,366.48297 L943.169061,377.95604 L944.639096,378.698237 L946.723975,379.625984 L947.240943,381.39456 L945.871052,383.083776 L946.723975,385.323217 L947.240943,388.043725 L945.871052,389.493353 L945.871052,392.125054 L944.639096,393.872468 L941.056973,393.872468 L937.435549,392.974198 L935.270933,392.974198 L935.270933,394.568939 L932.757893,395.756682 L933.723807,398.453382 L937.435549,401.626994 L943.169061,402.759185 L947.240943,404.181603 L951.557326,404.181603 L955.88807,412.355977 L955.02759,413.868336 L955.88807,415.549995 L957.881497,415.549995 L957.881497,419.740538 L941.81542,440.512236 L941.81542,443.859682 L945.265277,447.168204 L947.240943,449.928392 L944.639096,451.862488 L944.021605,455.444988 L939.614526,457.599023 L938.642187,457.599023 L935.270933,451.862488 L929.507189,453.911089 L924.910025,456.14675 L923.504612,459.011239 L924.910025,460.351555 L922.726514,461.414688 L920.453441,457.599023 L919.130032,458.341976 L916.610189,458.341976 L916.610189,460.351555 L921.074332,464.400861 L924.910025,464.400861 L930.54755,465.369421 L933.723807,464.400861 L936.533878,463.387331 L939.614526,463.387331 L941.81542,464.400861 L942.333522,467.634559 L944.021605,469.16997 L944.021605,472.539334 L944.639096,473.625799 L945.871052,472.539334 L949.2578,473.057058 L950.004154,471.791846 L952.452574,472.539334 L954.220394,473.625799 L957.881497,470.400037 L961.075893,473.625799 L961.919368,476.004307 L963.977038,475.332777 L965.279662,476.58514 L963.977038,478.312903 L963.977038,479.713782 L961.919368,482.070371 L961.919368,485.558018 L961.919368,503.393049 L964.756648,506.186554 L964.756648,510.143492 L968.424175,515.143499 L970.358272,516.977073 L969.784619,521.494122 L970.358272,524.313263 L973.166075,524.313263 L974.749858,524.313263 L980.69575,525.74853 L979.840938,528.130061 L980.69575,530.636678 L980.69575,532.510688 L978.267359,533.753604 L976.821133,537.232182 L978.267359,540.374049 L978.943802,544.174598 L978.943802,548.604352 L978.943802,552.430976 L981.57248,556.323733 L980.69575,559.756206 L978.267359,565.099347 L976.821133,569.190501 L976.004111,572.457076 L976.004111,573.634615 L976.821133,575.886527 L978.943802,579.372284 L979.840938,581.736054 L980.69575,583.318703 L979.840938,583.952442 L984.518595,587.541367 L987.125355,591.174884 L990.226032,593.943763 L993.220518,593.943763 L993.220518,595.81475 L992.001788,598.228781 L993.220518,600.298166 L992.682387,602.226972 L989.332674,607.293867 L987.6718,614.030705 L988.212576,616.616303 L991.366159,616.616303 L991.366159,620.285069 L998.433172,620.285069 L1005.92875,615.741798 L1013.34435,614.030705 L1017.51276,617.537697 L1019.97799,617.537697 L1023.86546,614.030705 L1028.19623,614.690045 L1029.88309,611.049699 L1033.0869,611.049699 L1039.0337,607.293867 L1041.23311,602.226972 L1042.49577,600.298166 L1046.70557,600.298166 L1043.38835,609.538724 L1042.49577,612.134083 L1039.0337,617.537697 L1033.95719,626.933437 L1031.95994,632.357745 L1026.4648,633.212916 L1026.4648,638.936872 L1020.7492,639.909435 L1019.26767,642.767433 L1015.25326,648.218801 L1014.05586,652.920849 L1011.51104,656.234488 L1011.51104,660.757463 L1012.66467,660.757463 L1010.29812,669.906481 L999.484527,677.365053 L996.365082,682.841491 L988.212576,688.034596 L976.004111,689.385201 L973.72877,690.978549 L966.451603,695.459741 L956.670659,689.385201 L953.386745,691.624404 L957.881497,701.00343 L961.919368,717.983491 L972.544429,727.777966 L970.358272,746.8679 L976.004111,753.419967 L975.481852,758.857008 L973.166075,762.602013 L978.943802,774.238946 L985.866567,785.023095 L978.943802,793.032415 L978.943802,802.795452 L969.784619,813.494044 L965.279662,817.888486 L963.328938,826.446166 L963.328938,838.171043 L968.424175,844.689683 L971.955897,850.862116 L971.955897,864.028727 L972.544429,875.325819 L975.481852,885.889908 L976.821133,893.847496 L970.987099,903.465286 L969.784619,915.381174 L973.166075,924.970312 L974.749858,929.059932 L981.57248,930.896022 L985.866567,933.800978 L988.212576,943.829441 L992.001788,965.49603 L988.212576,974.605253 L990.226032,989.055217 L990.226032,999.213408 L987.6718,1003.70176 L981.57248,1008.03054 L978.267359,1010.85512 L975.481852,1009.58649 L967.528426,1009.58649 L961.919368,1006.66721 L958.946472,1009.062 L945.871052,1004.46183 L940.510151,1008.03054 L934.565014,1006.66721 L934.565014,999.213408 L922.726514,994.855976 L916.610189,993.606049 L914.23546,977.566318 L909.421381,976.22208 L909.421381,970.915562 L898.503903,956.754104 L895.674556,955.265016 L897.297351,950.937429 L891.031005,941.386891 L889.751233,937.57742 L884.886427,934.379183 L886.035277,932.430078 L882.328077,925.960782 L883.901528,916.351349 L882.328077,913.638996 L884.886427,911.896819 L883.186431,910.162202 L881.770564,902.6129 L876.62561,898.225622 L870.627474,881.179503 L870.627474,875.325819 L867.454706,868.21027 L868.372353,865.546864 L867.454706,860.748515 L865.927813,859.721832 L865.927813,856.865823 L864.23896,851.494441 L862.556076,849.917011 L854.956633,848.240095 L854.347786,844.689683 L856.729452,842.203758 L856.729452,838.171043 L857.937595,835.151083 L852.841189,831.011721 L850.709827,822.159566 L850.709827,814.80008 L848.490919,807.381302 L848.490919,801.001145 L849.187312,796.560543 L843.803992,784.400718 L842.166075,782.708681 L835.764031,772.651567 L832.432087,771.836189 L828.573272,770.966692 L824.425553,759.511618 L821.490354,754.690586 L820.877528,746.8679 L820.877528,740.37035 L824.425553,736.130309 L828.573272,733.620905 L827.775404,731.024751 L817.497035,727.777966 L811.242229,716.887965 L807.309397,712.869576 L802.683355,711.954316 L800.844876,711.954316 L799.111454,711.954316 L796.728992,709.231617 L791.999486,711.235638 L788.864124,712.869576 L787.227003,711.235638 L786.341986,707.095878 L778.428172,708.186629 L775.092249,708.186629 L772.78062,708.186629 L770.839871,699.510363 L765.588667,699.510363 L762.133362,701.00343 L758.081547,701.00343 L756.884944,704.887316 L756.884944,709.231617 L751.288726,712.869576 L749.916632,712.869576 L749.916632,716.287475 L744.333547,716.887965 L744.333547,723.066765 L747.110366,728.70596 L736.239068,728.70596 L732.760683,726.696367 L726.591433,727.777966 L725.864398,732.711217 L714.101717,770.966692 L698.746839,780.677202 L695.250945,782.708681 L696.233058,786.196617 L691.684217,790.406415 L693.421221,794.089739 L694.658413,798.804919 L694.658413,801.001145 L693.421221,802.795452 L693.421221,804.523304 L691.684217,806.368149 L691.684217,811.833047 L691.079747,816.386664 L691.684217,822.159566 L693.421221,826.446166 L682.074386,826.446166 L675.517941,827.100775 L672.076164,831.011721 L664.941884,834.155188 L660.689593,834.155188 L659.774811,834.155188 L657.972244,834.155188 L656.199412,835.151083 L652.113802,834.155188 L649.288853,830.006584 L647.330171,827.100775 L648.324771,825.441279 L650.011524,823.317873 L648.324771,823.317873 L645.831618,822.159566 L642.325082,822.159566 L638.987574,820.864628 L637.546929,820.864628 L632.037888,816.386664 L629.745846,811.833047 L629.745846,808.745522 L632.037888,806.368149 L628.397148,802.795452 L624.977865,802.795452 L623.680815,801.001145 L623.680815,797.446903 L632.037888,796.560543 L637.546929,795.359102 L640.389093,795.359102 L644.227423,793.032415 L645.831618,797.446903 L651.416173,797.446903 L652.113802,793.58588 L653.746168,790.406415 L654.249729,788.399635 L657.972244,786.196617 L656.86574,785.023095 L650.011524,770.004213 L646.615717,770.966692 L643.51023,771.836189 L642.325082,774.91931 L636.5715,776.236315 L632.618529,777.397987 L631.302698,777.397987 L629.745846,778.339376 L627.615005,776.236315 L625.642237,779.22403 L622.614612,777.397987 L611.388769,782.041545 L601.35003,782.041545 L592.718678,784.400718 L589.673446,786.196617 L588.651457,788.399635 L578.680407,795.359102 L575.85585,791.323182 L571.960395,790.406415 L564.051714,788.399635 L558.012115,787.727046 L555.714204,784.400718 L552.491728,777.397987 L552.491728,770.004213 L541.510426,754.690586 L536.555811,752.902712 L528.328247,749.397742 L522.146619,751.64831 L513.717944,755.517941 L513.717944,757.660128 L511.403208,760.211972 L507.920148,762.602013 L505.899645,764.473262 L503.786803,766.843558 L499.927736,766.843558 L498.424488,766.021897 L495.871861,766.021897 L491.155919,762.602013 L485.873423,762.602013 L484.193713,764.473262 L482.568781,765.126678 L482.568781,770.004213 L488.857617,778.339376 L492.471359,782.708681 L484.193713,785.583685 L476.964272,787.225051 L473.381048,787.225051 L463.510945,789.623518 L445.152302,792.494636 L442.67206,795.359102 L438.480808,793.032415 L432.444731,793.032415 L430.607732,789.623518 L425.642944,787.225051 L425.642944,785.583685 L425.642944,782.041545 L426.187979,776.236315 L425.642944,770.966692 L425.642944,766.021897 L428.021065,762.602013 L425.642944,760.821958 L427.467422,757.660128 L420.084213,749.397742 L410.250497,736.130309 L410.250497,732.711217 L409.076305,728.70596 L409.076305,726.696367 L407.674004,723.632023 L395.357307,710.435758 L385.601063,720.459238 L378.426399,721.85254 L365.057194,725.547275 L361.648867,721.302418 L346.785413,720.459238 L339.244523,719.715048 L330.81663,725.547275 L331.487262,728.70596 L332.071033,735.591492 L335.239513,738.643375 L333.819605,743.550647 L339.244523,748.555735 L339.244523,754.175113 L344.19053,757.660128 L344.19053,761.388121 L346.785413,766.843558 L348.043337,767.908196 L339.244523,774.91931 L324.453454,790.406415 L317.114849,795.359102 L307.997152,806.368149 L291.069374,801.001145 L275.647974,788.399635 L266.640223,788.399635 L236.13313,795.359102 L214.123966,801.771578 L195.124037,811.029348 L183.546053,808.745522 L178.047185,805.381017 L172.003674,806.368149 L162.600744,793.58588 L161.77204,791.323182 L160.180757,789.623518 L158.195859,789.623518 L158.195859,787.727046 L158.195859,784.400718 L154.921737,780.677202 L154.921737,777.397987 L158.195859,775.609897 L156.200006,771.836189 L156.200006,769.101169 L158.195859,766.843558 L159.381007,764.473262 L160.704664,762.602013 L159.381007,756.997322 L160.704664,755.517941 L159.381007,751.64831 L156.200006,752.258687 L156.943022,750.868515 L158.195859,749.397742 L157.621479,747.592435 L156.200006,747.592435 L158.195859,745.709267 L154.921737,744.314009 L154.921737,742.138564 L166.018853,737.712551 L180.218326,720.459238 L182.009547,710.435758 L185.894829,699.510363 L189.593477,693.744696 L194.622041,686.154506 L199.337592,674.533483 L202.779959,659.643815 L205.552087,656.928421 L212.022861,652.920849 L217.474777,651.615014 L221.593645,648.218801 L225.635043,645.930686 L232.392616,645.930686 L238.710015,647.432761 L244.382996,647.432761 L247.326107,645.930686 L247.326107,638.936872 L254.866214,633.212916 L258.161074,628.393705 L256.264994,622.608821 L256.264994,613.33227 L259.492947,605.627831 L264.420565,598.228781 L268.239723,590.666169 L273.692421,585.982311 L289.886582,600.298166 L313.788316,603.30115 L328.983798,603.30115 L330.81663,611.049699 L328.983798,620.285069 C328.772771,623.653778 328.772771,626.13746 328.983798,627.736115 C329.194825,629.334769 329.805769,631.479359 330.81663,634.169885 L342.995081,630.269528 L369.118837,622.608821 L369.728892,620.285069 L373.447415,615.741798 L381.75863,612.134083 L383.051021,613.33227 L389.387056,603.30115 L404.136134,597.449705 L404.136134,598.228781 L409.076305,595.81475 L411.9123,593.943763 L414.155688,588.573438 L409.076305,580.261313 L409.076305,576.668711 L419.455264,567.185116 L421.573185,557.973363 L418.502904,553.208381 L420.084213,551.144556 L426.187979,544.174598 L429.587555,539.413482 L435.134427,535.26492 L437.72921,535.26492 L441.117247,527.54194 L442.052333,522.778322 L445.152302,510.143492 L445.152302,504.826224 L447.407369,500.210347 L447.407369,493.378812 L442.67206,482.070371 L441.117247,471.791846 L433.074693,470.400037 L431.252253,473.625799 L430.607732,475.332777 L425.642944,472.539334 L422.801934,473.625799 L417.359617,472.539334 L417.359617,469.16997 L418.502904,460.351555 L414.81393,453.130581 L413.390618,449.292503 L407.674004,443.255586 L400.324876,440.512236 L392.380057,438.411506 L389.387056,435.488057 L388.403784,433.298311 L385.601063,434.446143 L381.001288,432.309584 L377.511878,434.446143 L370.73353,427.377769 L367.429136,422.224115 L365.057194,422.224115 L359.594783,419.740538 L352.433218,415.549995 L352.433218,414.89208 L360.836715,412.355977 L370.73353,407.31275 L378.426399,403.364661 L381.001288,403.364661 L381.001288,407.31275 L381.001288,412.355977 L381.75863,413.868336 L383.051021,413.868336 L384.850277,408.579229 L384.850277,399.869341 L383.051021,395.756682 L383.051021,393.872468 L384.15385,392.974198 L381.75863,389.493353 L381.75863,382.302732 L381.75863,376.523567 L379.622526,370.405734 L377.511878,363.875591 L376.540425,360.037115 L373.447415,358.293102 L369.728892,354.362901 L368.529692,351.979501 L369.118837,350.533664 L369.728892,348.797392 L368.529692,338.066715 L365.057194,335.624719 L359.594783,332.019492 L358.493773,331.160777 L355.570778,334.056497 L354.772978,336.714013 L352.433218,336.714013 L350.691695,338.066715 L348.043337,341.715834 L348.043337,344.424897 L346.785413,346.807562 L344.19053,346.807562 L342.100908,346.807562 L342.100908,345.011136 L344.19053,339.818663 L342.995081,338.066715 L340.253012,336.714013 L331.487262,329.116044 L327.04362,329.959985 L323.672403,331.160777 L319.515204,332.019492 L319.515204,329.959985 L320.392102,323.677762 L323.672403,313.518653 L325.256639,305.026111 L327.04362,298.199122 L326.41629,295.384702 L325.256639,290.964824 L327.04362,288.017281 L328.983798,285.318179 L327.04362,283.425497 L324.453454,284.531507 L322.063619,286.959457 L310.592096,290.964824 L307.997152,290.964824 L303.489326,290.964824 L301.585761,288.017281 L298.552565,288.017281 L295.566833,289.418026 L291.069374,289.418026 L287.403672,289.418026 L283.121349,288.017281 L276.75175,284.531507 L270.620585,283.425497 L269.241352,280.844393 L269.241352,270.316435 L268.239723,266.969959 L263.472026,262.557551 L261.31495,258.470666 L259.492947,250.604962 L256.264994,247.733672 L254.866214,247.733672 L254.866214,242.888125 L252.313082,237.54622 L246.542639,236.821734 L238.710015,233.54425 L234.326097,226.068742 L232.392616,223.448758 L228.708654,223.448758 L228.708654,221.149292 L228.708654,215.177269 L228.708654,209.557034 L228.708654,205.437762 L225.635043,205.437762 L221.593645,207.929875 L220.18533,210.97703 L218.690637,211.812946 L214.123966,211.812946 L212.022861,211.812946 L212.022861,209.557034 L212.022861,202.713359 L210.529024,196.142647 L207.527098,191.770513 L203.722202,184.032058 L201.877827,183.146258 L196.761263,180.565951 L195.124037,179.164212 L188.197734,183.146258 L180.218326,182.39159 L173.143993,182.39159 L168.880097,182.39159 L168.880097,184.533532 L172.003674,186.691724 L168.880097,189.117025 L168.880097,196.778654 L168.880097,216.478885 L166.018853,221.149292 L162.600744,222.103029 L156.200006,228.848076 L154.921737,233.54425 L151.691616,233.54425 L146.925165,238.737584 L142.275977,242.888125 L137.156064,253.142567 L131.352117,256.941226 L128.027998,256.941226 L122.063793,256.941226 L119.275732,254.274336 L117.236477,254.274336 L118.377276,258.470666 L119.275732,261.678081 L115.894657,261.678081 L112.754808,259.655688 L107.211631,264.779959 L103.754056,264.779959 L104.770892,261.678081 L107.211631,259.655688 L110.964597,253.142567 L110.964597,244.959209 L108.918642,242.037692 L107.211631,241.212614 L105.572745,229.644691 L103.754056,223.448758 L107.211631,219.586906 L106.43323,214.122036 L104.770892,210.97703 L98.831814,209.557034 L94.5131955,207.929875 L77.8574218,201.32575 L69.3687175,199.236899 L64.1817965,199.236899 L58.6777077,196.778654 L53.3657064,196.778654 L51.9021559,199.236899 L45.285188,196.778654 L38.7854829,196.778654 L32.1886172,193.56952 L28.3027539,190.243992 L28.3027539,187.724905 L26.5711744,183.146258 L19.4438345,182.39159 L19.4438345,181.321846 L17.7904301,179.164212 L14.2680813,176.416914 L10.0527656,176.416914 L7.7717265,175.149498 L3.7071772,176.416914 L0.957087169,171.473279 L0,169.306773 L7.7717265,164.916321 L47.8210986,158.167011 L51.9021559,157.43464 L57.0207631,155.454772 L60.6908723,151.271989 L80.1706361,142.452382 L89.4358092,140.850871 L97.4004686,140.850871 L114.336304,131.957697 L115.894657,131.957697 L121.055726,121.613473 L128.027998,113.86749 L137.156064,107.611539 L140.443767,101.424835 L142.275977,85.438333 L149.202296,69.2990514 L153.447133,67.3308273 L166.018853,69.2990514 L172.003674,70.7004645 L173.143993,77.3062337 L180.218326,79.9552557 L191.735767,78.770886 L199.337592,74.2395204 L207.527098,69.2990514 L215.967331,66.5824227 L228.708654,66.5824227 L242.414611,66.5824227 L254.866214,70.7004645 L269.241352,85.438333 L276.75175,101.424835 L279.896749,109.797937 L278.594489,115.694865 L275.647974,121.613473 L273.692421,123.541934 L273.692421,131.957697 L276.75175,140.850871 L283.121349,149.075851 L291.069374,154.562215 L310.592096,154.562215 L323.672403,160.989721 L328.983798,160.989721 L335.239513,149.075851 L337.452276,138.001862 L342.100908,131.957697 L346.785413,129.804418 L365.057194,135.902475 L385.601063,136.866615 L400.324876,134.557563 L409.076305,135.902475 L417.359617,138.999659 L424.447888,144.980539 L433.074693,146.962425 L441.117247,144.980539 L451.078527,142.452382 L461.35234,140.850871 L472.066423,135.902475 L485.873423,123.541934 L488.857617,119.182993 L492.471359,120.384139 L499.927736,118.001544 L504.658915,118.001544 L513.717944,126.786502 L521.008263,131.957697 L531.299028,131.957697 L542.273677,125.277659 L545.210766,120.930921 L548.228224,112.582423 L550.049925,94.6625361 L553.548748,86.165517 L561.001393,79.9552557 L569.478851,78.0248437 L586.318105,78.770886 L595.648582,78.0248437 L599.724021,74.2395204 L598.698255,65.3120148 L600.519795,62.7030434 L613.14708,54.2599054 L621.244372,52.5434604 L630.391748,56.4141861 L635.9196,56.4141861 L642.928347,52.5434604 L649.288853,41.6423692 L657.972244,36.555072 L663.861527,35.5824227 L668.381909,30.8389599 L675.517941,14.0833787 L684.657061,3.76516487 L691.684217,0 L699.954774,0.740680727 L707.138151,2.468633 L714.101717,6.56394802 L716.65801,12.2023857 L720.091663,26.936074 L721.572116,31.8687987 L724.578435,33.5917556 L729.824507,31.8687987 L740.435179,18.1945882 L745.429665,18.1945882 L753.021302,17.1028675 L765.588667,12.2023857 L771.60553,12.8781263 L776.984662,24.4665327 L782.198037,24.4665327 L791.348237,22.2240548 L796.728992,19.4956613 L807.890712,20.8957341 L820.877528,27.6917409 L824.425553,32.9182856 L821.490354,55.1845742 L821.490354,61.9542416 L828.573272,70.7004645 L832.432087,74.2395204 L842.166075,78.0248437 L857.937595,98.5804722 L868.372353,103.947796 L881.014655,106.36148 L892.774721,106.36148 L904.08611,106.36148 L917.200092,107.611539 L924.910025,109.797937 L937.435549,112.582423 L944.639096,116.395864 L947.240943,115.018498 L950.004154,109.797937 L952.452574,102.968699 L961.919368,92.7458517 L967.528426,91.5201636 L975.481852,94.6625361 L989.332674,103.947796 L1002.16432,109.797937 L1005.07118,111.364594 L1004.05938,112.582423 Z" id="Aargau"></path>
                <polygon id="Baden" fill-opacity="0.2" fill="#FFFFFF" points="913.57829 232.961828 913.57829 235.457863 914.23546 236.963798 910.621216 240.630192 910.621216 243.479942 909.421381 247.151249 909.421381 250.02254 910.621216 251.672077 912.353136 252.560144 915.45608 250.870549 916.610189 252.560144 914.874868 254.409213 911.763232 256.358803 910.621216 259.073265 914.23546 262.744194 914.23546 266.387536 916.610189 273.12173 914.874868 277.629709 914.874868 284.735757 916.610189 288.835603 917.200092 292.296041 918.300917 293.029169 920.453441 293.029169 923.504612 292.296041 926.469244 291.630558 928.571129 291.630558 930.54755 292.296041 931.747008 293.029169 931.747008 294.80228 931.747008 299.119419 931.177511 306.277995 933.723807 312.93623 929.507189 316.013855 926.990748 315.51956 924.910025 316.013855 924.910025 318.039403 923.504612 319.679493 921.646852 321.208858 921.074332 323.095339 921.646852 325.207049 923.504612 325.207049 923.504612 324.003813 925.927335 326.417843 925.927335 329.377563 927.550419 332.235627 930.044564 335.042297 930.044564 337.484292 931.177511 338.296779 936.533878 339.23624 939.614526 339.23624 939.614526 341.800676 941.056973 343.842474 944.021605 343.842474 945.265277 346.225139 947.240943 349.951241 950.004154 357.71068 947.240943 359.454692 943.169061 360.663219 943.169061 365.900547 942.333522 365.900547 943.169061 377.373617 944.639096 378.115814 946.723975 379.043561 947.240943 380.812137 945.871052 382.501354 946.723975 384.740794 947.240943 387.461302 945.871052 388.91093 945.871052 391.542632 944.639096 393.290045 941.056973 393.290045 937.435549 392.391775 935.270933 392.391775 935.270933 393.986517 932.757893 395.174259 933.723807 397.87096 937.435549 401.044571 943.169061 402.176762 947.240943 403.599181 951.557326 403.599181 955.88807 411.773554 955.02759 413.285913 955.88807 414.967572 957.881497 414.967572 957.881497 419.158115 941.81542 439.929813 941.81542 443.277259 945.265277 446.585781 947.240943 449.345969 944.639096 451.280066 944.021605 454.862566 939.614526 457.016601 938.642187 457.016601 935.270933 451.280066 929.507189 453.328666 924.910025 455.564328 923.504612 458.428816 924.910025 459.769133 922.726514 460.832266 920.453441 457.016601 919.130032 457.759554 916.610189 457.759554 916.610189 459.769133 921.074332 463.818438 924.910025 463.818438 930.54755 464.786998 933.723807 463.818438 936.533878 462.804908 939.614526 462.804908 941.81542 463.818438 942.333522 467.052136 944.021605 468.587547 944.021605 471.956911 944.639096 473.043376 945.871052 471.956911 949.2578 472.474635 950.004154 471.209423 952.452574 471.956911 954.220394 473.043376 957.881497 469.817614 961.075893 473.043376 961.919368 475.421884 963.977038 474.750354 965.279662 476.002718 963.977038 477.73048 963.977038 479.131359 961.919368 481.487949 961.919368 484.975596 961.919368 502.810627 964.756648 505.604131 964.756648 509.56107 968.424175 514.561076 970.358272 516.394651 969.784619 520.9117 969.58656 523.202835 961.869352 519.906613 960.162502 513.78971 952.933846 508.862246 952.933846 506.254077 949.913861 506.254077 945.076906 510.751622 936.866981 508.862246 921.923182 508.862246 921.923182 502.995751 918.810424 499.456847 917.28761 499.456847 900.638469 513.78971 897.170464 508.862246 893.068141 507.331889 886.825279 511.510875 884.667393 507.331889 877.533016 508.862246 871.981795 502.995751 866.883118 502.995751 866.883118 508.862246 855.765589 513.78971 847.5 513.78971 838.327512 511.510875 835.266797 506.254077 838.327512 494.61235 837.282132 476.779049 826.423308 473.599919 824.363473 466.826825 811.155185 456.317215 804.456007 440.748904 791.876003 442.811002 785.487572 448.622437 781.76237 447.364361 776.178716 451.324132 778.117872 454.675984 776.178716 458.761376 773.034719 458.761376 765.866047 456.317215 763.619527 454.675984 762.820226 452.098883 757.885382 449.463184 750.088512 455.494398 733.644423 457.745683 726.39472 450.389864 718.385277 449.463184 716.682918 447.364361 716.682918 444.612793 709.188247 436.516425 712.11714 432.841339 715.88536 431.298152 735.853652 406.051755 737.629389 409.018467 737.629389 410.681315 738.331518 412.329013 755.845967 404.777666 759.129807 400.345643 754.714921 397.928938 754.045053 388.605239 754.714921 381.234402 762.820226 373.245489 767.248962 359.753678 760.426181 348.658239 750.088512 340.34495 746.009303 338.970297 726.39472 338.970297 724.358993 335.724961 731.885941 327.619953 732.759439 313.264599 728.616893 304.68407 720.376023 296.1625 722.155061 293.41063 731.885941 294.834063 742.903676 279.598087 738.331518 272.103182 735.853652 252.390845 733.644423 228.926889 733.644423 215.668693 723.510489 187.873779 722.155061 173.549185 728.616893 164.89688 728.616893 160.670381 731.885941 159.420055 733.644423 162.692948 741.767424 154.959001 751.018937 154.11306 755.845967 154.959001 774.166306 154.11306 776.178716 159.420055 776.178716 161.773949 778.117872 164.89688 776.178716 171.035716 785.487572 183.574862 778.117872 197.606581 789.347735 213.951819 791.876003 213.951819 796.778553 215.668693 801.231918 221.029521 804.456007 222.462493 808.338459 228.926889 816.216601 233.471897 824.363473 233.471897 843.478317 239.415911 851.289809 238.122006 855.765589 240.72071 862.602982 238.122006 864.414705 233.471897 871.981795 232.482403 870.998301 238.122006 883.390049 236.402568 881 233.471897 884.667393 228.926889 889.467362 228.032243 904.063041 232.482403 905.045486 231.0411 906.704683 233.471897 912.066152 231.0411 913 232.482403"></polygon>
                <polyline id="Aarau" fill-opacity="0.2" fill="#FFFFFF" points="385.117605 400.629542 409.375811 397.461742 430.597352 396.406692 435.768621 385.850892 443.223514 385.850892 445.52502 378.905311 449.959145 373.081011 445.52502 371.326567 447.893419 365.432725 445.52502 361.441019 446.961557 356.414133 442.204891 346.145773 442.204891 339.413454 443.223514 331.013453 449.959145 331.013453 454.413139 326.232281 459.328758 326.232281 462.337605 323.386361 466.049156 323.386361 467.640672 327.404559 474.503465 323.386361 475.83867 327.404559 482.453762 326.232281 485.775216 321.852466 492.647943 323.386361 496.374065 323.386361 502.001661 326.232281 509.140635 324.977878 516.515389 324.977878 519.791807 327.404559 523.352785 328.459609 523.352785 331.013453 526.650626 331.013453 529.146849 336.536405 532.60805 341.472557 529.146849 343.373369 523.352785 344.439678 523.352785 352.75093 523.352785 361.241004 515.043088 362.876894 511.596458 361.241004 511.596458 368.156119 511.596458 374.725511 506.374192 374.725511 495.304444 376.7058 493.887776 378.905311 495.304444 382.450624 497.372157 382.450624 496.374065 387.00595 496.374065 391.279135 499.15243 392.758722 497.372157 394.844317 497.372157 398.592295 499.15243 400.629542 522.385389 404.873585 532.60805 408.299683 539.315201 412.919915 541.533919 415.613505 541.533919 420.225127 541.533919 422.652471 546.177332 424.025427 548.492084 432.789033 550.245865 444.99728 555.809218 448.798243 563.317095 451.87332 565.000671 453.14693 566.057709 455.884894 566.057709 463.882214 566.057709 474.332707 566.057709 478.870814 563.317095 480.33583 557.785533 482.43136 553.496453 485.022955 553.496453 487.769529 556.711938 489.569009 556.711938 492.784494 556.711938 493.703772 556.711938 495.858247 565.000671 509.205657 573.262913 515.503505 577.689752 521.407945 578.642807 525.509593 577.689752 532.981043 573.262913 539.579577 573.262913 545.129684 576.446608 546.905983 582.415691 546.905983 587.8283 546.905983 591.393482 549.23663 595.774623 554.002569 594.254635 559.479823 594.254635 567.414223 598.029105 577.309044 598.029105 582.278972 599.602077 590.380274 605.893964 598.516015 580.707209 601.998409 576.446608 601.998409 570.455406 599.506822 565.000671 599.506822 561.828898 599.506822 557.785533 599.506822 557.785533 592.395002 555.809218 590.380274 548.492084 592.395002 545.138177 595.370734 540.486155 596.796012 533.878349 598.516015 526.650626 601.998409 526.650626 604.558876 522.385389 608.1075 522.385389 610.048051 523.352785 614.677555 523.352785 621.861565 523.352785 628.548186 525.70022 631.865666 525.70022 637.467432 523.352785 643.322199 522.385389 646.809229 515.043088 652.097063 507.823313 648.87628 466.049156 633.147224 463.616514 631.865666 463.616514 628.548186 463.616514 623.382215 461.091149 608.1075 463.616514 608.1075 463.616514 605.700025 459.328758 587.164126 463.616514 582.278972 467.640672 578.401183 463.616514 576.277837 453.193837 574.604857 453.193837 571.876165 449.959145 571.876165 442.204891 567.414223 419.455264 566.602693 419.176891 567.437464 421.573185 557.39094 418.502904 552.625959 420.084213 550.562133 426.187979 543.592175 429.587555 538.831059 435.134427 534.682498 437.72921 534.682498 441.117247 526.959518 442.052333 522.1959 445.152302 509.56107 445.152302 504.243801 447.407369 499.627924 447.407369 492.796389 442.67206 481.487949 441.117247 471.209423 433.074693 469.817614 431.252253 473.043376 430.607732 474.750354 425.642944 471.956911 422.801934 473.043376 417.359617 471.956911 417.359617 468.587547 418.502904 459.769133 414.81393 452.548159 413.390618 448.71008 407.674004 442.673164 400.324876 439.929813 392.380057 437.829084 389.387056 434.905634 388.403784 432.715888 385.601063 433.863721 381.001288 431.727161 377.511878 433.863721 370.73353 426.795346 367.429136 421.641692 365.057194 421.641692 359.594783 419.158115 352.433218 414.967572 352.433218 414.309657 360.836715 411.773554 370.73353 406.730327 378.426399 402.782238 381.001288 402.782238 381.001288 406.730327 381.001288 411.773554 381.75863 413.285913 383.051021 413.285913 384.850277 407.996807 384.850277 399.286918"></polyline>
            </g>
            <g id="cities" transform="translate(65.000000, 61.000000)">
                <circle id="Oval-Copy-6" fill="#FFFFFF" cx="771" cy="246" r="5"></circle>
                <circle id="Oval-Copy-7" fill="#FFFFFF" cx="728" cy="500" r="5"></circle>
                <circle id="Oval-Copy-8" fill="#FFFFFF" cx="401" cy="415" r="5"></circle>
                <circle id="Oval-Copy-9" fill="#7EE2D1" cx="1100" cy="464" r="5"></circle>
                <text id="BADEN" font-family="OpenSans-ExtraBold, Open Sans" font-size="18.1999997" font-weight="600" fill="#FFFFFF">
                    <tspan x="784" y="253">BADEN</tspan>
                </text>
                <text id="AARAU" font-family="OpenSans-ExtraBold, Open Sans" font-size="18.1999997" font-weight="600" fill="#FFFFFF">
                    <tspan x="414" y="422">AARAU</tspan>
                </text>
                <circle id="Oval-Copy-14" fill="#FFFFFF" cx="585" cy="412" r="5"></circle>
                <text id="LENZBURG" font-family="OpenSans-ExtraBold, Open Sans" font-size="18.1999997" font-weight="600" fill="#FFFFFF">
                    <tspan x="598" y="419">LENZBURG</tspan>
                </text>
                <circle id="Oval-Copy-10" fill="#FFFFFF" cx="5" cy="96" r="5"></circle>
                <text id="RHEINFELDEN" font-family="OpenSans-ExtraBold, Open Sans" font-size="18.1999997" font-weight="600" fill="#FFFFFF">
                    <tspan x="18" y="103">RHEINFELDEN</tspan>
                </text>
                <circle id="Oval-Copy-11" fill="#FFFFFF" cx="417" cy="76" r="5"></circle>
                <text id="LAUFENBURG" font-family="OpenSans-ExtraBold, Open Sans" font-size="18.1999997" font-weight="600" fill="#FFFFFF">
                    <tspan x="430" y="83">LAUFENBURG</tspan>
                </text>
                <circle id="Oval-Copy-13" fill="#FFFFFF" cx="754" cy="12" r="5"></circle>
                <text id="BAD-ZURZACH" font-family="OpenSans-ExtraBold, Open Sans" font-size="18.1999997" font-weight="600" fill="#FFFFFF">
                    <tspan x="767" y="19">BAD ZURZACH</tspan>
                </text>
                <circle id="Oval-Copy-12" fill="#FFFFFF" cx="626" cy="226" r="5"></circle>
                <text id="BRUGG" font-family="OpenSans-ExtraBold, Open Sans" font-size="18.1999997" font-weight="600" fill="#FFFFFF">
                    <tspan x="639" y="233">BRUGG</tspan>
                </text>
                <text id="WOHLEN" font-family="OpenSans-ExtraBold, Open Sans" font-size="18.1999997" font-weight="600" fill="#FFFFFF">
                    <tspan x="741" y="507">WOHLEN</tspan>
                </text>
                <circle id="Oval-Copy-15" fill="#FFFFFF" cx="822" cy="663" r="5"></circle>
                <text id="MURI" font-family="OpenSans-ExtraBold, Open Sans" font-size="18.1999997" font-weight="600" fill="#FFFFFF">
                    <tspan x="835" y="670">MURI</tspan>
                </text>
                <circle id="Oval-Copy-16" fill="#FFFFFF" cx="497" cy="587" r="5"></circle>
                <text id="UNTERKULM" font-family="OpenSans-ExtraBold, Open Sans" font-size="18.1999997" font-weight="600" fill="#FFFFFF">
                    <tspan x="510" y="594">UNTERKULM</tspan>
                </text>
                <circle id="Oval-Copy-17" fill="#FFFFFF" cx="249" cy="627" r="5"></circle>
                <text id="ZOFINGEN" font-family="OpenSans-ExtraBold, Open Sans" font-size="18.1999997" font-weight="600" fill="#FFFFFF">
                    <tspan x="262" y="634">ZOFINGEN</tspan>
                </text>
                <text id="ZÜRICH" font-family="OpenSans-ExtraBold, Open Sans" font-size="18.1999997" font-weight="600" fill="#7EE2D1">
                    <tspan x="1113" y="471">ZÜRICH</tspan>
                </text>
            </g>
        </g>
    </g>
</svg>