<?xml version="1.0" encoding="UTF-8"?>
<svg width="1920px" height="1080px" preserveAspectRatio="xMidYMid slice" viewBox="0 0 1920 1080" version="1.1" xmlns="http://www.w3.org/2000/svg" xmlns:xlink="http://www.w3.org/1999/xlink">
    <!-- Generator: Sketch 63.1 (92452) - https://sketch.com -->
    <title>Baden Copy</title>
    <desc>Created with Sketch.</desc>
    <defs>
        <linearGradient x1="37.5138308%" y1="68.8286997%" x2="100%" y2="37.333025%" id="linearGradient-1">
            <stop stop-color="#FFFFFF" stop-opacity="0.3" offset="0%"></stop>
            <stop stop-color="#FFFFFF" offset="52.1358719%"></stop>
            <stop stop-color="#FFFFFF" offset="100%"></stop>
        </linearGradient>
        <linearGradient x1="50%" y1="0%" x2="50%" y2="100%" id="linearGradient-2">
            <stop stop-color="#000000" offset="0%"></stop>
            <stop stop-color="#000000" offset="100%"></stop>
        </linearGradient>
        <filter x="-9.9%" y="-352.9%" width="119.7%" height="805.9%" filterUnits="objectBoundingBox" id="filter-3">
            <feGaussianBlur stdDeviation="20" in="SourceGraphic"></feGaussianBlur>
        </filter>
    </defs>
    <g id="Baden-Copy" stroke="none" stroke-width="1" fill="none" fill-rule="evenodd">
        <path d="M566.967726,813.755555 C596.345248,817.049182 626.038881,820.630664 656.048624,824.5 C729.539059,833.975562 911.681267,900.741367 1014.72276,907.298959 C1035.88762,908.645898 1065.3657,893.212243 1076.52276,864.5 C1088.007,834.945785 1080.96726,791.891575 1088.7,779.1202 C1099.40851,761.434055 1128.42751,748.744571 1159.54455,756.325539 C1195.49627,765.084368 1224.85719,793.64296 1250,800.56357 C1331.29347,822.939762 1417.98268,828.250476 1443.78748,793.64296 C1466.99199,762.52276 1437.1734,739.313953 1443.78748,695.514149 C1451.13831,646.835389 1479.82818,598.986405 1501.5,575 C1539.6922,532.728806 1566.02138,474.39032 1570.73975,448.52276 C1572.97213,436.284176 1574.15131,416.229253 1570.73975,391.5 C1569.02528,379.072371 1564.2604,357.405705 1556.44512,326.5" id="flying-path" stroke="url(#linearGradient-1)" stroke-width="11" opacity="0.5" stroke-linecap="round"></path>
        <g id="poi-real-estate-filter" transform="translate(1343.000000, 638.000000)">
            <circle id="Oval" fill="#FFFFFF" opacity="0.400000006" cx="22.8214799" cy="22.8214799" r="22.8214799"></circle>
            <circle id="Oval-Copy-6" fill="#FFFFFF" cx="22.8214799" cy="22.8214799" r="8.29871995"></circle>
            <circle id="Oval-Copy-11" fill="#FFC500" cx="22.87276" cy="22.87276" r="3.85"></circle>
        </g>
        <g id="poi-leisure-filter" transform="translate(1487.000000, 182.000000)">
            <circle id="Oval" fill="#FFFFFF" opacity="0.400000006" cx="22.8214799" cy="22.8214799" r="22.8214799"></circle>
            <circle id="Oval-Copy-6" fill="#FFFFFF" cx="22.8214799" cy="22.8214799" r="8.29871995"></circle>
            <circle id="Oval-Copy-11" fill="#FFC500" cx="22.87276" cy="22.87276" r="3.85"></circle>
        </g>
        <g id="poi-history-filter" transform="translate(1433.000000, 486.000000)">
            <circle id="Oval" fill="#FFFFFF" opacity="0.400000006" cx="22.8214799" cy="22.8214799" r="22.8214799"></circle>
            <circle id="Oval-Copy-6" fill="#FFFFFF" cx="22.8214799" cy="22.8214799" r="8.29871995"></circle>
            <circle id="Oval-Copy-11" fill="#FFC500" cx="22.87276" cy="22.87276" r="3.85"></circle>
        </g>
        <g id="enterprise-leisure-filter" transform="translate(1428.000000, 228.000000)">
            <circle id="Oval" fill="#FFFFFF" opacity="0.400000006" cx="22.8214799" cy="22.8214799" r="22.8214799"></circle>
            <circle id="Oval-Copy-6" fill="#FFFFFF" cx="22.8214799" cy="22.8214799" r="8.29871995"></circle>
            <circle id="Oval-Copy-7" fill="#FF0000" cx="22.85" cy="22.85" r="3.85"></circle>
        </g>
        <g id="all-highlights-filter" transform="translate(1194.000000, 259.000000)" fill="#FFFFFF">
            <g id="figure_4" transform="translate(50.000000, 590.000000)">
                <circle id="Oval" stroke="#FFFFFF" fill-opacity="0.2" cx="20" cy="20" r="20"></circle>
                <path d="M23.0548287,17.0655994 C23.0122287,16.5201994 22.9666287,16.0083995 22.9240287,15.5571995 C22.8934287,15.2271995 23.1364287,14.9349995 23.4658287,14.9037995 C23.7928287,14.8707995 24.0880286,15.1161995 24.1192286,15.4455995 C24.1612286,15.9015995 24.2068286,16.4187994 24.2512286,16.9701994 C24.2770286,17.3007994 24.0304286,17.5893994 23.7004287,17.6157994 C23.6842287,17.6169994 23.6680287,17.6176016 23.6524287,17.6176016 C23.3422287,17.6181994 23.0800287,17.3799994 23.0548287,17.0655994 Z M22.5160287,28.8009987 C22.5790287,28.8225987 22.6444287,28.8327987 22.7074287,28.8327987 C22.9576287,28.8327987 23.1916287,28.6749987 23.2756287,28.4241987 C23.8078287,26.8485988 24.1774286,25.0119989 24.3754286,22.965999 C24.4702286,21.9873991 24.4714286,20.6163992 24.3796286,18.8907993 C24.3610286,18.5595993 24.0766286,18.3069993 23.7478287,18.3237993 C23.4172287,18.3417993 23.1628287,18.6243993 23.1808287,18.9555993 C23.2696287,20.6211992 23.2702287,21.9315991 23.1814287,22.8501991 C22.9924287,24.8055989 22.6414287,26.5521988 22.1392288,28.0407987 C22.0336288,28.3545987 22.2022287,28.6947987 22.5160287,28.8009987 Z M32.6656281,21.3387991 C32.4454281,23.624199 31.1110282,26.5911988 28.9864283,27.8415988 C28.1746284,28.3197987 27.4324284,28.5291987 26.8354285,28.6971987 C26.2708285,28.8567987 25.8610285,28.9761987 25.5892285,29.2377987 C25.2256286,30.2091986 24.8326286,30.9177986 24.4534286,31.5033985 C24.1222286,32.0163985 23.4616287,32.1993985 22.9534287,32.1993985 L15.2068292,32.1993985 C14.8642292,32.1993985 14.0236292,32.1351985 13.6336293,31.5375985 C13.2886293,31.0053986 12.4000293,29.1003987 12.3904293,29.0043987 C11.8912294,27.6285988 11.4310294,25.7397989 11.1718294,23.061999 C11.1592294,22.9311991 11.1508294,22.7901991 11.1412294,22.6515991 C11.0122294,22.6905991 10.8760294,22.7175991 10.7296294,22.7175991 C10.6174294,22.7175991 10.5004294,22.7049991 10.3792294,22.6761991 C9.87582948,22.5579991 9.46542951,22.2501991 9.22302952,21.8109991 C8.97342954,21.3585991 8.93142954,20.8077992 9.10662953,20.2983992 C9.43482951,19.3461993 9.6010295,18.4149993 9.6010295,17.5323994 C9.6010295,17.3157994 9.5332295,16.8897994 9.46182951,16.4385994 C9.27162952,15.2433995 9.01062954,13.6065996 9.39282951,12.4635997 C10.0960295,10.3617998 11.9350294,10.0077998 12.9238293,9.81819983 C13.1044293,9.78339983 13.3510293,9.73599984 13.4188293,9.70299984 C13.4350293,9.68619984 13.5628293,9.52299985 13.6660293,9.40299986 C14.3320292,8.6265999 15.7168291,7 18.236229,7 C18.245829,7 18.254229,7 18.263829,7 C21.1636288,7 22.5874287,8.6019999 23.0566287,9.27339986 C23.6524287,9.23199987 24.2770286,9.32739986 24.8392286,9.59199985 C26.2816285,10.2687998 26.8486285,11.7345997 26.3728285,13.5183996 C26.3734285,13.5219996 26.3752285,13.5243996 26.3758285,13.5279996 C26.3878285,13.6245996 26.4988285,14.5491995 26.6146285,15.8445995 C27.1558285,15.6003995 27.8302284,15.4101995 28.6222284,15.4101995 C28.7500284,15.4101995 28.8802284,15.4137995 29.0104283,15.4263995 C29.9806283,15.4995995 30.8470282,15.9513995 31.5028282,16.7307994 C32.4178281,17.8209994 32.8414281,19.5009993 32.6656281,21.3387991 Z M26.8102285,23.252199 C26.7298285,24.083199 26.6326285,24.8283989 26.5234285,25.5063989 C26.6032285,25.5999989 26.7076285,25.6281989 26.9710285,25.6281989 C27.1900285,25.6281989 27.4060284,25.5669989 27.6304284,25.4421989 C28.8136284,24.7809989 29.7712283,22.6503991 29.9242283,21.0741992 C30.0268283,19.9989992 29.8234283,19.0143993 29.3938283,18.5061993 C29.2180283,18.2955993 29.0272283,18.1911993 28.7908284,18.1719993 C28.7362284,18.1677993 28.6786284,18.1659993 28.6252284,18.1659993 C28.0486284,18.1659993 27.7726284,18.5037993 27.5602284,18.8685993 L27.5050284,18.9741993 C27.4144284,19.1583993 27.2194284,19.5453993 26.8684285,19.7649992 C26.9104285,21.0159992 26.9068285,22.2519991 26.8102285,23.252199 Z M11.0908294,21.2823991 C11.0614294,17.9349993 11.5804294,13.7349996 11.6062294,13.5255996 C11.6434294,13.2249996 11.8990294,12.9999996 12.2014293,12.9999996 L12.3784293,12.9999996 C12.6298293,12.9999996 13.4344293,13.6701996 13.7032293,13.8795996 C14.2156292,14.2779996 14.7964292,14.7291995 15.4864291,14.7291995 C16.3210291,14.7291995 17.0398291,14.2635996 17.674029,13.8519996 C17.936229,13.6827996 18.9166289,12.9999996 19.3036289,12.9999996 L25.2616286,12.9999996 C25.4950286,11.8953997 25.1740286,11.0739998 24.3298286,10.6779998 C24.1042286,10.5717998 23.8600287,10.5069998 23.6128287,10.4775998 C23.2144287,10.4295998 22.7908287,10.4661998 22.4200287,10.6263998 C22.2634287,10.6941998 22.1134288,10.7859998 21.9958288,10.9113998 C21.9346288,10.9761998 21.8872288,11.0511998 21.8206288,11.1105997 C21.7360288,11.1861997 21.6304288,11.2383997 21.5182288,11.2581997 C21.3604288,11.2857997 21.1894288,11.2467997 21.0598288,11.1543997 C21.0070288,11.1165997 20.0026289,10.4025998 19.0168289,11.1183997 C18.7486289,11.3133997 18.373629,11.2545997 18.179229,10.9857998 C17.984229,10.7181998 18.043029,10.3425998 18.311829,10.1481998 C19.4098289,9.34959986 20.5834288,9.56859985 21.3178288,9.91959983 C21.4612288,9.80019983 21.6226288,9.69939984 21.7960288,9.61179984 C21.2734288,9.04119988 20.1802289,8.19999993 18.257829,8.19999993 C18.250629,8.19999993 18.243429,8.19999993 18.236229,8.19999993 C16.2688291,8.19999993 15.2092292,9.44739985 14.5750292,10.1853998 C14.3932292,10.3977998 14.2618292,10.5579998 14.1214292,10.6659998 C13.8844292,10.8489998 13.5598293,10.9149998 13.1494293,10.9941998 C12.2464293,11.1675997 11.0104294,11.4069997 10.5298294,12.8439996 C10.2412295,13.7073996 10.4752294,15.1773995 10.6456294,16.2501994 C10.7326294,16.7925994 10.8004294,17.2215994 10.8004294,17.5329994 C10.8004294,18.5493993 10.6120294,19.6119992 10.2400295,20.6901992 C10.1752295,20.8785992 10.1866295,21.0765992 10.2730295,21.2325992 C10.3504295,21.3729991 10.4824294,21.4695991 10.6528294,21.5091991 C10.8418294,21.5571991 11.0032294,21.3957991 11.0908294,21.2823991 Z M12.3658293,22.9299991 C12.6202293,25.5603989 13.0696293,27.3567988 13.5490293,28.6497987 C13.8580292,28.9557987 14.7130292,29.1999996 15.3970291,29.1999996 L22.6204287,29.1999996 C23.2606287,29.1999996 24.1618286,28.8693987 24.5506286,28.5393987 C24.9622286,27.3501988 25.3714286,25.6653989 25.6162285,23.136999 C25.8754285,20.4399992 25.4152286,15.7653995 25.2442286,14.1999996 L19.5226289,14.1999996 C19.3030289,14.1999996 18.581229,14.6937995 18.325629,14.8593995 C17.629029,15.3111995 16.6750291,15.9291995 15.4858291,15.9291995 C14.3848292,15.9291995 13.5652293,15.2919995 12.9670293,14.8269995 C12.8812293,14.7609995 12.7822293,14.6847995 12.6898293,14.6169995 C12.4966293,16.4337994 12.1264293,20.4519992 12.3658293,22.9299991 Z M23.4460287,30.8349986 C23.5426287,30.6855986 23.6644287,30.4785986 23.8012287,30.2361986 C23.3818287,30.3639986 22.9648287,30.3999986 22.6198287,30.3999986 L15.3964291,30.3999986 C15.0562292,30.3999986 14.6782292,30.3849986 14.3044292,30.2943986 C14.4202292,30.4995986 14.5330292,30.7197986 14.6392292,30.8841986 C14.6734292,30.9159986 14.8924292,30.9999986 15.2068292,30.9999986 L22.9540287,30.9999986 C23.2180287,30.9999986 23.4118287,30.8877986 23.4460287,30.8349986 Z M30.5848282,17.5029994 C30.1420283,16.9761994 29.5618283,16.6713994 28.9084283,16.6215994 C28.8052284,16.6119994 28.7128284,16.6095994 28.6222284,16.6095994 C27.8212284,16.6095994 27.1780285,16.8693994 26.7214285,17.1405994 C26.7400285,17.3871994 26.7574285,17.6403994 26.7742285,17.8971994 C27.3046284,17.2107994 27.9868284,16.9089994 28.8808284,16.9749994 C29.4406283,17.0187994 29.9338283,17.2809994 30.3124283,17.7333994 C30.9598282,18.5001993 31.2544282,19.7607992 31.1182282,21.1887992 C30.9328282,23.101599 29.7970283,25.6059989 28.2148284,26.4897988 C27.8122284,26.7141988 27.3940284,26.8275988 26.9710285,26.8275988 C26.8186285,26.8275988 26.5666285,26.8257988 26.2954285,26.7411988 C26.2264285,27.0681988 26.1550285,27.3789988 26.0800285,27.6681988 C26.2216285,27.6243988 26.3644285,27.5829988 26.5102285,27.5415988 C27.0682285,27.3843988 27.7000284,27.2055988 28.3774284,26.8071988 C30.0736283,25.8087989 31.2826282,23.184399 31.4716282,21.2235992 C31.6168282,19.7043992 31.2934282,18.3477993 30.5848282,17.5029994 Z" id="Shape" fill-rule="nonzero"></path>
            </g>
            <g id="figure_3" transform="translate(0.000000, 455.000000)">
                <circle id="Oval-Copy" stroke="#FFFFFF" fill-opacity="0.2" cx="20" cy="20" r="20"></circle>
                <path d="M12.4661927,11.2 C11.0026381,11.2 9.81619271,12.3864454 9.81619271,13.85 C9.81619271,15.3135546 11.0026381,16.5 12.4661927,16.5 C13.9297473,16.5 15.1161927,15.3135546 15.1161927,13.85 C15.1161927,12.3864454 13.9297473,11.2 12.4661927,11.2 Z M12.4661927,12.2 C13.3774625,12.2 14.1161927,12.9387302 14.1161927,13.85 C14.1161927,14.7612698 13.3774625,15.5 12.4661927,15.5 C11.5549229,15.5 10.8161927,14.7612698 10.8161927,13.85 C10.8161927,12.9387302 11.5549229,12.2 12.4661927,12.2 Z" id="Oval" fill-rule="nonzero"></path>
                <path d="M26.3594207,7.50153726 C24.8958661,7.50153726 23.7094207,8.68798267 23.7094207,10.1515373 C23.7094207,11.6150918 24.8958661,12.8015373 26.3594207,12.8015373 C27.8229753,12.8015373 29.0094207,11.6150918 29.0094207,10.1515373 C29.0094207,8.68798267 27.8229753,7.50153726 26.3594207,7.50153726 Z M26.3594207,8.50153726 C27.2706905,8.50153726 28.0094207,9.24026742 28.0094207,10.1515373 C28.0094207,11.0628071 27.2706905,11.8015373 26.3594207,11.8015373 C25.4481509,11.8015373 24.7094207,11.0628071 24.7094207,10.1515373 C24.7094207,9.24026742 25.4481509,8.50153726 26.3594207,8.50153726 Z" id="Oval-Copy-4" fill-rule="nonzero"></path>
                <path d="M19.3805968,15.9215714 C16.7572442,15.9215714 14.6305968,18.0482188 14.6305968,20.6715714 C14.6305968,23.2949239 16.7572442,25.4215714 19.3805968,25.4215714 C22.0039493,25.4215714 24.1305968,23.2949239 24.1305968,20.6715714 C24.1305968,18.0482188 22.0039493,15.9215714 19.3805968,15.9215714 Z M19.3805968,16.9215714 C21.4516645,16.9215714 23.1305968,18.6005036 23.1305968,20.6715714 C23.1305968,22.7426391 21.4516645,24.4215714 19.3805968,24.4215714 C17.309529,24.4215714 15.6305968,22.7426391 15.6305968,20.6715714 C15.6305968,18.6005036 17.309529,16.9215714 19.3805968,16.9215714 Z" id="Oval-Copy-9" fill-rule="nonzero"></path>
                <path d="M29.6614386,18.7350006 C28.197884,18.7350006 27.0114386,19.921446 27.0114386,21.3850006 C27.0114386,22.8485552 28.197884,24.0350006 29.6614386,24.0350006 C31.1249932,24.0350006 32.3114386,22.8485552 32.3114386,21.3850006 C32.3114386,19.921446 31.1249932,18.7350006 29.6614386,18.7350006 Z M29.6614386,19.7350006 C30.5727084,19.7350006 31.3114386,20.4737308 31.3114386,21.3850006 C31.3114386,22.2962704 30.5727084,23.0350006 29.6614386,23.0350006 C28.7501687,23.0350006 28.0114386,22.2962705 28.0114386,21.3850006 C28.0114386,20.4737307 28.7501687,19.7350006 29.6614386,19.7350006 Z" id="Oval-Copy-5" fill-rule="nonzero"></path>
                <path d="M21.7235418,27.9831971 C20.2599872,27.9831971 19.0735418,29.1696425 19.0735418,30.6331971 C19.0735418,32.0967517 20.2599872,33.2831971 21.7235418,33.2831971 C23.1870964,33.2831971 24.3735418,32.0967517 24.3735418,30.6331971 C24.3735418,29.1696425 23.1870964,27.9831971 21.7235418,27.9831971 Z M21.7235418,28.9831971 C22.6348116,28.9831971 23.3735418,29.7219273 23.3735418,30.6331971 C23.3735418,31.5444669 22.6348116,32.2831971 21.7235418,32.2831971 C20.812272,32.2831971 20.0735418,31.5444669 20.0735418,30.6331971 C20.0735418,29.7219273 20.812272,28.9831971 21.7235418,28.9831971 Z" id="Oval-Copy-8" fill-rule="nonzero"></path>
                <path d="M8.69089343,21.3673074 C7.22733885,21.3673074 6.04089343,22.5537528 6.04089343,24.0173074 C6.04089343,25.480862 7.22733885,26.6673074 8.69089343,26.6673074 C10.154448,26.6673074 11.3408934,25.480862 11.3408934,24.0173074 C11.3408934,22.5537528 10.154448,21.3673074 8.69089343,21.3673074 Z M8.69089343,22.3673074 C9.60216326,22.3673074 10.3408934,23.1060376 10.3408934,24.0173074 C10.3408934,24.9285772 9.60216326,25.6673074 8.69089343,25.6673074 C7.7796236,25.6673074 7.04089343,24.9285772 7.04089343,24.0173074 C7.04089343,23.1060376 7.7796236,22.3673074 8.69089343,22.3673074 Z" id="Oval-Copy-3" fill-rule="nonzero"></path>
                <polygon id="Path-700" fill-rule="nonzero" points="15.2726213 21.6754376 15.5352095 22.6403456 10.9721876 23.8821179 10.7095993 22.9172099"></polygon>
                <polygon id="Path-701" fill-rule="nonzero" points="20.8902172 24.6506068 21.8253405 28.3610042 20.8556625 28.60539 19.9205392 24.8949926"></polygon>
                <polygon id="Path-702" fill-rule="nonzero" points="23.6937136 20.4693678 27.6799705 20.9766254 27.5537369 21.968626 23.56748 21.4613684"></polygon>
                <polygon id="Path-703" fill-rule="nonzero" points="24.8942781 11.4154813 25.7165897 11.9845187 22.0141725 17.3348525 21.1918609 16.765815"></polygon>
                <polygon id="Path-704" fill-rule="nonzero" points="14.3513558 14.9218939 16.8905027 17.089415 16.2412479 17.8499859 13.7021009 15.6824649"></polygon>
            </g>
            <g id="figure_2" transform="translate(397.000000, 0.000000)" stroke="#FFFFFF">
                <circle id="Oval" fill-opacity="0.2" cx="20" cy="20" r="20"></circle>
                <path d="M31.7234375,9 L29.702539,9 C29.5367187,9 29.402539,9.13432617 29.402539,9.3 L29.402539,10.1768555 L28.2160156,10.1768555 L28.2160156,9.3 C28.2160156,9.13432617 28.0818359,9 27.9160156,9 L26.1297851,9 C25.9639648,9 25.8297851,9.13432617 25.8297851,9.3 L25.8297851,10.1768555 L24.6432617,10.1768555 L24.6432617,9.3 C24.6432617,9.13432617 24.509082,9 24.3432617,9 L22.296582,9 C22.1307617,9 21.996582,9.13432617 21.996582,9.3 L21.996582,12.7416504 C21.996582,13.359668 22.4814453,13.8625488 23.0773438,13.8625488 L23.4655273,13.8625488 L23.4655273,20.5114746 L22.9686523,20.5114746 C22.802832,20.5114746 22.6686523,20.6458008 22.6686523,20.8114746 L22.6686523,21.7713867 L21.275293,21.7713867 L21.275293,20.8114746 C21.275293,20.6458008 21.1411133,20.5114746 20.975293,20.5114746 L19.0484375,20.5114746 C18.8826172,20.5114746 18.7484375,20.6458008 18.7484375,20.8114746 L18.7484375,21.7713867 L17.3550781,21.7713867 L17.3550781,20.8114746 C17.3550781,20.6458008 17.2208984,20.5114746 17.0550781,20.5114746 L16.5579101,20.5114746 L16.5579101,13.8625488 L17.0149414,13.8625488 C17.6143555,13.8625488 18.1018555,13.359668 18.1018555,12.7416504 L18.1018555,9.3 C18.1018555,9.13432617 17.9676758,9 17.8018555,9 L15.7648437,9 C15.5990234,9 15.4648437,9.13432617 15.4648437,9.3 L15.4648437,10.1768555 L14.2642578,10.1768555 L14.2642578,9.3 C14.2642578,9.13432617 14.1300781,9 13.9642578,9 L12.1636719,9 C11.9978515,9 11.8636719,9.13432617 11.8636719,9.3 L11.8636719,10.1768555 L10.6630859,10.1768555 L10.6630859,9.3 C10.6630859,9.13432617 10.5289063,9 10.3630859,9 L8.3,9 C8.13417968,9 8,9.13432617 8,9.3 L8,12.7416504 C8,13.359668 8.4875,13.8625488 9.08691407,13.8625488 L9.38896484,13.8625488 L9.38896484,30.0625488 L8.31201167,30.0625488 C8.14619135,30.0625488 8.01201167,30.196875 8.01201167,30.3625488 L8.01201167,32.7 C8.01201167,32.8656738 8.14619135,33 8.31201167,33 L31.7117187,33 C31.877539,33 32.0117187,32.8656738 32.0117187,32.7 L32.0117187,30.3625488 C32.0117187,30.196875 31.877539,30.0625488 31.7117187,30.0625488 L30.6344726,30.0625488 L30.6344726,13.8625488 L30.9426758,13.8625488 C31.5385742,13.8625488 32.0234375,13.359668 32.0234375,12.7416504 L32.0234375,9.3 C32.0234375,9.13432617 31.8892578,9 31.7234375,9 Z M17.0550781,22.3713867 L19.0484375,22.3713867 C19.2142578,22.3713867 19.3484375,22.2370606 19.3484375,22.0713867 L19.3484375,21.1114746 L20.675293,21.1114746 L20.675293,22.0713867 C20.675293,22.2370606 20.8094726,22.3713867 20.975293,22.3713867 L22.9686523,22.3713867 C23.1344726,22.3713867 23.2686523,22.2370606 23.2686523,22.0713867 L23.2686523,21.1114746 L24.6916015,21.1114746 L24.6916015,30.0625489 L23.0164062,30.0625489 L23.0164062,27.3268067 C23.0164062,25.6715333 21.668457,24.3249024 20.0117187,24.3249024 C18.3549805,24.3249024 17.0070312,25.6715332 17.0070312,27.3268067 L17.0070312,30.0625489 L15.3318359,30.0625489 L15.3318359,21.1114746 L16.7550781,21.1114746 L16.7550781,22.0713867 C16.7550781,22.2370606 16.8892578,22.3713867 17.0550781,22.3713867 Z M17.6070312,30.0625488 L17.6070312,27.3268067 C17.6070312,26.1078735 18.5215515,25.1003906 19.7008789,24.9473145 L19.7008789,30.0625488 L17.6070312,30.0625488 Z M20.3008789,24.9440003 C21.4907715,25.0873535 22.4164062,26.1003662 22.4164062,27.3268067 L22.4164062,30.0625488 L20.3008789,30.0625488 L20.3008789,24.9440003 Z M8.59999994,12.7416504 L8.59999994,9.6 L10.0630859,9.6 L10.0630859,10.4768555 C10.0630859,10.6425293 10.1972656,10.7768555 10.3630859,10.7768555 L12.1636718,10.7768555 C12.3294921,10.7768555 12.4636718,10.6425293 12.4636718,10.4768555 L12.4636718,9.6 L13.6642577,9.6 L13.6642577,10.4768555 C13.6642577,10.6425293 13.7984374,10.7768555 13.9642577,10.7768555 L15.7648437,10.7768555 C15.930664,10.7768555 16.0648437,10.6425293 16.0648437,10.4768555 L16.0648437,9.6 L17.5018554,9.6 L17.5018554,12.7416504 C17.5018554,13.0289063 17.2833007,13.2625488 17.0149413,13.2625488 L9.08691401,13.2625488 C8.81855465,13.2625488 8.59999994,13.0289063 8.59999994,12.7416504 Z M9.98896481,27.1782715 L11.3266601,27.1782715 C11.4924805,27.1782715 11.6266601,27.0439453 11.6266601,26.8782715 C11.6266601,26.7125977 11.4924805,26.5782715 11.3266601,26.5782715 L9.98896481,26.5782715 L9.98896481,21.6338379 L11.3266601,21.6338379 C11.4924805,21.6338379 11.6266601,21.4995117 11.6266601,21.3338379 C11.6266601,21.1681641 11.4924805,21.0338379 11.3266601,21.0338379 L9.98896481,21.0338379 L9.98896481,13.8625488 L15.9579101,13.8625488 L15.9579101,20.5114746 L15.0318359,20.5114746 C14.8660156,20.5114746 14.7318359,20.6458008 14.7318359,20.8114746 L14.7318359,23.8060547 L13.3938476,23.8060547 C13.2280273,23.8060547 13.0938476,23.9403809 13.0938476,24.1060547 C13.0938476,24.2717285 13.2280273,24.4060547 13.3938476,24.4060547 L14.7318359,24.4060547 L14.7318359,30.0625488 L9.98896481,30.0625488 L9.98896481,27.1782715 Z M31.4117187,32.4 L8.61201167,32.4 L8.61201167,30.6625488 L31.4117187,30.6625488 L31.4117187,32.4 Z M30.0344726,21.0338379 L28.6964844,21.0338379 C28.530664,21.0338379 28.3964844,21.1681641 28.3964844,21.3338379 C28.3964844,21.4995117 28.530664,21.6338379 28.6964844,21.6338379 L30.0344726,21.6338379 L30.0344726,26.5782715 L28.6964844,26.5782715 C28.530664,26.5782715 28.3964844,26.7125977 28.3964844,26.8782715 C28.3964844,27.0439453 28.530664,27.1782715 28.6964844,27.1782715 L30.0344726,27.1782715 L30.0344726,30.0625488 L25.2916015,30.0625488 L25.2916015,24.4060547 L26.6295898,24.4060547 C26.7954101,24.4060547 26.9295898,24.2717285 26.9295898,24.1060547 C26.9295898,23.9403808 26.7954101,23.8060547 26.6295898,23.8060547 L25.2916015,23.8060547 L25.2916015,20.8114746 C25.2916015,20.6458008 25.1574219,20.5114746 24.9916015,20.5114746 L24.0655273,20.5114746 L24.0655273,13.8625488 L30.0344726,13.8625488 L30.0344726,21.0338379 L30.0344726,21.0338379 Z M12.9734374,14.9206055 C13.9109374,14.9206055 14.6735351,15.6826172 14.6735351,16.6192383 L14.6735351,16.6192383 L14.6735351,18.8100586 C14.6735351,18.9757324 14.5393554,19.1100586 14.3735351,19.1100586 L14.3735351,19.1100586 L11.5733398,19.1100586 C11.4075195,19.1100586 11.2733398,18.9757324 11.2733398,18.8100586 L11.2733398,18.8100586 L11.2733398,16.6192383 C11.2733398,15.6826172 12.0359374,14.9206055 12.9734374,14.9206055 Z M27.1370117,14.9206055 C28.0742187,14.9206055 28.8368164,15.6826172 28.8368164,16.6192383 L28.8368164,16.6192383 L28.8368164,18.8100586 C28.8368164,18.9757324 28.7026367,19.1100586 28.5368164,19.1100586 L28.5368164,19.1100586 L25.736914,19.1100586 C25.5710937,19.1100586 25.436914,18.9757324 25.436914,18.8100586 L25.436914,18.8100586 L25.436914,16.6192383 C25.436914,15.6826172 26.1995117,14.9206055 27.1370117,14.9206055 Z M12.9734374,15.5206054 C12.3666991,15.5206054 11.8733398,16.0133789 11.8733398,16.6192383 L11.8733398,16.6192383 L11.8733398,18.5100586 L14.0735351,18.5100586 L14.0735351,16.6192383 C14.0735351,16.0133789 13.5801757,15.5206054 12.9734374,15.5206054 Z M27.1370117,15.5206054 C26.5302734,15.5206054 26.036914,16.0133789 26.036914,16.6192383 L26.036914,16.6192383 L26.036914,18.5100586 L28.2368164,18.5100586 L28.2368164,16.6192383 C28.2368164,16.0133789 27.743457,15.5206054 27.1370117,15.5206054 Z M24.0432617,9.6 L24.0432617,10.4768555 C24.0432617,10.6425293 24.1774414,10.7768555 24.3432617,10.7768555 L26.1297851,10.7768555 C26.2956055,10.7768555 26.4297851,10.6425293 26.4297851,10.4768555 L26.4297851,9.6 L27.6160156,9.6 L27.6160156,10.4768555 C27.6160156,10.6425293 27.7501953,10.7768555 27.9160156,10.7768555 L29.702539,10.7768555 C29.8683594,10.7768555 30.002539,10.6425293 30.002539,10.4768555 L30.002539,9.6 L31.4234375,9.6 L31.4234375,12.7416504 C31.4234375,13.0289063 31.2078125,13.2625488 30.9426757,13.2625488 L23.0773437,13.2625488 C22.812207,13.2625488 22.596582,13.0289063 22.596582,12.7416504 L22.596582,9.6 L24.0432617,9.6 Z" id="Shape" stroke-width="0.3" fill-rule="nonzero"></path>
            </g>
            <g id="figure_1" transform="translate(130.000000, 500.000000)">
                <circle id="Oval" stroke="#FFFFFF" fill-opacity="0.2" cx="20" cy="20" r="20"></circle>
                <path d="M29.4441108,16.6836885 L29.4441108,15.8463068 C29.4441108,15.3159478 29.0141698,14.8860068 28.4838108,14.8860068 L27.7847123,14.8860068 L27.7847123,14.8860068 L27.7847123,12.8117586 C28.3378451,12.627381 28.7526948,12.1203426 28.7526948,11.4750209 C28.7526948,10.6914161 28.1073731,10.0460944 27.3237682,10.0460944 C26.5401634,10.0460944 25.8948417,10.6914161 25.8948417,11.4750209 C25.8948417,12.0742482 26.3096914,12.627381 26.8628242,12.8117586 L26.8628242,14.8860068 L26.1637257,14.8860068 C25.6333666,14.8860068 25.2034257,15.3159478 25.2034257,15.8463068 L25.2034257,16.6836885 L25.2034257,16.6836885 L14.1868632,16.6836885 L14.1868632,15.8463068 C14.1868632,15.3159478 13.7569222,14.8860068 13.2265632,14.8860068 L12.5274647,14.8860068 L12.5274647,14.8860068 L12.5274647,12.8117586 C13.0805975,12.627381 13.4954471,12.1203426 13.4954471,11.4750209 C13.4954471,10.6914161 12.8501255,10.0460944 12.0665206,10.0460944 C11.2829158,10.0460944 10.6375941,10.6914161 10.6375941,11.4750209 C10.6375941,12.0742482 11.0524438,12.627381 11.6055766,12.8117586 L11.6055766,14.8860068 L10.9525725,14.8860068 C10.4222134,14.8860068 9.99227247,15.3159478 9.99227247,15.8463068 L9.99227247,16.6836885 L9.99227247,16.6836885 L4.96030002,16.6836885 C4.42994097,16.6836885 4,17.1136295 4,17.6439886 L4,18.4813703 L4,18.4813703 L4,19.4032583 L4,20.1868632 C4,20.4414356 4.20637167,20.6478072 4.46094404,20.6478072 L4.46094404,20.6478072 L4.46094404,20.6478072 C6.90394743,20.6478072 9.11647881,22.1689226 9.99227247,24.4275484 L9.99227247,24.7963036 L9.99227247,27.3775902 L9.57742284,27.3775902 C9.32285048,27.3775902 9.11647881,27.5839619 9.11647881,27.8385343 C9.11647881,28.0931066 9.32285048,28.2994783 9.57742284,28.2994783 L9.99227247,28.2994783 L9.99227247,28.2994783 L14.2329576,28.2994783 L17.5517547,28.2994783 C17.8063271,28.2994783 18.0126987,28.0931066 18.0126987,27.8385343 C18.0126987,27.5839619 17.8063271,27.3775902 17.5517547,27.3775902 L14.2329576,27.3775902 L14.2329576,27.3775902 L14.2329576,24.381454 C15.1548457,22.1689226 17.3212827,20.6478072 19.7181917,20.6478072 C22.1151007,20.6478072 24.327632,22.1228282 25.2034257,24.381454 L25.2034257,27.3391782 C25.2034257,27.8695373 25.6333666,28.2994783 26.1637257,28.2994783 L28.4838108,28.2994783 C29.0141698,28.2994783 29.4441108,27.8695373 29.4441108,27.3391782 L29.4441108,24.7963036 L29.4441108,24.7963036 L29.4441108,24.2431707 C30.3659989,22.0767338 32.5324359,20.6939016 34.8832504,20.6939016 C35.1378228,20.6939016 35.3441945,20.48753 35.3441945,20.2329576 L35.3441945,19.4493527 L35.3441945,19.4493527 L35.3441945,18.5274647 L35.3441945,17.690083 C35.3441945,17.1597239 34.9142536,16.7297829 34.3838944,16.7297829 L29.4441108,16.7297829 L29.4441108,16.7297829 L29.4441108,16.6836885 Z M27.3237682,11.0140769 C27.6003347,11.0140769 27.8308067,11.2445489 27.8308067,11.5211153 C27.8308067,11.7976817 27.6003347,12.0281538 27.3237682,12.0281538 C27.0472018,12.0281538 26.8167298,11.7976817 26.8167298,11.5211153 C26.8167298,11.2445489 27.0472018,11.0140769 27.3237682,11.0140769 Z M12.112615,11.0140769 C12.3891815,11.0140769 12.6196535,11.2445489 12.6196535,11.5211153 C12.6196535,11.7976817 12.3891815,12.0281538 12.112615,12.0281538 C11.8360486,12.0281538 11.6055766,11.7976817 11.6055766,11.5211153 C11.6055766,11.2445489 11.8360486,11.0140769 12.112615,11.0140769 Z M26.1253137,15.8078949 L28.5222227,15.8078949 L28.5222227,16.6836885 L26.1253137,16.6836885 L26.1253137,15.8078949 Z M10.9141605,15.8078949 L13.3110695,15.8078949 L13.3110695,16.6836885 L10.9141605,16.6836885 L10.9141605,15.8078949 Z M4.92188807,19.7720136 L4.92188807,19.4493527 L9.99227247,19.4493527 L9.99227247,22.5837722 C8.79381798,20.9704681 6.95004184,19.9102968 4.92188807,19.7720136 Z M10.9141605,27.3775902 L10.9141605,24.7963036 L13.3110695,24.7963036 L13.3110695,27.3775902 L10.9141605,27.3775902 Z M19.7181917,19.7720136 C16.9986218,19.7720136 14.509524,21.4314121 13.4032583,23.9205099 L10.9141605,23.9205099 L10.9141605,19.4493527 L28.5683171,19.4493527 L28.5683171,23.9205099 L26.0331249,23.9205099 C24.9268592,21.3853177 22.4377615,19.7720136 19.7181917,19.7720136 Z M28.5222227,27.3775902 L26.1253137,27.3775902 L26.1253137,24.7963036 L28.5222227,24.7963036 L28.5222227,25.4520604 L28.5222227,27.3775902 Z M34.4223064,19.7720136 C32.4402471,19.9102968 30.6425653,20.9243737 29.4441108,22.445489 L29.4441108,19.4493527 L34.4223064,19.4493527 L34.4223064,19.7720136 Z M29.4441108,18.5274647 L28.9370724,18.5274647 L10.4071221,18.5274647 L9.94617807,18.5274647 L4.92188807,18.5274647 L4.92188807,17.651671 L9.99227247,17.651671 L14.2329576,17.651671 L25.2034257,17.651671 L29.4441108,17.651671 L34.4223064,17.651671 L34.4223064,18.5274647 L29.4441108,18.5274647 Z" id="Shape" fill-rule="nonzero"></path>
                <rect id="Rectangle" fill-rule="nonzero" x="15.2470345" y="29.1752719" width="8.75793672" height="1"></rect>
                <rect id="Rectangle" fill-rule="nonzero" x="12.4352759" y="30.9268592" width="5.57742284" height="1"></rect>
                <rect id="Rectangle" fill-rule="nonzero" x="17.0908106" y="32.6784466" width="3.45708027" height="1"></rect>
            </g>
        </g>
        <path id="Path-4" d="M927.252549,927.032416 C937.409857,929.683572 945.24653,931.531361 950.755777,932.574901 C953.9003,933.170525 957.804461,933.791609 962.457829,934.436513 L963.198796,934.538538 L971.22,935.551 L963.228647,929.625092 C962.819156,929.321425 962.708468,928.764408 962.952608,928.331593 L963.021067,928.226196 C963.324735,927.816704 963.881752,927.706016 964.314566,927.950156 L964.419964,928.018616 L975.479082,936.219738 L976.907061,937.278686 L975.260553,937.949137 L962.509013,943.14151 C961.997509,943.349792 961.414006,943.103982 961.205724,942.592478 C961.012318,942.117509 961.210452,941.580461 961.649283,941.3394 L961.754756,941.289188 L970.97,937.536 L962.937895,936.521421 C957.915128,935.834316 953.731015,935.174022 950.383563,934.53996 C944.821375,933.486392 936.944934,931.629227 926.747451,928.967584 C926.213069,928.828105 925.892937,928.281833 926.032416,927.747451 C926.171895,927.213069 926.718167,926.892937 927.252549,927.032416 Z" fill="#FFFFFF" fill-rule="nonzero"></path>
        <path id="Path-5" d="M1121.84639,722.645117 L1121.95685,722.683117 L1134.69664,727.904242 L1136.34163,728.578405 L1134.91127,729.634129 L1123.83368,737.810283 C1123.38932,738.138254 1122.76323,738.043905 1122.43526,737.599548 C1122.13251,737.189372 1122.18962,736.624342 1122.54969,736.281883 L1122.64599,736.201124 L1130.652,730.291 L1122.66224,731.282643 C1117.08463,732.176847 1112.24987,733.311085 1108.15985,734.68308 C1103.65557,736.194036 1094.2901,740.038302 1089.96722,742.241115 C1089.47514,742.491865 1088.87295,742.296228 1088.6222,741.804148 C1088.37145,741.312068 1088.56709,740.709885 1089.05917,740.459135 C1093.47498,738.208967 1102.9306,734.327701 1107.52378,732.786921 C1111.50451,731.45159 1116.1477,730.341164 1121.48486,729.449455 L1122.38081,729.302861 L1130.406,728.307 L1121.19842,724.533732 C1120.72388,724.339256 1120.47918,723.821766 1120.61432,723.339669 L1120.65232,723.229208 C1120.8468,722.754677 1121.36429,722.509969 1121.84639,722.645117 Z" fill="#FFFFFF" fill-rule="nonzero"></path>
        <path id="Path-6" d="M1475.81136,737.865117 L1476.889,739.279047 L1485.23483,750.229367 C1485.56961,750.668619 1485.48492,751.296094 1485.04567,751.630872 C1484.6402,751.939898 1484.07436,751.891504 1483.7264,751.536747 L1483.64416,751.441705 L1477.612,743.527 L1478.7346,751.560229 C1479.29881,756.453897 1479.58139,760.58702 1479.58139,763.963738 C1479.58139,769.642114 1478.78184,777.468774 1477.18492,787.457348 C1477.09773,788.002707 1476.58495,788.374127 1476.03959,788.286938 C1475.49423,788.199749 1475.12281,787.686968 1475.21,787.141609 C1476.79166,777.248463 1477.58139,769.517963 1477.58139,763.963738 C1477.58139,760.845231 1477.33229,757.037645 1476.83584,752.564794 L1476.75081,751.813163 L1475.631,743.803 L1472.00046,753.068849 C1471.81331,753.546319 1471.29965,753.79897 1470.81553,753.671264 L1470.7045,753.634971 C1470.22703,753.447828 1469.97438,752.934169 1470.10208,752.450048 L1470.13838,752.339014 L1475.16262,739.520299 L1475.81136,737.865117 Z" fill="#FFFFFF" fill-rule="nonzero"></path>

        <g id="Drone" transform="translate(871.000000, 930.000000) rotate(103.000000) translate(-871.000000, -930.000000) translate(841.000000, 900.000000)" fill="#FFFFFF" fill-rule="nonzero">
            <path d="M25.856,22.837 C29.4018379,17.7281902 28.4621635,10.7577552 23.6900677,6.77027409 C18.9179719,2.78279299 11.8914992,3.09685267 7.49417595,7.49417595 C3.09685267,11.8914992 2.78279299,18.9179719 6.77027409,23.6900677 C10.7577552,28.4621635 17.7281902,29.4018379 22.837,25.856 C23.6132798,27.1135078 24.0956061,28.5300638 24.248,30 C24.1471745,31.1988874 23.7934017,32.3627932 23.21,33.415 C18.2788158,29.7051763 11.3378997,30.3400521 7.16157813,34.8829265 C2.9852566,39.425801 2.93518024,46.3955124 7.04579421,50.9979272 C11.1564082,55.6003421 18.0874852,56.3348862 23.0714667,52.6963014 C28.0554481,49.0577167 29.4673534,42.2323297 26.336,36.915 C27.4584986,36.2661126 28.7087576,35.8692646 30,35.752 C31.2899221,35.8676826 32.5391896,36.2628346 33.661,36.91 C30.5109725,42.2383903 31.9168442,49.0873024 36.9112138,52.7438977 C41.9055833,56.400493 48.8592372,55.6719534 52.9872624,51.0595978 C57.1152877,46.4472422 57.071081,39.4556675 52.8850616,34.8958804 C48.6990423,30.3360933 41.7367319,29.6955422 36.789,33.415 C36.2062835,32.362572 35.8528751,31.1987441 35.752,30 C35.9043939,28.5300638 36.3867202,27.1135078 37.163,25.856 C42.2718098,29.4018379 49.2422448,28.4621635 53.2297259,23.6900677 C57.217207,18.9179719 56.9031473,11.8914992 52.5058241,7.49417595 C48.1085008,3.09685267 41.0820281,2.78279299 36.3099323,6.77027409 C31.5378365,10.7577552 30.5981621,17.7281902 34.144,22.837 C32.8865513,23.6134052 31.4699659,24.0957416 30,24.248 C28.5300341,24.0957416 27.1134487,23.6134052 25.856,22.837 Z M5.99998997,16 C5.99385414,11.6410204 8.81195126,7.78024174 12.9653827,6.45746127 C17.1188142,5.1346808 21.650577,6.65468382 24.1663672,10.2143945 C26.6821575,13.7741052 26.6023055,18.5533214 23.969,22.027 C23.4435875,21.9904232 22.9280934,22.1832496 22.5556715,22.5556715 C22.1832496,22.9280934 21.9904232,23.4435875 22.027,23.969 C19.0032398,26.26336 14.9403844,26.6457229 11.5416555,24.9557952 C8.14292663,23.2658676 5.99564905,19.795681 5.99998997,16 Z M16,53.0000023 C11.6080929,53.0029831 7.72827181,50.1400087 6.43593524,45.9425424 C5.14359866,41.7450762 6.74125887,37.1956678 10.3742935,34.7278924 C14.0073282,32.2601169 18.8253107,32.4516352 22.251,35.2 C21.9248359,35.7799831 21.9297399,36.4892162 22.263893,37.0646336 C22.5980461,37.6400509 23.2116084,37.9958275 23.877,38 C24.1155268,37.9935571 24.3506734,37.9419809 24.57,37.848 C25.5096931,39.4018802 26.0043656,41.1840849 26.0000286,43 C25.9939376,48.5203344 21.5203344,52.9939376 16,53.0000023 L16,53.0000023 Z M36.369,35.958 L36.369,35.958 L36.009,36.172 L36.009,36.172 L36.369,35.958 Z M54.000012,43 C53.999218,47.2261963 51.3417398,50.995624 47.3614673,52.416246 C43.3811949,53.836868 38.9375804,52.6019323 36.2610642,49.331306 C33.5845479,46.0606797 33.2530647,41.4605825 35.433,37.84 C36.1224423,38.1298551 36.9188535,37.9715228 37.445,37.44 C38.0422848,36.8477928 38.1654892,35.9274554 37.745,35.199 C40.7437764,32.7866619 44.8614753,32.3110427 48.3312302,33.9762262 C51.8009851,35.6414097 54.005952,39.1513639 54.000012,43 Z M33.752,30 C33.9415589,32.0652342 34.6389281,34.0515342 35.782,35.782 C34.0515342,34.6389281 32.0652342,33.9415589 30,33.752 C27.9347658,33.9415589 25.9484658,34.6389281 24.218,35.782 C25.3610719,34.0515342 26.0584411,32.0652342 26.248,30 C26.0587676,27.9346946 25.3613712,25.9483172 24.218,24.218 C25.9484101,25.3611841 27.9347391,26.0585635 30,26.248 C32.0652342,26.0584411 34.0515342,25.3610719 35.782,24.218 C34.6389281,25.9484658 33.9415589,27.9347658 33.752,30 Z M44,5.99998997 C48.3589796,5.99385414 52.2197583,8.81195126 53.5425387,12.9653827 C54.8653192,17.1188142 53.3453162,21.650577 49.7856055,24.1663672 C46.2258948,26.6821575 41.4466786,26.6023055 37.973,23.969 C38.0095743,23.4433225 37.8166417,22.9275757 37.444033,22.554967 C37.0714243,22.1823583 36.5556775,21.9894257 36.03,22.026 C33.7369501,19.0019104 33.3554696,14.9396705 35.0454161,11.5415422 C36.7353627,8.1434138 40.2048476,5.99632388 44,5.99998997 L44,5.99998997 Z" id="Shape"></path>
            <path d="M8.961,59.274 C9.11262485,58.7432834 8.80558692,58.190078 8.275,58.038 C2.16,56.291 1.99999183,52.185 1.99999183,51.992 C1.99779086,51.4397153 1.54828475,50.9937909 0.996,50.9959918 C0.44371525,50.9982091 -0.002209139,51.4477153 -8.17282762e-06,52 C-8.17282762e-06,52.235 0.088,57.779 7.725,59.962 C7.81458792,59.9867476 7.90705801,59.9995253 7.99999183,60 C8.44648781,59.9996742 8.83866243,59.7034007 8.961,59.274 Z" id="Path"></path>
            <path d="M59,51 C58.4477153,51 58,51.4477153 58,52 C58,52.042 57.928,56.267 51.725,58.038 C51.2445787,58.1743568 50.9384036,58.6442451 51.0077231,59.1388082 C51.0770426,59.6333713 51.5006035,60.0009775 52,60 C52.092942,59.9995253 52.1854121,59.9867476 52.275,59.962 C59.912,57.779 60,52.235 60,52 C60,51.4477153 59.5522847,51 59,51 Z" id="Path"></path>
            <path d="M52.275,0.038 C51.7437021,-0.113878306 51.1898783,0.193702071 51.038,0.725 C50.8861217,1.25629793 51.1937021,1.81012169 51.725,1.962 C57.84,3.709 58,7.815 58,8.008 C58.0022092,8.56028473 58.4517153,9.00620908 59.004,9.00400811 C59.5562847,9.0017908 60.0022091,8.55228473 60.0000082,8 C60.0000082,7.765 59.912,2.221 52.275,0.038 Z" id="Path"></path>
            <path d="M1,9 C1.55228475,9 2,8.55228475 2,8 C2,7.958 2.072,3.733 8.275,1.962 C8.80629792,1.81012169 9.11387829,1.25629793 8.96199999,0.725000004 C8.81012168,0.19370208 8.25629793,-0.113878297 7.725,0.038 C0.088,2.221 9.09494702e-13,7.765 9.09494702e-13,8 C9.09494702e-13,8.55228475 0.44771525,9 1,9 Z" id="Path"></path>
            <g id="figure" transform="translate(8.854875, 12.501475)">
                <g id="subgroup">
                    <path d="M4.13550056,-0.99992455 C6.38213868,-0.972324941 7.27339589,0.248129296 7.87118645,2.9380139 L14.5287255,2.95139772 C15.2644661,2.95271645 15.7469248,3.72131717 15.4282865,4.3844805 C13.8813792,7.60396878 11.9930218,9.25858856 9.77006943,9.08973634 L9.5606876,9.06855635 C7.51045845,8.87912402 6.81272065,7.74884442 6.22945313,4.93779825 L-0.00174065464,4.92572163 C-0.629625918,4.9246287 -1.10117684,4.3519281 -0.981742009,3.73550583 C-0.408058426,0.774633048 1.33720748,-0.88703825 4.13550056,-0.99992455 Z M12.841,4.948 L8.276,4.939 L8.30355196,5.0573721 C8.65702208,6.54787073 9.01775288,7.00997106 9.77762011,7.08063197 C10.7417133,7.20202591 11.7055357,6.62455853 12.6585213,5.22878747 L12.841,4.948 Z M4.16402798,0.99916687 C2.87521101,1.05180908 1.99304688,1.57050417 1.4517177,2.65124336 L1.3597137,2.84781595 L1.326,2.927 L5.817,2.936 L5.81164688,2.91088924 C5.47937489,1.60606488 5.09975659,1.10581156 4.39402817,1.01473577 L4.27333943,1.00327736 L4.16402798,0.99916687 Z" id="propeller"></path>
                </g>
            </g>
            <g id="figure" transform="translate(36.907817, 7.563271)">
                <g id="subgroup">
                    <path d="M4.13550056,4.00007545 C6.38213868,4.02767506 7.27339589,5.2481293 7.87118645,7.9380139 L14.5287255,7.95139772 C15.2644661,7.95271645 15.7469248,8.72131717 15.4282865,9.3844805 C13.8813792,12.6039688 11.9930218,14.2585886 9.77006943,14.0897363 L9.5606876,14.0685564 C7.51045845,13.879124 6.81272065,12.7488444 6.22945313,9.93779825 L-0.00174065464,9.92572163 C-0.629625918,9.9246287 -1.10117684,9.3519281 -0.981742009,8.73550583 C-0.408058426,5.77463305 1.33720748,4.11296175 4.13550056,4.00007545 Z M12.841,9.948 L8.276,9.939 L8.30355196,10.0573721 C8.65702208,11.5478707 9.01775288,12.0099711 9.77762011,12.080632 C10.7417133,12.2020259 11.7055357,11.6245585 12.6585213,10.2287875 L12.841,9.948 Z M4.16402798,5.99916687 C2.87521101,6.05180908 1.99304688,6.57050417 1.4517177,7.65124336 L1.3597137,7.84781595 L1.326,7.927 L5.817,7.936 L5.81164688,7.91088924 C5.47937489,6.60606488 5.09975659,6.10581156 4.39402817,6.01473577 L4.27333943,6.00327736 L4.16402798,5.99916687 Z" id="propeller" transform="translate(7.263920, 9.050782) rotate(63.000000) translate(-7.263920, -9.050782) "></path>
                </g>
            </g>
            <g id="figure" transform="translate(36.020937, 35.992909)">
                <g id="subgroup" transform="translate(0.000000, -0.000000)">
                    <path d="M5.13550056,3.00007545 C7.38213868,3.02767506 8.27339589,4.2481293 8.87118645,6.9380139 L15.5287255,6.95139772 C16.2644661,6.95271645 16.7469248,7.72131717 16.4282865,8.3844805 C14.8813792,11.6039688 12.9930218,13.2585886 10.7700694,13.0897363 L10.5606876,13.0685564 C8.51045845,12.879124 7.81272065,11.7488444 7.22945313,8.93779825 L0.998259345,8.92572163 C0.370374082,8.9246287 -0.10117684,8.3519281 0.0182579908,7.73550583 C0.591941574,4.77463305 2.33720748,3.11296175 5.13550056,3.00007545 Z M13.841,8.948 L9.276,8.939 L9.30355196,9.0573721 C9.65702208,10.5478707 10.0177529,11.0099711 10.7776201,11.080632 C11.7417133,11.2020259 12.7055357,10.6245585 13.6585213,9.22878747 L13.841,8.948 Z M5.16402798,4.99916687 C3.87521101,5.05180908 2.99304688,5.57050417 2.4517177,6.65124336 L2.3597137,6.84781595 L2.326,6.927 L6.817,6.936 L6.81164688,6.91088924 C6.47937489,5.60606488 6.09975659,5.10581156 5.39402817,5.01473577 L5.27333943,5.00327736 L5.16402798,4.99916687 Z" id="propeller" transform="translate(8.263920, 8.050782) rotate(143.000000) translate(-8.263920, -8.050782) "></path>
                </g>
            </g>
            <g id="figure" transform="translate(7.554473, 33.533821)">
                <g id="subgroup">
                    <path d="M5.13550056,5.00007545 C7.38213868,5.02767506 8.27339589,6.2481293 8.87118645,8.9380139 L15.5287255,8.95139772 C16.2644661,8.95271645 16.7469248,9.72131717 16.4282865,10.3844805 C14.8813792,13.6039688 12.9930218,15.2585886 10.7700694,15.0897363 L10.5606876,15.0685564 C8.51045845,14.879124 7.81272065,13.7488444 7.22945313,10.9377983 L0.998259345,10.9257216 C0.370374082,10.9246287 -0.10117684,10.3519281 0.0182579908,9.73550583 C0.591941574,6.77463305 2.33720748,5.11296175 5.13550056,5.00007545 Z M13.841,10.948 L9.276,10.939 L9.30355196,11.0573721 C9.65702208,12.5478707 10.0177529,13.0099711 10.7776201,13.080632 C11.7417133,13.2020259 12.7055357,12.6245585 13.6585213,11.2287875 L13.841,10.948 Z M5.16402798,6.99916687 C3.87521101,7.05180908 2.99304688,7.57050417 2.4517177,8.65124336 L2.3597137,8.84781595 L2.326,8.927 L6.817,8.936 L6.81164688,8.91088924 C6.47937489,7.60606488 6.09975659,7.10581156 5.39402817,7.01473577 L5.27333943,7.00327736 L5.16402798,6.99916687 Z" id="propeller" transform="translate(8.263920, 10.050782) rotate(243.000000) translate(-8.263920, -10.050782) "></path>
                </g>
            </g>
        </g>
    </g>
</svg>
