<?xml version="1.0" encoding="UTF-8"?>
<svg width="1920px" height="1080px" viewBox="0 0 1920 1080" version="1.1" xmlns="http://www.w3.org/2000/svg" xmlns:xlink="http://www.w3.org/1999/xlink">
    <!-- Generator: Sketch 61.2 (89653) - https://sketch.com -->
    <title>Baden</title>
    <desc>Created with Sketch.</desc>
    <defs>
        <linearGradient x1="37.5138308%" y1="60.0865821%" x2="100%" y2="43.2142694%" id="linearGradient-1">
            <stop stop-color="#FFFFFF" stop-opacity="0.3" offset="0%"></stop>
            <stop stop-color="#FFFFFF" offset="52.1358719%"></stop>
            <stop stop-color="#FFFFFF" offset="100%"></stop>
        </linearGradient>
    </defs>
    <g id="Baden" stroke="none" stroke-width="1" fill="none" fill-rule="evenodd">
        <g id="Drone-Copy" transform="translate(1459.000000, 848.000000) rotate(63.000000) translate(-1459.000000, -848.000000) translate(1429.000000, 818.000000)" fill="#FFFFFF" fill-rule="nonzero">
            <g id="Group">
                <path d="M16,35 C15.4477153,35 15,35.4477153 15,36 L15,42.1 C12.7797824,42.5072651 11.1268265,44.3813039 11,46.635 C11,49 13.29,51 16,51 C16.5522847,51 17,50.5522847 17,50 L17,43.919 C19.0777726,43.7270474 20.6799546,42.0051967 20.722,39.919 C20.7042662,37.2854423 18.630635,35.1253001 16,35 Z M15,48.854 C13.9261124,48.6230346 13.1204966,47.7308151 13,46.639 C13.1061945,45.4888851 13.8960414,44.5165836 15,44.177 L15,48.854 Z M17,41.876 L17,37.23 C18.0188234,37.7470931 18.6777771,38.7753211 18.722,39.917 C18.6989248,40.9011523 17.9730675,41.7269098 17,41.876 Z" id="Shape"></path>
                <path d="M36,43 C36,43.5522847 36.4477153,44 37,44 L43.081,44 C43.2750905,46.0768812 44.9955505,47.6781993 47.081,47.723 C49.7149259,47.7052384 51.8752138,45.6310282 52,43 C52,42.4477153 51.5522847,42 51,42 L44.9,42 C44.4924005,39.7799715 42.6185502,38.1271819 40.365,38 C38,38 36,40.29 36,43 Z M49.77,44 C49.2531756,45.019211 48.2248956,45.6785807 47.083,45.723 C46.0986818,45.6994398 45.2730321,44.9732558 45.124,44 L49.77,44 Z M40.361,40 C41.5113293,40.1056686 42.4838873,40.8957238 42.823,42 L38.146,42 C38.376683,40.9259492 39.2690513,40.120199 40.361,40 L40.361,40 Z" id="Shape"></path>
                <path d="M25.856,22.837 C29.4018379,17.7281902 28.4621635,10.7577552 23.6900677,6.77027409 C18.9179719,2.78279299 11.8914992,3.09685267 7.49417595,7.49417595 C3.09685267,11.8914992 2.78279299,18.9179719 6.77027409,23.6900677 C10.7577552,28.4621635 17.7281902,29.4018379 22.837,25.856 C23.6132798,27.1135078 24.0956061,28.5300638 24.248,30 C24.1471745,31.1988874 23.7934017,32.3627932 23.21,33.415 C18.2788158,29.7051763 11.3378997,30.3400521 7.16157813,34.8829265 C2.9852566,39.425801 2.93518024,46.3955124 7.04579421,50.9979272 C11.1564082,55.6003421 18.0874852,56.3348862 23.0714667,52.6963014 C28.0554481,49.0577167 29.4673534,42.2323297 26.336,36.915 C27.4584986,36.2661126 28.7087576,35.8692646 30,35.752 C31.2899221,35.8676826 32.5391896,36.2628346 33.661,36.91 C30.5109725,42.2383903 31.9168442,49.0873024 36.9112138,52.7438977 C41.9055833,56.400493 48.8592372,55.6719534 52.9872624,51.0595978 C57.1152877,46.4472422 57.071081,39.4556675 52.8850616,34.8958804 C48.6990423,30.3360933 41.7367319,29.6955422 36.789,33.415 C36.2062835,32.362572 35.8528751,31.1987441 35.752,30 C35.9043939,28.5300638 36.3867202,27.1135078 37.163,25.856 C42.2718098,29.4018379 49.2422448,28.4621635 53.2297259,23.6900677 C57.217207,18.9179719 56.9031473,11.8914992 52.5058241,7.49417595 C48.1085008,3.09685267 41.0820281,2.78279299 36.3099323,6.77027409 C31.5378365,10.7577552 30.5981621,17.7281902 34.144,22.837 C32.8865513,23.6134052 31.4699659,24.0957416 30,24.248 C28.5300341,24.0957416 27.1134487,23.6134052 25.856,22.837 Z M5.99998997,16 C5.99385414,11.6410204 8.81195126,7.78024174 12.9653827,6.45746127 C17.1188142,5.1346808 21.650577,6.65468382 24.1663672,10.2143945 C26.6821575,13.7741052 26.6023055,18.5533214 23.969,22.027 C23.4435875,21.9904232 22.9280934,22.1832496 22.5556715,22.5556715 C22.1832496,22.9280934 21.9904232,23.4435875 22.027,23.969 C19.0032398,26.26336 14.9403844,26.6457229 11.5416555,24.9557952 C8.14292663,23.2658676 5.99564905,19.795681 5.99998997,16 Z M16,53.0000023 C11.6080929,53.0029831 7.72827181,50.1400087 6.43593524,45.9425424 C5.14359866,41.7450762 6.74125887,37.1956678 10.3742935,34.7278924 C14.0073282,32.2601169 18.8253107,32.4516352 22.251,35.2 C21.9248359,35.7799831 21.9297399,36.4892162 22.263893,37.0646336 C22.5980461,37.6400509 23.2116084,37.9958275 23.877,38 C24.1155268,37.9935571 24.3506734,37.9419809 24.57,37.848 C25.5096931,39.4018802 26.0043656,41.1840849 26.0000286,43 C25.9939376,48.5203344 21.5203344,52.9939376 16,53.0000023 L16,53.0000023 Z M36.369,35.958 L36.369,35.958 L36.009,36.172 L36.009,36.172 L36.369,35.958 Z M54.000012,43 C53.999218,47.2261963 51.3417398,50.995624 47.3614673,52.416246 C43.3811949,53.836868 38.9375804,52.6019323 36.2610642,49.331306 C33.5845479,46.0606797 33.2530647,41.4605825 35.433,37.84 C36.1224423,38.1298551 36.9188535,37.9715228 37.445,37.44 C38.0422848,36.8477928 38.1654892,35.9274554 37.745,35.199 C40.7437764,32.7866619 44.8614753,32.3110427 48.3312302,33.9762262 C51.8009851,35.6414097 54.005952,39.1513639 54.000012,43 Z M33.752,30 C33.9415589,32.0652342 34.6389281,34.0515342 35.782,35.782 C34.0515342,34.6389281 32.0652342,33.9415589 30,33.752 C27.9347658,33.9415589 25.9484658,34.6389281 24.218,35.782 C25.3610719,34.0515342 26.0584411,32.0652342 26.248,30 C26.0587676,27.9346946 25.3613712,25.9483172 24.218,24.218 C25.9484101,25.3611841 27.9347391,26.0585635 30,26.248 C32.0652342,26.0584411 34.0515342,25.3610719 35.782,24.218 C34.6389281,25.9484658 33.9415589,27.9347658 33.752,30 Z M44,5.99998997 C48.3589796,5.99385414 52.2197583,8.81195126 53.5425387,12.9653827 C54.8653192,17.1188142 53.3453162,21.650577 49.7856055,24.1663672 C46.2258948,26.6821575 41.4466786,26.6023055 37.973,23.969 C38.0095743,23.4433225 37.8166417,22.9275757 37.444033,22.554967 C37.0714243,22.1823583 36.5556775,21.9894257 36.03,22.026 C33.7369501,19.0019104 33.3554696,14.9396705 35.0454161,11.5415422 C36.7353627,8.1434138 40.2048476,5.99632388 44,5.99998997 L44,5.99998997 Z" id="Shape"></path>
                <path d="M39,19.639 C39,22 41.29,24 44,24 C44.5522847,24 45,23.5522847 45,23 L45,16.919 C47.0777726,16.7270474 48.6799546,15.0051967 48.722,12.919 C48.7042662,10.2854423 46.630635,8.12530005 44,8 C43.4477153,8 43,8.44771525 43,9 L43,15.1 C40.7783995,15.5076266 39.1250399,17.3837765 39,19.639 L39,19.639 Z M43,21.854 C41.9261124,21.6230346 41.1204966,20.7308151 41,19.639 C41.1061945,18.4888851 41.8960414,17.5165836 43,17.177 L43,21.854 Z M45,10.23 C46.0188234,10.7470931 46.6777771,11.7753211 46.722,12.917 C46.6989248,13.9011523 45.9730675,14.7269098 45,14.876 L45,10.23 Z" id="Shape"></path>
                <path d="M24,16 C24,15.4477153 23.5522847,15 23,15 L16.9,15 C16.4924005,12.7799715 14.6185502,11.1271819 12.365,11 C10,11 8,13.29 8,16 C8,16.5522847 8.44771525,17 9,17 L15.081,17 C15.2750905,19.0768812 16.9955505,20.6781993 19.081,20.723 C21.7149259,20.7052384 23.8752138,18.6310282 24,16 Z M10.146,15 C10.376683,13.9259492 11.2690513,13.120199 12.361,13 C13.5113293,13.1056686 14.4838873,13.8957238 14.823,15 L10.146,15 Z M19.083,18.723 C18.0986818,18.6994398 17.2730321,17.9732558 17.124,17 L21.77,17 C21.2531756,18.019211 20.2248956,18.6785807 19.083,18.723 L19.083,18.723 Z" id="Shape"></path>
                <path d="M8.961,59.274 C9.11262485,58.7432834 8.80558692,58.190078 8.275,58.038 C2.16,56.291 1.99999183,52.185 1.99999183,51.992 C1.99779086,51.4397153 1.54828475,50.9937909 0.996,50.9959918 C0.44371525,50.9982091 -0.002209139,51.4477153 -8.17282766e-06,52 C-8.17282766e-06,52.235 0.088,57.779 7.725,59.962 C7.81458792,59.9867476 7.90705801,59.9995253 7.99999183,60 C8.44648781,59.9996742 8.83866243,59.7034007 8.961,59.274 Z" id="Path"></path>
                <path d="M59,51 C58.4477153,51 58,51.4477153 58,52 C58,52.042 57.928,56.267 51.725,58.038 C51.2445787,58.1743568 50.9384036,58.6442451 51.0077231,59.1388082 C51.0770426,59.6333713 51.5006035,60.0009775 52,60 C52.092942,59.9995253 52.1854121,59.9867476 52.275,59.962 C59.912,57.779 60,52.235 60,52 C60,51.4477153 59.5522847,51 59,51 Z" id="Path"></path>
                <path d="M52.275,0.038 C51.7437021,-0.113878306 51.1898783,0.193702071 51.038,0.725 C50.8861217,1.25629793 51.1937021,1.81012169 51.725,1.962 C57.84,3.709 58,7.815 58,8.008 C58.0022092,8.56028473 58.4517153,9.00620908 59.004,9.00400811 C59.5562847,9.0017908 60.0022091,8.55228473 60.0000082,8 C60.0000082,7.765 59.912,2.221 52.275,0.038 Z" id="Path"></path>
                <path d="M1,9 C1.55228475,9 2,8.55228475 2,8 C2,7.958 2.072,3.733 8.275,1.962 C8.80629792,1.81012169 9.11387829,1.25629793 8.96199999,0.725000004 C8.81012168,0.19370208 8.25629793,-0.113878297 7.725,0.038 C0.088,2.221 0,7.765 0,8 C0,8.55228475 0.44771525,9 1,9 Z" id="Path"></path>
            </g>
        </g>
        <path d="M198.527539,787.026509 C341.858792,791.162103 494.36582,803.653267 656.048624,824.5 C729.539059,833.975562 911.681267,900.741367 1014.72276,907.298959 C1035.88762,908.645898 1065.3657,893.212243 1076.52276,864.5 C1088.007,834.945785 1080.96726,791.891575 1088.7,779.1202 C1099.40851,761.434055 1128.42751,748.744571 1159.54455,756.325539 C1195.49627,765.084368 1224.85719,793.64296 1250,800.56357 C1331.29347,822.939762 1417.98268,828.250476 1443.78748,793.64296 C1466.99199,762.52276 1437.1734,739.313953 1443.78748,695.514149 C1451.13831,646.835389 1479.82818,598.986405 1501.5,575 C1539.6922,532.728806 1566.02138,474.39032 1570.73975,448.52276 C1572.97213,436.284176 1574.15131,416.229253 1570.73975,391.5 C1569.02528,379.072371 1564.2604,357.405705 1556.44512,326.5" id="flying-path" stroke="url(#linearGradient-1)" stroke-width="11" opacity="0.5" stroke-linecap="round"></path>
        <g id="companies-(example)" transform="translate(1343.000000, 228.000000)">
            <g id="Group-12-Copy-10" transform="translate(0.000000, 410.000000)">
                <circle id="Oval" fill="#FFFFFF" opacity="0.400000006" cx="22.8214799" cy="22.8214799" r="22.8214799"></circle>
                <circle id="Oval-Copy-6" fill="#FFFFFF" cx="22.8214799" cy="22.8214799" r="8.29871995"></circle>
                <circle id="Oval-Copy-11" fill="#FFC500" cx="22.87276" cy="22.87276" r="3.85"></circle>
            </g>
            <g id="Group-12-Copy-12" transform="translate(90.000000, 258.000000)">
                <circle id="Oval" fill="#FFFFFF" opacity="0.400000006" cx="22.8214799" cy="22.8214799" r="22.8214799"></circle>
                <circle id="Oval-Copy-6" fill="#FFFFFF" cx="22.8214799" cy="22.8214799" r="8.29871995"></circle>
                <circle id="Oval-Copy-11" fill="#FFC500" cx="22.87276" cy="22.87276" r="3.85"></circle>
            </g>
            <g id="Group-12-Copy-11" transform="translate(85.000000, 0.000000)">
                <circle id="Oval" fill="#FFFFFF" opacity="0.400000006" cx="22.8214799" cy="22.8214799" r="22.8214799"></circle>
                <circle id="Oval-Copy-6" fill="#FFFFFF" cx="22.8214799" cy="22.8214799" r="8.29871995"></circle>
                <circle id="Oval-Copy-7" fill="#FF0000" cx="22.85" cy="22.85" r="3.85"></circle>
            </g>
        </g>
        <g id="local-highlights" transform="translate(1194.000000, 259.000000)" fill="#FFFFFF">
            <g id="Group-6-Copy-4" transform="translate(0.000000, 455.000000)" fill-opacity="0.2" stroke="#FFFFFF">
                <circle id="Oval" cx="70" cy="155" r="20"></circle>
                <circle id="Oval-Copy" cx="20" cy="20" r="20"></circle>
            </g>
            <g id="Group-6-Copy-6" transform="translate(6.000000, 0.000000)">
                <circle id="Oval" stroke="#FFFFFF" fill-opacity="0.2" cx="411" cy="20" r="20"></circle>
                <g id="castle" transform="translate(0.000000, 9.000000)" fill-rule="nonzero">
                    <path d="M422.723437,0 L420.702539,0 C420.536719,0 420.402539,0.13432617 420.402539,0.3 L420.402539,1.17685548 L419.216016,1.17685548 L419.216016,0.3 C419.216016,0.13432617 419.081836,0 418.916016,0 L417.129785,0 C416.963965,0 416.829785,0.13432617 416.829785,0.3 L416.829785,1.17685548 L415.643262,1.17685548 L415.643262,0.3 C415.643262,0.13432617 415.509082,0 415.343262,0 L413.296582,0 C413.130762,0 412.996582,0.13432617 412.996582,0.3 L412.996582,3.7416504 C412.996582,4.35966798 413.481445,4.86254883 414.077344,4.86254883 L414.465527,4.86254883 L414.465527,11.5114746 L413.968652,11.5114746 C413.802832,11.5114746 413.668652,11.6458008 413.668652,11.8114746 L413.668652,12.7713867 L412.275293,12.7713867 L412.275293,11.8114746 C412.275293,11.6458008 412.141113,11.5114746 411.975293,11.5114746 L410.048437,11.5114746 C409.882617,11.5114746 409.748437,11.6458008 409.748437,11.8114746 L409.748437,12.7713867 L408.355078,12.7713867 L408.355078,11.8114746 C408.355078,11.6458008 408.220898,11.5114746 408.055078,11.5114746 L407.55791,11.5114746 L407.55791,4.86254883 L408.014941,4.86254883 C408.614355,4.86254883 409.101855,4.35966798 409.101855,3.7416504 L409.101855,0.3 C409.101855,0.13432617 408.967676,0 408.801855,0 L406.764844,0 C406.599023,0 406.464844,0.13432617 406.464844,0.3 L406.464844,1.17685548 L405.264258,1.17685548 L405.264258,0.3 C405.264258,0.13432617 405.130078,0 404.964258,0 L403.163672,0 C402.997852,0 402.863672,0.13432617 402.863672,0.3 L402.863672,1.17685548 L401.663086,1.17685548 L401.663086,0.3 C401.663086,0.13432617 401.528906,0 401.363086,0 L399.3,0 C399.13418,0 399,0.13432617 399,0.3 L399,3.7416504 C399,4.35966798 399.4875,4.86254883 400.086914,4.86254883 L400.388965,4.86254883 L400.388965,21.0625488 L399.312012,21.0625488 C399.146191,21.0625488 399.012012,21.196875 399.012012,21.3625488 L399.012012,23.7 C399.012012,23.8656738 399.146191,24 399.312012,24 L422.711719,24 C422.877539,24 423.011719,23.8656738 423.011719,23.7 L423.011719,21.3625488 C423.011719,21.196875 422.877539,21.0625488 422.711719,21.0625488 L421.634473,21.0625488 L421.634473,4.86254883 L421.942676,4.86254883 C422.538574,4.86254883 423.023437,4.35966798 423.023437,3.7416504 L423.023437,0.3 C423.023437,0.13432617 422.889258,0 422.723437,0 Z M408.055078,13.3713867 L410.048437,13.3713867 C410.214258,13.3713867 410.348437,13.2370606 410.348437,13.0713867 L410.348437,12.1114746 L411.675293,12.1114746 L411.675293,13.0713867 C411.675293,13.2370606 411.809473,13.3713867 411.975293,13.3713867 L413.968652,13.3713867 C414.134473,13.3713867 414.268652,13.2370606 414.268652,13.0713867 L414.268652,12.1114746 L415.691601,12.1114746 L415.691601,21.0625489 L414.016406,21.0625489 L414.016406,18.3268067 C414.016406,16.6715333 412.668457,15.3249024 411.011719,15.3249024 C409.35498,15.3249024 408.007031,16.6715332 408.007031,18.3268067 L408.007031,21.0625489 L406.331836,21.0625489 L406.331836,12.1114746 L407.755078,12.1114746 L407.755078,13.0713867 C407.755078,13.2370606 407.889258,13.3713867 408.055078,13.3713867 Z M408.607031,21.0625488 L408.607031,18.3268067 C408.607031,17.1078735 409.521551,16.1003906 410.700879,15.9473145 L410.700879,21.0625488 L408.607031,21.0625488 Z M411.300879,15.9440003 C412.490771,16.0873535 413.416406,17.1003662 413.416406,18.3268067 L413.416406,21.0625488 L411.300879,21.0625488 L411.300879,15.9440003 Z M399.6,3.7416504 L399.6,0.6 L401.063086,0.6 L401.063086,1.47685548 C401.063086,1.64252931 401.197266,1.77685548 401.363086,1.77685548 L403.163672,1.77685548 C403.329492,1.77685548 403.463672,1.64252931 403.463672,1.47685548 L403.463672,0.6 L404.664258,0.6 L404.664258,1.47685548 C404.664258,1.64252931 404.798437,1.77685548 404.964258,1.77685548 L406.764844,1.77685548 C406.930664,1.77685548 407.064844,1.64252931 407.064844,1.47685548 L407.064844,0.6 L408.501855,0.6 L408.501855,3.7416504 C408.501855,4.02890625 408.283301,4.26254883 408.014941,4.26254883 L400.086914,4.26254883 C399.818555,4.26254883 399.6,4.02890625 399.6,3.7416504 Z M400.988965,18.1782715 L402.32666,18.1782715 C402.49248,18.1782715 402.62666,18.0439453 402.62666,17.8782715 C402.62666,17.7125977 402.49248,17.5782715 402.32666,17.5782715 L400.988965,17.5782715 L400.988965,12.6338379 L402.32666,12.6338379 C402.49248,12.6338379 402.62666,12.4995117 402.62666,12.3338379 C402.62666,12.1681641 402.49248,12.0338379 402.32666,12.0338379 L400.988965,12.0338379 L400.988965,4.86254883 L406.95791,4.86254883 L406.95791,11.5114746 L406.031836,11.5114746 C405.866016,11.5114746 405.731836,11.6458008 405.731836,11.8114746 L405.731836,14.8060547 L404.393848,14.8060547 C404.228027,14.8060547 404.093848,14.9403809 404.093848,15.1060547 C404.093848,15.2717285 404.228027,15.4060547 404.393848,15.4060547 L405.731836,15.4060547 L405.731836,21.0625488 L400.988965,21.0625488 L400.988965,18.1782715 Z M422.411719,23.4 L399.612012,23.4 L399.612012,21.6625488 L422.411719,21.6625488 L422.411719,23.4 Z M421.034473,12.0338379 L419.696484,12.0338379 C419.530664,12.0338379 419.396484,12.1681641 419.396484,12.3338379 C419.396484,12.4995117 419.530664,12.6338379 419.696484,12.6338379 L421.034473,12.6338379 L421.034473,17.5782715 L419.696484,17.5782715 C419.530664,17.5782715 419.396484,17.7125977 419.396484,17.8782715 C419.396484,18.0439453 419.530664,18.1782715 419.696484,18.1782715 L421.034473,18.1782715 L421.034473,21.0625488 L416.291601,21.0625488 L416.291601,15.4060547 L417.62959,15.4060547 C417.79541,15.4060547 417.92959,15.2717285 417.92959,15.1060547 C417.92959,14.9403808 417.79541,14.8060547 417.62959,14.8060547 L416.291601,14.8060547 L416.291601,11.8114746 C416.291601,11.6458008 416.157422,11.5114746 415.991601,11.5114746 L415.065527,11.5114746 L415.065527,4.86254883 L421.034473,4.86254883 L421.034473,12.0338379 L421.034473,12.0338379 Z M403.973437,5.92060545 C404.910937,5.92060545 405.673535,6.68261718 405.673535,7.61923827 L405.673535,7.61923827 L405.673535,9.8100586 C405.673535,9.9757324 405.539355,10.1100586 405.373535,10.1100586 L405.373535,10.1100586 L402.57334,10.1100586 C402.407519,10.1100586 402.27334,9.9757324 402.27334,9.8100586 L402.27334,9.8100586 L402.27334,7.61923827 C402.27334,6.68261718 403.035937,5.92060545 403.973437,5.92060545 Z M418.137012,5.92060545 C419.074219,5.92060545 419.836816,6.68261718 419.836816,7.61923827 L419.836816,7.61923827 L419.836816,9.8100586 C419.836816,9.9757324 419.702637,10.1100586 419.536816,10.1100586 L419.536816,10.1100586 L416.736914,10.1100586 C416.571094,10.1100586 416.436914,9.9757324 416.436914,9.8100586 L416.436914,9.8100586 L416.436914,7.61923827 C416.436914,6.68261718 417.199512,5.92060545 418.137012,5.92060545 Z M403.973437,6.52060545 C403.366699,6.52060545 402.87334,7.01337891 402.87334,7.61923827 L402.87334,7.61923827 L402.87334,9.5100586 L405.073535,9.5100586 L405.073535,7.61923827 C405.073535,7.01337888 404.580176,6.52060545 403.973437,6.52060545 Z M418.137012,6.52060545 C417.530273,6.52060545 417.036914,7.01337891 417.036914,7.61923827 L417.036914,7.61923827 L417.036914,9.5100586 L419.236816,9.5100586 L419.236816,7.61923827 C419.236816,7.01337888 418.743457,6.52060545 418.137012,6.52060545 Z M415.043262,0.6 L415.043262,1.47685548 C415.043262,1.64252931 415.177441,1.77685548 415.343262,1.77685548 L417.129785,1.77685548 C417.295605,1.77685548 417.429785,1.64252931 417.429785,1.47685548 L417.429785,0.6 L418.616016,0.6 L418.616016,1.47685548 C418.616016,1.64252931 418.750195,1.77685548 418.916016,1.77685548 L420.702539,1.77685548 C420.868359,1.77685548 421.002539,1.64252931 421.002539,1.47685548 L421.002539,0.6 L422.423437,0.6 L422.423437,3.7416504 C422.423437,4.02890625 422.207812,4.26254883 421.942676,4.26254883 L414.077344,4.26254883 C413.812207,4.26254883 413.596582,4.02890625 413.596582,3.7416504 L413.596582,0.6 L415.043262,0.6 Z" id="Shape" stroke="#FFFFFF" stroke-width="0.3"></path>
                    <g id="beer" transform="translate(53.000000, 588.000000)">
                        <path d="M14.0548287,10.0655994 C14.0122287,9.52019943 13.9666287,9.00839946 13.9240287,8.55719949 C13.8934287,8.22719951 14.1364287,7.93499953 14.4658287,7.90379953 C14.7928287,7.87079953 15.0880286,8.11619952 15.1192286,8.4455995 C15.1612286,8.90159947 15.2068286,9.41879944 15.2512286,9.97019941 C15.2770286,10.3007994 15.0304286,10.5893994 14.7004287,10.6157994 C14.6842287,10.6169994 14.6680287,10.6176016 14.6524287,10.6176016 C14.3422287,10.6181994 14.0800287,10.3799994 14.0548287,10.0655994 Z M13.5160287,21.8009987 C13.5790287,21.8225987 13.6444287,21.8327987 13.7074287,21.8327987 C13.9576287,21.8327987 14.1916287,21.6749987 14.2756287,21.4241987 C14.8078287,19.8485988 15.1774286,18.0119989 15.3754286,15.965999 C15.4702286,14.9873991 15.4714286,13.6163992 15.3796286,11.8907993 C15.3610286,11.5595993 15.0766286,11.3069993 14.7478287,11.3237993 C14.4172287,11.3417993 14.1628287,11.6243993 14.1808287,11.9555993 C14.2696287,13.6211992 14.2702287,14.9315991 14.1814287,15.8501991 C13.9924287,17.8055989 13.6414287,19.5521988 13.1392288,21.0407987 C13.0336288,21.3545987 13.2022287,21.6947987 13.5160287,21.8009987 Z M23.6656281,14.3387991 C23.4454281,16.624199 22.1110282,19.5911988 19.9864283,20.8415988 C19.1746284,21.3197987 18.4324284,21.5291987 17.8354285,21.6971987 C17.2708285,21.8567987 16.8610285,21.9761987 16.5892285,22.2377987 C16.2256286,23.2091986 15.8326286,23.9177986 15.4534286,24.5033985 C15.1222286,25.0163985 14.4616287,25.1993985 13.9534287,25.1993985 L6.20682917,25.1993985 C5.86422919,25.1993985 5.02362924,25.1351985 4.63362926,24.5375985 C4.28862928,24.0053986 3.40002933,22.1003987 3.39042933,22.0043987 C2.89122936,20.6285988 2.43102939,18.7397989 2.17182941,16.061999 C2.15922941,15.9311991 2.15082941,15.7901991 2.14122941,15.6515991 C2.01222942,15.6905991 1.87602942,15.7175991 1.72962943,15.7175991 C1.61742944,15.7175991 1.50042945,15.7049991 1.37922945,15.6761991 C0.875829484,15.5579991 0.465429508,15.2501991 0.223029522,14.8109991 C-0.0265704627,14.3585991 -0.0685704601,13.8077992 0.106629529,13.2983992 C0.43482951,12.3461993 0.6010295,11.4149993 0.6010295,10.5323994 C0.6010295,10.3157994 0.533229504,9.88979941 0.461829508,9.43859944 C0.27162952,8.24339951 0.0106295351,6.60659961 0.392829512,5.46359967 C1.09602947,3.3617998 2.93502936,3.00779982 3.9238293,2.81819983 C4.10442929,2.78339983 4.35102928,2.73599984 4.41882927,2.70299984 C4.43502927,2.68619984 4.56282926,2.52299985 4.66602926,2.40299986 C5.33202922,1.6265999 6.71682914,1.59872116e-13 9.23622899,1.59872116e-13 C9.24582898,1.59872116e-13 9.25422898,1.59872116e-13 9.26382898,1.59872116e-13 C12.1636288,1.59872116e-13 13.5874287,1.6019999 14.0566287,2.27339986 C14.6524287,2.23199987 15.2770286,2.32739986 15.8392286,2.59199985 C17.2816285,3.26879981 17.8486285,4.73459972 17.3728285,6.51839961 C17.3734285,6.52199961 17.3752285,6.52439961 17.3758285,6.52799961 C17.3878285,6.62459961 17.4988285,7.54919955 17.6146285,8.84459947 C18.1558285,8.60039949 18.8302284,8.4101995 19.6222284,8.4101995 C19.7500284,8.4101995 19.8802284,8.4137995 20.0104283,8.4263995 C20.9806283,8.49959949 21.8470282,8.95139947 22.5028282,9.73079942 C23.4178281,10.8209994 23.8414281,12.5009993 23.6656281,14.3387991 Z M17.8102285,16.252199 C17.7298285,17.083199 17.6326285,17.8283989 17.5234285,18.5063989 C17.6032285,18.5999989 17.7076285,18.6281989 17.9710285,18.6281989 C18.1900285,18.6281989 18.4060284,18.5669989 18.6304284,18.4421989 C19.8136284,17.7809989 20.7712283,15.6503991 20.9242283,14.0741992 C21.0268283,12.9989992 20.8234283,12.0143993 20.3938283,11.5061993 C20.2180283,11.2955993 20.0272283,11.1911993 19.7908284,11.1719993 C19.7362284,11.1677993 19.6786284,11.1659993 19.6252284,11.1659993 C19.0486284,11.1659993 18.7726284,11.5037993 18.5602284,11.8685993 L18.5050284,11.9741993 C18.4144284,12.1583993 18.2194284,12.5453993 17.8684285,12.7649992 C17.9104285,14.0159992 17.9068285,15.2519991 17.8102285,16.252199 Z M2.09082941,14.2823991 C2.06142941,10.9349993 2.58042938,6.7349996 2.60622938,6.52559961 C2.64342938,6.22499963 2.89902936,5.99999964 3.20142934,5.99999964 L3.37842933,5.99999964 C3.62982932,5.99999964 4.43442927,6.6701996 4.70322926,6.87959959 C5.21562922,7.27799957 5.79642919,7.72919954 6.48642915,7.72919954 C7.3210291,7.72919954 8.03982906,7.26359957 8.67402902,6.85199959 C8.936229,6.6827996 9.91662894,5.99999964 10.3036289,5.99999964 L16.2616286,5.99999964 C16.4950286,4.89539971 16.1740286,4.07399976 15.3298286,3.67799978 C15.1042286,3.57179979 14.8600287,3.50699979 14.6128287,3.47759979 C14.2144287,3.4295998 13.7908287,3.46619979 13.4200287,3.62639978 C13.2634287,3.69419978 13.1134288,3.78599977 12.9958288,3.91139977 C12.9346288,3.97619976 12.8872288,4.05119976 12.8206288,4.11059975 C12.7360288,4.18619975 12.6304288,4.23839975 12.5182288,4.25819975 C12.3604288,4.28579974 12.1894288,4.24679975 12.0598288,4.15439975 C12.0070288,4.11659975 11.0026289,3.4025998 10.0168289,4.11839975 C9.74862895,4.31339974 9.37362898,4.25459975 9.17922899,3.98579976 C8.984229,3.71819978 9.043029,3.3425998 9.31182898,3.14819981 C10.4098289,2.34959986 11.5834288,2.56859985 12.3178288,2.91959983 C12.4612288,2.80019983 12.6226288,2.69939984 12.7960288,2.61179984 C12.2734288,2.04119988 11.1802289,1.19999993 9.25782898,1.19999993 C9.25062898,1.19999993 9.24342898,1.19999993 9.23622899,1.19999993 C7.2688291,1.19999993 6.20922917,2.44739985 5.5750292,3.18539981 C5.39322921,3.3977998 5.26182922,3.55799979 5.12142923,3.66599978 C4.88442924,3.84899977 4.55982926,3.91499977 4.14942929,3.99419976 C3.24642934,4.16759975 2.01042942,4.40699974 1.52982944,5.84399965 C1.24122946,6.7073996 1.47522945,8.17739951 1.64562944,9.25019945 C1.73262943,9.79259942 1.80042943,10.2215994 1.80042943,10.5329994 C1.80042943,11.5493993 1.61202944,12.6119992 1.24002946,13.6901992 C1.17522947,13.8785992 1.18662947,14.0765992 1.27302946,14.2325992 C1.35042946,14.3729991 1.48242945,14.4695991 1.65282944,14.5091991 C1.84182943,14.5571991 2.00322942,14.3957991 2.09082941,14.2823991 Z M3.36582934,15.9299991 C3.62022932,18.5603989 4.06962929,20.3567988 4.54902926,21.6497987 C4.85802925,21.9557987 5.7130292,22.1999996 6.39702915,22.1999996 L13.6204287,22.1999996 C14.2606287,22.1999996 15.1618286,21.8693987 15.5506286,21.5393987 C15.9622286,20.3501988 16.3714286,18.6653989 16.6162285,16.136999 C16.8754285,13.4399992 16.4152286,8.76539948 16.2442286,7.19999957 L10.5226289,7.19999957 C10.3030289,7.19999957 9.58122896,7.69379954 9.32562898,7.85939953 C8.62902902,8.3111995 7.67502908,8.92919947 6.48582915,8.92919947 C5.38482921,8.92919947 4.56522926,8.29199951 3.9670293,7.82699953 C3.8812293,7.76099954 3.78222931,7.68479954 3.68982932,7.61699955 C3.49662933,9.43379944 3.12642935,13.4519992 3.36582934,15.9299991 Z M14.4460287,23.8349986 C14.5426287,23.6855986 14.6644287,23.4785986 14.8012287,23.2361986 C14.3818287,23.3639986 13.9648287,23.3999986 13.6198287,23.3999986 L6.39642915,23.3999986 C6.05622917,23.3999986 5.6782292,23.3849986 5.30442922,23.2943986 C5.42022921,23.4995986 5.53302921,23.7197986 5.6392292,23.8841986 C5.6734292,23.9159986 5.89242918,23.9999986 6.20682917,23.9999986 L13.9540287,23.9999986 C14.2180287,23.9999986 14.4118287,23.8877986 14.4460287,23.8349986 Z M21.5848282,10.5029994 C21.1420283,9.97619941 20.5618283,9.67139942 19.9084283,9.62159943 C19.8052284,9.61199943 19.7128284,9.60959943 19.6222284,9.60959943 C18.8212284,9.60959943 18.1780285,9.86939941 17.7214285,10.1405994 C17.7400285,10.3871994 17.7574285,10.6403994 17.7742285,10.8971994 C18.3046284,10.2107994 18.9868284,9.90899941 19.8808284,9.97499941 C20.4406283,10.0187994 20.9338283,10.2809994 21.3124283,10.7333994 C21.9598282,11.5001993 22.2544282,12.7607992 22.1182282,14.1887992 C21.9328282,16.101599 20.7970283,18.6059989 19.2148284,19.4897988 C18.8122284,19.7141988 18.3940284,19.8275988 17.9710285,19.8275988 C17.8186285,19.8275988 17.5666285,19.8257988 17.2954285,19.7411988 C17.2264285,20.0681988 17.1550285,20.3789988 17.0800285,20.6681988 C17.2216285,20.6243988 17.3644285,20.5829988 17.5102285,20.5415988 C18.0682285,20.3843988 18.7000284,20.2055988 19.3774284,19.8071988 C21.0736283,18.8087989 22.2826282,16.184399 22.4716282,14.2235992 C22.6168282,12.7043992 22.2934282,11.3477993 21.5848282,10.5029994 Z" id="Shape"></path>
                    </g>
                    <g id="bridge" transform="translate(128.000000, 501.000000)">
                        <path d="M25.4441108,6.68368853 L25.4441108,5.84630681 C25.4441108,5.31594775 25.0141698,4.88600679 24.4838108,4.88600679 L23.7847123,4.88600679 L23.7847123,4.88600679 L23.7847123,2.81175863 C24.3378451,2.62738101 24.7526948,2.12034257 24.7526948,1.47502092 C24.7526948,0.691416054 24.1073731,0.0460944036 23.3237682,0.0460944036 C22.5401634,0.0460944036 21.8948417,0.691416054 21.8948417,1.47502092 C21.8948417,2.07424816 22.3096914,2.62738101 22.8628242,2.81175863 L22.8628242,4.88600679 L22.1637257,4.88600679 C21.6333666,4.88600679 21.2034257,5.31594775 21.2034257,5.84630681 L21.2034257,6.68368853 L21.2034257,6.68368853 L10.1868632,6.68368853 L10.1868632,5.84630681 C10.1868632,5.31594775 9.75692224,4.88600679 9.22656321,4.88600679 L8.52746468,4.88600679 L8.52746468,4.88600679 L8.52746468,2.81175863 C9.08059753,2.62738101 9.49544713,2.12034257 9.49544713,1.47502092 C9.49544713,0.691416054 8.85012552,0.0460944036 8.06652064,0.0460944036 C7.28291578,0.0460944036 6.63759413,0.691416054 6.63759413,1.47502092 C6.63759413,2.07424816 7.05244376,2.62738101 7.6055766,2.81175863 L7.6055766,4.88600679 L6.9525725,4.88600679 C6.42221344,4.88600679 5.99227247,5.31594775 5.99227247,5.84630681 L5.99227247,6.68368853 L5.99227247,6.68368853 L0.96030002,6.68368853 C0.429940965,6.68368853 0,7.1136295 0,7.64398856 L0,8.48137027 L0,8.48137027 L0,9.40325833 L0,10.1868632 C0,10.4414356 0.206371675,10.6478072 0.460944036,10.6478072 L0.460944036,10.6478072 L0.460944036,10.6478072 C2.90394743,10.6478072 5.11647881,12.1689226 5.99227247,14.4275484 L5.99227247,14.7963036 L5.99227247,17.3775902 L5.57742284,17.3775902 C5.32285048,17.3775902 5.11647881,17.5839619 5.11647881,17.8385343 C5.11647881,18.0931066 5.32285048,18.2994783 5.57742284,18.2994783 L5.99227247,18.2994783 L5.99227247,18.2994783 L10.2329576,18.2994783 L13.5517547,18.2994783 C13.8063271,18.2994783 14.0126987,18.0931066 14.0126987,17.8385343 C14.0126987,17.5839619 13.8063271,17.3775902 13.5517547,17.3775902 L10.2329576,17.3775902 L10.2329576,17.3775902 L10.2329576,14.381454 C11.1548457,12.1689226 13.3212827,10.6478072 15.7181917,10.6478072 C18.1151007,10.6478072 20.327632,12.1228282 21.2034257,14.381454 L21.2034257,17.3391782 C21.2034257,17.8695373 21.6333666,18.2994783 22.1637257,18.2994783 L24.4838108,18.2994783 C25.0141698,18.2994783 25.4441108,17.8695373 25.4441108,17.3391782 L25.4441108,14.7963036 L25.4441108,14.7963036 L25.4441108,14.2431707 C26.3659989,12.0767338 28.5324359,10.6939016 30.8832504,10.6939016 C31.1378228,10.6939016 31.3441945,10.48753 31.3441945,10.2329576 L31.3441945,9.44935273 L31.3441945,9.44935273 L31.3441945,8.52746468 L31.3441945,7.69008296 C31.3441945,7.1597239 30.9142536,6.72978294 30.3838944,6.72978294 L25.4441108,6.72978294 L25.4441108,6.72978294 L25.4441108,6.68368853 Z M23.3237682,1.01407688 C23.6003347,1.01407688 23.8308067,1.2445489 23.8308067,1.52111532 C23.8308067,1.79768175 23.6003347,2.02815376 23.3237682,2.02815376 C23.0472018,2.02815376 22.8167298,1.79768175 22.8167298,1.52111532 C22.8167298,1.2445489 23.0472018,1.01407688 23.3237682,1.01407688 Z M8.11261504,1.01407688 C8.38918146,1.01407688 8.61965348,1.2445489 8.61965348,1.52111532 C8.61965348,1.79768175 8.38918146,2.02815376 8.11261504,2.02815376 C7.83604862,2.02815376 7.6055766,1.79768175 7.6055766,1.52111532 C7.6055766,1.2445489 7.83604862,1.01407688 8.11261504,1.01407688 Z M22.1253137,5.80789486 L24.5222227,5.80789486 L24.5222227,6.68368853 L22.1253137,6.68368853 L22.1253137,5.80789486 Z M6.91416054,5.80789486 L9.31106953,5.80789486 L9.31106953,6.68368853 L6.91416054,6.68368853 L6.91416054,5.80789486 Z M0.921888073,9.77201362 L0.921888073,9.44935273 L5.99227247,9.44935273 L5.99227247,12.5837722 C4.79381798,10.9704681 2.95004184,9.91029682 0.921888073,9.77201362 Z M6.91416054,17.3775902 L6.91416054,14.7963036 L9.31106953,14.7963036 L9.31106953,17.3775902 L6.91416054,17.3775902 Z M15.7181917,9.77201362 C12.9986218,9.77201362 10.509524,11.4314121 9.40325833,13.9205099 L6.91416054,13.9205099 L6.91416054,9.44935273 L24.5683171,9.44935273 L24.5683171,13.9205099 L22.0331249,13.9205099 C20.9268592,11.3853177 18.4377615,9.77201362 15.7181917,9.77201362 Z M24.5222227,17.3775902 L22.1253137,17.3775902 L22.1253137,14.7963036 L24.5222227,14.7963036 L24.5222227,15.4520604 L24.5222227,17.3775902 Z M30.4223064,9.77201362 C28.4402471,9.91029682 26.6425653,10.9243737 25.4441108,12.445489 L25.4441108,9.44935273 L30.4223064,9.44935273 L30.4223064,9.77201362 Z M25.4441108,8.52746468 L24.9370724,8.52746468 L6.40712211,8.52746468 L5.94617807,8.52746468 L0.921888073,8.52746468 L0.921888073,7.65167101 L5.99227247,7.65167101 L10.2329576,7.65167101 L21.2034257,7.65167101 L25.4441108,7.65167101 L30.4223064,7.65167101 L30.4223064,8.52746468 L25.4441108,8.52746468 Z" id="Shape"></path>
                        <rect id="Rectangle" x="11.2470345" y="19.1752719" width="8.75793672" height="1"></rect>
                        <rect id="Rectangle" x="8.43527587" y="20.9268592" width="5.57742284" height="1"></rect>
                        <rect id="Rectangle" x="13.0908106" y="22.6784466" width="3.45708027" height="1"></rect>
                    </g>
                    <g id="connectedness" transform="translate(0.000000, 453.000000)" stroke="#FFFFFF" stroke-width="0.2">
                        <path d="M16.4097007,22.0200009 C16.3563006,22.0200009 16.3020006,22.0110009 16.2492006,21.9906009 C16.0899006,21.9300009 15.9267006,21.9000009 15.7500006,21.9000009 C15.6456006,21.9000009 15.5538006,21.9153009 15.4776006,21.9444009 C15.3570006,21.9918009 15.2211006,21.9843009 15.1062006,21.9234009 C14.9913006,21.8637009 14.9082006,21.7563009 14.8776006,21.6303009 L13.9626006,17.8200007 C13.9050006,17.5785007 14.0529006,17.3361007 14.2938006,17.2770007 C14.9475006,17.1186007 15.5412006,16.7706007 16.0593006,16.2444006 C16.7208007,15.5823006 17.0805007,14.8143006 17.1618007,13.8954006 C17.1726007,13.7730005 17.2329007,13.6605005 17.3292007,13.5837005 C17.4249007,13.5069005 17.5482007,13.4724005 17.6697007,13.4889005 L21.6144009,14.0139006 C21.8382009,14.0439006 22.0050009,14.2341006 22.0050009,14.4597006 C22.0050009,14.9037006 22.1610009,15.2835006 22.4808009,15.6198006 C22.8150009,15.9456006 23.2026009,16.1097006 23.6550009,16.1097006 C24.153601,16.1097006 24.553801,15.9480006 24.877801,15.6159006 C25.228201,15.2730006 25.395301,14.8728006 25.395301,14.3847006 C25.395301,13.9428006 25.233001,13.5615005 24.899701,13.2204005 C24.855901,13.1859005 24.801001,13.1436005 24.736201,13.0950005 C24.537001,12.9468005 24.496501,12.6642005 24.644701,12.4656005 C24.794101,12.2664005 25.076101,12.2253005 25.275001,12.3741005 C25.359001,12.4374005 25.427701,12.4902005 25.481101,12.5322005 C25.494001,12.5427005 25.506901,12.5544005 25.519201,12.5661005 C26.034301,13.0818005 26.295601,13.6932005 26.295601,14.3844006 C26.295601,15.1170006 26.033101,15.7452006 25.515001,16.2519006 C25.026901,16.7523007 24.398701,17.0094007 23.6559009,17.0094007 C22.9668009,17.0094007 22.3557009,16.7541007 21.8412009,16.2519006 C21.4479009,15.8388006 21.2136008,15.3735006 21.1350008,14.8581006 L17.9955007,14.4393006 C17.8239007,15.3690006 17.3889007,16.1871006 16.6986007,16.8774007 C16.1775006,17.4081007 15.5862006,17.7924007 14.9373006,18.0228007 L15.6528006,21.0018008 C15.9633006,20.9877008 16.2813006,21.0387008 16.5714007,21.1494008 C16.8033007,21.2379008 16.9194007,21.4980009 16.8309007,21.7308009 C16.7616007,21.9102009 16.5909007,22.0200009 16.4097007,22.0200009 Z" id="Path"></path>
                        <path d="M20.1600008,5.36970021 C19.7628008,5.36970021 19.3938008,5.28930021 19.0647008,5.1306002 C18.7767007,4.9866002 18.5355007,4.81710019 18.3423007,4.62390018 C17.8341007,4.09140016 17.5800007,3.46740014 17.5800007,2.76000011 C17.5800007,2.06340008 17.8338007,1.44390006 18.3348007,0.919500037 C18.7302007,0.535800021 19.1613008,0.304200012 19.6284008,0.217500009 C19.8738008,0.171900007 20.1075008,0.334200013 20.1528008,0.578400023 C20.1978008,0.822600033 20.0364008,1.05720004 19.7922008,1.10220004 C19.4985008,1.15680005 19.2309008,1.30440005 18.9735008,1.55340006 C18.6450007,1.89750008 18.4800007,2.29590009 18.4800007,2.76000011 C18.4800007,3.23460013 18.6453007,3.63840014 18.9858008,3.99450016 C19.1037008,4.11180016 19.2666008,4.22490017 19.4616008,4.32270017 C19.6650008,4.42110018 19.8951008,4.46970018 20.1603008,4.46970018 C20.6487008,4.46970018 21.0390008,4.31340017 21.3534008,3.99090016 C21.7128009,3.63180014 21.8853009,3.23040013 21.8853009,2.75970011 C21.8853009,2.29980009 21.7125009,1.90350008 21.3570008,1.54800006 C21.3483008,1.53930006 21.3396008,1.52970006 21.3318008,1.52040006 C21.2613008,1.43730006 21.1752008,1.37040005 21.0687008,1.31700005 C20.8467008,1.20510005 20.7564008,0.935100037 20.8683008,0.712800028 C20.9796008,0.49080002 21.2502008,0.401100016 21.4725009,0.51240002 C21.6804009,0.616800025 21.8601009,0.75570003 22.0062009,0.924300037 C22.5234009,1.44690006 22.7856009,2.06460008 22.7856009,2.75940011 C22.7856009,3.47070014 22.5189009,4.09770016 21.9939009,4.62270018 C21.5115009,5.1174002 20.8935008,5.36970021 20.1600008,5.36970021 Z" id="Path"></path>
                        <path d="M12.8361005,9.88680039 C12.6714005,9.88680039 12.5130005,9.79470039 12.4344005,9.63660038 C12.3237005,9.41400037 12.4170005,9.14310036 12.6396005,9.03240036 C12.7626005,8.97090036 12.8955005,8.93970036 13.0350005,8.93970036 C13.2837005,8.93970036 13.4850005,9.14130036 13.4850005,9.38970037 C13.4850005,9.63810038 13.2837005,9.83970039 13.0350005,9.83970039 C12.9708005,9.87210039 12.9030005,9.88680039 12.8361005,9.88680039 Z" id="Path"></path>
                        <path d="M17.6100007,14.3850006 C17.3613007,14.3850006 17.1600007,14.1831006 17.1600007,13.9350006 L17.1600007,13.5900005 C17.1600007,12.5436005 16.8003007,11.6706005 16.0599006,10.9215004 C15.8535006,10.7064004 15.6426006,10.5342004 15.4284006,10.4058004 C15.3222006,10.3419004 15.2472006,10.2375004 15.2205006,10.1163004 C15.1941006,9.9957004 15.2181006,9.86910039 15.2883006,9.76650039 L18.8883008,4.47210018 C19.0278008,4.26630017 19.3071008,4.21320017 19.5132008,4.35330017 C19.7190008,4.49340018 19.7721008,4.77270019 19.6320008,4.9785002 L16.2813006,9.90630039 C16.4265007,10.0218004 16.5684007,10.1511004 16.7049007,10.2942004 C17.6025007,11.2023004 18.0600007,12.3126005 18.0600007,13.5900005 L18.0600007,13.9350006 C18.0600007,14.1831006 17.8581007,14.3850006 17.6100007,14.3850006 Z" id="Path"></path>
                        <path d="M15.6594006,10.4697004 C15.5757006,10.4697004 15.4908006,10.4469004 15.4155006,10.3977004 C15.1119006,10.2021004 14.7927006,10.0533004 14.4669006,9.9570004 C14.2290006,9.88620039 14.0925006,9.63600038 14.1630006,9.39750037 C14.2335006,9.15960036 14.4837006,9.02310036 14.7222006,9.09390036 C15.1305006,9.21450037 15.5280006,9.39930037 15.9036006,9.64170038 C16.1124006,9.77640039 16.1724006,10.0554004 16.0374006,10.2639004 C15.9516006,10.3971004 15.8067006,10.4697004 15.6594006,10.4697004 Z" id="Path"></path>
                        <path d="M10.5300004,10.9503004 C10.4226004,10.9503004 10.3152004,10.9122004 10.2297004,10.8354004 L7.76970031,8.62980034 C7.5855003,8.46450034 7.5693003,8.18220033 7.73310031,7.99650032 C8.04060032,7.6491003 8.19000033,7.26120029 8.19000033,6.81000027 C8.19000033,6.34830025 8.03070032,5.96040024 7.70280031,5.62470022 C7.4529003,5.37510021 7.16100028,5.22510021 6.81450027,5.16990021 C6.56910026,5.1306002 6.40170025,4.90050019 6.44040026,4.65480018 C6.47940026,4.40940018 6.71040027,4.24230017 6.95520028,4.28100017 C7.4886003,4.36530017 7.95540032,4.60440018 8.34300033,4.9917002 C8.83980035,5.50080022 9.08970036,6.11130024 9.08970036,6.81000027 C9.08970036,7.33080029 8.95140036,7.80840031 8.67780034,8.23560033 L10.5435004,9.90840039 C10.8111004,9.70560039 11.0922004,9.53220038 11.3823005,9.39030037 C11.6061005,9.28200037 11.8752005,9.37380037 11.9841005,9.59760038 C12.0930005,9.82080039 12.0003005,10.0905004 11.7771005,10.1994004 C11.4441005,10.3617004 11.1246004,10.5768004 10.8270004,10.8381004 C10.7421004,10.9134004 10.6362004,10.9503004 10.5300004,10.9503004 Z" id="Path"></path>
                        <path d="M6.51000026,9.41970037 C5.78670023,9.41970037 5.16360021,9.15720036 4.65810019,8.63970034 C4.15380017,8.11200032 3.90000015,7.4973003 3.90000015,6.81000027 C3.90000015,6.10920024 4.15620017,5.49750022 4.66200019,4.9917002 C4.79220019,4.84920019 4.9533002,4.72230019 5.1273002,4.62900018 C5.34660021,4.51110018 5.61930022,4.59330018 5.73660023,4.81230019 C5.85390023,5.0313002 5.77200023,5.30400021 5.55300022,5.42160022 C5.46840022,5.46660022 5.38740021,5.53170022 5.31210021,5.61390022 C4.9629002,5.96340024 4.80000019,6.35010025 4.80000019,6.81000027 C4.80000019,7.26420029 4.9653002,7.6584003 5.30550021,8.01480032 C5.63640022,8.35350033 6.03150024,8.52000034 6.51000026,8.52000034 C6.97860028,8.52000034 7.36860029,8.35350033 7.70310031,8.01150032 C7.73070031,7.98270032 7.76190031,7.95870032 7.79520031,7.93890032 C7.97010032,7.80420031 8.22240033,7.81470031 8.38470033,7.97340032 C8.56230034,8.14740032 8.56530034,8.43210034 8.39160033,8.60970034 C8.36130033,8.64090034 8.32980033,8.66700034 8.29740033,8.68950035 C7.80120031,9.17430036 7.20030029,9.41970037 6.51000026,9.41970037 Z" id="Path"></path>
                        <path d="M4.78470019,16.8150007 C4.59690018,16.8150007 4.42290018,16.6962007 4.35930017,16.5108007 C4.26090017,16.2237006 4.10940016,15.9807006 3.89700015,15.7686006 C3.71490015,15.5868006 3.52860014,15.4608006 3.34290013,15.3936006 C3.10890012,15.3102006 2.98740012,15.0519006 3.07110012,14.8182006 C3.15510013,14.5842006 3.41160014,14.4630006 3.64650014,14.5467006 C3.95850016,14.6583006 4.25670017,14.8551006 4.53300018,15.1323006 C4.73970019,15.3387006 4.9107002,15.5721006 5.0436002,15.8283006 L8.87460035,14.7942006 C8.76840035,14.4009006 8.71470035,13.9977006 8.71470035,13.5894005 C8.71470035,12.3120005 9.17220036,11.2017004 10.0746004,10.2882004 C10.0872004,10.2759004 10.1001004,10.2642004 10.1139004,10.2531004 C10.1682004,10.2096004 10.2168004,10.1718004 10.2603004,10.1394004 C10.4595004,9.9906004 10.7415004,10.0317004 10.8903004,10.2309004 C11.0391004,10.4295004 10.9983004,10.7121004 10.7991004,10.8603004 C10.7679004,10.8837004 10.7337004,10.9101004 10.6962004,10.9401004 C9.9684004,11.6847005 9.61470038,12.5520005 9.61470038,13.5897005 C9.61470038,14.0520006 9.70050039,14.5071006 9.86940039,14.9430006 C9.91560039,15.0618006 9.90900039,15.1950006 9.85140039,15.3087006 C9.79380039,15.4224006 9.69030039,15.5067006 9.56730038,15.5400006 L4.90230019,16.7997007 C4.86300019,16.8102007 4.82370019,16.8150007 4.78470019,16.8150007 Z" id="Path"></path>
                        <path d="M13.4100005,18.2850007 C12.1206005,18.2850007 10.9983004,17.8110007 10.0749004,16.8765007 C9.59250038,16.4058007 9.23760037,15.8577006 9.02550036,15.2550006 C8.94300036,15.0207006 9.06630036,14.7630006 9.30060037,14.6814006 C9.53550038,14.5995006 9.79200039,14.7225006 9.87450039,14.9562006 C10.0404004,15.4275006 10.3212004,15.8592006 10.7094004,16.2384006 C11.4738005,17.0118007 12.3552005,17.3850007 13.4097005,17.3850007 C13.7034005,17.3850007 14.0004006,17.3493007 14.2932006,17.2779007 C14.5356006,17.2197007 14.7783006,17.3679007 14.8371006,17.6091007 C14.8959006,17.8503007 14.7477006,18.0936007 14.5059006,18.1524007 C14.1438006,18.2406007 13.7751005,18.2850007 13.4100005,18.2850007 Z" id="Path"></path>
                        <path d="M2.67000011,19.5600008 C1.96680008,19.5600008 1.35390005,19.2975008 0.848100034,18.7791007 C0.356400014,18.2886007 0.105000004,17.6769007 0.105000004,16.9650007 C0.105000004,16.2570006 0.354900014,15.6417006 0.847800034,15.1362006 C1.13820005,14.8569006 1.45950006,14.6493006 1.81260007,14.5071006 C2.04330008,14.4144006 2.30550009,14.5269006 2.3976001,14.7579006 C2.4900001,14.9892006 2.37780009,15.2511006 2.14710009,15.3426006 C1.90140008,15.4410006 1.67760007,15.5865006 1.48140006,15.7743006 C1.16430005,16.1007006 1.00500004,16.4937007 1.00500004,16.9650007 C1.00500004,17.4354007 1.16280005,17.8221007 1.48800006,18.1467007 C1.82670007,18.4932007 2.21220009,18.6600007 2.67000011,18.6600007 C3.16620013,18.6600007 3.56490014,18.4944007 3.88920015,18.1539007 C4.23300017,17.8182007 4.39500017,17.4327007 4.39500017,16.9644007 C4.39500017,16.7874007 4.37790017,16.6164007 4.34460017,16.4571007 C4.29360017,16.2138006 4.44930018,15.9759006 4.69260019,15.9249006 C4.9353002,15.8727006 5.17410021,16.0302006 5.22540021,16.2723006 C5.27160021,16.4922007 5.29500021,16.7259007 5.29500021,16.9650007 C5.29500021,17.6790007 5.0373002,18.2919007 4.52910018,18.7872007 C4.04430016,19.2960008 3.41490014,19.5600008 2.67000011,19.5600008 Z" id="Path"></path>
                        <path d="M21.5550009,14.9100006 C21.3066008,14.9100006 21.1050008,14.7081006 21.1050008,14.4600006 L21.1050008,14.3850006 C21.1050008,13.7007005 21.3477008,13.0923005 21.8256009,12.5787005 C22.3191009,12.0966005 22.8954009,11.8422005 23.5560009,11.8059005 C23.8038009,11.7984005 24.016501,11.9829005 24.029401,12.2313005 C24.042901,12.4791005 23.8527009,12.6912005 23.6046009,12.7047005 C23.1627009,12.7287005 22.7919009,12.8934005 22.4697009,13.2075005 C22.1625009,13.5387005 22.0056009,13.9296006 22.0056009,14.3853006 L22.0056009,14.4603006 C22.0050009,14.7081006 21.8040009,14.9100006 21.5550009,14.9100006 Z" id="Path"></path>
                        <path d="M15.7500006,26.190001 C15.0507006,26.190001 14.4354006,25.935001 13.9200006,25.432801 C13.4112005,24.923101 13.1550005,24.306601 13.1550005,23.5959009 C13.1550005,22.8852009 13.4112005,22.2681009 13.9167006,21.7626009 C14.2818006,21.3858008 14.7324006,21.1545008 15.2517006,21.0807008 C15.4977006,21.0468008 15.7254006,21.2166008 15.7605006,21.4626009 C15.7956006,21.7086009 15.6246006,21.9366009 15.3786006,21.9717009 C15.0576006,22.0173009 14.7894006,22.1550009 14.5584006,22.3935009 C14.2185006,22.7340009 14.0556006,23.1255009 14.0556006,23.5959009 C14.0556006,24.065701 14.2185006,24.457201 14.5536006,24.792301 C14.8953006,25.125901 15.2880006,25.290001 15.7503006,25.290001 C16.2189006,25.290001 16.6038007,25.128301 16.9281007,24.796201 C17.2671007,24.456901 17.4306007,24.065101 17.4306007,23.5956009 C17.4306007,23.2488009 17.3451007,22.9446009 17.1693007,22.6647009 C17.0373007,22.4547009 17.1006007,22.1766009 17.3109007,22.0446009 C17.5209007,21.9123009 17.7990007,21.9756009 17.9310007,22.1859009 C18.1959007,22.6071009 18.3306007,23.0811009 18.3306007,23.5956009 C18.3306007,24.306301 18.0744007,24.922801 17.5689007,25.428001 C17.0763007,25.932301 16.4631007,26.190001 15.7500006,26.190001 Z" id="Path"></path>
                    </g>
                </g>
            </g>
            <g id="Group-6-Copy-5" transform="translate(130.000000, 500.000000)" fill-opacity="0.2" stroke="#FFFFFF">
                <circle id="Oval" cx="20" cy="20" r="20"></circle>
            </g>
        </g>
        <path id="Path-3" d="M1111.63995,713.291188 L1125.40345,713.649794 C1126.14401,713.669089 1126.59381,714.450788 1126.27499,715.09104 L1126.21819,715.190825 L1118.76451,726.766884 C1118.46552,727.231236 1117.84671,727.365288 1117.38236,727.066297 C1116.95117,726.788663 1116.80479,726.235265 1117.02546,725.785838 L1117.08294,725.684143 L1122.47,717.317 L1115.29598,721.110389 C1111.50916,723.213214 1108.21202,725.184862 1105.40537,727.024465 C1100.38104,730.317637 1093.78591,735.24723 1085.62674,741.809788 C1085.19639,742.15593 1084.56692,742.087661 1084.22077,741.657307 C1083.87463,741.226953 1083.9429,740.597479 1084.37326,740.251338 C1092.57861,733.651628 1099.22161,728.686251 1104.309,725.351751 C1106.96935,723.608038 1110.05484,721.752763 1113.58081,719.777254 L1114.34312,719.352088 L1121.533,715.55 L1111.58786,715.29051 C1111.0752,715.277152 1110.66273,714.880234 1110.61794,714.38156 L1110.61425,714.264803 C1110.62863,713.712706 1111.08786,713.276803 1111.63995,713.291188 Z" fill="#FFFFFF" fill-rule="nonzero"></path>
        <path id="Path-3-Copy" d="M1488.63995,755.291188 L1502.40345,755.649794 C1503.14401,755.669089 1503.59381,756.450788 1503.27499,757.09104 L1503.21819,757.190825 L1495.76451,768.766884 C1495.46552,769.231236 1494.84671,769.365288 1494.38236,769.066297 C1493.95117,768.788663 1493.80479,768.235265 1494.02546,767.785838 L1494.08294,767.684143 L1499.47,759.317 L1492.29598,763.110389 C1488.50916,765.213214 1485.21202,767.184862 1482.40537,769.024465 C1477.38104,772.317637 1470.78591,777.24723 1462.62674,783.809788 C1462.19639,784.15593 1461.56692,784.087661 1461.22077,783.657307 C1460.87463,783.226953 1460.9429,782.597479 1461.37326,782.251338 C1469.57861,775.651628 1476.22161,770.686251 1481.309,767.351751 C1483.96935,765.608038 1487.05484,763.752763 1490.58081,761.777254 L1491.34312,761.352088 L1498.533,757.55 L1488.58786,757.29051 C1488.0752,757.277152 1487.66273,756.880234 1487.61794,756.38156 L1487.61425,756.264803 C1487.62863,755.712706 1488.08786,755.276803 1488.63995,755.291188 Z" fill="#FFFFFF" fill-rule="nonzero"></path>
        <path id="Path-3-Copy-2" d="M838.639955,891.291188 L852.403454,891.649794 C853.144009,891.669089 853.593809,892.450788 853.274989,893.09104 L853.218192,893.190825 L845.76451,904.766884 C845.46552,905.231236 844.846708,905.365288 844.382356,905.066297 C843.951171,904.788663 843.804787,904.235265 844.025463,903.785838 L844.082942,903.684143 L849.47,895.317 L842.295985,899.110389 C838.509157,901.213214 835.212021,903.184862 832.405371,905.024465 C827.381036,908.317637 820.785912,913.24723 812.626744,919.809788 C812.19639,920.15593 811.566916,920.087661 811.220775,919.657307 C810.874634,919.226953 810.942902,918.597479 811.373256,918.251338 C819.578613,911.651628 826.221613,906.686251 831.309,903.351751 C833.969353,901.608038 837.054841,899.752763 840.580807,897.777254 L841.343119,897.352088 L848.533,893.55 L838.587863,893.29051 C838.075201,893.277152 837.662728,892.880234 837.617936,892.38156 L837.614248,892.264803 C837.628633,891.712706 838.087858,891.276803 838.639955,891.291188 Z" fill="#FFFFFF" fill-rule="nonzero"></path>
        <g id="legend" transform="translate(82.000000, 1015.000000)">
            <g id="bottom-navigation/icon" transform="translate(0.000000, 4.000000)" stroke="#FFFFFF">
                <circle id="Oval" cx="5" cy="5" r="4.5"></circle>
                <rect id="Rectangle" x="4" y="4" width="2" height="2"></rect>
            </g>
            <g id="companies" transform="translate(123.000000, 0.000000)">
                <g id="bottom-navigation/unternehmen" transform="translate(0.000000, 4.000000)" fill="#FF0000">
                    <circle id="Oval-Copy-8" cx="5" cy="5" r="5"></circle>
                </g>
                <text id="UNTERNEHMEN" font-family="OpenSans-Regular, Open Sans" font-size="12" font-weight="normal" letter-spacing="1.875" fill="#FFFFFF">
                    <tspan x="18" y="13">UNTERNEHMEN</tspan>
                </text>
            </g>
            <g id="companies-copy" transform="translate(268.000000, 0.000000)">
                <g id="bottom-navigation/unternehmen" transform="translate(0.000000, 4.000000)" fill="#FFC500">
                    <circle id="Oval-Copy-8" cx="5" cy="5" r="5"></circle>
                </g>
                <text id="sehenswrdigkeiten-&amp;" font-family="OpenSans-Regular, Open Sans" font-size="12" font-weight="normal" letter-spacing="1.875" fill="#FFFFFF">
                    <tspan x="18" y="13">SEHENSWRDIGKEITEN &amp; FAKTEN</tspan>
                </text>
            </g>
            <text id="HIGHLIGHTS" font-family="OpenSans-Regular, Open Sans" font-size="12" font-weight="normal" letter-spacing="1.875" fill="#FFFFFF">
                <tspan x="18" y="13">HIGHLIGHTS</tspan>
            </text>
        </g>
        <g id="back" transform="translate(82.000000, 62.000000)">
            <text id="Zurck-zur-Karte" font-family="OpenSans-Regular, Open Sans" font-size="13" font-weight="normal" fill="#FFFFFF">
                <tspan x="13" y="14">ZURCK ZUR KARTE</tspan>
            </text>
            <polyline id="Path-21" stroke="#FFFFFF" stroke-width="1.39999998" points="5 14 0 8.9879936 5 4"></polyline>
        </g>
    </g>
</svg>