<?xml version="1.0" encoding="UTF-8"?>
<svg width="1920px" height="1080px" viewBox="0 0 1920 1080" preserveAspectRatio="xMidYMid slice" version="1.1" xmlns="http://www.w3.org/2000/svg" xmlns:xlink="http://www.w3.org/1999/xlink">
    <!-- Generator: Sketch 63.1 (92452) - https://sketch.com -->
    <title>menu_aargau</title>
    <desc>Created with Sketch.</desc>
    <g id="menu_aargau" stroke="none" stroke-width="1" fill="none" fill-rule="evenodd">
        <g transform="translate(559.000000, 140.000000)">
            <g id="maps" stroke="#FFFFFF" stroke-width="2">
                <path d="M1004.05938,0 L1001.06294,3.11244232 L994.235535,5.41912089 L992.001788,14.2040794 L993.220518,14.2040794 L993.220518,17.2219957 L993.220518,19.3752748 L991.366159,20.8464428 L989.332674,27.2669784 L989.332674,29.8699595 L989.332674,31.1468865 L989.332674,32.3981162 L993.220518,36.4934278 L989.332674,39.9580229 L991.366159,41.9797925 L993.220518,45.5845888 L987.125355,44.8522169 L985.866567,45.5845888 L984.518595,44.8522169 L978.267359,52.3338981 L978.267359,54.0454111 L976.004111,53.4116713 L976.004111,55.2494032 L976.821133,56.7243502 L975.481852,57.7420372 L976.004111,58.8908559 L974.749858,58.8908559 L974.749858,61.7107521 L972.544429,61.1775339 L972.544429,59.7789229 L970.358272,57.7420372 L970.358272,61.1775339 L970.987099,62.5670754 L974.749858,67.9835284 L974.749858,69.8091674 L973.72877,70.5638354 L970.987099,71.4496351 L965.279662,71.9511095 L963.328938,74.1093013 L961.075893,75.1424822 L961.075893,77.6615693 L961.919368,81.5210708 L961.919368,83.5602238 L957.881497,87.9416064 L955.02759,86.6544761 L953.386745,86.6544761 L954.220394,83.5602238 L949.2578,80.9870969 L946.723975,82.1578338 L945.265277,84.196231 L941.81542,87.9416064 L941.81542,91.2644886 L941.81542,101.539613 L940.510151,107.750791 L937.435549,114.290366 L934.565014,115.378342 L932.757893,116.265654 L931.747008,118.991075 L928.571129,117.062269 L925.927335,117.062269 L922.726514,115.378342 L919.130032,115.378342 L916.610189,116.265654 L916.610189,118.991075 L913.57829,120.961828 L913.57829,123.457863 L914.23546,124.963798 L910.621216,128.630192 L910.621216,131.479942 L909.421381,135.151249 L909.421381,138.02254 L910.621216,139.672077 L912.353136,140.560144 L915.45608,138.870549 L916.610189,140.560144 L914.874868,142.409213 L911.763232,144.358803 L910.621216,147.073265 L914.23546,150.744194 L914.23546,154.387536 L916.610189,161.12173 L914.874868,165.629709 L914.874868,172.735757 L916.610189,176.835603 L917.200092,180.296041 L918.300917,181.029169 L920.453441,181.029169 L923.504612,180.296041 L926.469244,179.630558 L928.571129,179.630558 L930.54755,180.296041 L931.747008,181.029169 L931.747008,182.80228 L931.747008,187.119419 L931.177511,194.277995 L933.723807,200.93623 L929.507189,204.013855 L926.990748,203.51956 L924.910025,204.013855 L924.910025,206.039403 L923.504612,207.679493 L921.646852,209.208858 L921.074332,211.095339 L921.646852,213.207049 L923.504612,213.207049 L923.504612,212.003813 L925.927335,214.417843 L925.927335,217.377563 L927.550419,220.235627 L930.044564,223.042297 L930.044564,225.484292 L931.177511,226.296779 L936.533878,227.23624 L939.614526,227.23624 L939.614526,229.800676 L941.056973,231.842474 L944.021605,231.842474 L945.265277,234.225139 L947.240943,237.951241 L950.004154,245.71068 L947.240943,247.454692 L943.169061,248.663219 L943.169061,253.900547 L942.333522,253.900547 L943.169061,265.373617 L944.639096,266.115814 L946.723975,267.043561 L947.240943,268.812137 L945.871052,270.501354 L946.723975,272.740794 L947.240943,275.461302 L945.871052,276.91093 L945.871052,279.542632 L944.639096,281.290045 L941.056973,281.290045 L937.435549,280.391775 L935.270933,280.391775 L935.270933,281.986517 L932.757893,283.174259 L933.723807,285.87096 L937.435549,289.044571 L943.169061,290.176762 L947.240943,291.599181 L951.557326,291.599181 L955.88807,299.773554 L955.02759,301.285913 L955.88807,302.967572 L957.881497,302.967572 L957.881497,307.158115 L941.81542,327.929813 L941.81542,331.277259 L945.265277,334.585781 L947.240943,337.345969 L944.639096,339.280066 L944.021605,342.862566 L939.614526,345.016601 L938.642187,345.016601 L935.270933,339.280066 L929.507189,341.328666 L924.910025,343.564328 L923.504612,346.428816 L924.910025,347.769133 L922.726514,348.832266 L920.453441,345.016601 L919.130032,345.759554 L916.610189,345.759554 L916.610189,347.769133 L921.074332,351.818438 L924.910025,351.818438 L930.54755,352.786998 L933.723807,351.818438 L936.533878,350.804908 L939.614526,350.804908 L941.81542,351.818438 L942.333522,355.052136 L944.021605,356.587547 L944.021605,359.956911 L944.639096,361.043376 L945.871052,359.956911 L949.2578,360.474635 L950.004154,359.209423 L952.452574,359.956911 L954.220394,361.043376 L957.881497,357.817614 L961.075893,361.043376 L961.919368,363.421884 L963.977038,362.750354 L965.279662,364.002718 L963.977038,365.73048 L963.977038,367.131359 L961.919368,369.487949 L961.919368,372.975596 L961.919368,390.810627 L964.756648,393.604131 L964.756648,397.56107 L968.424175,402.561076 L970.358272,404.394651 L969.784619,408.9117 L970.358272,411.73084 L973.166075,411.73084 L974.749858,411.73084 L980.69575,413.166108 L979.840938,415.547639 L980.69575,418.054255 L980.69575,419.928266 L978.267359,421.171181 L976.821133,424.649759 L978.267359,427.791627 L978.943802,431.592175 L978.943802,436.021929 L978.943802,439.848553 L981.57248,443.74131 L980.69575,447.173784 L978.267359,452.516924 L976.821133,456.608079 L976.004111,459.874654 L976.004111,461.052193 L976.821133,463.304104 L978.943802,466.789861 L979.840938,469.153631 L980.69575,470.73628 L979.840938,471.37002 L984.518595,474.958944 L987.125355,478.592461 L990.226032,481.361341 L993.220518,481.361341 L993.220518,483.232328 L992.001788,485.646358 L993.220518,487.715743 L992.682387,489.644549 L989.332674,494.711444 L987.6718,501.448283 L988.212576,504.03388 L991.366159,504.03388 L991.366159,507.702646 L998.433172,507.702646 L1005.92875,503.159376 L1013.34435,501.448283 L1017.51276,504.955275 L1019.97799,504.955275 L1023.86546,501.448283 L1028.19623,502.107623 L1029.88309,498.467276 L1033.0869,498.467276 L1039.0337,494.711444 L1041.23311,489.644549 L1042.49577,487.715743 L1046.70557,487.715743 L1043.38835,496.956301 L1042.49577,499.55166 L1039.0337,504.955275 L1033.95719,514.351014 L1031.95994,519.775322 L1026.4648,520.630493 L1026.4648,526.354449 L1020.7492,527.327012 L1019.26767,530.185011 L1015.25326,535.636378 L1014.05586,540.338426 L1011.51104,543.652065 L1011.51104,548.175041 L1012.66467,548.175041 L1010.29812,557.324058 L999.484527,564.78263 L996.365082,570.259068 L988.212576,575.452173 L976.004111,576.802778 L973.72877,578.396126 L966.451603,582.877318 L956.670659,576.802778 L953.386745,579.041981 L957.881497,588.421008 L961.919368,605.401068 L972.544429,615.195543 L970.358272,634.285477 L976.004111,640.837544 L975.481852,646.274586 L973.166075,650.01959 L978.943802,661.656523 L985.866567,672.440672 L978.943802,680.449992 L978.943802,690.213029 L969.784619,700.911622 L965.279662,705.306063 L963.328938,713.863743 L963.328938,725.58862 L968.424175,732.10726 L971.955897,738.279693 L971.955897,751.446304 L972.544429,762.743396 L975.481852,773.307485 L976.821133,781.265073 L970.987099,790.882863 L969.784619,802.798751 L973.166075,812.387889 L974.749858,816.477509 L981.57248,818.3136 L985.866567,821.218555 L988.212576,831.247018 L992.001788,852.913607 L988.212576,862.022831 L990.226032,876.472795 L990.226032,886.630986 L987.6718,891.119341 L981.57248,895.448122 L978.267359,898.272694 L975.481852,897.004064 L967.528426,897.004064 L961.919368,894.084783 L958.946472,896.47958 L945.871052,891.879404 L940.510151,895.448122 L934.565014,894.084783 L934.565014,886.630986 L922.726514,882.273553 L916.610189,881.023626 L914.23546,864.983896 L909.421381,863.639657 L909.421381,858.33314 L898.503903,844.171681 L895.674556,842.682593 L897.297351,838.355006 L891.031005,828.804468 L889.751233,824.994997 L884.886427,821.796761 L886.035277,819.847655 L882.328077,813.378359 L883.901528,803.768926 L882.328077,801.056574 L884.886427,799.314396 L883.186431,797.57978 L881.770564,790.030477 L876.62561,785.643199 L870.627474,768.59708 L870.627474,762.743396 L867.454706,755.627848 L868.372353,752.964441 L867.454706,748.166092 L865.927813,747.139409 L865.927813,744.2834 L864.23896,738.912019 L862.556076,737.334588 L854.956633,735.657673 L854.347786,732.10726 L856.729452,729.621335 L856.729452,725.58862 L857.937595,722.56866 L852.841189,718.429298 L850.709827,709.577143 L850.709827,702.217658 L848.490919,694.798879 L848.490919,688.418722 L849.187312,683.97812 L843.803992,671.818295 L842.166075,670.126258 L835.764031,660.069144 L832.432087,659.253767 L828.573272,658.38427 L824.425553,646.929195 L821.490354,642.108163 L820.877528,634.285477 L820.877528,627.787927 L824.425553,623.547887 L828.573272,621.038483 L827.775404,618.442328 L817.497035,615.195543 L811.242229,604.305542 L807.309397,600.287153 L802.683355,599.371893 L800.844876,599.371893 L799.111454,599.371893 L796.728992,596.649194 L791.999486,598.653215 L788.864124,600.287153 L787.227003,598.653215 L786.341986,594.513455 L778.428172,595.604206 L775.092249,595.604206 L772.78062,595.604206 L770.839871,586.92794 L765.588667,586.92794 L762.133362,588.421008 L758.081547,588.421008 L756.884944,592.304893 L756.884944,596.649194 L751.288726,600.287153 L749.916632,600.287153 L749.916632,603.705052 L744.333547,604.305542 L744.333547,610.484342 L747.110366,616.123537 L736.239068,616.123537 L732.760683,614.113945 L726.591433,615.195543 L725.864398,620.128794 L714.101717,658.38427 L698.746839,668.094779 L695.250945,670.126258 L696.233058,673.614194 L691.684217,677.823992 L693.421221,681.507316 L694.658413,686.222496 L694.658413,688.418722 L693.421221,690.213029 L693.421221,691.940881 L691.684217,693.785727 L691.684217,699.250624 L691.079747,703.804241 L691.684217,709.577143 L693.421221,713.863743 L682.074386,713.863743 L675.517941,714.518353 L672.076164,718.429298 L664.941884,721.572766 L660.689593,721.572766 L659.774811,721.572766 L657.972244,721.572766 L656.199412,722.56866 L652.113802,721.572766 L649.288853,717.424161 L647.330171,714.518353 L648.324771,712.858857 L650.011524,710.73545 L648.324771,710.73545 L645.831618,709.577143 L642.325082,709.577143 L638.987574,708.282206 L637.546929,708.282206 L632.037888,703.804241 L629.745846,699.250624 L629.745846,696.163099 L632.037888,693.785727 L628.397148,690.213029 L624.977865,690.213029 L623.680815,688.418722 L623.680815,684.86448 L632.037888,683.97812 L637.546929,682.776679 L640.389093,682.776679 L644.227423,680.449992 L645.831618,684.86448 L651.416173,684.86448 L652.113802,681.003457 L653.746168,677.823992 L654.249729,675.817212 L657.972244,673.614194 L656.86574,672.440672 L650.011524,657.421791 L646.615717,658.38427 L643.51023,659.253767 L642.325082,662.336887 L636.5715,663.653892 L632.618529,664.815564 L631.302698,664.815564 L629.745846,665.756953 L627.615005,663.653892 L625.642237,666.641608 L622.614612,664.815564 L611.388769,669.459122 L601.35003,669.459122 L592.718678,671.818295 L589.673446,673.614194 L588.651457,675.817212 L578.680407,682.776679 L575.85585,678.740759 L571.960395,677.823992 L564.051714,675.817212 L558.012115,675.144624 L555.714204,671.818295 L552.491728,664.815564 L552.491728,657.421791 L541.510426,642.108163 L536.555811,640.320289 L528.328247,636.815319 L522.146619,639.065887 L513.717944,642.935519 L513.717944,645.077706 L511.403208,647.62955 L507.920148,650.01959 L505.899645,651.890839 L503.786803,654.261135 L499.927736,654.261135 L498.424488,653.439474 L495.871861,653.439474 L491.155919,650.01959 L485.873423,650.01959 L484.193713,651.890839 L482.568781,652.544255 L482.568781,657.421791 L488.857617,665.756953 L492.471359,670.126258 L484.193713,673.001263 L476.964272,674.642628 L473.381048,674.642628 L463.510945,677.041095 L445.152302,679.912213 L442.67206,682.776679 L438.480808,680.449992 L432.444731,680.449992 L430.607732,677.041095 L425.642944,674.642628 L425.642944,673.001263 L425.642944,669.459122 L426.187979,663.653892 L425.642944,658.38427 L425.642944,653.439474 L428.021065,650.01959 L425.642944,648.239535 L427.467422,645.077706 L420.084213,636.815319 L410.250497,623.547887 L410.250497,620.128794 L409.076305,616.123537 L409.076305,614.113945 L407.674004,611.0496 L395.357307,597.853335 L385.601063,607.876815 L378.426399,609.270117 L365.057194,612.964852 L361.648867,608.719996 L346.785413,607.876815 L339.244523,607.132625 L330.81663,612.964852 L331.487262,616.123537 L332.071033,623.009069 L335.239513,626.060952 L333.819605,630.968224 L339.244523,635.973312 L339.244523,641.59269 L344.19053,645.077706 L344.19053,648.805698 L346.785413,654.261135 L348.043337,655.325773 L339.244523,662.336887 L324.453454,677.823992 L317.114849,682.776679 L307.997152,693.785727 L291.069374,688.418722 L275.647974,675.817212 L266.640223,675.817212 L236.13313,682.776679 L214.123966,689.189155 L195.124037,698.446925 L183.546053,696.163099 L178.047185,692.798594 L172.003674,693.785727 L162.600744,681.003457 L161.77204,678.740759 L160.180757,677.041095 L158.195859,677.041095 L158.195859,675.144624 L158.195859,671.818295 L154.921737,668.094779 L154.921737,664.815564 L158.195859,663.027474 L156.200006,659.253767 L156.200006,656.518746 L158.195859,654.261135 L159.381007,651.890839 L160.704664,650.01959 L159.381007,644.414899 L160.704664,642.935519 L159.381007,639.065887 L156.200006,639.676264 L156.943022,638.286092 L158.195859,636.815319 L157.621479,635.010013 L156.200006,635.010013 L158.195859,633.126844 L154.921737,631.731586 L154.921737,629.556141 L166.018853,625.130128 L180.218326,607.876815 L182.009547,597.853335 L185.894829,586.92794 L189.593477,581.162273 L194.622041,573.572084 L199.337592,561.95106 L202.779959,547.061392 L205.552087,544.345999 L212.022861,540.338426 L217.474777,539.032592 L221.593645,535.636378 L225.635043,533.348264 L232.392616,533.348264 L238.710015,534.850338 L244.382996,534.850338 L247.326107,533.348264 L247.326107,526.354449 L254.866214,520.630493 L258.161074,515.811282 L256.264994,510.026399 L256.264994,500.749848 L259.492947,493.045408 L264.420565,485.646358 L268.239723,478.083746 L273.692421,473.399888 L289.886582,487.715743 L313.788316,490.718727 L328.983798,490.718727 L330.81663,498.467276 L328.983798,507.702646 C328.772771,511.071356 328.772771,513.555038 328.983798,515.153692 C329.194825,516.752346 329.805769,518.896937 330.81663,521.587463 L342.995081,517.687106 L369.118837,510.026399 L369.728892,507.702646 L373.447415,503.159376 L381.75863,499.55166 L383.051021,500.749848 L389.387056,490.718727 L404.136134,484.867282 L404.136134,485.646358 L409.076305,483.232328 L411.9123,481.361341 L414.155688,475.991015 L409.076305,467.67889 L409.076305,464.086289 L419.455264,454.602693 L421.573185,445.39094 L418.502904,440.625959 L420.084213,438.562133 L426.187979,431.592175 L429.587555,426.831059 L435.134427,422.682498 L437.72921,422.682498 L441.117247,414.959518 L442.052333,410.1959 L445.152302,397.56107 L445.152302,392.243801 L447.407369,387.627924 L447.407369,380.796389 L442.67206,369.487949 L441.117247,359.209423 L433.074693,357.817614 L431.252253,361.043376 L430.607732,362.750354 L425.642944,359.956911 L422.801934,361.043376 L417.359617,359.956911 L417.359617,356.587547 L418.502904,347.769133 L414.81393,340.548159 L413.390618,336.71008 L407.674004,330.673164 L400.324876,327.929813 L392.380057,325.829084 L389.387056,322.905634 L388.403784,320.715888 L385.601063,321.863721 L381.001288,319.727161 L377.511878,321.863721 L370.73353,314.795346 L367.429136,309.641692 L365.057194,309.641692 L359.594783,307.158115 L352.433218,302.967572 L352.433218,302.309657 L360.836715,299.773554 L370.73353,294.730327 L378.426399,290.782238 L381.001288,290.782238 L381.001288,294.730327 L381.001288,299.773554 L381.75863,301.285913 L383.051021,301.285913 L384.850277,295.996807 L384.850277,287.286918 L383.051021,283.174259 L383.051021,281.290045 L384.15385,280.391775 L381.75863,276.91093 L381.75863,269.72031 L381.75863,263.941144 L379.622526,257.823311 L377.511878,251.293168 L376.540425,247.454692 L373.447415,245.71068 L369.728892,241.780479 L368.529692,239.397079 L369.118837,237.951241 L369.728892,236.214969 L368.529692,225.484292 L365.057194,223.042297 L359.594783,219.437069 L358.493773,218.578354 L355.570778,221.474074 L354.772978,224.13159 L352.433218,224.13159 L350.691695,225.484292 L348.043337,229.133412 L348.043337,231.842474 L346.785413,234.225139 L344.19053,234.225139 L342.100908,234.225139 L342.100908,232.428713 L344.19053,227.23624 L342.995081,225.484292 L340.253012,224.13159 L331.487262,216.533622 L327.04362,217.377563 L323.672403,218.578354 L319.515204,219.437069 L319.515204,217.377563 L320.392102,211.095339 L323.672403,200.93623 L325.256639,192.443688 L327.04362,185.6167 L326.41629,182.80228 L325.256639,178.382401 L327.04362,175.434858 L328.983798,172.735757 L327.04362,170.843074 L324.453454,171.949085 L322.063619,174.377034 L310.592096,178.382401 L307.997152,178.382401 L303.489326,178.382401 L301.585761,175.434858 L298.552565,175.434858 L295.566833,176.835603 L291.069374,176.835603 L287.403672,176.835603 L283.121349,175.434858 L276.75175,171.949085 L270.620585,170.843074 L269.241352,168.261971 L269.241352,157.734012 L268.239723,154.387536 L263.472026,149.975128 L261.31495,145.888243 L259.492947,138.02254 L256.264994,135.151249 L254.866214,135.151249 L254.866214,130.305703 L252.313082,124.963798 L246.542639,124.239311 L238.710015,120.961828 L234.326097,113.48632 L232.392616,110.866335 L228.708654,110.866335 L228.708654,108.566869 L228.708654,102.594846 L228.708654,96.9746117 L228.708654,92.8553398 L225.635043,92.8553398 L221.593645,95.3474518 L220.18533,98.3946074 L218.690637,99.2305231 L214.123966,99.2305231 L212.022861,99.2305231 L212.022861,96.9746117 L212.022861,90.1309359 L210.529024,83.5602238 L207.527098,79.1880903 L203.722202,71.4496351 L201.877827,70.5638354 L196.761263,67.9835284 L195.124037,66.5817893 L188.197734,70.5638354 L180.218326,69.8091674 L173.143993,69.8091674 L168.880097,69.8091674 L168.880097,71.9511095 L172.003674,74.1093013 L168.880097,76.5346025 L168.880097,84.196231 L168.880097,103.896463 L166.018853,108.566869 L162.600744,109.520606 L156.200006,116.265654 L154.921737,120.961828 L151.691616,120.961828 L146.925165,126.155161 L142.275977,130.305703 L137.156064,140.560144 L131.352117,144.358803 L128.027998,144.358803 L122.063793,144.358803 L119.275732,141.691913 L117.236477,141.691913 L118.377276,145.888243 L119.275732,149.095658 L115.894657,149.095658 L112.754808,147.073265 L107.211631,152.197536 L103.754056,152.197536 L104.770892,149.095658 L107.211631,147.073265 L110.964597,140.560144 L110.964597,132.376786 L108.918642,129.455269 L107.211631,128.630192 L105.572745,117.062269 L103.754056,110.866335 L107.211631,107.004483 L106.43323,101.539613 L104.770892,98.3946074 L98.831814,96.9746117 L94.5131955,95.3474518 L77.8574218,88.743327 L69.3687175,86.6544761 L64.1817965,86.6544761 L58.6777077,84.196231 L53.3657064,84.196231 L51.9021559,86.6544761 L45.285188,84.196231 L38.7854829,84.196231 L32.1886172,80.9870969 L28.3027539,77.6615693 L28.3027539,75.1424822 L26.5711744,70.5638354 L19.4438345,69.8091674 L19.4438345,68.7394234 L17.7904301,66.5817893 L14.2680813,63.8344913 L10.0527656,63.8344913 L7.7717265,62.5670754 L3.7071772,63.8344913 L0.957087169,58.8908559 L0,56.7243502" id="Aargau"></path>
                <polygon id="Baden" points="913.57829 120.961828 913.57829 123.457863 914.23546 124.963798 910.621216 128.630192 910.621216 131.479942 909.421381 135.151249 909.421381 138.02254 910.621216 139.672077 912.353136 140.560144 915.45608 138.870549 916.610189 140.560144 914.874868 142.409213 911.763232 144.358803 910.621216 147.073265 914.23546 150.744194 914.23546 154.387536 916.610189 161.12173 914.874868 165.629709 914.874868 172.735757 916.610189 176.835603 917.200092 180.296041 918.300917 181.029169 920.453441 181.029169 923.504612 180.296041 926.469244 179.630558 928.571129 179.630558 930.54755 180.296041 931.747008 181.029169 931.747008 182.80228 931.747008 187.119419 931.177511 194.277995 933.723807 200.93623 929.507189 204.013855 926.990748 203.51956 924.910025 204.013855 924.910025 206.039403 923.504612 207.679493 921.646852 209.208858 921.074332 211.095339 921.646852 213.207049 923.504612 213.207049 923.504612 212.003813 925.927335 214.417843 925.927335 217.377563 927.550419 220.235627 930.044564 223.042297 930.044564 225.484292 931.177511 226.296779 936.533878 227.23624 939.614526 227.23624 939.614526 229.800676 941.056973 231.842474 944.021605 231.842474 945.265277 234.225139 947.240943 237.951241 950.004154 245.71068 947.240943 247.454692 943.169061 248.663219 943.169061 253.900547 942.333522 253.900547 943.169061 265.373617 944.639096 266.115814 946.723975 267.043561 947.240943 268.812137 945.871052 270.501354 946.723975 272.740794 947.240943 275.461302 945.871052 276.91093 945.871052 279.542632 944.639096 281.290045 941.056973 281.290045 937.435549 280.391775 935.270933 280.391775 935.270933 281.986517 932.757893 283.174259 933.723807 285.87096 937.435549 289.044571 943.169061 290.176762 947.240943 291.599181 951.557326 291.599181 955.88807 299.773554 955.02759 301.285913 955.88807 302.967572 957.881497 302.967572 957.881497 307.158115 941.81542 327.929813 941.81542 331.277259 945.265277 334.585781 947.240943 337.345969 944.639096 339.280066 944.021605 342.862566 939.614526 345.016601 938.642187 345.016601 935.270933 339.280066 929.507189 341.328666 924.910025 343.564328 923.504612 346.428816 924.910025 347.769133 922.726514 348.832266 920.453441 345.016601 919.130032 345.759554 916.610189 345.759554 916.610189 347.769133 921.074332 351.818438 924.910025 351.818438 930.54755 352.786998 933.723807 351.818438 936.533878 350.804908 939.614526 350.804908 941.81542 351.818438 942.333522 355.052136 944.021605 356.587547 944.021605 359.956911 944.639096 361.043376 945.871052 359.956911 949.2578 360.474635 950.004154 359.209423 952.452574 359.956911 954.220394 361.043376 957.881497 357.817614 961.075893 361.043376 961.919368 363.421884 963.977038 362.750354 965.279662 364.002718 963.977038 365.73048 963.977038 367.131359 961.919368 369.487949 961.919368 372.975596 961.919368 390.810627 964.756648 393.604131 964.756648 397.56107 968.424175 402.561076 970.358272 404.394651 969.784619 408.9117 969.58656 411.202835 961.869352 407.906613 960.162502 401.78971 952.933846 396.862246 952.933846 394.254077 949.913861 394.254077 945.076906 398.751622 936.866981 396.862246 921.923182 396.862246 921.923182 390.995751 918.810424 387.456847 917.28761 387.456847 900.638469 401.78971 897.170464 396.862246 893.068141 395.331889 886.825279 399.510875 884.667393 395.331889 877.533016 396.862246 871.981795 390.995751 866.883118 390.995751 866.883118 396.862246 855.765589 401.78971 847.5 401.78971 838.327512 399.510875 835.266797 394.254077 838.327512 382.61235 837.282132 364.779049 826.423308 361.599919 824.363473 354.826825 811.155185 344.317215 804.456007 328.748904 791.876003 330.811002 785.487572 336.622437 781.76237 335.364361 776.178716 339.324132 778.117872 342.675984 776.178716 346.761376 773.034719 346.761376 765.866047 344.317215 763.619527 342.675984 762.820226 340.098883 757.885382 337.463184 750.088512 343.494398 733.644423 345.745683 726.39472 338.389864 718.385277 337.463184 716.682918 335.364361 716.682918 332.612793 709.188247 324.516425 712.11714 320.841339 715.88536 319.298152 735.853652 294.051755 737.629389 297.018467 737.629389 298.681315 738.331518 300.329013 755.845967 292.777666 759.129807 288.345643 754.714921 285.928938 754.045053 276.605239 754.714921 269.234402 762.820226 261.245489 767.248962 247.753678 760.426181 236.658239 750.088512 228.34495 746.009303 226.970297 726.39472 226.970297 724.358993 223.724961 731.885941 215.619953 732.759439 201.264599 728.616893 192.68407 720.376023 184.1625 722.155061 181.41063 731.885941 182.834062 742.903676 167.598087 738.331518 160.103182 735.853652 140.390845 733.644423 116.926889 733.644423 103.668693 723.510489 75.8737786 722.155061 61.5491852 728.616893 52.8968796 728.616893 48.6703812 731.885941 47.4200554 733.644423 50.6929481 741.767424 42.9590007 751.018937 42.1130602 755.845967 42.9590007 774.166306 42.1130602 776.178716 47.4200554 776.178716 49.7739491 778.117872 52.8968796 776.178716 59.0357164 785.487572 71.5748625 778.117872 85.606581 789.347735 101.951819 791.876003 101.951819 796.778553 103.668693 801.231918 109.029521 804.456007 110.462493 808.338459 116.926889 816.216601 121.471897 824.363473 121.471897 843.478317 127.415911 851.289809 126.122006 855.765589 128.72071 862.602982 126.122006 864.414705 121.471897 871.981795 120.482403 870.998301 126.122006 883.390049 124.402568 881 121.471897 884.667393 116.926889 889.467362 116.032243 904.063041 120.482403 905.045486 119.0411 906.704683 121.471897 912.066152 119.0411 913 120.482403"></polygon>
                <polyline id="Aarau" points="385.117605 288.629542 409.375811 285.461742 430.597352 284.406692 435.768621 273.850892 443.223514 273.850892 445.52502 266.905311 449.959145 261.081011 445.52502 259.326567 447.893419 253.432725 445.52502 249.441019 446.961557 244.414133 442.204891 234.145773 442.204891 227.413454 443.223514 219.013453 449.959145 219.013453 454.413139 214.232281 459.328758 214.232281 462.337605 211.386361 466.049156 211.386361 467.640672 215.404559 474.503465 211.386361 475.83867 215.404559 482.453762 214.232281 485.775216 209.852466 492.647943 211.386361 496.374065 211.386361 502.001661 214.232281 509.140635 212.977878 516.515389 212.977878 519.791807 215.404559 523.352785 216.459609 523.352785 219.013453 526.650626 219.013453 529.146849 224.536405 532.60805 229.472557 529.146849 231.373369 523.352785 232.439678 523.352785 240.75093 523.352785 249.241004 515.043088 250.876894 511.596458 249.241004 511.596458 256.156119 511.596458 262.725511 506.374192 262.725511 495.304444 264.7058 493.887776 266.905311 495.304444 270.450624 497.372157 270.450624 496.374065 275.00595 496.374065 279.279135 499.15243 280.758722 497.372157 282.844317 497.372157 286.592295 499.15243 288.629542 522.385389 292.873585 532.60805 296.299683 539.315201 300.919915 541.533919 303.613505 541.533919 308.225127 541.533919 310.652471 546.177332 312.025427 548.492084 320.789033 550.245865 332.99728 555.809218 336.798243 563.317095 339.87332 565.000671 341.14693 566.057709 343.884894 566.057709 351.882214 566.057709 362.332707 566.057709 366.870814 563.317095 368.33583 557.785533 370.43136 553.496453 373.022955 553.496453 375.769529 556.711938 377.569009 556.711938 380.784494 556.711938 381.703772 556.711938 383.858247 565.000671 397.205657 573.262913 403.503505 577.689752 409.407945 578.642807 413.509593 577.689752 420.981043 573.262913 427.579577 573.262913 433.129684 576.446608 434.905983 582.415691 434.905983 587.8283 434.905983 591.393482 437.23663 595.774623 442.002569 594.254635 447.479823 594.254635 455.414223 598.029105 465.309044 598.029105 470.278972 599.602077 478.380274 605.893964 486.516015 580.707209 489.998409 576.446608 489.998409 570.455406 487.506822 565.000671 487.506822 561.828898 487.506822 557.785533 487.506822 557.785533 480.395002 555.809218 478.380274 548.492084 480.395002 545.138177 483.370734 540.486155 484.796012 533.878349 486.516015 526.650626 489.998409 526.650626 492.558876 522.385389 496.1075 522.385389 498.048051 523.352785 502.677555 523.352785 509.861565 523.352785 516.548186 525.70022 519.865666 525.70022 525.467432 523.352785 531.322199 522.385389 534.809229 515.043088 540.097063 507.823313 536.87628 466.049156 521.147224 463.616514 519.865666 463.616514 516.548186 463.616514 511.382215 461.091149 496.1075 463.616514 496.1075 463.616514 493.700025 459.328758 475.164126 463.616514 470.278972 467.640672 466.401183 463.616514 464.277837 453.193837 462.604857 453.193837 459.876165 449.959145 459.876165 442.204891 455.414223 419.455264 454.602693 419.176891 455.437464 421.573185 445.39094 418.502904 440.625959 420.084213 438.562133 426.187979 431.592175 429.587555 426.831059 435.134427 422.682498 437.72921 422.682498 441.117247 414.959518 442.052333 410.1959 445.152302 397.56107 445.152302 392.243801 447.407369 387.627924 447.407369 380.796389 442.67206 369.487949 441.117247 359.209423 433.074693 357.817614 431.252253 361.043376 430.607732 362.750354 425.642944 359.956911 422.801934 361.043376 417.359617 359.956911 417.359617 356.587547 418.502904 347.769133 414.81393 340.548159 413.390618 336.71008 407.674004 330.673164 400.324876 327.929813 392.380057 325.829084 389.387056 322.905634 388.403784 320.715888 385.601063 321.863721 381.001288 319.727161 377.511878 321.863721 370.73353 314.795346 367.429136 309.641692 365.057194 309.641692 359.594783 307.158115 352.433218 302.967572 352.433218 302.309657 360.836715 299.773554 370.73353 294.730327 378.426399 290.782238 381.001288 290.782238 381.001288 294.730327 381.001288 299.773554 381.75863 301.285913 383.051021 301.285913 384.850277 295.996807 384.850277 287.286918"></polyline>
            </g>
            <g id="cities" transform="translate(461.000000, 183.000000)" fill="#FFFFFF">
                <circle id="Oval-Copy-6" cx="375" cy="12" r="5"></circle>
                <circle id="Oval-Copy-7" cx="332" cy="266" r="5"></circle>
                <circle id="Oval-Copy-8" cx="5" cy="181" r="5"></circle>
                <circle id="Oval-Copy-9" cx="704" cy="230" r="5"></circle>
                <text id="BADEN" font-family="OpenSans-ExtraBold, Open Sans" font-size="18.1999997" font-weight="600">
                    <tspan x="388" y="19">BADEN</tspan>
                </text>
                <text id="AARAU" font-family="OpenSans-ExtraBold, Open Sans" font-size="18.1999997" font-weight="600">
                    <tspan x="18" y="188">AARAU</tspan>
                </text>
                <text id="WOHLEN" font-family="OpenSans-ExtraBold, Open Sans" font-size="18.1999997" font-weight="600">
                    <tspan x="345" y="273">WOHLEN</tspan>
                </text>
                <text id="ZÜRICH" font-family="OpenSans-ExtraBold, Open Sans" font-size="18.1999997" font-weight="600">
                    <tspan x="717" y="237">ZÜRICH</tspan>
                </text>
            </g>
        </g>
    </g>
</svg>
