<?xml version="1.0" encoding="UTF-8"?>
<svg width="1920px" height="1080px" viewBox="0 0 1920 1080" version="1.1" xmlns="http://www.w3.org/2000/svg" xmlns:xlink="http://www.w3.org/1999/xlink">
    <!-- Generator: Sketch 61.2 (89653) - https://sketch.com -->
    <title>Aarau</title>
    <desc>Created with Sketch.</desc>
    <defs>
        <linearGradient x1="15.372026%" y1="54.9928429%" x2="99.0853832%" y2="42.576282%" id="linearGradient-1">
            <stop stop-color="#FFFFFF" stop-opacity="0.3" offset="0%"></stop>
            <stop stop-color="#FFFFFF" offset="52.1358719%"></stop>
            <stop stop-color="#FFFFFF" offset="100%"></stop>
        </linearGradient>
    </defs>
    <g id="Aarau" stroke="none" stroke-width="1" fill="none" fill-rule="evenodd">
        <g id="Drone-Copy" transform="translate(899.000000, 624.000000) rotate(63.000000) translate(-899.000000, -624.000000) translate(869.000000, 594.000000)" fill="#FFFFFF" fill-rule="nonzero">
            <g id="Group">
                <path d="M16,35 C15.4477153,35 15,35.4477153 15,36 L15,42.1 C12.7797824,42.5072651 11.1268265,44.3813039 11,46.635 C11,49 13.29,51 16,51 C16.5522847,51 17,50.5522847 17,50 L17,43.919 C19.0777726,43.7270474 20.6799546,42.0051967 20.722,39.919 C20.7042662,37.2854423 18.630635,35.1253001 16,35 Z M15,48.854 C13.9261124,48.6230346 13.1204966,47.7308151 13,46.639 C13.1061945,45.4888851 13.8960414,44.5165836 15,44.177 L15,48.854 Z M17,41.876 L17,37.23 C18.0188234,37.7470931 18.6777771,38.7753211 18.722,39.917 C18.6989248,40.9011523 17.9730675,41.7269098 17,41.876 Z" id="rotor"></path>
                <path d="M36,43 C36,43.5522847 36.4477153,44 37,44 L43.081,44 C43.2750905,46.0768812 44.9955505,47.6781993 47.081,47.723 C49.7149259,47.7052384 51.8752138,45.6310282 52,43 C52,42.4477153 51.5522847,42 51,42 L44.9,42 C44.4924005,39.7799715 42.6185502,38.1271819 40.365,38 C38,38 36,40.29 36,43 Z M49.77,44 C49.2531756,45.019211 48.2248956,45.6785807 47.083,45.723 C46.0986818,45.6994398 45.2730321,44.9732558 45.124,44 L49.77,44 Z M40.361,40 C41.5113293,40.1056686 42.4838873,40.8957238 42.823,42 L38.146,42 C38.376683,40.9259492 39.2690513,40.120199 40.361,40 L40.361,40 Z" id="rotor"></path>
                <path d="M25.856,22.837 C29.4018379,17.7281902 28.4621635,10.7577552 23.6900677,6.77027409 C18.9179719,2.78279299 11.8914992,3.09685267 7.49417595,7.49417595 C3.09685267,11.8914992 2.78279299,18.9179719 6.77027409,23.6900677 C10.7577552,28.4621635 17.7281902,29.4018379 22.837,25.856 C23.6132798,27.1135078 24.0956061,28.5300638 24.248,30 C24.1471745,31.1988874 23.7934017,32.3627932 23.21,33.415 C18.2788158,29.7051763 11.3378997,30.3400521 7.16157813,34.8829265 C2.9852566,39.425801 2.93518024,46.3955124 7.04579421,50.9979272 C11.1564082,55.6003421 18.0874852,56.3348862 23.0714667,52.6963014 C28.0554481,49.0577167 29.4673534,42.2323297 26.336,36.915 C27.4584986,36.2661126 28.7087576,35.8692646 30,35.752 C31.2899221,35.8676826 32.5391896,36.2628346 33.661,36.91 C30.5109725,42.2383903 31.9168442,49.0873024 36.9112138,52.7438977 C41.9055833,56.400493 48.8592372,55.6719534 52.9872624,51.0595978 C57.1152877,46.4472422 57.071081,39.4556675 52.8850616,34.8958804 C48.6990423,30.3360933 41.7367319,29.6955422 36.789,33.415 C36.2062835,32.362572 35.8528751,31.1987441 35.752,30 C35.9043939,28.5300638 36.3867202,27.1135078 37.163,25.856 C42.2718098,29.4018379 49.2422448,28.4621635 53.2297259,23.6900677 C57.217207,18.9179719 56.9031473,11.8914992 52.5058241,7.49417595 C48.1085008,3.09685267 41.0820281,2.78279299 36.3099323,6.77027409 C31.5378365,10.7577552 30.5981621,17.7281902 34.144,22.837 C32.8865513,23.6134052 31.4699659,24.0957416 30,24.248 C28.5300341,24.0957416 27.1134487,23.6134052 25.856,22.837 Z M5.99998997,16 C5.99385414,11.6410204 8.81195126,7.78024174 12.9653827,6.45746127 C17.1188142,5.1346808 21.650577,6.65468382 24.1663672,10.2143945 C26.6821575,13.7741052 26.6023055,18.5533214 23.969,22.027 C23.4435875,21.9904232 22.9280934,22.1832496 22.5556715,22.5556715 C22.1832496,22.9280934 21.9904232,23.4435875 22.027,23.969 C19.0032398,26.26336 14.9403844,26.6457229 11.5416555,24.9557952 C8.14292663,23.2658676 5.99564905,19.795681 5.99998997,16 Z M16,53.0000023 C11.6080929,53.0029831 7.72827181,50.1400087 6.43593524,45.9425424 C5.14359866,41.7450762 6.74125887,37.1956678 10.3742935,34.7278924 C14.0073282,32.2601169 18.8253107,32.4516352 22.251,35.2 C21.9248359,35.7799831 21.9297399,36.4892162 22.263893,37.0646336 C22.5980461,37.6400509 23.2116084,37.9958275 23.877,38 C24.1155268,37.9935571 24.3506734,37.9419809 24.57,37.848 C25.5096931,39.4018802 26.0043656,41.1840849 26.0000286,43 C25.9939376,48.5203344 21.5203344,52.9939376 16,53.0000023 L16,53.0000023 Z M36.369,35.958 L36.369,35.958 L36.009,36.172 L36.009,36.172 L36.369,35.958 Z M54.000012,43 C53.999218,47.2261963 51.3417398,50.995624 47.3614673,52.416246 C43.3811949,53.836868 38.9375804,52.6019323 36.2610642,49.331306 C33.5845479,46.0606797 33.2530647,41.4605825 35.433,37.84 C36.1224423,38.1298551 36.9188535,37.9715228 37.445,37.44 C38.0422848,36.8477928 38.1654892,35.9274554 37.745,35.199 C40.7437764,32.7866619 44.8614753,32.3110427 48.3312302,33.9762262 C51.8009851,35.6414097 54.005952,39.1513639 54.000012,43 Z M33.752,30 C33.9415589,32.0652342 34.6389281,34.0515342 35.782,35.782 C34.0515342,34.6389281 32.0652342,33.9415589 30,33.752 C27.9347658,33.9415589 25.9484658,34.6389281 24.218,35.782 C25.3610719,34.0515342 26.0584411,32.0652342 26.248,30 C26.0587676,27.9346946 25.3613712,25.9483172 24.218,24.218 C25.9484101,25.3611841 27.9347391,26.0585635 30,26.248 C32.0652342,26.0584411 34.0515342,25.3610719 35.782,24.218 C34.6389281,25.9484658 33.9415589,27.9347658 33.752,30 Z M44,5.99998997 C48.3589796,5.99385414 52.2197583,8.81195126 53.5425387,12.9653827 C54.8653192,17.1188142 53.3453162,21.650577 49.7856055,24.1663672 C46.2258948,26.6821575 41.4466786,26.6023055 37.973,23.969 C38.0095743,23.4433225 37.8166417,22.9275757 37.444033,22.554967 C37.0714243,22.1823583 36.5556775,21.9894257 36.03,22.026 C33.7369501,19.0019104 33.3554696,14.9396705 35.0454161,11.5415422 C36.7353627,8.1434138 40.2048476,5.99632388 44,5.99998997 L44,5.99998997 Z" id="Shape"></path>
                <path d="M39,19.639 C39,22 41.29,24 44,24 C44.5522847,24 45,23.5522847 45,23 L45,16.919 C47.0777726,16.7270474 48.6799546,15.0051967 48.722,12.919 C48.7042662,10.2854423 46.630635,8.12530005 44,8 C43.4477153,8 43,8.44771525 43,9 L43,15.1 C40.7783995,15.5076266 39.1250399,17.3837765 39,19.639 L39,19.639 Z M43,21.854 C41.9261124,21.6230346 41.1204966,20.7308151 41,19.639 C41.1061945,18.4888851 41.8960414,17.5165836 43,17.177 L43,21.854 Z M45,10.23 C46.0188234,10.7470931 46.6777771,11.7753211 46.722,12.917 C46.6989248,13.9011523 45.9730675,14.7269098 45,14.876 L45,10.23 Z" id="rotor"></path>
                <path d="M24,16 C24,15.4477153 23.5522847,15 23,15 L16.9,15 C16.4924005,12.7799715 14.6185502,11.1271819 12.365,11 C10,11 8,13.29 8,16 C8,16.5522847 8.44771525,17 9,17 L15.081,17 C15.2750905,19.0768812 16.9955505,20.6781993 19.081,20.723 C21.7149259,20.7052384 23.8752138,18.6310282 24,16 Z M10.146,15 C10.376683,13.9259492 11.2690513,13.120199 12.361,13 C13.5113293,13.1056686 14.4838873,13.8957238 14.823,15 L10.146,15 Z M19.083,18.723 C18.0986818,18.6994398 17.2730321,17.9732558 17.124,17 L21.77,17 C21.2531756,18.019211 20.2248956,18.6785807 19.083,18.723 L19.083,18.723 Z" id="rotor"></path>
                <path d="M8.961,59.274 C9.11262485,58.7432834 8.80558692,58.190078 8.275,58.038 C2.16,56.291 1.99999183,52.185 1.99999183,51.992 C1.99779086,51.4397153 1.54828475,50.9937909 0.996,50.9959918 C0.44371525,50.9982091 -0.002209139,51.4477153 -8.17282766e-06,52 C-8.17282766e-06,52.235 0.088,57.779 7.725,59.962 C7.81458792,59.9867476 7.90705801,59.9995253 7.99999183,60 C8.44648781,59.9996742 8.83866243,59.7034007 8.961,59.274 Z" id="Path"></path>
                <path d="M59,51 C58.4477153,51 58,51.4477153 58,52 C58,52.042 57.928,56.267 51.725,58.038 C51.2445787,58.1743568 50.9384036,58.6442451 51.0077231,59.1388082 C51.0770426,59.6333713 51.5006035,60.0009775 52,60 C52.092942,59.9995253 52.1854121,59.9867476 52.275,59.962 C59.912,57.779 60,52.235 60,52 C60,51.4477153 59.5522847,51 59,51 Z" id="Path"></path>
                <path d="M52.275,0.038 C51.7437021,-0.113878306 51.1898783,0.193702071 51.038,0.725 C50.8861217,1.25629793 51.1937021,1.81012169 51.725,1.962 C57.84,3.709 58,7.815 58,8.008 C58.0022092,8.56028473 58.4517153,9.00620908 59.004,9.00400811 C59.5562847,9.0017908 60.0022091,8.55228473 60.0000082,8 C60.0000082,7.765 59.912,2.221 52.275,0.038 Z" id="Path"></path>
                <path d="M1,9 C1.55228475,9 2,8.55228475 2,8 C2,7.958 2.072,3.733 8.275,1.962 C8.80629792,1.81012169 9.11387829,1.25629793 8.96199999,0.725000004 C8.81012168,0.19370208 8.25629793,-0.113878297 7.725,0.038 C0.088,2.221 0,7.765 0,8 C0,8.55228475 0.44771525,9 1,9 Z" id="Path"></path>
            </g>
        </g>
        <path d="M198.527539,787.026509 C286.806936,781.585089 350.105023,777.683482 388.421801,775.321689 C445.896968,771.778999 465.744978,770.555595 503.372135,768.236309 C540.999292,765.917023 558.824961,763.184145 578.626449,763.597737 C598.427937,764.01133 619.891108,763.869927 637.21629,781.508365 C654.541471,799.146804 689.320267,910.136379 695.124993,926.261132 C700.929718,942.385884 698.568212,953.747545 713.771471,955.914389 C728.97473,958.081233 726.652421,949.543729 758.352481,935.272626 C790.052541,921.001523 842.650404,921.582043 853.254265,900.894918 C863.858125,880.207793 838.237461,869.745964 846.204556,854.895167 C854.17165,840.044369 893.154296,842.617106 896.281175,829.35603 C899.408055,816.094955 881.2459,780.863698 874.864781,760.236309 C868.483663,739.608921 853.254265,724.854026 863.543831,711.760441 C868.911879,704.929542 898.994164,673.64529 938.52276,653 C974.76326,634.072041 1020.16486,625.373239 1035.84422,625.373239 C1068.62553,625.373239 1069.71377,644.274203 1099.49019,644.274203 C1129.2666,644.274203 1133.62642,635.471736 1157.98972,625.373239 C1160.11395,624.492754 1201.27142,607.348399 1199.27371,597.54812 C1196.40866,583.492802 1176.78584,573.14525 1166.41361,551 C1161.64797,540.825119 1190.18187,531.23822 1187.49466,519.52276 C1180.14843,487.495261 1164.60864,499.765083 1188,476.989893 C1202.68657,462.690191 1230.48409,429.17703 1287.47803,406.5 C1311.10672,397.098499 1343.5625,393.931832 1384.84536,397" id="flying-path" stroke="url(#linearGradient-1)" stroke-width="11" opacity="0.5" stroke-linecap="round"></path>
        <g id="companies-(example)" transform="translate(504.000000, 236.000000)">
            <g id="Group-12-Copy-8" transform="translate(0.000000, 466.000000)" fill="#FFFFFF">
                <circle id="Oval" opacity="0.400000006" cx="22.8214799" cy="22.8214799" r="22.8214799"></circle>
                <circle id="Oval-Copy-6" cx="22.8214799" cy="22.8214799" r="8.29871995"></circle>
            </g>
            <g id="Group-12-Copy-9" transform="translate(79.000000, 560.000000)" fill="#FFFFFF">
                <circle id="Oval" opacity="0.400000006" cx="22.8214799" cy="22.8214799" r="22.8214799"></circle>
                <circle id="Oval-Copy-6" cx="22.8214799" cy="22.8214799" r="8.29871995"></circle>
            </g>
            <g id="Group-12-Copy-10" transform="translate(484.000000, 512.000000)">
                <circle id="Oval" fill="#FFFFFF" opacity="0.400000006" cx="22.8214799" cy="22.8214799" r="22.8214799"></circle>
                <circle id="Oval-Copy-6" fill="#FFFFFF" cx="22.8214799" cy="22.8214799" r="8.29871995"></circle>
                <circle id="Oval-Copy-11" fill="#FF0000" cx="22.87276" cy="22.87276" r="3.85"></circle>
            </g>
            <g id="Group-12-Copy-11" transform="translate(558.000000, 70.000000)">
                <circle id="Oval" fill="#FFFFFF" opacity="0.400000006" cx="22.8214799" cy="22.8214799" r="22.8214799"></circle>
                <circle id="Oval-Copy-6" fill="#FFFFFF" cx="22.8214799" cy="22.8214799" r="8.29871995"></circle>
                <circle id="Oval-Copy-7" fill="#FF0000" cx="22.85" cy="22.85" r="3.85"></circle>
            </g>
            <g id="Group-12-Copy-13" transform="translate(564.000000, 0.000000)">
                <circle id="Oval" fill="#FFFFFF" opacity="0.400000006" cx="22.8214799" cy="22.8214799" r="22.8214799"></circle>
                <circle id="Oval-Copy-6" fill="#FFFFFF" cx="22.8214799" cy="22.8214799" r="8.29871995"></circle>
                <circle id="Oval-Copy-8" fill="#FF0000" cx="22.85" cy="22.85" r="3.85"></circle>
            </g>
            <g id="Group-12-Copy-14" transform="translate(981.000000, 198.000000)">
                <circle id="Oval" fill="#FFFFFF" opacity="0.400000006" cx="22.8214799" cy="22.8214799" r="22.8214799"></circle>
                <circle id="Oval-Copy-6" fill="#FFFFFF" cx="22.8214799" cy="22.8214799" r="8.29871995"></circle>
                <circle id="Oval-Copy-10" fill="#FF0000" cx="22.85" cy="22.85" r="3.85"></circle>
            </g>
        </g>
        <g id="local-highlights" transform="translate(1092.000000, 157.000000)" fill="#FFFFFF">
            <g id="Group-6-Copy-4" transform="translate(0.000000, 429.000000)">
                <circle id="Oval" stroke="#FFFFFF" fill-opacity="0.2" cx="20" cy="20" r="20"></circle>
                <g id="church" transform="translate(6.000000, 4.000000)" fill-rule="nonzero">
                    <path d="M27.0448199,24.7709879 L25.6322879,24.7709879 L25.6322879,16.53696 L26.3902319,16.53696 C26.5969439,16.53696 26.7347519,16.399152 26.7347519,16.19244 C26.7347519,15.985728 26.5969439,15.84792 26.3902319,15.84792 L25.5289319,15.84792 C25.4944799,15.84792 25.4944799,15.813468 25.4600279,15.813468 L18.4662719,12.023748 C18.3973679,11.989296 18.3284639,11.989296 18.2595599,11.989296 L18.2595599,5.89129201 L19.4309279,5.89129201 C19.5687359,5.89129201 19.7065439,5.78793601 19.7409959,5.65012802 C19.7754479,5.51232002 19.7409959,5.37451202 19.6376399,5.27115602 L14.1253199,0.689040047 C14.0357727,0.623582573 13.9209327,0.590853836 13.7807997,0.590853836 C13.6406668,0.590853836 13.5258269,0.623582573 13.4362799,0.689040047 L7.92395995,5.27115602 C7.82060396,5.37451202 7.78615196,5.51232002 7.82060396,5.65012802 C7.85505595,5.78793601 7.99286395,5.89129201 8.13067195,5.89129201 L9.30203995,5.89129201 L9.30203995,11.989296 C9.23313595,11.989296 9.16423194,11.989296 9.09532794,12.023748 L2.10157198,15.813468 C2.06711998,15.813468 2.06711998,15.84792 2.03266799,15.84792 L1.171368,15.84792 C0.964655996,15.84792 0.826847995,15.985728 0.826847995,16.19244 C0.826847995,16.399152 0.964655996,16.53696 1.171368,16.53696 L1.92931199,16.53696 L1.92931199,24.7709879 L0.516779997,24.7709879 C0.310067998,24.7709879 0.172259999,24.9087959 0.172259999,25.1155079 L0.172259999,27.0103679 C0.172259999,27.2170799 0.310067998,27.3548879 0.516779997,27.3548879 L27.0448199,27.3548879 C27.2515319,27.3548879 27.3893399,27.2170799 27.3893399,27.0103679 L27.3893399,25.1155079 C27.3893399,24.9432479 27.2515319,24.7709879 27.0448199,24.7709879 Z M24.9432478,24.7709879 L18.2595599,24.7709879 L18.2595599,16.53696 L24.9432478,16.53696 L24.9432478,24.7709879 Z M24.0819478,15.84792 L18.2595599,15.84792 L18.2595599,12.678336 L24.0819478,15.84792 Z M13.7807999,1.30917605 L18.4662719,5.20225202 L9.09532794,5.20225202 L13.7807999,1.30917605 Z M17.5705199,5.89129201 L17.5705199,24.7709879 L15.6412079,24.7709879 L15.6412079,21.6014039 C15.6412079,20.5678439 14.8143599,19.7409959 13.7807999,19.7409959 C12.7472399,19.7409959 11.920392,20.5678439 11.920392,21.6014039 L11.920392,24.7709879 L9.99107996,24.7709879 L9.99107996,5.89129201 L17.5705199,5.89129201 Z M13.4362799,24.7709879 L12.6094319,24.7709879 L12.6094319,21.6014039 C12.6094319,21.0846239 12.9539519,20.6367479 13.4362799,20.4989399 L13.4362799,24.7709879 Z M14.1253199,20.4989399 C14.6076479,20.6367479 14.9521679,21.0846239 14.9521679,21.6014039 L14.9521679,24.7709879 L14.1253199,24.7709879 L14.1253199,20.4989399 Z M9.30203995,12.678336 L9.30203995,15.84792 L3.47965198,15.84792 L9.30203995,12.678336 Z M2.61835199,16.53696 L9.30203995,16.53696 L9.30203995,24.7709879 L2.61835199,24.7709879 L2.61835199,16.53696 Z M26.7003001,26.6658479 L0.861299995,26.6658479 L0.861299995,25.4600279 L26.7003001,25.4600279 L26.7003001,26.6658479 Z" id="Shape"></path>
                    <path d="M13.7807999,13.09176 C12.368268,13.09176 11.1969,14.263128 11.1969,15.67566 C11.1969,17.0881919 12.368268,18.2595599 13.7807999,18.2595599 C15.1933319,18.2595599 16.3646999,17.0881919 16.3646999,15.67566 C16.3646999,14.263128 15.1933319,13.09176 13.7807999,13.09176 Z M13.7807999,17.5705199 C12.7472399,17.5705199 11.88594,16.70922 11.88594,15.67566 C11.88594,14.6421 12.7472399,13.7808 13.7807999,13.7808 C14.8143599,13.7808 15.6756599,14.6421 15.6756599,15.67566 C15.6756599,16.70922 14.8143599,17.5705199 13.7807999,17.5705199 Z" id="Shape"></path>
                    <path d="M14.5731959,15.33114 L14.1253199,15.33114 L14.1253199,14.779908 C14.1253199,14.573196 13.9875119,14.435388 13.7807999,14.435388 C13.5740879,14.435388 13.4362799,14.573196 13.4362799,14.779908 L13.4362799,15.67566 C13.4362799,15.882372 13.5740879,16.02018 13.7807999,16.02018 L14.5731959,16.02018 C14.7799079,16.02018 14.9177159,15.882372 14.9177159,15.67566 C14.9177159,15.468948 14.7454559,15.33114 14.5731959,15.33114 Z" id="Path"></path>
                    <path d="M11.02464,12.40272 L16.5369599,12.40272 C16.7436719,12.40272 16.8814799,12.264912 16.8814799,12.0582 L16.8814799,6.89040001 C16.8814799,6.68368801 16.7436719,6.54588001 16.5369599,6.54588001 L11.02464,6.54588001 C10.817928,6.54588001 10.68012,6.68368801 10.68012,6.89040001 L10.68012,12.0582 C10.68012,12.264912 10.817928,12.40272 11.02464,12.40272 Z M11.36916,11.71368 L11.36916,9.26758799 L12.4027199,9.26758799 L12.23046,9.78436796 C12.161556,10.025532 12.196008,10.232244 12.333816,10.438956 C12.4716239,10.611216 12.6783359,10.749024 12.9194999,10.749024 L14.5731959,10.749024 C14.8143599,10.749024 15.0210719,10.645668 15.1588799,10.438956 C15.2966879,10.266696 15.3311399,10.025532 15.2622359,9.78436796 L15.1588799,9.26758799 L16.1924399,9.26758799 L16.1924399,11.71368 L11.36916,11.71368 Z M14.3664839,8.95752 C14.3664839,8.99197199 14.3664839,8.99197199 14.3664839,9.02642399 L14.6420999,9.99107996 C14.6420999,9.99107996 14.6420999,10.025532 14.6420999,10.025532 C14.6420999,10.025532 14.6076479,10.059984 14.6076479,10.059984 L12.9539519,10.059984 C12.9539519,10.059984 12.9194999,10.059984 12.9194999,10.025532 C12.9194999,10.025532 12.9194999,9.99107996 12.9194999,9.99107996 L13.1951159,9.02642399 C13.1951159,8.99197199 13.1951159,8.99197199 13.1951159,8.95752 C13.1951159,8.923068 13.2295679,8.888616 13.2295679,8.854164 C13.2295679,8.544096 13.4707319,8.302932 13.7807999,8.302932 C14.0908679,8.302932 14.3320319,8.544096 14.3320319,8.854164 C14.3320319,8.888616 14.3320319,8.923068 14.3664839,8.95752 Z M16.1924399,7.23492001 L16.1924399,8.578548 L14.9866199,8.578548 C14.8488119,8.02731601 14.3664839,7.613892 13.7807999,7.613892 C13.1951159,7.613892 12.7127879,8.02731601 12.5749799,8.578548 L11.36916,8.578548 L11.36916,7.23492001 L16.1924399,7.23492001 Z" id="Shape"></path>
                    <path d="M5.20225197,21.7392119 L6.58033196,21.7392119 C6.78704396,21.7392119 6.92485196,21.6014039 6.92485196,21.3946919 L6.92485196,19.7754479 C6.92485196,19.1897639 6.47697596,18.7418879 5.89129197,18.7418879 C5.30560797,18.7418879 4.85773197,19.1897639 4.85773197,19.7754479 L4.85773197,21.3946919 C4.85773197,21.5669519 4.99553997,21.7392119 5.20225197,21.7392119 Z M5.54677196,19.7754479 C5.54677196,19.5687359 5.68457996,19.4309279 5.89129197,19.4309279 C6.09800397,19.4309279 6.23581196,19.5687359 6.23581196,19.7754479 L6.23581196,21.0501719 L5.54677196,21.0501719 L5.54677196,19.7754479 Z" id="Shape"></path>
                    <path d="M20.7401038,21.7392119 L22.1181838,21.7392119 C22.3248958,21.7392119 22.4627038,21.6014039 22.4627038,21.3946919 L22.4627038,19.7754479 C22.4627038,19.1897639 22.0148278,18.7418879 21.4291438,18.7418879 C20.8434598,18.7418879 20.3955839,19.1897639 20.3955839,19.7754479 L20.3955839,21.3946919 C20.3955839,21.5669519 20.5678439,21.7392119 20.7401038,21.7392119 Z M21.0846238,19.7754479 C21.0846238,19.5687359 21.2224318,19.4309279 21.4291438,19.4309279 C21.6358558,19.4309279 21.7736638,19.5687359 21.7736638,19.7754479 L21.7736638,21.0501719 L21.0846238,21.0501719 L21.0846238,19.7754479 Z" id="Shape"></path>
                    <path d="M6.64923596,22.3937999 L5.09889597,22.3937999 C4.89218397,22.3937999 4.75437597,22.5316079 4.75437597,22.7383199 C4.75437597,22.9450319 4.89218397,23.0828399 5.09889597,23.0828399 L6.64923596,23.0828399 C6.85594796,23.0828399 6.99375596,22.9450319 6.99375596,22.7383199 C6.99375596,22.5316079 6.82149596,22.3937999 6.64923596,22.3937999 Z" id="Path"></path>
                    <path d="M22.2215398,22.3937999 L20.6711998,22.3937999 C20.4644879,22.3937999 20.3266799,22.5316079 20.3266799,22.7383199 C20.3266799,22.9450319 20.4644879,23.0828399 20.6711998,23.0828399 L22.2215398,23.0828399 C22.4282518,23.0828399 22.5660598,22.9450319 22.5660598,22.7383199 C22.5660598,22.5316079 22.4282518,22.3937999 22.2215398,22.3937999 Z" id="Path"></path>
                </g>
            </g>
            <g id="Group-6-Copy-5" transform="translate(389.000000, 0.000000)" fill-opacity="0.2" stroke="#FFFFFF">
                <circle id="Oval" cx="20" cy="20" r="20"></circle>
            </g>
        </g>
        <g id="arrows" transform="translate(792.000000, 589.000000)" fill="#FFFFFF" fill-rule="nonzero">
            <path id="Path-3" d="M178.737658,4.29118825 L192.501157,4.64979385 C193.241712,4.6690889 193.691512,5.45078843 193.372692,6.09104003 L193.315895,6.19082515 L185.862213,17.7668836 C185.563222,18.2312359 184.944411,18.3652879 184.480058,18.0662972 C184.048874,17.788663 183.90249,17.2352647 184.123166,16.7858379 L184.180645,16.6841425 L189.568,8.317 L182.393688,12.1103891 C178.60686,14.2132137 175.309724,16.1848617 172.503074,18.0244649 C167.478739,21.3176373 160.883614,26.2472299 152.724447,32.8097883 C152.294093,33.1559295 151.664619,33.0876614 151.318478,32.6573073 C150.972336,32.2269531 151.040604,31.5974793 151.470959,31.251338 C159.676316,24.6516284 166.319315,19.686251 171.406703,16.3517513 C174.067056,14.6080378 177.152543,12.7527626 180.67851,10.7772544 L181.440822,10.3520877 L188.631,6.55 L178.685566,6.29050974 C178.172904,6.27715242 177.760431,5.88023431 177.715639,5.3815598 L177.711951,5.264803 C177.726336,4.71270562 178.18556,4.27680345 178.737658,4.29118825 Z"></path>
            <path id="Path-3-Copy" d="M395.639955,36.2911882 L409.403454,36.6497939 C410.144009,36.6690889 410.593809,37.4507884 410.274989,38.09104 L410.218192,38.1908251 L402.76451,49.7668836 C402.46552,50.2312359 401.846708,50.3652879 401.382356,50.0662972 C400.951171,49.788663 400.804787,49.2352647 401.025463,48.7858379 L401.082942,48.6841425 L406.47,40.317 L399.295985,44.1103891 C395.509157,46.2132137 392.212021,48.1848617 389.405371,50.0244649 C384.381036,53.3176373 377.785912,58.2472299 369.626744,64.8097883 C369.19639,65.1559295 368.566916,65.0876614 368.220775,64.6573073 C367.874634,64.2269531 367.942902,63.5974793 368.373256,63.251338 C376.578613,56.6516284 383.221613,51.686251 388.309,48.3517513 C390.969353,46.6080378 394.054841,44.7527626 397.580807,42.7772544 L398.343119,42.3520877 L405.533,38.55 L395.587863,38.2905097 C395.075201,38.2771524 394.662728,37.8802343 394.617936,37.3815598 L394.614248,37.264803 C394.628633,36.7127056 395.087858,36.2768034 395.639955,36.2911882 Z"></path>
            <path id="Path-3-Copy-2" d="M29.6399549,339.291188 L43.4034538,339.649794 C44.1440093,339.669089 44.593809,340.450788 44.2749891,341.09104 L44.218192,341.190825 L36.7645103,352.766884 C36.4655196,353.231236 35.8467079,353.365288 35.3823556,353.066297 C34.9511714,352.788663 34.8047869,352.235265 35.0254634,351.785838 L35.0829421,351.684143 L40.47,343.317 L33.2959848,347.110389 C29.509157,349.213214 26.2120211,351.184862 23.4053709,353.024465 C18.381036,356.317637 11.7859117,361.24723 3.62674413,367.809788 C3.19638997,368.15593 2.5669161,368.087661 2.22077487,367.657307 C1.87463365,367.226953 1.94290172,366.597479 2.37325587,366.251338 C10.5786133,359.651628 17.2216127,354.686251 22.3090001,351.351751 C24.9693529,349.608038 28.0548408,347.752763 31.5808071,345.777254 L32.3431189,345.352088 L39.533,341.55 L29.587863,341.29051 C29.0752011,341.277152 28.662728,340.880234 28.6179361,340.38156 L28.6142482,340.264803 C28.628633,339.712706 29.0878576,339.276803 29.6399549,339.291188 Z"></path>
        </g>
        <g id="legend" transform="translate(82.000000, 1015.000000)">
            <g id="bottom-navigation/icon" transform="translate(0.000000, 4.000000)" stroke="#FFFFFF">
                <circle id="Oval" cx="5" cy="5" r="4.5"></circle>
                <rect id="Rectangle" x="4" y="4" width="2" height="2"></rect>
            </g>
            <g id="companies" transform="translate(123.000000, 0.000000)">
                <g id="bottom-navigation/unternehmen" transform="translate(0.000000, 4.000000)" fill="#FF0000">
                    <circle id="Oval-Copy-8" cx="5" cy="5" r="5"></circle>
                </g>
                <text id="UNTERNEHMEN" font-family="OpenSans-Regular, Open Sans" font-size="12" font-weight="normal" letter-spacing="1.875" fill="#FFFFFF">
                    <tspan x="18" y="13">UNTERNEHMEN</tspan>
                </text>
            </g>
            <text id="HIGHLIGHTS" font-family="OpenSans-Regular, Open Sans" font-size="12" font-weight="normal" letter-spacing="1.875" fill="#FFFFFF">
                <tspan x="18" y="13">HIGHLIGHTS</tspan>
            </text>
        </g>
        <g id="water" transform="translate(1491.000000, 164.000000)" fill="#FFFFFF" fill-rule="nonzero" stroke="#FFFFFF" stroke-width="0.5">
            <path d="M5.74695035,13.6465568 C5.65220735,13.7386268 5.59845034,13.8693068 5.59845034,14.0029569 C5.59845034,14.1363099 5.65220735,14.2643169 5.74695035,14.3590599 C5.84199036,14.4540999 5.96970037,14.5075599 6.10335038,14.5075599 C6.23997039,14.5075599 6.36471039,14.4540999 6.4597504,14.3590599 C6.5547904,14.2643169 6.6082504,14.1395769 6.6082504,14.0029569 C6.6082504,13.8693068 6.5547904,13.7383298 6.4597504,13.6465568 C6.27293739,13.4567738 5.93435736,13.4597438 5.74695035,13.6465568 Z" id="Path"></path>
            <path d="M4.8803043,13.0400828 C4.58894728,12.8470328 4.33738827,12.6031958 4.13275525,12.3159967 C3.65963422,11.6524987 3.49361122,10.8128796 3.67626622,10.0130586 C3.73833923,9.74100663 3.56845522,9.47043954 3.2967002,9.40836654 C3.02553919,9.34629354 2.75408117,9.51617754 2.69200816,9.78793263 C2.44520115,10.8690126 2.67062416,12.0038497 3.31036221,12.9016808 C3.58686922,13.2901568 3.92723124,13.6198268 4.32224126,13.8817808 C4.40807427,13.9385079 4.50489628,13.9658319 4.60082728,13.9658319 C4.7644743,13.9658319 4.92515131,13.8862358 5.02227031,13.7398148 C5.17611631,13.5078578 5.11255831,13.1945228 4.8803043,13.0400828 Z" id="Path"></path>
            <path d="M6.34599939,1.42286183e-13 L5.96851237,0.424116026 C5.72497235,0.698247043 1.07913678e-13,7.17373844 1.07913678e-13,10.5530046 C1.07913678e-13,14.0516649 2.84674517,16.8984101 6.34570239,16.8984101 C9.84406563,16.8984101 12.6905138,14.0516649 12.6905138,10.5530046 C12.6905138,7.17373844 6.96672943,0.698247043 6.72289241,0.424116026 L6.34599939,1.42286183e-13 Z M6.34599939,15.888313 C3.40391721,15.888313 1.01009706,13.4947898 1.01009706,10.5527076 C1.01009706,8.2432355 4.56578128,3.60944123 6.34599939,1.52836209 C8.1262175,3.60914423 11.6810107,8.2417505 11.6810107,10.5527076 C11.6810107,13.4950868 9.28778454,15.888313 6.34599939,15.888313 Z" id="Shape"></path>
            <path d="M15.8227645,19.4234541 C15.7564445,19.4879031 15.7188145,19.5793791 15.7188145,19.6729341 C15.7188145,19.7662812 15.7564445,19.8558861 15.8227645,19.9222062 C15.8892926,19.9887342 15.9786895,20.0261562 16.0722446,20.0261562 C16.1678785,20.0261562 16.2551966,19.9887342 16.3217245,19.9222062 C16.3882526,19.8558861 16.4256746,19.7685681 16.4256746,19.6729341 C16.4256746,19.5793791 16.3882526,19.4876952 16.3217245,19.4234541 C16.1909554,19.290606 15.9539494,19.292685 15.8227645,19.4234541 Z" id="Path"></path>
            <path d="M15.2161123,18.9989223 C15.0121624,18.8637873 14.8360711,18.6931014 14.692828,18.4920621 C14.3616433,18.0276134 14.2454272,17.4398801 14.3732857,16.8800054 C14.4167368,16.689569 14.297818,16.5001721 14.1075895,16.456721 C13.9177768,16.4132699 13.7277562,16.5321887 13.6843051,16.7224172 C13.5115402,17.4791732 13.6693363,18.2735591 14.1171529,18.9020409 C14.3107078,19.1739741 14.5489612,19.4047431 14.8254682,19.5881109 C14.8855513,19.6278198 14.9533267,19.6469466 15.0204784,19.6469466 C15.1350313,19.6469466 15.2475052,19.5912294 15.3154885,19.4887347 C15.4231807,19.3263648 15.3786901,19.1070303 15.2161123,18.9989223 Z" id="Path"></path>
            <path d="M16.2420989,9.87086448 L15.977858,10.1677457 C15.80738,10.3596375 11.7998994,14.8924814 11.7998994,17.2579676 C11.7998994,19.7070297 13.792621,21.6997513 16.241891,21.6997513 C18.6907451,21.6997513 20.6832588,19.7070297 20.6832588,17.2579676 C20.6832588,14.8924814 16.6766099,10.3596375 16.505924,10.1677457 L16.2420989,9.87086448 Z M16.2420989,20.9926834 C14.1826414,20.9926834 12.5069673,19.3172172 12.5069673,17.2577597 C12.5069673,15.6411293 14.9959462,12.3974734 16.2420989,10.940718 C17.4882515,12.3972655 19.9766067,15.6400898 19.9766067,17.2577597 C19.9766067,19.3174251 18.3013484,20.9926834 16.2420989,20.9926834 Z" id="Shape"></path>
            <path d="M9.04081077,25.4193393 C8.98775466,25.4708985 8.95765074,25.5440793 8.95765074,25.6189233 C8.95765074,25.693601 8.98775466,25.7652849 9.04081077,25.818341 C9.09403317,25.8715634 9.16555077,25.901501 9.24039477,25.901501 C9.31690197,25.901501 9.38675637,25.8715634 9.43997877,25.818341 C9.49320117,25.7652849 9.52313877,25.6954305 9.52313877,25.6189233 C9.52313877,25.5440793 9.49320117,25.4707322 9.43997877,25.4193393 C9.33536349,25.3130608 9.14575869,25.314724 9.04081077,25.4193393 Z" id="Path"></path>
            <path d="M8.55548899,25.0797138 C8.39232907,24.9716058 8.25145603,24.8350571 8.13686155,24.6742257 C7.8719138,24.3026668 7.77894092,23.8324801 7.88122772,23.3845804 C7.9159886,23.2322313 7.82085356,23.0807138 7.66867076,23.0459529 C7.5168206,23.011192 7.36480413,23.106327 7.33004325,23.2585098 C7.19183133,23.8639146 7.31806821,24.4994233 7.67632148,25.0022087 C7.8311654,25.2197553 8.02176812,25.4043705 8.24297371,25.5510647 C8.29104019,25.5828318 8.34526051,25.5981333 8.39898187,25.5981333 C8.49062419,25.5981333 8.58060331,25.5535595 8.63498994,25.4715638 C8.7211437,25.3416678 8.68555122,25.1662002 8.55548899,25.0797138 Z" id="Path"></path>
            <path d="M9.37627821,17.777268 L9.16488549,18.014773 C9.02850309,18.1682863 5.82251879,21.7945613 5.82251879,23.6869502 C5.82251879,25.6461998 7.41669597,27.2403769 9.37611189,27.2403769 C11.3351951,27.2403769 12.929206,25.6461998 12.929206,23.6869502 C12.929206,21.7945613 9.72388701,18.1682863 9.58733829,18.014773 L9.37627821,17.777268 Z M9.37627821,26.6747226 C7.72871228,26.6747226 6.3881731,25.3343498 6.3881731,23.6867838 C6.3881731,22.3934795 8.37935611,19.798555 9.37627821,18.6331507 C10.3732002,19.7983886 12.3638843,22.3926479 12.3638843,23.6867838 C12.3638843,25.3345161 11.0236777,26.6747226 9.37627821,26.6747226 Z" id="Shape"></path>
        </g>
    </g>
</svg>