<?xml version="1.0" encoding="UTF-8"?>
<svg width="1920px" height="1080px" viewBox="0 0 1920 1080" preserveAspectRatio="xMidYMid slice" version="1.1" xmlns="http://www.w3.org/2000/svg" xmlns:xlink="http://www.w3.org/1999/xlink">
    <!-- Generator: Sketch 61.2 (89653) - https://sketch.com -->
    <title>Artboard</title>
    <desc>Created with Sketch.</desc>
    <defs>
        <polyline id="path-1" points="33.5969731 79.2677049 57.8551784 76.0999053 79.0767202 75.0448551 84.2479892 64.4890554 91.702882 64.4890554 94.004388 57.5434744 98.4385127 51.7191738 94.004388 49.9647307 96.3727868 44.0708882 94.004388 40.0791826 95.4409252 35.0522959 90.6842585 24.7839361 90.6842585 18.0516169 91.702882 9.65161642 98.4385127 9.65161642 102.892506 4.8704445 107.808126 4.8704445 110.816973 2.02452461 114.528524 2.02452461 116.12004 6.04272242 122.982833 2.02452461 124.318038 6.04272242 130.933129 4.8704445 134.254583 0.490628756 141.127311 2.02452461 144.853433 2.02452461 150.481029 4.8704445 157.620003 3.6160409 164.994757 3.6160409 168.271175 6.04272242 171.832153 7.09777255 171.832153 9.65161642 175.129994 9.65161642 177.626217 15.1745687 181.087417 20.1107197 177.626217 22.011532 171.832153 23.0778413 171.832153 31.389093 171.832153 39.8791668 163.522455 41.5150575 160.075826 39.8791668 160.075826 46.7942819 160.075826 53.3636744 154.85356 53.3636744 143.783812 55.3439631 142.367144 57.5434744 143.783812 61.0887872 145.851525 61.0887872 144.853433 65.6441135 144.853433 69.9172983 147.631798 71.3968852 145.851525 73.4824802 145.851525 77.230458 147.631798 79.2677049 170.864757 83.5117483 181.087417 86.9378464 187.794569 91.5580785 190.013287 94.2516685 190.013287 98.8632906 190.013287 101.290634 194.6567 102.66359 196.971452 111.427196 198.725233 123.635444 204.288586 127.436406 211.796463 130.511483 213.480039 131.785093 214.537076 134.523058 214.537076 142.520377 214.537076 152.970871 214.537076 157.508977 211.796463 158.973993 206.264901 161.069523 201.97582 163.661118 201.97582 166.407692 205.191306 168.207172 205.191306 171.422658 205.191306 172.341935 205.191306 174.49641 213.480039 187.843821 221.742281 194.141669 226.16912 200.046108 227.122175 204.147756 226.16912 211.619206 221.742281 218.21774 221.742281 223.767847 224.925975 225.544146 230.895059 225.544146 236.307668 225.544146 239.87285 227.874794 244.25399 232.640733 242.734003 238.117986 242.734003 246.052387 246.508473 255.947207 246.508473 260.917136 248.081445 269.018437 254.373332 277.154178 229.186577 280.636572 224.925975 280.636572 218.934774 278.144985 213.480039 278.144985 210.308266 278.144985 206.264901 278.144985 206.264901 271.033165 204.288586 269.018437 196.971452 271.033165 193.617545 274.008897 188.965522 275.434175 182.357716 277.154178 175.129994 280.636572 175.129994 283.197039 170.864757 286.745663 170.864757 288.686214 171.832153 293.315718 171.832153 300.499729 171.832153 307.186349 174.179588 310.503829 174.179588 316.105596 171.832153 321.960362 170.864757 325.447392 163.522455 330.735227 156.302681 327.514443 114.528524 311.785387 112.095882 310.503829 112.095882 307.186349 112.095882 302.020378 109.570517 286.745663 112.095882 286.745663 112.095882 284.338189 107.808126 265.802289 112.095882 260.917136 116.12004 257.039346 112.095882 254.916 101.673205 253.24302 101.673205 250.514328 98.4385127 250.514328 90.6842585 246.052387 67.9346317 245.240856 67.6562584 246.075627 70.0525529 236.029104 66.9822717 231.264122 68.5635803 229.200297 74.6673466 222.230339 78.0669231 217.469222 83.6137946 213.320661 86.2085776 213.320661 89.5966151 205.597681 90.5317008 200.834063 93.6316703 188.199233 93.6316703 182.881965 95.8867365 178.266087 95.8867365 171.434553 91.1514283 160.126112 89.5966151 149.847586 81.5540605 148.455778 79.7316209 151.681539 79.0870995 153.388517 74.1223116 150.595074 71.2813017 151.681539 65.8389852 150.595074 65.8389852 147.22571 66.9822717 138.407296 63.2932976 131.186322 61.8699854 127.348243 56.1533714 121.311327 48.8042436 118.567977 40.8594253 116.467247 37.8664239 113.543797 36.8831521 111.354051 34.0804309 112.501884 29.4806561 110.365325 25.9912457 112.501884 19.2128977 105.433509 15.9085043 100.279856 13.5365621 100.279856 8.07415056 97.7962781 0.912585719 93.6057355 0.912585719 92.9478207 9.31608246 90.4117174 19.2128977 85.3684903 26.9057666 81.4204015 29.4806561 81.4204015 29.4806561 85.3684903 29.4806561 90.4117174 30.2379982 91.9240766 31.5303892 91.9240766 33.3296449 86.6349699 33.3296449 77.9250815"></polyline>
        <polygon id="path-3" points="0 2.92743599e-14 308.999991 2.92743599e-14 308.999991 420.409198 0 420.409198"></polygon>
    </defs>
    <g id="Artboard" stroke="none" stroke-width="1" fill="none" fill-rule="evenodd">
        <g id="maps" transform="translate(559.000000, 140.000000)">
            <path d="M1004.05938,0 L1001.06294,3.11244232 L994.235535,5.41912089 L992.001788,14.2040794 L993.220518,14.2040794 L993.220518,17.2219957 L993.220518,19.3752748 L991.366159,20.8464428 L989.332674,27.2669784 L989.332674,29.8699595 L989.332674,31.1468865 L989.332674,32.3981162 L993.220518,36.4934278 L989.332674,39.9580229 L991.366159,41.9797925 L993.220518,45.5845888 L987.125355,44.8522169 L985.866567,45.5845888 L984.518595,44.8522169 L978.267359,52.3338981 L978.267359,54.0454111 L976.004111,53.4116713 L976.004111,55.2494032 L976.821133,56.7243502 L975.481852,57.7420372 L976.004111,58.8908559 L974.749858,58.8908559 L974.749858,61.7107521 L972.544429,61.1775339 L972.544429,59.7789229 L970.358272,57.7420372 L970.358272,61.1775339 L970.987099,62.5670754 L974.749858,67.9835284 L974.749858,69.8091674 L973.72877,70.5638354 L970.987099,71.4496351 L965.279662,71.9511095 L963.328938,74.1093013 L961.075893,75.1424822 L961.075893,77.6615693 L961.919368,81.5210708 L961.919368,83.5602238 L957.881497,87.9416064 L955.02759,86.6544761 L953.386745,86.6544761 L954.220394,83.5602238 L949.2578,80.9870969 L946.723975,82.1578338 L945.265277,84.196231 L941.81542,87.9416064 L941.81542,91.2644886 L941.81542,101.539613 L940.510151,107.750791 L937.435549,114.290366 L934.565014,115.378342 L932.757893,116.265654 L931.747008,118.991075 L928.571129,117.062269 L925.927335,117.062269 L922.726514,115.378342 L919.130032,115.378342 L916.610189,116.265654 L916.610189,118.991075 L913.57829,120.961828 L913.57829,123.457863 L914.23546,124.963798 L910.621216,128.630192 L910.621216,131.479942 L909.421381,135.151249 L909.421381,138.02254 L910.621216,139.672077 L912.353136,140.560144 L915.45608,138.870549 L916.610189,140.560144 L914.874868,142.409213 L911.763232,144.358803 L910.621216,147.073265 L914.23546,150.744194 L914.23546,154.387536 L916.610189,161.12173 L914.874868,165.629709 L914.874868,172.735757 L916.610189,176.835603 L917.200092,180.296041 L918.300917,181.029169 L920.453441,181.029169 L923.504612,180.296041 L926.469244,179.630558 L928.571129,179.630558 L930.54755,180.296041 L931.747008,181.029169 L931.747008,182.80228 L931.747008,187.119419 L931.177511,194.277995 L933.723807,200.93623 L929.507189,204.013855 L926.990748,203.51956 L924.910025,204.013855 L924.910025,206.039403 L923.504612,207.679493 L921.646852,209.208858 L921.074332,211.095339 L921.646852,213.207049 L923.504612,213.207049 L923.504612,212.003813 L925.927335,214.417843 L925.927335,217.377563 L927.550419,220.235627 L930.044564,223.042297 L930.044564,225.484292 L931.177511,226.296779 L936.533878,227.23624 L939.614526,227.23624 L939.614526,229.800676 L941.056973,231.842474 L944.021605,231.842474 L945.265277,234.225139 L947.240943,237.951241 L950.004154,245.71068 L947.240943,247.454692 L943.169061,248.663219 L943.169061,253.900547 L942.333522,253.900547 L943.169061,265.373617 L944.639096,266.115814 L946.723975,267.043561 L947.240943,268.812137 L945.871052,270.501354 L946.723975,272.740794 L947.240943,275.461302 L945.871052,276.91093 L945.871052,279.542632 L944.639096,281.290045 L941.056973,281.290045 L937.435549,280.391775 L935.270933,280.391775 L935.270933,281.986517 L932.757893,283.174259 L933.723807,285.87096 L937.435549,289.044571 L943.169061,290.176762 L947.240943,291.599181 L951.557326,291.599181 L955.88807,299.773554 L955.02759,301.285913 L955.88807,302.967572 L957.881497,302.967572 L957.881497,307.158115 L941.81542,327.929813 L941.81542,331.277259 L945.265277,334.585781 L947.240943,337.345969 L944.639096,339.280066 L944.021605,342.862566 L939.614526,345.016601 L938.642187,345.016601 L935.270933,339.280066 L929.507189,341.328666 L924.910025,343.564328 L923.504612,346.428816 L924.910025,347.769133 L922.726514,348.832266 L920.453441,345.016601 L919.130032,345.759554 L916.610189,345.759554 L916.610189,347.769133 L921.074332,351.818438 L924.910025,351.818438 L930.54755,352.786998 L933.723807,351.818438 L936.533878,350.804908 L939.614526,350.804908 L941.81542,351.818438 L942.333522,355.052136 L944.021605,356.587547 L944.021605,359.956911 L944.639096,361.043376 L945.871052,359.956911 L949.2578,360.474635 L950.004154,359.209423 L952.452574,359.956911 L954.220394,361.043376 L957.881497,357.817614 L961.075893,361.043376 L961.919368,363.421884 L963.977038,362.750354 L965.279662,364.002718 L963.977038,365.73048 L963.977038,367.131359 L961.919368,369.487949 L961.919368,372.975596 L961.919368,390.810627 L964.756648,393.604131 L964.756648,397.56107 L968.424175,402.561076 L970.358272,404.394651 L969.784619,408.9117 L970.358272,411.73084 L973.166075,411.73084 L974.749858,411.73084 L980.69575,413.166108 L979.840938,415.547639 L980.69575,418.054255 L980.69575,419.928266 L978.267359,421.171181 L976.821133,424.649759 L978.267359,427.791627 L978.943802,431.592175 L978.943802,436.021929 L978.943802,439.848553 L981.57248,443.74131 L980.69575,447.173784 L978.267359,452.516924 L976.821133,456.608079 L976.004111,459.874654 L976.004111,461.052193 L976.821133,463.304104 L978.943802,466.789861 L979.840938,469.153631 L980.69575,470.73628 L979.840938,471.37002 L984.518595,474.958944 L987.125355,478.592461 L990.226032,481.361341 L993.220518,481.361341 L993.220518,483.232328 L992.001788,485.646358 L993.220518,487.715743 L992.682387,489.644549 L989.332674,494.711444 L987.6718,501.448283 L988.212576,504.03388 L991.366159,504.03388 L991.366159,507.702646 L998.433172,507.702646 L1005.92875,503.159376 L1013.34435,501.448283 L1017.51276,504.955275 L1019.97799,504.955275 L1023.86546,501.448283 L1028.19623,502.107623 L1029.88309,498.467276 L1033.0869,498.467276 L1039.0337,494.711444 L1041.23311,489.644549 L1042.49577,487.715743 L1046.70557,487.715743 L1043.38835,496.956301 L1042.49577,499.55166 L1039.0337,504.955275 L1033.95719,514.351014 L1031.95994,519.775322 L1026.4648,520.630493 L1026.4648,526.354449 L1020.7492,527.327012 L1019.26767,530.185011 L1015.25326,535.636378 L1014.05586,540.338426 L1011.51104,543.652065 L1011.51104,548.175041 L1012.66467,548.175041 L1010.29812,557.324058 L999.484527,564.78263 L996.365082,570.259068 L988.212576,575.452173 L976.004111,576.802778 L973.72877,578.396126 L966.451603,582.877318 L956.670659,576.802778 L953.386745,579.041981 L957.881497,588.421008 L961.919368,605.401068 L972.544429,615.195543 L970.358272,634.285477 L976.004111,640.837544 L975.481852,646.274586 L973.166075,650.01959 L978.943802,661.656523 L985.866567,672.440672 L978.943802,680.449992 L978.943802,690.213029 L969.784619,700.911622 L965.279662,705.306063 L963.328938,713.863743 L963.328938,725.58862 L968.424175,732.10726 L971.955897,738.279693 L971.955897,751.446304 L972.544429,762.743396 L975.481852,773.307485 L976.821133,781.265073 L970.987099,790.882863 L969.784619,802.798751 L973.166075,812.387889 L974.749858,816.477509 L981.57248,818.3136 L985.866567,821.218555 L988.212576,831.247018 L992.001788,852.913607 L988.212576,862.022831 L990.226032,876.472795 L990.226032,886.630986 L987.6718,891.119341 L981.57248,895.448122 L978.267359,898.272694 L975.481852,897.004064 L967.528426,897.004064 L961.919368,894.084783 L958.946472,896.47958 L945.871052,891.879404 L940.510151,895.448122 L934.565014,894.084783 L934.565014,886.630986 L922.726514,882.273553 L916.610189,881.023626 L914.23546,864.983896 L909.421381,863.639657 L909.421381,858.33314 L898.503903,844.171681 L895.674556,842.682593 L897.297351,838.355006 L891.031005,828.804468 L889.751233,824.994997 L884.886427,821.796761 L886.035277,819.847655 L882.328077,813.378359 L883.901528,803.768926 L882.328077,801.056574 L884.886427,799.314396 L883.186431,797.57978 L881.770564,790.030477 L876.62561,785.643199 L870.627474,768.59708 L870.627474,762.743396 L867.454706,755.627848 L868.372353,752.964441 L867.454706,748.166092 L865.927813,747.139409 L865.927813,744.2834 L864.23896,738.912019 L862.556076,737.334588 L854.956633,735.657673 L854.347786,732.10726 L856.729452,729.621335 L856.729452,725.58862 L857.937595,722.56866 L852.841189,718.429298 L850.709827,709.577143 L850.709827,702.217658 L848.490919,694.798879 L848.490919,688.418722 L849.187312,683.97812 L843.803992,671.818295 L842.166075,670.126258 L835.764031,660.069144 L832.432087,659.253767 L828.573272,658.38427 L824.425553,646.929195 L821.490354,642.108163 L820.877528,634.285477 L820.877528,627.787927 L824.425553,623.547887 L828.573272,621.038483 L827.775404,618.442328 L817.497035,615.195543 L811.242229,604.305542 L807.309397,600.287153 L802.683355,599.371893 L800.844876,599.371893 L799.111454,599.371893 L796.728992,596.649194 L791.999486,598.653215 L788.864124,600.287153 L787.227003,598.653215 L786.341986,594.513455 L778.428172,595.604206 L775.092249,595.604206 L772.78062,595.604206 L770.839871,586.92794 L765.588667,586.92794 L762.133362,588.421008 L758.081547,588.421008 L756.884944,592.304893 L756.884944,596.649194 L751.288726,600.287153 L749.916632,600.287153 L749.916632,603.705052 L744.333547,604.305542 L744.333547,610.484342 L747.110366,616.123537 L736.239068,616.123537 L732.760683,614.113945 L726.591433,615.195543 L725.864398,620.128794 L714.101717,658.38427 L698.746839,668.094779 L695.250945,670.126258 L696.233058,673.614194 L691.684217,677.823992 L693.421221,681.507316 L694.658413,686.222496 L694.658413,688.418722 L693.421221,690.213029 L693.421221,691.940881 L691.684217,693.785727 L691.684217,699.250624 L691.079747,703.804241 L691.684217,709.577143 L693.421221,713.863743 L682.074386,713.863743 L675.517941,714.518353 L672.076164,718.429298 L664.941884,721.572766 L660.689593,721.572766 L659.774811,721.572766 L657.972244,721.572766 L656.199412,722.56866 L652.113802,721.572766 L649.288853,717.424161 L647.330171,714.518353 L648.324771,712.858857 L650.011524,710.73545 L648.324771,710.73545 L645.831618,709.577143 L642.325082,709.577143 L638.987574,708.282206 L637.546929,708.282206 L632.037888,703.804241 L629.745846,699.250624 L629.745846,696.163099 L632.037888,693.785727 L628.397148,690.213029 L624.977865,690.213029 L623.680815,688.418722 L623.680815,684.86448 L632.037888,683.97812 L637.546929,682.776679 L640.389093,682.776679 L644.227423,680.449992 L645.831618,684.86448 L651.416173,684.86448 L652.113802,681.003457 L653.746168,677.823992 L654.249729,675.817212 L657.972244,673.614194 L656.86574,672.440672 L650.011524,657.421791 L646.615717,658.38427 L643.51023,659.253767 L642.325082,662.336887 L636.5715,663.653892 L632.618529,664.815564 L631.302698,664.815564 L629.745846,665.756953 L627.615005,663.653892 L625.642237,666.641608 L622.614612,664.815564 L611.388769,669.459122 L601.35003,669.459122 L592.718678,671.818295 L589.673446,673.614194 L588.651457,675.817212 L578.680407,682.776679 L575.85585,678.740759 L571.960395,677.823992 L564.051714,675.817212 L558.012115,675.144624 L555.714204,671.818295 L552.491728,664.815564 L552.491728,657.421791 L541.510426,642.108163 L536.555811,640.320289 L528.328247,636.815319 L522.146619,639.065887 L513.717944,642.935519 L513.717944,645.077706 L511.403208,647.62955 L507.920148,650.01959 L505.899645,651.890839 L503.786803,654.261135 L499.927736,654.261135 L498.424488,653.439474 L495.871861,653.439474 L491.155919,650.01959 L485.873423,650.01959 L484.193713,651.890839 L482.568781,652.544255 L482.568781,657.421791 L488.857617,665.756953 L492.471359,670.126258 L484.193713,673.001263 L476.964272,674.642628 L473.381048,674.642628 L463.510945,677.041095 L445.152302,679.912213 L442.67206,682.776679 L438.480808,680.449992 L432.444731,680.449992 L430.607732,677.041095 L425.642944,674.642628 L425.642944,673.001263 L425.642944,669.459122 L426.187979,663.653892 L425.642944,658.38427 L425.642944,653.439474 L428.021065,650.01959 L425.642944,648.239535 L427.467422,645.077706 L420.084213,636.815319 L410.250497,623.547887 L410.250497,620.128794 L409.076305,616.123537 L409.076305,614.113945 L407.674004,611.0496 L395.357307,597.853335 L385.601063,607.876815 L378.426399,609.270117 L365.057194,612.964852 L361.648867,608.719996 L346.785413,607.876815 L339.244523,607.132625 L330.81663,612.964852 L331.487262,616.123537 L332.071033,623.009069 L335.239513,626.060952 L333.819605,630.968224 L339.244523,635.973312 L339.244523,641.59269 L344.19053,645.077706 L344.19053,648.805698 L346.785413,654.261135 L348.043337,655.325773 L339.244523,662.336887 L324.453454,677.823992 L317.114849,682.776679 L307.997152,693.785727 L291.069374,688.418722 L275.647974,675.817212 L266.640223,675.817212 L236.13313,682.776679 L214.123966,689.189155 L195.124037,698.446925 L183.546053,696.163099 L178.047185,692.798594 L172.003674,693.785727 L162.600744,681.003457 L161.77204,678.740759 L160.180757,677.041095 L158.195859,677.041095 L158.195859,675.144624 L158.195859,671.818295 L154.921737,668.094779 L154.921737,664.815564 L158.195859,663.027474 L156.200006,659.253767 L156.200006,656.518746 L158.195859,654.261135 L159.381007,651.890839 L160.704664,650.01959 L159.381007,644.414899 L160.704664,642.935519 L159.381007,639.065887 L156.200006,639.676264 L156.943022,638.286092 L158.195859,636.815319 L157.621479,635.010013 L156.200006,635.010013 L158.195859,633.126844 L154.921737,631.731586 L154.921737,629.556141 L166.018853,625.130128 L180.218326,607.876815 L182.009547,597.853335 L185.894829,586.92794 L189.593477,581.162273 L194.622041,573.572084 L199.337592,561.95106 L202.779959,547.061392 L205.552087,544.345999 L212.022861,540.338426 L217.474777,539.032592 L221.593645,535.636378 L225.635043,533.348264 L232.392616,533.348264 L238.710015,534.850338 L244.382996,534.850338 L247.326107,533.348264 L247.326107,526.354449 L254.866214,520.630493 L258.161074,515.811282 L256.264994,510.026399 L256.264994,500.749848 L259.492947,493.045408 L264.420565,485.646358 L268.239723,478.083746 L273.692421,473.399888 L289.886582,487.715743 L313.788316,490.718727 L328.983798,490.718727 L330.81663,498.467276 L328.983798,507.702646 C328.772771,511.071356 328.772771,513.555038 328.983798,515.153692 C329.194825,516.752346 329.805769,518.896937 330.81663,521.587463 L342.995081,517.687106 L369.118837,510.026399 L369.728892,507.702646 L373.447415,503.159376 L381.75863,499.55166 L383.051021,500.749848 L389.387056,490.718727 L404.136134,484.867282 L404.136134,485.646358 L409.076305,483.232328 L411.9123,481.361341 L414.155688,475.991015 L409.076305,467.67889 L409.076305,464.086289 L419.455264,454.602693 L421.573185,445.39094 L418.502904,440.625959 L420.084213,438.562133 L426.187979,431.592175 L429.587555,426.831059 L435.134427,422.682498 L437.72921,422.682498 L441.117247,414.959518 L442.052333,410.1959 L445.152302,397.56107 L445.152302,392.243801 L447.407369,387.627924 L447.407369,380.796389 L442.67206,369.487949 L441.117247,359.209423 L433.074693,357.817614 L431.252253,361.043376 L430.607732,362.750354 L425.642944,359.956911 L422.801934,361.043376 L417.359617,359.956911 L417.359617,356.587547 L418.502904,347.769133 L414.81393,340.548159 L413.390618,336.71008 L407.674004,330.673164 L400.324876,327.929813 L392.380057,325.829084 L389.387056,322.905634 L388.403784,320.715888 L385.601063,321.863721 L381.001288,319.727161 L377.511878,321.863721 L370.73353,314.795346 L367.429136,309.641692 L365.057194,309.641692 L359.594783,307.158115 L352.433218,302.967572 L352.433218,302.309657 L360.836715,299.773554 L370.73353,294.730327 L378.426399,290.782238 L381.001288,290.782238 L381.001288,294.730327 L381.001288,299.773554 L381.75863,301.285913 L383.051021,301.285913 L384.850277,295.996807 L384.850277,287.286918 L383.051021,283.174259 L383.051021,281.290045 L384.15385,280.391775 L381.75863,276.91093 L381.75863,269.72031 L381.75863,263.941144 L379.622526,257.823311 L377.511878,251.293168 L376.540425,247.454692 L373.447415,245.71068 L369.728892,241.780479 L368.529692,239.397079 L369.118837,237.951241 L369.728892,236.214969 L368.529692,225.484292 L365.057194,223.042297 L359.594783,219.437069 L358.493773,218.578354 L355.570778,221.474074 L354.772978,224.13159 L352.433218,224.13159 L350.691695,225.484292 L348.043337,229.133412 L348.043337,231.842474 L346.785413,234.225139 L344.19053,234.225139 L342.100908,234.225139 L342.100908,232.428713 L344.19053,227.23624 L342.995081,225.484292 L340.253012,224.13159 L331.487262,216.533622 L327.04362,217.377563 L323.672403,218.578354 L319.515204,219.437069 L319.515204,217.377563 L320.392102,211.095339 L323.672403,200.93623 L325.256639,192.443688 L327.04362,185.6167 L326.41629,182.80228 L325.256639,178.382401 L327.04362,175.434858 L328.983798,172.735757 L327.04362,170.843074 L324.453454,171.949085 L322.063619,174.377034 L310.592096,178.382401 L307.997152,178.382401 L303.489326,178.382401 L301.585761,175.434858 L298.552565,175.434858 L295.566833,176.835603 L291.069374,176.835603 L287.403672,176.835603 L283.121349,175.434858 L276.75175,171.949085 L270.620585,170.843074 L269.241352,168.261971 L269.241352,157.734012 L268.239723,154.387536 L263.472026,149.975128 L261.31495,145.888243 L259.492947,138.02254 L256.264994,135.151249 L254.866214,135.151249 L254.866214,130.305703 L252.313082,124.963798 L246.542639,124.239311 L238.710015,120.961828 L234.326097,113.48632 L232.392616,110.866335 L228.708654,110.866335 L228.708654,108.566869 L228.708654,102.594846 L228.708654,96.9746117 L228.708654,92.8553398 L225.635043,92.8553398 L221.593645,95.3474518 L220.18533,98.3946074 L218.690637,99.2305231 L214.123966,99.2305231 L212.022861,99.2305231 L212.022861,96.9746117 L212.022861,90.1309359 L210.529024,83.5602238 L207.527098,79.1880903 L203.722202,71.4496351 L201.877827,70.5638354 L196.761263,67.9835284 L195.124037,66.5817893 L188.197734,70.5638354 L180.218326,69.8091674 L173.143993,69.8091674 L168.880097,69.8091674 L168.880097,71.9511095 L172.003674,74.1093013 L168.880097,76.5346025 L168.880097,84.196231 L168.880097,103.896463 L166.018853,108.566869 L162.600744,109.520606 L156.200006,116.265654 L154.921737,120.961828 L151.691616,120.961828 L146.925165,126.155161 L142.275977,130.305703 L137.156064,140.560144 L131.352117,144.358803 L128.027998,144.358803 L122.063793,144.358803 L119.275732,141.691913 L117.236477,141.691913 L118.377276,145.888243 L119.275732,149.095658 L115.894657,149.095658 L112.754808,147.073265 L107.211631,152.197536 L103.754056,152.197536 L104.770892,149.095658 L107.211631,147.073265 L110.964597,140.560144 L110.964597,132.376786 L108.918642,129.455269 L107.211631,128.630192 L105.572745,117.062269 L103.754056,110.866335 L107.211631,107.004483 L106.43323,101.539613 L104.770892,98.3946074 L98.831814,96.9746117 L94.5131955,95.3474518 L77.8574218,88.743327 L69.3687175,86.6544761 L64.1817965,86.6544761 L58.6777077,84.196231 L53.3657064,84.196231 L51.9021559,86.6544761 L45.285188,84.196231 L38.7854829,84.196231 L32.1886172,80.9870969 L28.3027539,77.6615693 L28.3027539,75.1424822 L26.5711744,70.5638354 L19.4438345,69.8091674 L19.4438345,68.7394234 L17.7904301,66.5817893 L14.2680813,63.8344913 L10.0527656,63.8344913 L7.7717265,62.5670754 L3.7071772,63.8344913 L0.957087169,58.8908559 L0,56.7243502" id="Aargau" stroke="#FFFFFF" stroke-width="2"></path>
            <g id="Aarau" transform="translate(351.520632, 209.361837)">
                <mask id="mask-2" fill="white">
                    <use xlink:href="#path-1"></use>
                </mask>
                <use id="Path-3-Copy" stroke="#FFFFFF" stroke-width="2" xlink:href="#path-1"></use>
                <g id="Path-6" opacity="0.5" mask="url(#mask-2)">
                    <g transform="translate(111.326173, 206.388143) rotate(20.000000) translate(-111.326173, -206.388143) translate(-43.173827, -4.111857)">
                        <mask id="mask-4" fill="white">
                            <use xlink:href="#path-3"></use>
                        </mask>
                        <g id="Duplicate-control" stroke="none" fill="none"></g>
                        <line x1="0.514999986" y1="1.14500033e-17" x2="0.514999986" y2="420.409198" id="Path-5" stroke="#FFFFFF" stroke-width="2.05999994" fill="none" mask="url(#mask-4)"></line>
                        <line x1="6.69499981" y1="1.14500033e-17" x2="6.69499981" y2="420.409198" id="Path-5" stroke="#FFFFFF" stroke-width="2.05999994" fill="none" mask="url(#mask-4)"></line>
                        <line x1="12.8749996" y1="1.14500033e-17" x2="12.8749996" y2="420.409198" id="Path-5" stroke="#FFFFFF" stroke-width="2.05999994" fill="none" mask="url(#mask-4)"></line>
                        <line x1="19.0549995" y1="1.14500033e-17" x2="19.0549995" y2="420.409198" id="Path-5" stroke="#FFFFFF" stroke-width="2.05999994" fill="none" mask="url(#mask-4)"></line>
                        <line x1="25.2349993" y1="1.14500033e-17" x2="25.2349993" y2="420.409198" id="Path-5" stroke="#FFFFFF" stroke-width="2.05999994" fill="none" mask="url(#mask-4)"></line>
                        <line x1="31.4149991" y1="1.14500033e-17" x2="31.4149991" y2="420.409198" id="Path-5" stroke="#FFFFFF" stroke-width="2.05999994" fill="none" mask="url(#mask-4)"></line>
                        <line x1="37.594999" y1="1.14500033e-17" x2="37.594999" y2="420.409198" id="Path-5" stroke="#FFFFFF" stroke-width="2.05999994" fill="none" mask="url(#mask-4)"></line>
                        <line x1="43.7749988" y1="1.14500033e-17" x2="43.7749988" y2="420.409198" id="Path-5" stroke="#FFFFFF" stroke-width="2.05999994" fill="none" mask="url(#mask-4)"></line>
                        <line x1="49.9549986" y1="1.14500033e-17" x2="49.9549986" y2="420.409198" id="Path-5" stroke="#FFFFFF" stroke-width="2.05999994" fill="none" mask="url(#mask-4)"></line>
                        <line x1="56.1349984" y1="1.14500033e-17" x2="56.1349984" y2="420.409198" id="Path-5" stroke="#FFFFFF" stroke-width="2.05999994" fill="none" mask="url(#mask-4)"></line>
                        <line x1="62.3149983" y1="1.14500033e-17" x2="62.3149983" y2="420.409198" id="Path-5" stroke="#FFFFFF" stroke-width="2.05999994" fill="none" mask="url(#mask-4)"></line>
                        <line x1="68.4949981" y1="1.14500033e-17" x2="68.4949981" y2="420.409198" id="Path-5" stroke="#FFFFFF" stroke-width="2.05999994" fill="none" mask="url(#mask-4)"></line>
                        <line x1="74.6749979" y1="1.14500033e-17" x2="74.6749979" y2="420.409198" id="Path-5" stroke="#FFFFFF" stroke-width="2.05999994" fill="none" mask="url(#mask-4)"></line>
                        <line x1="80.8549978" y1="1.14500033e-17" x2="80.8549978" y2="420.409198" id="Path-5" stroke="#FFFFFF" stroke-width="2.05999994" fill="none" mask="url(#mask-4)"></line>
                        <line x1="87.0349976" y1="1.14500033e-17" x2="87.0349976" y2="420.409198" id="Path-5" stroke="#FFFFFF" stroke-width="2.05999994" fill="none" mask="url(#mask-4)"></line>
                        <line x1="93.2149974" y1="1.14500033e-17" x2="93.2149974" y2="420.409198" id="Path-5" stroke="#FFFFFF" stroke-width="2.05999994" fill="none" mask="url(#mask-4)"></line>
                        <line x1="99.3949972" y1="1.14500033e-17" x2="99.3949972" y2="420.409198" id="Path-5" stroke="#FFFFFF" stroke-width="2.05999994" fill="none" mask="url(#mask-4)"></line>
                        <line x1="105.574997" y1="1.14500033e-17" x2="105.574997" y2="420.409198" id="Path-5" stroke="#FFFFFF" stroke-width="2.05999994" fill="none" mask="url(#mask-4)"></line>
                        <line x1="111.754997" y1="1.14500033e-17" x2="111.754997" y2="420.409198" id="Path-5" stroke="#FFFFFF" stroke-width="2.05999994" fill="none" mask="url(#mask-4)"></line>
                        <line x1="117.934997" y1="1.14500033e-17" x2="117.934997" y2="420.409198" id="Path-5" stroke="#FFFFFF" stroke-width="2.05999994" fill="none" mask="url(#mask-4)"></line>
                        <line x1="124.114997" y1="1.14500033e-17" x2="124.114997" y2="420.409198" id="Path-5" stroke="#FFFFFF" stroke-width="2.05999994" fill="none" mask="url(#mask-4)"></line>
                        <line x1="130.294996" y1="1.14500033e-17" x2="130.294996" y2="420.409198" id="Path-5" stroke="#FFFFFF" stroke-width="2.05999994" fill="none" mask="url(#mask-4)"></line>
                        <line x1="136.474996" y1="1.14500033e-17" x2="136.474996" y2="420.409198" id="Path-5" stroke="#FFFFFF" stroke-width="2.05999994" fill="none" mask="url(#mask-4)"></line>
                        <line x1="142.654996" y1="1.14500033e-17" x2="142.654996" y2="420.409198" id="Path-5" stroke="#FFFFFF" stroke-width="2.05999994" fill="none" mask="url(#mask-4)"></line>
                        <line x1="148.834996" y1="1.14500033e-17" x2="148.834996" y2="420.409198" id="Path-5" stroke="#FFFFFF" stroke-width="2.05999994" fill="none" mask="url(#mask-4)"></line>
                        <line x1="155.014996" y1="1.14500033e-17" x2="155.014996" y2="420.409198" id="Path-5" stroke="#FFFFFF" stroke-width="2.05999994" fill="none" mask="url(#mask-4)"></line>
                        <line x1="161.194996" y1="1.14500033e-17" x2="161.194996" y2="420.409198" id="Path-5" stroke="#FFFFFF" stroke-width="2.05999994" fill="none" mask="url(#mask-4)"></line>
                        <line x1="167.374995" y1="1.14500033e-17" x2="167.374995" y2="420.409198" id="Path-5" stroke="#FFFFFF" stroke-width="2.05999994" fill="none" mask="url(#mask-4)"></line>
                        <line x1="173.554995" y1="1.14500033e-17" x2="173.554995" y2="420.409198" id="Path-5" stroke="#FFFFFF" stroke-width="2.05999994" fill="none" mask="url(#mask-4)"></line>
                        <line x1="179.734995" y1="1.14500033e-17" x2="179.734995" y2="420.409198" id="Path-5" stroke="#FFFFFF" stroke-width="2.05999994" fill="none" mask="url(#mask-4)"></line>
                        <line x1="185.914995" y1="1.14500033e-17" x2="185.914995" y2="420.409198" id="Path-5" stroke="#FFFFFF" stroke-width="2.05999994" fill="none" mask="url(#mask-4)"></line>
                        <line x1="192.094995" y1="1.14500033e-17" x2="192.094995" y2="420.409198" id="Path-5" stroke="#FFFFFF" stroke-width="2.05999994" fill="none" mask="url(#mask-4)"></line>
                        <line x1="198.274994" y1="1.14500033e-17" x2="198.274994" y2="420.409198" id="Path-5" stroke="#FFFFFF" stroke-width="2.05999994" fill="none" mask="url(#mask-4)"></line>
                        <line x1="204.454994" y1="1.14500033e-17" x2="204.454994" y2="420.409198" id="Path-5" stroke="#FFFFFF" stroke-width="2.05999994" fill="none" mask="url(#mask-4)"></line>
                        <line x1="210.634994" y1="1.14500033e-17" x2="210.634994" y2="420.409198" id="Path-5" stroke="#FFFFFF" stroke-width="2.05999994" fill="none" mask="url(#mask-4)"></line>
                        <line x1="216.814994" y1="1.14500033e-17" x2="216.814994" y2="420.409198" id="Path-5" stroke="#FFFFFF" stroke-width="2.05999994" fill="none" mask="url(#mask-4)"></line>
                        <line x1="222.994994" y1="1.14500033e-17" x2="222.994994" y2="420.409198" id="Path-5" stroke="#FFFFFF" stroke-width="2.05999994" fill="none" mask="url(#mask-4)"></line>
                        <line x1="229.174994" y1="1.14500033e-17" x2="229.174994" y2="420.409198" id="Path-5" stroke="#FFFFFF" stroke-width="2.05999994" fill="none" mask="url(#mask-4)"></line>
                        <line x1="235.354993" y1="1.14500033e-17" x2="235.354993" y2="420.409198" id="Path-5" stroke="#FFFFFF" stroke-width="2.05999994" fill="none" mask="url(#mask-4)"></line>
                        <line x1="241.534993" y1="1.14500033e-17" x2="241.534993" y2="420.409198" id="Path-5" stroke="#FFFFFF" stroke-width="2.05999994" fill="none" mask="url(#mask-4)"></line>
                        <line x1="247.714993" y1="1.14500033e-17" x2="247.714993" y2="420.409198" id="Path-5" stroke="#FFFFFF" stroke-width="2.05999994" fill="none" mask="url(#mask-4)"></line>
                        <line x1="253.894993" y1="1.14500033e-17" x2="253.894993" y2="420.409198" id="Path-5" stroke="#FFFFFF" stroke-width="2.05999994" fill="none" mask="url(#mask-4)"></line>
                        <line x1="260.074993" y1="1.14500033e-17" x2="260.074993" y2="420.409198" id="Path-5" stroke="#FFFFFF" stroke-width="2.05999994" fill="none" mask="url(#mask-4)"></line>
                        <line x1="266.254993" y1="1.14500033e-17" x2="266.254993" y2="420.409198" id="Path-5" stroke="#FFFFFF" stroke-width="2.05999994" fill="none" mask="url(#mask-4)"></line>
                        <line x1="272.434992" y1="1.14500033e-17" x2="272.434992" y2="420.409198" id="Path-5" stroke="#FFFFFF" stroke-width="2.05999994" fill="none" mask="url(#mask-4)"></line>
                        <line x1="278.614992" y1="1.14500033e-17" x2="278.614992" y2="420.409198" id="Path-5" stroke="#FFFFFF" stroke-width="2.05999994" fill="none" mask="url(#mask-4)"></line>
                        <line x1="284.794992" y1="1.14500033e-17" x2="284.794992" y2="420.409198" id="Path-5" stroke="#FFFFFF" stroke-width="2.05999994" fill="none" mask="url(#mask-4)"></line>
                        <line x1="290.974992" y1="1.14500033e-17" x2="290.974992" y2="420.409198" id="Path-5" stroke="#FFFFFF" stroke-width="2.05999994" fill="none" mask="url(#mask-4)"></line>
                        <line x1="297.154992" y1="1.14500033e-17" x2="297.154992" y2="420.409198" id="Path-5" stroke="#FFFFFF" stroke-width="2.05999994" fill="none" mask="url(#mask-4)"></line>
                        <line x1="303.334992" y1="1.14500033e-17" x2="303.334992" y2="420.409198" id="Path-5" stroke="#FFFFFF" stroke-width="2.05999994" fill="none" mask="url(#mask-4)"></line>
                    </g>
                </g>
            </g>
        </g>
        <g id="cities" transform="translate(1020.000000, 323.000000)" fill="#FFFFFF">
            <circle id="Oval-Copy-6" cx="375" cy="12" r="5"></circle>
            <circle id="Oval-Copy-7" cx="332" cy="266" r="5"></circle>
            <circle id="Oval-Copy-8" cx="5" cy="181" r="5"></circle>
            <circle id="Oval-Copy-9" cx="704" cy="230" r="5"></circle>
            <text id="BADEN" font-family="OpenSans-ExtraBold, Open Sans" font-size="18.1999997" font-weight="600">
                <tspan x="388" y="19">BADEN</tspan>
            </text>
            <text id="AARAU" font-family="OpenSans-ExtraBold, Open Sans" font-size="18.1999997" font-weight="600">
                <tspan x="18" y="188">AARAU</tspan>
            </text>
            <text id="WOHLEN" font-family="OpenSans-ExtraBold, Open Sans" font-size="18.1999997" font-weight="600">
                <tspan x="345" y="273">WOHLEN</tspan>
            </text>
            <text id="ZÜRICH" font-family="OpenSans-ExtraBold, Open Sans" font-size="18.1999997" font-weight="600">
                <tspan x="717" y="237">ZÜRICH</tspan>
            </text>
        </g>
    </g>
</svg>
