<?xml version="1.0" encoding="UTF-8"?>
<svg width="600px" height="1000px" viewBox="0 0 600 1000" version="1.1" xmlns="http://www.w3.org/2000/svg" xmlns:xlink="http://www.w3.org/1999/xlink">
    <!-- Generator: Sketch 61 (89581) - https://sketch.com -->
    <title>Artboard</title>
    <desc>Created with Sketch.</desc>
    <g id="Artboard" stroke="none" stroke-width="1" fill="none" fill-rule="evenodd">
        <rect fill="#FFFFFF" x="0" y="0" width="600" height="1000"></rect>
        <g id="ol_mammut" transform="translate(61.000000, 261.000000)" fill-rule="nonzero">
            <polygon id="Path" fill="#FFFFFF" points="0 0 478 0 478 478 0 478"></polygon>
            <path d="M112,197 C112,125.754456 169.755011,68 241.00124,68 C312.247469,68 370,125.754456 370,197 C370,268.243063 312.247469,326 241.00124,326 C169.755011,326 112,268.243063 112,197 Z" id="Path" fill="#CB3B36"></path>
            <path d="M281.823655,137.080176 L271.104342,134.807628 L271.104342,149.105324 L275.417849,153.533814 L276.860643,152.86892 L273.538747,148.549592 L273.09748,136.799829 L281.744326,139.623146 L281.823655,137.080176 L281.823655,137.080176 Z M240.89492,58 C298.232334,58 347.458371,92.7803916 368.65653,142.406768 C370.892364,143.104395 373.005894,144.146493 374.921031,145.495547 C388.387106,154.933068 391,167.873686 391,181.340265 C391,193.201671 386.274975,201.884984 379.28164,208.856444 C373.262562,280.072019 313.607259,336 240.892441,336 C164.183911,336 102,273.765452 102,197 C102,120.232067 164.188869,58 240.89492,58 L240.89492,58 Z M134.083566,251.362504 L146.027518,203.859818 L143.860849,201.698913 C143.860849,201.698913 140.462103,206.177022 140.462103,208.496707 L135.593294,205.968622 L143.731939,181.193889 L194.735439,141.563246 L253.981703,124.293376 L260.508981,112.623003 L269.378939,111.687686 L268.439388,106.552127 L284.771218,107.953862 L289.902803,105.147911 L302.962317,107.487444 L299.699918,110.75485 L310.895203,115.423992 L304.362967,117.756082 L316.026789,130.830671 L310.910077,131.304532 L335.152482,168.642779 L335.621018,193.856641 L335.25908,194.98299 C339.927087,199.036857 342.527587,201.713799 350.286941,202.403502 C354.117038,202.740911 357.577759,202.229836 360.634399,201.06131 C360.679022,199.714156 360.701415,198.359559 360.701415,197.002481 C360.719542,181.427747 357.698067,165.999383 351.806584,151.58379 C347.153451,151.650776 342.577167,152.955753 338.704927,154.997573 L337.232385,153.159191 C340.350296,149.461555 344.205739,146.456611 348.551622,144.336945 C329.06895,104.525193 288.177401,77.1008085 240.892441,77.1008085 C174.722255,77.1008085 121.08107,130.783533 121.08107,197.004962 C121.086028,216.569707 125.76891,235.045317 134.083566,251.362504 L134.083566,251.362504 Z M255.858327,241.659521 L239.868603,226.369447 L239.541371,217.271815 L237.163985,217.460367 L237.476342,227.046745 L252.913243,241.91754 L244.551485,260.73552 C244.13005,261.690685 246.400839,272.180127 246.400839,272.180127 L219.446379,272.180127 L224.929987,234.176986 L217.212776,237.742106 L215.264261,233.539383 L209.282369,237.273208 L206.865318,233.072965 L197.668128,233.172203 L190.823534,259.204776 L196.381513,272.185089 L164.580556,272.185089 C164.580556,272.185089 167.870224,251.310404 167.39673,244.405929 C167.376898,244.137987 176.752578,226.32479 176.752578,226.32479 L191.961408,228.607261 L193.104239,226.32479 L175.232934,224.042319 L156.635274,260.502311 L158.075589,272.185089 L147.562036,272.185089 C169.521256,299.453174 203.171568,316.901672 240.89492,316.901672 C299.263609,316.901672 347.879806,275.132454 358.532184,219.82719 C350.765393,220.792279 343.120074,218.889393 336.04741,216.423332 C333.548551,215.550038 331.039776,214.282275 328.590497,212.739126 L305.887569,227.840648 L316.026789,242.880147 L307.203932,240.788709 L305.267812,247.31608 L294.474129,228.143324 L313.158555,203.859818 L307.600576,197.982455 L303.200304,201.994146 L291.54144,188.711157 L284.43407,192.115016 L276.657362,222.417299 C276.657362,222.476842 283.829187,262.96341 283.829187,262.96341 L289.944947,272.185089 L254.343641,272.185089 L255.858327,241.659521 L255.858327,241.659521 Z" id="Shape" fill="#000000"></path>
            <path d="M302.656885,144.850028 L305.311287,146.505782 L302.987133,148.161536 L300,145.182668 L302.656885,144.850028 L302.656885,144.850028 Z M388,181.646492 C388,168.497273 385.467269,156.537119 372.927765,147.749459 C364.261851,141.680016 351.948307,143.176897 342.646727,150.810246 C351.923476,148.01011 363.238826,149.09988 371.226862,158.535443 C385.742889,175.686274 374.718059,207.366533 349.423025,205.11997 C339.642212,204.243686 337.434763,200.626844 330.541761,195.041467 C327.865011,192.869376 322.116704,184.324991 319.814898,180.919152 C314.878555,178.585705 308.156885,183.801206 308.884424,189.994769 C314.970429,199.661195 325.493679,210.752512 336.158465,214.471132 C348.325508,218.711054 361.351693,220.952652 373.826637,210.357812 C382.221896,203.218459 388,194.401011 388,181.646492 L388,181.646492 Z" id="Shape" fill="#FFFFFF"></path>
            <polygon id="Path" fill="#000000" points="457 354 457 420 21 420 21 354"></polygon>
            <path d="M40,406.387277 L57.3400111,406.387277 L60.4476111,390.993104 C60.651144,389.467354 60.7926242,387.886935 60.9266581,386.361185 L61.5471853,386.361185 C61.6837012,387.991303 62.1677124,389.519538 62.7162584,391.149655 L69.4626298,406.389762 L80.4757459,406.389762 L87.9791604,390.183015 C88.5351527,388.962912 88.8776837,387.640927 89.2226968,386.36367 L89.5677099,386.36367 L93.0128767,406.392247 L110.352888,406.392247 L101.814434,368.007455 L82.6103593,368.007455 C82.6103593,368.007455 75.7969711,386.482947 75.451958,388.165248 L74.972911,388.165248 L67.8120275,368.007455 L48.3994557,368.007455 L40,406.387277 Z M136.928825,401.598807 L135.052351,406.387277 L116.893244,406.387277 L134.935692,368.002485 L155.790369,368.002485 L174.311864,406.387277 L156.155239,406.387277 L154.07275,401.598807 L136.928825,401.598807 Z M145.191765,380.775051 L140.845593,392.484065 C150.213071,392.503945 150.225481,392.484065 150.225481,392.484065 L147.658981,385.717587 C147.110435,384.084985 146.224322,382.407654 145.881791,380.775051 L145.191765,380.775051 L145.191765,380.775051 Z M366.566072,368 L366.566072,388.378953 C366.566072,391.380754 366.424592,394.029695 361.403286,394.029695 C356.377016,394.029695 356.2405,391.380754 356.2405,388.378953 L356.2405,368 L337.376474,368 L337.376474,391.706281 C337.376474,402.903398 346.873022,408 361.403286,408 C375.928586,408 385.430098,402.903398 385.430098,391.706281 L385.430098,368 L366.566072,368 Z M394.34335,380.62347 L404.738421,380.62347 L404.738421,406.387277 L423.602447,406.387277 L423.602447,380.62347 L434,380.62347 L434,368 L394.34335,368 L394.34335,380.62347 L394.34335,380.62347 Z M180.7579,406.399702 L198.097911,406.399702 L201.205511,391.008014 C201.411526,389.479779 201.550524,387.901845 201.684558,386.37361 L202.307567,386.37361 C202.441601,387.998758 202.92313,389.534447 203.47664,391.16208 L210.225494,406.402187 L221.23861,406.402187 L228.742024,390.197925 C229.295535,388.975337 229.640548,387.653352 229.985561,386.376095 L230.323128,386.376095 L233.775741,406.404672 L251.115752,406.404672 L242.57978,368.01491 L223.375706,368.01491 C223.375706,368.01491 216.562317,386.497857 216.217304,388.177673 L215.730811,388.177673 L208.574892,368.01491 L189.159838,368.01491 L180.7579,406.399702 L180.7579,406.399702 Z M259.830435,406.399702 L277.170447,406.399702 L280.273082,391.008014 C280.481579,389.479779 280.618095,387.901845 280.757094,386.37361 L281.372656,386.37361 C281.514137,387.998758 281.993184,389.534447 282.54173,391.16208 L289.295547,406.402187 L300.311146,406.402187 L307.81456,390.197925 C308.363106,388.975337 308.705637,387.653352 309.05065,386.376095 L309.395663,386.376095 L312.848276,406.404672 L330.188287,406.404672 L321.652316,368.01491 L302.450723,368.01491 C302.450723,368.01491 295.629889,386.497857 295.279911,388.177673 L294.800864,388.177673 L287.644945,368.01491 L268.229891,368.01491 L259.830435,406.399702 L259.830435,406.399702 Z" id="Shape" fill="#CB3B36"></path>
        </g>
    </g>
</svg>