<?xml version="1.0" encoding="utf-8"?>
<!-- Generator: Adobe Illustrator 24.0.1, SVG Export Plug-In . SVG Version: 6.00 Build 0)  -->
<svg version="1.1" id="Ebene_1" xmlns="http://www.w3.org/2000/svg" xmlns:xlink="http://www.w3.org/1999/xlink" x="0px" y="0px"
	 viewBox="0 0 500 450.6" style="enable-background:new 0 0 500 450.6;" xml:space="preserve">
<g fill="#FFFFFF">
	<path d="M500,203.2c0-1.5-0.6-2.9-1.6-3.9l-71.2-70.9c-2.2-2.2-5.7-2.2-7.8,0l-84.4,84L292.1,79.3c-2.8-18.5-17.8-33.1-36.5-35.6
		V7.5c0-3-2.5-5.5-5.5-5.5c-3.1,0-5.5,2.5-5.5,5.5v36.2c-17.7,2.3-32.1,15.5-35.9,32.7l-43.8,135.7l-84.1-83.7c-1-1-2.4-1.6-3.9-1.6
		s-2.9,0.6-3.9,1.6L1.6,199.3c-2.2,2.2-2.2,5.6,0,7.8l43.6,43.4l0,0l0,0l81.1,80.8l-32.2,99.8c-0.9,2.7,0.5,5.6,3.1,6.8
		c0.7,0.3,1.5,0.5,2.2,0.5c2,0,3.8-1,4.9-2.9l45.1-81.2l96.7,96.3c1,1,2.4,1.6,3.9,1.6s2.9-0.6,3.9-1.6l26.2-26.1l0,0l0,0l70.2-69.9
		l44.9,80.9c1,1.8,2.9,2.9,4.9,2.9c0.7,0,1.5-0.1,2.2-0.5c2.6-1.1,4-4,3.1-6.8l-32.1-99.5l80-79.6l0,0l0,0l45-44.8
		C499.4,206,500,204.6,500,203.2z M250,54.4c17.3,0,31.5,14,31.5,31.3S267.4,117,250,117s-31.5-14-31.5-31.3S232.7,54.4,250,54.4z
		 M114.7,304l13.6-13.5c2.2-2.2,2.2-5.6,0-7.8c-2.2-2.2-5.7-2.2-7.8,0l-13.6,13.5L57,246.5L70.5,233c2.2-2.2,2.2-5.6,0-7.8
		c-2.2-2.2-5.7-2.2-7.8,0l-13.6,13.5l-35.7-35.6L76.8,140l84.2,83.8l-30.8,95.5L114.7,304z M211.3,103.8l32.2,58L122.1,380.4
		L211.3,103.8z M294.1,253L250,296.9l-44.3-44.1l44.2-79.5L294.1,253z M334,355.1l-13.6-13.5c-2.2-2.2-5.7-2.2-7.8,0
		c-2.2,2.2-2.2,5.6,0,7.8l13.6,13.5l-49.9,49.7L262.7,399c-2.2-2.2-5.7-2.2-7.8,0c-2.2,2.2-2.2,5.6,0,7.8l13.6,13.5L250,438.7
		l-19.9-19.8l13.6-13.5c2.2-2.2,2.2-5.6,0-7.8s-5.7-2.2-7.8,0l-13.6,13.5l-49.9-49.7l13.6-13.5c2.2-2.2,2.2-5.6,0-7.8
		s-5.7-2.2-7.8,0l-13.6,13.5L155,344l45.1-81.3l46,45.8c2.2,2.2,5.7,2.2,7.8,0l45.8-45.6l45.1,81.3L334,355.1z M236.1,125.7
		c4.4,1.5,9,2.3,13.9,2.3c16.9,0,31.5-9.8,38.4-24.1l89.1,276.4L236.1,125.7z M449.4,240.2l-13.6-13.5c-2.2-2.2-5.7-2.2-7.8,0
		c-2.2,2.2-2.2,5.6,0,7.8l13.6,13.5l-49.9,49.7l-13.6-13.5c-2.2-2.2-5.7-2.2-7.8,0c-2.2,2.2-2.2,5.6,0,7.8l13.6,13.5l-14.3,14.2
		l-30.8-95.5l84.5-84.1l63.4,63.1L449.4,240.2z"/>
	<path d="M250,105.4c10.9,0,19.8-8.8,19.8-19.7c0-10.9-8.9-19.7-19.8-19.7c-10.9,0-19.8,8.8-19.8,19.7
		C230.2,96.6,239.1,105.4,250,105.4z M250,77.1c4.8,0,8.7,3.9,8.7,8.6c0,4.8-3.9,8.6-8.7,8.6s-8.7-3.9-8.7-8.6
		C241.3,80.9,245.2,77.1,250,77.1z"/>
</g>
</svg>
