<?xml version="1.0" encoding="UTF-8"?>
<svg width="24px" height="26px" viewBox="0 0 24 26" version="1.1" xmlns="http://www.w3.org/2000/svg" xmlns:xlink="http://www.w3.org/1999/xlink">
    <!-- Generator: Sketch 62 (91390) - https://sketch.com -->
    <title>noun_Beer Tap_1017782</title>
    <desc>Created with Sketch.</desc>
    <g id="Real-content" stroke="none" stroke-width="1" fill="none" fill-rule="evenodd">
        <g id="noun_Beer-Tap_1017782" fill="#FFFFFF" fill-rule="nonzero">
            <path d="M14.0548287,10.0655994 C14.0122287,9.52019943 13.9666287,9.00839946 13.9240287,8.55719949 C13.8934287,8.22719951 14.1364287,7.93499953 14.4658287,7.90379953 C14.7928287,7.87079953 15.0880286,8.11619952 15.1192286,8.4455995 C15.1612286,8.90159947 15.2068286,9.41879944 15.2512286,9.97019941 C15.2770286,10.3007994 15.0304286,10.5893994 14.7004287,10.6157994 C14.6842287,10.6169994 14.6680287,10.6176005 14.6524287,10.6176005 C14.3422287,10.6181994 14.0800287,10.3799994 14.0548287,10.0655994 Z M13.5160287,21.8009987 C13.5790287,21.8225987 13.6444287,21.8327987 13.7074287,21.8327987 C13.9576287,21.8327987 14.1916287,21.6749987 14.2756287,21.4241987 C14.8078287,19.8485988 15.1774286,18.0119989 15.3754286,15.965999 C15.4702286,14.9873991 15.4714286,13.6163992 15.3796286,11.8907993 C15.3610286,11.5595993 15.0766286,11.3069993 14.7478287,11.3237993 C14.4172287,11.3417993 14.1628287,11.6243993 14.1808287,11.9555993 C14.2696287,13.6211992 14.2702287,14.9315991 14.1814287,15.8501991 C13.9924287,17.8055989 13.6414287,19.5521988 13.1392288,21.0407987 C13.0336288,21.3545987 13.2022287,21.6947987 13.5160287,21.8009987 Z M23.6656281,14.3387991 C23.4454281,16.624199 22.1110282,19.5911988 19.9864283,20.8415988 C19.1746284,21.3197987 18.4324284,21.5291987 17.8354285,21.6971987 C17.2708285,21.8567987 16.8610285,21.9761987 16.5892285,22.2377987 C16.2256286,23.2091986 15.8326286,23.9177986 15.4534286,24.5033985 C15.1222286,25.0163985 14.4616287,25.1993985 13.9534287,25.1993985 L6.20682917,25.1993985 C5.86422919,25.1993985 5.02362924,25.1351985 4.63362926,24.5375985 C4.28862928,24.0053986 3.40002933,22.1003987 3.39042933,22.0043987 C2.89122936,20.6285988 2.43102939,18.7397989 2.17182941,16.061999 C2.15922941,15.9311991 2.15082941,15.7901991 2.14122941,15.6515991 C2.01222942,15.6905991 1.87602942,15.7175991 1.72962943,15.7175991 C1.61742944,15.7175991 1.50042945,15.7049991 1.37922945,15.6761991 C0.875829484,15.5579991 0.465429508,15.2501991 0.223029522,14.8109991 C-0.0265704627,14.3585991 -0.0685704601,13.8077992 0.106629529,13.2983992 C0.43482951,12.3461993 0.6010295,11.4149993 0.6010295,10.5323994 C0.6010295,10.3157994 0.533229504,9.88979941 0.461829508,9.43859944 C0.27162952,8.24339951 0.0106295351,6.60659961 0.392829512,5.46359967 C1.09602947,3.3617998 2.93502936,3.00779982 3.9238293,2.81819983 C4.10442929,2.78339983 4.35102928,2.73599984 4.41882927,2.70299984 C4.43502927,2.68619984 4.56282926,2.52299985 4.66602926,2.40299986 C5.33202922,1.6265999 6.71682914,1.59872116e-13 9.23622899,1.59872116e-13 C9.24582898,1.59872116e-13 9.25422898,1.59872116e-13 9.26382898,1.59872116e-13 C12.1636288,1.59872116e-13 13.5874287,1.6019999 14.0566287,2.27339986 C14.6524287,2.23199987 15.2770286,2.32739986 15.8392286,2.59199985 C17.2816285,3.26879981 17.8486285,4.73459972 17.3728285,6.51839961 C17.3734285,6.52199961 17.3752285,6.52439961 17.3758285,6.52799961 C17.3878285,6.62459961 17.4988285,7.54919955 17.6146285,8.84459947 C18.1558285,8.60039949 18.8302284,8.4101995 19.6222284,8.4101995 C19.7500284,8.4101995 19.8802284,8.4137995 20.0104283,8.4263995 C20.9806283,8.49959949 21.8470282,8.95139947 22.5028282,9.73079942 C23.4178281,10.8209994 23.8414281,12.5009993 23.6656281,14.3387991 Z M17.8102285,16.252199 C17.7298285,17.083199 17.6326285,17.8283989 17.5234285,18.5063989 C17.6032285,18.5999989 17.7076285,18.6281989 17.9710285,18.6281989 C18.1900285,18.6281989 18.4060284,18.5669989 18.6304284,18.4421989 C19.8136284,17.7809989 20.7712283,15.6503991 20.9242283,14.0741992 C21.0268283,12.9989992 20.8234283,12.0143993 20.3938283,11.5061993 C20.2180283,11.2955993 20.0272283,11.1911993 19.7908284,11.1719993 C19.7362284,11.1677993 19.6786284,11.1659993 19.6252284,11.1659993 C19.0486284,11.1659993 18.7726284,11.5037993 18.5602284,11.8685993 L18.5050284,11.9741993 C18.4144284,12.1583993 18.2194284,12.5453993 17.8684285,12.7649992 C17.9104285,14.0159992 17.9068285,15.2519991 17.8102285,16.252199 Z M2.09082941,14.2823991 C2.06142941,10.9349993 2.58042938,6.7349996 2.60622938,6.52559961 C2.64342938,6.22499963 2.89902936,5.99999964 3.20142934,5.99999964 L3.37842933,5.99999964 C3.62982932,5.99999964 4.43442927,6.6701996 4.70322926,6.87959959 C5.21562922,7.27799957 5.79642919,7.72919954 6.48642915,7.72919954 C7.3210291,7.72919954 8.03982906,7.26359957 8.67402902,6.85199959 C8.936229,6.6827996 9.91662894,5.99999964 10.3036289,5.99999964 L16.2616286,5.99999964 C16.4950286,4.89539971 16.1740286,4.07399976 15.3298286,3.67799978 C15.1042286,3.57179979 14.8600287,3.50699979 14.6128287,3.47759979 C14.2144287,3.4295998 13.7908287,3.46619979 13.4200287,3.62639978 C13.2634287,3.69419978 13.1134288,3.78599977 12.9958288,3.91139977 C12.9346288,3.97619976 12.8872288,4.05119976 12.8206288,4.11059975 C12.7360288,4.18619975 12.6304288,4.23839975 12.5182288,4.25819975 C12.3604288,4.28579974 12.1894288,4.24679975 12.0598288,4.15439975 C12.0070288,4.11659975 11.0026289,3.4025998 10.0168289,4.11839975 C9.74862895,4.31339974 9.37362898,4.25459975 9.17922899,3.98579976 C8.984229,3.71819978 9.043029,3.3425998 9.31182898,3.14819981 C10.4098289,2.34959986 11.5834288,2.56859985 12.3178288,2.91959983 C12.4612288,2.80019983 12.6226288,2.69939984 12.7960288,2.61179984 C12.2734288,2.04119988 11.1802289,1.19999993 9.25782898,1.19999993 C9.25062898,1.19999993 9.24342898,1.19999993 9.23622899,1.19999993 C7.2688291,1.19999993 6.20922917,2.44739985 5.5750292,3.18539981 C5.39322921,3.3977998 5.26182922,3.55799979 5.12142923,3.66599978 C4.88442924,3.84899977 4.55982926,3.91499977 4.14942929,3.99419976 C3.24642934,4.16759975 2.01042942,4.40699974 1.52982944,5.84399965 C1.24122946,6.7073996 1.47522945,8.17739951 1.64562944,9.25019945 C1.73262943,9.79259942 1.80042943,10.2215994 1.80042943,10.5329994 C1.80042943,11.5493993 1.61202944,12.6119992 1.24002946,13.6901992 C1.17522947,13.8785992 1.18662947,14.0765992 1.27302946,14.2325992 C1.35042946,14.3729991 1.48242945,14.4695991 1.65282944,14.5091991 C1.84182943,14.5571991 2.00322942,14.3957991 2.09082941,14.2823991 Z M3.36582934,15.9299991 C3.62022932,18.5603989 4.06962929,20.3567988 4.54902926,21.6497987 C4.85802925,21.9557987 5.7130292,22.1999996 6.39702915,22.1999996 L13.6204287,22.1999996 C14.2606287,22.1999996 15.1618286,21.8693987 15.5506286,21.5393987 C15.9622286,20.3501988 16.3714286,18.6653989 16.6162285,16.136999 C16.8754285,13.4399992 16.4152286,8.76539948 16.2442286,7.19999957 L10.5226289,7.19999957 C10.3030289,7.19999957 9.58122896,7.69379954 9.32562898,7.85939953 C8.62902902,8.3111995 7.67502908,8.92919947 6.48582915,8.92919947 C5.38482921,8.92919947 4.56522926,8.29199951 3.9670293,7.82699953 C3.8812293,7.76099954 3.78222931,7.68479954 3.68982932,7.61699955 C3.49662933,9.43379944 3.12642935,13.4519992 3.36582934,15.9299991 Z M14.4460287,23.8349986 C14.5426287,23.6855986 14.6644287,23.4785986 14.8012287,23.2361986 C14.3818287,23.3639986 13.9648287,23.3999986 13.6198287,23.3999986 L6.39642915,23.3999986 C6.05622917,23.3999986 5.6782292,23.3849986 5.30442922,23.2943986 C5.42022921,23.4995986 5.53302921,23.7197986 5.6392292,23.8841986 C5.6734292,23.9159986 5.89242918,23.9999986 6.20682917,23.9999986 L13.9540287,23.9999986 C14.2180287,23.9999986 14.4118287,23.8877986 14.4460287,23.8349986 Z M21.5848282,10.5029994 C21.1420283,9.97619941 20.5618283,9.67139942 19.9084283,9.62159943 C19.8052284,9.61199943 19.7128284,9.60959943 19.6222284,9.60959943 C18.8212284,9.60959943 18.1780285,9.86939941 17.7214285,10.1405994 C17.7400285,10.3871994 17.7574285,10.6403994 17.7742285,10.8971994 C18.3046284,10.2107994 18.9868284,9.90899941 19.8808284,9.97499941 C20.4406283,10.0187994 20.9338283,10.2809994 21.3124283,10.7333994 C21.9598282,11.5001993 22.2544282,12.7607992 22.1182282,14.1887992 C21.9328282,16.101599 20.7970283,18.6059989 19.2148284,19.4897988 C18.8122284,19.7141988 18.3940284,19.8275988 17.9710285,19.8275988 C17.8186285,19.8275988 17.5666285,19.8257988 17.2954285,19.7411988 C17.2264285,20.0681988 17.1550285,20.3789988 17.0800285,20.6681988 C17.2216285,20.6243988 17.3644285,20.5829988 17.5102285,20.5415988 C18.0682285,20.3843988 18.7000284,20.2055988 19.3774284,19.8071988 C21.0736283,18.8087989 22.2826282,16.184399 22.4716282,14.2235992 C22.6168282,12.7043992 22.2934282,11.3477993 21.5848282,10.5029994 Z" id="Shape"></path>
        </g>
    </g>
</svg>