<?xml version="1.0" encoding="UTF-8"?>
<svg width="36px" height="28px" viewBox="0 0 36 28" version="1.1" xmlns="http://www.w3.org/2000/svg" xmlns:xlink="http://www.w3.org/1999/xlink">
    <!-- Generator: Sketch 62 (91390) - https://sketch.com -->
    <title>noun_bridge_627921</title>
    <desc>Created with Sketch.</desc>
    <g id="Real-content" stroke="none" stroke-width="1" fill="none" fill-rule="evenodd">
        <g id="noun_bridge_627921" fill="#FFFFFF" fill-rule="nonzero">
            <g id="Group">
                <path d="M29.1456022,7.65600058 L29.1456022,6.69680045 C29.1456022,6.08928721 28.6531154,5.59680043 28.0456022,5.59680043 L27.2448021,5.59680043 L27.2448021,5.59680043 L27.2448021,3.22080025 C27.8784021,3.00960023 28.3536022,2.42880019 28.3536022,1.68960013 C28.3536022,0.79200006 27.6144021,0.052800004 26.716802,0.052800004 C25.819202,0.052800004 25.0800019,0.79200006 25.0800019,1.68960013 C25.0800019,2.37600018 25.555202,3.00960023 26.188802,3.22080025 L26.188802,5.59680043 L25.3880019,5.59680043 C24.7804886,5.59680043 24.2880019,6.08928721 24.2880019,6.69680045 L24.2880019,7.65600058 L24.2880019,7.65600058 L11.6688009,7.65600058 L11.6688009,6.69680045 C11.6688009,6.08928721 11.1763141,5.59680043 10.5688009,5.59680043 L9.76800075,5.59680043 L9.76800075,5.59680043 L9.76800075,3.22080025 C10.4016008,3.00960023 10.8768008,2.42880019 10.8768008,1.68960013 C10.8768008,0.79200006 10.1376008,0.052800004 9.24000071,0.052800004 C8.34240064,0.052800004 7.60320058,0.79200006 7.60320058,1.68960013 C7.60320058,2.37600018 8.07840062,3.00960023 8.71200066,3.22080025 L8.71200066,5.59680043 L7.96400055,5.59680043 C7.35648731,5.59680043 6.86400052,6.08928721 6.86400052,6.69680045 L6.86400052,7.65600058 L6.86400052,7.65600058 L1.10000002,7.65600058 C0.492486786,7.65600058 -7.43989142e-17,8.14848737 0,8.75600061 L0,9.71520074 L0,9.71520074 L0,10.7712008 L0,11.6688009 C-1.18553385e-15,11.9604073 0.23639367,12.1968009 0.52800004,12.1968009 L0.52800004,12.1968009 L0.52800004,12.1968009 C3.32640025,12.1968009 5.86080045,13.9392011 6.86400052,16.5264013 L6.86400052,16.9488013 L6.86400052,19.9056015 L6.38880049,19.9056015 C6.09719412,19.9056015 5.86080045,20.1419952 5.86080045,20.4336016 C5.86080045,20.7252079 6.09719412,20.9616016 6.38880049,20.9616016 L6.86400052,20.9616016 L6.86400052,20.9616016 L11.7216009,20.9616016 L15.5232012,20.9616016 C15.8148076,20.9616016 16.0512012,20.7252079 16.0512012,20.4336016 C16.0512012,20.1419952 15.8148076,19.9056015 15.5232012,19.9056015 L11.7216009,19.9056015 L11.7216009,19.9056015 L11.7216009,16.4736013 C12.777601,13.9392011 15.2592012,12.1968009 18.0048014,12.1968009 C20.7504016,12.1968009 23.2848018,13.8864011 24.2880019,16.4736013 L24.2880019,19.8616016 C24.2880019,20.4691148 24.7804886,20.9616016 25.3880019,20.9616016 L28.0456022,20.9616016 C28.6531154,20.9616016 29.1456022,20.4691148 29.1456022,19.8616016 L29.1456022,16.9488013 L29.1456022,16.9488013 L29.1456022,16.3152012 C30.2016023,13.8336011 32.6832025,12.2496009 35.3760027,12.2496009 C35.6676091,12.2496009 35.9040027,12.0132073 35.9040027,11.7216009 L35.9040027,10.8240008 L35.9040027,10.8240008 L35.9040027,9.76800075 L35.9040027,8.80880061 C35.9040027,8.20128737 35.411516,7.70880059 34.8040027,7.70880059 L29.1456022,7.70880059 L29.1456022,7.70880059 L29.1456022,7.65600058 Z M26.716802,1.16160009 C27.0336021,1.16160009 27.2976021,1.42560011 27.2976021,1.74240013 C27.2976021,2.05920016 27.0336021,2.32320018 26.716802,2.32320018 C26.400002,2.32320018 26.136002,2.05920016 26.136002,1.74240013 C26.136002,1.42560011 26.400002,1.16160009 26.716802,1.16160009 Z M9.29280071,1.16160009 C9.60960073,1.16160009 9.87360075,1.42560011 9.87360075,1.74240013 C9.87360075,2.05920016 9.60960073,2.32320018 9.29280071,2.32320018 C8.97600068,2.32320018 8.71200066,2.05920016 8.71200066,1.74240013 C8.71200066,1.42560011 8.97600068,1.16160009 9.29280071,1.16160009 Z M25.3440019,6.65280051 L28.0896021,6.65280051 L28.0896021,7.65600058 L25.3440019,7.65600058 L25.3440019,6.65280051 Z M7.9200006,6.65280051 L10.6656008,6.65280051 L10.6656008,7.65600058 L7.9200006,7.65600058 L7.9200006,6.65280051 Z M1.05600008,11.1936009 L1.05600008,10.8240008 L6.86400052,10.8240008 L6.86400052,14.4144011 C5.49120042,12.566401 3.37920026,11.3520009 1.05600008,11.1936009 Z M7.9200006,19.9056015 L7.9200006,16.9488013 L10.6656008,16.9488013 L10.6656008,19.9056015 L7.9200006,19.9056015 Z M18.0048014,11.1936009 C14.8896011,11.1936009 12.0384009,13.094401 10.7712008,15.9456012 L7.9200006,15.9456012 L7.9200006,10.8240008 L28.1424021,10.8240008 L28.1424021,15.9456012 L25.2384019,15.9456012 C23.9712018,13.041601 21.1200016,11.1936009 18.0048014,11.1936009 Z M28.0896021,19.9056015 L25.3440019,19.9056015 L25.3440019,16.9488013 L28.0896021,16.9488013 L28.0896021,17.6999546 L28.0896021,19.9056015 Z M34.8480027,11.1936009 C32.5776025,11.3520009 30.5184023,12.513601 29.1456022,14.2560011 L29.1456022,10.8240008 L34.8480027,10.8240008 L34.8480027,11.1936009 Z M29.1456022,9.76800075 L28.5648022,9.76800075 L7.33920056,9.76800075 L6.81120052,9.76800075 L1.05600008,9.76800075 L1.05600008,8.76480067 L6.86400052,8.76480067 L11.7216009,8.76480067 L24.2880019,8.76480067 L29.1456022,8.76480067 L34.8480027,8.76480067 L34.8480027,9.76800075 L29.1456022,9.76800075 Z" id="Shape"></path>
                <rect id="Rectangle" x="12.883201" y="21.9648017" width="10.0320008" height="1.05600008"></rect>
                <rect id="Rectangle" x="9.66240074" y="23.9712018" width="6.38880049" height="1.05600008"></rect>
                <rect id="Rectangle" x="14.9952011" y="25.977602" width="3.9600003" height="1.05600008"></rect>
            </g>
        </g>
    </g>
</svg>