<?xml version="1.0" encoding="utf-8"?>
<!-- Generator: Adobe Illustrator 24.0.1, SVG Export Plug-In . SVG Version: 6.00 Build 0)  -->
<svg version="1.1" id="Ebene_1" xmlns="http://www.w3.org/2000/svg" xmlns:xlink="http://www.w3.org/1999/xlink" x="0px" y="0px"
	 viewBox="0 0 78.1 70.7" style="enable-background:new 0 0 78.1 70.7;" xml:space="preserve">
<style type="text/css">
	.st0{fill:#FFFFFF;}
</style>
<g>
	<path class="st0" d="M69.2,57.1h-1.3V23.8H70c0.3,0,0.6-0.1,0.8-0.4s0.3-0.5,0.2-0.8L67.9,7.2c-0.1-0.5-0.5-0.8-1-0.8H11.1
		c-0.5,0-0.9,0.3-1,0.8L7,22.6c0,0.2,0,0.6,0.2,0.8c0.2,0.2,0.5,0.4,0.8,0.4h2.1v33.4H8.8C7.8,57.2,7,58,7,59v3.6
		c0,1,0.8,1.8,1.8,1.8h60.3c1,0,1.8-0.8,1.8-1.8V59C71,58,70.2,57.1,69.2,57.1z M11.9,8.4H66l2.7,13.4c-18.9,0-40.3,0-59.6,0
		L11.9,8.4z M12.1,23.8h53.8v33.4H33.8V33.6c0-0.6-0.4-1-1-1H16.1c-0.6,0-1,0.4-1,1v23.5h-3C12.1,57.1,12.1,23.8,12.1,23.8z
		 M31.8,57.1H17.1V34.6h14.7V57.1z M69,62.4H9v-3.3c22.2,0,46,0,60,0V62.4z"/>
	<path class="st0" d="M39.9,54.1h22c0.6,0,1-0.4,1-1V33.6c0-0.6-0.4-1-1-1c-7.5,0-13.8,0-22,0c-0.6,0-1,0.4-1,1v19.5
		C38.9,53.7,39.3,54.1,39.9,54.1z M40.9,44.4h9v7.8h-9V44.4z M51.9,52.1v-7.7h9v7.8L51.9,52.1L51.9,52.1z M60.9,42.4h-9v-7.7h9V42.4
		z M49.9,34.6v7.8h-9v-7.7L49.9,34.6L49.9,34.6z"/>
</g>
</svg>
