<?xml version="1.0" encoding="UTF-8"?>
<svg width="19px" height="19px" viewBox="0 0 19 19" version="1.1" xmlns="http://www.w3.org/2000/svg" xmlns:xlink="http://www.w3.org/1999/xlink">
    <!-- Generator: Sketch 60.1 (88133) - https://sketch.com -->
    <desc>Created with Sketch.</desc>
    <g id="Real-content" stroke="none" stroke-width="1" fill="none" fill-rule="evenodd">
        <g id="Checkpoints-detail" transform="translate(-1078.000000, -1005.000000)" fill="#000000" fill-rule="nonzero">
            <g id="travel-times" transform="translate(1067.000000, 994.000000)">
                <g id="icon-copy">
                    <g id="car" transform="translate(11.000000, 11.000000)">
                        <path d="M17.7659995,15.8759996 C17.9747311,15.8759996 18.1439995,15.7067312 18.1439995,15.4979996 L18.1439995,9.44999975 C18.1439995,9.24126816 17.9747311,9.07199976 17.7659995,9.07199976 L16.9233998,9.07199976 L15.1075634,2.17179894 C15.0638666,2.00574355 14.9136872,1.88999995 14.7419996,1.88999995 L12.0959997,1.88999995 L12.0959997,0.37799999 C12.0959997,0.169230596 11.9267313,0 11.7179997,0 L5.66999985,0 C5.46123046,0 5.29199986,0.169230596 5.29199986,0.37799999 L5.29199986,1.88999995 L3.40199991,1.88999995 C3.23031231,1.88999995 3.08013292,2.00574355 3.03643612,2.17179894 L1.22059977,9.07199976 L0.37799999,9.07199976 C0.169230596,9.07199976 0,9.24126816 0,9.44999975 L0,15.4979996 C0,15.7067312 0.169230596,15.8759996 0.37799999,15.8759996 L1.88999995,15.8759996 L1.88999995,17.3879995 L0.37799999,17.3879995 C0.169230596,17.3879995 0,17.5572679 0,17.7659995 C0,17.9747311 0.169230596,18.1439995 0.37799999,18.1439995 C0.943298975,18.1439995 16.1630906,18.1439995 17.7659995,18.1439995 C17.9747311,18.1439995 18.1439995,17.9747311 18.1439995,17.7659995 C18.1439995,17.5572679 17.9747311,17.3879995 17.7659995,17.3879995 L16.2539996,17.3879995 L16.2539996,15.8759996 L17.7659995,15.8759996 Z M6.04799984,0.75599998 L11.3399997,0.75599998 L11.3399997,1.88999995 L6.04799984,1.88999995 L6.04799984,0.75599998 Z M3.6934001,2.64599993 C5.98801124,2.64599993 12.1502049,2.64599993 14.4505994,2.64599993 L16.1416202,9.07199976 L2.00234155,9.07199976 L3.6934001,2.64599993 Z M0.75599998,9.82799974 C2.82906533,9.82799974 14.6082632,9.82799974 17.3879995,9.82799974 L17.3879995,15.1199996 C16.7327366,15.1199996 0.858664777,15.1199996 0.75599998,15.1199996 L0.75599998,9.82799974 Z M13.2299996,15.8759996 L13.2299996,17.3879995 L4.91399987,17.3879995 L4.91399987,15.8759996 L13.2299996,15.8759996 Z M2.64599993,17.3879995 L2.64599993,15.8759996 L4.15799989,15.8759996 L4.15799989,17.3879995 L2.64599993,17.3879995 Z M15.4979996,17.3879995 L13.9859996,17.3879995 L13.9859996,15.8759996 L15.4979996,15.8759996 L15.4979996,17.3879995 Z" id="Shape"></path>
                        <path d="M5.29199986,12.4739997 C5.29199986,11.4318537 4.44414588,10.5839997 3.40199991,10.5839997 C2.35985394,10.5839997 1.51199996,11.4318537 1.51199996,12.4739997 C1.51199996,13.5161456 2.35985394,14.3639996 3.40199991,14.3639996 C4.44414588,14.3639996 5.29199986,13.5161456 5.29199986,12.4739997 Z M2.26799994,12.4739997 C2.26799994,11.8487121 2.77671233,11.3399997 3.40199991,11.3399997 C4.02728749,11.3399997 4.53599988,11.8487121 4.53599988,12.4739997 C4.53599988,13.0992873 4.02728749,13.6079996 3.40199991,13.6079996 C2.77671233,13.6079996 2.26799994,13.0992873 2.26799994,12.4739997 Z" id="Shape"></path>
                        <path d="M14.7419996,14.3639996 C15.7841456,14.3639996 16.6319996,13.5161456 16.6319996,12.4739997 C16.6319996,11.4318537 15.7841456,10.5839997 14.7419996,10.5839997 C13.6998536,10.5839997 12.8519997,11.4318537 12.8519997,12.4739997 C12.8519997,13.5161456 13.6998536,14.3639996 14.7419996,14.3639996 Z M14.7419996,11.3399997 C15.3672872,11.3399997 15.8759996,11.8487121 15.8759996,12.4739997 C15.8759996,13.0992873 15.3672872,13.6079996 14.7419996,13.6079996 C14.116712,13.6079996 13.6079996,13.0992873 13.6079996,12.4739997 C13.6079996,11.8487121 14.116712,11.3399997 14.7419996,11.3399997 Z" id="Shape"></path>
                        <path d="M6.42599983,12.8519997 L11.7179997,12.8519997 C11.9267313,12.8519997 12.0959997,12.6827313 12.0959997,12.4739997 C12.0959997,12.2652681 11.9267313,12.0959997 11.7179997,12.0959997 L6.42599983,12.0959997 C6.21723044,12.0959997 6.04799984,12.2652681 6.04799984,12.4739997 C6.04799984,12.6827313 6.21723044,12.8519997 6.42599983,12.8519997 Z" id="Path"></path>
                    </g>
                </g>
            </g>
        </g>
    </g>
</svg>
