<?xml version="1.0" encoding="UTF-8"?>
<svg width="25px" height="26px" viewBox="0 0 25 26" version="1.1" xmlns="http://www.w3.org/2000/svg" xmlns:xlink="http://www.w3.org/1999/xlink">
    <!-- Generator: Sketch 62 (91390) - https://sketch.com -->
    <desc>Created with Sketch.</desc>
    <g id="Real-content" stroke="none" stroke-width="1" fill="none" fill-rule="evenodd">
        <path d="M24.0114258,1 L21.9905273,1 C21.824707,1 21.6905273,1.13432617 21.6905273,1.3 L21.6905273,2.17685548 L20.5040039,2.17685548 L20.5040039,1.3 C20.5040039,1.13432617 20.3698242,1 20.2040039,1 L18.4177734,1 C18.2519531,1 18.1177734,1.13432617 18.1177734,1.3 L18.1177734,2.17685548 L16.93125,2.17685548 L16.93125,1.3 C16.93125,1.13432617 16.7970703,1 16.63125,1 L14.5845703,1 C14.41875,1 14.2845703,1.13432617 14.2845703,1.3 L14.2845703,4.7416504 C14.2845703,5.35966798 14.7694336,5.86254883 15.3653321,5.86254883 L15.7535156,5.86254883 L15.7535156,12.5114746 L15.2566406,12.5114746 C15.0908203,12.5114746 14.9566406,12.6458008 14.9566406,12.8114746 L14.9566406,13.7713867 L13.5632813,13.7713867 L13.5632813,12.8114746 C13.5632813,12.6458008 13.4291016,12.5114746 13.2632813,12.5114746 L11.3364258,12.5114746 C11.1706055,12.5114746 11.0364258,12.6458008 11.0364258,12.8114746 L11.0364258,13.7713867 L9.64306644,13.7713867 L9.64306644,12.8114746 C9.64306644,12.6458008 9.50888676,12.5114746 9.34306644,12.5114746 L8.84589846,12.5114746 L8.84589846,5.86254883 L9.30292971,5.86254883 C9.90234378,5.86254883 10.3898438,5.35966798 10.3898438,4.7416504 L10.3898438,1.3 C10.3898438,1.13432617 10.2556641,1 10.0898438,1 L8.05283205,1 C7.88701173,1 7.75283205,1.13432617 7.75283205,1.3 L7.75283205,2.17685548 L6.55224612,2.17685548 L6.55224612,1.3 C6.55224612,1.13432617 6.41806644,1 6.25224612,1 L4.45166019,1 C4.28583987,1 4.15166019,1.13432617 4.15166019,1.3 L4.15166019,2.17685548 L2.95107426,2.17685548 L2.95107426,1.3 C2.95107426,1.13432617 2.81689458,1 2.65107426,1 L0.58798833,1 C0.42216801,1 0.28798833,1.13432617 0.28798833,1.3 L0.28798833,4.7416504 C0.28798833,5.35966798 0.77548833,5.86254883 1.3749024,5.86254883 L1.67695317,5.86254883 L1.67695317,22.0625488 L0.6,22.0625488 C0.43417968,22.0625488 0.3,22.196875 0.3,22.3625488 L0.3,24.7 C0.3,24.8656738 0.43417968,25 0.6,25 L23.999707,25 C24.1655273,25 24.299707,24.8656738 24.299707,24.7 L24.299707,22.3625488 C24.299707,22.196875 24.1655273,22.0625488 23.999707,22.0625488 L22.9224609,22.0625488 L22.9224609,5.86254883 L23.2306641,5.86254883 C23.8265625,5.86254883 24.3114258,5.35966798 24.3114258,4.7416504 L24.3114258,1.3 C24.3114258,1.13432617 24.1772461,1 24.0114258,1 Z M9.34306641,14.3713867 L11.3364258,14.3713867 C11.5022461,14.3713867 11.6364258,14.2370606 11.6364258,14.0713867 L11.6364258,13.1114746 L12.9632813,13.1114746 L12.9632813,14.0713867 C12.9632813,14.2370606 13.0974609,14.3713867 13.2632813,14.3713867 L15.2566406,14.3713867 C15.4224609,14.3713867 15.5566406,14.2370606 15.5566406,14.0713867 L15.5566406,13.1114746 L16.9795898,13.1114746 L16.9795898,22.0625489 L15.3043945,22.0625489 L15.3043945,19.3268067 C15.3043945,17.6715333 13.9564453,16.3249024 12.299707,16.3249024 C10.6429688,16.3249024 9.29501952,17.6715332 9.29501952,19.3268067 L9.29501952,22.0625489 L7.6198242,22.0625489 L7.6198242,13.1114746 L9.04306638,13.1114746 L9.04306638,14.0713867 C9.04306641,14.2370606 9.17724609,14.3713867 9.34306641,14.3713867 Z M9.89501952,22.0625488 L9.89501952,19.3268067 C9.89501952,18.1078735 10.8095398,17.1003906 11.9888672,16.9473145 L11.9888672,22.0625488 L9.89501952,22.0625488 Z M12.5888672,16.9440003 C13.7787598,17.0873535 14.7043945,18.1003662 14.7043945,19.3268067 L14.7043945,22.0625488 L12.5888672,22.0625488 L12.5888672,16.9440003 Z M0.88798827,4.7416504 L0.88798827,1.6 L2.3510742,1.6 L2.3510742,2.47685548 C2.3510742,2.64252931 2.48525388,2.77685548 2.6510742,2.77685548 L4.45166013,2.77685548 C4.61748045,2.77685548 4.75166013,2.64252931 4.75166013,2.47685548 L4.75166013,1.6 L5.95224606,1.6 L5.95224606,2.47685548 C5.95224606,2.64252931 6.08642574,2.77685548 6.25224606,2.77685548 L8.05283199,2.77685548 C8.21865231,2.77685548 8.35283199,2.64252931 8.35283199,2.47685548 L8.35283199,1.6 L9.78984372,1.6 L9.78984372,4.7416504 C9.78984372,5.02890625 9.57128904,5.26254883 9.30292965,5.26254883 L1.37490234,5.26254883 C1.10654298,5.26254883 0.88798827,5.02890625 0.88798827,4.7416504 Z M2.27695314,19.1782715 L3.61464846,19.1782715 C3.78046878,19.1782715 3.91464846,19.0439453 3.91464846,18.8782715 C3.91464846,18.7125977 3.78046878,18.5782715 3.61464846,18.5782715 L2.27695314,18.5782715 L2.27695314,13.6338379 L3.61464846,13.6338379 C3.78046878,13.6338379 3.91464846,13.4995117 3.91464846,13.3338379 C3.91464846,13.1681641 3.78046878,13.0338379 3.61464846,13.0338379 L2.27695314,13.0338379 L2.27695314,5.86254883 L8.24589846,5.86254883 L8.24589846,12.5114746 L7.31982423,12.5114746 C7.15400391,12.5114746 7.01982423,12.6458008 7.01982423,12.8114746 L7.01982423,15.8060547 L5.68183596,15.8060547 C5.51601564,15.8060547 5.38183596,15.9403809 5.38183596,16.1060547 C5.38183596,16.2717285 5.51601564,16.4060547 5.68183596,16.4060547 L7.01982423,16.4060547 L7.01982423,22.0625488 L2.27695314,22.0625488 L2.27695314,19.1782715 Z M23.699707,24.4 L0.9,24.4 L0.9,22.6625488 L23.699707,22.6625488 L23.699707,24.4 Z M22.3224609,13.0338379 L20.9844727,13.0338379 C20.8186523,13.0338379 20.6844727,13.1681641 20.6844727,13.3338379 C20.6844727,13.4995117 20.8186523,13.6338379 20.9844727,13.6338379 L22.3224609,13.6338379 L22.3224609,18.5782715 L20.9844727,18.5782715 C20.8186523,18.5782715 20.6844727,18.7125977 20.6844727,18.8782715 C20.6844727,19.0439453 20.8186523,19.1782715 20.9844727,19.1782715 L22.3224609,19.1782715 L22.3224609,22.0625488 L17.5795898,22.0625488 L17.5795898,16.4060547 L18.9175781,16.4060547 C19.0833984,16.4060547 19.2175781,16.2717285 19.2175781,16.1060547 C19.2175781,15.9403808 19.0833984,15.8060547 18.9175781,15.8060547 L17.5795898,15.8060547 L17.5795898,12.8114746 C17.5795898,12.6458008 17.4454102,12.5114746 17.2795898,12.5114746 L16.3535156,12.5114746 L16.3535156,5.86254883 L22.3224609,5.86254883 L22.3224609,13.0338379 L22.3224609,13.0338379 Z M5.26142577,6.92060545 C6.19892577,6.92060545 6.96152343,7.68261718 6.96152343,8.61923827 L6.96152343,8.61923827 L6.96152343,10.8100586 C6.96152343,10.9757324 6.82734375,11.1100586 6.66152343,11.1100586 L6.66152343,11.1100586 L3.86132811,11.1100586 C3.69550779,11.1100586 3.56132811,10.9757324 3.56132811,10.8100586 L3.56132811,10.8100586 L3.56132811,8.61923827 C3.56132811,7.68261718 4.32392577,6.92060545 5.26142577,6.92060545 Z M19.425,6.92060545 C20.362207,6.92060545 21.1248047,7.68261718 21.1248047,8.61923827 L21.1248047,8.61923827 L21.1248047,10.8100586 C21.1248047,10.9757324 20.990625,11.1100586 20.8248047,11.1100586 L20.8248047,11.1100586 L18.0249023,11.1100586 C17.859082,11.1100586 17.7249023,10.9757324 17.7249023,10.8100586 L17.7249023,10.8100586 L17.7249023,8.61923827 C17.7249023,7.68261718 18.4875,6.92060545 19.425,6.92060545 Z M5.26142577,7.52060545 C4.65468747,7.52060545 4.16132811,8.01337891 4.16132811,8.61923827 L4.16132811,8.61923827 L4.16132811,10.5100586 L6.36152343,10.5100586 L6.36152343,8.61923827 C6.36152343,8.01337888 5.86816407,7.52060545 5.26142577,7.52060545 Z M19.425,7.52060545 C18.8182617,7.52060545 18.3249023,8.01337891 18.3249023,8.61923827 L18.3249023,8.61923827 L18.3249023,10.5100586 L20.5248047,10.5100586 L20.5248047,8.61923827 C20.5248047,8.01337888 20.0314453,7.52060545 19.425,7.52060545 Z M16.33125,1.6 L16.33125,2.47685548 C16.33125,2.64252931 16.4654297,2.77685548 16.63125,2.77685548 L18.4177734,2.77685548 C18.5835938,2.77685548 18.7177734,2.64252931 18.7177734,2.47685548 L18.7177734,1.6 L19.9040039,1.6 L19.9040039,2.47685548 C19.9040039,2.64252931 20.0381836,2.77685548 20.2040039,2.77685548 L21.9905273,2.77685548 C22.1563477,2.77685548 22.2905273,2.64252931 22.2905273,2.47685548 L22.2905273,1.6 L23.7114258,1.6 L23.7114258,4.7416504 C23.7114258,5.02890625 23.4958008,5.26254883 23.230664,5.26254883 L15.365332,5.26254883 C15.1001953,5.26254883 14.8845703,5.02890625 14.8845703,4.7416504 L14.8845703,1.6 L16.33125,1.6 Z" id="Shape" stroke="#FFFFFF" stroke-width="0.3" fill="#FFFFFF" fill-rule="nonzero"></path>
    </g>
</svg>
