<?xml version="1.0" encoding="UTF-8"?>
<svg width="26px" height="24px" viewBox="0 0 26 24" version="1.1" xmlns="http://www.w3.org/2000/svg"
>
    <!-- Generator: Sketch 61.2 (89653) - https://sketch.com -->
    <title>Shape</title>
    <desc>Created with Sketch.</desc>
    <g id="Real-content" stroke="none" stroke-width="1" fill="none" fill-rule="evenodd">
        <g id="Checkpoint-1-detail" transform="translate(-405.000000, -574.000000)" fill="#FFFFFF" fill-rule="nonzero"
           stroke="#FFFFFF" stroke-width="0.2">
            <g id="Group-6-Copy-4" transform="translate(398.000000, 567.000000)">
                <g id="noun_Castle_867046" transform="translate(8.000000, 8.000000)">
                    <path d="M21.1733333,6.97560976 L21.1733333,9.09512195 L19.6533333,9.09512195 L19.6533333,6.97560976 L17.36,6.97560976 L17.36,3.2195122 L14.8,3.2195122 L14.8,6.17073171 L13.28,6.17073171 L13.28,3.2195122 L12.2666667,3.2195122 L12.2666667,1.87804878 L14.3466667,1.87804878 L14.3466667,0.268292683 L12.2666667,0.268292683 C12.2666667,0.107317073 12.16,0 12,0 C11.84,0 11.7333333,0.107317073 11.7333333,0.268292683 L11.7333333,1.87804878 L11.7333333,3.2195122 L10.72,3.2195122 L10.72,6.17073171 L9.2,6.17073171 L9.2,3.2195122 L6.64,3.2195122 L6.64,6.97560976 L4.34666667,6.97560976 L4.34666667,9.09512195 L2.82666667,9.09512195 L2.82666667,6.97560976 L0,6.97560976 L0,22 L6.64,22 L7.17333333,22 L9.54666667,22 L14.7733333,22 L16.88,22 L17.4133333,22 L24,22 L24,6.97560976 L21.1733333,6.97560976 Z M13.8133333,0.804878049 L13.8133333,1.34146341 L12.2666667,1.34146341 L12.2666667,0.804878049 L13.8133333,0.804878049 Z M6.64,21.4634146 L0.533333333,21.4634146 L0.533333333,16.5 L1.33333333,16.5 C1.46666667,16.5 1.6,16.3926829 1.6,16.2317073 C1.6,16.0707317 1.49333333,15.9634146 1.33333333,15.9634146 L0.533333333,15.9634146 L0.533333333,7.51219512 L2.32,7.51219512 L2.32,9.63170732 L4.88,9.63170732 L4.88,7.51219512 L6.66666667,7.51219512 L6.66666667,21.4634146 L6.64,21.4634146 Z M10.0533333,21.4634146 L10.0533333,16.5 L14.24,16.5 L14.24,21.4634146 L10.0533333,21.4634146 Z M12.48,14.3536585 C13.36,14.4073171 14.0533333,15.0780488 14.1866667,15.9634146 L12.48,15.9634146 L12.48,14.3536585 Z M11.9733333,15.9634146 L10.08,15.9634146 C10.2133333,15.0512195 10.96,14.3536585 11.8933333,14.3536585 L12,14.3536585 L12,15.9634146 L11.9733333,15.9634146 Z M14.7466667,21.4634146 L14.7466667,16.2317073 C14.7466667,14.8902439 13.7066667,13.8170732 12.4,13.8170732 L11.8666667,13.8170732 C10.56,13.8170732 9.52,14.8902439 9.52,16.2317073 L9.52,21.4634146 L7.14666667,21.4634146 L7.14666667,14.6219512 L7.84,14.6219512 C7.97333333,14.6219512 8.10666667,14.5146341 8.10666667,14.3536585 C8.10666667,14.1926829 8,14.0853659 7.84,14.0853659 L7.14666667,14.0853659 L7.14666667,6.97560976 L7.14666667,3.75609756 L8.66666667,3.75609756 L8.66666667,6.70731707 L11.2266667,6.70731707 L11.2266667,3.75609756 L12.7466667,3.75609756 L12.7466667,6.70731707 L15.3066667,6.70731707 L15.3066667,3.75609756 L16.8266667,3.75609756 L16.8266667,6.97560976 L16.8266667,14.3536585 L16.08,14.3536585 C15.9466667,14.3536585 15.8133333,14.4609756 15.8133333,14.6219512 C15.8133333,14.7829268 15.92,14.8902439 16.08,14.8902439 L16.8266667,14.8902439 L16.8266667,21.4634146 L14.7466667,21.4634146 Z M17.36,21.4634146 L17.36,7.51219512 L19.1466667,7.51219512 L19.1466667,9.63170732 L21.7066667,9.63170732 L21.7066667,7.51219512 L23.4666667,7.51219512 L23.4666667,17.304878 L22.6133333,17.304878 C22.48,17.304878 22.3466667,17.4121951 22.3466667,17.5731707 C22.3466667,17.7341463 22.4533333,17.8414634 22.6133333,17.8414634 L23.4666667,17.8414634 L23.4666667,21.4634146 L17.36,21.4634146 Z M9.89333333,8.07560976 L9.84,8.07560976 C9.12,8.07560976 8.53333333,8.66585366 8.53333333,9.41707317 L8.53333333,12.1268293 L11.2,12.1268293 L11.2,9.41707317 C11.1733333,8.69268293 10.5866667,8.07560976 9.89333333,8.07560976 Z M10.6666667,11.5902439 L9.04,11.5902439 L9.04,9.41707317 C9.04,8.96097561 9.38666667,8.61219512 9.81333333,8.61219512 L9.86666667,8.61219512 C10.2933333,8.61219512 10.64,8.96097561 10.64,9.41707317 L10.64,11.5902439 L10.6666667,11.5902439 Z M3.62666667,10.704878 L3.57333333,10.704878 C2.85333333,10.704878 2.26666667,11.295122 2.26666667,12.0463415 L2.26666667,14.7560976 L4.93333333,14.7560976 L4.93333333,12.0463415 C4.93333333,11.295122 4.34666667,10.704878 3.62666667,10.704878 Z M4.4,14.2195122 L2.77333333,14.2195122 L2.77333333,12.0463415 C2.77333333,11.5902439 3.12,11.2414634 3.54666667,11.2414634 L3.6,11.2414634 C4.02666667,11.2414634 4.37333333,11.5902439 4.37333333,12.0463415 L4.37333333,14.2195122 L4.4,14.2195122 Z M15.36,9.41707317 C15.36,8.66585366 14.7733333,8.07560976 14.0533333,8.07560976 L14,8.07560976 C13.28,8.07560976 12.6933333,8.66585366 12.6933333,9.41707317 L12.6933333,12.1268293 L15.36,12.1268293 L15.36,9.41707317 Z M14.8266667,11.5902439 L13.2,11.5902439 L13.2,9.41707317 C13.2,8.96097561 13.5466667,8.61219512 13.9733333,8.61219512 L14.0266667,8.61219512 C14.4533333,8.61219512 14.8,8.96097561 14.8,9.41707317 L14.8,11.5902439 L14.8266667,11.5902439 Z M20.32,10.704878 L20.2666667,10.704878 C19.5466667,10.704878 18.96,11.295122 18.96,12.0463415 L18.96,14.7560976 L21.6266667,14.7560976 L21.6266667,12.0463415 C21.6266667,11.295122 21.04,10.704878 20.32,10.704878 Z M21.0933333,14.2195122 L19.4666667,14.2195122 L19.4666667,12.0463415 C19.4666667,11.5902439 19.8133333,11.2414634 20.24,11.2414634 L20.2933333,11.2414634 C20.72,11.2414634 21.0666667,11.5902439 21.0666667,12.0463415 L21.0666667,14.2195122 L21.0933333,14.2195122 Z M2.37333333,17.5731707 C2.37333333,17.7341463 2.26666667,17.8414634 2.10666667,17.8414634 L1.22666667,17.8414634 C1.09333333,17.8414634 0.96,17.7341463 0.96,17.5731707 C0.96,17.4121951 1.06666667,17.304878 1.22666667,17.304878 L2.10666667,17.304878 C2.26666667,17.304878 2.37333333,17.4121951 2.37333333,17.5731707 Z M8.90666667,15.695122 C8.90666667,15.8560976 8.8,15.9634146 8.64,15.9634146 L7.76,15.9634146 C7.62666667,15.9634146 7.49333333,15.8560976 7.49333333,15.695122 C7.49333333,15.5341463 7.6,15.4268293 7.76,15.4268293 L8.64,15.4268293 C8.77333333,15.4268293 8.90666667,15.5341463 8.90666667,15.695122 Z M16.2133333,13.5487805 L15.3333333,13.5487805 C15.2,13.5487805 15.0666667,13.4414634 15.0666667,13.2804878 C15.0666667,13.1195122 15.1733333,13.0121951 15.3333333,13.0121951 L16.2133333,13.0121951 C16.3466667,13.0121951 16.48,13.1195122 16.48,13.2804878 C16.48,13.4414634 16.3466667,13.5487805 16.2133333,13.5487805 Z"
                          id="Shape"></path>
                </g>
            </g>
        </g>
    </g>
</svg>
