<?xml version="1.0" encoding="UTF-8"?>
<svg width="29px" height="29px" viewBox="0 0 29 29" version="1.1" xmlns="http://www.w3.org/2000/svg" xmlns:xlink="http://www.w3.org/1999/xlink">
    <!-- Generator: Sketch 62 (91390) - https://sketch.com -->
    <desc>Created with Sketch.</desc>
    <g id="Real-content" stroke="none" stroke-width="1" fill="none" fill-rule="evenodd">
        <g id="noun_Church_1762865" fill="#FFFFFF" fill-rule="nonzero" stroke="#FFFFFF" stroke-width="0.2">
            <g id="Group">
                <path d="M28.2599997,25.8839998 L26.7839997,25.8839998 L26.7839997,17.2799999 L27.5759997,17.2799999 C27.7919997,17.2799999 27.9359997,17.1359999 27.9359997,16.9199999 C27.9359997,16.7039999 27.7919997,16.5599999 27.5759997,16.5599999 L26.6759997,16.5599999 C26.6399997,16.5599999 26.6399997,16.5239999 26.6039997,16.5239999 L19.2959998,12.5639999 C19.2239998,12.5279999 19.1519998,12.5279999 19.0799998,12.5279999 L19.0799998,6.15599998 L20.3039998,6.15599998 C20.4479998,6.15599998 20.5919998,6.04799998 20.6279998,5.90399999 C20.6639998,5.75999999 20.6279998,5.61599999 20.5199998,5.50799999 L14.7599998,0.720000045 C14.6664291,0.651601431 14.5464291,0.617402124 14.3999996,0.617402124 C14.2535702,0.617402124 14.1335703,0.651601431 14.0399998,0.720000045 L8.2799999,5.50799999 C8.17199991,5.61599999 8.13599991,5.75999999 8.17199991,5.90399999 C8.2079999,6.04799998 8.3519999,6.15599998 8.4959999,6.15599998 L9.71999989,6.15599998 L9.71999989,12.5279999 C9.64799989,12.5279999 9.57599989,12.5279999 9.50399989,12.5639999 L2.19599997,16.5239999 C2.15999997,16.5239999 2.15999997,16.5599999 2.12399998,16.5599999 L1.22399999,16.5599999 C1.00799999,16.5599999 0.86399999,16.7039999 0.86399999,16.9199999 C0.86399999,17.1359999 1.00799999,17.2799999 1.22399999,17.2799999 L2.01599998,17.2799999 L2.01599998,25.8839998 L0.539999994,25.8839998 C0.323999996,25.8839998 0.179999998,26.0279998 0.179999998,26.2439997 L0.179999998,28.2239997 C0.179999998,28.4399997 0.323999996,28.5839997 0.539999994,28.5839997 L28.2599997,28.5839997 C28.4759997,28.5839997 28.6199997,28.4399997 28.6199997,28.2239997 L28.6199997,26.2439997 C28.6199997,26.0639998 28.4759997,25.8839998 28.2599997,25.8839998 Z M26.0639997,25.8839998 L19.0799998,25.8839998 L19.0799998,17.2799999 L26.0639997,17.2799999 L26.0639997,25.8839998 Z M25.1639997,16.5599999 L19.0799998,16.5599999 L19.0799998,13.2479999 L25.1639997,16.5599999 Z M14.3999998,1.36800004 L19.2959998,5.43599999 L9.50399989,5.43599999 L14.3999998,1.36800004 Z M18.3599998,6.15599998 L18.3599998,25.8839998 L16.3439998,25.8839998 L16.3439998,22.5719998 C16.3439998,21.4919998 15.4799998,20.6279998 14.3999998,20.6279998 C13.3199998,20.6279998 12.4559999,21.4919998 12.4559999,22.5719998 L12.4559999,25.8839998 L10.4399999,25.8839998 L10.4399999,6.15599998 L18.3599998,6.15599998 Z M14.0399998,25.8839998 L13.1759998,25.8839998 L13.1759998,22.5719998 C13.1759998,22.0319998 13.5359998,21.5639998 14.0399998,21.4199998 L14.0399998,25.8839998 Z M14.7599998,21.4199998 C15.2639998,21.5639998 15.6239998,22.0319998 15.6239998,22.5719998 L15.6239998,25.8839998 L14.7599998,25.8839998 L14.7599998,21.4199998 Z M9.71999989,13.2479999 L9.71999989,16.5599999 L3.63599996,16.5599999 L9.71999989,13.2479999 Z M2.73599997,17.2799999 L9.71999989,17.2799999 L9.71999989,25.8839998 L2.73599997,25.8839998 L2.73599997,17.2799999 Z M27.9,27.8639997 L0.89999999,27.8639997 L0.89999999,26.6039997 L27.9,26.6039997 L27.9,27.8639997 Z" id="Shape"></path>
                <path d="M14.3999998,13.6799999 C12.9239999,13.6799999 11.6999999,14.9039999 11.6999999,16.3799999 C11.6999999,17.8559998 12.9239999,19.0799998 14.3999998,19.0799998 C15.8759998,19.0799998 17.0999998,17.8559998 17.0999998,16.3799999 C17.0999998,14.9039999 15.8759998,13.6799999 14.3999998,13.6799999 Z M14.3999998,18.3599998 C13.3199998,18.3599998 12.4199999,17.4599999 12.4199999,16.3799999 C12.4199999,15.2999999 13.3199998,14.3999999 14.3999998,14.3999999 C15.4799998,14.3999999 16.3799998,15.2999999 16.3799998,16.3799999 C16.3799998,17.4599999 15.4799998,18.3599998 14.3999998,18.3599998 Z" id="Shape"></path>
                <path d="M15.2279998,16.0199999 L14.7599998,16.0199999 L14.7599998,15.4439999 C14.7599998,15.2279999 14.6159998,15.0839999 14.3999998,15.0839999 C14.1839998,15.0839999 14.0399998,15.2279999 14.0399998,15.4439999 L14.0399998,16.3799999 C14.0399998,16.5959999 14.1839998,16.7399999 14.3999998,16.7399999 L15.2279998,16.7399999 C15.4439998,16.7399999 15.5879998,16.5959999 15.5879998,16.3799999 C15.5879998,16.1639999 15.4079998,16.0199999 15.2279998,16.0199999 Z" id="Path"></path>
                <path d="M11.5199999,12.9599999 L17.2799998,12.9599999 C17.4959998,12.9599999 17.6399998,12.8159999 17.6399998,12.5999999 L17.6399998,7.19999997 C17.6399998,6.98399997 17.4959998,6.83999997 17.2799998,6.83999997 L11.5199999,6.83999997 C11.3039999,6.83999997 11.1599999,6.98399997 11.1599999,7.19999997 L11.1599999,12.5999999 C11.1599999,12.8159999 11.3039999,12.9599999 11.5199999,12.9599999 Z M11.8799999,12.2399999 L11.8799999,9.68399994 L12.9599998,9.68399994 L12.7799999,10.2239999 C12.7079999,10.4759999 12.7439999,10.6919999 12.8879999,10.9079999 C13.0319998,11.0879999 13.2479998,11.2319999 13.4999998,11.2319999 L15.2279998,11.2319999 C15.4799998,11.2319999 15.6959998,11.1239999 15.8399998,10.9079999 C15.9839998,10.7279999 16.0199998,10.4759999 15.9479998,10.2239999 L15.8399998,9.68399994 L16.9199998,9.68399994 L16.9199998,12.2399999 L11.8799999,12.2399999 Z M15.0119998,9.35999995 C15.0119998,9.39599994 15.0119998,9.39599994 15.0119998,9.43199994 L15.2999998,10.4399999 C15.2999998,10.4399999 15.2999998,10.4759999 15.2999998,10.4759999 C15.2999998,10.4759999 15.2639998,10.5119999 15.2639998,10.5119999 L13.5359998,10.5119999 C13.5359998,10.5119999 13.4999998,10.5119999 13.4999998,10.4759999 C13.4999998,10.4759999 13.4999998,10.4399999 13.4999998,10.4399999 L13.7879998,9.43199994 C13.7879998,9.39599994 13.7879998,9.39599994 13.7879998,9.35999995 C13.7879998,9.32399995 13.8239998,9.28799995 13.8239998,9.25199995 C13.8239998,8.92799995 14.0759998,8.67599995 14.3999998,8.67599995 C14.7239998,8.67599995 14.9759998,8.92799995 14.9759998,9.25199995 C14.9759998,9.28799995 14.9759998,9.32399995 15.0119998,9.35999995 Z M16.9199998,7.55999997 L16.9199998,8.96399995 L15.6599998,8.96399995 C15.5159998,8.38799996 15.0119998,7.95599996 14.3999998,7.95599996 C13.7879998,7.95599996 13.2839998,8.38799996 13.1399998,8.96399995 L11.8799999,8.96399995 L11.8799999,7.55999997 L16.9199998,7.55999997 Z" id="Shape"></path>
                <path d="M5.43599994,22.7159998 L6.87599992,22.7159998 C7.09199992,22.7159998 7.23599992,22.5719998 7.23599992,22.3559998 L7.23599992,20.6639998 C7.23599992,20.0519998 6.76799992,19.5839998 6.15599993,19.5839998 C5.54399994,19.5839998 5.07599994,20.0519998 5.07599994,20.6639998 L5.07599994,22.3559998 C5.07599994,22.5359998 5.21999994,22.7159998 5.43599994,22.7159998 Z M5.79599993,20.6639998 C5.79599993,20.4479998 5.93999993,20.3039998 6.15599993,20.3039998 C6.37199993,20.3039998 6.51599992,20.4479998 6.51599992,20.6639998 L6.51599992,21.9959998 L5.79599993,21.9959998 L5.79599993,20.6639998 Z" id="Shape"></path>
                <path d="M21.6719997,22.7159998 L23.1119997,22.7159998 C23.3279997,22.7159998 23.4719997,22.5719998 23.4719997,22.3559998 L23.4719997,20.6639998 C23.4719997,20.0519998 23.0039997,19.5839998 22.3919997,19.5839998 C21.7799997,19.5839998 21.3119998,20.0519998 21.3119998,20.6639998 L21.3119998,22.3559998 C21.3119998,22.5359998 21.4919998,22.7159998 21.6719997,22.7159998 Z M22.0319997,20.6639998 C22.0319997,20.4479998 22.1759997,20.3039998 22.3919997,20.3039998 C22.6079997,20.3039998 22.7519997,20.4479998 22.7519997,20.6639998 L22.7519997,21.9959998 L22.0319997,21.9959998 L22.0319997,20.6639998 Z" id="Shape"></path>
                <path d="M6.94799992,23.3999998 L5.32799994,23.3999998 C5.11199994,23.3999998 4.96799994,23.5439998 4.96799994,23.7599998 C4.96799994,23.9759998 5.11199994,24.1199998 5.32799994,24.1199998 L6.94799992,24.1199998 C7.16399992,24.1199998 7.30799992,23.9759998 7.30799992,23.7599998 C7.30799992,23.5439998 7.12799992,23.3999998 6.94799992,23.3999998 Z" id="Path"></path>
                <path d="M23.2199997,23.3999998 L21.5999997,23.3999998 C21.3839998,23.3999998 21.2399998,23.5439998 21.2399998,23.7599998 C21.2399998,23.9759998 21.3839998,24.1199998 21.5999997,24.1199998 L23.2199997,24.1199998 C23.4359997,24.1199998 23.5799997,23.9759998 23.5799997,23.7599998 C23.5799997,23.5439998 23.4359997,23.3999998 23.2199997,23.3999998 Z" id="Path"></path>
            </g>
        </g>
    </g>
</svg>
