<?xml version="1.0" encoding="UTF-8"?>
<svg width="24px" height="21px" viewBox="0 0 24 21" version="1.1" xmlns="http://www.w3.org/2000/svg" xmlns:xlink="http://www.w3.org/1999/xlink">
    <!-- Generator: Sketch 61 (89581) - https://sketch.com -->
    <title>Group 14</title>
    <desc>Created with Sketch.</desc>
    <g id="Hover-points" stroke="none" stroke-width="1" fill="none" fill-rule="evenodd">
        <g id="Wanderen-beispiel" transform="translate(-646.000000, -545.000000)" fill="#FFFFFF" fill-rule="nonzero">
            <g id="Group-20" transform="translate(520.000000, 243.000000)">
                <g id="Group-19" transform="translate(66.000000, 0.000000)">
                    <g id="Group">
                        <g id="Group-21" transform="translate(60.000000, 302.000000)">
                            <g id="Group-14">
                                <g id="Group-Copy-2">
                                    <path d="M12.0685714,5.39875556 C13.3485714,5.39875556 14.2994286,3.88266667 14.2994286,2.55146667 C14.2994286,1.29422222 13.3851429,0.443733333 12.0685714,0.443733333 C10.7154286,0.443733333 9.83771429,1.29422222 9.83771429,2.55146667 C9.83771429,3.88266667 10.7885714,5.39875556 12.0685714,5.39875556 Z M12.0685714,1.18328889 C12.4342857,1.18328889 13.568,1.29422222 13.568,2.55146667 C13.568,3.51288889 12.8731429,4.6592 12.0685714,4.6592 C11.264,4.6592 10.5691429,3.51288889 10.5691429,2.55146667 C10.5691429,1.25724444 11.7028571,1.18328889 12.0685714,1.18328889 Z" id="Shape"></path>
                                    <path d="M23.3691429,19.8940444 L19.2731429,12.8682667 C19.1268571,12.6464 18.7611429,12.6464 18.6514286,12.8682667 L17.8468571,14.2364444 L17.8468571,10.2428444 L18.432,10.2428444 C19.0902857,10.2428444 19.6022857,9.72515556 19.6022857,9.05955556 C19.6022857,8.39395556 19.0902857,7.87626667 18.432,7.87626667 L17.8468571,7.87626667 L17.8468571,6.06435556 L22.4548571,6.06435556 C22.4548571,6.06435556 22.4548571,6.06435556 22.4548571,6.06435556 C22.7474286,6.06435556 22.9302857,5.73155556 22.7474286,5.47271111 L22.0891429,3.88266667 L22.7474286,2.21866667 C22.8571429,1.95982222 22.6742857,1.70097778 22.4182857,1.70097778 L17.4445714,1.70097778 C17.2251429,1.70097778 17.0788571,1.84888889 17.0788571,2.07075556 L17.0788571,2.18168889 C17.0788571,7.21066667 17.0788571,4.95502222 17.0788571,7.87626667 L16.2011429,7.87626667 L14.5554286,6.28622222 C14.2994286,6.06435556 14.0068571,5.95342222 13.7142857,5.95342222 L10.24,5.95342222 L8.37485714,4.14151111 L9.36228571,1.95982222 C9.61828571,1.36817778 9.36228571,0.6656 8.77714286,0.406755556 C8.192,0.147911111 7.49714286,0.406755556 7.24114286,0.9984 L5.888,3.95662222 C5.66857143,4.40035556 5.77828571,4.95502222 6.144,5.3248 L8.59428571,7.69137778 L8.59428571,18.4519111 L8.26514286,18.8216889 L4.82742857,12.9422222 C4.68114286,12.7203556 4.31542857,12.7203556 4.20571429,12.9422222 L0.109714286,19.968 C-3.88578059e-16,20.1528889 0.0731428571,20.3747556 0.256,20.4856889 C0.438857143,20.5966222 0.658285714,20.5226667 0.768,20.3377778 L4.57142857,13.8666667 L8.37485714,20.3377778 C8.48457143,20.5226667 8.704,20.5596444 8.88685714,20.4856889 C9.06971429,20.3747556 9.10628571,20.1528889 9.03314286,19.968 L8.77714286,19.5242667 L9.36228571,18.8956444 C9.36228571,18.8956444 9.36228571,18.8956444 9.36228571,18.8956444 L11.8491429,16.2702222 C12.4342857,16.8988444 13.6045714,18.1191111 15.1405714,19.7091556 L15.6891429,20.4117333 C15.7988571,20.5596444 16.0548571,20.5966222 16.2011429,20.4856889 C16.3474286,20.3747556 16.384,20.1159111 16.2742857,19.968 L15.872,19.4872889 L19.1268571,13.9406222 L22.9302857,20.4117333 C23.04,20.5966222 23.2594286,20.6336 23.4422857,20.5596444 C23.4057143,20.2638222 23.4422857,20.0419556 23.3691429,19.8940444 Z M21.3577143,4.03057778 L21.8697143,5.3248 L17.8102857,5.3248 L17.8102857,2.44053333 L21.8697143,2.44053333 L21.3577143,3.73475556 C21.3211429,3.84568889 21.3211429,3.91964444 21.3577143,4.03057778 Z M17.0788571,15.4936889 L15.616,18.0081778 L15.616,15.2348444 C15.616,15.0129778 15.5428571,14.7911111 15.4331429,14.6062222 L14.08,12.4984889 L14.08,9.13351111 L14.9211429,9.94702222 C15.1405714,10.1688889 15.4331429,10.2798222 15.7257143,10.2798222 L17.0788571,10.2798222 L17.0788571,15.4936889 Z M9.17942857,7.21066667 L6.61942857,4.73315556 C6.47314286,4.58524444 6.43657143,4.40035556 6.50971429,4.21546667 L7.86285714,1.25724444 C7.97257143,1.03537778 8.22857143,0.924444444 8.448,1.03537778 C8.66742857,1.14631111 8.77714286,1.40515556 8.66742857,1.62702222 L7.57028571,4.03057778 C7.49714286,4.17848889 7.53371429,4.3264 7.64342857,4.43733333 L9.80114286,6.54506667 C9.87428571,6.61902222 9.94742857,6.656 10.0571429,6.656 C13.8605714,6.69297778 13.7874286,6.58204444 14.0068571,6.76693333 L15.7622857,8.46791111 C15.8354286,8.54186667 15.9085714,8.57884444 16.0182857,8.57884444 L18.3954286,8.57884444 C18.6514286,8.57884444 18.8342857,8.76373333 18.8342857,9.02257778 C18.8342857,9.28142222 18.6514286,9.46631111 18.3954286,9.46631111 L15.7257143,9.46631111 C15.616,9.46631111 15.5062857,9.42933333 15.4331429,9.35537778 C14.08,8.13511111 13.9702857,7.72835556 13.6045714,7.87626667 C13.4582857,7.95022222 13.3851429,8.06115556 13.3851429,8.20906667 L13.3851429,12.5724444 C13.3851429,12.6464 13.4217143,12.7203556 13.4582857,12.7573333 L14.8845714,14.9390222 C14.9211429,15.0129778 14.9577143,15.0869333 14.9577143,15.1608889 L14.9577143,18.3779556 L14.08,17.4535111 L14.08,15.3827556 C14.08,15.3088 14.0434286,15.2348444 14.0068571,15.1978667 L12.6537143,13.1271111 C12.6537143,13.0901333 12.6171429,13.0901333 12.6171429,13.0531556 C12.544,12.9792 12.4342857,12.9422222 12.3611429,12.9422222 L10.6057143,12.9422222 C10.3862857,12.9422222 10.24,13.0901333 10.24,13.312 L10.24,16.64 L9.36228571,17.5644444 L9.36228571,7.46951111 C9.28914286,7.35857778 9.25257143,7.28462222 9.17942857,7.21066667 Z M11.4468571,15.3827556 L10.9348571,15.9374222 L10.9348571,13.7557333 L12.1417143,13.7557333 L13.312,15.6046222 L13.312,16.7879111 L11.9954286,15.3827556 C11.8125714,15.2348444 11.5931429,15.2348444 11.4468571,15.3827556 Z" id="Shape"></path>
                                    <path d="M19.7851429,17.0837333 C19.6754286,16.8988444 19.456,16.8618667 19.2731429,16.9358222 C19.0902857,17.0467556 19.0537143,17.2686222 19.1268571,17.4535111 L20.0045714,18.9326222 C20.1142857,19.1175111 20.3337143,19.1544889 20.5165714,19.0805333 C20.6994286,18.9696 20.736,18.7477333 20.6628571,18.5628444 L19.7851429,17.0837333 Z" id="Path"></path>
                                    <path d="M12.5074286,18.2300444 C12.3611429,18.0821333 12.1417143,18.0451556 11.9954286,18.1930667 C11.8491429,18.3409778 11.8125714,18.5628444 11.9588571,18.7107556 L12.6902857,19.5612444 C12.8365714,19.7091556 13.056,19.7461333 13.2022857,19.5982222 C13.3485714,19.4503111 13.3851429,19.2284444 13.2388571,19.0805333 L12.5074286,18.2300444 Z" id="Path"></path>
                                    <path d="M4.13257143,16.9728 C3.94971429,16.8618667 3.73028571,16.9358222 3.62057143,17.1207111 L2.74285714,18.5998222 C2.63314286,18.7847111 2.70628571,19.0065778 2.88914286,19.1175111 C3.072,19.2284444 3.29142857,19.1544889 3.40114286,18.9696 L4.27885714,17.4904889 C4.38857143,17.2686222 4.31542857,17.0467556 4.13257143,16.9728 Z" id="Path"></path>
                                </g>
                            </g>
                        </g>
                    </g>
                </g>
            </g>
        </g>
    </g>
</svg>