<?xml version="1.0" encoding="UTF-8"?>
<svg width="31px" height="25px" viewBox="0 0 31 25" version="1.1" xmlns="http://www.w3.org/2000/svg" xmlns:xlink="http://www.w3.org/1999/xlink">
    <!-- Generator: Sketch 62 (91390) - https://sketch.com -->
    <title>noun_users_69721 (1)</title>
    <desc>Created with Sketch.</desc>
    <g id="Real-content" stroke="none" stroke-width="1" fill="none" fill-rule="evenodd">
        <g id="noun_users_69721-(1)" fill="#FFFFFF" fill-rule="nonzero">
            <path d="M30.1600024,23.9304019 C29.8740023,23.9304019 29.6400023,23.6995218 29.6400023,23.4156018 C29.6400023,20.9040016 25.487282,18.7824015 22.8800018,18.7824015 C22.6564018,18.7824015 22.4577618,18.6399215 22.3860017,18.4308814 L21.3460017,15.3420812 C21.2565617,15.0716812 21.4032017,14.7804812 21.6736017,14.6900011 C21.9512817,14.5974411 22.2404017,14.7472011 22.3329617,15.0134412 L23.2585618,17.7632014 C26.3203221,17.9514414 30.6800024,20.3153616 30.6800024,23.4135218 C30.6800024,23.6995218 30.4460024,23.9304019 30.1600024,23.9304019 L30.1600024,23.9304019 Z" id="Path"></path>
            <path d="M19.7600015,15.6936012 C19.4740015,15.6936012 19.2400015,15.4616812 19.2400015,15.1788012 C19.2400015,14.8959212 19.4740015,14.6640011 19.7600015,14.6640011 C24.8279219,14.6640011 26.8455221,12.1638409 27.4830421,11.0728809 C27.0181621,10.2887208 25.733762,8.06728063 25.494562,7.06160055 C25.081682,5.32376041 23.6912018,1.2802401 19.7600015,1.2802401 C19.4740015,1.2802401 19.2400015,1.04936008 19.2400015,0.76544006 C19.2400015,0.481520038 19.4740015,0.25064002 19.7600015,0.25064002 C23.0516018,0.25064002 25.510162,2.64680021 26.5054421,6.82448053 C26.7103221,7.6793606 28.0332022,9.98192078 28.5261622,10.7972808 C28.6156022,10.9470409 28.6239222,11.1352809 28.5448822,11.2902409 C28.0228022,12.324001 25.848162,15.6936012 19.7600015,15.6936012 L19.7600015,15.6936012 Z" id="Path"></path>
            <path d="M11.4400009,17.7528014 C8.38448065,17.7528014 5.97896047,14.5152811 5.73976045,11.5408809 C4.65400036,11.3828009 4.16000032,10.7036808 4.16000032,10.0308008 L4.16000032,7.97160062 C4.16000032,7.32784057 4.78920037,6.86400054 5.20000041,6.62792052 L5.20000041,4.88280038 C5.20000041,3.03472024 5.81464045,1.3239201 10.2284008,1.2802401 C11.7166409,0.225680018 13.148721,1.84741126e-15 14.1003211,1.84741126e-15 C15.9421612,1.84741126e-15 17.5240014,0.826800064 18.1303214,2.10496016 C18.5806414,3.05864024 18.4184014,4.10072032 17.6779214,5.06168039 L17.6779214,6.62792052 C18.0897614,6.86296053 18.7179215,7.32680057 18.7179215,7.97160062 L18.7179215,10.0308008 C18.7179215,10.7016008 18.2228814,11.3828009 17.1360813,11.5408809 C16.9010413,14.5152811 14.4955211,17.7528014 11.4400009,17.7528014 Z M14.1013611,1.02960008 C13.277681,1.02960008 12.0213609,1.2334401 10.7120008,2.20792017 C10.6225608,2.27344018 10.5133608,2.31088018 10.4000008,2.31088018 C6.24000049,2.31088018 6.24000049,3.73776029 6.24000049,4.88488038 L6.24000049,6.94408054 C6.24000049,7.14584056 6.11936048,7.32992057 5.93320046,7.41416058 C5.56296043,7.57952059 5.21976041,7.86552061 5.19896041,7.97680062 L5.19896041,10.0328808 C5.19896041,10.4124808 5.75952045,10.5476808 6.23896049,10.5476808 C6.52600051,10.5476808 6.75896053,10.7796008 6.75896053,11.0624809 C6.75896053,13.6281611 8.84624069,16.7252813 11.4389609,16.7252813 C14.0316811,16.7252813 16.1189613,13.6271211 16.1189613,11.0624809 C16.1189613,10.7796008 16.3519213,10.5476808 16.6389613,10.5476808 C17.1184013,10.5476808 17.6789614,10.4135208 17.6789614,10.0328808 L17.6789614,7.97368062 C17.6571214,7.85200061 17.2796013,7.56184059 16.9468013,7.41312058 C16.7596013,7.32992057 16.6389613,7.14584056 16.6389613,6.94304054 L16.6389613,4.88384038 C16.6389613,4.76320037 16.6816013,4.64776036 16.7596013,4.55416035 C17.3378414,3.8688003 17.4844814,3.17200025 17.1880813,2.5448802 C16.7606413,1.63696013 15.5188812,1.02960008 14.1013611,1.02960008 Z" id="Shape"></path>
            <path d="M0.520000041,24.9600019 C0.232960018,24.9600019 0,24.7280819 0,24.4452019 L0,23.4156018 C0,20.4339216 2.40552019,18.2676014 5.72000045,18.2676014 L7.00232055,18.2676014 L8.49264066,16.0659213 C8.65176067,15.8298412 8.9762407,15.7664012 9.21440072,15.9224012 C9.45256074,16.0794413 9.51704074,16.4018413 9.35688073,16.6368813 L7.7116006,19.0673615 C7.61488059,19.2098415 7.45264058,19.2951215 7.27896057,19.2951215 L5.71896045,19.2951215 C2.96400023,19.2951215 1.03896008,20.9892816 1.03896008,23.4135218 L1.03896008,24.4431219 C1.04000008,24.7280819 0.807040063,24.9600019 0.520000041,24.9600019 Z" id="Path"></path>
            <path d="M22.3600017,24.9600019 C22.0740017,24.9600019 21.8400017,24.7280819 21.8400017,24.4452019 L21.8400017,23.4156018 C21.8400017,20.9903216 19.9513616,19.2972015 17.2452813,19.2972015 L15.6852812,19.2972015 C15.5136812,19.2972015 15.3535212,19.2140015 15.2568012,19.0736015 L13.5688811,16.6441613 C13.406641,16.4091213 13.465921,16.0888013 13.7030411,15.9286412 C13.9401611,15.7695212 14.2636011,15.8267212 14.4258411,16.0628013 L15.9598412,18.2696814 L17.2452813,18.2696814 C20.5618416,18.2696814 22.8800018,20.3881616 22.8800018,23.4176818 L22.8800018,24.4472819 C22.8800018,24.7280819 22.6460018,24.9600019 22.3600017,24.9600019 L22.3600017,24.9600019 Z" id="Path"></path>
        </g>
    </g>
</svg>