<?xml version="1.0" encoding="UTF-8"?>
<svg width="27px" height="27px" viewBox="0 0 27 27" version="1.1" xmlns="http://www.w3.org/2000/svg" xmlns:xlink="http://www.w3.org/1999/xlink">
    <!-- Generator: Sketch 62 (91390) - https://sketch.com -->
    <title>noun_connectivity_1122496</title>
    <desc>Created with Sketch.</desc>
    <g id="Real-content" stroke="none" stroke-width="1" fill="none" fill-rule="evenodd">
        <g id="noun_connectivity_1122496" fill="#FFFFFF" fill-rule="nonzero" stroke="#FFFFFF" stroke-width="0.2">
            <path d="M16.4097007,22.0200009 C16.3563006,22.0200009 16.3020006,22.0110009 16.2492006,21.9906009 C16.0899006,21.9300009 15.9267006,21.9000009 15.7500006,21.9000009 C15.6456006,21.9000009 15.5538006,21.9153009 15.4776006,21.9444009 C15.3570006,21.9918009 15.2211006,21.9843009 15.1062006,21.9234009 C14.9913006,21.8637009 14.9082006,21.7563009 14.8776006,21.6303009 L13.9626006,17.8200007 C13.9050006,17.5785007 14.0529006,17.3361007 14.2938006,17.2770007 C14.9475006,17.1186007 15.5412006,16.7706007 16.0593006,16.2444006 C16.7208007,15.5823006 17.0805007,14.8143006 17.1618007,13.8954006 C17.1726007,13.7730005 17.2329007,13.6605005 17.3292007,13.5837005 C17.4249007,13.5069005 17.5482007,13.4724005 17.6697007,13.4889005 L21.6144009,14.0139006 C21.8382009,14.0439006 22.0050009,14.2341006 22.0050009,14.4597006 C22.0050009,14.9037006 22.1610009,15.2835006 22.4808009,15.6198006 C22.8150009,15.9456006 23.2026009,16.1097006 23.6550009,16.1097006 C24.153601,16.1097006 24.553801,15.9480006 24.877801,15.6159006 C25.228201,15.2730006 25.395301,14.8728006 25.395301,14.3847006 C25.395301,13.9428006 25.233001,13.5615005 24.899701,13.2204005 C24.855901,13.1859005 24.801001,13.1436005 24.736201,13.0950005 C24.537001,12.9468005 24.496501,12.6642005 24.644701,12.4656005 C24.794101,12.2664005 25.076101,12.2253005 25.275001,12.3741005 C25.359001,12.4374005 25.427701,12.4902005 25.481101,12.5322005 C25.494001,12.5427005 25.506901,12.5544005 25.519201,12.5661005 C26.034301,13.0818005 26.295601,13.6932005 26.295601,14.3844006 C26.295601,15.1170006 26.033101,15.7452006 25.515001,16.2519006 C25.026901,16.7523007 24.398701,17.0094007 23.6559009,17.0094007 C22.9668009,17.0094007 22.3557009,16.7541007 21.8412009,16.2519006 C21.4479009,15.8388006 21.2136008,15.3735006 21.1350008,14.8581006 L17.9955007,14.4393006 C17.8239007,15.3690006 17.3889007,16.1871006 16.6986007,16.8774007 C16.1775006,17.4081007 15.5862006,17.7924007 14.9373006,18.0228007 L15.6528006,21.0018008 C15.9633006,20.9877008 16.2813006,21.0387008 16.5714007,21.1494008 C16.8033007,21.2379008 16.9194007,21.4980009 16.8309007,21.7308009 C16.7616007,21.9102009 16.5909007,22.0200009 16.4097007,22.0200009 Z" id="Path"></path>
            <path d="M20.1600008,5.36970021 C19.7628008,5.36970021 19.3938008,5.28930021 19.0647008,5.1306002 C18.7767007,4.9866002 18.5355007,4.81710019 18.3423007,4.62390018 C17.8341007,4.09140016 17.5800007,3.46740014 17.5800007,2.76000011 C17.5800007,2.06340008 17.8338007,1.44390006 18.3348007,0.919500037 C18.7302007,0.535800021 19.1613008,0.304200012 19.6284008,0.217500009 C19.8738008,0.171900007 20.1075008,0.334200013 20.1528008,0.578400023 C20.1978008,0.822600033 20.0364008,1.05720004 19.7922008,1.10220004 C19.4985008,1.15680005 19.2309008,1.30440005 18.9735008,1.55340006 C18.6450007,1.89750008 18.4800007,2.29590009 18.4800007,2.76000011 C18.4800007,3.23460013 18.6453007,3.63840014 18.9858008,3.99450016 C19.1037008,4.11180016 19.2666008,4.22490017 19.4616008,4.32270017 C19.6650008,4.42110018 19.8951008,4.46970018 20.1603008,4.46970018 C20.6487008,4.46970018 21.0390008,4.31340017 21.3534008,3.99090016 C21.7128009,3.63180014 21.8853009,3.23040013 21.8853009,2.75970011 C21.8853009,2.29980009 21.7125009,1.90350008 21.3570008,1.54800006 C21.3483008,1.53930006 21.3396008,1.52970006 21.3318008,1.52040006 C21.2613008,1.43730006 21.1752008,1.37040005 21.0687008,1.31700005 C20.8467008,1.20510005 20.7564008,0.935100037 20.8683008,0.712800028 C20.9796008,0.49080002 21.2502008,0.401100016 21.4725009,0.51240002 C21.6804009,0.616800025 21.8601009,0.75570003 22.0062009,0.924300037 C22.5234009,1.44690006 22.7856009,2.06460008 22.7856009,2.75940011 C22.7856009,3.47070014 22.5189009,4.09770016 21.9939009,4.62270018 C21.5115009,5.1174002 20.8935008,5.36970021 20.1600008,5.36970021 Z" id="Path"></path>
            <path d="M12.8361005,9.88680039 C12.6714005,9.88680039 12.5130005,9.79470039 12.4344005,9.63660038 C12.3237005,9.41400037 12.4170005,9.14310036 12.6396005,9.03240036 C12.7626005,8.97090036 12.8955005,8.93970036 13.0350005,8.93970036 C13.2837005,8.93970036 13.4850005,9.14130036 13.4850005,9.38970037 C13.4850005,9.63810038 13.2837005,9.83970039 13.0350005,9.83970039 C12.9708005,9.87210039 12.9030005,9.88680039 12.8361005,9.88680039 Z" id="Path"></path>
            <path d="M17.6100007,14.3850006 C17.3613007,14.3850006 17.1600007,14.1831006 17.1600007,13.9350006 L17.1600007,13.5900005 C17.1600007,12.5436005 16.8003007,11.6706005 16.0599006,10.9215004 C15.8535006,10.7064004 15.6426006,10.5342004 15.4284006,10.4058004 C15.3222006,10.3419004 15.2472006,10.2375004 15.2205006,10.1163004 C15.1941006,9.9957004 15.2181006,9.86910039 15.2883006,9.76650039 L18.8883008,4.47210018 C19.0278008,4.26630017 19.3071008,4.21320017 19.5132008,4.35330017 C19.7190008,4.49340018 19.7721008,4.77270019 19.6320008,4.9785002 L16.2813006,9.90630039 C16.4265007,10.0218004 16.5684007,10.1511004 16.7049007,10.2942004 C17.6025007,11.2023004 18.0600007,12.3126005 18.0600007,13.5900005 L18.0600007,13.9350006 C18.0600007,14.1831006 17.8581007,14.3850006 17.6100007,14.3850006 Z" id="Path"></path>
            <path d="M15.6594006,10.4697004 C15.5757006,10.4697004 15.4908006,10.4469004 15.4155006,10.3977004 C15.1119006,10.2021004 14.7927006,10.0533004 14.4669006,9.9570004 C14.2290006,9.88620039 14.0925006,9.63600038 14.1630006,9.39750037 C14.2335006,9.15960036 14.4837006,9.02310036 14.7222006,9.09390036 C15.1305006,9.21450037 15.5280006,9.39930037 15.9036006,9.64170038 C16.1124006,9.77640039 16.1724006,10.0554004 16.0374006,10.2639004 C15.9516006,10.3971004 15.8067006,10.4697004 15.6594006,10.4697004 Z" id="Path"></path>
            <path d="M10.5300004,10.9503004 C10.4226004,10.9503004 10.3152004,10.9122004 10.2297004,10.8354004 L7.76970031,8.62980034 C7.5855003,8.46450034 7.5693003,8.18220033 7.73310031,7.99650032 C8.04060032,7.6491003 8.19000033,7.26120029 8.19000033,6.81000027 C8.19000033,6.34830025 8.03070032,5.96040024 7.70280031,5.62470022 C7.4529003,5.37510021 7.16100028,5.22510021 6.81450027,5.16990021 C6.56910026,5.1306002 6.40170025,4.90050019 6.44040026,4.65480018 C6.47940026,4.40940018 6.71040027,4.24230017 6.95520028,4.28100017 C7.4886003,4.36530017 7.95540032,4.60440018 8.34300033,4.9917002 C8.83980035,5.50080022 9.08970036,6.11130024 9.08970036,6.81000027 C9.08970036,7.33080029 8.95140036,7.80840031 8.67780034,8.23560033 L10.5435004,9.90840039 C10.8111004,9.70560039 11.0922004,9.53220038 11.3823005,9.39030037 C11.6061005,9.28200037 11.8752005,9.37380037 11.9841005,9.59760038 C12.0930005,9.82080039 12.0003005,10.0905004 11.7771005,10.1994004 C11.4441005,10.3617004 11.1246004,10.5768004 10.8270004,10.8381004 C10.7421004,10.9134004 10.6362004,10.9503004 10.5300004,10.9503004 Z" id="Path"></path>
            <path d="M6.51000026,9.41970037 C5.78670023,9.41970037 5.16360021,9.15720036 4.65810019,8.63970034 C4.15380017,8.11200032 3.90000015,7.4973003 3.90000015,6.81000027 C3.90000015,6.10920024 4.15620017,5.49750022 4.66200019,4.9917002 C4.79220019,4.84920019 4.9533002,4.72230019 5.1273002,4.62900018 C5.34660021,4.51110018 5.61930022,4.59330018 5.73660023,4.81230019 C5.85390023,5.0313002 5.77200023,5.30400021 5.55300022,5.42160022 C5.46840022,5.46660022 5.38740021,5.53170022 5.31210021,5.61390022 C4.9629002,5.96340024 4.80000019,6.35010025 4.80000019,6.81000027 C4.80000019,7.26420029 4.9653002,7.6584003 5.30550021,8.01480032 C5.63640022,8.35350033 6.03150024,8.52000034 6.51000026,8.52000034 C6.97860028,8.52000034 7.36860029,8.35350033 7.70310031,8.01150032 C7.73070031,7.98270032 7.76190031,7.95870032 7.79520031,7.93890032 C7.97010032,7.80420031 8.22240033,7.81470031 8.38470033,7.97340032 C8.56230034,8.14740032 8.56530034,8.43210034 8.39160033,8.60970034 C8.36130033,8.64090034 8.32980033,8.66700034 8.29740033,8.68950035 C7.80120031,9.17430036 7.20030029,9.41970037 6.51000026,9.41970037 Z" id="Path"></path>
            <path d="M4.78470019,16.8150007 C4.59690018,16.8150007 4.42290018,16.6962007 4.35930017,16.5108007 C4.26090017,16.2237006 4.10940016,15.9807006 3.89700015,15.7686006 C3.71490015,15.5868006 3.52860014,15.4608006 3.34290013,15.3936006 C3.10890012,15.3102006 2.98740012,15.0519006 3.07110012,14.8182006 C3.15510013,14.5842006 3.41160014,14.4630006 3.64650014,14.5467006 C3.95850016,14.6583006 4.25670017,14.8551006 4.53300018,15.1323006 C4.73970019,15.3387006 4.9107002,15.5721006 5.0436002,15.8283006 L8.87460035,14.7942006 C8.76840035,14.4009006 8.71470035,13.9977006 8.71470035,13.5894005 C8.71470035,12.3120005 9.17220036,11.2017004 10.0746004,10.2882004 C10.0872004,10.2759004 10.1001004,10.2642004 10.1139004,10.2531004 C10.1682004,10.2096004 10.2168004,10.1718004 10.2603004,10.1394004 C10.4595004,9.9906004 10.7415004,10.0317004 10.8903004,10.2309004 C11.0391004,10.4295004 10.9983004,10.7121004 10.7991004,10.8603004 C10.7679004,10.8837004 10.7337004,10.9101004 10.6962004,10.9401004 C9.9684004,11.6847005 9.61470038,12.5520005 9.61470038,13.5897005 C9.61470038,14.0520006 9.70050039,14.5071006 9.86940039,14.9430006 C9.91560039,15.0618006 9.90900039,15.1950006 9.85140039,15.3087006 C9.79380039,15.4224006 9.69030039,15.5067006 9.56730038,15.5400006 L4.90230019,16.7997007 C4.86300019,16.8102007 4.82370019,16.8150007 4.78470019,16.8150007 Z" id="Path"></path>
            <path d="M13.4100005,18.2850007 C12.1206005,18.2850007 10.9983004,17.8110007 10.0749004,16.8765007 C9.59250038,16.4058007 9.23760037,15.8577006 9.02550036,15.2550006 C8.94300036,15.0207006 9.06630036,14.7630006 9.30060037,14.6814006 C9.53550038,14.5995006 9.79200039,14.7225006 9.87450039,14.9562006 C10.0404004,15.4275006 10.3212004,15.8592006 10.7094004,16.2384006 C11.4738005,17.0118007 12.3552005,17.3850007 13.4097005,17.3850007 C13.7034005,17.3850007 14.0004006,17.3493007 14.2932006,17.2779007 C14.5356006,17.2197007 14.7783006,17.3679007 14.8371006,17.6091007 C14.8959006,17.8503007 14.7477006,18.0936007 14.5059006,18.1524007 C14.1438006,18.2406007 13.7751005,18.2850007 13.4100005,18.2850007 Z" id="Path"></path>
            <path d="M2.67000011,19.5600008 C1.96680008,19.5600008 1.35390005,19.2975008 0.848100034,18.7791007 C0.356400014,18.2886007 0.105000004,17.6769007 0.105000004,16.9650007 C0.105000004,16.2570006 0.354900014,15.6417006 0.847800034,15.1362006 C1.13820005,14.8569006 1.45950006,14.6493006 1.81260007,14.5071006 C2.04330008,14.4144006 2.30550009,14.5269006 2.3976001,14.7579006 C2.4900001,14.9892006 2.37780009,15.2511006 2.14710009,15.3426006 C1.90140008,15.4410006 1.67760007,15.5865006 1.48140006,15.7743006 C1.16430005,16.1007006 1.00500004,16.4937007 1.00500004,16.9650007 C1.00500004,17.4354007 1.16280005,17.8221007 1.48800006,18.1467007 C1.82670007,18.4932007 2.21220009,18.6600007 2.67000011,18.6600007 C3.16620013,18.6600007 3.56490014,18.4944007 3.88920015,18.1539007 C4.23300017,17.8182007 4.39500017,17.4327007 4.39500017,16.9644007 C4.39500017,16.7874007 4.37790017,16.6164007 4.34460017,16.4571007 C4.29360017,16.2138006 4.44930018,15.9759006 4.69260019,15.9249006 C4.9353002,15.8727006 5.17410021,16.0302006 5.22540021,16.2723006 C5.27160021,16.4922007 5.29500021,16.7259007 5.29500021,16.9650007 C5.29500021,17.6790007 5.0373002,18.2919007 4.52910018,18.7872007 C4.04430016,19.2960008 3.41490014,19.5600008 2.67000011,19.5600008 Z" id="Path"></path>
            <path d="M21.5550009,14.9100006 C21.3066008,14.9100006 21.1050008,14.7081006 21.1050008,14.4600006 L21.1050008,14.3850006 C21.1050008,13.7007005 21.3477008,13.0923005 21.8256009,12.5787005 C22.3191009,12.0966005 22.8954009,11.8422005 23.5560009,11.8059005 C23.8038009,11.7984005 24.016501,11.9829005 24.029401,12.2313005 C24.042901,12.4791005 23.8527009,12.6912005 23.6046009,12.7047005 C23.1627009,12.7287005 22.7919009,12.8934005 22.4697009,13.2075005 C22.1625009,13.5387005 22.0056009,13.9296006 22.0056009,14.3853006 L22.0056009,14.4603006 C22.0050009,14.7081006 21.8040009,14.9100006 21.5550009,14.9100006 Z" id="Path"></path>
            <path d="M15.7500006,26.190001 C15.0507006,26.190001 14.4354006,25.935001 13.9200006,25.432801 C13.4112005,24.923101 13.1550005,24.306601 13.1550005,23.5959009 C13.1550005,22.8852009 13.4112005,22.2681009 13.9167006,21.7626009 C14.2818006,21.3858008 14.7324006,21.1545008 15.2517006,21.0807008 C15.4977006,21.0468008 15.7254006,21.2166008 15.7605006,21.4626009 C15.7956006,21.7086009 15.6246006,21.9366009 15.3786006,21.9717009 C15.0576006,22.0173009 14.7894006,22.1550009 14.5584006,22.3935009 C14.2185006,22.7340009 14.0556006,23.1255009 14.0556006,23.5959009 C14.0556006,24.065701 14.2185006,24.457201 14.5536006,24.792301 C14.8953006,25.125901 15.2880006,25.290001 15.7503006,25.290001 C16.2189006,25.290001 16.6038007,25.128301 16.9281007,24.796201 C17.2671007,24.456901 17.4306007,24.065101 17.4306007,23.5956009 C17.4306007,23.2488009 17.3451007,22.9446009 17.1693007,22.6647009 C17.0373007,22.4547009 17.1006007,22.1766009 17.3109007,22.0446009 C17.5209007,21.9123009 17.7990007,21.9756009 17.9310007,22.1859009 C18.1959007,22.6071009 18.3306007,23.0811009 18.3306007,23.5956009 C18.3306007,24.306301 18.0744007,24.922801 17.5689007,25.428001 C17.0763007,25.932301 16.4631007,26.190001 15.7500006,26.190001 Z" id="Path"></path>
        </g>
    </g>
</svg>