<?xml version="1.0" encoding="UTF-8"?>
<svg width="27px" height="27px" viewBox="0 0 27 27" version="1.1" xmlns="http://www.w3.org/2000/svg" xmlns:xlink="http://www.w3.org/1999/xlink">
    <!-- Generator: Sketch 63.1 (92452) - https://sketch.com -->
    <title>connectedness</title>
    <desc>Created with Sketch.</desc>
    <g id="Real-content" stroke="none" stroke-width="1" fill="none" fill-rule="evenodd">
        <g id="connectedness" transform="translate(0.000000, 1.000000)" stroke="#FFFFFF">
            <path d="M6.46619271,8 C7.65360492,8 8.61619271,7.03741221 8.61619271,5.85 C8.61619271,4.66258779 7.65360492,3.7 6.46619271,3.7 C5.27878049,3.7 4.31619271,4.66258779 4.31619271,5.85 C4.31619271,7.03741221 5.27878049,8 6.46619271,8 Z" id="Oval"></path>
            <path d="M20.3594207,4.30153726 C21.5468329,4.30153726 22.5094207,3.33894947 22.5094207,2.15153726 C22.5094207,0.964125043 21.5468329,0.00153725539 20.3594207,0.00153725539 C19.1720085,0.00153725539 18.2094207,0.964125043 18.2094207,2.15153726 C18.2094207,3.33894947 19.1720085,4.30153726 20.3594207,4.30153726 Z" id="Oval-Copy-4"></path>
            <path d="M13.3805968,16.9215714 C15.7278069,16.9215714 17.6305968,15.0187815 17.6305968,12.6715714 C17.6305968,10.3243612 15.7278069,8.42157136 13.3805968,8.42157136 C11.0333866,8.42157136 9.13059676,10.3243612 9.13059676,12.6715714 C9.13059676,15.0187815 11.0333866,16.9215714 13.3805968,16.9215714 Z" id="Oval-Copy-9"></path>
            <path d="M23.6614386,15.5350006 C24.8488508,15.5350006 25.8114386,14.5724128 25.8114386,13.3850006 C25.8114386,12.1975884 24.8488508,11.2350006 23.6614386,11.2350006 C22.4740263,11.2350006 21.5114386,12.1975884 21.5114386,13.3850006 C21.5114386,14.5724128 22.4740263,15.5350006 23.6614386,15.5350006 Z" id="Oval-Copy-5"></path>
            <path d="M15.7235418,24.7831971 C16.910954,24.7831971 17.8735418,23.8206093 17.8735418,22.6331971 C17.8735418,21.4457849 16.910954,20.4831971 15.7235418,20.4831971 C14.5361296,20.4831971 13.5735418,21.4457849 13.5735418,22.6331971 C13.5735418,23.8206093 14.5361296,24.7831971 15.7235418,24.7831971 Z" id="Oval-Copy-8"></path>
            <path d="M2.69089343,18.1673074 C3.87830564,18.1673074 4.84089343,17.2047196 4.84089343,16.0173074 C4.84089343,14.8298952 3.87830564,13.8673074 2.69089343,13.8673074 C1.50348122,13.8673074 0.540893428,14.8298952 0.540893428,16.0173074 C0.540893428,17.2047196 1.50348122,18.1673074 2.69089343,18.1673074 Z" id="Oval-Copy-3"></path>
            <line x1="4.84089343" y1="15.3996639" x2="9.40391541" y2="14.1578916" id="Path-700"></line>
            <line x1="15.3405015" y1="20.4831971" x2="14.4053782" y2="16.7727997" id="Path-701"></line>
            <line x1="21.6168537" y1="13.4726257" x2="17.6305968" y2="12.9653681" id="Path-702"></line>
            <line x1="19.3054339" y1="3.7" x2="15.6030167" y2="9.05033371" id="Path-703"></line>
            <line x1="8.02672837" y1="7.30217939" x2="10.5658753" y2="9.46970042" id="Path-704"></line>
        </g>
    </g>
</svg>