<?xml version="1.0" encoding="UTF-8"?>
<svg width="21px" height="26px" viewBox="0 0 21 26" version="1.1" xmlns="http://www.w3.org/2000/svg" xmlns:xlink="http://www.w3.org/1999/xlink">
    <!-- Generator: Sketch 62 (91390) - https://sketch.com -->
    <title>noun_Construction_2784120</title>
    <desc>Created with Sketch.</desc>
    <g id="Real-content" stroke="none" stroke-width="1" fill="none" fill-rule="evenodd">
        <g id="noun_Construction_2784120" transform="translate(1.000000, 0.000000)" fill="#FFFFFF" fill-rule="nonzero" stroke="#343741" stroke-width="0.2">
            <g id="Group">
                <path d="M19.0080015,25.8800022 L19.0080015,10.5680011 L17.9520014,10.5680011 L17.9520014,12.1520012 L13.728001,12.1520012 L13.728001,10.5680011 L12.672001,10.5680011 L12.672001,12.1520012 L7.39200056,12.1520012 L7.39200056,17.4320016 L5.2800004,17.4320016 L5.2800004,16.3760015 L6.33600048,16.3760015 L6.33600048,15.3200014 L3.16800024,15.3200014 L3.16800024,14.2640013 L2.11200016,14.2640013 L2.11200016,15.3200014 L1.05600008,15.3200014 L1.05600008,13.7360013 L0,13.7360013 L0,25.8800022 L19.0080015,25.8800022 Z M8.44800064,13.2080013 L17.9520014,13.2080013 L17.9520014,24.8240021 L8.44800064,24.8240021 L8.44800064,13.2080013 Z M3.16800024,16.3760015 L4.22400032,16.3760015 L4.22400032,17.4320016 L3.16800024,17.4320016 L3.16800024,16.3760015 Z M1.05600008,16.3760015 L2.11200016,16.3760015 L2.11200016,17.4320016 L1.05600008,17.4320016 L1.05600008,16.3760015 Z M1.05600008,18.4880017 L7.39200056,18.4880017 L7.39200056,24.8240021 L1.05600008,24.8240021 L1.05600008,18.4880017 Z" id="Shape"></path>
                <path d="M10.5600008,0.536000293 L10.5600008,2.88612847 L5.12582439,6.34400074 L2.6400002,6.34400074 L2.6400002,9.51200098 L19.5360015,9.51200098 L19.5360015,6.34400074 L16.5343213,6.34400074 L11.6160009,2.90091247 L11.6160009,0.536000293 L10.5600008,0.536000293 Z M18.4800014,7.40000082 L18.4800014,8.4560009 L3.69600028,8.4560009 L3.69600028,7.40000082 L18.4800014,7.40000082 Z M14.6931851,6.34400074 L7.09315254,6.34400074 L11.0742728,3.80960054 L14.6931851,6.34400074 Z" id="Shape"></path>
                <path d="M9.50400073,20.6000018 L16.8960013,20.6000018 L16.8960013,14.2640013 L9.50400073,14.2640013 L9.50400073,20.6000018 Z M10.5600008,15.3200014 L15.8400012,15.3200014 L15.8400012,19.5440017 L10.5600008,19.5440017 L10.5600008,15.3200014 Z" id="Shape"></path>
                <path d="M2.11200016,22.712002 L6.33600048,22.712002 L6.33600048,19.5440017 L2.11200016,19.5440017 L2.11200016,22.712002 Z M3.16800024,20.6000018 L5.2800004,20.6000018 L5.2800004,21.6560019 L3.16800024,21.6560019 L3.16800024,20.6000018 Z" id="Shape"></path>
                <polygon id="Path" points="15.8400012 22.712002 13.728001 22.712002 13.728001 23.7680021 16.8960013 23.7680021 16.8960013 21.6560019 15.8400012 21.6560019"></polygon>
                <rect id="Rectangle" x="11.6160009" y="22.712002" width="1.05600008" height="1.05600008"></rect>
            </g>
        </g>
    </g>
</svg>