<?xml version="1.0" encoding="UTF-8"?>
<svg width="28px" height="19px" viewBox="0 0 28 19" version="1.1" xmlns="http://www.w3.org/2000/svg" xmlns:xlink="http://www.w3.org/1999/xlink">
    <!-- Generator: Sketch 63.1 (92452) - https://sketch.com -->
    <title>noun_education_169015</title>
    <desc>Created with Sketch.</desc>
    <g id="Real-content" stroke="none" stroke-width="1" fill="none" fill-rule="evenodd">
        <g id="noun_education_169015" transform="translate(1.000000, 1.000000)" fill="#FFFFFF" fill-rule="nonzero" stroke="#343741" stroke-width="0.2">
            <path d="M25.7200004,6.22000009 L13.2200002,0.0800000012 C13.0800002,0.0100000001 12.9200002,0.0100000001 12.7800002,0.0800000012 L0.280000004,6.22000009 C0.110000002,6.30000009 0,6.4800001 0,6.6700001 C0,6.8600001 0.110000002,7.0300001 0.280000004,7.12000011 L5.60000008,9.73000014 L5.60000008,11.2000002 L5.60000008,11.7900002 L5.60000008,13.7000002 C5.60000008,15.5600002 8.76000013,16.9700003 12.9500002,16.9700003 C17.1400003,16.9700003 20.3000003,15.5700002 20.3000003,13.7000002 L20.3000003,11.7900002 L20.3000003,11.2000002 L20.3000003,9.78000015 L22.3400003,8.78000013 L22.9000003,8.88000013 L22.9000003,10.1000002 C22.3000003,10.3100002 21.8700003,10.8800002 21.8700003,11.5500002 C21.8700003,12.0200002 22.0900003,12.4500002 22.4200003,12.7300002 L21.9000003,14.1000002 C21.8000003,14.3600002 21.9300003,14.6500002 22.1900003,14.7400002 C22.2500003,14.7600002 22.3100003,14.7700002 22.3700003,14.7700002 C22.5700003,14.7700002 22.7600003,14.6500002 22.8400003,14.4500002 L23.3600003,13.0800002 C23.3800003,13.0800002 23.3900003,13.0800002 23.4100003,13.0800002 C23.4400003,13.0800002 23.4700003,13.0800002 23.4900004,13.0800002 L23.9800004,14.3700002 C24.0600004,14.5700002 24.2500004,14.6900002 24.4500004,14.6900002 C24.5100004,14.6900002 24.5700004,14.6800002 24.6300004,14.6600002 C24.8900004,14.5600002 25.0200004,14.2700002 24.9200004,14.0200002 L24.4200004,12.7100002 C24.7400004,12.4300002 24.9500004,12.0100002 24.9500004,11.5500002 C24.9500004,10.8700002 24.5100004,10.3000002 23.9000004,10.0900002 L23.9000004,8.54000013 C23.9000004,8.54000013 23.9000004,8.54000013 23.9000004,8.54000013 C23.9100004,8.47000013 23.9100004,8.40000013 23.8900004,8.33000012 C23.8800004,8.23000012 23.8300004,8.14000012 23.7700004,8.07000012 L25.7200004,7.11000011 C25.8900004,7.0300001 26,6.8500001 26,6.6600001 C26,6.4700001 25.8900004,6.30000009 25.7200004,6.22000009 Z M17.6100003,15.2000002 C16.3700002,15.7000002 14.7200002,15.9700002 12.9500002,15.9700002 C11.1800002,15.9700002 9.53000014,15.7000002 8.29000012,15.2000002 C7.23000011,14.7700002 6.6000001,14.2100002 6.6000001,13.7000002 L6.6000001,13.6200002 C6.9500001,13.9100002 7.38000011,14.1700002 7.90000012,14.4000002 C9.26000014,15.0100002 11.0500002,15.3400002 12.9500002,15.3400002 C14.8500002,15.3400002 16.6400002,15.0100002 18.0000003,14.4000002 C18.5200003,14.1700002 18.9500003,13.9000002 19.3000003,13.6200002 L19.3000003,13.7000002 C19.3000003,14.2100002 18.6700003,14.7700002 17.6100003,15.2000002 Z M19.3000003,11.2000002 L19.3000003,11.7900002 C19.3000003,13.0000002 16.6900002,14.3500002 12.9500002,14.3500002 C9.21000014,14.3500002 6.6000001,13.0000002 6.6000001,11.7900002 L6.6000001,11.2000002 L6.6000001,10.2200002 L12.7800002,13.2500002 C12.8500002,13.2800002 12.9200002,13.3000002 13.0000002,13.3000002 C13.0800002,13.3000002 13.1500002,13.2800002 13.2200002,13.2500002 L19.3000003,10.2600002 L19.3000003,11.2000002 Z M23.4100003,12.0900002 C23.1100003,12.0900002 22.8700003,11.8500002 22.8700003,11.5500002 C22.8700003,11.2500002 23.1100003,11.0100002 23.4100003,11.0100002 C23.7100004,11.0100002 23.9500004,11.2500002 23.9500004,11.5500002 C23.9500004,11.8500002 23.7000004,12.0900002 23.4100003,12.0900002 Z M22.1900003,7.73000012 L13.0800002,6.17000009 C12.8100002,6.12000009 12.5500002,6.31000009 12.5000002,6.5800001 C12.4500002,6.8500001 12.6400002,7.11000011 12.9100002,7.16000011 L20.6500003,8.49000013 L13.0000002,12.2500002 L1.63000002,6.6700001 L13.0000002,1.09000002 L24.3700004,6.6700001 L22.1900003,7.73000012 Z" id="Shape"></path>
        </g>
    </g>
</svg>