<?xml version="1.0" encoding="UTF-8"?>
<svg width="28px" height="28px" viewBox="0 0 28 28" version="1.1" xmlns="http://www.w3.org/2000/svg" xmlns:xlink="http://www.w3.org/1999/xlink">
    <!-- Generator: Sketch 62 (91390) - https://sketch.com -->
    <title>noun_engineering design_1996843</title>
    <desc>Created with Sketch.</desc>
    <g id="Real-content" stroke="none" stroke-width="1" fill="none" fill-rule="evenodd">
        <g id="noun_engineering-design_1996843" fill="#FFFFFF" fill-rule="nonzero">
            <path d="M24.750001,0 L22.8600009,0 C22.6800009,0 22.5,0.180000007 22.5,0.390000015 L22.5,3.78000015 L2.25000009,3.78000015 C1.02000004,3.75000015 0,4.77000019 0,6 L0,24.750001 C0,25.980001 1.02000004,27 2.25000009,27 L4.14000016,27 C4.35000017,27 4.53000018,26.8200011 4.53000018,26.6100011 L4.53000018,23.2500009 L24.780001,23.2500009 C26.010001,23.2500009 27.0300011,22.2300009 27.0300011,21 L27.0300011,2.25000009 C27,1.02000004 25.980001,0 24.750001,0 Z M3.75000003,26.2500009 L2.25000003,26.2500009 C1.41000006,26.2500009 0.75000003,25.590001 0.75000003,24.7500009 C0.75000003,23.910001 1.41000006,23.2500009 2.25000003,23.2500009 L3.75000003,23.2500009 L3.75000003,26.2500009 Z M24.75,22.5000002 L4.14000016,22.5000002 L2.25000003,22.5000002 C2.19000009,22.5000002 2.10000008,22.5000002 2.04000008,22.5000002 C2.01000008,22.5000002 1.98000008,22.5000002 1.98000008,22.5000002 C1.92000008,22.5000002 1.89000008,22.5000002 1.83000007,22.5300009 C1.80000007,22.5300009 1.77000007,22.5300009 1.74000007,22.5600009 C1.71000007,22.5600009 1.65000007,22.5900009 1.62000006,22.5900009 C1.59000006,22.5900009 1.56000006,22.6200009 1.53000006,22.6200009 C1.50000006,22.6200009 1.44000006,22.6500009 1.41000006,22.6500009 C1.38000005,22.6500009 1.35000005,22.6800009 1.32000005,22.6800009 C1.29000005,22.7100009 1.26000005,22.7100009 1.20000005,22.7400009 C1.17000005,22.7400009 1.14000005,22.7700009 1.11000004,22.8000009 C1.08000004,22.8300009 1.05000004,22.8300009 1.02000004,22.8600009 C0.990000039,22.8900009 0.960000038,22.8900009 0.930000037,22.9200009 C0.900000036,22.9500009 0.870000035,22.9500009 0.840000033,22.9800009 C0.810000032,23.0100009 0.780000031,23.0100009 0.780000031,23.0400009 C0.780000031,23.0400009 0.75000003,23.0700009 0.75000003,23.0700009 L0.75000003,6.00000018 C0.75000003,5.16000021 1.41000006,4.50000018 2.25000003,4.50000018 L22.5000009,4.50000018 L22.5000009,19.1400008 C22.5000009,19.3500008 22.6800009,19.5300008 22.8900009,19.5300008 L24.780001,19.5300008 C25.620001,19.5300008 26.280001,20.1900008 26.280001,21.0300008 C26.280001,21.8700009 25.590001,22.5000002 24.75,22.5000002 Z M26.250001,19.3200008 C26.250001,19.3200008 26.2200009,19.2900008 26.2200009,19.2900008 C26.190001,19.2600008 26.160001,19.2600008 26.160001,19.2300008 C26.100001,19.2000008 26.070001,19.2000008 26.040001,19.1700008 C26.010001,19.1400008 25.980001,19.1400008 25.950001,19.1100008 C25.920001,19.0800008 25.890001,19.0800008 25.860001,19.0500008 C25.830001,19.0200008 25.800001,19.0200008 25.770001,18.9900008 C25.740001,18.9600008 25.710001,18.9600008 25.650001,18.9300008 C25.620001,18.9300008 25.590001,18.9000008 25.560001,18.9000008 C25.530001,18.8700007 25.470001,18.8700007 25.440001,18.8700007 C25.410001,18.8700007 25.380001,18.8400007 25.350001,18.8400007 C25.320001,18.8400007 25.260001,18.8100007 25.230001,18.8100007 C25.200001,18.8100007 25.170001,18.8100007 25.140001,18.7800007 C25.080001,18.7800007 25.050001,18.75 24.990001,18.75 C24.960001,18.75 24.930001,18.75 24.930001,18.75 C24.870001,18.75 24.780001,18.75 24.7200009,18.75 L23.2200009,18.75 L23.2200009,4.14000016 L23.2200009,0.75000003 L24.7200009,0.75000003 C25.560001,0.75000003 26.2200009,1.41000006 26.2200009,2.25000003 L26.2200009,19.3200008 L26.250001,19.3200008 Z" id="Shape"></path>
            <path d="M26.6400011,23.8200009 L5.43000022,23.8200009 C5.22000021,23.8200009 5.0400002,24.000001 5.0400002,24.210001 L5.0400002,24.240001 L5.0400002,25.260001 L5.0400002,26.6700011 C5.0400002,26.8800011 5.22000021,27.0600011 5.43000022,27.0600011 L26.6100011,27.0600011 C26.8200011,27.0600011 27.0000011,26.8800011 27.0000011,26.6700011 L27.0000011,25.260001 L27.0000011,24.240001 L27.0000011,24.210001 C27.0000011,23.970001 26.8200011,23.8200009 26.6400011,23.8200009 Z M26.250001,25.230001 L26.250001,26.250001 L5.82000023,26.250001 L5.82000023,25.230001 L5.82000023,24.570001 L7.41000029,24.570001 L7.41000029,25.230001 C7.41000029,25.440001 7.5900003,25.620001 7.80000031,25.620001 C8.01000032,25.620001 8.19000033,25.440001 8.19000033,25.230001 L8.19000033,24.570001 L9.78000039,24.570001 L9.78000039,25.230001 C9.78000039,25.440001 9.9600004,25.620001 10.1700004,25.620001 C10.3800004,25.620001 10.5600004,25.440001 10.5600004,25.230001 L10.5600004,24.570001 L12.1500005,24.570001 L12.1500005,25.230001 C12.1500005,25.440001 12.3300005,25.620001 12.5400005,25.620001 C12.7500005,25.620001 12.9300005,25.440001 12.9300005,25.230001 L12.9300005,24.570001 L14.5200006,24.570001 L14.5200006,25.230001 C14.5200006,25.440001 14.7000006,25.620001 14.9100006,25.620001 C15.1200006,25.620001 15.3000006,25.440001 15.3000006,25.230001 L15.3000006,24.570001 L16.8900007,24.570001 L16.8900007,25.230001 C16.8900007,25.440001 17.0700007,25.620001 17.2800007,25.620001 C17.4900007,25.620001 17.6700007,25.440001 17.6700007,25.230001 L17.6700007,24.570001 L19.2000008,24.570001 L19.2000008,25.230001 C19.2000008,25.440001 19.3800008,25.620001 19.5900008,25.620001 C19.8000008,25.620001 19.9800008,25.440001 19.9800008,25.230001 L19.9800008,24.570001 L21.5700009,24.570001 L21.5700009,25.230001 C21.5700009,25.440001 21.7500009,25.620001 21.9600009,25.620001 C22.1700009,25.620001 22.3500009,25.440001 22.3500009,25.230001 L22.3500009,24.570001 L23.940001,24.570001 L23.940001,25.230001 C23.940001,25.440001 24.120001,25.620001 24.330001,25.620001 C24.540001,25.620001 24.720001,25.440001 24.720001,25.230001 L24.720001,24.570001 L26.310001,24.570001 L26.310001,25.230001 L26.250001,25.230001 Z" id="Shape"></path>
            <path d="M12.3600005,11.1300004 C11.0700004,11.1300004 9.9900004,12.1800005 9.9900004,13.5000005 C9.9900004,14.8200006 11.0400004,15.8700006 12.3600005,15.8700006 C13.6800005,15.8700006 14.7000006,14.7900006 14.7000006,13.5000005 C14.7000006,12.2100005 13.6500005,11.1300004 12.3600005,11.1300004 Z M12.3600005,15.1200006 C11.4600005,15.1200006 10.7400004,14.4000006 10.7400004,13.5000005 C10.7400004,12.6000005 11.4600005,11.8800005 12.3600005,11.8800005 C13.2600005,11.8800005 13.9800006,12.6000005 13.9800006,13.5000005 C13.9800006,14.4000006 13.2300005,15.1200006 12.3600005,15.1200006 Z" id="Shape"></path>
            <path d="M19.5600008,12.0000005 L19.5300008,11.9100005 C19.4700008,11.6700005 19.4100008,11.4600005 19.3500008,11.2200004 C19.2900008,10.9800004 19.2000008,10.7700004 19.1100008,10.5600004 L19.0800008,10.4700004 C19.0200008,10.3200004 18.8700007,10.2300004 18.7200007,10.2300004 L17.3100007,10.2600004 C17.1900007,10.0800004 17.0700007,9.90000039 16.9200007,9.75000039 L17.4000007,8.43000033 C17.4600007,8.28000033 17.4000007,8.13000032 17.2800007,8.01000032 L17.2200007,7.95000032 C16.8600007,7.6500003 16.4700007,7.35000029 16.0800006,7.11000028 L15.9900006,7.08000028 C15.8700006,6.99000028 15.6900006,7.02000028 15.5700006,7.11000028 L14.4600006,7.98000032 C14.2500006,7.89000031 14.0400006,7.83000031 13.8300005,7.77000031 L13.4400005,6.42000026 C13.4100005,6.27000025 13.2600005,6.18000025 13.1100005,6.15000024 L13.0200005,6.15000024 C12.5400005,6.09000024 12.0900005,6.09000024 11.6100005,6.15000024 L11.5200005,6.15000024 C11.3700005,6.15000024 11.2500004,6.27000025 11.1900004,6.42000026 L10.8300004,7.80000031 C10.7400004,7.83000031 10.6200004,7.86000031 10.5300004,7.89000031 C10.4400004,7.92000031 10.3200004,7.95000032 10.2300004,8.01000032 L9.12000036,7.14000028 C9.00000036,7.05000028 8.82000035,7.05000028 8.70000035,7.11000028 L8.64000034,7.14000028 C8.22000033,7.38000029 7.86000031,7.6500003 7.5000003,7.98000032 L7.4400003,8.04000032 C7.32000029,8.13000032 7.29000029,8.31000033 7.35000029,8.46000034 L7.83000031,9.78000039 C7.68000031,9.9600004 7.5600003,10.1100004 7.4400003,10.2900004 L6.03000024,10.2600004 C5.88000023,10.2600004 5.73000023,10.3500004 5.67000023,10.4700004 L5.64000022,10.5600004 C5.46000022,10.9800004 5.31000021,11.4300005 5.19000021,11.9100005 L5.1300002,12.0000005 C5.1000002,12.1500005 5.16000021,12.3000005 5.28000021,12.3900005 L6.45000026,13.2000005 C6.45000026,13.4100005 6.45000026,13.6200005 6.45000026,13.8600006 L5.28000021,14.6700006 C5.16000021,14.7000006 5.1000002,14.8500006 5.1300002,15.0000006 L5.16000021,15.0900006 C5.22000021,15.3300006 5.28000021,15.5400006 5.34000021,15.7800006 C5.40000021,15.9900006 5.49000022,16.2300006 5.58000022,16.4400007 L5.61000022,16.5300007 C5.67000023,16.6800007 5.82000023,16.7700007 5.94000024,16.7700007 C5.94000024,16.7700007 5.94000024,16.7700007 5.94000024,16.7700007 L7.35000029,16.7400007 C7.4700003,16.9200007 7.5900003,17.1000007 7.74000031,17.2500007 L7.26000029,18.5700007 C7.20000029,18.7200007 7.26000029,18.8700007 7.35000029,18.9900008 L7.41000029,19.0500008 C7.77000031,19.3500008 8.13000032,19.6500008 8.55000034,19.8900008 L8.64000034,19.9200008 C8.76000035,20.0100008 8.94000036,19.9800008 9.06000036,19.8900008 L10.1700004,19.0200008 C10.3800004,19.1100008 10.5900004,19.1700008 10.8000004,19.2300008 L11.1900004,20.5800008 C11.2200004,20.7300008 11.3700005,20.8200008 11.5200005,20.8500008 L11.6100005,20.8500008 C11.8500005,20.8800008 12.0900005,20.8800008 12.3300005,20.8800008 C12.5700005,20.8800008 12.8100005,20.8800008 13.0200005,20.8500008 L13.1100005,20.8500008 C13.2600005,20.8500008 13.3800005,20.7300008 13.4400005,20.5800008 L13.8300005,19.2300008 C13.9500006,19.2000008 14.0400006,19.1700008 14.1300006,19.1400008 C14.2200006,19.1100008 14.3400006,19.0800008 14.4300006,19.0200008 L15.5400006,19.8900008 C15.6600006,19.9800008 15.8400006,19.9800008 15.9600006,19.9200008 L16.0500006,19.8900008 C16.4700007,19.6500008 16.8300007,19.3800008 17.1900007,19.0500008 L17.2500007,18.9900008 C17.3700007,18.9000008 17.4000007,18.7200007 17.3400007,18.5700007 L16.8600007,17.2500007 C17.0100007,17.0700007 17.1300007,16.9200007 17.2500007,16.7400007 L18.6600007,16.7700007 C18.8100007,16.7700007 18.9600008,16.6800007 19.0200008,16.5300007 L19.0500008,16.4400007 C19.2300008,16.0200006 19.3800008,15.5700006 19.5000008,15.0900006 L19.5300008,15.0000006 C19.5600008,14.8500006 19.5000008,14.7000006 19.3800008,14.6100006 L18.2100007,13.8000005 C18.2100007,13.5900005 18.2100007,13.3800005 18.2100007,13.1400005 L19.3800008,12.3300005 C19.5300008,12.3000005 19.5900008,12.1500005 19.5600008,12.0000005 Z M17.6400007,12.6900005 C17.5200007,12.7800005 17.4600007,12.9000005 17.4900007,13.0200005 C17.5200007,13.3200005 17.5200007,13.6500005 17.4900007,13.9800006 C17.4900007,14.1300006 17.5500007,14.2500006 17.6400007,14.3100006 L18.7800007,15.0900006 C18.6900007,15.3900006 18.6000007,15.6900006 18.4800007,15.9900006 L17.1000007,15.9600006 C16.9500007,15.9600006 16.8300007,16.0200006 16.7700007,16.1400006 C16.6200007,16.4100007 16.4100007,16.6800007 16.2000006,16.9200007 C16.1100006,17.0100007 16.0800006,17.1600007 16.1400006,17.2800007 L16.5900007,18.5700007 C16.3500006,18.7800007 16.1100006,18.9600008 15.8400006,19.1100008 L14.7600006,18.3000007 C14.6400006,18.2100007 14.5200006,18.2100007 14.3700006,18.2400007 C14.2200006,18.3000007 14.0700006,18.3600007 13.9200006,18.4200007 C13.7700005,18.4800007 13.6200005,18.5100007 13.4700005,18.5400007 C13.3500005,18.5700007 13.2300005,18.6600007 13.2000005,18.8100007 L12.8100005,20.1000008 C12.5100005,20.1300008 12.1800005,20.1300008 11.8800005,20.1000008 L11.4900005,18.7800007 C11.4600005,18.6600007 11.3400005,18.5400007 11.2200004,18.5100007 C10.9200004,18.4500007 10.5900004,18.3300007 10.3200004,18.2100007 C10.2000004,18.1500007 10.0500004,18.1800007 9.93000039,18.2700007 L8.85000035,19.1100008 C8.58000034,18.9300008 8.34000033,18.7500007 8.10000032,18.5700007 L8.55000034,17.2800007 C8.61000034,17.1600007 8.58000034,17.0100007 8.49000034,16.9200007 C8.28000033,16.6800007 8.10000032,16.4100007 7.92000031,16.1400006 C7.86000031,16.0200006 7.71000031,15.9600006 7.5900003,15.9600006 L6.21000025,15.9900006 C6.15000024,15.8400006 6.09000024,15.6900006 6.06000024,15.5400006 C6.00000024,15.3900006 5.97000024,15.2400006 5.94000024,15.0900006 L7.08000028,14.3100006 C7.20000029,14.2200006 7.26000029,14.1000006 7.23000029,13.9800006 C7.20000029,13.6800005 7.20000029,13.3500005 7.23000029,13.0200005 C7.23000029,12.8700005 7.17000028,12.7500005 7.08000028,12.6900005 L5.94000024,11.9100005 C6.03000024,11.6100005 6.12000024,11.3100004 6.24000025,11.0100004 L7.6200003,11.0400004 C7.77000031,11.0400004 7.89000031,10.9800004 7.95000032,10.8600004 C8.10000032,10.5900004 8.31000033,10.3200004 8.52000034,10.0800004 C8.61000034,9.9900004 8.64000034,9.84000039 8.58000034,9.72000039 L8.10000032,8.43000033 C8.34000033,8.22000033 8.58000034,8.04000032 8.85000035,7.89000031 L9.93000039,8.73000035 C10.0500004,8.82000035 10.1700004,8.82000035 10.3200004,8.79000035 C10.4700004,8.73000035 10.6200004,8.67000034 10.7700004,8.61000034 C10.9200004,8.55000034 11.0700004,8.52000034 11.2200004,8.49000034 C11.3400005,8.46000034 11.4600005,8.37000033 11.4900005,8.22000033 L11.8800005,6.90000027 C12.1800005,6.87000027 12.5100005,6.87000027 12.8100005,6.90000027 L13.2000005,8.22000033 C13.2300005,8.34000033 13.3500005,8.46000034 13.4700005,8.49000034 C13.7700005,8.55000034 14.1000006,8.67000034 14.3700006,8.79000035 C14.4900006,8.85000035 14.6400006,8.82000035 14.7600006,8.73000035 L15.8400006,7.89000031 C16.1100006,8.07000032 16.3500006,8.25000033 16.5900007,8.43000033 L16.1400006,9.72000039 C16.0800006,9.84000039 16.1100006,9.9900004 16.2000006,10.0800004 C16.4100007,10.3200004 16.5900007,10.5900004 16.7700007,10.8600004 C16.8300007,10.9800004 16.9500007,11.0700004 17.1000007,11.0400004 L18.4800007,11.0100004 C18.5400007,11.1600004 18.6000007,11.3100004 18.6300007,11.4600005 C18.6900007,11.6100005 18.7200007,11.7600005 18.7500007,11.9100005 L17.6400007,12.6900005 Z" id="Shape"></path>
        </g>
    </g>
</svg>