<?xml version="1.0" encoding="UTF-8"?>
<svg width="24px" height="25px" viewBox="0 0 24 25" version="1.1" xmlns="http://www.w3.org/2000/svg" xmlns:xlink="http://www.w3.org/1999/xlink">
    <!-- Generator: Sketch 62 (91390) - https://sketch.com -->
    <title>noun_Nurse_185677</title>
    <desc>Created with Sketch.</desc>
    <g id="Real-content" stroke="none" stroke-width="1" fill="none" fill-rule="evenodd">
        <g id="noun_Nurse_185677" fill="#FFFFFF" fill-rule="nonzero" stroke="#343741" stroke-width="0.5">
            <path d="M13.5025,19.0215 C12.688,19.6015 11.314,19.6015 10.4995,19.0215 C10.1635,18.7815 9.694,18.8585 9.453,19.1965 C9.212,19.5345 9.2905,20.002 9.6285,20.2435 C10.2935,20.717 11.147,20.9555 12.0005,20.9555 C12.854,20.9555 13.7085,20.717 14.3735,20.2435 C14.7105,20.004 14.7885,19.5345 14.5485,19.1965 C14.3085,18.8585 13.8385,18.7815 13.5025,19.0215 Z M18.6735,5.2365 L19.2255,3.3595 C19.3135,3.061 19.209,2.7425 18.963,2.5535 C17.1875,1.1915 14.6505,0.412 12.001,0.412 C9.3505,0.412 6.8135,1.193 5.039,2.5535 C4.793,2.7425 4.6885,3.0635 4.7765,3.3595 L5.3285,5.2375 C2.3235,7.3 0.352,10.7065 0.352,14.5625 C0.352,18.0995 2.0935,21.9015 6.9285,22.162 C8.3325,23.66 10.1145,24.588 12.0015,24.588 C13.8875,24.588 15.6695,23.661 17.074,22.162 C21.909,21.9015 23.65,18.0995 23.65,14.5625 C23.649,10.7085 21.678,7.299 18.6735,5.2365 Z M12.0005,23.088 C8.563,23.088 5.549,19.126 5.4955,14.58 C8.1295,14.2305 10.475,13.0495 12.0005,11.2895 C13.5265,13.0495 15.8715,14.23 18.506,14.58 C18.4525,19.126 15.438,23.088 12.0005,23.088 Z M18.3635,20.4315 C19.349,18.79 19.9585,16.7965 20.0005,14.6875 C20.0495,14.6885 20.0965,14.6915 20.146,14.6915 C20.56,14.6915 20.896,14.3555 20.896,13.9415 C20.896,13.5275 20.56,13.1915 20.146,13.1915 C16.951,13.1915 14.0705,11.83 12.6265,9.64 C12.47,9.389 12.239,8.918 12.1805,8.573 C12.112,8.1655 11.737,7.8795 11.3325,7.94 C10.9225,7.9985 10.6375,8.3795 10.697,8.7885 C10.7075,8.8635 10.7985,9.4145 11.104,10.0135 C9.591,11.9825 6.862,13.19 3.854,13.19 C3.44,13.19 3.104,13.526 3.104,13.94 C3.104,14.354 3.44,14.69 3.854,14.69 C3.9035,14.69 3.9505,14.687 3.9995,14.686 C4.0415,16.7965 4.6525,18.7895 5.6375,20.431 C2.172,19.47 1.851,15.7955 1.851,14.562 C1.851,11.3935 3.394,8.5785 5.778,6.768 L6.1535,8.046 C6.27,8.445 6.689,8.669 7.0845,8.5555 C7.482,8.4385 7.7095,8.0225 7.593,7.6245 L6.365,3.449 C7.855,2.4675 9.8765,1.9115 12.0005,1.9115 C14.1225,1.9115 16.144,2.4675 17.6355,3.4495 L16.4075,7.6245 C16.291,8.0225 16.5185,8.4385 16.916,8.5555 C16.987,8.576 17.0575,8.586 17.128,8.586 C17.452,8.586 17.751,8.3745 17.847,8.048 L18.2235,6.767 C20.6085,8.5785 22.1495,11.396 22.1495,14.5635 C22.149,15.798 21.827,19.4705 18.3635,20.4315 Z M13.3325,4.0655 L12.7505,4.0655 L12.7505,3.4845 C12.7505,3.0705 12.4145,2.7345 12.0005,2.7345 C11.5865,2.7345 11.2505,3.0705 11.2505,3.4845 L11.2505,4.0655 L10.6685,4.0655 C10.2545,4.0655 9.9185,4.4015 9.9185,4.8155 C9.9185,5.2295 10.2545,5.5655 10.6685,5.5655 L11.2505,5.5655 L11.2505,6.1485 C11.2505,6.5625 11.5865,6.8985 12.0005,6.8985 C12.4145,6.8985 12.7505,6.5625 12.7505,6.1485 L12.7505,5.5655 L13.3325,5.5655 C13.7465,5.5655 14.0825,5.2295 14.0825,4.8155 C14.0825,4.4015 13.7465,4.0655 13.3325,4.0655 Z" id="Shape"></path>
        </g>
    </g>
</svg>