<?xml version="1.0" encoding="UTF-8"?>
<svg width="24px" height="25px" viewBox="0 0 24 25" version="1.1" xmlns="http://www.w3.org/2000/svg" xmlns:xlink="http://www.w3.org/1999/xlink">
    <!-- Generator: Sketch 61 (89581) - https://sketch.com -->
    <title>Group</title>
    <desc>Created with Sketch.</desc>
    <g id="Hover-points" stroke="none" stroke-width="1" fill="none" fill-rule="evenodd">
        <g id="Wanderen-beispiel" transform="translate(-732.000000, -543.000000)" fill="#FFFFFF" fill-rule="nonzero">
            <g id="Group-20" transform="translate(520.000000, 243.000000)">
                <g id="Group" transform="translate(212.000000, 300.000000)">
                    <path d="M23.616,8.15180488 L21.696,6.22009756 C21.6192,6.14282927 21.5424,6.10419512 21.4272,6.10419512 L17.2032,6.10419512 L19.8912,3.97931707 C19.968,3.90204878 20.0064,3.82478049 20.0448,3.70887805 L20.3904,1.0044878 C20.3904,1.0044878 20.3904,1.0044878 20.3904,1.0044878 L20.3904,1.0044878 C20.4288,0.811317073 20.2752,0.618146341 20.0448,0.579512195 L17.3184,0.231804878 C17.2032,0.231804878 17.1264,0.231804878 17.0496,0.309073171 L13.2096,3.28390244 L13.2096,1.35219512 C13.248,0.618146341 12.6336,0 11.904,0 C11.1744,0 10.56,0.618146341 10.56,1.35219512 L10.56,9.46536585 L6.72,6.49053659 C6.6432,6.41326829 6.528,6.41326829 6.4512,6.41326829 L3.7248,6.76097561 C3.7248,6.76097561 3.7248,6.76097561 3.7248,6.76097561 C3.4944,6.79960976 3.3792,6.99278049 3.3792,7.18595122 L3.7248,9.92897561 C3.7248,10.044878 3.8016,10.1221463 3.8784,10.1994146 L6.5664,12.3242927 L2.4192,12.3242927 C2.304,12.3242927 2.2272,12.3629268 2.1504,12.4401951 L0.2304,14.3719024 C0.0768,14.526439 0.0768,14.7582439 0.2304,14.9127805 L2.1504,16.8444878 C2.2272,16.9217561 2.304,16.9603902 2.4192,16.9603902 L10.56,16.9603902 L10.56,22.0214634 L9.5616,22.0214634 C8.4864,22.0214634 7.6032,22.9100488 7.6032,23.9918049 L7.6032,24.3395122 C7.6032,24.5713171 7.7568,24.7258537 7.9872,24.7258537 L15.8592,24.7258537 C16.0896,24.7258537 16.2432,24.5713171 16.2432,24.3395122 L16.2432,23.9918049 C16.2432,22.9100488 15.36,22.0214634 14.2848,22.0214634 L13.2864,22.0214634 L13.2864,10.7789268 L21.4272,10.7789268 C21.5424,10.7789268 21.6192,10.7402927 21.696,10.6630244 L23.616,8.73131707 C23.7696,8.57678049 23.7696,8.30634146 23.616,8.15180488 Z M17.4336,1.0044878 L19.0464,1.19765854 L16.2432,3.24526829 C16.0896,3.36117073 16.0512,3.63160976 16.1664,3.78614634 C16.5504,4.32702439 17.0496,3.43843902 19.584,1.77717073 L19.3152,3.47707317 L15.9744,6.10419512 L13.248,6.10419512 L13.248,4.28839024 L17.4336,1.0044878 Z M10.56,16.1490732 L2.5728,16.1490732 L1.4208,14.9900488 L4.9152,14.9900488 C5.1456,14.9900488 5.2992,14.8355122 5.2992,14.6037073 C5.2992,14.3719024 5.1456,14.2173659 4.9152,14.2173659 L1.4208,14.2173659 L2.5728,13.0583415 L10.56,13.0583415 L10.56,16.1490732 Z M7.8336,12.2470244 L4.4928,9.61990244 L4.2624,7.92 L7.1424,10.0062439 C7.296,10.1221463 7.5648,10.0835122 7.68,9.92897561 C7.7952,9.77443902 7.7568,9.504 7.6032,9.38809756 L4.8,7.3404878 L6.3744,7.14731707 L10.56,10.4312195 L10.56,12.2470244 L7.8336,12.2470244 Z M15.4368,23.9531707 L8.3712,23.9531707 C8.3712,23.2963902 8.9088,22.7941463 9.5616,22.7941463 C9.6384,22.7941463 14.2848,22.7941463 14.2848,22.7941463 C14.8992,22.7941463 15.4368,23.2963902 15.4368,23.9531707 Z M11.328,22.0214634 L11.328,1.35219512 C11.328,1.04312195 11.5968,0.772682927 11.904,0.772682927 C12.2112,0.772682927 12.48,1.04312195 12.48,1.35219512 C12.48,5.60195122 12.48,17.694439 12.48,22.0214634 L11.328,22.0214634 Z M21.2352,10.0062439 L13.248,10.0062439 L13.248,6.87687805 C16.2048,6.87687805 18.2784,6.87687805 21.2352,6.87687805 L22.3872,8.03590244 L18.8928,8.03590244 C18.6624,8.03590244 18.5088,8.19043902 18.5088,8.4222439 C18.5088,8.65404878 18.6624,8.80858537 18.8928,8.80858537 L22.3872,8.80858537 L21.2352,10.0062439 Z" id="Shape"></path>
                    <path d="M19.4688,23.9531707 L17.9328,23.9531707 C17.7024,23.9531707 17.5488,24.1077073 17.5488,24.3395122 C17.5488,24.5713171 17.7024,24.7258537 17.9328,24.7258537 L19.4688,24.7258537 C19.6992,24.7258537 19.8528,24.5713171 19.8528,24.3395122 C19.8528,24.1077073 19.6992,23.9531707 19.4688,23.9531707 Z" id="Path"></path>
                    <path d="M22.9248,23.9531707 L21.3888,23.9531707 C21.1584,23.9531707 21.0048,24.1077073 21.0048,24.3395122 C21.0048,24.5713171 21.1584,24.7258537 21.3888,24.7258537 L22.9248,24.7258537 C23.1552,24.7258537 23.3088,24.5713171 23.3088,24.3395122 C23.3088,24.1077073 23.1552,23.9531707 22.9248,23.9531707 Z" id="Path"></path>
                    <path d="M2.4192,23.9531707 L0.8832,23.9531707 C0.6528,23.9531707 0.4992,24.1077073 0.4992,24.3395122 C0.4992,24.5713171 0.6528,24.7258537 0.8832,24.7258537 L2.4192,24.7258537 C2.6496,24.7258537 2.8032,24.5713171 2.8032,24.3395122 C2.8032,24.1077073 2.6112,23.9531707 2.4192,23.9531707 Z" id="Path"></path>
                    <path d="M5.8752,23.9531707 L4.3392,23.9531707 C4.1088,23.9531707 3.9552,24.1077073 3.9552,24.3395122 C3.9552,24.5713171 4.1088,24.7258537 4.3392,24.7258537 L5.8752,24.7258537 C6.1056,24.7258537 6.2592,24.5713171 6.2592,24.3395122 C6.2592,24.1077073 6.0672,23.9531707 5.8752,23.9531707 Z" id="Path"></path>
                </g>
            </g>
        </g>
    </g>
</svg>