<?xml version="1.0" encoding="UTF-8"?>
<svg width="25px" height="26px" viewBox="0 0 25 26" version="1.1" xmlns="http://www.w3.org/2000/svg" xmlns:xlink="http://www.w3.org/1999/xlink">
    <!-- Generator: Sketch 60.1 (88133) - https://sketch.com -->
    <desc>Created with Sketch.</desc>
    <g id="Real-content" stroke="none" stroke-width="1" fill="none" fill-rule="evenodd">
        <g id="Group-12" transform="translate(0.287988, 1.000000)" fill="#FFFFFF" fill-rule="nonzero" stroke="#FFFFFF">
            <path d="M23.7234374,0 L21.702539,0 C21.5367187,0 21.402539,0.13432617 21.402539,0.3 L21.402539,1.17685548 L20.2160156,1.17685548 L20.2160156,0.3 C20.2160156,0.13432617 20.0818359,0 19.9160156,0 L18.1297851,0 C17.9639648,0 17.8297851,0.13432617 17.8297851,0.3 L17.8297851,1.17685548 L16.6432617,1.17685548 L16.6432617,0.3 C16.6432617,0.13432617 16.509082,0 16.3432617,0 L14.296582,0 C14.1307617,0 13.996582,0.13432617 13.996582,0.3 L13.996582,3.7416504 C13.996582,4.35966798 14.4814453,4.86254883 15.0773437,4.86254883 L15.4655273,4.86254883 L15.4655273,11.5114746 L14.9686523,11.5114746 C14.802832,11.5114746 14.6686523,11.6458008 14.6686523,11.8114746 L14.6686523,12.7713867 L13.275293,12.7713867 L13.275293,11.8114746 C13.275293,11.6458008 13.1411133,11.5114746 12.975293,11.5114746 L11.0484375,11.5114746 C10.8826172,11.5114746 10.7484375,11.6458008 10.7484375,11.8114746 L10.7484375,12.7713867 L9.35507811,12.7713867 L9.35507811,11.8114746 C9.35507811,11.6458008 9.22089843,11.5114746 9.05507811,11.5114746 L8.55791013,11.5114746 L8.55791013,4.86254883 L9.01494138,4.86254883 C9.61435545,4.86254883 10.1018555,4.35966798 10.1018555,3.7416504 L10.1018555,0.3 C10.1018555,0.13432617 9.96767577,0 9.80185545,0 L7.76484372,0 C7.5990234,0 7.46484372,0.13432617 7.46484372,0.3 L7.46484372,1.17685548 L6.26425779,1.17685548 L6.26425779,0.3 C6.26425779,0.13432617 6.13007811,0 5.96425779,0 L4.16367186,0 C3.99785154,0 3.86367186,0.13432617 3.86367186,0.3 L3.86367186,1.17685548 L2.66308593,1.17685548 L2.66308593,0.3 C2.66308593,0.13432617 2.52890625,0 2.36308593,0 L0.3,0 C0.13417968,0 1.58095759e-13,0.13432617 1.58095759e-13,0.3 L1.58095759e-13,3.7416504 C1.58095759e-13,4.35966798 0.4875,4.86254883 1.08691407,4.86254883 L1.38896484,4.86254883 L1.38896484,21.0625488 L0.31201167,21.0625488 C0.14619135,21.0625488 0.01201167,21.196875 0.01201167,21.3625488 L0.01201167,23.7 C0.01201167,23.8656738 0.14619135,24 0.31201167,24 L23.7117187,24 C23.877539,24 24.0117187,23.8656738 24.0117187,23.7 L24.0117187,21.3625488 C24.0117187,21.196875 23.877539,21.0625488 23.7117187,21.0625488 L22.6344726,21.0625488 L22.6344726,4.86254883 L22.9426757,4.86254883 C23.5385742,4.86254883 24.0234375,4.35966798 24.0234375,3.7416504 L24.0234375,0.3 C24.0234375,0.13432617 23.8892578,0 23.7234374,0 Z M9.05507808,13.3713867 L11.0484374,13.3713867 C11.2142578,13.3713867 11.3484374,13.2370606 11.3484374,13.0713867 L11.3484374,12.1114746 L12.6752929,12.1114746 L12.6752929,13.0713867 C12.6752929,13.2370606 12.8094726,13.3713867 12.9752929,13.3713867 L14.9686523,13.3713867 C15.1344726,13.3713867 15.2686523,13.2370606 15.2686523,13.0713867 L15.2686523,12.1114746 L16.6916015,12.1114746 L16.6916015,21.0625489 L15.0164062,21.0625489 L15.0164062,18.3268067 C15.0164062,16.6715333 13.668457,15.3249024 12.0117187,15.3249024 C10.3549804,15.3249024 9.00703119,16.6715332 9.00703119,18.3268067 L9.00703119,21.0625489 L7.33183587,21.0625489 L7.33183587,12.1114746 L8.75507805,12.1114746 L8.75507805,13.0713867 C8.75507808,13.2370606 8.88925776,13.3713867 9.05507808,13.3713867 Z M9.60703119,21.0625488 L9.60703119,18.3268067 C9.60703119,17.1078735 10.5215515,16.1003906 11.7008789,15.9473145 L11.7008789,21.0625488 L9.60703119,21.0625488 Z M12.3008789,15.9440002 C13.4907714,16.0873535 14.4164062,17.1003662 14.4164062,18.3268066 L14.4164062,21.0625488 L12.3008789,21.0625488 L12.3008789,15.9440002 Z M0.59999994,3.7416504 L0.59999994,0.6 L2.06308587,0.6 L2.06308587,1.47685548 C2.06308587,1.64252931 2.19726555,1.77685548 2.36308587,1.77685548 L4.1636718,1.77685548 C4.32949212,1.77685548 4.4636718,1.64252931 4.4636718,1.47685548 L4.4636718,0.6 L5.66425773,0.6 L5.66425773,1.47685548 C5.66425773,1.64252931 5.79843741,1.77685548 5.96425773,1.77685548 L7.76484366,1.77685548 C7.93066398,1.77685548 8.06484366,1.64252931 8.06484366,1.47685548 L8.06484366,0.6 L9.50185539,0.6 L9.50185539,3.7416504 C9.50185539,4.02890625 9.28330071,4.26254883 9.01494132,4.26254883 L1.08691401,4.26254883 C0.81855465,4.26254883 0.59999994,4.02890625 0.59999994,3.7416504 Z M1.98896481,18.1782715 L3.32666013,18.1782715 C3.49248045,18.1782715 3.62666013,18.0439453 3.62666013,17.8782715 C3.62666013,17.7125977 3.49248045,17.5782715 3.32666013,17.5782715 L1.98896481,17.5782715 L1.98896481,12.6338379 L3.32666013,12.6338379 C3.49248045,12.6338379 3.62666013,12.4995117 3.62666013,12.3338379 C3.62666013,12.1681641 3.49248045,12.0338379 3.32666013,12.0338379 L1.98896481,12.0338379 L1.98896481,4.86254883 L7.95791013,4.86254883 L7.95791013,11.5114746 L7.0318359,11.5114746 C6.86601558,11.5114746 6.7318359,11.6458008 6.7318359,11.8114746 L6.7318359,14.8060547 L5.39384763,14.8060547 C5.22802731,14.8060547 5.09384763,14.9403809 5.09384763,15.1060547 C5.09384763,15.2717285 5.22802731,15.4060547 5.39384763,15.4060547 L6.7318359,15.4060547 L6.7318359,21.0625488 L1.98896481,21.0625488 L1.98896481,18.1782715 Z M23.4117187,23.4 L0.61201167,23.4 L0.61201167,21.6625488 L23.4117187,21.6625488 L23.4117187,23.4 Z M22.0344726,12.0338379 L20.6964843,12.0338379 C20.530664,12.0338379 20.3964843,12.1681641 20.3964843,12.3338379 C20.3964843,12.4995117 20.530664,12.6338379 20.6964843,12.6338379 L22.0344726,12.6338379 L22.0344726,17.5782715 L20.6964843,17.5782715 C20.530664,17.5782715 20.3964843,17.7125977 20.3964843,17.8782715 C20.3964843,18.0439453 20.530664,18.1782715 20.6964843,18.1782715 L22.0344726,18.1782715 L22.0344726,21.0625488 L17.2916015,21.0625488 L17.2916015,15.4060547 L18.6295898,15.4060547 C18.7954101,15.4060547 18.9295898,15.2717285 18.9295898,15.1060547 C18.9295898,14.9403808 18.7954101,14.8060547 18.6295898,14.8060547 L17.2916015,14.8060547 L17.2916015,11.8114746 C17.2916015,11.6458008 17.1574218,11.5114746 16.9916015,11.5114746 L16.0655273,11.5114746 L16.0655273,4.86254883 L22.0344726,4.86254883 L22.0344726,12.0338379 L22.0344726,12.0338379 Z M23.4234374,3.7416504 C23.4234374,4.02890625 23.2078124,4.26254883 22.9426757,4.26254883 L15.0773437,4.26254883 C14.812207,4.26254883 14.596582,4.02890625 14.596582,3.7416504 L14.596582,0.6 L16.0432617,0.6 L16.0432617,1.47685548 C16.0432617,1.64252931 16.1774414,1.77685548 16.3432617,1.77685548 L18.1297851,1.77685548 C18.2956054,1.77685548 18.4297851,1.64252931 18.4297851,1.47685548 L18.4297851,0.6 L19.6160156,0.6 L19.6160156,1.47685548 C19.6160156,1.64252931 19.7501953,1.77685548 19.9160156,1.77685548 L21.702539,1.77685548 C21.8683593,1.77685548 22.002539,1.64252931 22.002539,1.47685548 L22.002539,0.6 L23.4234374,0.6 L23.4234374,3.7416504 L23.4234374,3.7416504 Z" id="Shape" stroke-width="0.3"></path>
            <path d="M6.6735351,9.81005859 L6.6735351,7.61923827 C6.6735351,6.68261718 5.91093744,5.92060545 4.97343744,5.92060545 C4.03593744,5.92060545 3.27333978,6.68261718 3.27333978,7.61923827 L3.27333978,9.81005859 C3.27333978,9.97573242 3.40751946,10.1100586 3.57333978,10.1100586 L6.3735351,10.1100586 C6.53935542,10.1100586 6.6735351,9.97573242 6.6735351,9.81005859 Z M6.0735351,9.51005859 L3.87333978,9.51005859 L3.87333978,7.61923827 C3.87333978,7.01337891 4.36669914,6.52060545 4.97343744,6.52060545 C5.58017574,6.52060545 6.0735351,7.01337888 6.0735351,7.61923827 L6.0735351,9.51005859 Z" id="Shape" stroke-width="0.2"></path>
            <path d="M17.736914,10.1100586 L20.5368163,10.1100586 C20.7026367,10.1100586 20.8368163,9.97573242 20.8368163,9.81005859 L20.8368163,7.61923827 C20.8368163,6.68261718 20.0742187,5.92060545 19.1370117,5.92060545 C18.1995117,5.92060545 17.436914,6.68261718 17.436914,7.61923827 L17.436914,9.81005859 C17.436914,9.97573242 17.5710937,10.1100586 17.736914,10.1100586 Z M18.036914,7.61923827 C18.036914,7.01337891 18.5302734,6.52060545 19.1370117,6.52060545 C19.743457,6.52060545 20.2368163,7.01337888 20.2368163,7.61923827 L20.2368163,9.51005859 L18.036914,9.51005859 L18.036914,7.61923827 L18.036914,7.61923827 Z" id="Shape" stroke-width="0.2"></path>
        </g>
    </g>
</svg>
