<?xml version="1.0" encoding="UTF-8"?>
<svg width="30px" height="22px" viewBox="0 0 30 22" version="1.1" xmlns="http://www.w3.org/2000/svg" xmlns:xlink="http://www.w3.org/1999/xlink">
    <!-- Generator: Sketch 62 (91390) - https://sketch.com -->
    <title>noun_Road_1464191</title>
    <desc>Created with Sketch.</desc>
    <g id="Real-content" stroke="none" stroke-width="1" fill="none" fill-rule="evenodd">
        <g id="noun_Road_1464191" fill="#FFFFFF" fill-rule="nonzero" stroke="#FFFFFF" stroke-width="0.2">
            <g id="Group" transform="translate(0.000000, 0.255128)">
                <path d="M8.12500012,0.144872002 L8.02500012,0.394872006 L0.425000006,20.3948723 L0.225000003,20.9448723 L0.800000012,20.9448723 L26.0000004,20.9448723 L26.0000004,20.144872 L17.1750003,20.144872 L16.8000003,15.3073722 L16.7750002,14.9448722 L16.4000002,14.9448722 L13.2000002,14.9448722 L12.8250002,14.9448722 L12.8000002,15.3073722 L12.4250002,20.144872 L1.37500002,20.144872 L8.67500013,0.944872014 L13.5750002,0.944872014 L13.2000002,6.10737209 L13.1750002,6.5448721 L13.6000002,6.5448721 L16.0000002,6.5448721 L16.4250002,6.5448721 L16.4000002,6.10737209 L16.0250002,0.944872014 L20.9250003,0.944872014 L28.4250004,20.6823723 L29.1750004,20.3948723 L21.5750003,0.394872006 L21.4750003,0.144872002 L21.2000003,0.144872002 L8.40000013,0.144872002 L8.12500012,0.144872002 Z M14.3750002,0.944872014 L15.2250002,0.944872014 L15.5750002,5.74487209 L14.0250002,5.74487209 L14.3750002,0.944872014 Z M13.2250002,7.74487212 L13.2000002,8.11987212 L12.8000002,13.3198722 L12.7625002,13.7448721 L13.2000002,13.7448721 L16.4000002,13.7448721 L16.8375003,13.7448721 L16.8000003,13.3198722 L16.4000002,8.11987212 L16.3750002,7.74487212 L16.0000002,7.74487212 L13.6000002,7.74487212 L13.2250002,7.74487212 Z M13.9750002,8.54487213 L15.6250002,8.54487213 L15.9625002,12.9448722 L13.6375002,12.9448722 L13.9750002,8.54487213 Z M13.5750002,15.7448722 L16.0250002,15.7448722 L16.3625002,20.1448723 L13.2375002,20.1448723 L13.5750002,15.7448722 Z" id="Shape"></path>
            </g>
        </g>
    </g>
</svg>