<?xml version="1.0" encoding="UTF-8"?>
<svg width="45px" height="29px" viewBox="0 0 45 29" version="1.1" xmlns="http://www.w3.org/2000/svg" xmlns:xlink="http://www.w3.org/1999/xlink">
    <!-- Generator: Sketch 63.1 (92452) - https://sketch.com -->
    <desc>Created with Sketch.</desc>
    <g id="Real-content" stroke="none" stroke-width="1" fill="none" fill-rule="evenodd">
        <g id="interior" transform="translate(1.000000, 0.000000)">
            <path d="M32.5999984,14.7599991 L32.5999984,11.6999995 C32.5999984,10.0199994 31.2799984,8.69999948 29.5999985,8.69999948 L16.3999993,8.69999948 C14.7199994,8.69999948 13.3999995,10.0199994 13.3999995,11.6999995 L13.3999995,14.7599991 C12.0199996,14.9999991 10.9999996,16.259999 10.9999996,17.6999995 L10.9999996,23.6999995 C10.9999996,24.7199985 11.7799996,25.4999985 12.7999995,25.4999985 L13.3999995,25.4999985 L13.3999995,27.2999984 C13.3999995,27.6599984 13.6399995,27.8999983 13.9999996,27.8999983 L16.3999993,27.8999983 C16.7599993,27.8999983 16.9999996,27.6599984 16.9999996,27.2999984 L16.9999996,25.4999985 L28.9999996,25.4999985 L28.9999996,27.2999984 C28.9999996,27.6599984 29.2399986,27.8999983 29.5999985,27.8999983 L31.9999996,27.8999983 C32.3599984,27.8999983 32.5999984,27.6599984 32.5999984,27.2999984 L32.5999984,25.4999985 L33.1999983,25.4999985 C34.2199983,25.4999985 34.9999996,24.7199985 34.9999996,23.6999995 L34.9999996,17.6999995 C34.9999996,16.259999 33.9799983,15.0599991 32.5999984,14.7599991 Z M16.3999993,9.89999941 L29.5999994,9.89999941 C30.6199985,9.89999941 31.3999984,10.6799994 31.3999984,11.6999993 L31.3999984,14.7599991 C30.0199985,14.9999991 28.9999986,16.259999 28.9999986,17.6999989 L28.9999986,20.0999988 L16.9999993,20.0999988 L16.9999993,17.6999989 C16.9999993,16.259999 15.9799993,15.0599991 14.5999994,14.7599991 L14.5999994,11.6999993 C14.5999994,10.6799994 15.3799994,9.89999941 16.3999993,9.89999941 Z M15.7999994,26.6999984 L14.5999994,26.6999984 L14.5999994,25.4999985 L15.7999994,25.4999985 L15.7999994,26.6999984 Z M31.3999984,26.6999984 L30.1999985,26.6999984 L30.1999985,25.4999985 L31.3999984,25.4999985 L31.3999984,26.6999984 Z M33.7999983,23.6999986 C33.7999983,24.0599986 33.5599983,24.2999986 33.1999996,24.2999986 L31.9999984,24.2999986 L29.5999985,24.2999986 L16.3999993,24.2999986 L13.9999995,24.2999986 L12.7999995,24.2999986 C12.4399996,24.2999986 12.1999996,24.0599986 12.1999996,23.6999986 L12.1999996,17.6999989 C12.1999996,16.739999 12.9799995,15.8999991 13.9999995,15.8999991 C14.9599994,15.8999991 15.7999994,16.679999 15.7999994,17.6999989 L15.7999994,20.6999988 C15.7999994,21.0599987 16.0399993,21.2999987 16.3999993,21.2999987 L29.5999985,21.2999987 C29.9599985,21.2999987 30.1999996,21.0599987 30.1999996,20.6999988 L30.1999996,17.6999989 C30.1999996,16.739999 30.9799985,15.8999991 31.9999984,15.8999991 C32.9599983,15.8999991 33.7999983,16.679999 33.7999983,17.6999989 L33.7999983,23.6999986 Z" id="Shape" fill="#FFFFFF" fill-rule="nonzero"></path>
            <circle id="Oval" fill="#FFFFFF" fill-rule="nonzero" cx="13.9999995" cy="17.6999989" r="1"></circle>
            <circle id="Oval" fill="#FFFFFF" fill-rule="nonzero" cx="31.9999984" cy="17.6999989" r="1"></circle>
            <path d="M11.5999996,8.69999948 C11.7799996,8.69999948 11.9599996,8.63999949 12.0799996,8.4599995 C12.1999996,8.3399995 12.2599996,8.15999951 12.1999996,7.97999952 L11,0.779999954 C10.9399996,0.479999971 10.6999997,0.299999982 10.3999997,0.299999982 L6.79999989,0.299999982 C6.5,0.299999982 6.25999992,0.539999968 6.19999993,0.779999954 L5,7.97999952 C5,8.15999951 5,8.3399995 5.11999999,8.4599995 C5.23999999,8.57999949 5.41999997,8.69999948 5.59999996,8.69999948 L8,8.69999948 L8,27.3 L6.19999993,27.3 C5.83999995,27.3 5.59999996,27.5399984 5.59999996,27.8999983 C5.59999996,28.2599983 5.83999995,28.4999983 6.19999993,28.4999983 L11,28.4999983 C11.3599996,28.4999983 11.5999996,28.2599983 11.5999996,27.8999983 C11.5999996,27.5399984 11.3599996,27.3 11,27.3 L9.19999975,27.3 L9.19999975,8.69999948 L11.5999996,8.69999948 Z M7.27999986,1.49999991 L9.85999971,1.49999991 L10.8799996,7.49999991 L6.31999992,7.49999991 L7.27999986,1.49999991 Z" id="Shape" fill="#FFFFFF" fill-rule="nonzero"></path>
            <line x1="0" y1="27.9" x2="3.400001" y2="27.9" id="Path-708" stroke="#FFFFFF" stroke-linecap="round"></line>
            <line x1="36" y1="27.9" x2="43.400001" y2="27.9" id="Path-708-Copy" stroke="#FFFFFF" stroke-linecap="round"></line>
        </g>
    </g>
</svg>
