<?xml version="1.0" encoding="UTF-8"?>
<svg width="12px" height="12px" viewBox="0 0 12 12" version="1.1" xmlns="http://www.w3.org/2000/svg" xmlns:xlink="http://www.w3.org/1999/xlink">
    <!-- Generator: Sketch 61 (89581) - https://sketch.com -->
    <title>Path 2</title>
    <desc>Created with Sketch.</desc>
    <g id="Symbols" stroke="none" stroke-width="1" fill="none" fill-rule="evenodd">
        <g id="icon/link" transform="translate(-6.000000, -6.000000)" fill="#FFFFFF" fill-rule="nonzero" stroke="#FFFFFF" stroke-width="0.6">
            <g id="noun_link_3015921" transform="translate(7.000000, 7.000000)">
                <g id="Group">
                    <path d="M6.25771645,3.54228355 C6.41392616,3.69849327 6.41392616,3.95175926 6.25771645,4.10796898 C6.10150673,4.2641787 5.84824074,4.2641787 5.69203102,4.10796898 C5.10624459,3.52218254 4.15649711,3.52218254 3.57071068,4.10796898 L1.30796898,6.37071068 C0.722182544,6.95649711 0.722182544,7.90624459 1.30796898,8.49203102 C1.89375541,9.07781746 2.84350289,9.07781746 3.42928932,8.49203102 L4.00215798,7.91916237 C4.15836769,7.76295265 4.41163368,7.76295265 4.5678434,7.91916237 C4.72405312,8.07537208 4.72405312,8.32863808 4.5678434,8.48484779 L3.99497475,9.05771645 C3.09676888,9.95592231 1.64048942,9.95592231 0.742283553,9.05771645 C-0.155922314,8.15951058 -0.155922314,6.70323112 0.742283553,5.80502525 L3.00502525,3.54228355 C3.90323112,2.64407769 5.35951058,2.64407769 6.25771645,3.54228355 Z M9.05771645,0.742283553 C9.95592231,1.64048942 9.95592231,3.09676888 9.05771645,3.99497475 L6.79497475,6.25771645 C5.89676888,7.15592231 4.44048942,7.15592231 3.54228355,6.25771645 C3.38607384,6.10150673 3.38607384,5.84824074 3.54228355,5.69203102 C3.69849327,5.5358213 3.95175926,5.5358213 4.10796898,5.69203102 C4.69375541,6.27781746 5.64350289,6.27781746 6.22928932,5.69203102 L8.49203102,3.42928932 C9.07781746,2.84350289 9.07781746,1.89375541 8.49203102,1.30796898 C7.90624459,0.722182544 6.95649711,0.722182544 6.37071068,1.30796898 L5.79784202,1.88083763 C5.64163231,2.03704735 5.38836632,2.03704735 5.2321566,1.88083763 C5.07594688,1.72462792 5.07594688,1.47136192 5.2321566,1.31515221 L5.80502525,0.742283553 C6.70323112,-0.155922314 8.15951058,-0.155922314 9.05771645,0.742283553 Z" id="Path-2"></path>
                </g>
            </g>
        </g>
    </g>
</svg>
