<?xml version="1.0" encoding="UTF-8"?>
<svg width="31px" height="26px" viewBox="0 0 31 26" version="1.1" xmlns="http://www.w3.org/2000/svg"
>
    <!-- Generator: Sketch 61 (89581) - https://sketch.com -->
    <title>location</title>
    <desc>Created with Sketch.</desc>
    <g id="Hover-points" stroke="none" stroke-width="1" fill="none" fill-rule="evenodd" stroke-linecap="round"
       stroke-linejoin="round">
        <g id="Wanderen-beispiel" transform="translate(-199.000000, -1004.000000)" stroke="#FFFFFF">
            <g id="location" transform="translate(200.000000, 1005.000000)">
                <polyline id="Path" fill-rule="nonzero"
                          points="5.42424675 11.8101951 5.0264642 12.2577482 3.34800013 13.7507396 1.24646405 16.9063609 0 19.655479 0.522144021 20.8578248 2.5560001 20.294556 2.4433921 19.3290749 4.51353618 18.3189671 5.92214424 18.7746742 5.68800023 20.2364841 7.41139229 23.5262716 12.2849285 23.2178897 14.3821446 20.9739686 14.0400006 19.7985132 15.3855366 18.3904842 19.1430728 24.000001 20.1061448 23.0971688 19.7055368 21.7783932 21.2581448 18.1624876 23.8544649 19.7670457 25.168609 18.9222855 25.834465 20.3706502 26.9686091 20.1246313 26.6849291 18.251741 26.4600011 16.8305528 28.5696011 17.1297804 28.8000011 16.3716989 28.7136011 13.5988372 27.9046091 13.0086779 26.4329291 14.3274536 22.9366089 10.8231148 23.4901449 8.85639398 19.4984648 6.78668855 16.7581447 6.00000024 15.6150726 6.96119032 14.4584646 7.41689741"></polyline>
                <path d="M8.45023322,3.41060513e-13 C10.1209173,3.41060513e-13 11.6332427,0.665807385 12.7282464,1.74236389 C13.8232501,2.81846249 14.5000006,4.30576812 14.5000006,5.94784878 C14.5000006,6.90397383 14.2708463,7.80698082 13.8633055,8.60695709 C13.0845534,10.1373067 9.92343471,13.7383447 8.45023322,15.1867276 C6.97703173,13.7383447 3.815913,10.1373067 3.03669514,8.60695709 C2.62962018,7.80698082 2.4000001,6.90397383 2.4000001,5.94784878 C2.4000001,2.66322954 5.10886506,3.41060513e-13 8.45023322,3.41060513e-13 Z M8.40000033,3.60000014 C7.07451688,3.60000014 6.00000024,4.67451679 6.00000024,6.00000024 C6.00000024,7.32548369 7.07451688,8.40000033 8.40000033,8.40000033 C9.72548379,8.40000033 10.8000004,7.32548369 10.8000004,6.00000024 C10.8000004,4.67451679 9.72548379,3.60000014 8.40000033,3.60000014 Z"
                      id="Combined-Shape"></path>
            </g>
        </g>
    </g>
</svg>
