<?xml version="1.0" encoding="UTF-8"?>
<svg width="31px" height="31px" viewBox="0 0 31 31" version="1.1" xmlns="http://www.w3.org/2000/svg" xmlns:xlink="http://www.w3.org/1999/xlink">
    <!-- Generator: Sketch 63.1 (92452) - https://sketch.com -->
    <title>Group 41</title>
    <desc>Created with Sketch.</desc>
    <g id="Real-content" stroke="none" stroke-width="1" fill="none" fill-rule="evenodd" stroke-linecap="round" stroke-linejoin="round">
        <g id="Group-41" transform="translate(1.000000, 1.000000)" stroke="#FFFFFF">
            <polyline id="Path" fill-rule="nonzero" points="12.2849285 13.3096972 10.3950147 12.4544895 9.92072824 13.1736734 8.2833 13.6420552 6.91331765 13.1736734 6.18294072 14.1768491 6.91331765 15.5071828 5.42424675 17.1306503 5.0264642 17.5782033 3.34800013 19.0711947 1.24646405 22.2268161 0 24.9759342 0.522144021 26.17828 2.5560001 25.6150111 2.4433921 24.64953 4.51353618 23.6394222 5.92214424 24.0951293 5.68800023 25.5569392 7.41139229 28.8467267 12.2849285 28.5383449 14.3821446 26.2944238 14.0400006 25.1189684 15.3855366 23.7109394 19.1430728 29.3204554 20.1061448 28.417624 19.7055368 27.0988483 21.2581448 23.4829428 23.8544649 25.0875009 25.168609 24.2427406 25.834465 25.6911053 26.9686091 25.4450865 26.6849291 23.5721961 26.4600011 22.1510079 28.5696011 22.4502356 28.8000011 21.6921541 28.7136011 18.9192924 27.9046091 18.3291331 26.4329291 19.6479088 22.9366089 16.1435699 23.4901449 14.1768491 19.4984648 12.1071437 17.3171843 11.4809439"></polyline>
            <path d="M14.0502331,0 C15.7209172,0 17.2332426,0.665807385 18.3282463,1.74236389 C19.42325,2.81846249 20.1000005,4.30576812 20.1000005,5.94784878 C20.1000005,6.90397383 19.8708462,7.80698082 19.4633054,8.60695709 C18.6845533,10.1373067 15.5234346,13.7383447 14.0502331,15.1867276 C12.5770316,13.7383447 9.41591291,10.1373067 8.63669505,8.60695709 C8.22962009,7.80698082 8,6.90397383 8,5.94784878 C8,2.66322954 10.708865,0 14.0502331,0 Z M14.0000002,3.60000014 C12.6745168,3.60000014 11.6000001,4.67451679 11.6000001,6.00000024 C11.6000001,7.32548369 12.6745168,8.40000033 14.0000002,8.40000033 C15.3254837,8.40000033 16.4000003,7.32548369 16.4000003,6.00000024 C16.4000003,4.67451679 15.3254837,3.60000014 14.0000002,3.60000014 Z" id="Combined-Shape"></path>
        </g>
    </g>
</svg>