<?xml version="1.0" encoding="UTF-8"?>
<svg width="38px" height="31px" viewBox="0 0 38 31" version="1.1" xmlns="http://www.w3.org/2000/svg" xmlns:xlink="http://www.w3.org/1999/xlink">
    <!-- Generator: Sketch 63.1 (92452) - https://sketch.com -->
    <title>Group 41</title>
    <desc>Created with Sketch.</desc>
    <g id="Real-content" stroke="none" stroke-width="1" fill="none" fill-rule="evenodd">
        <g id="Group-41" transform="translate(0.000000, 1.000000)">
            <path d="M18.3950147,12.3356133 L17.9207282,13.0547972 L16.2833,13.5231789 L14.9133176,13.0547972 L14.1829407,14.0579729 L14.9133176,15.3883065 M17.8345911,28.7494364 L20.2849285,28.4194687 L22.3821446,26.1755475 L22.0400006,25.0000922 L23.3855366,23.5920631 L27.1430728,29.2015792 L28.1061448,28.2987478 L27.7055368,26.9799721 L29.2581448,23.3640665 L31.8544649,24.9686246 L33.168609,24.1238644 L33.834465,25.5722291 L34.9686091,25.3262102 L34.6849291,23.4533199 L34.4600011,22.0321317 L36.5696011,22.3313593 L36.8000011,21.5732779 L36.7136011,18.8004161 L35.9046091,18.2102569 L34.4329291,19.5290325 L30.9366089,16.0246937 L31.4901449,14.0579729 L27.4984648,11.9882675 L25.3171843,11.3620677" id="Shape" stroke="#FFFFFF" stroke-linecap="round" stroke-linejoin="round" fill-rule="nonzero"></path>
            <path d="M21.4589826,0 C23.1296667,0 24.6419921,0.665807385 25.7369958,1.74236389 C26.8319995,2.81846249 27.50875,4.30576812 27.50875,5.94784878 C27.50875,6.90397383 27.2795957,7.80698082 26.872055,8.60695709 C26.0933029,10.1373067 22.9321841,13.7383447 21.4589826,15.1867276 C19.9857812,13.7383447 16.8246624,10.1373067 16.0454446,8.60695709 C15.6383696,7.80698082 15.4087495,6.90397383 15.4087495,5.94784878 C15.4087495,2.66322954 18.1176145,0 21.4589826,0 Z M21.4087498,3.60000014 C20.0832663,3.60000014 19.0087497,4.67451679 19.0087497,6.00000024 C19.0087497,7.32548369 20.0832663,8.40000033 21.4087498,8.40000033 C22.7342332,8.40000033 23.8087499,7.32548369 23.8087499,6.00000024 C23.8087499,4.67451679 22.7342332,3.60000014 21.4087498,3.60000014 Z" id="Combined-Shape" stroke="#FFFFFF" stroke-linecap="round" stroke-linejoin="round"></path>
            <g id="Group-42" transform="translate(0.000000, 18.000000)">
                <line x1="3.196134" y1="0.720000401" x2="11.8015098" y2="0.720000401" id="Path-705" stroke="#FFFFFF" stroke-linecap="round"></line>
                <circle id="Oval" fill="#FFFFFF" cx="0.720000057" cy="0.720000057" r="1"></circle>
                <line x1="3.196134" y1="5.04000074" x2="11.8015098" y2="5.04000074" id="Path-705-Copy" stroke="#FFFFFF" stroke-linecap="round"></line>
                <line x1="3.196134" y1="9.36000074" x2="11.8015098" y2="9.36000074" id="Path-705-Copy-2" stroke="#FFFFFF" stroke-linecap="round"></line>
                <circle id="Oval-Copy-10" fill="#FFFFFF" cx="0.720000057" cy="9.3600004" r="1"></circle>
                <circle id="Oval-Copy-11" fill="#FFFFFF" cx="0.720000057" cy="5.0400004" r="1"></circle>
            </g>
        </g>
    </g>
</svg>