<?xml version="1.0" encoding="UTF-8"?>
<svg width="20px" height="23px" viewBox="0 0 20 23" version="1.1" xmlns="http://www.w3.org/2000/svg" xmlns:xlink="http://www.w3.org/1999/xlink">
    <!-- Generator: Sketch 60.1 (88133) - https://sketch.com -->
    <title>Group 9</title>
    <desc>Created with Sketch.</desc>
    <g id="Real-content" stroke="none" stroke-width="1" fill="none" fill-rule="evenodd">
        <g id="Group-9" fill="#FFFFFF" fill-rule="nonzero">
            <path d="M8.05983802,9.5469131 C7.83655487,9.5469131 7.65607101,9.72739696 7.65607101,9.95068011 L7.65607101,22.6176588 C7.65607101,22.8409419 7.83655487,23.0214258 8.05983802,23.0214258 C8.28312118,23.0214258 8.46360503,22.8409419 8.46360503,22.6176588 L8.46360503,9.95068011 C8.46360503,9.72739696 8.28271741,9.5469131 8.05983802,9.5469131 Z" id="Path"></path>
            <path d="M11.1644026,9.5469131 C10.9411194,9.5469131 10.7606356,9.72739696 10.7606356,9.95068011 L10.7606356,22.6176588 C10.7606356,22.8409419 10.9411194,23.0214258 11.1644026,23.0214258 C11.3876857,23.0214258 11.5681696,22.8409419 11.5681696,22.6176588 L11.5681696,9.95068011 C11.5681696,9.72739696 11.3876857,9.5469131 11.1644026,9.5469131 Z" id="Path"></path>
            <path d="M15.8105495,3.95595132 L14.1708517,3.95595132 L14.1708517,2.97479748 L14.8536217,2.97479748 C15.0769049,2.97479748 15.2573887,2.79431363 15.2573887,2.57103047 L15.2573887,0.652733408 C15.2573887,0.429450251 15.0769049,0.248966398 14.8536217,0.248966398 L4.47680958,0.248966398 C4.25352642,0.248966398 4.07304257,0.429450251 4.07304257,0.652733408 L4.07304257,2.57103047 C4.07304257,2.79431363 4.25352642,2.97479748 4.47680958,2.97479748 L5.15877206,2.97479748 L5.15877206,3.95595132 L3.519478,3.95595132 C1.69323981,3.95595132 0.206973446,5.44181391 0.206973446,7.2680521 C0.206973446,9.09429029 1.69323981,10.5805566 3.519478,10.5805566 C4.13643399,10.5805566 4.69363246,10.4045142 5.15877206,10.091191 L5.15877206,22.6176588 C5.15877206,22.8409419 5.33925591,23.0214258 5.56253907,23.0214258 C5.78582222,23.0214258 5.96630608,22.8409419 5.96630608,22.6176588 L5.96630608,9.27437037 C6.20937382,8.90734616 6.38622377,8.47491169 6.48151278,7.99039128 L12.848111,7.99039128 C12.9438038,8.47491169 13.1206537,8.90734616 13.3633177,9.27396661 L13.3633177,22.6176588 C13.3633177,22.8409419 13.5438016,23.0214258 13.7670847,23.0214258 C13.9903679,23.0214258 14.1708517,22.8409419 14.1708517,22.6176588 L14.1708517,10.091191 C14.6359913,10.4045142 15.1931898,10.5809604 15.8105495,10.5809604 C17.6367877,10.5809604 19.1230541,9.09469405 19.1230541,7.26845587 C19.1230541,5.44221768 17.6367877,3.95595132 15.8105495,3.95595132 Z M4.88057659,1.05690418 L14.4502585,1.05690418 L14.4502585,2.16766723 L4.88057659,2.16766723 L4.88057659,1.05690418 Z M5.96630608,2.97520125 L13.3633177,2.97520125 L13.3633177,3.95635508 L5.96630608,3.95635508 L5.96630608,2.97520125 Z M15.8105495,9.7734264 C14.6662738,9.7734264 13.8292648,8.96831498 13.6273813,7.71461841 C13.6403019,7.33911509 13.7654696,6.44840507 14.6606211,6.44840507 C15.4455442,6.44840507 15.7257585,7.14046172 15.7257585,7.78810401 C15.7257585,8.01138716 15.9062423,8.19187102 16.1295255,8.19187102 C16.3528086,8.19187102 16.5332925,8.01138716 16.5332925,7.78810401 C16.5332925,6.50372115 15.7810746,5.64087105 14.6606211,5.64087105 C13.7444738,5.64087105 13.0851222,6.24288766 12.8868726,7.18245349 L6.44275115,7.18245349 C6.24369401,6.24288766 5.58272742,5.64087105 4.6637537,5.64087105 C3.54370402,5.64087105 2.79067854,6.50412492 2.79067854,7.78810401 C2.79067854,8.01138716 2.9711624,8.19187102 3.19444555,8.19187102 C3.41772871,8.19187102 3.59821256,8.01138716 3.59821256,7.78810401 C3.59821256,7.14046172 3.8780231,6.44840507 4.6637537,6.44840507 C5.56375037,6.44840507 5.68972567,7.33951886 5.70264622,7.71502218 C5.50116648,8.96871875 4.66415747,9.7734264 3.51988176,9.7734264 C2.13859482,9.7734264 1.01491123,8.64974281 1.01491123,7.26845587 C1.01491123,5.88716893 2.13859482,4.7638891 3.51988176,4.7638891 L15.8105495,4.7638891 C17.1918365,4.7638891 18.3155201,5.88716893 18.3155201,7.26845587 C18.3155201,8.64974281 17.1918365,9.7734264 15.8105495,9.7734264 Z" id="Shape"></path>
        </g>
    </g>
</svg>