<?xml version="1.0" encoding="UTF-8"?>
<svg width="66px" height="32px" viewBox="0 0 66 32" version="1.1" xmlns="http://www.w3.org/2000/svg"
>
    <!-- Generator: Sketch 60.1 (88133) - https://sketch.com -->
    <title>Group</title>
    <desc>Created with Sketch.</desc>
    <g id="Real-content" stroke="none" stroke-width="1" fill="none" fill-rule="evenodd">
        <g id="Mammut" transform="translate(-819.000000, -540.000000)">
            <g id="Group" transform="translate(820.000000, 541.000000)">
                <path d="M63.1999962,19.1249989 C63.6421837,19.1249989 64,18.7671864 64,18.3249989 L64,0.824999951 C64,0.382812457 63.6421837,0.0249999985 63.1999962,0.0249999985 L43.1999974,0.0249999985 C42.7578099,0.0249999985 42.3999975,0.382812457 42.3999975,0.824999951 L42.3999975,18.3249989 C42.3999975,18.7671864 42.7578099,19.1249989 43.1999974,19.1249989 L51.149997,19.1249989 L51.149997,28.7749983 L40.7999976,28.7749983 L40.7999976,4.77499972 C40.7999976,4.33281222 40.4421851,3.97499976 40,3.97499976 L40,2.37499986 C40,1.93281236 39.6421852,1.57499991 39.1999977,1.57499991 L36.7999978,1.57499991 C36.3578103,1.57499991 36,1.93281236 36,2.37499986 L36,3.97499976 L35.1999979,3.97499976 L35.1999979,2.37499986 C35.1999979,1.93281236 34.8421854,1.57499991 34.3999979,1.57499991 C33.9578105,1.57499991 33.599998,1.93281236 33.599998,2.37499986 L33.599998,3.97499976 L32,3.97499976 L32,3.18671853 C32,2.2976561 31.2773419,1.57499991 30.3882795,1.57499991 L27.2117172,1.57499991 C26.3226547,1.57499991 25.5999985,2.2976561 25.5999985,3.18671853 L25.5999985,3.97499976 C25.157811,3.97499976 24.7999985,4.33281222 24.7999985,4.77499972 L24.7999985,11.1749993 L17.0320303,11.1749993 L17.0320303,5.12734345 C17.0320303,4.90761691 16.9431631,4.7091794 16.799999,4.56469701 L16.799999,2.37499986 C16.799999,1.93281236 16.4421865,1.57499991 16,1.57499991 L13.5999992,1.57499991 C13.1578117,1.57499991 12.7999992,1.93281236 12.7999992,2.37499986 L12.7999992,4.3273435 L12,4.3273435 L12,2.37499986 C12,1.93281236 11.6421868,1.57499991 11.1999993,1.57499991 C10.7578118,1.57499991 10.3999994,1.93281236 10.3999994,2.37499986 L10.3999994,4.3273435 L8.79999948,4.3273435 L8.79999948,3.01249982 C8.79999948,2.21953115 8.15546823,1.57499991 7.36249956,1.57499991 L3.83749977,1.57499991 C3.0445311,1.57499991 2.39999986,2.21953115 2.39999986,3.01249982 L2.39999986,4.3273435 L1.5999999,4.3273435 C1.15781241,4.3273435 0.799999952,4.68515596 0.799999952,5.12734345 L0.799999952,28.7749983 C0.357812459,28.7749983 0,29.1328107 0,29.5749982 C0,30.0171857 0.357812459,30.3749982 0.799999952,30.3749982 L1.5999999,30.3749982 L4.34374974,30.3749982 L7.08828086,30.3749982 L16.2320303,30.3749982 L18.6156239,30.3749982 L22.3999987,30.3749982 L25.5999985,30.3749982 L28,30.3749982 L31.1999981,30.3749982 L40,30.3749982 L51.9499969,30.3749982 L55.6999967,30.3749982 L63.1999962,30.3749982 C63.6421837,30.3749982 64,30.0171857 64,29.5749982 C64,29.1328107 63.6421837,28.7749983 63.1999962,28.7749983 L56.5,28.7749983 L56.5,19.1249989 L63.1999962,19.1249989 Z M14.3999991,3.17499981 L15.1999991,3.17499981 L15.1999991,3.97499976 L14.3999991,3.97499976 L14.3999991,3.17499981 Z M3.99999976,3.17499981 L7.19999957,3.17499981 L7.19999957,3.97499976 L3.99999976,3.97499976 L3.99999976,3.17499981 Z M6.28828091,28.7749983 L5.14374969,28.7749983 L5.14374969,26.0390609 L6.28828091,26.0390609 L6.28828091,28.7749983 Z M15.4320304,11.9749993 L15.4320304,15.1749991 L15.4320304,17.574999 L15.4320304,21.5749987 L15.4320304,23.9749986 L15.4320304,28.7749983 L7.88828081,28.7749983 L7.88828081,25.239061 C7.88828081,24.7968735 7.53046835,24.439061 7.08828086,24.439061 L4.34374974,24.439061 C3.90156225,24.439061 3.54374979,24.7968735 3.54374979,25.239061 L3.54374979,28.7749983 L2.39999986,28.7749983 L2.39999986,5.92734341 L15.4320304,5.92734341 L15.4320304,11.9749993 Z M21.5999987,28.7749983 L19.4156238,28.7749983 L19.4156238,27.9749983 L21.5999987,27.9749983 L21.5999987,28.7749983 Z M24.7999985,28.7749985 L23.1999986,28.7749985 L23.1999986,27.1749984 C23.1999986,26.7328109 22.8421862,26.3749984 22.3999987,26.3749984 L18.6156239,26.3749984 C18.1734364,26.3749984 17.8156239,26.7328109 17.8156239,27.1749984 L17.8156239,28.7749985 L17.0320302,28.7749985 L17.0320302,24.7749985 L24.7999985,24.7749985 L24.7999985,28.7749985 Z M24.7999985,23.1749986 L17.0320303,23.1749986 L17.0320303,22.3749987 L24.7999985,22.3749987 L24.7999985,23.1749986 Z M24.7999985,20.7749988 L17.0320303,20.7749988 L17.0320303,18.3749989 L24.7999985,18.3749989 L24.7999985,20.7749988 Z M24.7999985,16.774999 L17.0320303,16.774999 L17.0320303,15.974999 L24.7999985,15.974999 L24.7999985,16.774999 Z M24.7999985,14.3749991 L17.0320303,14.3749991 L17.0320303,12.7749992 L24.7999985,12.7749992 L24.7999985,14.3749991 Z M37.5999978,3.17499981 L38.3999977,3.17499981 L38.3999977,3.97499976 L37.5999978,3.97499976 L37.5999978,3.17499981 Z M27.2117171,3.17499981 L30.3882794,3.17499981 L30.3999981,3.97499976 L27.2062483,3.97499976 L27.2117171,3.17499981 Z M30.3999982,28.7749983 L28.7999983,28.7749983 L28.7999983,27.1749984 L30.3999982,27.1749984 L30.3999982,28.7749983 Z M39.1999977,28.7749983 L31.9999981,28.7749983 L31.9999981,26.3749984 C31.9999981,25.9328109 31.6421856,25.5749997 31.1999981,25.5749997 L27.9999983,25.5749997 C27.5578108,25.5749997 27.1999984,25.9328109 27.1999984,26.3749984 L27.1999984,28.7749983 L26.3999984,28.7749983 L26.3999984,23.9749986 L26.3999984,21.5749997 L26.3999984,17.5749997 L26.3999984,15.1749991 L26.3999984,11.9749993 L26.3999984,5.57499967 L31.1999981,5.57499967 L36.7999978,5.57499967 L39.1999977,5.57499967 L39.1999977,28.7749983 Z M54.8999967,28.7749983 L52.7499969,28.7749983 L52.7499969,19.1249989 L54.8999967,19.1249989 L54.8999967,28.7749983 Z M55.6999967,17.524999 L51.9499969,17.524999 L43.9999974,17.524999 L43.9999974,1.6249999 L62.3999963,1.6249999 L62.3999963,17.524999 L55.6999967,17.524999 Z"
                      id="Shape" stroke="#343741" stroke-width="0.7" fill="#FFFFFF" fill-rule="nonzero"></path>
                <path d="M4.34374974,12.327343 L7.08828086,12.327343 C7.53046835,12.327343 7.88828081,11.9695306 7.88828081,11.5273431 L7.88828081,8.78281196 C7.88828081,8.34062446 7.53046835,7.982812 7.08828086,7.982812 L4.34374974,7.982812 C3.90156225,7.982812 3.54374979,8.34062446 3.54374979,8.78281196 L3.54374979,11.5273431 C3.54374979,11.9695306 3.90156225,12.327343 4.34374974,12.327343 Z M5.14374969,9.58281191 L6.28828091,9.58281191 L6.28828091,10.7273431 L5.14374969,10.7273431 L5.14374969,9.58281191 Z"
                      id="Shape" stroke="#343741" stroke-width="0.7" fill="#FFFFFF" fill-rule="nonzero"></path>
                <path d="M10.7437494,12.327343 L13.4882805,12.327343 C13.930468,12.327343 14.2882804,11.9695306 14.2882804,11.5273431 L14.2882804,8.78281196 C14.2882804,8.34062446 13.930468,7.982812 13.4882805,7.982812 L10.7437494,7.982812 C10.3015619,7.982812 9.94374941,8.34062446 9.94374941,8.78281196 L9.94374941,11.5273431 C9.94374941,11.9695306 10.3015619,12.327343 10.7437494,12.327343 Z M11.5437493,9.58281191 L12.6882805,9.58281191 L12.6882805,10.7273431 L11.5437493,10.7273431 L11.5437493,9.58281191 Z"
                      id="Shape" stroke="#343741" stroke-width="0.7" fill="#FFFFFF" fill-rule="nonzero"></path>
                <path d="M4.34374974,17.8148427 L7.08828086,17.8148427 C7.53046835,17.8148427 7.88828081,17.4570302 7.88828081,17.0148427 L7.88828081,14.2710929 C7.88828081,13.8289054 7.53046835,13.471093 7.08828086,13.471093 L4.34374974,13.471093 C3.90156225,13.471093 3.54374979,13.8289054 3.54374979,14.2710929 L3.54374979,17.0148427 C3.54374979,17.4570302 3.90156225,17.8148427 4.34374974,17.8148427 Z M5.14374969,15.0710929 L6.28828091,15.0710929 L6.28828091,16.2148428 L5.14374969,16.2148428 L5.14374969,15.0710929 Z"
                      id="Shape" stroke="#343741" stroke-width="0.7" fill="#FFFFFF" fill-rule="nonzero"></path>
                <path d="M10.7437494,17.8148427 L13.4882805,17.8148427 C13.930468,17.8148427 14.2882804,17.4570302 14.2882804,17.0148427 L14.2882804,14.2710929 C14.2882804,13.8289054 13.930468,13.471093 13.4882805,13.471093 L10.7437494,13.471093 C10.3015619,13.471093 9.94374941,13.8289054 9.94374941,14.2710929 L9.94374941,17.0148427 C9.94374941,17.4570302 10.3015619,17.8148427 10.7437494,17.8148427 Z M11.5437493,15.0710929 L12.6882805,15.0710929 L12.6882805,16.2148428 L11.5437493,16.2148428 L11.5437493,15.0710929 Z"
                      id="Shape" stroke="#343741" stroke-width="0.7" fill="#FFFFFF" fill-rule="nonzero"></path>
                <path d="M4.34374974,23.2953111 L7.08828086,23.2953111 C7.53046835,23.2953111 7.88828081,22.9374986 7.88828081,22.4953111 L7.88828081,19.7593738 C7.88828081,19.3171863 7.53046835,18.9593738 7.08828086,18.9593738 L4.34374974,18.9593738 C3.90156225,18.9593738 3.54374979,19.3171863 3.54374979,19.7593738 L3.54374979,22.4953111 C3.54374979,22.9374986 3.90156225,23.2953111 4.34374974,23.2953111 Z M5.14374969,20.5593738 L6.28828091,20.5593738 L6.28828091,21.6953113 L5.14374969,21.6953113 L5.14374969,20.5593738 Z"
                      id="Shape" stroke="#343741" stroke-width="0.7" fill="#FFFFFF" fill-rule="nonzero"></path>
                <path d="M10.7437494,23.2953111 L13.4882805,23.2953111 C13.930468,23.2953111 14.2882804,22.9374986 14.2882804,22.4953111 L14.2882804,19.7593738 C14.2882804,19.3171863 13.930468,18.9593738 13.4882805,18.9593738 L10.7437494,18.9593738 C10.3015619,18.9593738 9.94374941,19.3171863 9.94374941,19.7593738 L9.94374941,22.4953111 C9.94374941,22.9374986 10.3015619,23.2953111 10.7437494,23.2953111 Z M11.5437493,20.5593738 L12.6882805,20.5593738 L12.6882805,21.6953113 L11.5437493,21.6953113 L11.5437493,20.5593738 Z"
                      id="Shape" stroke="#343741" stroke-width="0.7" fill="#FFFFFF" fill-rule="nonzero"></path>
                <path d="M30.8570294,7.98359328 L28.1140609,7.98359328 C27.6718734,7.98359328 27.3140609,8.34140574 27.3140609,8.78359324 L27.3140609,11.5265618 C27.3140609,11.9687493 27.6718734,12.3265617 28.1140609,12.3265617 L30.8570294,12.3265617 C31.2992169,12.3265617 31.6570294,11.9687493 31.6570294,11.5265618 L31.6570294,8.78359324 C31.6570294,8.34140574 31.2992169,7.98359328 30.8570294,7.98359328 Z M30.0570295,10.7265618 L28.9140608,10.7265618 L28.9140608,9.58359319 L30.0570295,9.58359319 L30.0570295,10.7265618 Z"
                      id="Shape" stroke="#343741" stroke-width="0.7" fill="#FFFFFF" fill-rule="nonzero"></path>
                <path d="M33.7140605,8.78359324 L33.7140605,11.5265618 C33.7140605,11.9687493 34.0718729,12.3265617 34.5140604,12.3265617 L37.257029,12.3265617 C37.6992165,12.3265617 38.0570289,11.9687493 38.0570289,11.5265618 L38.0570289,8.78359324 C38.0570289,8.34140574 37.6992165,7.98359328 37.257029,7.98359328 L34.5140604,7.98359328 C34.071873,7.98359328 33.7140605,8.34140574 33.7140605,8.78359324 Z M35.3140604,9.58359319 L36.457029,9.58359319 L36.457029,10.7265618 L35.3140604,10.7265618 L35.3140604,9.58359319 Z"
                      id="Shape" stroke="#343741" stroke-width="0.7" fill="#FFFFFF" fill-rule="nonzero"></path>
                <path d="M30.8570294,13.4695305 L28.1140609,13.4695305 C27.6718734,13.4695305 27.3140609,13.8273429 27.3140609,14.2695304 L27.3140609,17.012499 C27.3140609,17.4546865 27.6718734,17.8124989 28.1140609,17.8124989 L30.8570294,17.8124989 C31.2992169,17.8124989 31.6570294,17.4546865 31.6570294,17.012499 L31.6570294,14.2695304 C31.6570294,13.8273429 31.2992169,13.4695305 30.8570294,13.4695305 Z M30.0570295,16.212499 L28.9140608,16.212499 L28.9140608,15.0695304 L30.0570295,15.0695304 L30.0570295,16.212499 Z"
                      id="Shape" stroke="#343741" stroke-width="0.7" fill="#FFFFFF" fill-rule="nonzero"></path>
                <path d="M37.2570291,13.4695305 L34.5140605,13.4695305 C34.071873,13.4695305 33.7140606,13.8273429 33.7140606,14.2695304 L33.7140606,17.012499 C33.7140606,17.4546865 34.071873,17.8124989 34.5140605,17.8124989 L37.2570291,17.8124989 C37.6992166,17.8124989 38.057029,17.4546865 38.057029,17.012499 L38.057029,14.2695304 C38.057029,13.8273429 37.6992165,13.4695305 37.2570291,13.4695305 Z M36.4570291,16.212499 L35.3140605,16.212499 L35.3140605,15.0695304 L36.4570291,15.0695304 L36.4570291,16.212499 Z"
                      id="Shape" stroke="#343741" stroke-width="0.7" fill="#FFFFFF" fill-rule="nonzero"></path>
                <path d="M30.8570294,18.9554676 L28.1140609,18.9554676 C27.6718734,18.9554676 27.3140609,19.31328 27.3140609,19.7554675 L27.3140609,22.4984361 C27.3140609,22.9406236 27.6718734,23.2984361 28.1140609,23.2984361 L30.8570294,23.2984361 C31.2992169,23.2984361 31.6570294,22.9406236 31.6570294,22.4984361 L31.6570294,19.7554675 C31.6570294,19.3132801 31.2992169,18.9554676 30.8570294,18.9554676 Z M30.0570295,21.6984362 L28.9140608,21.6984362 L28.9140608,20.5554676 L30.0570295,20.5554676 L30.0570295,21.6984362 Z"
                      id="Shape" stroke="#343741" stroke-width="0.7" fill="#FFFFFF" fill-rule="nonzero"></path>
                <path d="M37.2570291,18.9554676 L34.5140605,18.9554676 C34.071873,18.9554676 33.7140606,19.31328 33.7140606,19.7554675 L33.7140606,22.4984361 C33.7140606,22.9406236 34.071873,23.2984361 34.5140605,23.2984361 L37.2570291,23.2984361 C37.6992166,23.2984361 38.057029,22.9406236 38.057029,22.4984361 L38.057029,19.7554675 C38.057029,19.3132801 37.6992165,18.9554676 37.2570291,18.9554676 Z M36.4570291,21.6984362 L35.3140605,21.6984362 L35.3140605,20.5554676 L36.4570291,20.5554676 L36.4570291,21.6984362 Z"
                      id="Shape" stroke="#343741" stroke-width="0.7" fill="#FFFFFF" fill-rule="nonzero"></path>
                <line x1="49.402182" y1="13.891759" x2="56.3257356" y2="5.57499967" id="Path-174" stroke="#FFFFFF"
                      stroke-linecap="round"></line>
                <circle id="Oval" stroke="#FFFFFF" cx="56.7999966" cy="11.9999993" r="1.5999999"></circle>
                <circle id="Oval-Copy-2" stroke="#FFFFFF" cx="48.7999971" cy="7.19999957" r="1.5999999"></circle>
            </g>
        </g>
    </g>
</svg>
