<?xml version="1.0" encoding="UTF-8"?>
<svg width="37px" height="26px" viewBox="0 0 37 26" version="1.1" xmlns="http://www.w3.org/2000/svg" xmlns:xlink="http://www.w3.org/1999/xlink">
    <!-- Generator: Sketch 63.1 (92452) - https://sketch.com -->
    <desc>Created with Sketch.</desc>
    <g id="Real-content" stroke="none" stroke-width="1" fill="none" fill-rule="evenodd">
        <g id="Group-43" transform="translate(1.000000, 1.000000)" fill="#FFFFFF" fill-rule="nonzero">
            <g id="Group" stroke="#343741" stroke-width="0.5">
                <path d="M20.5674,0.18375 C21.4501,0.18375 22.33455,0.35945 23.1959,0.70315 C24.5987,1.2642 26.06205,1.4833 28.41475,1.4833 C28.8638,1.4833 29.22675,1.84625 29.22675,2.2953 L29.22675,2.2953 L29.22675,3.7562 L30.688,3.7562 C31.13635,3.7562 31.5,4.1195 31.5,4.56855 L31.5,4.56855 L31.5,11.78575 L29.876,10.02575 L29.87635,5.3802 L29.22675,5.3802 L29.226,9.32175 L27.602,7.56175 L27.6024,3.09785 C26.9682,3.08413 26.361552,3.048234 25.7702704,2.981202 L25.3295,2.92495 C23.5860758,2.48861667 22.2398447,2.13628333 21.2908069,1.86795 C20.908384,1.75982282 20.4144317,1.75982282 19.80895,1.86795 C17.9744788,2.13793462 16.6858715,3.30025459 16.4022634,3.57627533 L16.3436,3.6351 C16.18995,3.79925 15.9747,3.8934 15.75,3.8934 C15.5246,3.8934 15.30935,3.7996 15.1564,3.6351 C15.141,3.61865 13.4015,1.80845 10.93225,1.80845 C10.2571,1.80845 9.57565,1.94355 8.90715,2.21095 C7.28665,2.8595 5.70115,3.05865 3.89655,3.0982 L3.89655,3.0982 L3.89655,17.71105 C5.789,17.6624 7.07035,17.4342 8.30375,16.94035 C9.1651,16.5963 10.04955,16.4213 10.93225,16.4213 C13.1754,16.4213 14.89495,17.53255 15.75,18.2252 C16.1635507,17.8900901 16.7284108,17.4803217 17.5601164,17.0987655 C17.5663134,17.0959226 17.5725207,17.0930844 17.5787384,17.090251 L18.52,18.45275 L18.3150859,18.5429929 C17.2315765,19.0237201 16.5164773,19.6998571 16.3697216,19.8452537 L16.34185,19.87335 C16.18855,20.03505 15.974,20.12885 15.75105,20.12885 L15.75105,20.12885 C15.52425,20.1278 15.31075,20.0368 15.1578,19.87335 C15.141,19.8555 13.4008,18.0453 10.93225,18.0453 C10.2571,18.0453 9.57565,18.1804 8.90715,18.4478 C7.04795,19.19155 5.2353,19.3438 3.0849,19.3438 C2.6362,19.3438 2.27325,18.9805 2.27325,18.53215 L2.27325,18.53215 L2.27325,5.3802 L1.6233,5.3802 L1.6233,19.99375 L13.15195,19.99375 C13.6003,19.99375 13.96395,20.35705 13.96395,20.80575 L13.96395,20.80575 L13.96395,21.1302 C13.96395,21.22015 14.03675,21.2926 14.126,21.2926 L14.126,21.2926 L17.3733,21.2926 C17.46325,21.2926 17.5357,21.22015 17.5357,21.1302 L17.5357,21.1302 L17.5357,20.80575 C17.5357,20.35705 17.89935,19.99375 18.34735,19.99375 L18.34735,19.99375 L19.584,19.99375 L20.705,21.61775 L19.09145,21.6181 C18.8926063,22.3199594 18.2735574,22.8467846 17.524425,22.9098961 L17.37295,22.91625 L14.12565,22.91625 C13.30945,22.91625 12.61995,22.36675 12.40715,21.6181 L12.40715,21.6181 L0.81165,21.6181 C0.36295,21.6181 0,21.25375 0,20.8061 L0,20.8061 L0,4.56855 C0,4.1195 0.36295,3.7562 0.81165,3.7562 L0.81165,3.7562 L2.27325,3.7562 L2.27325,2.2953 C2.27325,1.84625 2.6362,1.4833 3.0849,1.4833 C5.43795,1.4833 6.90095,1.2642 8.30375,0.70315 C9.1651,0.35945 10.04955,0.18375 10.93225,0.18375 C13.1754,0.18375 14.8953,1.29535 15.75,1.988 C16.60435,1.29535 18.32495,0.18375 20.5674,0.18375 Z" id="Combined-Shape"></path>
                <path d="M15.75,17.07125 C16.198,17.07125 16.56165,16.7069 16.56165,16.25925 L16.56165,5.5426 C16.56165,5.09425 16.198,4.7306 15.75,4.7306 C15.3013,4.7306 14.938,5.09425 14.938,5.5426 L14.938,16.25925 C14.938,16.7069 15.3013,17.07125 15.75,17.07125 Z" id="Path"></path>
            </g>
            <path d="M30.6242,17.9758 C30.3899,17.7415 30.0101,17.7415 29.7758,17.9758 L29.3,18.4516 L28.1567,17.3083 C29.0576,16.2184 29.6,14.8213 29.6,13.3 C29.6,9.826 26.7737,7 23.3,7 C19.8263,7 17,9.826 17,13.3 C17,16.774 19.8263,19.6 23.3,19.6 C24.8213,19.6 26.2184,19.0576 27.3083,18.1567 L28.4516,19.3 L27.9758,19.7758 C27.7415,20.0101 27.7415,20.3899 27.9758,20.6242 L32.2466056,24.8 C32.3639056,24.9173 32.5172056,24.9758 32.6708056,24.9758 C32.8244056,24.9758 32.9777056,24.9173 33.0950056,24.8 L34.8950056,23 C35.1293056,22.7657 35.1293056,22.3859 34.8950056,22.1516 L30.6242,17.9758 Z M18.2,13.3 C18.2,10.4878 20.4878,8.2 23.3,8.2 C26.1122,8.2 28.4,10.4878 28.4,13.3 C28.4,16.1122 26.1122,18.4 23.3,18.4 C20.4878,18.4 18.2,16.1122 18.2,13.3 Z M32.6708056,23.5271 L29.2484,20.2 L30.2,19.2487 L33.6224056,22.5758 L32.6708056,23.5271 Z" id="Shape"></path>
        </g>
    </g>
</svg>
