<?xml version="1.0" encoding="UTF-8"?>
<svg width="16px" height="21px" viewBox="0 0 16 21" version="1.1" xmlns="http://www.w3.org/2000/svg" xmlns:xlink="http://www.w3.org/1999/xlink">
    <!-- Generator: Sketch 60.1 (88133) - https://sketch.com -->
    <desc>Created with Sketch.</desc>
    <g id="Real-content" stroke="none" stroke-width="1" fill="none" fill-rule="evenodd">
        <g id="Checkpoints-detail" transform="translate(-1127.000000, -1004.000000)" fill="#000000" fill-rule="nonzero">
            <g id="travel-times" transform="translate(1115.000000, 994.000000)">
                <g id="icon">
                    <g id="train" transform="translate(12.000000, 10.000000)">
                        <path d="M13.7026165,1.61460011 L13.5129609,1.61460011 L13.5129609,1.4798161 C13.5129609,0.673920046 12.8631116,0.0196560013 12.0626535,0.0196560013 L3.55604235,0.0196560013 C2.75558419,0.0196560013 2.10573488,0.673920046 2.10573488,1.4798161 L2.10573488,1.61460011 L1.91607929,1.61460011 C0.923176484,1.61460011 0.114351166,2.42892017 0.114351166,3.42856823 L0.114351166,13.6356489 C0.114351166,15.017185 0.920387431,16.2077771 2.08342246,16.7693771 C2.07784435,16.7890331 2.07226625,16.8086891 2.07226625,16.8311531 L2.07226625,17.8336092 L0.853450164,19.7655133 C0.769778579,19.8974894 0.808825318,20.0687774 0.939910801,20.1530174 C0.987324699,20.1839054 1.03752765,20.1979454 1.09051965,20.1979454 C1.1825584,20.1979454 1.27180809,20.1530174 1.32480009,20.0687774 L1.8742435,19.1982973 L13.7556085,19.1982973 L14.3050519,20.0687774 C14.3580439,20.1530174 14.4472936,20.1979454 14.5393324,20.1979454 C14.5895353,20.1979454 14.6425273,20.1839054 14.6899412,20.1530174 C14.8210267,20.0687774 14.8572844,19.8974894 14.7764019,19.7655133 L13.5575858,17.8336092 L13.5575858,16.8311531 C13.5575858,16.8086891 13.5492186,16.7890331 13.5464296,16.7693771 C14.7094646,16.2077771 15.5155008,15.017185 15.5155008,13.6356489 L15.5155008,3.42856823 C15.5071337,2.42892017 14.6983084,1.61460011 13.7026165,1.61460011 Z M2.66075639,1.4798161 C2.66075639,0.982800067 3.06238,0.58125604 3.5532533,0.58125604 L12.0626535,0.58125604 C12.5535268,0.58125604 12.9551504,0.985608067 12.9551504,1.4798161 L12.9551504,1.61460011 L2.66075639,1.61460011 L2.66075639,1.4798161 Z M2.2228751,18.6366973 L2.49899133,18.1986492 L13.1169154,18.1986492 L13.3930317,18.6366973 L2.2228751,18.6366973 Z M12.991408,17.1147612 L12.991408,17.6370492 L2.62728776,17.6370492 L2.62728776,17.1147612 L3.56719856,17.1147612 L12.0570753,17.1147612 L12.991408,17.1147612 Z M14.9493231,13.6384569 C14.9493231,15.244633 13.6496245,16.5531611 12.0542863,16.5531611 L3.56440951,16.5531611 C1.96907129,16.5531611 0.669372677,15.244633 0.669372677,13.6384569 L0.669372677,3.42856823 C0.669372677,2.73780019 1.22718324,2.17620015 1.91329024,2.17620015 L2.38185111,2.17620015 L13.2340556,2.17620015 L13.7026165,2.17620015 C14.3887235,2.17620015 14.9465341,2.73780019 14.9465341,3.42856823 L14.9465341,13.6384569 L14.9493231,13.6384569 Z" id="Shape"></path>
                        <path d="M3.42774592,11.2320008 C2.49062417,11.2320008 1.72921275,11.9985848 1.72921275,12.9420729 C1.72921275,13.8855609 2.49062417,14.652145 3.42774592,14.652145 C4.36486767,14.652145 5.12627909,13.8855609 5.12627909,12.9420729 C5.12627909,11.9985848 4.36486767,11.2320008 3.42774592,11.2320008 Z M3.42774592,14.090545 C2.80020903,14.090545 2.28702331,13.5766809 2.28702331,12.9420729 C2.28702331,12.3074648 2.80020903,11.7936008 3.42774592,11.7936008 C4.0552828,11.7936008 4.56846852,12.3074648 4.56846852,12.9420729 C4.56846852,13.5766809 4.05807186,14.090545 3.42774592,14.090545 Z" id="Shape"></path>
                        <path d="M12.1909499,11.2320008 C11.2538281,11.2320008 10.4924167,11.9985848 10.4924167,12.9420729 C10.4924167,13.8855609 11.2538281,14.652145 12.1909499,14.652145 C13.1280716,14.652145 13.8894831,13.8855609 13.8894831,12.9420729 C13.8894831,11.9985848 13.1252826,11.2320008 12.1909499,11.2320008 Z M12.1909499,14.090545 C11.563413,14.090545 11.0502273,13.5766809 11.0502273,12.9420729 C11.0502273,12.3074648 11.5606239,11.7936008 12.1909499,11.7936008 C12.8212758,11.7936008 13.3316725,12.3074648 13.3316725,12.9420729 C13.3316725,13.5766809 12.8184868,14.090545 12.1909499,14.090545 Z" id="Shape"></path>
                        <path d="M14.1739664,3.68971225 L1.44472936,3.68971225 C1.29133146,3.68971225 1.16582408,3.81607226 1.16582408,3.97051227 L1.16582408,10.4682247 C1.16582408,10.6226647 1.29133146,10.7490247 1.44472936,10.7490247 L14.1739664,10.7490247 C14.3273643,10.7490247 14.4528717,10.6226647 14.4528717,10.4682247 L14.4528717,3.97051227 C14.4528717,3.81607226 14.3273643,3.68971225 14.1739664,3.68971225 Z M13.8950612,10.1902327 L1.72363464,10.1902327 L1.72363464,4.25131229 L13.8950612,4.25131229 L13.8950612,10.1902327 Z" id="Shape"></path>
                        <path d="M2.73327177,6.50613644 C2.76116229,6.53983245 2.80020903,6.55387245 2.83925577,6.55387245 C2.87272441,6.55387245 2.90340399,6.54264045 2.93129452,6.52017645 L4.30629756,5.33239236 C4.36486767,5.28184836 4.37044577,5.19199235 4.32024282,5.13302435 C4.27003987,5.07405635 4.18079018,5.06844035 4.12222007,5.11898435 L2.74721703,6.30676843 C2.68864692,6.35731243 2.68306881,6.44716844 2.73327177,6.50613644 Z" id="Path"></path>
                        <path d="M2.56035049,5.99227241 C2.59103007,5.99227241 2.62170965,5.98104041 2.64960018,5.96138441 L3.74290889,5.05440035 C3.801479,5.00385634 3.80984615,4.91680834 3.76243226,4.85784033 C3.71222931,4.79887233 3.62576867,4.79044833 3.56719856,4.83818433 L2.4711008,5.74516839 C2.41253069,5.7957124 2.40416353,5.8827604 2.45157743,5.94172841 C2.47946796,5.97542441 2.5185147,5.99227241 2.56035049,5.99227241 Z" id="Path"></path>
                    </g>
                </g>
            </g>
        </g>
    </g>
</svg>
