<?xml version="1.0" encoding="UTF-8"?>
<svg width="25px" height="31px" viewBox="0 0 25 31" version="1.1" xmlns="http://www.w3.org/2000/svg" xmlns:xlink="http://www.w3.org/1999/xlink">
    <!-- Generator: Sketch 62 (91390) - https://sketch.com -->
    <title>Group 31</title>
    <desc>Created with Sketch.</desc>
    <g id="Real-content" stroke="none" stroke-width="1" fill="none" fill-rule="evenodd">
        <g id="Group-31" transform="translate(1.000000, 0.000000)" fill="#FFFFFF" fill-rule="nonzero" stroke="#FFFFFF" stroke-width="0.5">
            <path d="M6.38550039,15.1628409 C6.28023039,15.2651409 6.22050038,15.4103409 6.22050038,15.558841 C6.22050038,15.707011 6.28023039,15.849241 6.38550039,15.954511 C6.4911004,16.060111 6.63300041,16.119511 6.78150042,16.119511 C6.93330043,16.119511 7.07190043,16.060111 7.17750044,15.954511 C7.28310045,15.849241 7.34250045,15.710641 7.34250045,15.558841 C7.34250045,15.4103409 7.28310045,15.2648109 7.17750044,15.1628409 C6.96993043,14.9519709 6.5937304,14.9552709 6.38550039,15.1628409 Z" id="Path"></path>
            <path d="M5.42256033,14.4889809 C5.09883031,14.2744809 4.8193203,14.0035509 4.59195028,13.6844408 C4.06626025,12.9472208 3.88179024,12.0143107 4.08474025,11.1256207 C4.15371026,10.8233407 3.96495024,10.5227106 3.66300022,10.4537406 C3.36171021,10.3847706 3.06009019,10.5735306 2.99112018,10.8754807 C2.71689017,12.0766807 2.96736018,13.3376108 3.67818023,14.3352009 C3.98541024,14.7668409 4.36359027,15.1331409 4.80249029,15.4242009 C4.8978603,15.487231 5.00544031,15.517591 5.11203031,15.517591 C5.29386033,15.517591 5.47239034,15.4291509 5.58030034,15.2664609 C5.75124035,15.0087309 5.68062035,14.6605809 5.42256033,14.4889809 Z" id="Path"></path>
            <path d="M7.05111043,1.58273398e-13 L6.63168041,0.471240029 C6.36108039,0.775830048 1.20170543e-13,7.97082049 1.20170543e-13,11.7255607 C1.20170543e-13,15.612961 3.16305019,18.7760112 7.05078043,18.7760112 C10.9378507,18.7760112 14.1005709,15.612961 14.1005709,11.7255607 C14.1005709,7.97082049 7.74081048,0.775830048 7.46988046,0.471240029 L7.05111043,1.58273398e-13 Z M7.05111043,17.6536811 C3.78213023,17.6536811 1.12233007,14.9942109 1.12233007,11.7252307 C1.12233007,9.15915056 5.07309031,4.01049025 7.05111043,1.6981801 C9.02913055,4.01016025 12.9789008,9.15750056 12.9789008,11.7252307 C12.9789008,14.9945409 10.3197606,17.6536811 7.05111043,17.6536811 Z" id="Shape"></path>
            <path d="M17.5808495,21.5816157 C17.5071605,21.6532257 17.4653495,21.7548657 17.4653495,21.8588157 C17.4653495,21.9625347 17.5071605,22.0620957 17.5808495,22.1357847 C17.6547695,22.2097047 17.7540995,22.2512847 17.8580495,22.2512847 C17.9643095,22.2512847 18.0613295,22.2097047 18.1352495,22.1357847 C18.2091695,22.0620957 18.2507495,21.9650757 18.2507495,21.8588157 C18.2507495,21.7548657 18.2091695,21.6529947 18.1352495,21.5816157 C17.9899505,21.4340067 17.7266105,21.4363167 17.5808495,21.5816157 Z" id="Path"></path>
            <path d="M16.9067914,21.1099137 C16.6801804,20.9597637 16.4845234,20.7701127 16.3253644,20.5467357 C15.9573814,20.0306816 15.8282524,19.3776446 15.9703174,18.7555616 C16.0185964,18.5439656 15.8864644,18.3335246 15.6750994,18.2852456 C15.4641964,18.2369666 15.2530624,18.3690986 15.2047834,18.5804636 C15.0128224,19.4213036 15.1881514,20.3039546 15.6857254,21.0022677 C15.9007864,21.3044157 16.1655124,21.5608257 16.4727424,21.7645677 C16.5395014,21.8086887 16.6148074,21.8299407 16.6894204,21.8299407 C16.8167014,21.8299407 16.9416724,21.7680327 17.0172095,21.6541497 C17.1368675,21.4737387 17.0874335,21.2300337 16.9067914,21.1099137 Z" id="Path"></path>
            <path d="M18.0467765,10.9676272 L17.7531755,11.2974952 C17.5637555,11.5107083 13.1109993,16.5472015 13.1109993,19.1755196 C13.1109993,21.8966997 15.3251344,24.1108348 18.0465455,24.1108348 C20.7674946,24.1108348 22.9813987,21.8966997 22.9813987,19.1755196 C22.9813987,16.5472015 18.5295665,11.5107083 18.3399155,11.2974952 L18.0467765,10.9676272 Z M18.0467765,23.3252038 C15.7584904,23.3252038 13.8966303,21.4635747 13.8966303,19.1752886 C13.8966303,17.3790325 16.6621624,13.7749704 18.0467765,12.1563533 C19.4313906,13.7747394 22.1962297,17.3778775 22.1962297,19.1752886 C22.1962297,21.4638057 20.3348316,23.3252038 18.0467765,23.3252038 Z" id="Shape"></path>
            <path d="M10.0453453,28.2437103 C9.98639407,28.3009983 9.95294527,28.3823103 9.95294527,28.4654703 C9.95294527,28.5484455 9.98639407,28.6280943 10.0453453,28.6870455 C10.1044813,28.7461815 10.1839453,28.7794455 10.2671053,28.7794455 C10.3521133,28.7794455 10.4297293,28.7461815 10.4888653,28.6870455 C10.5480013,28.6280943 10.5812653,28.5504783 10.5812653,28.4654703 C10.5812653,28.3823103 10.5480013,28.3008135 10.4888653,28.2437103 C10.3726261,28.1256231 10.1619541,28.1274711 10.0453453,28.2437103 Z" id="Path"></path>
            <path d="M9.50609888,27.8663487 C9.32481008,27.7462287 9.16828448,27.5945079 9.04095728,27.4158063 C8.74657089,27.0029631 8.64326769,26.4805335 8.75691969,25.9828671 C8.79554289,25.8135903 8.68983729,25.6452375 8.52074529,25.6066143 C8.35202289,25.5679911 8.1831157,25.6736967 8.1444925,25.8427887 C7.9909237,26.5154607 8.1311869,27.2215815 8.52924609,27.7802319 C8.70129489,28.0219503 8.91307569,28.2270783 9.15885968,28.3900719 C9.21226688,28.4253687 9.27251168,28.4423703 9.33220208,28.4423703 C9.43402688,28.4423703 9.53400368,28.3928439 9.59443327,28.3017375 C9.69015967,28.1574087 9.65061247,27.9624447 9.50609888,27.8663487 Z" id="Path"></path>
            <path d="M10.4180869,19.75252 L10.1832061,20.0164144 C10.0316701,20.1869848 6.46946532,24.2161792 6.46946532,26.3188335 C6.46946532,28.4957775 8.2407733,30.2670855 10.4179021,30.2670855 C12.5946612,30.2670855 14.3657844,28.4957775 14.3657844,26.3188335 C14.3657844,24.2161792 10.8043189,20.1869848 10.6525981,20.0164144 L10.4180869,19.75252 Z M10.4180869,29.6385807 C8.58745809,29.6385807 7.09797011,28.1492775 7.09797011,26.3186487 C7.09797011,24.8816439 9.31039568,21.9983944 10.4180869,20.7035008 C11.525778,21.9982096 13.7376492,24.8807199 13.7376492,26.3186487 C13.7376492,28.1494623 12.2485308,29.6385807 10.4180869,29.6385807 Z" id="Shape"></path>
        </g>
    </g>
</svg>