<?xml version="1.0" encoding="UTF-8"?>
<svg width="25px" height="24px" viewBox="0 0 25 24" version="1.1" xmlns="http://www.w3.org/2000/svg"
>
    <!-- Generator: Sketch 61 (89581) - https://sketch.com -->
    <title>wind</title>
    <desc>Created with Sketch.</desc>
    <g id="Hover-points" stroke="none" stroke-width="1" fill="none" fill-rule="evenodd">
        <g id="Wanderen-beispiel" transform="translate(-223.000000, -923.000000)" stroke="#FFFFFF">
            <g id="Group-10" transform="translate(69.000000, 918.000000)">
                <g id="wind" transform="translate(153.999997, 5.600000)">
                    <line x1="-1.13686838e-13" y1="9.79999983" x2="19.1496719" y2="9.79999983" id="Path-40"></line>
                    <line x1="8.08242362e-14" y1="12.3476809" x2="6.54967208" y2="12.3476809" id="Path-40-Copy"></line>
                    <path d="M11.9155611,9.79999983 C14.6217564,9.79999983 16.8155611,7.60619514 16.8155611,4.89999992 C16.8155611,2.19380469 14.6217564,0 11.9155611,0 C9.20936591,0 7.01556122,2.19380469 7.01556122,4.89999992"
                          id="Path"></path>
                    <path d="M14.0155611,14.6999997 C14.0155611,17.406195 16.2093658,19.5999997 18.915561,19.5999997 C21.6217562,19.5999997 23.8155609,17.406195 23.8155609,14.6999997 C23.8155609,11.9938045 21.6217562,9.79999983 18.915561,9.79999983"
                          id="Path"></path>
                    <path d="M1.41556132,17.2476808 C1.41556132,19.953876 3.60936601,22.1476807 6.31556123,22.1476807 C9.02175646,22.1476807 11.2155612,19.953876 11.2155612,17.2476808 C11.2155612,14.5414855 9.02175646,12.3476809 6.31556123,12.3476809"
                          id="Path"></path>
                </g>
            </g>
        </g>
    </g>
</svg>
