<?xml version="1.0" encoding="UTF-8"?>
<svg width="213px" height="167px" viewBox="0 0 213 167" version="1.1" xmlns="http://www.w3.org/2000/svg" xmlns:xlink="http://www.w3.org/1999/xlink">
    <!-- Generator: Sketch 63.1 (92452) - https://sketch.com -->
    <title>graphics</title>
    <desc>Created with Sketch.</desc>
    <g id="Charts-remake" stroke="none" stroke-width="1" fill="none" fill-rule="evenodd">
        <g id="graphics" transform="translate(1.000000, 1.000000)" stroke="#FFFFFF">
            <g id="mixedTransport" transform="translate(1.200000, 32.800001)">
                <path d="M0.12834566,51.2751858 L22.4788842,22.2207292 M31.9585454,9.51995394 L39.4365346,0.1767271" id="Shape" stroke-width="1.80000007" stroke-linecap="round"></path>
                <path d="M89.6538171,51.2751858 L79.5085503,36.2349358 M74.3826561,28.6358523 L55.3633969,0.440002975" id="Shape" stroke-width="1.80000007" stroke-linecap="round"></path>
                <path d="M35.5200009,25.1800009 L24.9600002,25.1800009 C23.8663802,25.1800009 22.9800001,24.2936209 22.9800001,23.2000008 L22.9800001,19.7792206 C22.9800001,18.9971206 23.2116601,18.2328405 23.6452802,17.5820805 L24.3000002,16.6000004 L21.66,15.9400004 C21.29502,15.9400004 21,15.6443203 21,15.2800003 L21,13.9600002 C21,13.5956802 21.29502,13.3000002 21.66,13.3000002 L24.9600002,13.3000002 L26.2800003,15.2800003 L28.2600004,15.9400004 L35.5200009,15.9400004" id="Stroke-1" stroke-width="1.65000004" stroke-linecap="round" stroke-linejoin="round"></path>
                <polyline id="Stroke-3" stroke-width="1.65000004" points="24.9600002 18.5800005 26.2800003 19.9000006 29.5800005 19.9000006"></polyline>
                <path d="M23.6400002,24.5200009 L23.6400002,27.1600011 C23.6400002,27.5243211 23.9350202,27.8200011 24.3000002,27.8200011 L28.9200005,27.8200011 C29.2849805,27.8200011 29.5800005,27.5243211 29.5800005,27.1600011 L29.5800005,26.500001" id="Stroke-5" stroke-width="1.65000004" stroke-linejoin="round"></path>
                <path d="M35.5200009,25.1800009 L46.0800015,25.1800009 C47.1736216,25.1800009 48.0600017,24.2936209 48.0600017,23.2000008 L48.0600017,19.7792206 C48.0600017,18.9971206 47.8283416,18.2328405 47.3947216,17.5820805 L46.7400016,16.6000004 L49.3800017,15.9400004 C49.7449818,15.9400004 50.0400018,15.6443203 50.0400018,15.2800003 L50.0400018,13.9600002 C50.0400018,13.5956802 49.7449818,13.3000002 49.3800017,13.3000002 L46.0800015,13.3000002 L44.7600015,15.2800003 L42.7800013,15.9400004 L35.5200009,15.9400004" id="Stroke-7" stroke-width="1.65000004" stroke-linecap="round" stroke-linejoin="round"></path>
                <path d="M45.4200015,14.6200003 C45.4200015,14.6200003 43.7436014,11.0197001 43.4400014,10.66 C43.1364014,10.3003 42.5820013,10 42.1200003,10 L28.9200005,10 C28.4580005,10 27.9036004,10.3003 27.6000004,10.66 C27.2964004,11.0197001 25.6200003,14.6200003 25.6200003,14.6200003" id="Stroke-9" stroke-width="1.65000004"></path>
                <polyline id="Stroke-11" stroke-width="1.65000004" points="46.0800015 18.5800005 44.7600015 19.9000006 41.4600013 19.9000006"></polyline>
                <path d="M47.4000016,24.5200009 L47.4000016,27.1600011 C47.4000016,27.5243211 47.1049816,27.8200011 46.7400016,27.8200011 L42.1200013,27.8200011 C41.7550213,27.8200011 41.4600013,27.5243211 41.4600013,27.1600011 L41.4600013,26.500001" id="Stroke-13" stroke-width="1.65000004" stroke-linejoin="round"></path>
                <line x1="29.5800005" y1="22.5400008" x2="41.4600013" y2="22.5400008" id="Stroke-15" stroke-width="1.65000004"></line>
                <rect id="Rectangle" stroke-width="1.5" x="70.8000002" y="40.999999" width="3.30000007" height="18.7000004" rx="1.65000004"></rect>
                <rect id="Rectangle" stroke-width="1.5" x="76.3000003" y="53.0999993" width="5.50000012" height="2.20000005"></rect>
                <rect id="Rectangle" stroke-width="1.5" x="78.5000004" y="21.1999986" width="7.70000017" height="2.20000005" rx="1.10000002"></rect>
                <rect id="Rectangle-Copy-29" stroke-width="1.5" x="59.8" y="21.1999986" width="7.70000017" height="2.20000005" rx="1.10000002"></rect>
                <rect id="Rectangle-Copy-21" stroke-width="1.5" x="63.1" y="44.2999991" width="5.50000012" height="2.20000005"></rect>
                <path d="M67.2568973,22.2999986 C67.9804416,22.1054054 68.4281425,22.259405 68.6000001,22.7619976 C69.3091266,24.8358176 67.0027973,28.0834833 72.6160973,28.0834833 C77.9521972,28.0834833 76.2930543,25.4966334 77.1898294,22.7619976 C77.3018704,22.4203386 77.848593,22.266339 78.8299972,22.2999986" id="Path-63" stroke-width="1.5"></path>
                <path d="M68.291997,28.8559972 L77.0919971,28.8559972 C78.3070236,28.8559972 79.2919972,29.8409708 79.2919972,31.0559973 L79.2919972,35.4559971 C79.2919972,37.8860501 77.32205,39.8559972 74.8919971,39.8559972 L70.491997,39.8559972 C68.061944,39.8559972 66.0919969,37.8860501 66.0919969,35.4559971 L66.0919969,31.0559973 C66.0919969,29.8409708 67.0769705,28.8559972 68.291997,28.8559972 Z" id="Rectangle" stroke-width="1.5"></path>
                <line x1="66.0919969" y1="32.148036" x2="79.2919972" y2="32.148036" id="Path-64" stroke-width="1.5"></line>
                <line x1="66.0919969" y1="35.448036" x2="79.2919972" y2="35.448036" id="Path-64-Copy" stroke-width="1.5"></line>
                <line x1="70.2829973" y1="29.2299976" x2="70.2829973" y2="39.8559975" id="Path-65" stroke-width="1.5"></line>
                <line x1="74.6829974" y1="29.2299976" x2="74.6829974" y2="39.8559975" id="Path-65-Copy" stroke-width="1.5"></line>
            </g>
            <g id="street" transform="translate(121.200005, 0.000000)" stroke-linecap="round">
                <line x1="0.12834566" y1="86.0751872" x2="39.4365346" y2="34.9767285" id="Path-11" stroke-width="1.80000007"></line>
                <line x1="89.6538171" y1="86.0751872" x2="55.3633969" y2="35.2400044" id="Path-12" stroke-width="1.80000007"></line>
                <path d="M46.7471841,35.2400044 L46.7471841,36.3181257 M46.7471841,41.2639315 L46.7471841,47.6874122 M46.7471841,52.5200057 L46.7471841,64.4729975 M46.7471841,69.4232337 L46.7471841,86.0751872" id="Shape" stroke-width="1.80000007"></path>
                <line x1="70.9378053" y1="55.87522" x2="81.4336921" y2="55.87522" id="Path-58" stroke-width="1.5"></line>
                <path d="M73.9292609,55.87522 L73.9292609,23.274343 C74.362645,22.5107401 75.0974769,22.1289386 76.1337567,22.1289386 C77.1700365,22.1289386 77.9048684,22.5107401 78.3382525,23.274343 L78.3382525,55.87522" id="Path-59" stroke-width="1.5"></path>
                <line x1="73.9292609" y1="47.4071569" x2="77.4922173" y2="47.4071569" id="Path-60" stroke-width="1.5"></line>
                <path d="M60.6462991,8.19027561 C60.9977824,2.98379269 63.5965214,0.317126024 68.4425159,0.190275614 C73.2885104,0.0634252047 75.8522573,2.73009187 76.1337567,8.19027561 L76.1337567,22.1289386" id="Path-61" stroke-width="1.5"></path>
                <path d="M59.7999952,13 L60.7999952,13 C64.6659884,13 67.7999952,16.1340068 67.7999952,20 L67.7999952,20 L67.7999952,20 L52.7999952,20 C52.7999952,16.1340068 55.9340019,13 59.7999952,13 Z" id="Rectangle" stroke-width="1.5"></path>
                <path d="M57.1042401,20.2544315 C57.454311,21.8866837 58.481183,22.7028098 60.184856,22.7028098 C61.888529,22.7028098 62.9616169,21.8866837 63.4041197,20.2544315" id="Path-62" stroke-width="1.5"></path>
                <path d="M57.4041197,13 L57.4041197,11.5489011 C57.4041197,9.8920468 58.7472654,8.54890105 60.4041197,8.54890105 C62.0609739,8.54890105 63.4041197,9.8920468 63.4041197,11.5489011 L63.4041197,13.5489011" id="Path" stroke-width="1.5"></path>
            </g>
            <g id="highway" transform="translate(0.000000, 112.400005)">
                <line x1="0.12834566" y1="51.2751858" x2="39.4365346" y2="0.1767271" id="Path-11" stroke-width="1.80000007" stroke-linecap="round"></line>
                <line x1="89.6538171" y1="51.2751858" x2="55.3633969" y2="0.440002975" id="Path-12" stroke-width="1.80000007" stroke-linecap="round"></line>
                <line x1="47.4000019" y1="51.8000021" x2="47.4000019" y2="0.440002975" id="Path-25" stroke-width="1.80000007" stroke-linecap="round"></line>
                <path d="M67.1007529,51.2751858 L61.4798945,33.2788087 M60.0911415,28.8324195 L56.6159345,17.705803 M55.4479233,13.9661658 L52.947481,5.96046646 M52.0704814,3.15256514 L51.2232593,0.440002975" id="Shape" stroke-width="1.20000005" stroke-linecap="round"></path>
                <path d="M43.2771409,51.2751858 L37.6562826,33.2788087 M36.2675295,28.8324195 L32.7923226,17.705803 M31.6243113,13.9661658 L29.123869,5.96046646 M28.2468694,3.15256514 L27.3996474,0.440002975" id="Shape-Copy-7" stroke-width="1.20000005" stroke-linecap="round" transform="translate(35.250200, 25.857594) scale(-1, 1) translate(-35.250200, -25.857594) "></path>
                <rect id="Rectangle" stroke-width="1.20000005" x="75.600003" y="14.6000006" width="4.80000019" height="9.60000038"></rect>
                <rect id="Rectangle-Copy-18" stroke-width="1.20000005" x="12.0000005" y="14.6000006" width="4.80000019" height="9.60000038"></rect>
                <rect id="Rectangle" stroke-width="1.20000005" fill="#343741" x="8.40000033" y="8.60000038" width="75.600003" height="6.00000024"></rect>
            </g>
        </g>
    </g>
</svg>