<?xml version="1.0" encoding="UTF-8"?>
<svg width="178px" height="148px" viewBox="0 0 178 148" version="1.1" xmlns="http://www.w3.org/2000/svg" xmlns:xlink="http://www.w3.org/1999/xlink">
    <!-- Generator: Sketch 63.1 (92452) - https://sketch.com -->
    <title>graphics</title>
    <desc>Created with Sketch.</desc>
    <g id="Charts-remake" stroke="none" stroke-width="1" fill="none" fill-rule="evenodd">
        <g id="graphics" transform="translate(1.000000, 1.000000)" stroke="#5A5E6B">
            <g id="mixedTransport" transform="translate(1.000000, 29.000000)">
                <path d="M37.2144923,3 L27.6906645,3.00738293 C27.3834979,3.00757186 27.1152537,3.1510623 26.9400786,3.34699222 C26.7649034,3.54292222 26.6629605,3.7796132 26.5943169,4.01636719 L25.6911528,7.14052748 L25.5201177,6.96949194 L25.5201177,5.8423828 C25.5201003,5.66842034 25.3790802,5.5274002 25.2051177,5.52738282 L23.9451178,5.52738282 C23.8259353,5.52725795 23.7168859,5.5944019 23.6633404,5.70087889 L23.0333404,6.96210897 C22.929288,7.17140756 23.0813817,7.41714787 23.3151178,7.41738286 L25.077149,7.41738286 L25.4192193,7.75945332 L23.7322467,9.35167934 C23.6690688,9.41149783 23.6334408,9.49477564 23.6338092,9.58177738 L23.6338092,14.7755854 L23.6350377,14.7558979 C23.6099479,15.1666774 23.9042474,15.5055134 24.2785728,15.587695 C24.2676537,15.6206251 24.2622489,15.6551321 24.2625765,15.6898237 L24.2625765,16.4047262 C24.2625765,17.0012102 24.747724,17.496467 25.342928,17.496152 L26.3334553,17.496152 C26.9286898,17.495963 27.4125763,17.0012102 27.4125763,16.4047262 L27.4125763,15.6073825 L27.6660529,15.6073825 C27.6697447,15.6074474 27.6734359,15.6074474 27.6771271,15.6073825 C27.8703531,15.638725 28.0450825,15.4881185 28.0425763,15.2923825 C28.0425763,15.1124545 28.1776324,14.9762151 28.3575762,14.9761521 L28.3588047,14.9761521 L36.5475781,14.9699996 C36.7275514,14.9699366 36.8625781,15.1050716 36.8625781,15.2849995 C36.8606251,15.4743977 37.0250715,15.6226751 37.2132619,15.6012299 C37.2222646,15.6020489 37.2312925,15.6024269 37.240333,15.6024899 L37.5024231,15.6024899 C37.4945418,15.6313439 37.4908185,15.6611744 37.4913477,15.6910837 L37.4913477,16.4059862 C37.4913477,17.0024702 37.9752645,17.497727 38.5704689,17.4974122 L39.5622262,17.4974122 C40.1574609,17.4959964 40.6413475,17.0012102 40.6413475,16.4047262 L40.6413475,15.5766209 C41.0016036,15.4885002 41.2667819,15.1571581 41.2725779,14.7755854 L41.2725779,14.7682018 L41.2725779,9.57439315 C41.2725905,9.48842965 41.2374743,9.40619449 41.1753708,9.34675652 L39.494551,7.74222534 L39.8255467,7.41122902 L41.5875779,7.41122902 C41.8221836,7.41145141 41.974711,7.16434463 41.8693554,6.95472537 L41.2393555,5.69595575 C41.1861532,5.58900185 41.0770341,5.5213386 40.9575779,5.52123043 L39.697578,5.52123043 C39.5236154,5.52124781 39.3825956,5.66226795 39.382578,5.83623041 L39.382578,6.96333999 L39.2152342,7.13068373 L38.3108397,4.01021487 C38.2421892,3.77352388 38.1415486,3.53541343 37.9663084,3.33960944 C37.7910683,3.14380545 37.5216462,3 37.2144923,3 Z M37.2144923,3.62999998 C37.3470147,3.62993706 37.4148001,3.66901658 37.4962692,3.76042971 C37.5777396,3.85146476 37.6532658,4.00501346 37.7054494,4.18494145 L38.6775192,7.53796864 C38.0710768,7.65014454 35.728379,8.04492142 32.4525783,8.04492142 C29.1805046,8.04492142 26.838925,7.65561609 26.2288677,7.54412121 L27.1997075,4.19232423 C27.2518979,4.01233324 27.3285836,3.85780609 27.4101176,3.7665821 C27.4916517,3.6754211 27.5581541,3.63744584 27.6906645,3.6373829 L27.691893,3.6373829 L37.2144923,3.62999998 Z M40.0125779,6.15123034 L40.7631637,6.15123034 L41.0781637,6.78123031 L40.0125779,6.78123031 L40.0125779,6.15123034 Z M24.1395318,6.15740434 L24.8901178,6.15740434 L24.8901178,6.78740431 L23.8245318,6.78740431 L24.1395318,6.15740434 Z M38.9789842,8.12492386 L40.6425779,9.71222832 L40.6425779,14.765763 C40.6406249,14.892771 40.5601393,14.9724818 40.4543163,14.9724818 L37.4347459,14.9724818 C37.3040965,14.6063415 36.9559472,14.3398509 36.5475781,14.3399996 L28.3575785,14.3461736 C27.9501335,14.3463223 27.6030035,14.6123719 27.471641,14.977404 L24.4533014,14.977404 C24.3478251,14.977404 24.2578054,14.8924069 24.2638091,14.7940639 C24.2639894,14.7878899 24.2639894,14.78176 24.2638091,14.7756049 L24.2638091,9.71714799 L25.9421685,8.13230431 C26.207278,8.18437381 28.7997231,8.67649514 32.4525783,8.67494093 C36.1349583,8.67494093 38.7507705,8.17024858 38.9789842,8.12492386 Z M36.5475781,10.5599992 L28.3575785,10.5661523 C28.1432006,10.5663319 27.9916096,10.7759392 28.0585747,10.9795898 L28.8780668,13.4934371 C28.9201319,13.6230678 29.0407851,13.7109509 29.1770704,13.71123 L35.7293165,13.71123 C35.8656019,13.7109509 35.9862544,13.6230678 36.0283201,13.4934371 L36.8478128,10.9722068 C36.9138809,10.7684686 36.7617604,10.5596155 36.5475781,10.5599992 Z M39.7172655,10.5624568 L39.7172655,10.5637168 C38.8569747,10.5120568 38.122481,10.7774442 37.6217772,11.2921542 C37.140919,11.7864522 36.8969534,12.4969114 36.877344,13.3052013 C36.8678625,13.335057 36.873312,13.6585059 36.872997,13.6898308 L36.8812563,13.7006794 L37.1775573,13.7112382 L39.6975572,13.7112382 C39.8715197,13.7112382 40.0125572,13.5702007 40.0125572,13.3962382 L40.0125572,12.776082 L40.0125572,10.8762383 C40.0122176,10.7101565 39.8830014,10.5728644 39.7172447,10.5624687 L39.7172655,10.5624568 Z M25.1891216,10.5673708 C25.022406,10.5771736 24.8923075,10.7153678 24.8925782,10.8823707 L24.8925782,12.780984 L24.8925782,13.4023706 C24.8925782,13.5763332 25.0336162,13.7173706 25.2075786,13.7173706 L27.7275785,13.7173706 C27.901541,13.7173706 28.0425785,13.5763332 28.0425785,13.4023706 C28.0425785,12.5518707 27.7853972,11.8102032 27.2846098,11.2958082 C26.7838225,10.7814762 26.049404,10.5160591 25.1891216,10.5686011 L25.1891216,10.5673708 Z M36.1144531,11.1887574 L36.1144531,11.1900174 L35.9101951,11.8200173 L28.9974222,11.8261913 L28.7919338,11.1961914 L36.1144531,11.1887574 Z M39.382578,11.2281324 L39.382578,12.7772922 L39.382578,13.0824485 L37.5430272,13.0824485 C37.6004202,12.5206775 37.767728,12.045575 38.0733593,11.731394 C38.3808679,11.41526 38.8312335,11.2569234 39.382578,11.2281324 Z M25.5225786,11.2318494 C26.0745312,11.2601994 26.5253524,11.4178726 26.8330278,11.7338806 C27.1390681,12.0482506 27.3063289,12.5244915 27.3633598,13.0873965 L25.5225786,13.0873965 L25.5225786,12.7810098 L25.5225786,11.2318494 Z M35.7047068,12.4499997 L35.5004495,13.08123 L29.4059381,13.08123 L29.2016801,12.4561523 L35.7047068,12.4499997 Z M38.1102722,15.6024603 L40.0113476,15.6024603 L40.0113476,16.4047262 C40.0113476,16.6681292 39.8140901,16.8660891 39.5622262,16.8661586 L38.5704689,16.8661586 C38.3185748,16.8674751 38.1213476,16.6694226 38.1213476,16.4059566 L38.1213476,15.6910541 C38.1218806,15.661148 38.1181346,15.6313175 38.1102722,15.6024603 L38.1102722,15.6024603 Z M24.8827349,15.6073743 L26.7825786,15.6073743 L26.7825786,16.404718 C26.7825786,16.668121 26.585321,16.8660809 26.3334575,16.8661439 L25.3429302,16.8661439 C25.0910363,16.8662699 24.8925787,16.668184 24.8925787,16.404718 L24.8925787,15.6898155 C24.8929488,15.6620199 24.8896366,15.6342999 24.8827349,15.6073743 L24.8827349,15.6073743 Z" id="Shape" fill-rule="nonzero"></path>
                <path d="M70.9200003,18.4 L66.8400003,18.4 C66.8000003,18.4 66.7200003,18.4 66.6800003,18.4 C66.6400003,18.4 66.6400003,18.4 66.6000003,18.4 C66.4400003,18.44 66.3200003,18.48 66.2000003,18.56 C66.2800003,18.52 66.3600003,18.44 66.4400003,18.44 C66.4800003,18.44 66.5600003,18.4 66.6000003,18.4 L66.6000003,18.4 C66.2000003,18.4 65.4400002,18.6 64.9600002,18.96 C64.4800002,19.36 64.2400002,19.84 64.2400002,20.4 L64.2400002,22.8800001 C64.2400002,24.0000001 62.7200002,24.8000001 60.5600002,24.8000001 C58.4000001,24.8000001 56.8800001,24.0000001 56.8800001,22.8800001 L56.8800001,20.44 C56.8800001,19.88 56.6400001,19.36 56.1600001,19 C55.7200001,18.64 55.1600001,18.44 54.5600001,18.44 C54.4800001,18.44 54.4000001,18.44 54.3600001,18.44 L50.28,18.44 C49.6,18.4 49,19.04 49,19.8 C49,20.56 49.6,21.2 50.32,21.2 L54.4000001,21.2 C55.1200001,21.2 55.7200001,20.56 55.7200001,19.8 C55.7200001,19.72 55.7200001,19.64 55.7200001,19.56 C55.7200001,19.56 55.7600001,19.56 55.7600001,19.6 C56.0400001,19.84 56.2000001,20.12 56.2000001,20.44 L56.2000001,22.8800001 C56.2000001,23.6800001 56.6400001,24.3600001 57.4400001,24.8400001 C58.2400001,25.3200001 59.3600002,25.6000001 60.6800002,25.6000001 L60.6000002,25.6000001 C63.2800002,25.6000001 65.0800002,24.4800001 65.0800002,22.8800001 L65.0800002,20.4 C65.0800002,20.08 65.2400002,19.8 65.5200002,19.56 C65.5200002,19.56 65.5200002,19.52 65.5200002,19.52 C65.5200002,19.52 65.5200002,19.52 65.5200002,19.48 C65.5200002,19.48 65.5600002,19.44 65.5600002,19.44 C65.5600002,19.44 65.5600002,19.48 65.5600002,19.52 C65.5600002,19.6 65.5200002,19.68 65.5200002,19.76 C65.5200002,20.52 66.1200003,21.16 66.8400003,21.16 L70.9200003,21.16 C71.6400003,21.16 72.2400003,20.52 72.2400003,19.76 C72.2000003,19.04 71.6000003,18.4 70.9200003,18.4 Z M54.3600001,20.4 L50.28,20.4 C50,20.4 49.76,20.12 49.76,19.8 C49.76,19.48 50,19.2 50.28,19.2 L54.3600001,19.2 C54.6400001,19.2 54.8800001,19.48 54.8800001,19.8 C54.8400001,20.12 54.6000001,20.4 54.3600001,20.4 Z M70.9200003,20.4 L66.8400003,20.4 C66.5600003,20.4 66.3200003,20.12 66.3200003,19.8 C66.3200003,19.48 66.5600003,19.2 66.8400003,19.2 L70.9200003,19.2 C71.1600003,19.2 71.4400003,19.48 71.4400003,19.8 C71.4000003,20.12 71.1600003,20.4 70.9200003,20.4 Z" id="Shape" fill-rule="nonzero"></path>
                <path d="M66.6000003,18.4 L66.6000003,18.4 C66.4400003,18.44 66.3200003,18.52 66.2000003,18.6 C66.2800003,18.56 66.3600003,18.48 66.4400003,18.48 C66.4800003,18.44 66.5600003,18.44 66.6000003,18.4 Z" id="Path" fill-rule="nonzero"></path>
                <path d="M60.6000001,52.4000005 C59.4800002,52.4000005 58.6000001,51.5200005 58.6000001,50.4000005 L58.6000001,37.6000003 C58.6000001,36.4800003 59.4800002,35.6000003 60.6000001,35.6000003 C61.7200002,35.6000003 62.6000001,36.4800003 62.6000001,37.6000003 L62.6000001,50.4000005 C62.6000001,51.5200005 61.7200002,52.4000005 60.6000001,52.4000005 Z M60.6000002,36.4000003 C59.9200002,36.4000003 59.4000002,36.9200003 59.4000002,37.6000003 L59.4000002,50.4000003 C59.4000002,51.0800005 59.9200002,51.6000005 60.6000002,51.6000005 C61.2800002,51.6000005 61.8000002,51.0800005 61.8000002,50.4000003 L61.8000002,37.6000003 C61.8000002,36.9200003 61.2800002,36.4000003 60.6000002,36.4000003 Z" id="Shape" fill-rule="nonzero"></path>
                <path d="M57.8000001,41.2000003 L52.6000001,41.2000003 L52.6000001,38.8000003 L57.8000001,38.8000003 L57.8000001,41.2000003 Z M53.4000001,40.4000003 L57.0000001,40.4000003 L57.0000001,39.6000003 L53.4000001,39.6000003 L53.4000001,40.4000003 Z" id="Shape" stroke-width="1.5" fill-rule="nonzero"></path>
                <path d="M68.6000003,49.2000005 L63.4000002,49.2000005 L63.4000002,46.8000004 L68.6000003,46.8000004 L68.6000003,49.2000005 Z M64.2000002,48.4000005 L67.8000003,48.4000005 L67.8000003,47.6000004 L64.2000002,47.6000004 L64.2000002,48.4000005 Z" id="Shape" stroke-width="1.5" fill-rule="nonzero"></path>
                <path d="M64.6400002,26.0000001 L56.4400001,26.0000001 C55.4400001,26.0000001 54.6000001,26.9200001 54.6000001,28.0400001 L55.0000001,33.2000002 C55.0000001,34.2800002 55.8800001,35.2000003 56.8400001,35.2000003 L64.2400002,35.2000003 C65.1600002,35.2000003 66.2000003,34.3200002 66.2000003,33.2400002 L66.6000001,28.0000001 C66.6000001,26.8800001 65.5600002,26.0000001 64.6400002,26.0000001 Z M56.2000001,34.1200002 C55.9600001,33.9200002 55.8000001,33.5600002 55.8000001,33.1600002 L55.7600001,32.8000002 L56.2000001,32.8000002 L56.2000001,34.1200002 Z M56.2000001,32.0000002 L55.7200001,32.0000002 L55.6000001,30.4000002 L56.2000001,30.4000002 L56.2000001,32.0000002 Z M56.2000001,29.6000002 L55.5200001,29.6000002 L55.4000001,28.0000001 L56.2000001,28.0000001 L56.2000001,29.6000002 Z M56.2000001,27.2000001 L55.6800001,27.2000001 C55.8400001,27.0400001 56.0000001,26.9200001 56.2000001,26.8400001 L56.2000001,27.2000001 Z M65.0000002,26.8800001 C65.1600002,26.9600001 65.3200002,27.0400001 65.4800002,27.2000001 L65.0000002,27.2000001 L65.0000002,26.8800001 Z M63.0000002,26.8000001 L64.2000002,26.8000001 L64.2000002,27.2000001 L63.0000002,27.2000001 L63.0000002,26.8000001 Z M63.0000002,28.0000001 L64.2000002,28.0000001 L64.2000002,29.6000002 L63.0000002,29.6000002 L63.0000002,28.0000001 Z M63.0000002,30.4000002 L64.2000002,30.4000002 L64.2000002,32.0000002 L63.0000002,32.0000002 L63.0000002,30.4000002 Z M58.2000001,34.4000002 L57.0000001,34.4000002 L57.0000001,32.8000002 L58.2000001,32.8000002 L58.2000001,34.4000002 Z M58.2000001,32.0000002 L57.0000001,32.0000002 L57.0000001,30.4000002 L58.2000001,30.4000002 L58.2000001,32.0000002 Z M58.2000001,29.6000002 L57.0000001,29.6000002 L57.0000001,28.0000001 L58.2000001,28.0000001 L58.2000001,29.6000002 Z M58.2000001,27.2000001 L57.0000001,27.2000001 L57.0000001,26.8000001 L58.2000001,26.8000001 L58.2000001,27.2000001 Z M60.2000002,34.4000002 L59.0000001,34.4000002 L59.0000001,32.8000002 L60.2000002,32.8000002 L60.2000002,34.4000002 Z M60.2000002,32.0000002 L59.0000001,32.0000002 L59.0000001,30.4000002 L60.2000002,30.4000002 L60.2000002,32.0000002 Z M60.2000002,29.6000002 L59.0000001,29.6000002 L59.0000001,28.0000001 L60.2000002,28.0000001 L60.2000002,29.6000002 Z M60.2000002,27.2000001 L59.0000001,27.2000001 L59.0000001,26.8000001 L60.2000002,26.8000001 L60.2000002,27.2000001 Z M62.2000002,34.4000002 L61.0000002,34.4000002 L61.0000002,32.8000002 L62.2000002,32.8000002 L62.2000002,34.4000002 Z M62.2000002,32.0000002 L61.0000002,32.0000002 L61.0000002,30.4000002 L62.2000002,30.4000002 L62.2000002,32.0000002 Z M62.2000002,29.6000002 L61.0000002,29.6000002 L61.0000002,28.0000001 L62.2000002,28.0000001 L62.2000002,29.6000002 Z M62.2000002,27.2000001 L61.0000002,27.2000001 L61.0000002,26.8000001 L62.2000002,26.8000001 L62.2000002,27.2000001 Z M63.0000002,32.8000002 L64.2000002,32.8000002 L64.2000002,34.4000002 L63.0000002,34.4000002 L63.0000002,32.8000002 Z M65.4000002,33.2000002 C65.4000002,33.5200002 65.2400002,33.8400002 65.0000002,34.0400002 L65.0000002,32.8000002 L65.4400002,32.8000002 L65.4000002,33.2000002 Z M65.4800002,32.0000002 L65.0000002,32.0000002 L65.0000002,30.4000002 L65.6000002,30.4000002 L65.4800002,32.0000002 Z M65.6800002,29.6000002 L65.0000002,29.6000002 L65.0000002,28.0000001 L65.8000003,28.0000001 L65.6800002,29.6000002 Z" id="Shape" stroke-width="1.5" fill-rule="nonzero"></path>
                <path d="M25.0999997,25.2663996 C23.9983997,25.2663996 23.0263998,24.5859997 22.6699998,23.5491997 C22.5727998,23.2575997 22.5079998,22.9659997 22.5079998,22.6743997 C22.5079998,22.3503998 22.5727998,22.0263998 22.7023998,21.7023998 C23.0911998,20.7303998 24.0307997,20.0823998 25.0999997,20.0823998 C26.1691997,20.0823998 27.1087996,20.7303998 27.4975996,21.7023998 C27.6271996,21.9939998 27.6919996,22.3503998 27.6919996,22.6743997 C27.6919996,22.9659997 27.6271996,23.2575997 27.5299996,23.5491997 C27.1735996,24.5859997 26.2015996,25.2663996 25.0999997,25.2663996 Z M25.0999997,20.7303998 C24.2899997,20.7303998 23.6095997,21.2163998 23.2855998,21.9615998 C23.1883998,22.1883998 23.1559998,22.4475998 23.1559998,22.6743997 C23.1559998,22.9011997 23.1883998,23.1279997 23.2855998,23.3223997 C23.5771997,24.0999997 24.2899997,24.6183997 25.0999997,24.6183997 C25.9099997,24.6183997 26.6551996,24.0999997 26.9143996,23.3223997 C26.9791996,23.0955997 27.0439996,22.9011997 27.0439996,22.6743997 C27.0439996,22.4151998 27.0115996,22.1883998 26.9143996,21.9615998 C26.5903996,21.2163998 25.9099997,20.7303998 25.0999997,20.7303998 Z" id="Shape" fill-rule="nonzero"></path>
                <path d="M21.5359998,22.6419997 C21.5359998,22.8039997 21.5359998,22.9659997 21.5683998,23.1279997 L18.296,23.1279997 C18.1016,23.1279997 17.9072,22.9983997 17.8424,22.8039997 C17.81,22.7391997 17.81,22.7067997 17.81,22.6419997 C17.81,22.5123998 17.8748,22.3827998 17.9396,22.3179998 C17.972,22.2855998 18.0692,22.1883998 18.1988,22.1559998 C18.2312,22.1559998 18.2312,22.1559998 18.2636,22.1559998 L21.5359998,22.1559998 C21.5359998,22.3179998 21.5359998,22.4799998 21.5359998,22.6419997 Z" id="Path"></path>
                <path d="M28.9879995,26.6919996 L21.2119998,26.6919996 C20.3047999,26.6919996 19.5919999,27.4047996 19.5919999,28.3119995 L19.5919999,37.7079992 C19.5919999,38.6151991 20.3047999,39.3279991 21.2119998,39.3279991 L23.1559998,39.3279991 L23.1559998,42.243999 C23.1559998,43.151199 23.8687997,43.8639989 24.7759997,43.8639989 L25.4239997,43.8639989 C26.3311996,43.8639989 27.0439996,43.151199 27.0439996,42.243999 L27.0439996,39.3279991 L28.9879995,39.3279991 C29.8951995,39.3279991 30.6079995,38.6151991 30.6079995,37.7079992 L30.6079995,28.3119995 C30.6079995,27.4047996 29.8951995,26.6919996 28.9879995,26.6919996 Z M26.3959996,42.243999 C26.3959996,42.762399 25.9747997,43.215999 25.4239997,43.215999 L24.7759997,43.215999 C24.2251997,43.215999 23.8039997,42.762399 23.8039997,42.243999 L23.8039997,37.0599992 C23.8039997,36.5091992 24.2251997,36.0879992 24.7759997,36.0879992 L25.4239997,36.0879992 C25.9747997,36.0879992 26.3959996,36.5091992 26.3959996,37.0599992 L26.3959996,42.243999 Z M29.9599995,37.7079992 C29.9599995,38.2263992 29.5387995,38.6799991 28.9879995,38.6799991 L27.0439996,38.6799991 L27.0439996,37.0599992 C27.0439996,36.1527992 26.3311996,35.4399993 25.4239997,35.4399993 L24.7759997,35.4399993 C23.8687997,35.4399993 23.1559998,36.1527992 23.1559998,37.0599992 L23.1559998,38.6799991 L21.2119998,38.6799991 C20.6611999,38.6799991 20.2399999,38.2263992 20.2399999,37.7079992 L20.2399999,28.3119995 C20.2399999,27.7611996 20.6611999,27.3399996 21.2119998,27.3399996 L28.9879995,27.3399996 C29.5387995,27.3399996 29.9599995,27.7611996 29.9599995,28.3119995 L29.9599995,37.7079992 Z" id="Shape" fill-rule="nonzero"></path>
                <path d="M31.9039994,21.5079998 L28.6639996,21.5079998 L28.6639996,17.7171999 C28.6639996,17.4579999 28.7935996,17.2312 29.0203995,17.0692 C29.1823995,16.9396 29.3119995,16.8424 29.6359995,16.7776 L29.6359995,19.3371999 L31.1263995,19.3371999 C32.0335994,19.3371999 32.7463994,18.5919999 32.7463994,17.7171999 C32.7463994,16.81 32.0011994,16.0972 31.1263995,16.0972 L29.9599995,16.0972 C29.8627995,16.0972 29.7331995,16.0972 29.6359995,16.1296 C29.2471995,16.1944 28.8907995,16.324 28.5991996,16.5508 C28.2103996,16.8748 28.0159996,17.2636 28.0159996,17.7171999 L28.0159996,20.7303998 L28.0159996,20.7303998 C27.3679996,19.7583999 26.2987996,19.1751999 25.0675997,19.1751999 C23.9011997,19.1751999 22.8319998,19.7583999 22.1839998,20.6655998 L22.1839998,17.6199999 C22.1839998,17.1664 21.9895998,16.7452 21.6007998,16.4536 C21.3091998,16.2268 20.9527998,16.0648 20.5963999,16.0324 C20.4667999,16 20.3695999,16 20.2723999,16 L19.1059999,16 C18.1988,16 17.486,16.7128 17.486,17.6199999 C17.486,18.5271999 18.1988,19.2399999 19.0735999,19.2399999 L20.5639999,19.2399999 L20.5639999,16.6804 C20.8879999,16.7128 21.0175998,16.81 21.1795998,16.972 C21.4063998,17.1664 21.5359998,17.3931999 21.5359998,17.6523999 L21.5359998,21.5403998 L18.296,21.5403998 C17.648,21.5403998 17.1296,22.0587998 17.1296,22.6743997 C17.1296,23.2575997 17.648,23.8083997 18.296,23.8083997 L21.7627998,23.8083997 C21.7627998,23.8407997 21.7951998,23.8731997 21.7951998,23.9055997 C22.2811998,25.2987996 23.6419997,26.2383996 25.0999997,26.2383996 C26.5579996,26.2383996 27.9187996,25.2987996 28.4047996,23.9055997 C28.4047996,23.8731997 28.4371996,23.8407997 28.4371996,23.8083997 L31.9039994,23.8083997 C32.5195994,23.8083997 33.0379994,23.2899997 33.0379994,22.6743997 C33.0379994,22.0263998 32.5195994,21.5079998 31.9039994,21.5079998 Z M31.1263995,16.7452 C31.6771994,16.7452 32.0983994,17.1664 32.0983994,17.7171999 C32.0983994,18.2355999 31.6771994,18.6891999 31.1263995,18.6891999 L30.2839995,18.6891999 L30.2839995,16.7452 L31.1263995,16.7452 Z M19.9159999,18.5919999 L19.0735999,18.5919999 C18.5551999,18.5919999 18.1016,18.1707999 18.1016,17.6199999 C18.1016,17.0692 18.5227999,16.648 19.0735999,16.648 L19.9159999,16.648 L19.9159999,18.5919999 Z M21.5683998,23.1279997 L18.296,23.1279997 C18.1016,23.1279997 17.9072,22.9983997 17.8424,22.8039997 C17.81,22.7391997 17.81,22.7067997 17.81,22.6419997 C17.81,22.5123998 17.8748,22.3827998 17.9396,22.3179998 C17.972,22.2855998 18.0692,22.1883998 18.1988,22.1559998 C18.2312,22.1559998 18.2312,22.1559998 18.2636,22.1559998 L21.5359998,22.1559998 C21.5359998,22.3179998 21.5359998,22.4799998 21.5359998,22.6419997 C21.5359998,22.8039997 21.5359998,22.9659997 21.5683998,23.1279997 Z M27.7891996,23.6787997 C27.3679996,24.8127997 26.2987996,25.5903996 25.0999997,25.5903996 C23.9011997,25.5903996 22.7995998,24.8127997 22.4107998,23.6787997 C22.2811998,23.3547997 22.2487998,23.0307997 22.2487998,22.7067997 C22.2487998,22.3503998 22.3135998,21.9615998 22.4755998,21.6375998 C22.9291998,20.5359998 23.9659997,19.8231999 25.1323997,19.8231999 C26.2987996,19.8231999 27.3679996,20.5359998 27.7891996,21.6375998 C27.9187996,21.9939998 28.0159996,22.3503998 28.0159996,22.7067997 C27.9835996,23.0307997 27.9187996,23.3547997 27.7891996,23.6787997 Z M31.9039994,23.1279997 L28.6315996,23.1279997 C28.6639996,22.9659997 28.6639996,22.8039997 28.6639996,22.6419997 C28.6639996,22.4799998 28.6639996,22.3179998 28.6315996,22.1559998 L31.9039994,22.1559998 C32.1631994,22.1559998 32.3899994,22.3827998 32.3899994,22.6419997 C32.3899994,22.9011997 32.1631994,23.1279997 31.9039994,23.1279997 Z" id="Shape" fill-rule="nonzero"></path>
                <path d="M0.106954712,43.5626531 L18.7324028,19.3506069 M21.2604387,16.0643009 L23.5066585,13.1443401 M31.4077019,2.87342322 L32.8637776,0.980605877" id="Shape" stroke-width="1.5" stroke-linecap="round"></path>
                <path d="M74.7115113,43.5626531 L66.2571226,31.0291119 M61.9855443,24.6965426 L46.1361622,1.20000243" id="Shape" stroke-width="1.5" stroke-linecap="round"></path>
            </g>
            <g id="street" transform="translate(101.000000, 0.000000)">
                <path d="M57.8272944,16.8311497 C57.5007024,16.8311497 57.2440944,16.5745417 57.2440944,16.2479497 C57.2440944,14.533342 56.1593426,13.0053582 54.3397588,12.1538863 C54.0481589,12.0139183 53.9198549,11.6756624 54.0598229,11.3840624 C54.1997909,11.0924625 54.5380468,10.9641585 54.8296468,11.1041265 C57.0691345,12.1422223 58.3988303,14.066782 58.3988303,16.2479497 C58.4104943,16.5745417 58.1422223,16.8311497 57.8272944,16.8311497 Z" id="Path" fill-rule="nonzero"></path>
                <path d="M54.5963668,12.2122063 C54.5147188,12.2122063 54.4330708,12.2005423 54.3514228,12.1538863 C53.6749109,11.8389584 52.928415,11.6756624 52.2052471,11.6756624 C51.4704152,11.6756624 50.7355833,11.8389584 50.0707354,12.1538863 C49.7791355,12.2938543 49.4292155,12.1655503 49.3009115,11.8739503 C49.1609436,11.5823504 49.2892475,11.2324304 49.5808475,11.1041265 C50.3973274,10.7192145 51.3071193,10.5209265 52.2169111,10.5209265 C53.103375,10.5209265 54.0131669,10.7192145 54.8413108,11.1041265 C55.1329107,11.2440944 55.2612147,11.5823504 55.1212467,11.8739503 C55.0279347,12.0839023 54.8179828,12.2122063 54.5963668,12.2122063 Z" id="Path" fill-rule="nonzero"></path>
                <path d="M46.5948639,16.8311497 C46.268272,16.8311497 46.011664,16.5745417 46.011664,16.2479497 C46.011664,14.078446 47.3880158,12.1072303 49.5925115,11.0924625 C49.8841115,10.9641585 50.2340314,11.0924625 50.3623354,11.3840624 C50.5023034,11.6756624 50.3739994,12.0255823 50.0707354,12.1538863 C48.2511517,12.9820302 47.1780638,14.510014 47.1780638,16.2479497 C47.1780638,16.5745417 46.9214559,16.8311497 46.5948639,16.8311497 Z" id="Path" fill-rule="nonzero"></path>
                <path d="M57.8272944,16.8875254 L46.6065279,16.8875254 C46.279936,16.8875254 46.023328,16.6309174 46.023328,16.3043255 C46.023328,15.9777335 46.279936,15.7211255 46.6065279,15.7211255 L57.8272944,15.7211255 C58.1538863,15.7211255 58.4104943,15.9777335 58.4104943,16.3043255 C58.4104943,16.6309174 58.1422223,16.8875254 57.8272944,16.8875254 Z" id="Path" fill-rule="nonzero"></path>
                <path d="M52.2169111,19.395285 C50.5839514,19.395285 49.2425915,18.0655892 49.2425915,16.4209655 C49.2425915,16.0943735 49.4991995,15.8377655 49.8257915,15.8377655 C50.1523834,15.8377655 50.4089914,16.0943735 50.4089914,16.4209655 C50.4089914,17.4124053 51.2138073,18.2288852 52.2169111,18.2288852 C53.208351,18.2288852 54.0248309,17.4240693 54.0248309,16.4209655 C54.0248309,16.0943735 54.2814388,15.8377655 54.6080308,15.8377655 C54.9346228,15.8377655 55.1912307,16.0943735 55.1912307,16.4209655 C55.1795667,18.0539252 53.8498709,19.395285 52.2169111,19.395285 Z" id="Path" fill-rule="nonzero"></path>
                <path d="M54.3164308,12.1188943 C54.2347829,12.1188943 54.1531349,12.0955663 54.0714869,12.0605743 C53.499951,11.7923024 52.858431,11.6406704 52.2169111,11.6406704 C51.6220472,11.6406704 51.0271833,11.7689744 50.4556474,12.0139183 C50.1640474,12.1422223 49.8141275,12.0022543 49.6858235,11.7106544 C49.5575195,11.4190544 49.6974875,11.0691345 49.9890874,10.9408305 C50.7122553,10.6259025 51.4587512,10.4626065 52.2169111,10.4626065 C53.021727,10.4626065 53.8382069,10.6492305 54.5730388,10.9874865 C54.8646388,11.1274545 54.9929427,11.4773744 54.8529748,11.7689744 C54.7363348,11.9905903 54.5380468,12.1188943 54.3164308,12.1188943 Z" id="Path" fill-rule="nonzero"></path>
                <path d="M50.1057274,11.9905903 C49.7791355,11.9905903 49.5225275,11.7339824 49.5225275,11.4073904 L49.5225275,9.86774263 C49.5225275,8.38641483 50.7239193,7.185023 52.2052471,7.185023 C53.6865749,7.185023 54.8879668,8.38641483 54.8879668,9.86774263 L54.8879668,11.3024144 C54.8879668,11.6290064 54.6313588,11.8856143 54.3047668,11.8856143 C53.9781749,11.8856143 53.7215669,11.6290064 53.7215669,11.3024144 L53.7215669,9.86774263 C53.7215669,9.02793474 53.045055,8.35142284 52.2052471,8.35142284 C51.3654393,8.35142284 50.6889273,9.02793474 50.6889273,9.86774263 L50.6889273,11.4073904 C50.6889273,11.7223184 50.4323194,11.9905903 50.1057274,11.9905903 Z" id="Path" fill-rule="nonzero"></path>
                <path d="M65.1872773,19.5955173 C64.8606854,19.5955173 64.6040774,19.3389093 64.6040774,19.0123174 L64.6040774,7.06838302 C64.6040774,3.81412747 61.9563498,1.16639984 58.7020942,1.16639984 C55.4478387,1.16639984 52.8001111,3.81412747 52.8001111,7.06838302 C52.8001111,7.39497497 52.5435031,7.65158294 52.2169111,7.65158294 C51.8903192,7.65158294 51.6337112,7.39497497 51.6337112,7.06838302 C51.6337112,3.17260756 54.8063188,3.51718654e-13 58.7020942,3.51718654e-13 C62.5978697,3.51718654e-13 65.7704773,3.17260756 65.7704773,7.06838302 L65.7704773,19.0123174 C65.7704773,19.3389093 65.5022053,19.5955173 65.1872773,19.5955173 Z" id="Path" fill-rule="nonzero"></path>
                <path d="M65.1172933,47.1342174 C65.1056293,47.1342174 65.1056293,47.1342174 65.1172933,47.1342174 C63.9042375,47.1342174 63.1460776,46.7026495 63.1460776,46.0028096 L63.1460776,20.3536772 C63.1460776,19.2922533 64.0325415,18.4407814 65.1056293,18.4407814 C66.1787172,18.4407814 67.0768451,19.3039173 67.0768451,20.3536772 L67.0768451,46.0028096 C67.0768451,46.7026495 66.3186852,47.1342174 65.1172933,47.1342174 Z M64.3124775,45.8511776 C64.6507334,46.0028096 65.5721893,46.0028096 65.9104452,45.8511776 L65.9104452,20.3536772 C65.9104452,19.9454372 65.5488613,19.6071813 65.1056293,19.6071813 C64.6623974,19.6071813 64.3124775,19.9571012 64.3124775,20.3536772 L64.3124775,45.8511776 Z" id="Shape" fill-rule="nonzero"></path>
                <path d="M69.2696768,47.1458814 L60.9999019,47.1458814 C60.67331,47.1458814 60.416702,46.8892735 60.416702,46.5626815 C60.416702,46.2360896 60.67331,45.9794816 60.9999019,45.9794816 L69.2696768,45.9794816 C69.5962687,45.9794816 69.8528767,46.2360896 69.8528767,46.5626815 C69.8528767,46.8892735 69.5962687,47.1458814 69.2696768,47.1458814 Z" id="Path" fill-rule="nonzero"></path>
                <path d="M66.3653412,40.0891624 L63.8575815,40.0891624 C63.5309896,40.0891624 63.2743816,39.8325545 63.2743816,39.5059625 C63.2743816,39.1793706 63.5309896,38.9227626 63.8575815,38.9227626 L66.3653412,38.9227626 C66.6919331,38.9227626 66.9485411,39.1793706 66.9485411,39.5059625 C66.9485411,39.8325545 66.6802691,40.0891624 66.3653412,40.0891624 Z" id="Path" fill-rule="nonzero"></path>
                <line x1="0.106954712" y1="72.5626531" x2="32.8637776" y2="29.9806059" id="Path-11" stroke-width="1.5" stroke-linecap="round"></line>
                <line x1="74.7115113" y1="72.5626531" x2="46.1361622" y2="30.2000024" id="Path-12" stroke-width="1.5" stroke-linecap="round"></line>
                <path d="M38.9559852,30.2000024 L38.9559852,31.0984368 M38.9559852,35.2199415 L38.9559852,40.5728419 M38.9559852,44.600003 L38.9559852,54.5608291 M38.9559852,58.6860257 L38.9559852,72.5626531" id="Shape" stroke-width="1.5" stroke-linecap="round"></path>
            </g>
            <g id="highway" transform="translate(0.000000, 102.000000)">
                <line x1="0.106954712" y1="43.5626531" x2="32.8637776" y2="0.980605877" id="Path-11" stroke-width="1.5" stroke-linecap="round"></line>
                <line x1="74.7115113" y1="43.5626531" x2="46.1361622" y2="1.20000243" id="Path-12" stroke-width="1.5" stroke-linecap="round"></line>
                <line x1="39.5" y1="44" x2="39.5" y2="1.20000243" id="Path-25" stroke-width="1.5" stroke-linecap="round"></line>
                <path d="M55.9172919,43.5626531 L51.2332434,28.5656727 M50.0759493,24.8603486 L47.1799436,15.5881686 M46.2066009,12.4718043 L44.1228991,5.80038849 M43.3920661,3.46047081 L42.6860478,1.20000243" id="Shape" stroke-linecap="round"></path>
                <path d="M35.9172919,43.5626531 L31.2332434,28.5656727 M30.0759493,24.8603486 L27.1799436,15.5881686 M26.2066009,12.4718043 L24.1228991,5.80038849 M23.3920661,3.46047081 L22.6860478,1.20000243" id="Shape-Copy-7" stroke-linecap="round" transform="translate(29.301670, 22.381328) scale(-1, 1) translate(-29.301670, -22.381328) "></path>
                <rect id="Rectangle" x="63" y="13" width="4" height="8"></rect>
                <rect id="Rectangle-Copy-18" x="10" y="13" width="4" height="8"></rect>
                <rect id="Rectangle" fill="#343741" x="7" y="8" width="63" height="5"></rect>
            </g>
        </g>
    </g>
</svg>