<?xml version="1.0" encoding="UTF-8"?>
<svg width="260px" height="171px" viewBox="0 0 260 171" version="1.1" xmlns="http://www.w3.org/2000/svg" xmlns:xlink="http://www.w3.org/1999/xlink">
    <!-- Generator: Sketch 61.2 (89653) - https://sketch.com -->
    <title>Artboard</title>
    <desc>Created with Sketch.</desc>
    <g id="Artboard" stroke="none" stroke-width="1" fill="none" fill-rule="evenodd">
        <g id="authors" transform="translate(2.000000, 2.000000)">
            <g id="Fabian" transform="translate(0.000000, 0.399999)">
                <path d="M63.3050969,99.5533302 C63.3050969,99.7642795 63.4540441,100.54727 63.7519385,101.902302" id="Path-115" stroke="#FFFFFF" stroke-width="2" stroke-linecap="round"></path>
                <line x1="97.9657958" y1="150.429205" x2="104.898868" y2="97.3598061" id="Path-116" stroke="#FFFFFF" stroke-width="2" stroke-linecap="round"></line>
                <line x1="103.816333" y1="92.940165" x2="124.744995" y2="105.11104" id="Path-117" stroke="#FFFFFF" stroke-width="2" stroke-linecap="round"></line>
                <path d="M62.1238254,95.6085242 C60.3224852,96.62424 58.5793816,97.6103855 56.8945146,98.5669609 C55.1691909,99.5465053 53.3325399,100.600766 51.3845616,101.729742" id="Path-118" stroke="#FFFFFF" stroke-width="2" stroke-linecap="round"></path>
                <path d="M80.7163448,113.872256 L82.5750802,115.49885 C83.5597037,116.360502 85.053057,116.274719 85.9325378,115.305988 L96.7886258,103.348215 L96.7886258,103.348215" id="Path-119" stroke="#FFFFFF" stroke-width="2" stroke-linecap="round"></path>
                <path d="M79.7013009,50.5999971 C78.2061417,54.1728861 77.6497383,56.9996577 78.0320907,59.0803119 C78.4144432,61.1609661 79.5530444,62.3632019 81.4478943,62.6870191" id="Path-120" stroke="#FFFFFF" stroke-width="2" stroke-linecap="round"></path>
                <path d="M71.6185006,64.687019 C69.3364656,66.527966 68.3415929,68.368913 68.6338823,70.20986" id="Path-121" stroke="#FFFFFF" stroke-width="2" stroke-linecap="round"></path>
                <path d="M74.0262214,69.5190578 C74.6338525,68.1222265 75.3517635,67.4875179 76.1799542,67.6149318 C77.4222403,67.8060528 77.3012745,70.1096711 78.2837609,70.3763524 C79.2662472,70.6430336 80.8433196,68.9956421 81.8152195,68.9956421 C82.4631528,68.9956421 82.824745,69.4003814 82.899996,70.20986" id="Path-122" stroke="#FFFFFF" stroke-width="2" stroke-linecap="round"></path>
                <path d="M86.7341556,68.8291497 C87.3936273,67.3706657 87.9239749,66.5611871 88.3251987,66.4007139 C88.9270342,66.1600042 89.5815719,67.4484395 90.1862826,67.4484395 C90.7909932,67.4484395 90.5618721,66.4007139 91.0083372,66.4007139 C91.3059805,66.4007139 91.6216833,66.7499558 91.9554456,67.4484395" id="Path-123" stroke="#FFFFFF" stroke-width="2" stroke-linecap="round"></path>
                <path d="M59.2455758,61.2870191 C56.7181856,60.4254897 53.3812575,59.5502497 51.8768984,57.0319642 C51.233308,55.9545988 50.9419031,48.5679238 53.2473248,47.3956411 C55.3168899,46.3432889 57.0233506,46.8066493 58.3667069,48.7857221" id="Path-124" stroke="#FFFFFF" stroke-width="2" stroke-linecap="round"></path>
                <path d="M103.816333,47.0791697 C104.5953,45.4715461 105.742315,44.6677343 107.257377,44.6677343 C109.106388,44.6677343 111.048663,47.2922107 111.458041,50.4347861 C112.131411,55.6038836 110.373933,58.7170811 106.185608,59.7743787" id="Path-125" stroke="#FFFFFF" stroke-width="2" stroke-linecap="round"></path>
                <path d="M86.4244898,39.8593598 C87.6120285,39.4007963 88.5230203,39.1715145 89.157465,39.1715145 C89.7919097,39.1715145 90.7029015,39.4007963 91.8904402,39.8593598" id="Path-126" stroke="#FFFFFF" stroke-width="2" stroke-linecap="round"></path>
                <path d="M68.8244909,39.8593598 C70.0120297,39.4007963 70.9230214,39.1715145 71.5574661,39.1715145 C72.1919108,39.1715145 73.1029026,39.4007963 74.2904413,39.8593598" id="Path-126-Copy" stroke="#FFFFFF" stroke-width="2" stroke-linecap="round"></path>
                <path d="M59.3171849,43.8584101 C56.8675288,39.3909104 56.1048804,35.4287231 57.0292398,31.9718483 C57.7000701,29.4631092 59.1758961,27.039132 61.456718,24.6999167" id="Path-127" stroke="#FFFFFF" stroke-width="2" stroke-linecap="round"></path>
                <path d="M67.8244909,21.0898177 C68.3130447,24.1984962 69.2240364,26.0083399 70.5574661,26.5193487 C71.8908958,27.0303575 74.44226,26.5473887 78.2115588,25.0704425 C79.977432,26.8117557 81.6562105,27.2947244 83.2478942,26.5193487 C84.839578,25.7439729 87.3500951,23.2202231 90.7794458,18.9480991" id="Path-128" stroke="#FFFFFF" stroke-width="2" stroke-linecap="round"></path>
                <path d="M96.5012876,20.4181292 C96.1424832,21.5083565 95.7684514,22.3372647 95.3791923,22.9048539 C94.9899333,23.4724431 94.2270159,24.3013513 93.0904401,25.3915786" id="Path-129" stroke="#FFFFFF" stroke-width="2" stroke-linecap="round"></path>
                <path d="M101.625266,24.6355135 C103.203188,26.8121334 104.133543,28.6814831 104.416332,30.2435627 C104.780596,32.2556925 104.37785,35.4562876 103.208094,39.8453483" id="Path-130" stroke="#FFFFFF" stroke-width="2" stroke-linecap="round"></path>
                <path d="M52.9373626,46.4097224 C52.1158552,37.646404 51.6091649,32.2155255 51.4172916,30.1170868" id="Path" stroke="#FFFFFF" stroke-width="2" stroke-linecap="round"></path>
                <path d="M50.8718795,23.8203869 C52.3373341,18.0499471 45.7241678,20.2153493 55.9006349,12.4632736 C66.077102,4.71119785 68.9691839,0.829559229 82.0478943,0.0715922446 C92.5146982,-0.535003636 99.8597641,2.8196926 106.563215,6.1012209 C108.236007,6.92009979 109.98595,4.0462022 111.597939,5.40535498 C112.994545,6.58290688 110.817815,9.31925606 111.597939,10.569364 C112.19148,11.5204826 115.359195,8.40274179 115.811011,9.32456795 C116.822432,11.3881383 113.883494,14.240178 113.758281,17.1480992 C113.588046,21.1016165 115.956149,25.2525255 115.811011,28.539056 C115.569505,34.0077482 112.868213,39.3839743 107.707136,44.6677343" id="Path" stroke="#FFFFFF" stroke-width="2" stroke-linecap="round"></path>
                <path d="M60.5185156,62.9707462 L58.4496441,69.8886434 C58.2597567,70.523598 58.6205525,71.192266 59.2555064,71.3821558 C59.3171713,71.4005973 59.38022,71.4140478 59.4440422,71.422377 C60.1603578,71.5158605 60.5185156,71.8770765 60.5185156,72.5060249 C60.5185156,73.3089302 59.9348381,75.906779 58.767483,80.2995713 C58.6704185,80.664875 58.8878574,81.0397056 59.2531581,81.1367818 C59.508736,81.2046999 59.7805733,81.1192972 59.9513898,80.9174193 C60.3073009,80.4967891 60.9368119,80.4443239 61.3574421,80.800235 C61.6014024,81.006659 61.7317114,81.3174586 61.7079143,81.6361453 L61.0424333,90.5481604 C60.9980675,91.1423002 61.4437474,91.6599113 62.0378872,91.7042771 C62.5078628,91.7393713 62.9462223,91.4653225 63.120515,91.0274519 L63.4441265,90.2144516 C63.8117743,89.2908203 64.8585628,88.8401065 65.7821941,89.2077543 C66.3529168,89.4349282 66.7683864,89.9374634 66.8842177,90.5407175 L68.4671295,98.784586 C68.6545855,99.7608645 69.5979789,100.400332 70.5742574,100.212876 C71.1364123,100.104936 71.6137117,99.736049 71.8598845,99.2192627 L75.8089218,90.9291163 C76.2364431,90.031628 77.3105756,89.6506446 78.2080639,90.0781659 C78.6846639,90.3051958 79.0375746,90.7300033 79.1733845,91.2401463 L81.1358941,98.6119306 C81.3916383,99.5725838 82.3777232,100.144025 83.3383764,99.8882812 C83.8761679,99.7451108 84.3174922,99.3612299 84.533793,98.8484614 L86.982196,93.0442124 C87.3685726,92.1282578 88.4243206,91.69895 89.3402752,92.0853266 C89.7511831,92.2586596 90.0831145,92.5783617 90.2717433,92.9824766 L91.4304021,95.464766 C91.8508744,96.3655782 92.9219871,96.7549707 93.8227994,96.3344983 C94.3975513,96.0662212 94.7886824,95.5152454 94.85237,94.8841698 L95.3414998,90.0374184 C95.4413177,89.0483299 96.3240507,88.3274337 97.3131392,88.4272516 C97.8887642,88.4853431 98.401381,88.8165796 98.6908675,89.3174951 L98.8122046,89.527452 C99.2355756,90.2600358 100.172662,90.5107023 100.905246,90.0873313 C101.383221,89.8111023 101.675622,89.2990816 101.670642,88.7470506 L101.59306,80.1472962 C101.589338,79.7347212 101.920779,79.3972458 102.333354,79.3935239 C102.634488,79.3908072 102.907809,79.5691626 103.02659,79.8458937 C103.193133,80.2339013 103.642686,80.4134333 104.030694,80.2468897 C104.311592,80.1263205 104.493673,79.8500207 104.493673,79.5443398 L104.493673,67.0815946 C104.493673,66.7482973 104.763864,66.4781063 105.097161,66.4781063 C105.25946,66.4781063 105.414919,66.5434781 105.528444,66.659465 C105.76158,66.8976559 106.143665,66.9017538 106.381856,66.6686181 C106.497843,66.5550927 106.563215,66.3996345 106.563215,66.2373355 L106.563215,59.7743787 L106.563215,59.7743787" id="Path-132" stroke="#FFFFFF" stroke-width="2" stroke-linecap="round" stroke-linejoin="round"></path>
                <path d="M71.4999999,49.0807754 C72.8807118,49.0807754 73.9999999,48.7045701 73.9999999,47.6000006 C73.9999999,46.4954311 72.8807118,45.6000006 71.4999999,45.6000006 C70.119288,45.6000006 68.9999999,46.4954311 68.9999999,47.6000006 C68.9999999,48.7045701 70.119288,49.0807754 71.4999999,49.0807754 Z" id="Oval" fill="#FFFFFF" fill-rule="nonzero" transform="translate(71.500000, 47.340388) rotate(90.000000) translate(-71.500000, -47.340388) "></path>
                <path d="M87.4999999,49.0807754 C88.8807118,49.0807754 89.9999999,48.7045701 89.9999999,47.6000006 C89.9999999,46.4954311 88.8807118,45.6000006 87.4999999,45.6000006 C86.119288,45.6000006 84.9999999,46.4954311 84.9999999,47.6000006 C84.9999999,48.7045701 86.119288,49.0807754 87.4999999,49.0807754 Z" id="Oval-Copy-9" fill="#FFFFFF" fill-rule="nonzero" transform="translate(87.500000, 47.340388) rotate(90.000000) translate(-87.500000, -47.340388) "></path>
                <path d="M77.1139004,72.9796692 C78.2679694,73.1399808 79.2587183,73.2201366 80.0861469,73.2201366 C80.9135755,73.2201366 81.9894491,73.1399808 83.3137676,72.9796692" id="Path-155" stroke="#FFFFFF" stroke-width="2" stroke-linecap="round"></path>
                <path d="M2.55532822,105.600001 L74.2934137,105.600001 C75.539887,105.600001 76.5788846,106.554207 76.6847432,107.796177 L81.1156083,159.780667 L81.1156083,159.780667 L3.4000001,159.780667 L0.160039741,108.150312 C0.0770249539,106.827431 1.08213535,105.687727 2.40501665,105.604712 C2.45505899,105.601572 2.50518745,105.600001 2.55532822,105.600001 Z" id="Path-158" stroke="#FFFFFF" stroke-width="2"></path>
                <line x1="81.1156083" y1="159.780667" x2="91.9554456" y2="159.780667" id="Path-163" stroke="#FFFFFF" stroke-width="2" stroke-linecap="round"></line>
            </g>
            <g id="Matej" transform="translate(131.599993, 2.508136)">
                <path d="M0.497826627,103.362561 C9.5458852,94.5052727 17.6686747,91.8554766 24.8661951,95.4131724 C32.0637154,98.9708681 42.0305655,110.562276 54.7667453,130.187396 C51.7272638,136.188747 48.2140309,140.614789 44.2270467,143.465525 C38.2465703,147.741628 35.0703411,151.98815 20.2774761,143.976817 C10.4155661,138.635929 4.32974307,129.81877 2.02000705,117.52534" id="Path-148" stroke="#FFFFFF" stroke-width="1.79999995" stroke-linecap="round"></path>
                <path d="M39.215253,147.658186 C43.9022474,153.863945 49.4146463,158.171924 55.7524499,160.582121 C60.7360313,162.477322 65.1472744,164.713046 69.8856724,163.424472 C74.1862668,162.254955 76.387003,158.297824 79.7174734,152.597328 C83.5524739,146.033269 85.4879577,134.71346 85.0313102,118.649109 C84.9652913,116.326638 85.2824245,112.946777 85.9827097,108.509527 C89.3100063,107.974321 92.2012824,107.064513 94.656538,105.780102 C98.3394214,103.853485 101.852961,101.198866 102.834076,100.124874 C103.488153,99.4088792 103.712505,98.0644797 103.507132,96.0916753" id="Path-149" stroke="#FFFFFF" stroke-width="1.79999995" stroke-linecap="round"></path>
                <path d="M98.8241199,98.9999189 C101.745263,97.3042908 103.593662,95.8233783 104.369316,94.5571814 C105.144971,93.2909845 105.473994,91.2174214 105.356387,88.336492" id="Path-150" stroke="#FFFFFF" stroke-width="1.79999995" stroke-linecap="round"></path>
                <path d="M53.876409,133.408776 C56.1086411,134.435041 57.92952,135.37889 59.3390457,136.240322 C60.7485714,137.101753 62.0164549,138.045602 63.1426963,139.071867" id="Path-151" stroke="#FFFFFF" stroke-width="1.79999995" stroke-linecap="round"></path>
                <path d="M63.1426963,139.071867 C62.306675,137.18417 62.306675,134.699642 63.1426963,131.618282 C63.7025682,129.554738 67.6738551,124.994492 71.0561977,117.624599 C72.1683947,115.201198 73.5132923,110.868468 75.0908907,104.626408 C75.3016553,97.4600642 75.9326418,92.4304541 76.98385,89.5375781 C78.0350582,86.6447022 80.2336684,83.8873944 83.5796807,81.2656549 C87.4025874,79.9929091 90.1659462,78.6704345 91.8697571,77.298231 C93.4508029,76.0248992 96.6931848,70.6792401 96.9425369,70.6792401 C97.8448099,70.6792401 98.5561702,71.5686132 98.9597856,72.7733472" id="Path-152" stroke="#FFFFFF" stroke-width="1.79999995" stroke-linecap="round"></path>
                <path d="M100.260862,92.4732613 C103.432498,90.4808755 105.262761,88.8621581 105.75165,87.617109 C106.009085,86.9615005 106.166628,85.6534262 105.75165,84.7362903 C105.502919,84.1865748 105.147518,83.755087 104.685447,83.4418269" id="Path-153" stroke="#FFFFFF" stroke-width="1.79999995" stroke-linecap="round"></path>
                <path d="M102.191423,68.3628997 L102.145645,57.1341436 L96.4161341,57.1341436 L97.9947082,93.9558001 C97.9788509,95.0589755 98.8602964,95.9661307 99.9634719,95.9821943 C99.9839176,95.9821943 100.004367,95.9821943 100.024812,95.9821943 C101.149293,95.9635594 102.045975,95.0370965 102.027607,93.9126149 C102.027479,93.9047748 102.027305,93.8969354 102.027087,93.8890973 L102.191423,68.3628997 Z" id="Path" stroke="#FFFFFF" stroke-width="1.79999995" transform="translate(99.303779, 76.558169) rotate(34.000000) translate(-99.303779, -76.558169) "></path>
                <line x1="105.575354" y1="63.7300983" x2="110.43366" y2="64.1991514" id="Path-157" stroke="#FFFFFF" stroke-width="1.79999995" transform="translate(108.004507, 63.964625) rotate(28.000000) translate(-108.004507, -63.964625) "></line>
                <path d="M100.286686,80.3668402 C100.754621,79.819825 101.456523,78.9993022 102.392392,77.9052719 C104.023851,75.4289338 108.380103,68.6359187 108.81297,68.054713 C110.529646,65.7497536 112.5684,68.2088817 112.447278,69.1070249 C112.207796,70.8828326 110.604767,72.8360486 109.668055,74.6777646 C107.859799,78.2330699 106.087735,81.176651 105.659812,81.6354589 C104.419234,82.9655743 102.50067,84.6707808 99.9041198,86.7510785" id="Path" stroke="#FFFFFF" stroke-width="1.79999995" stroke-linecap="round"></path>
                <path d="M112.034459,61.7208754 C117.333103,60.0464803 120.722774,57.1002667 122.203471,52.8822345 C124.073365,47.5555042 119.982426,42.9737482 118.464639,41.4039036 C117.546807,40.4545919 116.744063,38.9469165 116.056407,36.8808775 C112.003856,40.1909049 109.355607,43.6616289 108.111659,47.2930495 C106.867711,50.9244702 106.909738,54.8965479 108.237739,59.2092828" id="Path-131" stroke="#FFFFFF" stroke-width="1.79999995"></path>
                <polyline id="Path-137" stroke="#FFFFFF" stroke-width="2" stroke-linecap="round" stroke-linejoin="round" points="44.6110069 72.399639 46.6063991 75.8766988 48.6000001 75.399639 50.1381513 77.5376864 51.8251235 75.399639 53.8674827 76.4327681 56.160595 73.8159323 58.6000001 75.3250841 60.4294184 72.5498912 63.0174164 74.5498912 63.7213052 71.4445696 65.3828417 69.8550423 65.3828417 65.2007873 66.2658055 64.5152847 66.2658055 59.9601165"></polyline>
                <line x1="42.3105036" y1="62.6517667" x2="42.5950019" y2="64.4662114" id="Path-159" stroke="#FFFFFF" stroke-width="2" stroke-linecap="round"></line>
                <line x1="46.3105036" y1="59.6517667" x2="46.9196521" y2="61.4821294" id="Path-159-Copy" stroke="#FFFFFF" stroke-width="2" stroke-linecap="round"></line>
                <line x1="49.584706" y1="58.1513476" x2="50.7975509" y2="59.9601165" id="Path-160" stroke="#FFFFFF" stroke-width="2" stroke-linecap="round"></line>
                <line x1="55.0404851" y1="56.3736744" x2="55.6909416" y2="58.055732" id="Path-161" stroke="#FFFFFF" stroke-width="2" stroke-linecap="round"></line>
                <path d="M59.8166826,55.5867342 C60.3354275,56.5358195 60.6653838,57.3588188 60.8065516,58.055732" id="Path-162" stroke="#FFFFFF" stroke-width="2" stroke-linecap="round"></path>
                <path d="M22.4254536,24.2444504 C22.3882991,23.48937 22.9688126,22.7734614 24.1669941,22.0967247 C25.9642664,21.0816196 25.5532063,20.5646266 29.3916157,20.30994 C33.2300251,20.0552535 32.5016162,20.6493258 38.3757484,21.1539439 C44.2498805,21.6585619 49.0710143,21.9360333 50.1911284,22.0967247 C51.3112426,22.257416 53.7679665,23.0413763 55.7375087,23.2834421 C57.8420676,23.542102 59.4324094,23.2523179 59.6000001,23.1935158 C63.1793603,21.9376345 62.4793603,18.4352791 57.5,12.6864497" id="Path" stroke="#FFFFFF" stroke-width="2" stroke-linecap="round"></path>
                <path d="M60.8116171,10.7425379 L64.5,10.7425379 C62.6335682,7.0775855 63.7765214,4.99136626 50.1911284,1.99979335 C41.1341998,0.0054114032 34.231821,-0.497231652 20.4710764,0.491864179" id="Path" stroke="#FFFFFF" stroke-width="2" stroke-linecap="round" stroke-linejoin="round"></path>
                <path d="M49.7113665,98.8955807 C54.0108521,96.7274367 56.7467883,95.9748736 57.9191749,96.6378914 C59.0915616,97.3009092 62.6124191,101.197225 68.4817474,108.326839 C63.6800765,98.6144752 60.4016981,92.1430475 58.6466123,88.9125554 C56.8915264,85.6820633 53.6798248,83.0360613 49.0115075,80.9745496" id="Path-135" stroke="#FFFFFF" stroke-width="2" stroke-linecap="round" stroke-linejoin="round"></path>
                <path d="M46.0518525,76.7380316 C47.1485748,80.8684455 50.1198167,98.0501238 48.8114771,105.441504" id="Path" stroke="#FFFFFF" stroke-width="2" stroke-linecap="round" stroke-linejoin="round"></path>
                <path d="M43.6083343,107.523415 C43.6021034,107.516747 36.5320243,100.835593 22.398097,87.4799533 L19.9096549,71.5498912 C12.8528918,79.5633109 9.08550204,84.0489841 8.60748558,85.0069105 C8.06429318,86.0954471 7.70181882,88.1961362 7.54651877,90.9447224" id="Path" stroke="#FFFFFF" stroke-width="2" stroke-linecap="round" stroke-linejoin="round"></path>
                <ellipse id="Oval" fill="#FFFFFF" fill-rule="nonzero" transform="translate(55.100000, 39.491864) rotate(-10.000000) translate(-55.100000, -39.491864) " cx="55.1000001" cy="39.4918642" rx="1.5" ry="3"></ellipse>
                <ellipse id="Oval-Copy-8" fill="#FFFFFF" fill-rule="nonzero" transform="translate(42.100000, 44.491864) rotate(-10.000000) translate(-42.100000, -44.491864) " cx="42.1000001" cy="44.4918642" rx="1.5" ry="3"></ellipse>
                <path d="M35.8763791,38.7917556 C36.9424167,37.6964464 37.9161114,36.973693 38.797463,36.6234955 C39.6788146,36.2732979 41.1325092,36.0315488 43.1585469,35.8982481" id="Path-138" stroke="#FFFFFF" stroke-width="2" stroke-linecap="round" stroke-linejoin="round"></path>
                <path d="M51.5723647,32.2824029 C52.6546465,31.4651398 53.5227985,30.9616898 54.1768207,30.7720528 C54.8308429,30.5824158 55.6989949,30.5824158 56.7812767,30.7720528" id="Path-139" stroke="#FFFFFF" stroke-width="2" stroke-linecap="round" stroke-linejoin="round"></path>
                <path d="M53.0404851,47.6711477 C54.0906734,49.0927155 54.6877664,50.2394433 54.8317641,51.1113311 C54.9757618,51.9832189 54.6843692,52.6484432 53.9575861,53.1070042" id="Path-140" stroke="#FFFFFF" stroke-width="2" stroke-linecap="round" stroke-linejoin="round"></path>
                <path d="M52.6179801,63.6164261 C53.2057408,63.5626222 53.7680893,63.4657126 54.3050256,63.3256971 C55.0999913,63.118396 55.9506618,62.7694355 56.8570373,62.2788156" id="Path-141" stroke="#FFFFFF" stroke-width="2" stroke-linecap="round" stroke-linejoin="round"></path>
                <path d="M0.75892075,19.5739854 L4.79616347e-14,16.8399626 L5.21852882,14.4918642 L2.33740876,12.3936489 L3.2538601,7.20824073 L6.61452282,11.2969048 C5.46599002,8.17868822 10.2493552,4.577008 20.9646185,0.491864179" id="Path-144" stroke="#FFFFFF" stroke-width="2" stroke-linecap="round" stroke-linejoin="round"></path>
                <path d="M20.230085,28.2824029 C20.5514069,32.3787725 20.5514069,35.8025225 20.230085,38.553653 C19.9087632,41.3047834 18.9777923,45.8519269 17.4371725,52.1950833 C14.6624025,48.6026971 12.0744991,47.3347186 9.67346224,48.3911477 C6.32443296,49.8646827 6.88382833,55.0211819 8.60748558,59.9022107 C10.3311428,64.7832395 14.6269863,64.5609896 17.9272976,67.5494958 C19.0068067,68.5270155 19.6675925,69.8604807 19.9096549,71.5498912" id="Path-146" stroke="#FFFFFF" stroke-width="2" stroke-linecap="round" stroke-linejoin="round"></path>
                <path d="M1,20.2257307 C0.765877875,27.9155729 1.10074951,34.1634343 2.00461492,38.9693148 C2.90848033,43.7751953 4.53373346,47.9493785 6.88037432,51.4918642" id="Path-2" stroke="#FFFFFF" stroke-width="2" stroke-linecap="round"></path>
                <path d="M66.2658055,55.802445 C65.904295,49.5826827 65.6305246,44.4583345 65.4444943,40.4294003 C65.4024805,39.519489 64.487745,32.8922035 64.5,31.0935841 C64.5075127,29.9909759 64.5667123,28.0225998 64.6775989,25.1884557" id="Path-3" stroke="#FFFFFF" stroke-width="2" stroke-linecap="round"></path>
            </g>
        </g>
    </g>
</svg>