<?xml version="1.0" encoding="UTF-8"?>
<svg width="182px" height="143px" viewBox="0 0 182 143" version="1.1" xmlns="http://www.w3.org/2000/svg" xmlns:xlink="http://www.w3.org/1999/xlink">
    <!-- Generator: Sketch 63.1 (92452) - https://sketch.com -->
    <title>graphics</title>
    <desc>Created with Sketch.</desc>
    <g id="Charts-remake" stroke="none" stroke-width="1" fill="none" fill-rule="evenodd">
        <g id="graphics" transform="translate(1.000000, 1.000000)" stroke="#FFFFFF" stroke-width="1.80000007">
            <g id="figure_1" transform="translate(21.600001, 0.000000)">
                <line x1="45.2592036" y1="15.1200012" x2="45.2592036" y2="47.0736037" id="Path" stroke-linecap="round" stroke-linejoin="round"></line>
                <line x1="3.7296003" y1="47.0736037" x2="3.7296003" y2="15.1200012" id="Path" stroke-linecap="round" stroke-linejoin="round"></line>
                <polygon id="Path" stroke-linecap="round" stroke-linejoin="round" points="9.27360074 -6.39488488e-15 39.7296032 -6.39488488e-15 48.9888039 14.8320012 32.3568026 14.8320012 24.4944019 7.37280059 16.6320013 14.8320012 -1.36424211e-13 14.8320012"></polygon>
                <path d="M19.1088015,47.0736037 L19.1088015,35.3808028 C19.1088015,32.5584026 21.5424017,30.2400024 24.5088019,30.2400024 L24.5088019,30.2400024 C27.4752022,30.2400024 29.9088024,32.5584026 29.9088024,35.3808028 L29.9088024,47.0736037" id="Path" stroke-linecap="round" stroke-linejoin="round"></path>
                <polygon id="Path" stroke-linecap="round" stroke-linejoin="round" points="9.15840073 21.0240017 13.5936011 21.0240017 13.5936011 27.3024022 9.15840073 27.3024022"></polygon>
                <polygon id="Path" stroke-linecap="round" stroke-linejoin="round" points="9.15840073 33.2640026 13.5936011 33.2640026 13.5936011 41.1696033 9.15840073 41.1696033"></polygon>
                <polygon id="Path" stroke-linecap="round" stroke-linejoin="round" points="35.3952028 33.2640026 39.8304032 33.2640026 39.8304032 41.1696033 35.3952028 41.1696033"></polygon>
                <polygon id="Path" stroke-linecap="round" stroke-linejoin="round" points="35.3952028 21.0240017 39.8304032 21.0240017 39.8304032 27.3024022 35.3952028 27.3024022"></polygon>
                <path d="M24.4944019,20.6672012 C26.3952021,20.6672012 27.9360022,22.2080014 27.9360022,24.1088015 C27.9360022,26.0096017 26.3952021,27.5504018 24.4944019,27.5504018 C22.5936018,27.5504018 21.0528017,26.0096017 21.0528017,24.1088015 C21.0528017,22.2080014 22.5936018,20.6672012 24.4944019,20.6672012 L24.4944019,20.6672012 Z" id="Path"></path>
                <line x1="0.892800071" y1="47.0736037" x2="48.0960038" y2="47.0736037" id="Path" stroke-linecap="round" stroke-linejoin="round"></line>
            </g>
            <g id="figure_2" transform="translate(117.400005, 3.400000)" stroke-linejoin="round">
                <path d="M7.40000033,41.0000017 L7.40000033,38.6000016 C7.40000033,37.2752015 8.47520038,36.2000015 9.80000043,36.2000015 L14.6000006,36.2000015 C15.9248007,36.2000015 17.0000007,37.2752015 17.0000007,38.6000016 L17.0000007,41.0000017" id="Stroke-1"></path>
                <path d="M21.8000009,41.0000017 L21.8000009,38.6000016 C21.8000009,37.2752015 22.8752009,36.2000015 24.200001,36.2000015 L29.0000012,36.2000015 C30.3248012,36.2000015 31.4000013,37.2752015 31.4000013,38.6000016 L31.4000013,41.0000017" id="Stroke-3"></path>
                <path d="M36.2000015,41.0000017 L36.2000015,38.6000016 C36.2000015,37.2752015 37.2752015,36.2000015 38.6000016,36.2000015 L43.4000018,36.2000015 C44.7248018,36.2000015 45.8000019,37.2752015 45.8000019,38.6000016 L45.8000019,41.0000017" id="Stroke-5"></path>
                <path d="M0.200000048,48.200002 L0.200000048,45.8000019 C0.200000048,44.4752018 1.27520009,43.4000018 2.60000014,43.4000018 L7.40000033,43.4000018 C8.72480039,43.4000018 9.80000043,44.4752018 9.80000043,45.8000019 L9.80000043,48.200002" id="Stroke-7"></path>
                <path d="M14.6000006,48.200002 L14.6000006,45.8000019 C14.6000006,44.4752018 15.6752007,43.4000018 17.0000007,43.4000018 L21.8000009,43.4000018 C23.124801,43.4000018 24.200001,44.4752018 24.200001,45.8000019 L24.200001,48.200002" id="Stroke-9"></path>
                <path d="M29.0000012,48.200002 L29.0000012,45.8000019 C29.0000012,44.4752018 30.0752012,43.4000018 31.4000013,43.4000018 L36.2000015,43.4000018 C37.5248015,43.4000018 38.6000016,44.4752018 38.6000016,45.8000019 L38.6000016,48.200002" id="Stroke-11"></path>
                <path d="M43.4000018,48.200002 L43.4000018,45.8000019 C43.4000018,44.4752018 44.4752018,43.4000018 45.8000019,43.4000018 L50.6000021,43.4000018 C51.9248021,43.4000018 53.0000021,44.4752018 53.0000021,45.8000019 L53.0000021,48.200002" id="Stroke-13"></path>
                <polygon id="Stroke-15" points="1.4000001 30.2000012 51.8000021 30.2000012 51.8000021 0.200000048 1.4000001 0.200000048"></polygon>
                <polygon id="Stroke-17" points="23.000001 9.80000043 23.000001 21.8000009 32.6000013 15.8000007"></polygon>
            </g>
            <g id="figure_3" transform="translate(0.000000, 75.471202)" stroke-linecap="round">
                <polyline id="Path" points="29.1600012 32.3833522 29.1600012 0.648000034 64.152003 0.648000034 64.152003 52.4880007 42.5170437 52.4880007"></polyline>
                <path d="M9.72000013,38.4449388 L9.72000013,21.3840009 C9.72000013,17.8051958 12.6211951,14.9040008 16.2000002,14.9040008 L29.1600004,14.9040008 L29.1600004,14.9040008 L29.1600004,32.3717275" id="Path"></path>
                <polyline id="Path" points="20.7505148 33.0480018 16.2000005 33.0480018 16.2000005 21.3840011 23.9760009 21.3840011 23.9760009 31.3288012"></polyline>
                <path d="M84.2400011,52.4880028 L64.8000009,52.4880028 L64.8000009,21.3840011 C64.8000009,17.8051958 67.7011958,14.9040008 71.2800012,14.9040008 L84.2400011,14.9040008 L84.2400011,14.9040008" id="Path" transform="translate(74.520001, 33.696002) scale(-1, 1) translate(-74.520001, -33.696002) "></path>
                <rect id="Rectangle" transform="translate(73.872001, 27.216001) scale(-1, 1) translate(-73.872001, -27.216001) " x="69.9840004" y="21.3840011" width="7.77600041" height="11.6640006"></rect>
                <rect id="Rectangle-Copy-20" transform="translate(73.872001, 42.768002) scale(-1, 1) translate(-73.872001, -42.768002) " x="69.9840004" y="36.936002" width="7.77600041" height="11.6640006"></rect>
                <circle id="Oval" cx="46.6560021" cy="20.7360011" r="7.12800038"></circle>
                <polyline id="Path" points="36.0720018 36.1096085 36.0720018 33.0480018 57.6720027 33.0480018 57.6720027 52.4880028 41.8958482 52.4880028"></polyline>
                <polyline id="Path-26" points="46.6560021 16.763213 46.6560021 21.4420613 42.7923661 21.4420613"></polyline>
                <line x1="29.1600012" y1="9.38825593" x2="64.152003" y2="9.38825593" id="Path-27"></line>
                <line x1="24.8025894" y1="0.648000034" x2="68.2502134" y2="0.648000034" id="Path-29"></line>
                <line x1="51.3926224" y1="41.6508936" x2="51.3926224" y2="45.8431838" id="Path-30"></line>
                <path d="M9.72485987,57.0012649 L2.14909197,53.2143529 C0.832031989,52.555337 1.44950724e-13,51.209117 1.44950724e-13,49.735565 L1.44950724e-13,45.794105 C1.44950724e-13,44.3215251 0.832031989,42.9743331 2.14909197,42.3172611 L23.0986077,31.8420172 C24.4671837,31.1577292 26.0777877,31.1577292 27.4453916,31.8420172 L43.1781834,39.7084131 C44.6118834,40.4247771 44.6118834,42.4698651 43.1781834,43.1852571 L22.2306117,53.6595289 C21.6960117,53.9268289 21.0690717,53.9336329 20.5286397,53.6779969 L4.30401594,45.992393 C3.65957995,45.687185 2.91599996,46.157633 2.91599996,46.871081 L2.91599996,49.796801" id="Stroke-1"></path>
                <path d="M26.1762513,60.4345633 L22.2532593,62.3970312 C21.7060233,62.6701632 21.0615873,62.6701632 20.5143513,62.3970312 L15.5571514,59.9174593" id="Stroke-3"></path>
                <line x1="44.7120966" y1="51.167321" x2="25.3250522" y2="60.8807912" id="Stroke-5"></line>
                <line x1="42.7923661" y1="45.8431838" x2="42.7680966" y2="49.9047038" id="Stroke-7"></line>
                <polygon id="Stroke-9" stroke-linejoin="round" points="15.552097 65.5726524 12.636097 62.1434364 9.72009707 62.6012484 9.72009707 52.8812486 15.552097 55.8526525"></polygon>
            </g>
            <g id="figure_4" transform="translate(112.800004, 75.600003)">
                <circle id="Oval" cx="17.9205604" cy="17.2200004" r="10.5000002"></circle>
                <rect id="Rectangle" x="42.700561" y="7.56000017" width="24.3600006" height="16.8000004"></rect>
                <circle id="Oval-Copy-21" cx="18.3405604" cy="16.8000004" r="16.8000004"></circle>
                <line x1="-5.1159079e-14" y1="46.2160251" x2="65.4855615" y2="46.2160251" id="Path-44"></line>
                <path d="M30.7015807,61.5190814 L30.7015807,40.8184272 C30.9393099,38.5532271 32.2502732,37.4206271 34.6344707,37.4206271 C37.0186681,37.4206271 38.3296315,38.5532271 38.5673607,40.8184272 L38.5673607,46.2160251" id="Path-45"></path>
                <path d="M44.141581,61.5190814 L44.141581,40.8184272 C44.3793102,38.5532271 45.6902735,37.4206271 48.074471,37.4206271 C50.4586684,37.4206271 51.7696318,38.5532271 52.007361,40.8184272 L52.007361,46.2160251" id="Path-45-Copy"></path>
                <line x1="30.7015807" y1="52.1216891" x2="44.141581" y2="52.1216891" id="Path-46"></line>
                <path d="M-5.1159079e-14,57.0279672 L4.45545919,58.9440316 C5.34768549,59.3277324 6.36229655,59.3065851 7.23776018,58.8860409 L10.1704366,57.4772785 C11.082381,57.0392101 12.1431699,57.0353745 13.0582583,57.4668367 L15.5798018,58.6557389 C16.4845782,59.0823389 17.5323831,59.0836272 18.4382058,58.6592533 L21.510937,57.2196922 C22.4467629,56.7812619 23.5322855,56.7978675 24.454263,57.2647171 L26.5459101,58.323837 C27.5144743,58.8142761 28.6603224,58.8065064 29.6221466,58.3029777 L32.0095793,57.0531228 C32.9332655,56.5695599 34.029098,56.542189 34.9757736,56.9790353 L37.6578768,58.2166999 C38.6410689,58.6703969 39.7826534,58.622457 40.7243457,58.087926 L42.661658,56.9882532 C43.6884026,56.4054442 44.9456938,56.4042756 45.97352,56.9851751 L47.941952,58.0976794 C49.0369377,58.7165356 50.3858652,58.672014 51.4376614,57.982303 L52.9158132,57.0130109 C53.9178767,56.3559118 55.1940515,56.2822109 56.2650975,56.819585 L59.3723547,58.3785839 C60.2649878,58.8264432 61.3105882,58.8540119 62.2255814,58.4538133 L65.4855615,57.0279672 L65.4855615,57.0279672" id="Path-47"></path>
                <line x1="44.935801" y1="12.3421203" x2="63.7064169" y2="12.3362403" id="Path-48"></line>
                <line x1="44.935801" y1="15.7021204" x2="63.7064169" y2="15.6962404" id="Path-48-Copy"></line>
                <line x1="44.935801" y1="19.0621204" x2="60.8958014" y2="19.0562404" id="Path-48-Copy-2"></line>
                <line x1="22.3409904" y1="7.92708018" x2="25.5965479" y2="1.93956004" id="Path-49"></line>
                <line x1="27.8308806" y1="12.895269" x2="33.4601408" y2="9.69500866" id="Path-50"></line>
                <line x1="27.8308806" y1="21.7466541" x2="32.943611" y2="24.6590406" id="Path-51"></line>
                <line x1="22.6739752" y1="26.7792006" x2="25.5965479" y2="31.6932007" id="Path-52"></line>
                <line x1="13.7295467" y1="27.0925206" x2="11.0183052" y2="31.6932007" id="Path-53"></line>
                <line x1="8.54784019" y1="21.7466541" x2="3.87072009" y2="24.6590406" id="Path-54"></line>
                <line x1="8.34246019" y1="12.5339144" x2="2.84088006" y2="10.0472402" id="Path-55"></line>
                <line x1="11.0183052" y1="1.93956004" x2="13.7295467" y2="7.43148017" id="Path-56"></line>
                <path d="M2.84088006,10.0472402 C1.96840004,6.9978092 2.31168005,4.64104915 3.87072009,2.97696007 C5.42976012,1.31287099 7.81228849,0.829839397 11.0183052,1.52786529" id="Path-57"></path>
                <path d="M25.5208806,10.0472402 C24.6484006,6.9978092 24.9916806,4.64104915 26.5507206,2.97696007 C28.1097606,1.31287099 30.492289,0.829839397 33.6983057,1.52786529" id="Path-57-Copy" transform="translate(29.374795, 5.632848) scale(-1, 1) translate(-29.374795, -5.632848) "></path>
                <path d="M2.84088006,32.7272407 C1.96840004,29.6778097 2.31168005,27.3210497 3.87072009,25.6569606 C5.42976012,23.9928715 7.81228849,23.5098399 11.0183052,24.2078658" id="Path-57-Copy-3" transform="translate(6.694795, 28.312849) scale(1, -1) translate(-6.694795, -28.312849) "></path>
                <path d="M25.5208806,32.7272407 C24.6484006,29.6778097 24.9916806,27.3210497 26.5507206,25.6569606 C28.1097606,23.9928715 30.492289,23.5098399 33.6983057,24.2078658" id="Path-57-Copy-2" transform="translate(29.374795, 28.312849) scale(-1, -1) translate(-29.374795, -28.312849) "></path>
            </g>
        </g>
    </g>
</svg>