<?xml version="1.0" encoding="UTF-8"?>
<svg width="195px" height="73px" viewBox="0 0 195 73" version="1.1" xmlns="http://www.w3.org/2000/svg" xmlns:xlink="http://www.w3.org/1999/xlink">
    <!-- Generator: Sketch 63.1 (92452) - https://sketch.com -->
    <title>graphics</title>
    <desc>Created with Sketch.</desc>
    <g id="Charts-remake" stroke="none" stroke-width="1" fill="none" fill-rule="evenodd">
        <g id="graphics" transform="translate(1.000000, 1.000000)">
            <g id="figure_2" stroke="#5A5E6B" stroke-width="1.84800001">
                <path d="M3.79482395,61.8118797 C9.35741225,54.9688144 13.7511551,50.4588789 16.9760525,48.2820732 C21.4112521,45.2883134 26.6990933,44.7546846 28.4961565,42.6271936 C31.4162665,39.1701601 26.812133,35.4416557 28.4961565,30.8739146 C29.8860411,27.1039949 32.9906809,23.9993551 37.8100757,21.5599953" id="Path-8" stroke-linecap="round"></path>
                <path d="M75.7300492,65.0249518 C67.6444017,59.7058502 62.7986895,55.9728905 61.1929128,53.8260727 C57.2623142,48.5711212 62.0927937,46.8860637 59.320794,43.2924736 C56.9840397,40.2631309 50.2140962,36.8426328 47.4566349,31.5501687 C46.4687219,29.6540424 46.4687219,26.6260105 47.4566349,22.4660728" id="Path-9" stroke-linecap="round"></path>
                <circle id="Oval-Copy-11" cx="38.2535957" cy="32.6479944" r="1.10879991"></circle>
                <circle id="Oval-Copy-12" cx="34.927196" cy="41.5183937" r="1.10879991"></circle>
                <circle id="Oval-Copy-13" cx="24.9479968" cy="49.2799931" r="1.10879991"></circle>
                <circle id="Oval-Copy-16" cx="32.7095961" cy="55.9327925" r="1.10879991"></circle>
                <circle id="Oval-Copy-14" cx="41.5799954" cy="69.2383914" r="1.10879991"></circle>
                <circle id="Oval-Copy-15" cx="49.3415948" cy="42.6271936" r="1.10879991"></circle>
                <circle id="Oval-Copy-10" cx="42.6887953" cy="39.3007939" r="2.21759982"></circle>
                <circle id="Oval-Copy-8" cx="43.7975952" cy="51.4975929" r="3.51119963"></circle>
                <circle id="Oval" cx="20.5127971" cy="63.6943919" r="3.51119963"></circle>
                <circle id="Oval-Copy-9" cx="58.2119941" cy="64.8031918" r="3.51119963"></circle>
                <line x1="54.2336606" y1="18.4997062" x2="54.2336606" y2="25.1397735" id="Path-10" stroke-linecap="round"></line>
                <path d="M54.0473822,0.492797043 C55.510637,0.492797043 57.203185,4.47764782 57.8831705,12.4473494 C57.9073856,12.7311608 57.891111,13.4962066 57.8343465,14.7424867 C57.7466606,16.6673787 56.1605488,18.1828921 54.2336606,18.1828921 C52.2940777,18.1828921 50.6854579,16.6815236 50.5518505,14.746548 C50.4704394,13.5676047 50.4380233,12.8470024 50.4546021,12.5847412 C50.9641977,4.52344511 52.575743,0.492797043 54.0473822,0.492797043 Z" id="Rectangle"></path>
                <line x1="62.5078598" y1="26.2169534" x2="62.5078598" y2="35.702764" id="Path-10" stroke-linecap="round"></line>
                <path d="M62.2417478,0.492797043 C64.3321118,0.492797043 66.7500376,6.18544111 67.7214454,17.5707292 C67.7560385,17.9761742 67.732789,19.0690967 67.6516969,20.8494968 C67.5264313,23.5993427 65.2605572,25.7643618 62.5078598,25.7643618 C59.737027,25.7643618 57.4389988,23.6195497 57.248131,20.8552987 C57.1318295,19.171094 57.0855207,18.1416622 57.1092048,17.7670033 C57.8371984,6.25086581 60.139406,0.492797043 62.2417478,0.492797043 Z" id="Rectangle" fill="#343741"></path>
                <line x1="72.7294258" y1="32.6479944" x2="72.7294258" y2="44.5052584" id="Path-10" stroke-linecap="round"></line>
                <path d="M72.3967859,0.492797043 C75.009741,0.492797043 78.0321484,7.60860255 79.2464083,21.8402136 C79.2896497,22.3470197 79.2605878,23.713173 79.1592227,25.9386733 C79.0026406,29.3759808 76.1702979,32.0822548 72.7294258,32.0822548 C69.2658847,32.0822548 66.3933492,29.4012396 66.1547646,25.9459257 C66.0093876,23.8406696 65.9515016,22.5538798 65.9811067,22.0855562 C66.8910988,7.69038342 69.7688585,0.492797043 72.3967859,0.492797043 Z" id="Rectangle" fill="#343741"></path>
                <line x1="25.5999306" y1="18.4997062" x2="25.5999306" y2="25.1397735" id="Path-10" stroke-linecap="round" transform="translate(25.599931, 21.819740) scale(-1, 1) translate(-25.599931, -21.819740) "></line>
                <path d="M25.5365466,0.492797043 C26.9998014,0.492797043 28.6923494,4.47764782 29.3723349,12.4473494 C29.3965501,12.7311608 29.3802754,13.4962066 29.3235109,14.7424867 C29.235825,16.6673787 27.6497132,18.1828921 25.722825,18.1828921 C23.7832421,18.1828921 22.1746224,16.6815236 22.041015,14.746548 C21.9596039,13.5676047 21.9271877,12.8470024 21.9437666,12.5847412 C22.4533621,4.52344511 24.0649074,0.492797043 25.5365466,0.492797043 Z" id="Rectangle" fill="#343741" transform="translate(25.661378, 9.337845) scale(-1, 1) translate(-25.661378, -9.337845) "></path>
                <line x1="17.3257314" y1="26.2169534" x2="17.3257314" y2="35.702764" id="Path-10" stroke-linecap="round" transform="translate(17.325731, 30.959859) scale(-1, 1) translate(-17.325731, -30.959859) "></line>
                <path d="M17.2351829,0.492797043 C19.3255469,0.492797043 21.7434727,6.18544111 22.7148805,17.5707292 C22.7494736,17.9761742 22.7262241,19.0690967 22.645132,20.8494968 C22.5198664,23.5993427 20.2539923,25.7643618 17.5012948,25.7643618 C14.7304621,25.7643618 12.4324339,23.6195497 12.2415661,20.8552987 C12.1252645,19.171094 12.0789558,18.1416622 12.1026399,17.7670033 C12.8306335,6.25086581 15.1328411,0.492797043 17.2351829,0.492797043 Z" id="Rectangle" fill="#343741" transform="translate(17.413513, 13.128579) scale(-1, 1) translate(-17.413513, -13.128579) "></path>
                <line x1="7.10416527" y1="32.6479944" x2="7.10416527" y2="44.5052584" id="Path-10" stroke-linecap="round" transform="translate(7.104165, 38.576626) scale(-1, 1) translate(-7.104165, -38.576626) "></line>
                <path d="M6.99097968,0.492797043 C9.60393482,0.492797043 12.6263422,7.60860255 13.8406021,21.8402136 C13.8838435,22.3470197 13.8547816,23.713173 13.7534165,25.9386733 C13.5968344,29.3759808 10.7644917,32.0822548 7.32361965,32.0822548 C3.8600785,32.0822548 0.987543049,29.4012396 0.748958361,25.9459257 C0.603581372,23.8406696 0.545695435,22.5538798 0.575300551,22.0855562 C1.48529263,7.69038342 4.36305228,0.492797043 6.99097968,0.492797043 Z" id="Rectangle" fill="#343741" transform="translate(7.213892, 16.287526) scale(-1, 1) translate(-7.213892, -16.287526) "></path>
            </g>
            <g id="figure_1" transform="translate(107.000000, 2.000000)" stroke="#FFFFFF" stroke-width="1.5">
                <line x1="58.6944468" y1="19.6880008" x2="58.6944468" y2="26.8742217" id="Path-10" stroke-linecap="round"></line>
                <path d="M58.4928468,0.200001478 C60.0764561,0.200001478 61.9082182,4.51261107 62.6441333,13.1378302 C62.6703402,13.4449855 62.652727,14.2729572 62.5912936,15.6217454 C62.4963954,17.7049621 60.7798239,19.3451283 58.6944468,19.3451283 C56.5953309,19.3451283 54.8544002,17.7202705 54.7098034,15.6261407 C54.6216962,14.3502279 54.5866138,13.5703553 54.6045563,13.2865228 C55.1560667,4.56217524 56.9001635,0.200001478 58.4928468,0.200001478 Z" id="Rectangle"></path>
                <line x1="67.649209" y1="28.0400009" x2="67.649209" y2="38.306031" id="Path-10" stroke-linecap="round"></line>
                <path d="M67.361209,0.200001478 C69.6235079,0.200001478 72.2403111,6.36087242 73.2916184,18.6826143 C73.3290568,19.1214076 73.303895,20.3042243 73.216133,22.2310645 C73.0805641,25.2070885 70.6283192,27.5501831 67.649209,27.5501831 C64.6504719,27.5501831 62.163428,25.2289576 61.9568612,22.2373436 C61.8309936,20.414611 61.7808759,19.3005072 61.8065081,18.8950322 C62.5943801,6.43167838 65.085947,0.200001478 67.361209,0.200001478 Z" id="Rectangle" fill="#343741"></path>
                <line x1="78.7115113" y1="35.0000029" x2="78.7115113" y2="47.8325412" id="Path-10" stroke-linecap="round"></line>
                <path d="M78.3515112,0.200001478 C81.1793851,0.200001478 84.4503892,7.90109062 85.7645234,23.3032689 C85.8113213,23.8517586 85.7798694,25.330271 85.6701678,27.7388062 C85.5007304,31.4588512 82.4354129,34.3877305 78.7115113,34.3877305 C74.9630896,34.3877305 71.8542847,31.4861985 71.5960761,27.7466808 C71.4387417,25.4682649 71.3760945,24.075635 71.4081347,23.5687913 C72.3929748,7.98959807 75.5074336,0.200001478 78.3515112,0.200001478 Z" id="Rectangle" fill="#343741"></path>
                <line x1="27.7055578" y1="19.6880008" x2="27.7055578" y2="26.8742217" id="Path-10" stroke-linecap="round" transform="translate(27.705558, 23.281111) scale(-1, 1) translate(-27.705558, -23.281111) "></line>
                <path d="M27.6369605,0.200001478 C29.2205697,0.200001478 31.0523319,4.51261107 31.788247,13.1378302 C31.8144539,13.4449855 31.7968406,14.2729572 31.7354072,15.6217454 C31.640509,17.7049621 29.9239376,19.3451283 27.8385605,19.3451283 C25.7394445,19.3451283 23.9985139,17.7202705 23.8539171,15.6261407 C23.7658098,14.3502279 23.7307274,13.5703553 23.7486699,13.2865228 C24.3001803,4.56217524 26.0442771,0.200001478 27.6369605,0.200001478 Z" id="Rectangle" fill="#343741" transform="translate(27.772059, 9.772565) scale(-1, 1) translate(-27.772059, -9.772565) "></path>
                <line x1="18.7507957" y1="28.0400009" x2="18.7507957" y2="38.306031" id="Path-10" stroke-linecap="round" transform="translate(18.750796, 33.173016) scale(-1, 1) translate(-18.750796, -33.173016) "></line>
                <path d="M18.6527995,0.200001478 C20.9150984,0.200001478 23.5319016,6.36087242 24.5832089,18.6826143 C24.6206473,19.1214076 24.5954855,20.3042243 24.5077235,22.2310645 C24.3721546,25.2070885 21.9199097,27.5501831 18.9407995,27.5501831 C15.9420624,27.5501831 13.4550185,25.2289576 13.2484517,22.2373436 C13.1225842,20.414611 13.0724665,19.3005072 13.0980986,18.8950322 C13.8859706,6.43167838 16.3775375,0.200001478 18.6527995,0.200001478 Z" id="Rectangle" fill="#343741" transform="translate(18.845798, 13.875092) scale(-1, 1) translate(-18.845798, -13.875092) "></path>
                <line x1="7.68849337" y1="35.0000029" x2="7.68849337" y2="47.8325412" id="Path-10" stroke-linecap="round" transform="translate(7.688493, 41.416272) scale(-1, 1) translate(-7.688493, -41.416272) "></line>
                <path d="M7.56599812,0.200001478 C10.393872,0.200001478 13.6648761,7.90109062 14.9790103,23.3032689 C15.0258082,23.8517586 14.9943563,25.330271 14.8846547,27.7388062 C14.7152173,31.4588512 11.6498998,34.3877305 7.92599814,34.3877305 C4.17757653,34.3877305 1.06877155,31.4861985 0.810562982,27.7466808 C0.653228559,25.4682649 0.590581434,24.075635 0.622621607,23.5687913 C1.60746164,7.98959807 4.72192051,0.200001478 7.56599812,0.200001478 Z" id="Rectangle" fill="#343741" transform="translate(7.807246, 17.293866) scale(-1, 1) translate(-7.807246, -17.293866) "></path>
                <line x1="4.10695471" y1="66.5626531" x2="36.8637776" y2="23.9806059" id="Path-11" stroke-linecap="round"></line>
                <line x1="78.7115113" y1="66.5626531" x2="50.1361622" y2="24.2000024" id="Path-12" stroke-linecap="round"></line>
                <path d="M42.9559852,24.2000024 L42.9559852,25.0984368 M42.9559852,29.2199415 L42.9559852,34.5728419 M42.9559852,38.600003 L42.9559852,48.5608291 M42.9559852,52.6860257 L42.9559852,66.5626531" id="Shape" stroke-linecap="round"></path>
            </g>
        </g>
    </g>
</svg>