<?xml version="1.0" encoding="UTF-8"?>
<svg width="239px" height="113px" viewBox="0 0 239 113" version="1.1" xmlns="http://www.w3.org/2000/svg" xmlns:xlink="http://www.w3.org/1999/xlink">
    <!-- Generator: Sketch 63.1 (92452) - https://sketch.com -->
    <desc>Created with Sketch.</desc>
    <g id="Charts-remake" stroke="none" stroke-width="1" fill="none" fill-rule="evenodd">
        <g id="Holcim" transform="translate(-628.000000, -654.000000)">
            <g id="graphics" transform="translate(629.000000, 654.000000)">
                <g id="figure_1">
                    <text id="2015" font-family="OpenSans-Light, Open Sans" font-size="12.5999999" font-weight="300" fill="#FFFFFF">
                        <tspan x="6.58582784" y="111.510013">2015</tspan>
                    </text>
                    <path d="M42.850819,36.494496 L42.850819,36.494496 L48.9199788,38.5410786 C49.733279,38.8153317 50.2809146,39.5779335 50.2809146,40.4362295 L50.2809146,46.1399441 L50.2809146,46.1399441 L26.0165736,60.7891317 C25.5280808,61.084051 24.9368763,61.1562716 24.3917541,60.9876169 L5.74313599,55.217944 C5.32429152,55.0883582 5.03870198,54.7010543 5.03870198,54.2626216 L5.03870198,48.3663384 C5.03870198,48.0927971 5.15533818,47.8322337 5.35935048,47.6500146 L5.51379053,47.5120723 C5.62425434,47.4134086 5.74533611,47.3273207 5.87480845,47.2553923 L9.02565368,45.5049389 L9.02565368,45.5049389" id="Path" stroke="#FFFFFF" stroke-linecap="round"></path>
                    <path d="M5.67999898,47.3636188 L23.1103574,52.742934 C24.3788775,53.1344216 25.2392543,54.3130836 25.2255165,55.6405688 L25.173772,60.6406683 L25.173772,60.6406683" id="Path-3" stroke="#FFFFFF" stroke-linecap="round"></path>
                    <line x1="29.149791" y1="51.642448" x2="45.8239275" y2="41.5211401" id="Path-4" stroke="#FFFFFF" stroke-linecap="round"></line>
                    <path d="M23.3567701,55 C22.979849,55.8981559 22.7913884,56.5763572 22.7913884,57.0346039 C22.7913884,57.4928505 22.979849,58.1710518 23.3567701,59.0692077" id="Path-5" stroke="#FFFFFF" stroke-linecap="round"></path>
                    <path d="M8.14857582,50.2377936 C7.77181404,51.1192372 7.58343315,51.7976346 7.58343315,52.2729861 C7.58343315,52.7483375 7.77181404,53.426735 8.14857582,54.3081785" id="Path-6" stroke="#FFFFFF" stroke-linecap="round"></path>
                    <path d="M46.2809146,32.3251803 L46.2809146,32.3251803 L46.2809146,34.1399441 L22.0165736,48.7891317 C21.5280808,49.084051 20.9368763,49.1562716 20.3917541,48.9876169 L1.74313599,43.217944 C1.32429152,43.0883582 1.03870198,42.7010543 1.03870198,42.2626216 L1.03870198,36.3663384 C1.03870198,36.0927971 1.15533818,35.8322337 1.35935048,35.6500146 L1.51379053,35.5120723 C1.62425434,35.4134086 1.74533611,35.3273207 1.87480845,35.2553923 L11.0380376,30.1647565 L11.0380376,30.1647565" id="Path" stroke="#FFFFFF" stroke-linecap="round"></path>
                    <path d="M1.67999898,35.3636188 L19.1103574,40.742934 C20.3788775,41.1344216 21.2392543,42.3130836 21.2255165,43.6405688 L21.173772,48.6406683 L21.173772,48.6406683" id="Path-3" stroke="#FFFFFF" stroke-linecap="round"></path>
                    <path d="M19.3567701,43 C18.979849,43.8981559 18.7913884,44.5763572 18.7913884,45.0346039 C18.7913884,45.4928505 18.979849,46.1710518 19.3567701,47.0692077" id="Path-5" stroke="#FFFFFF" stroke-linecap="round"></path>
                    <path d="M4.14857582,38.2377936 C3.77181404,39.1192372 3.58343315,39.7976346 3.58343315,40.2729861 C3.58343315,40.7483375 3.77181404,41.426735 4.14857582,42.3081785" id="Path-6" stroke="#FFFFFF" stroke-linecap="round"></path>
                    <path d="M48.1146227,16.2462431 L48.1146227,16.2462431 L54.9199788,18.5410786 C55.733279,18.8153317 56.2809146,19.5779335 56.2809146,20.4362295 L56.2809146,26.1399441 L56.2809146,26.1399441 L32.0165736,40.7891317 C31.5280808,41.084051 30.9368763,41.1562716 30.3917541,40.9876169 L11.743136,35.217944 C11.3242915,35.0883582 11.038702,34.7010543 11.038702,34.2626216 L11.038702,28.3663384 C11.038702,28.0927971 11.1553382,27.8322337 11.3593505,27.6500146 L11.5137905,27.5120723 C11.6242543,27.4134086 11.7453361,27.3273207 11.8748084,27.2553923 L14.3495562,25.8805451 L14.3495562,25.8805451" id="Path" stroke="#FFFFFF" stroke-linecap="round"></path>
                    <path d="M11.679999,27.3636188 L29.1103574,32.742934 C30.3788775,33.1344216 31.2392543,34.3130836 31.2255165,35.6405688 L31.173772,40.6406683 L31.173772,40.6406683" id="Path-3" stroke="#FFFFFF" stroke-linecap="round"></path>
                    <line x1="35.149791" y1="31.642448" x2="51.8239275" y2="21.5211401" id="Path-4" stroke="#FFFFFF" stroke-linecap="round"></line>
                    <path d="M29.3567701,35 C28.979849,35.8981559 28.7913884,36.5763572 28.7913884,37.0346039 C28.7913884,37.4928505 28.979849,38.1710518 29.3567701,39.0692077" id="Path-5" stroke="#FFFFFF" stroke-linecap="round"></path>
                    <path d="M14.1485758,30.2377936 C13.771814,31.1192372 13.5834332,31.7976346 13.5834332,32.2729861 C13.5834332,32.7483375 13.771814,33.426735 14.1485758,34.3081785" id="Path-6" stroke="#FFFFFF" stroke-linecap="round"></path>
                    <path d="M6.87480845,15.2553923 L31.7356711,1.44392968 C32.4739465,1.03378049 33.3509065,0.953818493 34.1511859,1.22368088 L49.9199788,6.54107858 C50.733279,6.8153317 51.2809146,7.57793348 51.2809146,8.43622948 L51.2809146,14.1399441 L51.2809146,14.1399441 L27.0165736,28.7891317 C26.5280808,29.084051 25.9368763,29.1562716 25.3917541,28.9876169 L6.74313599,23.217944 C6.32429152,23.0883582 6.03870198,22.7010543 6.03870198,22.2626216 L6.03870198,16.3663384 C6.03870198,16.0927971 6.15533818,15.8322337 6.35935048,15.6500146 L6.51379053,15.5120723 C6.62425434,15.4134086 6.74533611,15.3273207 6.87480845,15.2553923 Z" id="Path-2" stroke="#FFFFFF" stroke-linecap="round"></path>
                    <path d="M6.67999898,15.3636188 L24.1103574,20.742934 C25.3788775,21.1344216 26.2392543,22.3130836 26.2255165,23.6405688 L26.173772,28.6406683 L26.173772,28.6406683" id="Path-3" stroke="#FFFFFF" stroke-linecap="round"></path>
                    <line x1="30.149791" y1="19.642448" x2="46.8239275" y2="9.52114006" id="Path-4" stroke="#FFFFFF" stroke-linecap="round"></line>
                    <path d="M24.3567701,23 C23.979849,23.8981559 23.7913884,24.5763572 23.7913884,25.0346039 C23.7913884,25.4928505 23.979849,26.1710518 24.3567701,27.0692077" id="Path-5" stroke="#FFFFFF" stroke-linecap="round"></path>
                    <path d="M9.14857582,18.2377936 C8.77181404,19.1192372 8.58343315,19.7976346 8.58343315,20.2729861 C8.58343315,20.7483375 8.77181404,21.426735 9.14857582,22.3081785" id="Path-6" stroke="#FFFFFF" stroke-linecap="round"></path>
                    <path d="M46.1786336,48.8044318 C46.2452595,49.0044519 46.2809146,49.2172255 46.2809146,49.4362295 L46.2809146,55.1399441 L22.0165736,69.7891317 C21.5280808,70.084051 20.9368763,70.1562716 20.3917541,69.9876169 L1.74313599,64.217944 C1.32429152,64.0883582 1.03870198,63.7010543 1.03870198,63.2626216 L1.03870198,57.3663384 C1.03870198,57.0927971 1.15533818,56.8322337 1.35935048,56.6500146 L1.51379053,56.5120723 C1.62425434,56.4134086 1.74533611,56.3273207 1.87480845,56.2553923 L4.33207502,54.8902568" id="Path" stroke="#FFFFFF" stroke-linecap="round"></path>
                    <path d="M1.67999898,56.3636188 L19.1103574,61.742934 C20.3788775,62.1344216 21.2392543,63.3130836 21.2255165,64.6405688 L21.173772,69.6406683 L21.173772,69.6406683" id="Path-3" stroke="#FFFFFF" stroke-linecap="round"></path>
                    <path d="M19.3567701,64 C18.979849,64.8981559 18.7913884,65.5763572 18.7913884,66.0346039 C18.7913884,66.4928505 18.979849,67.1710518 19.3567701,68.0692077" id="Path-5" stroke="#FFFFFF" stroke-linecap="round"></path>
                    <path d="M4.14857582,59.2377936 C3.77181404,60.1192372 3.58343315,60.7976346 3.58343315,61.2729861 C3.58343315,61.7483375 3.77181404,62.426735 4.14857582,63.3081785" id="Path-6" stroke="#FFFFFF" stroke-linecap="round"></path>
                    <path d="M43.4138715,57.3282177 L46.9199788,58.5410786 C47.733279,58.8153317 48.2809146,59.5779335 48.2809146,60.4362295 L48.2809146,66.1399441 L24.0165736,80.7891317 C23.5280808,81.084051 22.9368763,81.1562716 22.3917541,80.9876169 L3.74313599,75.217944 C3.32429152,75.0883582 3.03870198,74.7010543 3.03870198,74.2626216 L3.03870198,68.3663384 C3.03870198,68.0927971 3.15533818,67.8322337 3.35935048,67.6500146 L3.51379053,67.5120723 C3.62425434,67.4134086 3.74533611,67.3273207 3.87480845,67.2553923 L6.36600449,65.730436" id="Path" stroke="#FFFFFF" stroke-linecap="round"></path>
                    <path d="M3.67999898,67.3636188 L21.1103574,72.742934 C22.3788775,73.1344216 23.2392543,74.3130836 23.2255165,75.6405688 L23.173772,80.6406683 L23.173772,80.6406683" id="Path-3" stroke="#FFFFFF" stroke-linecap="round"></path>
                    <line x1="27.149791" y1="71.642448" x2="43.8239275" y2="61.5211401" id="Path-4" stroke="#FFFFFF" stroke-linecap="round"></line>
                    <path d="M21.3567701,75 C20.979849,75.8981559 20.7913884,76.5763572 20.7913884,77.0346039 C20.7913884,77.4928505 20.979849,78.1710518 21.3567701,79.0692077" id="Path-5" stroke="#FFFFFF" stroke-linecap="round"></path>
                    <path d="M6.14857582,70.2377936 C5.77181404,71.1192372 5.58343315,71.7976346 5.58343315,72.2729861 C5.58343315,72.7483375 5.77181404,73.426735 6.14857582,74.3081785" id="Path-6" stroke="#FFFFFF" stroke-linecap="round"></path>
                    <path d="M44.8374712,68.1803785 C45.117825,68.5279548 45.2809146,68.9678429 45.2809146,69.4362295 L45.2809146,75.1399441 L21.0165736,89.7891317 C20.5280808,90.084051 19.9368763,90.1562716 19.3917541,89.9876169 L0.743135987,84.217944 C0.324291516,84.0883582 0.0387019801,83.7010543 0.0387019801,83.2626216 L0.0387019801,77.3663384 C0.0387019801,77.0927971 0.155338178,76.8322337 0.359350479,76.6500146 L0.513790533,76.5120723 C0.624254343,76.4134086 0.745336107,76.3273207 0.874808448,76.2553923 L3.33207502,74.8902568" id="Path" stroke="#FFFFFF" stroke-linecap="round"></path>
                    <path d="M0.679998977,76.3636188 L18.1103574,81.742934 C19.3788775,82.1344216 20.2392543,83.3130836 20.2255165,84.6405688 L20.173772,89.6406683 L20.173772,89.6406683" id="Path-3" stroke="#FFFFFF" stroke-linecap="round"></path>
                    <path d="M18.3567701,84 C17.979849,84.8981559 17.7913884,85.5763572 17.7913884,86.0346039 C17.7913884,86.4928505 17.979849,87.1710518 18.3567701,88.0692077" id="Path-5" stroke="#FFFFFF" stroke-linecap="round"></path>
                    <path d="M3.14857582,79.2377936 C2.77181404,80.1192372 2.58343315,80.7976346 2.58343315,81.2729861 C2.58343315,81.7483375 2.77181404,82.426735 3.14857582,83.3081785" id="Path-6" stroke="#FFFFFF" stroke-linecap="round"></path>
                </g>
                <g id="figure_2" transform="translate(64.960000, 12.640000)">
                    <text id="2016" font-family="OpenSans-Light, Open Sans" font-size="12.5999999" font-weight="300" fill="#FFFFFF">
                        <tspan x="4.06582786" y="98.870013">2016</tspan>
                    </text>
                    <path d="M46.3209149,19.6851804 L46.3209149,19.6851804 L46.3209149,21.4999442 L22.0565739,36.1491318 C21.5680811,36.4440511 20.9768766,36.5162717 20.4317544,36.347617 L1.78313632,30.5779441 C1.36429184,30.4483583 1.07870231,30.0610544 1.07870231,29.6226217 L1.07870231,23.7263385 C1.07870231,23.4527972 1.19533851,23.1922338 1.39935081,23.0100147 L1.55379086,22.8720724 C1.66425467,22.7734087 1.78533644,22.6873208 1.91480878,22.6153924 L11.0780379,17.5247566 L11.0780379,17.5247566" id="Path" stroke="#FFFFFF" stroke-linecap="round"></path>
                    <path d="M1.71999931,22.7236189 L19.1503577,28.1029341 C20.4188778,28.4944217 21.2792546,29.6730837 21.2655169,31.0005689 L21.2137724,36.0006684 L21.2137724,36.0006684" id="Path-3" stroke="#FFFFFF" stroke-linecap="round"></path>
                    <path d="M19.3967704,30.3600001 C19.0198493,31.2581561 18.8313887,31.9363573 18.8313887,32.394604 C18.8313887,32.8528506 19.0198493,33.5310519 19.3967704,34.4292078" id="Path-5" stroke="#FFFFFF" stroke-linecap="round"></path>
                    <path d="M4.18857615,25.5977937 C3.81181437,26.4792373 3.62343348,27.1576347 3.62343348,27.6329862 C3.62343348,28.1083376 3.81181437,28.7867351 4.18857615,29.6681786" id="Path-6" stroke="#FFFFFF" stroke-linecap="round"></path>
                    <path d="M11.9148088,14.6153924 L36.7756715,0.803929782 C37.5139469,0.39378059 38.3909068,0.313818593 39.1911863,0.58368098 L54.9599791,5.90107868 C55.7732793,6.1753318 56.3209149,6.93793358 56.3209149,7.79622958 L56.3209149,13.4999442 L56.3209149,13.4999442 L32.0565739,28.1491318 C31.5680811,28.4440511 30.9768766,28.5162717 30.4317544,28.347617 L11.7831363,22.5779441 C11.3642918,22.4483583 11.0787023,22.0610544 11.0787023,21.6226217 L11.0787023,15.7263385 C11.0787023,15.4527972 11.1953385,15.1922338 11.3993508,15.0100147 L11.5537909,14.8720724 C11.6642547,14.7734087 11.7853364,14.6873208 11.9148088,14.6153924 Z" id="Path-2" stroke="#FFFFFF" stroke-linecap="round"></path>
                    <path d="M11.7199993,14.7236189 L29.1503577,20.1029341 C30.4188778,20.4944217 31.2792546,21.6730837 31.2655169,23.0005689 L31.2137724,28.0006684 L31.2137724,28.0006684" id="Path-3" stroke="#FFFFFF" stroke-linecap="round"></path>
                    <line x1="35.1897913" y1="19.0024481" x2="51.8639278" y2="8.88114016" id="Path-4" stroke="#FFFFFF" stroke-linecap="round"></line>
                    <path d="M29.3967704,22.3600001 C29.0198493,23.2581561 28.8313887,23.9363573 28.8313887,24.394604 C28.8313887,24.8528506 29.0198493,25.5310519 29.3967704,26.4292078" id="Path-5" stroke="#FFFFFF" stroke-linecap="round"></path>
                    <path d="M14.1885761,17.5977937 C13.8118144,18.4792373 13.6234335,19.1576347 13.6234335,19.6329862 C13.6234335,20.1083376 13.8118144,20.7867351 14.1885761,21.6681786" id="Path-6" stroke="#FFFFFF" stroke-linecap="round"></path>
                    <path d="M46.218634,36.1644319 C46.2852598,36.364452 46.3209149,36.5772256 46.3209149,36.7962296 L46.3209149,42.4999442 L22.0565739,57.1491318 C21.5680811,57.4440511 20.9768766,57.5162717 20.4317544,57.347617 L1.78313632,51.5779441 C1.36429184,51.4483583 1.07870231,51.0610544 1.07870231,50.6226217 L1.07870231,44.7263385 C1.07870231,44.4527972 1.19533851,44.1922338 1.39935081,44.0100147 L1.55379086,43.8720724 C1.66425467,43.7734087 1.78533644,43.6873208 1.91480878,43.6153924 L4.37207535,42.2502569" id="Path" stroke="#FFFFFF" stroke-linecap="round"></path>
                    <path d="M1.71999931,43.7236189 L19.1503577,49.1029341 C20.4188778,49.4944217 21.2792546,50.6730837 21.2655169,52.0005689 L21.2137724,57.0006684 L21.2137724,57.0006684" id="Path-3" stroke="#FFFFFF" stroke-linecap="round"></path>
                    <path d="M19.3967704,51.3600001 C19.0198493,52.2581561 18.8313887,52.9363573 18.8313887,53.394604 C18.8313887,53.8528506 19.0198493,54.5310519 19.3967704,55.4292078" id="Path-5" stroke="#FFFFFF" stroke-linecap="round"></path>
                    <path d="M4.18857615,46.5977937 C3.81181437,47.4792373 3.62343348,48.1576347 3.62343348,48.6329862 C3.62343348,49.1083376 3.81181437,49.7867351 4.18857615,50.6681786" id="Path-6" stroke="#FFFFFF" stroke-linecap="round"></path>
                    <path d="M43.4538719,44.6882178 L46.9599791,45.9010787 C47.7732793,46.1753318 48.3209149,46.9379336 48.3209149,47.7962296 L48.3209149,53.4999442 L24.0565739,68.1491318 C23.5680811,68.4440511 22.9768766,68.5162717 22.4317544,68.347617 L3.78313632,62.5779441 C3.36429184,62.4483583 3.07870231,62.0610544 3.07870231,61.6226217 L3.07870231,55.7263385 C3.07870231,55.4527972 3.19533851,55.1922338 3.39935081,55.0100147 L3.55379086,54.8720724 C3.66425467,54.7734087 3.78533644,54.6873208 3.91480878,54.6153924 L6.40600481,53.0904361" id="Path" stroke="#FFFFFF" stroke-linecap="round"></path>
                    <path d="M3.71999931,54.7236189 L21.1503577,60.1029341 C22.4188778,60.4944217 23.2792546,61.6730837 23.2655169,63.0005689 L23.2137724,68.0006684 L23.2137724,68.0006684" id="Path-3" stroke="#FFFFFF" stroke-linecap="round"></path>
                    <line x1="27.1897913" y1="59.0024481" x2="43.8639278" y2="48.8811402" id="Path-4" stroke="#FFFFFF" stroke-linecap="round"></line>
                    <path d="M21.3967704,62.3600001 C21.0198493,63.2581561 20.8313887,63.9363573 20.8313887,64.394604 C20.8313887,64.8528506 21.0198493,65.5310519 21.3967704,66.4292078" id="Path-5" stroke="#FFFFFF" stroke-linecap="round"></path>
                    <path d="M6.18857615,57.5977937 C5.81181437,58.4792373 5.62343348,59.1576347 5.62343348,59.6329862 C5.62343348,60.1083376 5.81181437,60.7867351 6.18857615,61.6681786" id="Path-6" stroke="#FFFFFF" stroke-linecap="round"></path>
                    <path d="M44.8774715,55.5403786 C45.1578253,55.8879549 45.3209149,56.327843 45.3209149,56.7962296 L45.3209149,62.4999442 L21.0565739,77.1491318 C20.5680811,77.4440511 19.9768766,77.5162717 19.4317544,77.347617 L0.783136316,71.5779441 C0.364291845,71.4483583 0.0787023091,71.0610544 0.0787023091,70.6226217 L0.0787023091,64.7263385 C0.0787023091,64.4527972 0.195338507,64.1922338 0.399350808,64.0100147 L0.553790862,63.8720724 C0.664254672,63.7734087 0.785336436,63.6873208 0.914808777,63.6153924 L3.37207535,62.2502569" id="Path" stroke="#FFFFFF" stroke-linecap="round"></path>
                    <path d="M0.719999306,63.7236189 L18.1503577,69.1029341 C19.4188778,69.4944217 20.2792546,70.6730837 20.2655169,72.0005689 L20.2137724,77.0006684 L20.2137724,77.0006684" id="Path-3" stroke="#FFFFFF" stroke-linecap="round"></path>
                    <path d="M18.3967704,71.3600001 C18.0198493,72.2581561 17.8313887,72.9363573 17.8313887,73.394604 C17.8313887,73.8528506 18.0198493,74.5310519 18.3967704,75.4292078" id="Path-5" stroke="#FFFFFF" stroke-linecap="round"></path>
                    <path d="M3.18857615,66.5977937 C2.81181437,67.4792373 2.62343348,68.1576347 2.62343348,68.6329862 C2.62343348,69.1083376 2.81181437,69.7867351 3.18857615,70.6681786" id="Path-6" stroke="#FFFFFF" stroke-linecap="round"></path>
                    <path d="M42.8908193,23.8544961 L42.8908193,23.8544961 L48.9599791,25.9010787 C49.7732793,26.1753318 50.3209149,26.9379336 50.3209149,27.7962296 L50.3209149,33.4999442 L50.3209149,33.4999442 L26.0565739,48.1491318 C25.5680811,48.4440511 24.9768766,48.5162717 24.4317544,48.347617 L5.78313632,42.5779441 C5.36429184,42.4483583 5.07870231,42.0610544 5.07870231,41.6226217 L5.07870231,35.7263385 C5.07870231,35.4527972 5.19533851,35.1922338 5.39935081,35.0100147 L5.55379086,34.8720724 C5.66425467,34.7734087 5.78533644,34.6873208 5.91480878,34.6153924 L9.06565401,32.864939 L9.06565401,32.864939" id="Path" stroke="#FFFFFF" stroke-linecap="round"></path>
                    <path d="M5.71999931,34.7236189 L23.1503577,40.1029341 C24.4188778,40.4944217 25.2792546,41.6730837 25.2655169,43.0005689 L25.2137724,48.0006684 L25.2137724,48.0006684" id="Path-3" stroke="#FFFFFF" stroke-linecap="round"></path>
                    <line x1="29.1897913" y1="39.0024481" x2="45.8639278" y2="28.8811402" id="Path-4" stroke="#FFFFFF" stroke-linecap="round"></line>
                    <path d="M23.3967704,42.3600001 C23.0198493,43.2581561 22.8313887,43.9363573 22.8313887,44.394604 C22.8313887,44.8528506 23.0198493,45.5310519 23.3967704,46.4292078" id="Path-5" stroke="#FFFFFF" stroke-linecap="round"></path>
                    <path d="M8.18857615,37.5977937 C7.81181437,38.4792373 7.62343348,39.1576347 7.62343348,39.6329862 C7.62343348,40.1083376 7.81181437,40.7867351 8.18857615,41.6681786" id="Path-6" stroke="#FFFFFF" stroke-linecap="round"></path>
                </g>
                <g id="figure_3" transform="translate(125.439999, 19.460000)">
                    <text id="2017" font-family="OpenSans-Light, Open Sans" font-size="12.5999999" font-weight="300" fill="#FFFFFF">
                        <tspan x="5.00814421" y="92.0500131">2017</tspan>
                    </text>
                    <path d="M46.4108197,16.0344962 L46.4108197,16.0344962 L52.4799794,18.0810787 C53.2932797,18.3553319 53.8409152,19.1179336 53.8409152,19.9762296 L53.8409152,25.6799442 L53.8409152,25.6799442 L29.5765743,40.3291319 C29.0880815,40.6240512 28.496877,40.6962717 27.9517548,40.527617 L9.30313666,34.7579441 C8.88429219,34.6283583 8.59870265,34.2410544 8.59870265,33.8026218 L8.59870265,27.9063385 C8.59870265,27.6327973 8.71533885,27.3722338 8.91935115,27.1900148 L9.07379121,27.0520725 C9.18425501,26.9534087 9.30533678,26.8673209 9.43480912,26.7953924 L12.5856544,25.0449391 L12.5856544,25.0449391" id="Path" stroke="#FFFFFF" stroke-linecap="round"></path>
                    <path d="M9.23999965,26.9036189 L26.6703581,32.2829341 C27.9388782,32.6744217 28.7992549,33.8530837 28.7855172,35.180569 L28.7337727,40.1806684 L28.7337727,40.1806684" id="Path-3" stroke="#FFFFFF" stroke-linecap="round"></path>
                    <line x1="32.7097917" y1="31.1824481" x2="49.3839281" y2="21.0611402" id="Path-4" stroke="#FFFFFF" stroke-linecap="round"></line>
                    <path d="M26.9167708,34.5400002 C26.5398496,35.4381561 26.3513891,36.1163574 26.3513891,36.574604 C26.3513891,37.0328506 26.5398496,37.7110519 26.9167708,38.6092079" id="Path-5" stroke="#FFFFFF" stroke-linecap="round"></path>
                    <path d="M11.7085765,29.7777938 C11.3318147,30.6592373 11.1434338,31.3376348 11.1434338,31.8129862 C11.1434338,32.2883377 11.3318147,32.9667351 11.7085765,33.8481787" id="Path-6" stroke="#FFFFFF" stroke-linecap="round"></path>
                    <path d="M5.43480912,14.7953924 L30.2956718,0.983929832 C31.0339472,0.57378064 31.9109072,0.493818644 32.7111866,0.76368103 L48.4799794,6.08107873 C49.2932797,6.35533185 49.8409152,7.11793363 49.8409152,7.97622963 L49.8409152,13.6799442 L49.8409152,13.6799442 L25.5765743,28.3291319 C25.0880815,28.6240512 24.496877,28.6962717 23.9517548,28.527617 L5.30313666,22.7579441 C4.88429219,22.6283583 4.59870265,22.2410544 4.59870265,21.8026218 L4.59870265,15.9063385 C4.59870265,15.6327973 4.71533885,15.3722338 4.91935115,15.1900148 L5.07379121,15.0520725 C5.18425501,14.9534087 5.30533678,14.8673209 5.43480912,14.7953924 Z" id="Path-2" stroke="#FFFFFF" stroke-linecap="round"></path>
                    <path d="M5.23999965,14.9036189 L22.6703581,20.2829341 C23.9388782,20.6744217 24.7992549,21.8530837 24.7855172,23.180569 L24.7337727,28.1806684 L24.7337727,28.1806684" id="Path-3" stroke="#FFFFFF" stroke-linecap="round"></path>
                    <line x1="28.7097917" y1="19.1824481" x2="45.3839281" y2="9.06114021" id="Path-4" stroke="#FFFFFF" stroke-linecap="round"></line>
                    <path d="M22.9167708,22.5400002 C22.5398496,23.4381561 22.3513891,24.1163574 22.3513891,24.574604 C22.3513891,25.0328506 22.5398496,25.7110519 22.9167708,26.6092079" id="Path-5" stroke="#FFFFFF" stroke-linecap="round"></path>
                    <path d="M7.70857649,17.7777938 C7.33181471,18.6592373 7.14343382,19.3376348 7.14343382,19.8129862 C7.14343382,20.2883377 7.33181471,20.9667351 7.70857649,21.8481787" id="Path-6" stroke="#FFFFFF" stroke-linecap="round"></path>
                    <path d="M49.7386343,28.3444319 C49.8052601,28.544452 49.8409152,28.7572256 49.8409152,28.9762296 L49.8409152,34.6799442 L25.5765743,49.3291319 C25.0880815,49.6240512 24.496877,49.6962717 23.9517548,49.527617 L5.30313666,43.7579441 C4.88429219,43.6283583 4.59870265,43.2410544 4.59870265,42.8026218 L4.59870265,36.9063385 C4.59870265,36.6327973 4.71533885,36.3722338 4.91935115,36.1900148 L5.07379121,36.0520725 C5.18425501,35.9534087 5.30533678,35.8673209 5.43480912,35.7953924 L7.89207569,34.430257" id="Path" stroke="#FFFFFF" stroke-linecap="round"></path>
                    <path d="M5.23999965,35.9036189 L22.6703581,41.2829341 C23.9388782,41.6744217 24.7992549,42.8530837 24.7855172,44.180569 L24.7337727,49.1806684 L24.7337727,49.1806684" id="Path-3" stroke="#FFFFFF" stroke-linecap="round"></path>
                    <path d="M22.9167708,43.5400002 C22.5398496,44.4381561 22.3513891,45.1163574 22.3513891,45.574604 C22.3513891,46.0328506 22.5398496,46.7110519 22.9167708,47.6092079" id="Path-5" stroke="#FFFFFF" stroke-linecap="round"></path>
                    <path d="M7.70857649,38.7777938 C7.33181471,39.6592373 7.14343382,40.3376348 7.14343382,40.8129862 C7.14343382,41.2883377 7.33181471,41.9667351 7.70857649,42.8481787" id="Path-6" stroke="#FFFFFF" stroke-linecap="round"></path>
                    <path d="M46.9738722,36.8682179 L50.4799794,38.0810787 C51.2932797,38.3553319 51.8409152,39.1179336 51.8409152,39.9762296 L51.8409152,45.6799442 L27.5765743,60.3291319 C27.0880815,60.6240512 26.496877,60.6962717 25.9517548,60.527617 L7.30313666,54.7579441 C6.88429219,54.6283583 6.59870265,54.2410544 6.59870265,53.8026218 L6.59870265,47.9063385 C6.59870265,47.6327973 6.71533885,47.3722338 6.91935115,47.1900148 L7.07379121,47.0520725 C7.18425501,46.9534087 7.30533678,46.8673209 7.43480912,46.7953924 L9.92600516,45.2704361" id="Path" stroke="#FFFFFF" stroke-linecap="round"></path>
                    <path d="M7.23999965,46.9036189 L24.6703581,52.2829341 C25.9388782,52.6744217 26.7992549,53.8530837 26.7855172,55.180569 L26.7337727,60.1806684 L26.7337727,60.1806684" id="Path-3" stroke="#FFFFFF" stroke-linecap="round"></path>
                    <line x1="30.7097917" y1="51.1824481" x2="47.3839281" y2="41.0611402" id="Path-4" stroke="#FFFFFF" stroke-linecap="round"></line>
                    <path d="M24.9167708,54.5400002 C24.5398496,55.4381561 24.3513891,56.1163574 24.3513891,56.574604 C24.3513891,57.0328506 24.5398496,57.7110519 24.9167708,58.6092079" id="Path-5" stroke="#FFFFFF" stroke-linecap="round"></path>
                    <path d="M9.70857649,49.7777938 C9.33181471,50.6592373 9.14343382,51.3376348 9.14343382,51.8129862 C9.14343382,52.2883377 9.33181471,52.9667351 9.70857649,53.8481787" id="Path-6" stroke="#FFFFFF" stroke-linecap="round"></path>
                    <path d="M48.3974718,47.7203787 C48.6778256,48.067955 48.8409152,48.5078431 48.8409152,48.9762296 L48.8409152,54.6799442 L24.5765743,69.3291319 C24.0880815,69.6240512 23.496877,69.6962717 22.9517548,69.527617 L4.30313666,63.7579441 C3.88429219,63.6283583 3.59870265,63.2410544 3.59870265,62.8026218 L3.59870265,56.9063385 C3.59870265,56.6327973 3.71533885,56.3722338 3.91935115,56.1900148 L4.07379121,56.0520725 C4.18425501,55.9534087 4.30533678,55.8673209 4.43480912,55.7953924 L6.89207569,54.430257" id="Path" stroke="#FFFFFF" stroke-linecap="round"></path>
                    <path d="M4.23999965,55.9036189 L21.6703581,61.2829341 C22.9388782,61.6744217 23.7992549,62.8530837 23.7855172,64.180569 L23.7337727,69.1806684 L23.7337727,69.1806684" id="Path-3" stroke="#FFFFFF" stroke-linecap="round"></path>
                    <path d="M21.9167708,63.5400002 C21.5398496,64.4381561 21.3513891,65.1163574 21.3513891,65.574604 C21.3513891,66.0328506 21.5398496,66.7110519 21.9167708,67.6092079" id="Path-5" stroke="#FFFFFF" stroke-linecap="round"></path>
                    <path d="M6.70857649,58.7777938 C6.33181471,59.6592373 6.14343382,60.3376348 6.14343382,60.8129862 C6.14343382,61.2883377 6.33181471,61.9667351 6.70857649,62.8481787" id="Path-6" stroke="#FFFFFF" stroke-linecap="round"></path>
                </g>
                <g id="figure_4" transform="translate(186.179999, 30.800000)">
                    <text id="2018" font-family="OpenSans-Light, Open Sans" font-size="12.5999999" font-weight="300" fill="#FFFFFF">
                        <tspan x="8.3495045" y="80.7100131">2018</tspan>
                    </text>
                    <path d="M6.69480947,15.4553925 L31.5556722,1.6439299 C32.2939475,1.2337807 33.1709075,1.15381871 33.971187,1.42368109 L49.7399798,6.74107879 C50.55328,7.01533192 51.1009156,7.77793369 51.1009156,8.63622969 L51.1009156,14.3399443 L51.1009156,14.3399443 L26.8365746,28.989132 C26.3480818,29.2840513 25.7568773,29.3562718 25.2117551,29.1876171 L6.56313701,23.4179442 C6.14429254,23.2883584 5.858703,22.9010545 5.858703,22.4626219 L5.858703,16.5663386 C5.858703,16.2927973 5.9753392,16.0322339 6.1793515,15.8500148 L6.33379156,15.7120725 C6.44425537,15.6134088 6.56533713,15.5273209 6.69480947,15.4553925 Z" id="Path-2" stroke="#FFFFFF" stroke-linecap="round"></path>
                    <path d="M6.5,15.563619 L23.9303584,20.9429342 C25.1988785,21.3344218 26.0592553,22.5130838 26.0455175,23.8405691 L25.993773,28.8406685 L25.993773,28.8406685" id="Path-3" stroke="#FFFFFF" stroke-linecap="round"></path>
                    <line x1="29.969792" y1="19.8424482" x2="46.6439285" y2="9.72114027" id="Path-4" stroke="#FFFFFF" stroke-linecap="round"></line>
                    <path d="M24.1767711,23.2000002 C23.79985,24.0981562 23.6113894,24.7763575 23.6113894,25.2346041 C23.6113894,25.6928507 23.79985,26.371052 24.1767711,27.2692079" id="Path-5" stroke="#FFFFFF" stroke-linecap="round"></path>
                    <path d="M8.96857684,18.4377939 C8.59181506,19.3192374 8.40343417,19.9976348 8.40343417,20.4729863 C8.40343417,20.9483377 8.59181506,21.6267352 8.96857684,22.5081787" id="Path-6" stroke="#FFFFFF" stroke-linecap="round"></path>
                    <path d="M47.6574722,16.3803788 C47.937826,16.727955 48.1009156,17.1678432 48.1009156,17.6362297 L48.1009156,23.3399443 L23.8365746,37.989132 C23.3480818,38.2840513 22.7568773,38.3562718 22.2117551,38.1876171 L3.56313701,32.4179442 C3.14429254,32.2883584 2.858703,31.9010545 2.858703,31.4626219 L2.858703,25.5663386 C2.858703,25.2927973 2.9753392,25.0322339 3.1793515,24.8500148 L3.33379156,24.7120725 C3.44425537,24.6134088 3.56533713,24.5273209 3.69480947,24.4553925 L6.15207604,23.090257" id="Path" stroke="#FFFFFF" stroke-linecap="round"></path>
                    <path d="M3.5,24.563619 L20.9303584,29.9429342 C22.1988785,30.3344218 23.0592553,31.5130838 23.0455175,32.8405691 L22.993773,37.8406685 L22.993773,37.8406685" id="Path-3" stroke="#FFFFFF" stroke-linecap="round"></path>
                    <path d="M21.1767711,32.2000002 C20.79985,33.0981562 20.6113894,33.7763575 20.6113894,34.2346041 C20.6113894,34.6928507 20.79985,35.371052 21.1767711,36.2692079" id="Path-5" stroke="#FFFFFF" stroke-linecap="round"></path>
                    <path d="M5.96857684,27.4377939 C5.59181506,28.3192374 5.40343417,28.9976348 5.40343417,29.4729863 C5.40343417,29.9483377 5.59181506,30.6267352 5.96857684,31.5081787" id="Path-6" stroke="#FFFFFF" stroke-linecap="round"></path>
                    <path d="M44.5488073,25.6649829 L44.5488073,25.6649829 L47.7399798,26.7410788 C48.55328,27.0153319 49.1009156,27.7779337 49.1009156,28.6362297 L49.1009156,34.3399443 L49.1009156,34.3399443 L24.8365746,48.989132 C24.3480818,49.2840513 23.7568773,49.3562718 23.2117551,49.1876171 L4.56313701,43.4179442 C4.14429254,43.2883584 3.858703,42.9010545 3.858703,42.4626219 L3.858703,36.5663386 C3.858703,36.2927973 3.9753392,36.0322339 4.1793515,35.8500148 L4.33379156,35.7120725 C4.44425537,35.6134088 4.56533713,35.5273209 4.69480947,35.4553925 L7.8328742,33.7120393 L7.8328742,33.7120393" id="Path" stroke="#FFFFFF" stroke-linecap="round"></path>
                    <path d="M4.5,35.563619 L21.9303584,40.9429342 C23.1988785,41.3344218 24.0592553,42.5130838 24.0455175,43.8405691 L23.993773,48.8406685 L23.993773,48.8406685" id="Path-3" stroke="#FFFFFF" stroke-linecap="round"></path>
                    <line x1="27.969792" y1="39.8424482" x2="44.6439285" y2="29.7211403" id="Path-4" stroke="#FFFFFF" stroke-linecap="round"></line>
                    <path d="M22.1767711,43.2000002 C21.79985,44.0981562 21.6113894,44.7763575 21.6113894,45.2346041 C21.6113894,45.6928507 21.79985,46.371052 22.1767711,47.2692079" id="Path-5" stroke="#FFFFFF" stroke-linecap="round"></path>
                    <path d="M6.96857684,38.4377939 C6.59181506,39.3192374 6.40343417,39.9976348 6.40343417,40.4729863 C6.40343417,40.9483377 6.59181506,41.6267352 6.96857684,42.5081787" id="Path-6" stroke="#FFFFFF" stroke-linecap="round"></path>
                    <path d="M45.6574722,36.3803788 C45.937826,36.727955 46.1009156,37.1678432 46.1009156,37.6362297 L46.1009156,43.3399443 L21.8365746,57.989132 C21.3480818,58.2840513 20.7568773,58.3562718 20.2117551,58.1876171 L1.56313701,52.4179442 C1.14429254,52.2883584 0.858703003,51.9010545 0.858703003,51.4626219 L0.858703003,45.5663386 C0.858703003,45.2927973 0.9753392,45.0322339 1.1793515,44.8500148 L1.33379156,44.7120725 C1.44425537,44.6134088 1.56533713,44.5273209 1.69480947,44.4553925 L4.15207604,43.090257" id="Path" stroke="#FFFFFF" stroke-linecap="round"></path>
                    <path d="M1.5,44.563619 L18.9303584,49.9429342 C20.1988785,50.3344218 21.0592553,51.5130838 21.0455175,52.8405691 L20.993773,57.8406685 L20.993773,57.8406685" id="Path-3" stroke="#FFFFFF" stroke-linecap="round"></path>
                    <path d="M19.1767711,52.2000002 C18.79985,53.0981562 18.6113894,53.7763575 18.6113894,54.2346041 C18.6113894,54.6928507 18.79985,55.371052 19.1767711,56.2692079" id="Path-5" stroke="#FFFFFF" stroke-linecap="round"></path>
                    <path d="M3.96857684,47.4377939 C3.59181506,48.3192374 3.40343417,48.9976348 3.40343417,49.4729863 C3.40343417,49.9483377 3.59181506,50.6267352 3.96857684,51.5081787" id="Path-6" stroke="#FFFFFF" stroke-linecap="round"></path>
                </g>
            </g>
        </g>
    </g>
</svg>
