<?xml version="1.0" encoding="UTF-8"?>
<svg width="184px" height="121px" viewBox="0 0 184 121" version="1.1" xmlns="http://www.w3.org/2000/svg" xmlns:xlink="http://www.w3.org/1999/xlink">
    <!-- Generator: Sketch 63.1 (92452) - https://sketch.com -->
    <title>killer</title>
    <desc>Created with Sketch.</desc>
    <g id="Charts-remake" stroke="none" stroke-width="1" fill="none" fill-rule="evenodd">
        <g id="culture" transform="translate(-635.000000, -645.000000)" stroke="#FFFFFF">
            <g id="killer" transform="translate(636.000000, 646.000000)">
                <g id="graphics" stroke-width="1.4">
                    <g id="figure_1" transform="translate(0.129140, -0.000000)" stroke-linecap="round" stroke-linejoin="round">
                        <polyline id="Stroke-1" points="6.57822014 6.23964014 6.57822014 22.0147405 17.9181204 22.0147405 17.9181204 15.0308403"></polyline>
                        <polygon id="Stroke-2" points="10.1541002 18.2479004 14.3418003 18.2479004 14.3418003 14.0602003 10.1541002 14.0602003"></polygon>
                        <polyline id="Stroke-3" points="3.60151008 13.7720003 3.67741008 13.7038003 3.60151008 13.6202003 12.0968103 6.03460013 12.1727103 6.10170013 12.2486103 6.03460013 20.7428104 13.6202003 20.6669104 13.7038003 20.7428104 13.7720003"></polyline>
                        <polygon id="Stroke-4" points="1.71951346e-13 36.3231008 24.3441005 36.3231008 24.3441005 3.51718662e-13 1.71951346e-13 3.51718662e-13"></polygon>
                        <line x1="5.35568012" y1="27.9065606" x2="18.9879804" y2="27.9065606" id="Stroke-6"></line>
                        <line x1="5.35568012" y1="31.5847407" x2="18.9879804" y2="31.5847407" id="Stroke-7"></line>
                        <path d="M28.7006506,3.09639007 L33.3195507,3.09639007 L33.3195507,27.0642906 C33.3195507,31.8437907 28.7006506,31.8437907 28.7006506,27.0642906 L28.7006506,3.09639007 Z" id="Stroke-8"></path>
                        <polyline id="Stroke-10" points="36.3248608 15.8237203 36.3413608 6.87082015 28.6721606 6.87082015"></polyline>
                        <line x1="30.9323307" y1="33.2282507" x2="30.9323307" y2="30.6465507" id="Stroke-12"></line>
                    </g>
                    <g id="figure_2" transform="translate(73.828702, 0.000330)" stroke-linecap="round" stroke-linejoin="round">
                        <polyline id="Stroke-1" points="8.59320019 5.95221013 8.59320019 21.7273105 19.9342004 21.7273105 19.9342004 14.7434103"></polyline>
                        <polygon id="Stroke-2" points="12.1697403 17.9604704 16.3585404 17.9604704 16.3585404 13.7716703 12.1697403 13.7716703"></polygon>
                        <polyline id="Stroke-3" points="5.61704012 13.4852303 5.69294012 13.4170303 5.61704012 13.3334303 14.1123403 5.74673012 14.1882403 5.81383013 14.2630403 5.74673012 22.7583405 13.3334303 22.6824405 13.4170303 22.7583405 13.4852303"></polyline>
                        <polygon id="Stroke-4" points="35.2939408 31.8726107 31.8850407 35.2826108 23.1312405 26.5288106 26.5962406 23.1749105"></polygon>
                        <path d="M14.5046003,6.64357472e-13 C22.5148005,6.64357472e-13 29.0092006,6.49440014 29.0092006,14.5046003 C29.0092006,22.5148005 22.5148005,29.0092006 14.5046003,29.0092006 C6.49440014,29.0092006 1.64135376e-13,22.5148005 1.64135376e-13,14.5046003 C1.64135376e-13,6.49440014 6.49440014,6.64357472e-13 14.5046003,6.64357472e-13 Z" id="Stroke-6"></path>
                    </g>
                    <g id="figure_3" transform="translate(145.637143, 2.508440)" stroke-linecap="round" stroke-linejoin="round">
                        <path d="M18.0851004,3.92752506e-13 L34.2804007,3.92752506e-13 C35.3199008,3.92752506e-13 36.1702008,0.849200018 36.1702008,1.88980004 L36.1702008,18.0851004" id="Path"></path>
                        <path d="M34.2804007,36.1702008 L18.0851004,36.1702008 L18.0851004,30.2511007 C17.8838004,29.5955006 17.2271004,29.1291006 16.4494004,29.1489006 C14.9567003,29.1863006 14.8951003,31.1278007 12.2298003,31.1278007 C10.0199002,31.1278007 8.22910018,29.3370006 8.22910018,27.1271006 C8.22910018,24.9172005 10.0199002,23.1264005 12.2298003,23.1264005 C14.6597003,23.1264005 14.9039003,24.9073005 16.4494004,24.8688005 C17.0170004,24.8545005 17.7452004,24.3771005 18.0851004,23.9448005 L18.0851004,18.0851004 L24.4024005,18.0851004 C24.6598005,18.4371004 24.8600005,18.8683004 24.8688005,19.2335004 C24.9073005,20.7779005 23.1264005,21.0232005 23.1264005,23.4520005 C23.1264005,25.6619006 24.9172005,27.4538006 27.1271006,27.4538006 C29.3370006,27.4538006 31.1289007,25.6619006 31.1289007,23.4520005 C31.1289007,20.7878005 29.1874006,20.7262004 29.1489006,19.2335004 C29.1379006,18.7902004 29.2842006,18.3876004 29.5339006,18.0851004 L36.1702008,18.0851004 L36.1702008,34.2804007 C36.1702008,35.3199008 35.3199008,36.1702008 34.2804007,36.1702008 Z" id="Path"></path>
                        <path d="M18.0851004,36.1702008 L1.88980004,36.1702008 C0.850300018,36.1702008 -1.07469591e-13,35.3199008 -1.07469591e-13,34.2804007 L-1.07469591e-13,18.0851004" id="Path"></path>
                        <path d="M1.88980004,3.92752506e-13 L18.0851004,3.92752506e-13 L18.0851004,5.91800013 C18.2875004,6.57360014 18.9431004,7.04000015 19.7208004,7.02130015 C21.2146005,6.98280015 21.2762005,5.04130011 23.9404005,5.04130011 C26.1503006,5.04130011 27.9411006,6.83210015 27.9411006,9.0431002 C27.9411006,11.2519002 26.1503006,13.0438003 23.9404005,13.0438003 C21.5105005,13.0438003 21.2663005,11.2629002 19.7208004,11.3003002 C19.1532004,11.3146002 18.4250004,11.7931003 18.0851004,12.2243003 L18.0851004,18.0851004 L11.7678003,18.0851004 C11.5104002,17.7331004 11.3102002,17.3019004 11.3014002,16.9367004 C11.2629002,15.3923003 13.0438003,15.1470003 13.0438003,12.7171003 C13.0438003,10.5072002 11.2530002,8.71640019 9.0431002,8.71640019 C6.83320015,8.71640019 5.04240011,10.5072002 5.04240011,12.7171003 C5.04240011,15.3813003 6.98390015,15.4429003 7.02130015,16.9367004 C7.03340015,17.3789004 6.88600015,17.7826004 6.63740014,18.0851004 L-8.79296655e-14,18.0851004 L-8.79296655e-14,1.88980004 C-8.79296655e-14,0.849200018 0.850300018,3.92752506e-13 1.88980004,3.92752506e-13 Z" id="Path"></path>
                    </g>
                    <g id="figure_4" transform="translate(-0.000000, 72.600442)" stroke-linecap="round" stroke-linejoin="round">
                        <path d="M11.2080102,5.25338011 L32.3698107,0.0283800006 L37.5948108,21.1901805 L18.8552104,25.8167806 C17.5231104,26.1467806 16.1646104,25.3250805 15.8357103,23.9940805 L11.2080102,5.25338011 Z" id="Stroke-1"></path>
                        <path d="M12.8225903,28.2051006 C14.4945903,27.7926006 16.1830904,28.8123006 16.5966904,30.4843007 C17.0091904,32.1563007 15.9883903,33.8448007 14.3163903,34.2573007 C12.6454903,34.6709008 10.9558902,33.6501007 10.5433902,31.9792007 C10.1308902,30.3072007 11.1505902,28.6176006 12.8225903,28.2051006 Z" id="Stroke-3"></path>
                        <polyline id="Stroke-5" points="11.7656003 24.4926005 5.61440012 0.00990000022 -4.68958216e-14 7.91366989e-13"></polyline>
                        <line x1="20.3722204" y1="29.6391706" x2="36.6632208" y2="25.6175706" id="Stroke-7"></line>
                        <line x1="25.2910905" y1="17.7895304" x2="23.1361905" y2="9.0588302" id="Stroke-9"></line>
                        <polyline id="Stroke-11" points="20.1820304 14.0243403 23.1355305 9.0589402 28.0602306 12.0784403"></polyline>
                        <path d="M67.9977115,13.7772803 L73.5219116,13.7012755 C74.3568116,13.6903803 75.8044116,14.5472803 76.2884117,15.2204803 L79.1209117,19.1518804 C79.9734117,20.3343804 80.4640117,21.8589805 80.4640117,23.3164805 L80.4640117,27.7505806 C80.4640117,28.5832806 79.7787117,29.2685806 78.9449117,29.2685806 L78.0825117,29.2685806 C77.3642117,26.7341806 75.0333116,24.8795805 72.2701116,24.8795805 C69.5058115,24.8795805 67.1760115,26.7341806 66.4588114,29.2685806 L59.2340113,29.2685806 C58.5168113,26.7341806 56.1870112,24.8795805 53.4227112,24.8795805 C50.6584111,24.8795805 48.328611,26.7341806 47.610311,29.2685806 L46.747911,29.2685806 C45.914111,29.2685806 45.229911,28.5854806 45.229911,27.7505806 L45.229911,19.0715804 C45.229911,19.9064804 45.915211,20.5895804 46.747911,20.5895804 L66.4797114,20.5895804 C67.3113115,20.5895804 67.9977115,19.9031804 67.9977115,19.0715804 L67.9977115,13.7772803 Z" id="Stroke-13"></path>
                        <path d="M72.2698916,28.1138006 C73.9924916,28.1138006 75.3883916,29.5097006 75.3883916,31.2312007 C75.3883916,32.9527007 73.9924916,34.3497007 72.2698916,34.3497007 C70.5494915,34.3497007 69.1524915,32.9527007 69.1524915,31.2312007 C69.1524915,29.5097006 70.5494915,28.1138006 72.2698916,28.1138006 Z" id="Stroke-15"></path>
                        <path d="M53.4227112,28.1138006 C55.1442112,28.1138006 56.5412112,29.5097006 56.5412112,31.2312007 C56.5412112,32.9527007 55.1442112,34.3497007 53.4227112,34.3497007 C51.7012111,34.3497007 50.3042111,32.9527007 50.3042111,31.2312007 C50.3042111,29.5097006 51.7012111,28.1138006 53.4227112,28.1138006 Z" id="Stroke-17"></path>
                        <path d="M46.747471,1.77716004 L66.4792714,1.77716004 C67.3141715,1.77716004 67.9972715,2.46356005 67.9972715,3.29626007 L67.9972715,18.9008604 C67.9972715,19.7335604 67.3108715,20.4199604 66.4792714,20.4199604 L46.747471,20.4199604 C45.914771,20.4199604 45.229471,19.7368604 45.229471,18.9008604 L45.229471,3.29626007 C45.229471,2.46026005 45.912571,1.77716004 46.747471,1.77716004 Z" id="Stroke-19"></path>
                    </g>
                    <g id="figure_5" transform="translate(115.787411, 60.658313)">
                        <path d="M56.2971432,42.9861089 L58.7358432,40.5507088 C62.9378433,36.3553088 60.8599433,30.6837086 57.4752432,27.0449085 C56.3587432,25.8448085 55.0838432,24.8053085 53.7638431,24.0650085 C52.0445431,23.1014085 46.652343,21.6901084 43.1268429,25.1221085 L35.8096427,32.4030087 C33.8351427,34.3676087 38.8192428,36.2706087 41.3415429,33.7835087 L43.1851429,31.9663087 C45.908743,29.4968086 49.330843,34.4457087 53.5955431,31.0808086" id="Stroke-1" stroke-linecap="round" stroke-linejoin="round"></path>
                        <path d="M27.8142926,41.8345189 L25.3799925,39.4035188 C17.2663923,31.3020186 31.3188926,17.3925183 39.5534928,25.4082185 L41.1935929,27.0406185" id="Stroke-3" stroke-linecap="round" stroke-linejoin="round"></path>
                        <path d="M47.079803,33.7305987 L56.5013032,43.6085989 C58.4252032,45.624899 55.5696032,49.463899 53.1012031,46.917399 L48.684703,42.3644989" id="Stroke-5" stroke-linecap="round" stroke-linejoin="round"></path>
                        <path d="M44.8358029,45.4331689 L49.690103,50.4205691 C51.6338031,52.4181691 55.5696032,49.465769 53.1012031,46.918169 L48.355803,42.0209689" id="Stroke-7" stroke-linecap="round" stroke-linejoin="round"></path>
                        <path d="M43.3603729,50.9450491 L45.785873,53.3903491 C47.748273,55.3681492 51.5586731,52.5444491 49.111173,49.973749" id="Stroke-9" stroke-linecap="round" stroke-linejoin="round"></path>
                        <path d="M42.8344082,51.7023166 L43.0940082,51.9608167 C43.9696082,52.8375167 43.9663082,54.2763167 43.0940082,55.1497167 L40.8434081,57.3992168 C39.9700081,58.2726168 38.5301081,58.2737168 37.655608,57.3992168 L37.397108,57.1396168 C36.523708,56.2662167 36.520408,54.8296167 37.397108,53.9529167 L39.6466081,51.7023166 C40.5233081,50.8256166 41.9588081,50.8267166 42.8344082,51.7023166 Z" id="Path"></path>
                        <path d="M40.4782081,46.9371165 L40.7378081,47.1956166 C41.6145081,48.0723166 41.6134081,49.5089166 40.7378081,50.3845166 L37.073708,54.0486167 C36.198108,54.9242167 34.760408,54.9242167 33.885908,54.0486167 L33.626308,53.7890167 C32.7507079,52.9145167 32.7507079,51.4790166 33.626308,50.6023166 L37.290408,46.9371165 C38.167108,46.0604165 39.6026081,46.0604165 40.4782081,46.9371165 Z" id="Path"></path>
                        <path d="M38.2936081,41.9431164 L38.5532081,42.2016164 C39.4299081,43.0783165 39.4266081,44.5160165 38.5521081,45.3894165 L33.2083079,50.7343166 C32.3338079,51.6077166 30.8939079,51.6077166 30.0205079,50.7343166 L29.7609079,50.4758166 C28.8875078,49.6013166 28.8842078,48.1647166 29.7609079,47.2880166 L35.106908,41.9431164 C35.982508,41.0664164 37.418008,41.0653164 38.2936081,41.9431164 Z" id="Path"></path>
                        <path d="M32.6495079,40.4064164 L32.9080079,40.6660164 C33.782508,41.5405164 33.781408,42.9793165 32.9080079,43.8527165 L29.5530079,47.2099166 C28.6796078,48.0833166 27.2397078,48.0855166 26.3652078,47.2099166 L26.1056078,46.9514165 C25.2322078,46.0769165 25.2300078,44.6403165 26.1056078,43.7636165 L29.4617079,40.4064164 C30.3384079,39.5308164 31.7739079,39.5319164 32.6495079,40.4064164 Z" id="Path"></path>
                        <polyline id="Path" stroke-linecap="round" stroke-linejoin="round" points="7.33563645 19.5407532 7.33563645 40.9207945 26.8148544 40.9207945"></polyline>
                        <line x1="35.2839982" y1="22.6461891" x2="35.2839982" y2="19.5407532" id="Path" stroke-linecap="round" stroke-linejoin="round"></line>
                        <polyline id="Path" stroke-linecap="round" stroke-linejoin="round" points="26.4687736 25.9206945 26.4687736 21.3165493 16.149013 21.3165493 16.149013 31.6363099 23.0599563 31.6363099"></polyline>
                        <polyline id="Stroke-4" stroke-linecap="round" stroke-linejoin="round" points="7.33563645 12.1919167 7.33563645 0.000396000024 13.1660768 0.000396000024 13.1660768 6.95283643"></polyline>
                        <polygon id="Stroke-6" stroke-linecap="round" stroke-linejoin="round" points="42.2452826 18.6978011 42.0565226 18.9037212 42.2452826 19.0713612 39.1102824 22.5944414 21.1226413 6.5696404 3.13500019 22.5944414 -1.95399257e-14 19.0713612 0.187440012 18.9037212 -1.95399257e-14 18.6978011 20.9352013 4.10338439e-14 21.1226413 0.16764001 21.3100813 4.10338439e-14"></polygon>
                    </g>
                </g>
                <g id="arrows" opacity="0.400000006" transform="translate(46.637141, 17.724167)" stroke-width="1.65000004">
                    <line x1="1.25055524e-13" y1="3.48427346" x2="13.1357906" y2="3.48427346" id="Path-66"></line>
                    <polyline id="Path-67" points="9.61318976 -2.29726583e-12 13.1357906 3.48427346 9.61318976 6.98855744"></polyline>
                    <line x1="46.200001" y1="70.7685483" x2="59.3357916" y2="70.7685483" id="Path-66"></line>
                    <polyline id="Path-67" points="55.8131908 67.2842748 59.3357916 70.7685483 55.8131908 74.2728323"></polyline>
                    <line x1="71.5000015" y1="3.48427346" x2="84.6357922" y2="3.48427346" id="Path-66"></line>
                    <polyline id="Path-67" points="81.1131913 -2.29726583e-12 84.6357922 3.48427346 81.1131913 6.98855744"></polyline>
                </g>
            </g>
        </g>
    </g>
</svg>