<?xml version="1.0" encoding="UTF-8"?>
<svg width="129px" height="111px" viewBox="0 0 129 111" version="1.1" xmlns="http://www.w3.org/2000/svg" xmlns:xlink="http://www.w3.org/1999/xlink">
    <!-- Generator: Sketch 63.1 (92452) - https://sketch.com -->
    <desc>Created with Sketch.</desc>
    <g id="Charts-remake" stroke="none" stroke-width="1" fill="none" fill-rule="evenodd">
        <g id="Simpler" transform="translate(-635.000000, -665.000000)">
            <g id="graphics" transform="translate(633.000000, 666.000000)">
                <g id="figure_1" transform="translate(0.824655, 9.950000)">
                    <path d="M13.5321169,75.5986471 C14.5194486,75.8845222 15.6897437,76.0500022 16.9444902,76.0500022 C20.4742661,76.0500022 23.3357149,74.740435 23.3357149,73.1250021" id="Path" stroke="#FFFFFF" stroke-width="0.819000023"></path>
                    <line x1="23.3357149" y1="69.615002" x2="23.3357149" y2="73.2111249" id="Path-13-Copy" stroke="#FFFFFF" stroke-width="0.819000023"></line>
                    <path d="M16.4704752,72.5320791 C16.6269819,72.5373303 16.7850543,72.5400021 16.9444902,72.5400021 C20.4742661,72.5400021 23.3357149,71.2304349 23.3357149,69.615002" id="Path" stroke="#FFFFFF" stroke-width="0.819000023"></path>
                    <line x1="23.3357149" y1="66.1050019" x2="23.3357149" y2="69.7011248" id="Path-13-Copy" stroke="#FFFFFF" stroke-width="0.819000023"></line>
                    <path d="M16.3971064,69.0194243 C16.5775355,69.0264284 16.760101,69.030002 16.9444902,69.030002 C20.4742661,69.030002 23.3357149,67.7204348 23.3357149,66.1050019" id="Path" stroke="#FFFFFF" stroke-width="0.819000023"></path>
                    <line x1="23.3357149" y1="62.5950018" x2="23.3357149" y2="66.1911247" id="Path-13-Copy" stroke="#FFFFFF" stroke-width="0.819000023"></line>
                    <path d="M16.3898656,65.5091412 C16.5726507,65.516332 16.757634,65.5200019 16.9444902,65.5200019 C20.4742661,65.5200019 23.3357149,64.2104347 23.3357149,62.5950018" id="Path" stroke="#FFFFFF" stroke-width="0.819000023"></path>
                    <line x1="23.3357149" y1="59.0850017" x2="23.3357149" y2="62.6811246" id="Path-13-Copy" stroke="#FFFFFF" stroke-width="0.819000023"></line>
                    <path d="M16.3819332,61.9988268 C16.5672983,62.006225 16.7549305,62.0100018 16.9444902,62.0100018 C20.4742661,62.0100018 23.3357149,60.7004346 23.3357149,59.0850017" id="Path" stroke="#FFFFFF" stroke-width="0.819000023"></path>
                    <line x1="23.3357149" y1="55.5750016" x2="23.3357149" y2="59.1711245" id="Path-13-Copy" stroke="#FFFFFF" stroke-width="0.819000023"></line>
                    <path d="M16.4153825,58.4901214 C16.589861,58.4966652 16.7663242,58.5000017 16.9444902,58.5000017 C20.4742661,58.5000017 23.3357149,57.1904345 23.3357149,55.5750016" id="Path" stroke="#FFFFFF" stroke-width="0.819000023"></path>
                    <line x1="23.3357149" y1="52.0650015" x2="23.3357149" y2="55.6611244" id="Path-13-Copy" stroke="#FFFFFF" stroke-width="0.819000023"></line>
                    <path d="M16.4608207,54.9817514 C16.6204805,54.9872187 16.7817752,54.9900016 16.9444902,54.9900016 C20.4742661,54.9900016 23.3357149,53.6804344 23.3357149,52.0650015" id="Path" stroke="#FFFFFF" stroke-width="0.819000023"></path>
                    <line x1="23.3357149" y1="48.5550014" x2="23.3357149" y2="52.1511243" id="Path-13-Copy" stroke="#FFFFFF" stroke-width="0.819000023"></line>
                    <path d="M16.3906104,51.4691701 C16.5731532,51.4763416 16.7578878,51.4800015 16.9444902,51.4800015 C20.4742661,51.4800015 23.3357149,50.1704343 23.3357149,48.5550014" id="Path" stroke="#FFFFFF" stroke-width="0.819000023"></path>
                    <line x1="23.3357149" y1="45.0450013" x2="23.3357149" y2="48.6411242" id="Path-13-Copy" stroke="#FFFFFF" stroke-width="0.819000023"></line>
                    <path d="M16.4326692,47.9607587 C16.601514,47.9668816 16.772206,47.9700014 16.9444902,47.9700014 C20.4742661,47.9700014 23.3357149,46.6604342 23.3357149,45.0450013" id="Path" stroke="#FFFFFF" stroke-width="0.819000023"></path>
                    <line x1="23.3357149" y1="41.5350012" x2="23.3357149" y2="45.1311241" id="Path-13-Copy" stroke="#FFFFFF" stroke-width="0.819000023"></line>
                    <path d="M16.3482735,44.4474421 C16.5445742,44.455753 16.7434482,44.4600013 16.9444902,44.4600013 C20.4742661,44.4600013 23.3357149,43.1504341 23.3357149,41.5350012" id="Path" stroke="#FFFFFF" stroke-width="0.819000023"></path>
                    <line x1="10.5532655" y1="38.0250011" x2="10.5532655" y2="42.5350012" id="Path-13" stroke="#FFFFFF" stroke-width="0.819000023"></line>
                    <line x1="23.3357149" y1="38.0250011" x2="23.3357149" y2="41.621124" id="Path-13-Copy" stroke="#FFFFFF" stroke-width="0.819000023"></line>
                    <path d="M10.5532655,38.0250011 C10.5532655,39.640434 13.4147143,40.9500012 16.9444902,40.9500012 C20.4742661,40.9500012 23.3357149,39.640434 23.3357149,38.0250011" id="Path" stroke="#FFFFFF" stroke-width="0.819000023"></path>
                    <line x1="10.5532655" y1="34.515001" x2="10.5532655" y2="38.0250011" id="Path-13" stroke="#FFFFFF" stroke-width="0.819000023"></line>
                    <line x1="23.3357149" y1="34.515001" x2="23.3357149" y2="38.1111239" id="Path-13-Copy" stroke="#FFFFFF" stroke-width="0.819000023"></line>
                    <path d="M10.5532655,34.515001 C10.5532655,36.1304339 13.4147143,37.4400011 16.9444902,37.4400011 C20.4742661,37.4400011 23.3357149,36.1304339 23.3357149,34.515001" id="Path" stroke="#FFFFFF" stroke-width="0.819000023"></path>
                    <line x1="10.5532655" y1="31.0050009" x2="10.5532655" y2="34.515001" id="Path-13" stroke="#FFFFFF" stroke-width="0.819000023"></line>
                    <line x1="23.3357149" y1="31.0050009" x2="23.3357149" y2="34.6011238" id="Path-13-Copy" stroke="#FFFFFF" stroke-width="0.819000023"></line>
                    <path d="M10.5532655,31.0050009 C10.5532655,32.6204338 13.4147143,33.930001 16.9444902,33.930001 C20.4742661,33.930001 23.3357149,32.6204338 23.3357149,31.0050009" id="Path" stroke="#FFFFFF" stroke-width="0.819000023"></path>
                    <line x1="10.5532655" y1="27.4950008" x2="10.5532655" y2="31.0050009" id="Path-13" stroke="#FFFFFF" stroke-width="0.819000023"></line>
                    <line x1="23.3357149" y1="27.4950008" x2="23.3357149" y2="31.0911237" id="Path-13-Copy" stroke="#FFFFFF" stroke-width="0.819000023"></line>
                    <path d="M10.5532655,27.4950008 C10.5532655,29.1104337 13.4147143,30.4200009 16.9444902,30.4200009 C20.4742661,30.4200009 23.3357149,29.1104337 23.3357149,27.4950008" id="Path" stroke="#FFFFFF" stroke-width="0.819000023"></path>
                    <line x1="10.5532655" y1="23.9850007" x2="10.5532655" y2="27.4950008" id="Path-13" stroke="#FFFFFF" stroke-width="0.819000023"></line>
                    <line x1="23.3357149" y1="23.9850007" x2="23.3357149" y2="27.5811236" id="Path-13-Copy" stroke="#FFFFFF" stroke-width="0.819000023"></line>
                    <path d="M10.5532655,23.9850007 C10.5532655,25.6004336 13.4147143,26.9100008 16.9444902,26.9100008 C20.4742661,26.9100008 23.3357149,25.6004336 23.3357149,23.9850007" id="Path" stroke="#FFFFFF" stroke-width="0.819000023"></path>
                    <line x1="10.5532655" y1="20.4750006" x2="10.5532655" y2="23.9850007" id="Path-13" stroke="#FFFFFF" stroke-width="0.819000023"></line>
                    <line x1="23.3357149" y1="20.4750006" x2="23.3357149" y2="24.0711235" id="Path-13-Copy" stroke="#FFFFFF" stroke-width="0.819000023"></line>
                    <path d="M10.5532655,20.4750006 C10.5532655,22.0904335 13.4147143,23.4000007 16.9444902,23.4000007 C20.4742661,23.4000007 23.3357149,22.0904335 23.3357149,20.4750006" id="Path" stroke="#FFFFFF" stroke-width="0.819000023"></path>
                    <line x1="10.5532655" y1="16.9650005" x2="10.5532655" y2="20.4750006" id="Path-13" stroke="#FFFFFF" stroke-width="0.819000023"></line>
                    <line x1="23.3357149" y1="16.9650005" x2="23.3357149" y2="20.5611234" id="Path-13-Copy" stroke="#FFFFFF" stroke-width="0.819000023"></line>
                    <path d="M10.5532655,16.9650005 C10.5532655,18.5804334 13.4147143,19.8900006 16.9444902,19.8900006 C20.4742661,19.8900006 23.3357149,18.5804334 23.3357149,16.9650005" id="Path" stroke="#FFFFFF" stroke-width="0.819000023"></path>
                    <line x1="10.5532655" y1="13.4550004" x2="10.5532655" y2="16.9650005" id="Path-13" stroke="#FFFFFF" stroke-width="0.819000023"></line>
                    <line x1="23.3357149" y1="13.4550004" x2="23.3357149" y2="17.0511233" id="Path-13-Copy" stroke="#FFFFFF" stroke-width="0.819000023"></line>
                    <path d="M10.5532655,13.4550004 C10.5532655,15.0704333 13.4147143,16.3800005 16.9444902,16.3800005 C20.4742661,16.3800005 23.3357149,15.0704333 23.3357149,13.4550004" id="Path" stroke="#FFFFFF" stroke-width="0.819000023"></path>
                    <line x1="10.5532655" y1="9.94500028" x2="10.5532655" y2="13.4550004" id="Path-13" stroke="#FFFFFF" stroke-width="0.819000023"></line>
                    <line x1="23.3357149" y1="9.94500028" x2="23.3357149" y2="13.5411232" id="Path-13-Copy" stroke="#FFFFFF" stroke-width="0.819000023"></line>
                    <path d="M10.5532655,9.94500028 C10.5532655,11.5604332 13.4147143,12.8700004 16.9444902,12.8700004 C20.4742661,12.8700004 23.3357149,11.5604332 23.3357149,9.94500028" id="Path" stroke="#FFFFFF" stroke-width="0.819000023"></path>
                    <line x1="10.5532655" y1="6.43500018" x2="10.5532655" y2="9.94500028" id="Path-13" stroke="#FFFFFF" stroke-width="0.819000023"></line>
                    <line x1="23.3357149" y1="6.43500018" x2="23.3357149" y2="10.0311231" id="Path-13-Copy" stroke="#FFFFFF" stroke-width="0.819000023"></line>
                    <path d="M10.5532655,6.43500018 C10.5532655,8.05043312 13.4147143,9.36000027 16.9444902,9.36000027 C20.4742661,9.36000027 23.3357149,8.05043312 23.3357149,6.43500018" id="Path" stroke="#FFFFFF" stroke-width="0.819000023"></path>
                    <line x1="10.5532655" y1="2.92500008" x2="10.5532655" y2="6.43500018" id="Path-13" stroke="#FFFFFF" stroke-width="0.819000023"></line>
                    <line x1="23.3357149" y1="2.92500008" x2="23.3357149" y2="6.52112303" id="Path-13-Copy" stroke="#FFFFFF" stroke-width="0.819000023"></line>
                    <ellipse id="Oval" stroke="#FFFFFF" stroke-width="0.819000023" cx="16.9444902" cy="2.92500008" rx="6.39122467" ry="2.92500008"></ellipse>
                    <path d="M3.58102042,73.1250021 C3.58102042,74.740435 6.44246918,76.0500022 9.9722451,76.0500022 C13.502021,76.0500022 16.3634698,74.740435 16.3634698,73.1250021" id="Path" stroke="#FFFFFF" stroke-width="0.819000023"></path>
                    <line x1="3.58102042" y1="69.615002" x2="3.58102042" y2="73.1250021" id="Path-13" stroke="#FFFFFF" stroke-width="0.819000023"></line>
                    <line x1="16.3634698" y1="69.615002" x2="16.3634698" y2="73.2111249" id="Path-13-Copy" stroke="#FFFFFF" stroke-width="0.819000023"></line>
                    <path d="M3.58102042,69.615002 C3.58102042,71.2304349 6.44246918,72.5400021 9.9722451,72.5400021 C13.502021,72.5400021 16.3634698,71.2304349 16.3634698,69.615002" id="Path" stroke="#FFFFFF" stroke-width="0.819000023"></path>
                    <line x1="3.58102042" y1="66.1050019" x2="3.58102042" y2="69.615002" id="Path-13" stroke="#FFFFFF" stroke-width="0.819000023"></line>
                    <line x1="16.3634698" y1="66.1050019" x2="16.3634698" y2="69.7011248" id="Path-13-Copy" stroke="#FFFFFF" stroke-width="0.819000023"></line>
                    <path d="M3.58102042,66.1050019 C3.58102042,67.7204348 6.44246918,69.030002 9.9722451,69.030002 C13.502021,69.030002 16.3634698,67.7204348 16.3634698,66.1050019" id="Path" stroke="#FFFFFF" stroke-width="0.819000023"></path>
                    <line x1="3.58102042" y1="62.5950018" x2="3.58102042" y2="66.1050019" id="Path-13" stroke="#FFFFFF" stroke-width="0.819000023"></line>
                    <line x1="16.3634698" y1="62.5950018" x2="16.3634698" y2="66.1911247" id="Path-13-Copy" stroke="#FFFFFF" stroke-width="0.819000023"></line>
                    <path d="M3.58102042,62.5950018 C3.58102042,64.2104347 6.44246918,65.5200019 9.9722451,65.5200019 C13.502021,65.5200019 16.3634698,64.2104347 16.3634698,62.5950018" id="Path" stroke="#FFFFFF" stroke-width="0.819000023"></path>
                    <line x1="3.58102042" y1="59.0850017" x2="3.58102042" y2="62.5950018" id="Path-13" stroke="#FFFFFF" stroke-width="0.819000023"></line>
                    <line x1="16.3634698" y1="59.0850017" x2="16.3634698" y2="62.6811246" id="Path-13-Copy" stroke="#FFFFFF" stroke-width="0.819000023"></line>
                    <path d="M3.58102042,59.0850017 C3.58102042,60.7004346 6.44246918,62.0100018 9.9722451,62.0100018 C13.502021,62.0100018 16.3634698,60.7004346 16.3634698,59.0850017" id="Path" stroke="#FFFFFF" stroke-width="0.819000023"></path>
                    <line x1="3.58102042" y1="55.5750016" x2="3.58102042" y2="59.0850017" id="Path-13" stroke="#FFFFFF" stroke-width="0.819000023"></line>
                    <line x1="16.3634698" y1="55.5750016" x2="16.3634698" y2="59.1711245" id="Path-13-Copy" stroke="#FFFFFF" stroke-width="0.819000023"></line>
                    <path d="M3.58102042,55.5750016 C3.58102042,57.1904345 6.44246918,58.5000017 9.9722451,58.5000017 C13.502021,58.5000017 16.3634698,57.1904345 16.3634698,55.5750016" id="Path" stroke="#FFFFFF" stroke-width="0.819000023"></path>
                    <line x1="3.58102042" y1="52.0650015" x2="3.58102042" y2="55.5750016" id="Path-13" stroke="#FFFFFF" stroke-width="0.819000023"></line>
                    <line x1="16.3634698" y1="52.0650015" x2="16.3634698" y2="55.6611244" id="Path-13-Copy" stroke="#FFFFFF" stroke-width="0.819000023"></line>
                    <path d="M3.58102042,52.0650015 C3.58102042,53.6804344 6.44246918,54.9900016 9.9722451,54.9900016 C13.502021,54.9900016 16.3634698,53.6804344 16.3634698,52.0650015" id="Path" stroke="#FFFFFF" stroke-width="0.819000023"></path>
                    <line x1="3.58102042" y1="48.5550014" x2="3.58102042" y2="52.0650015" id="Path-13" stroke="#FFFFFF" stroke-width="0.819000023"></line>
                    <line x1="16.3634698" y1="48.5550014" x2="16.3634698" y2="52.1511243" id="Path-13-Copy" stroke="#FFFFFF" stroke-width="0.819000023"></line>
                    <path d="M3.58102042,48.5550014 C3.58102042,50.1704343 6.44246918,51.4800015 9.9722451,51.4800015 C13.502021,51.4800015 16.3634698,50.1704343 16.3634698,48.5550014" id="Path" stroke="#FFFFFF" stroke-width="0.819000023"></path>
                    <line x1="3.58102042" y1="45.0450013" x2="3.58102042" y2="48.5550014" id="Path-13" stroke="#FFFFFF" stroke-width="0.819000023"></line>
                    <line x1="16.3634698" y1="45.0450013" x2="16.3634698" y2="48.6411242" id="Path-13-Copy" stroke="#FFFFFF" stroke-width="0.819000023"></line>
                    <ellipse id="Oval" stroke="#FFFFFF" stroke-width="0.819000023" cx="9.9722451" cy="45.0450013" rx="6.39122467" ry="2.92500008"></ellipse>
                    <ellipse id="Oval" stroke="#FFFFFF" stroke-width="0.819000023" fill="#343741" cx="25.6597966" cy="70.356548" rx="6.9722451" ry="7.0200002"></ellipse>
                    <text id="CHF" font-family="OpenSans-Light, Open Sans" font-size="4.5" font-weight="300" letter-spacing="0.28846153" fill="#FFFFFF">
                        <tspan x="20.9070499" y="71.9248998">CHF</tspan>
                    </text>
                    <text id="2016" font-family="OpenSans-Light, Open Sans" font-size="12.8700006" font-weight="300" fill="#FFFFFF">
                        <tspan x="0.812292862" y="98.4388995">2016</tspan>
                    </text>
                </g>
                <g id="figure_2" transform="translate(48.306289, 20.480000)">
                    <path d="M12.1871448,64.9614062 C13.2417584,65.3127375 14.5402364,65.5200019 15.9444902,65.5200019 C19.4742661,65.5200019 22.3357149,64.2104347 22.3357149,62.5950018" id="Path" stroke="#FFFFFF" stroke-width="0.819000023"></path>
                    <line x1="22.3357149" y1="59.0850017" x2="22.3357149" y2="62.6811246" id="Path-13-Copy" stroke="#FFFFFF" stroke-width="0.819000023"></line>
                    <path d="M15.2863902,61.9946841 C15.5027438,62.0048124 15.7222928,62.0100018 15.9444902,62.0100018 C19.4742661,62.0100018 22.3357149,60.7004346 22.3357149,59.0850017" id="Path" stroke="#FFFFFF" stroke-width="0.819000023"></path>
                    <line x1="22.3357149" y1="55.5750016" x2="22.3357149" y2="59.1711245" id="Path-13-Copy" stroke="#FFFFFF" stroke-width="0.819000023"></line>
                    <path d="M15.2839141,58.4845679 C15.5010686,58.4947727 15.7214451,58.5000017 15.9444902,58.5000017 C19.4742661,58.5000017 22.3357149,57.1904345 22.3357149,55.5750016" id="Path" stroke="#FFFFFF" stroke-width="0.819000023"></path>
                    <line x1="22.3357149" y1="52.0650015" x2="22.3357149" y2="55.6611244" id="Path-13-Copy" stroke="#FFFFFF" stroke-width="0.819000023"></line>
                    <path d="M15.2805083,54.9744073 C15.4987643,54.9847177 15.720279,54.9900016 15.9444902,54.9900016 C19.4742661,54.9900016 22.3357149,53.6804344 22.3357149,52.0650015" id="Path" stroke="#FFFFFF" stroke-width="0.819000023"></path>
                    <line x1="22.3357149" y1="48.5550014" x2="22.3357149" y2="52.1511243" id="Path-13-Copy" stroke="#FFFFFF" stroke-width="0.819000023"></line>
                    <path d="M15.3987672,51.4694882 C15.5786558,51.4764498 15.7606667,51.4800015 15.9444902,51.4800015 C19.4742661,51.4800015 22.3357149,50.1704343 22.3357149,48.5550014" id="Path" stroke="#FFFFFF" stroke-width="0.819000023"></path>
                    <line x1="22.3357149" y1="45.0450013" x2="22.3357149" y2="48.6411242" id="Path-13-Copy" stroke="#FFFFFF" stroke-width="0.819000023"></line>
                    <path d="M15.3328459,47.9567804 C15.5341522,47.9655276 15.7381796,47.9700014 15.9444902,47.9700014 C19.4742661,47.9700014 22.3357149,46.6604342 22.3357149,45.0450013" id="Path" stroke="#FFFFFF" stroke-width="0.819000023"></path>
                    <line x1="22.3357149" y1="41.5350012" x2="22.3357149" y2="45.1311241" id="Path-13-Copy" stroke="#FFFFFF" stroke-width="0.819000023"></line>
                    <path d="M15.2625622,44.4435476 C15.4866186,44.4544237 15.7141312,44.4600013 15.9444902,44.4600013 C19.4742661,44.4600013 22.3357149,43.1504341 22.3357149,41.5350012" id="Path" stroke="#FFFFFF" stroke-width="0.819000023"></path>
                    <line x1="9.55326552" y1="38.0250011" x2="9.55326552" y2="42.5350012" id="Path-13" stroke="#FFFFFF" stroke-width="0.819000023"></line>
                    <line x1="22.3357149" y1="38.0250011" x2="22.3357149" y2="41.621124" id="Path-13-Copy" stroke="#FFFFFF" stroke-width="0.819000023"></line>
                    <path d="M9.55326552,38.0250011 C9.55326552,39.640434 12.4147143,40.9500012 15.9444902,40.9500012 C19.4742661,40.9500012 22.3357149,39.640434 22.3357149,38.0250011" id="Path" stroke="#FFFFFF" stroke-width="0.819000023"></path>
                    <line x1="9.55326552" y1="34.515001" x2="9.55326552" y2="38.0250011" id="Path-13" stroke="#FFFFFF" stroke-width="0.819000023"></line>
                    <line x1="22.3357149" y1="34.515001" x2="22.3357149" y2="38.1111239" id="Path-13-Copy" stroke="#FFFFFF" stroke-width="0.819000023"></line>
                    <path d="M9.55326552,34.515001 C9.55326552,36.1304339 12.4147143,37.4400011 15.9444902,37.4400011 C19.4742661,37.4400011 22.3357149,36.1304339 22.3357149,34.515001" id="Path" stroke="#FFFFFF" stroke-width="0.819000023"></path>
                    <line x1="9.55326552" y1="31.0050009" x2="9.55326552" y2="34.515001" id="Path-13" stroke="#FFFFFF" stroke-width="0.819000023"></line>
                    <line x1="22.3357149" y1="31.0050009" x2="22.3357149" y2="34.6011238" id="Path-13-Copy" stroke="#FFFFFF" stroke-width="0.819000023"></line>
                    <path d="M9.55326552,31.0050009 C9.55326552,32.6204338 12.4147143,33.930001 15.9444902,33.930001 C19.4742661,33.930001 22.3357149,32.6204338 22.3357149,31.0050009" id="Path" stroke="#FFFFFF" stroke-width="0.819000023"></path>
                    <line x1="9.55326552" y1="27.4950008" x2="9.55326552" y2="31.0050009" id="Path-13" stroke="#FFFFFF" stroke-width="0.819000023"></line>
                    <line x1="22.3357149" y1="27.4950008" x2="22.3357149" y2="31.0911237" id="Path-13-Copy" stroke="#FFFFFF" stroke-width="0.819000023"></line>
                    <path d="M9.55326552,27.4950008 C9.55326552,29.1104337 12.4147143,30.4200009 15.9444902,30.4200009 C19.4742661,30.4200009 22.3357149,29.1104337 22.3357149,27.4950008" id="Path" stroke="#FFFFFF" stroke-width="0.819000023"></path>
                    <line x1="9.55326552" y1="23.9850007" x2="9.55326552" y2="27.4950008" id="Path-13" stroke="#FFFFFF" stroke-width="0.819000023"></line>
                    <line x1="22.3357149" y1="23.9850007" x2="22.3357149" y2="27.5811236" id="Path-13-Copy" stroke="#FFFFFF" stroke-width="0.819000023"></line>
                    <path d="M9.55326552,23.9850007 C9.55326552,25.6004336 12.4147143,26.9100008 15.9444902,26.9100008 C19.4742661,26.9100008 22.3357149,25.6004336 22.3357149,23.9850007" id="Path" stroke="#FFFFFF" stroke-width="0.819000023"></path>
                    <line x1="9.55326552" y1="20.4750006" x2="9.55326552" y2="23.9850007" id="Path-13" stroke="#FFFFFF" stroke-width="0.819000023"></line>
                    <line x1="22.3357149" y1="20.4750006" x2="22.3357149" y2="24.0711235" id="Path-13-Copy" stroke="#FFFFFF" stroke-width="0.819000023"></line>
                    <path d="M9.55326552,20.4750006 C9.55326552,22.0904335 12.4147143,23.4000007 15.9444902,23.4000007 C19.4742661,23.4000007 22.3357149,22.0904335 22.3357149,20.4750006" id="Path" stroke="#FFFFFF" stroke-width="0.819000023"></path>
                    <line x1="9.55326552" y1="16.9650005" x2="9.55326552" y2="20.4750006" id="Path-13" stroke="#FFFFFF" stroke-width="0.819000023"></line>
                    <line x1="22.3357149" y1="16.9650005" x2="22.3357149" y2="20.5611234" id="Path-13-Copy" stroke="#FFFFFF" stroke-width="0.819000023"></line>
                    <path d="M9.55326552,16.9650005 C9.55326552,18.5804334 12.4147143,19.8900006 15.9444902,19.8900006 C19.4742661,19.8900006 22.3357149,18.5804334 22.3357149,16.9650005" id="Path" stroke="#FFFFFF" stroke-width="0.819000023"></path>
                    <line x1="9.55326552" y1="13.4550004" x2="9.55326552" y2="16.9650005" id="Path-13" stroke="#FFFFFF" stroke-width="0.819000023"></line>
                    <line x1="22.3357149" y1="13.4550004" x2="22.3357149" y2="17.0511233" id="Path-13-Copy" stroke="#FFFFFF" stroke-width="0.819000023"></line>
                    <path d="M9.55326552,13.4550004 C9.55326552,15.0704333 12.4147143,16.3800005 15.9444902,16.3800005 C19.4742661,16.3800005 22.3357149,15.0704333 22.3357149,13.4550004" id="Path" stroke="#FFFFFF" stroke-width="0.819000023"></path>
                    <line x1="9.55326552" y1="9.94500028" x2="9.55326552" y2="13.4550004" id="Path-13" stroke="#FFFFFF" stroke-width="0.819000023"></line>
                    <line x1="22.3357149" y1="9.94500028" x2="22.3357149" y2="13.5411232" id="Path-13-Copy" stroke="#FFFFFF" stroke-width="0.819000023"></line>
                    <path d="M9.55326552,9.94500028 C9.55326552,11.5604332 12.4147143,12.8700004 15.9444902,12.8700004 C19.4742661,12.8700004 22.3357149,11.5604332 22.3357149,9.94500028" id="Path" stroke="#FFFFFF" stroke-width="0.819000023"></path>
                    <line x1="9.55326552" y1="6.43500018" x2="9.55326552" y2="9.94500028" id="Path-13" stroke="#FFFFFF" stroke-width="0.819000023"></line>
                    <line x1="22.3357149" y1="6.43500018" x2="22.3357149" y2="10.0311231" id="Path-13-Copy" stroke="#FFFFFF" stroke-width="0.819000023"></line>
                    <path d="M9.55326552,6.43500018 C9.55326552,8.05043312 12.4147143,9.36000027 15.9444902,9.36000027 C19.4742661,9.36000027 22.3357149,8.05043312 22.3357149,6.43500018" id="Path" stroke="#FFFFFF" stroke-width="0.819000023"></path>
                    <line x1="9.55326552" y1="2.92500008" x2="9.55326552" y2="6.43500018" id="Path-13" stroke="#FFFFFF" stroke-width="0.819000023"></line>
                    <line x1="22.3357149" y1="2.92500008" x2="22.3357149" y2="6.52112303" id="Path-13-Copy" stroke="#FFFFFF" stroke-width="0.819000023"></line>
                    <ellipse id="Oval" stroke="#FFFFFF" stroke-width="0.819000023" cx="15.9444902" cy="2.92500008" rx="6.39122467" ry="2.92500008"></ellipse>
                    <path d="M2.58102042,62.5950018 C2.58102042,64.2104347 5.44246918,65.5200019 8.9722451,65.5200019 C12.502021,65.5200019 15.3634698,64.2104347 15.3634698,62.5950018" id="Path" stroke="#FFFFFF" stroke-width="0.819000023"></path>
                    <line x1="2.58102042" y1="59.0850017" x2="2.58102042" y2="62.5950018" id="Path-13" stroke="#FFFFFF" stroke-width="0.819000023"></line>
                    <line x1="15.3634698" y1="59.0850017" x2="15.3634698" y2="62.6811246" id="Path-13-Copy" stroke="#FFFFFF" stroke-width="0.819000023"></line>
                    <path d="M2.58102042,59.0850017 C2.58102042,60.7004346 5.44246918,62.0100018 8.9722451,62.0100018 C12.502021,62.0100018 15.3634698,60.7004346 15.3634698,59.0850017" id="Path" stroke="#FFFFFF" stroke-width="0.819000023"></path>
                    <line x1="2.58102042" y1="55.5750016" x2="2.58102042" y2="59.0850017" id="Path-13" stroke="#FFFFFF" stroke-width="0.819000023"></line>
                    <line x1="15.3634698" y1="55.5750016" x2="15.3634698" y2="59.1711245" id="Path-13-Copy" stroke="#FFFFFF" stroke-width="0.819000023"></line>
                    <path d="M2.58102042,55.5750016 C2.58102042,57.1904345 5.44246918,58.5000017 8.9722451,58.5000017 C12.502021,58.5000017 15.3634698,57.1904345 15.3634698,55.5750016" id="Path" stroke="#FFFFFF" stroke-width="0.819000023"></path>
                    <line x1="2.58102042" y1="52.0650015" x2="2.58102042" y2="55.5750016" id="Path-13" stroke="#FFFFFF" stroke-width="0.819000023"></line>
                    <line x1="15.3634698" y1="52.0650015" x2="15.3634698" y2="55.6611244" id="Path-13-Copy" stroke="#FFFFFF" stroke-width="0.819000023"></line>
                    <path d="M2.58102042,52.0650015 C2.58102042,53.6804344 5.44246918,54.9900016 8.9722451,54.9900016 C12.502021,54.9900016 15.3634698,53.6804344 15.3634698,52.0650015" id="Path" stroke="#FFFFFF" stroke-width="0.819000023"></path>
                    <line x1="2.58102042" y1="48.5550014" x2="2.58102042" y2="52.0650015" id="Path-13" stroke="#FFFFFF" stroke-width="0.819000023"></line>
                    <line x1="15.3634698" y1="48.5550014" x2="15.3634698" y2="52.1511243" id="Path-13-Copy" stroke="#FFFFFF" stroke-width="0.819000023"></line>
                    <path d="M2.58102042,48.5550014 C2.58102042,50.1704343 5.44246918,51.4800015 8.9722451,51.4800015 C12.502021,51.4800015 15.3634698,50.1704343 15.3634698,48.5550014" id="Path" stroke="#FFFFFF" stroke-width="0.819000023"></path>
                    <line x1="2.58102042" y1="45.0450013" x2="2.58102042" y2="48.5550014" id="Path-13" stroke="#FFFFFF" stroke-width="0.819000023"></line>
                    <line x1="15.3634698" y1="45.0450013" x2="15.3634698" y2="48.6411242" id="Path-13-Copy" stroke="#FFFFFF" stroke-width="0.819000023"></line>
                    <ellipse id="Oval" stroke="#FFFFFF" stroke-width="0.819000023" cx="8.9722451" cy="45.0450013" rx="6.39122467" ry="2.92500008"></ellipse>
                    <ellipse id="Oval" stroke="#FFFFFF" stroke-width="0.819000023" fill="#343741" cx="24.6597966" cy="59.8265477" rx="6.9722451" ry="7.0200002"></ellipse>
                    <text id="CHF" font-family="OpenSans-Light, Open Sans" font-size="4.5" font-weight="300" letter-spacing="0.28846153" fill="#FFFFFF">
                        <tspan x="19.9070499" y="61.3948995">CHF</tspan>
                    </text>
                    <text id="2017" font-family="OpenSans-Light, Open Sans" font-size="12.8700006" font-weight="300" fill="#FFFFFF">
                        <tspan x="0.242248216" y="87.9088992">2017</tspan>
                    </text>
                </g>
                <g id="figure_3" transform="translate(98.000000, 0.000000)">
                    <path d="M14.5397626,85.7957173 C15.4834018,86.0898339 16.6234514,86.261759 17.8512417,86.261759 C21.104283,86.261759 23.7413941,85.054862 23.7413941,83.5660791" id="Path" stroke="#FFFFFF" stroke-width="0.754790392"></path>
                    <line x1="23.7413941" y1="80.3312631" x2="23.7413941" y2="83.6454499" id="Path-13-Copy" stroke="#FFFFFF" stroke-width="0.754790392"></line>
                    <path d="M17.3562599,83.0175594 C17.519455,83.0237737 17.6845396,83.0269431 17.8512417,83.0269431 C21.104283,83.0269431 23.7413941,81.820046 23.7413941,80.3312631" id="Path" stroke="#FFFFFF" stroke-width="0.754790392"></path>
                    <line x1="23.7413941" y1="77.0964471" x2="23.7413941" y2="80.4106339" id="Path-13-Copy" stroke="#FFFFFF" stroke-width="0.754790392"></line>
                    <path d="M17.3176801,79.7812163 C17.4934236,79.7884381 17.6713913,79.7921271 17.8512417,79.7921271 C21.104283,79.7921271 23.7413941,78.5852301 23.7413941,77.0964471" id="Path" stroke="#FFFFFF" stroke-width="0.754790392"></path>
                    <line x1="23.7413941" y1="73.8616312" x2="23.7413941" y2="77.175818" id="Path-13-Copy" stroke="#FFFFFF" stroke-width="0.754790392"></line>
                    <path d="M17.315576,76.5463137 C17.492003,76.5535926 17.6706735,76.5573111 17.8512417,76.5573111 C21.104283,76.5573111 23.7413941,75.3504141 23.7413941,73.8616312" id="Path" stroke="#FFFFFF" stroke-width="0.754790392"></path>
                    <line x1="23.7413941" y1="70.6268152" x2="23.7413941" y2="73.941002" id="Path-13-Copy" stroke="#FFFFFF" stroke-width="0.754790392"></line>
                    <path d="M17.3186356,73.3116236 C17.4940686,73.3188195 17.6717172,73.3224952 17.8512417,73.3224952 C21.104283,73.3224952 23.7413941,72.1155981 23.7413941,70.6268152" id="Path" stroke="#FFFFFF" stroke-width="0.754790392"></path>
                    <line x1="23.7413941" y1="67.3919992" x2="23.7413941" y2="70.706186" id="Path-13-Copy" stroke="#FFFFFF" stroke-width="0.754790392"></line>
                    <path d="M17.3257061,70.0770957 C17.4988413,70.0841016 17.6741286,70.0876792 17.8512417,70.0876792 C21.104283,70.0876792 23.7413941,68.8807822 23.7413941,67.3919992" id="Path" stroke="#FFFFFF" stroke-width="0.754790392"></path>
                    <line x1="23.7413941" y1="64.1571833" x2="23.7413941" y2="67.4713701" id="Path-13-Copy" stroke="#FFFFFF" stroke-width="0.754790392"></line>
                    <path d="M17.4069917,66.8453111 C17.5536444,66.850316 17.701793,66.8528633 17.8512417,66.8528633 C21.104283,66.8528633 23.7413941,65.6459662 23.7413941,64.1571833" id="Path" stroke="#FFFFFF" stroke-width="0.754790392"></path>
                    <line x1="23.7413941" y1="60.9223673" x2="23.7413941" y2="64.2365541" id="Path-13-Copy" stroke="#FFFFFF" stroke-width="0.754790392"></line>
                    <path d="M17.3667567,63.6090591 C17.5265329,63.6150123 17.6881129,63.6180473 17.8512417,63.6180473 C21.104283,63.6180473 23.7413941,62.4111503 23.7413941,60.9223673" id="Path" stroke="#FFFFFF" stroke-width="0.754790392"></path>
                    <line x1="23.7413941" y1="57.6875514" x2="23.7413941" y2="61.0017381" id="Path-13-Copy" stroke="#FFFFFF" stroke-width="0.754790392"></line>
                    <path d="M17.3731146,60.3744784 C17.530819,60.3802763 17.6902763,60.3832313 17.8512417,60.3832313 C21.104283,60.3832313 23.7413941,59.1763343 23.7413941,57.6875514" id="Path" stroke="#FFFFFF" stroke-width="0.754790392"></path>
                    <line x1="23.7413941" y1="54.4527354" x2="23.7413941" y2="57.7669222" id="Path-13-Copy" stroke="#FFFFFF" stroke-width="0.754790392"></line>
                    <path d="M17.3782248,57.1398493 C17.5342634,57.1455239 17.6920147,57.1484154 17.8512417,57.1484154 C21.104283,57.1484154 23.7413941,55.9415183 23.7413941,54.4527354" id="Path" stroke="#FFFFFF" stroke-width="0.754790392"></path>
                    <line x1="23.7413941" y1="51.2179194" x2="23.7413941" y2="54.5321062" id="Path-13-Copy" stroke="#FFFFFF" stroke-width="0.754790392"></line>
                    <path d="M17.3405011,53.903606 C17.5088252,53.9102226 17.6791718,53.9135994 17.8512417,53.9135994 C21.104283,53.9135994 23.7413941,52.7067024 23.7413941,51.2179194" id="Path" stroke="#FFFFFF" stroke-width="0.754790392"></path>
                    <line x1="23.7413941" y1="47.9831035" x2="23.7413941" y2="51.2972902" id="Path-13-Copy" stroke="#FFFFFF" stroke-width="0.754790392"></line>
                    <path d="M17.3550072,50.669352 C17.5186102,50.6755978 17.684113,50.6787834 17.8512417,50.6787834 C21.104283,50.6787834 23.7413941,49.4718864 23.7413941,47.9831035" id="Path" stroke="#FFFFFF" stroke-width="0.754790392"></path>
                    <line x1="23.7413941" y1="44.7482875" x2="23.7413941" y2="48.0624743" id="Path-13-Copy" stroke="#FFFFFF" stroke-width="0.754790392"></line>
                    <path d="M17.3563254,47.4345863 C17.5194992,47.4407989 17.6845619,47.4439675 17.8512417,47.4439675 C21.104283,47.4439675 23.7413941,46.2370704 23.7413941,44.7482875" id="Path" stroke="#FFFFFF" stroke-width="0.754790392"></path>
                    <line x1="23.7413941" y1="41.5134715" x2="23.7413941" y2="44.8276583" id="Path-13-Copy" stroke="#FFFFFF" stroke-width="0.754790392"></line>
                    <path d="M17.2652536,44.1959787 C17.458004,44.2046913 17.6534847,44.2091515 17.8512417,44.2091515 C21.104283,44.2091515 23.7413941,43.0022545 23.7413941,41.5134715" id="Path" stroke="#FFFFFF" stroke-width="0.754790392"></path>
                    <line x1="11.9610892" y1="38.2786556" x2="11.9610892" y2="42.0526075" id="Path-13" stroke="#FFFFFF" stroke-width="0.754790392"></line>
                    <line x1="23.7413941" y1="38.2786556" x2="23.7413941" y2="41.5928424" id="Path-13-Copy" stroke="#FFFFFF" stroke-width="0.754790392"></line>
                    <path d="M11.9610892,38.2786556 C11.9610892,39.7674385 14.5982003,40.9743355 17.8512417,40.9743355 C21.104283,40.9743355 23.7413941,39.7674385 23.7413941,38.2786556" id="Path" stroke="#FFFFFF" stroke-width="0.754790392"></path>
                    <line x1="11.9610892" y1="35.0438396" x2="11.9610892" y2="38.2786556" id="Path-13" stroke="#FFFFFF" stroke-width="0.754790392"></line>
                    <line x1="23.7413941" y1="35.0438396" x2="23.7413941" y2="38.3580264" id="Path-13-Copy" stroke="#FFFFFF" stroke-width="0.754790392"></line>
                    <path d="M11.9610892,35.0438396 C11.9610892,36.5326225 14.5982003,37.7395196 17.8512417,37.7395196 C21.104283,37.7395196 23.7413941,36.5326225 23.7413941,35.0438396" id="Path" stroke="#FFFFFF" stroke-width="0.754790392"></path>
                    <line x1="11.9610892" y1="31.8090236" x2="11.9610892" y2="35.0438396" id="Path-13" stroke="#FFFFFF" stroke-width="0.754790392"></line>
                    <line x1="23.7413941" y1="31.8090236" x2="23.7413941" y2="35.1232104" id="Path-13-Copy" stroke="#FFFFFF" stroke-width="0.754790392"></line>
                    <path d="M11.9610892,31.8090236 C11.9610892,33.2978066 14.5982003,34.5047036 17.8512417,34.5047036 C21.104283,34.5047036 23.7413941,33.2978066 23.7413941,31.8090236" id="Path" stroke="#FFFFFF" stroke-width="0.754790392"></path>
                    <line x1="11.9610892" y1="28.5742077" x2="11.9610892" y2="31.8090236" id="Path-13" stroke="#FFFFFF" stroke-width="0.754790392"></line>
                    <line x1="23.7413941" y1="28.5742077" x2="23.7413941" y2="31.8883945" id="Path-13-Copy" stroke="#FFFFFF" stroke-width="0.754790392"></line>
                    <path d="M11.9610892,28.5742077 C11.9610892,30.0629906 14.5982003,31.2698876 17.8512417,31.2698876 C21.104283,31.2698876 23.7413941,30.0629906 23.7413941,28.5742077" id="Path" stroke="#FFFFFF" stroke-width="0.754790392"></path>
                    <line x1="11.9610892" y1="25.3393917" x2="11.9610892" y2="28.5742077" id="Path-13" stroke="#FFFFFF" stroke-width="0.754790392"></line>
                    <line x1="23.7413941" y1="25.3393917" x2="23.7413941" y2="28.6535785" id="Path-13-Copy" stroke="#FFFFFF" stroke-width="0.754790392"></line>
                    <path d="M11.9610892,25.3393917 C11.9610892,26.8281747 14.5982003,28.0350717 17.8512417,28.0350717 C21.104283,28.0350717 23.7413941,26.8281747 23.7413941,25.3393917" id="Path" stroke="#FFFFFF" stroke-width="0.754790392"></path>
                    <line x1="11.9610892" y1="22.1045758" x2="11.9610892" y2="25.3393917" id="Path-13" stroke="#FFFFFF" stroke-width="0.754790392"></line>
                    <line x1="23.7413941" y1="22.1045758" x2="23.7413941" y2="25.4187625" id="Path-13-Copy" stroke="#FFFFFF" stroke-width="0.754790392"></line>
                    <path d="M11.9610892,22.1045758 C11.9610892,23.5933587 14.5982003,24.8002557 17.8512417,24.8002557 C21.104283,24.8002557 23.7413941,23.5933587 23.7413941,22.1045758" id="Path" stroke="#FFFFFF" stroke-width="0.754790392"></path>
                    <line x1="11.9610892" y1="18.8697598" x2="11.9610892" y2="22.1045758" id="Path-13" stroke="#FFFFFF" stroke-width="0.754790392"></line>
                    <line x1="23.7413941" y1="18.8697598" x2="23.7413941" y2="22.1839466" id="Path-13-Copy" stroke="#FFFFFF" stroke-width="0.754790392"></line>
                    <path d="M11.9610892,18.8697598 C11.9610892,20.3585427 14.5982003,21.5654398 17.8512417,21.5654398 C21.104283,21.5654398 23.7413941,20.3585427 23.7413941,18.8697598" id="Path" stroke="#FFFFFF" stroke-width="0.754790392"></path>
                    <line x1="11.9610892" y1="15.6349438" x2="11.9610892" y2="18.8697598" id="Path-13" stroke="#FFFFFF" stroke-width="0.754790392"></line>
                    <line x1="23.7413941" y1="15.6349438" x2="23.7413941" y2="18.9491306" id="Path-13-Copy" stroke="#FFFFFF" stroke-width="0.754790392"></line>
                    <path d="M11.9610892,15.6349438 C11.9610892,17.1237268 14.5982003,18.3306238 17.8512417,18.3306238 C21.104283,18.3306238 23.7413941,17.1237268 23.7413941,15.6349438" id="Path" stroke="#FFFFFF" stroke-width="0.754790392"></path>
                    <line x1="11.9610892" y1="12.4001279" x2="11.9610892" y2="15.6349438" id="Path-13" stroke="#FFFFFF" stroke-width="0.754790392"></line>
                    <line x1="23.7413941" y1="12.4001279" x2="23.7413941" y2="15.7143146" id="Path-13-Copy" stroke="#FFFFFF" stroke-width="0.754790392"></line>
                    <path d="M11.9610892,12.4001279 C11.9610892,13.8889108 14.5982003,15.0958078 17.8512417,15.0958078 C21.104283,15.0958078 23.7413941,13.8889108 23.7413941,12.4001279" id="Path" stroke="#FFFFFF" stroke-width="0.754790392"></path>
                    <line x1="11.9610892" y1="9.1653119" x2="11.9610892" y2="12.4001279" id="Path-13" stroke="#FFFFFF" stroke-width="0.754790392"></line>
                    <line x1="23.7413941" y1="9.1653119" x2="23.7413941" y2="12.4794987" id="Path-13-Copy" stroke="#FFFFFF" stroke-width="0.754790392"></line>
                    <path d="M11.9610892,9.1653119 C11.9610892,10.6540948 14.5982003,11.8609919 17.8512417,11.8609919 C21.104283,11.8609919 23.7413941,10.6540948 23.7413941,9.1653119" id="Path" stroke="#FFFFFF" stroke-width="0.754790392"></path>
                    <line x1="11.9610892" y1="5.93049593" x2="11.9610892" y2="9.1653119" id="Path-13" stroke="#FFFFFF" stroke-width="0.754790392"></line>
                    <line x1="23.7413941" y1="5.93049593" x2="23.7413941" y2="9.24468271" id="Path-13-Copy" stroke="#FFFFFF" stroke-width="0.754790392"></line>
                    <ellipse id="Oval-Copy-19" stroke="#FFFFFF" stroke-width="0.754790392" cx="17.8512417" cy="2.69567997" rx="5.89015242" ry="2.69567997"></ellipse>
                    <path d="M11.9610892,5.93049593 C11.9610892,7.41927887 14.5982003,8.6261759 17.8512417,8.6261759 C21.104283,8.6261759 23.7413941,7.41927887 23.7413941,5.93049593" id="Path-Copy-3" stroke="#FFFFFF" stroke-width="0.754790392"></path>
                    <line x1="11.9610892" y1="2.69567997" x2="11.9610892" y2="5.93049593" id="Path-13-Copy-7" stroke="#FFFFFF" stroke-width="0.754790392"></line>
                    <line x1="23.7413941" y1="2.69567997" x2="23.7413941" y2="6.00986675" id="Path-13-Copy-6" stroke="#FFFFFF" stroke-width="0.754790392"></line>
                    <path d="M5.5354684,83.5660791 C5.5354684,85.054862 8.17257947,86.261759 11.4256208,86.261759 C14.6786622,86.261759 17.3157732,85.054862 17.3157732,83.5660791" id="Path" stroke="#FFFFFF" stroke-width="0.754790392"></path>
                    <line x1="5.5354684" y1="80.3312631" x2="5.5354684" y2="83.5660791" id="Path-13" stroke="#FFFFFF" stroke-width="0.754790392"></line>
                    <line x1="17.3157732" y1="80.3312631" x2="17.3157732" y2="83.6454499" id="Path-13-Copy" stroke="#FFFFFF" stroke-width="0.754790392"></line>
                    <path d="M5.5354684,80.3312631 C5.5354684,81.820046 8.17257947,83.0269431 11.4256208,83.0269431 C14.6786622,83.0269431 17.3157732,81.820046 17.3157732,80.3312631" id="Path" stroke="#FFFFFF" stroke-width="0.754790392"></path>
                    <line x1="5.5354684" y1="77.0964471" x2="5.5354684" y2="80.3312631" id="Path-13" stroke="#FFFFFF" stroke-width="0.754790392"></line>
                    <line x1="17.3157732" y1="77.0964471" x2="17.3157732" y2="80.4106339" id="Path-13-Copy" stroke="#FFFFFF" stroke-width="0.754790392"></line>
                    <path d="M5.5354684,77.0964471 C5.5354684,78.5852301 8.17257947,79.7921271 11.4256208,79.7921271 C14.6786622,79.7921271 17.3157732,78.5852301 17.3157732,77.0964471" id="Path" stroke="#FFFFFF" stroke-width="0.754790392"></path>
                    <line x1="5.5354684" y1="73.8616312" x2="5.5354684" y2="77.0964471" id="Path-13" stroke="#FFFFFF" stroke-width="0.754790392"></line>
                    <line x1="17.3157732" y1="73.8616312" x2="17.3157732" y2="77.175818" id="Path-13-Copy" stroke="#FFFFFF" stroke-width="0.754790392"></line>
                    <path d="M5.5354684,73.8616312 C5.5354684,75.3504141 8.17257947,76.5573111 11.4256208,76.5573111 C14.6786622,76.5573111 17.3157732,75.3504141 17.3157732,73.8616312" id="Path" stroke="#FFFFFF" stroke-width="0.754790392"></path>
                    <line x1="5.5354684" y1="70.6268152" x2="5.5354684" y2="73.8616312" id="Path-13" stroke="#FFFFFF" stroke-width="0.754790392"></line>
                    <line x1="17.3157732" y1="70.6268152" x2="17.3157732" y2="73.941002" id="Path-13-Copy" stroke="#FFFFFF" stroke-width="0.754790392"></line>
                    <path d="M5.5354684,70.6268152 C5.5354684,72.1155981 8.17257947,73.3224952 11.4256208,73.3224952 C14.6786622,73.3224952 17.3157732,72.1155981 17.3157732,70.6268152" id="Path" stroke="#FFFFFF" stroke-width="0.754790392"></path>
                    <line x1="5.5354684" y1="67.3919992" x2="5.5354684" y2="70.6268152" id="Path-13" stroke="#FFFFFF" stroke-width="0.754790392"></line>
                    <line x1="17.3157732" y1="67.3919992" x2="17.3157732" y2="70.706186" id="Path-13-Copy" stroke="#FFFFFF" stroke-width="0.754790392"></line>
                    <path d="M5.5354684,67.3919992 C5.5354684,68.8807822 8.17257947,70.0876792 11.4256208,70.0876792 C14.6786622,70.0876792 17.3157732,68.8807822 17.3157732,67.3919992" id="Path" stroke="#FFFFFF" stroke-width="0.754790392"></path>
                    <line x1="5.5354684" y1="64.1571833" x2="5.5354684" y2="67.3919992" id="Path-13" stroke="#FFFFFF" stroke-width="0.754790392"></line>
                    <line x1="17.3157732" y1="64.1571833" x2="17.3157732" y2="67.4713701" id="Path-13-Copy" stroke="#FFFFFF" stroke-width="0.754790392"></line>
                    <path d="M5.5354684,64.1571833 C5.5354684,65.6459662 8.17257947,66.8528633 11.4256208,66.8528633 C14.6786622,66.8528633 17.3157732,65.6459662 17.3157732,64.1571833" id="Path" stroke="#FFFFFF" stroke-width="0.754790392"></path>
                    <line x1="5.5354684" y1="60.9223673" x2="5.5354684" y2="64.1571833" id="Path-13" stroke="#FFFFFF" stroke-width="0.754790392"></line>
                    <line x1="17.3157732" y1="60.9223673" x2="17.3157732" y2="64.2365541" id="Path-13-Copy" stroke="#FFFFFF" stroke-width="0.754790392"></line>
                    <path d="M5.5354684,60.9223673 C5.5354684,62.4111503 8.17257947,63.6180473 11.4256208,63.6180473 C14.6786622,63.6180473 17.3157732,62.4111503 17.3157732,60.9223673" id="Path" stroke="#FFFFFF" stroke-width="0.754790392"></path>
                    <line x1="5.5354684" y1="57.6875514" x2="5.5354684" y2="60.9223673" id="Path-13" stroke="#FFFFFF" stroke-width="0.754790392"></line>
                    <line x1="17.3157732" y1="57.6875514" x2="17.3157732" y2="61.0017381" id="Path-13-Copy" stroke="#FFFFFF" stroke-width="0.754790392"></line>
                    <path d="M5.5354684,57.6875514 C5.5354684,59.1763343 8.17257947,60.3832313 11.4256208,60.3832313 C14.6786622,60.3832313 17.3157732,59.1763343 17.3157732,57.6875514" id="Path" stroke="#FFFFFF" stroke-width="0.754790392"></path>
                    <line x1="5.5354684" y1="54.4527354" x2="5.5354684" y2="57.6875514" id="Path-13" stroke="#FFFFFF" stroke-width="0.754790392"></line>
                    <line x1="17.3157732" y1="54.4527354" x2="17.3157732" y2="57.7669222" id="Path-13-Copy" stroke="#FFFFFF" stroke-width="0.754790392"></line>
                    <path d="M5.5354684,54.4527354 C5.5354684,55.9415183 8.17257947,57.1484154 11.4256208,57.1484154 C14.6786622,57.1484154 17.3157732,55.9415183 17.3157732,54.4527354" id="Path" stroke="#FFFFFF" stroke-width="0.754790392"></path>
                    <line x1="5.5354684" y1="51.2179194" x2="5.5354684" y2="54.4527354" id="Path-13" stroke="#FFFFFF" stroke-width="0.754790392"></line>
                    <line x1="17.3157732" y1="51.2179194" x2="17.3157732" y2="54.5321062" id="Path-13-Copy" stroke="#FFFFFF" stroke-width="0.754790392"></line>
                    <path d="M5.5354684,51.2179194 C5.5354684,52.7067024 8.17257947,53.9135994 11.4256208,53.9135994 C14.6786622,53.9135994 17.3157732,52.7067024 17.3157732,51.2179194" id="Path" stroke="#FFFFFF" stroke-width="0.754790392"></path>
                    <path d="M5.5354684,47.9831035 C5.5354684,49.4718864 8.17257947,50.6787834 11.4256208,50.6787834 C14.6786622,50.6787834 17.3157732,49.4718864 17.3157732,47.9831035" id="Path-Copy-2" stroke="#FFFFFF" stroke-width="0.754790392"></path>
                    <line x1="5.5354684" y1="47.9831035" x2="5.5354684" y2="51.2179194" id="Path-13" stroke="#FFFFFF" stroke-width="0.754790392"></line>
                    <line x1="17.3157732" y1="47.9831035" x2="17.3157732" y2="51.2972902" id="Path-13-Copy" stroke="#FFFFFF" stroke-width="0.754790392"></line>
                    <ellipse id="Oval-Copy-18" stroke="#FFFFFF" stroke-width="0.754790392" cx="11.4256208" cy="44.7482875" rx="5.89015242" ry="2.69567997"></ellipse>
                    <line x1="5.5354684" y1="44.7482875" x2="5.5354684" y2="47.9831035" id="Path-13-Copy-5" stroke="#FFFFFF" stroke-width="0.754790392"></line>
                    <line x1="17.3157732" y1="44.7482875" x2="17.3157732" y2="48.0624743" id="Path-13-Copy-4" stroke="#FFFFFF" stroke-width="0.754790392"></line>
                    <ellipse id="Oval" stroke="#FFFFFF" stroke-width="0.754790392" fill="#343741" cx="25.8832677" cy="81.0146719" rx="6.42562083" ry="6.46963193"></ellipse>
                    <text id="CHF" font-family="OpenSans-Light, Open Sans" font-size="4.5" font-weight="300" letter-spacing="0.313000805" fill="#FFFFFF">
                        <tspan x="21.5031366" y="82.916065">CHF</tspan>
                    </text>
                    <text id="2018" font-family="OpenSans-Light, Open Sans" font-size="12.8700006" font-weight="300" fill="#FFFFFF">
                        <tspan x="0.655739246" y="108.3889">2018</tspan>
                    </text>
                </g>
            </g>
        </g>
    </g>
</svg>
