<?xml version="1.0" encoding="UTF-8"?>
<svg width="234px" height="151px" viewBox="0 0 234 151" version="1.1" xmlns="http://www.w3.org/2000/svg" xmlns:xlink="http://www.w3.org/1999/xlink">
    <!-- Generator: Sketch 63.1 (92452) - https://sketch.com -->
    <title>graphics</title>
    <desc>Created with Sketch.</desc>
    <g id="Charts-remake" stroke="none" stroke-width="1" fill="none" fill-rule="evenodd">
        <g id="real-estate" transform="translate(-617.000000, -643.000000)">
            <g id="graphics" transform="translate(616.000000, 644.000000)">
                <g id="figure_1" transform="translate(0.824655, 42.950000)">
                    <path d="M20.5321169,64.5986471 C21.5194486,64.8845222 22.6897437,65.0500022 23.9444902,65.0500022 C27.4742661,65.0500022 30.3357149,63.740435 30.3357149,62.1250021" id="Path" stroke="#FFFFFF" stroke-width="0.819000023"></path>
                    <line x1="30.3357149" y1="58.615002" x2="30.3357149" y2="62.2111249" id="Path-13-Copy" stroke="#FFFFFF" stroke-width="0.819000023"></line>
                    <path d="M23.4704752,61.5320791 C23.6269819,61.5373303 23.7850543,61.5400021 23.9444902,61.5400021 C27.4742661,61.5400021 30.3357149,60.2304349 30.3357149,58.615002" id="Path" stroke="#FFFFFF" stroke-width="0.819000023"></path>
                    <line x1="30.3357149" y1="55.1050019" x2="30.3357149" y2="58.7011248" id="Path-13-Copy" stroke="#FFFFFF" stroke-width="0.819000023"></line>
                    <path d="M23.3971064,58.0194243 C23.5775355,58.0264284 23.760101,58.030002 23.9444902,58.030002 C27.4742661,58.030002 30.3357149,56.7204348 30.3357149,55.1050019" id="Path" stroke="#FFFFFF" stroke-width="0.819000023"></path>
                    <line x1="30.3357149" y1="51.5950018" x2="30.3357149" y2="55.1911247" id="Path-13-Copy" stroke="#FFFFFF" stroke-width="0.819000023"></line>
                    <path d="M23.3898656,54.5091412 C23.5726507,54.516332 23.757634,54.5200019 23.9444902,54.5200019 C27.4742661,54.5200019 30.3357149,53.2104347 30.3357149,51.5950018" id="Path" stroke="#FFFFFF" stroke-width="0.819000023"></path>
                    <line x1="30.3357149" y1="48.0850017" x2="30.3357149" y2="51.6811246" id="Path-13-Copy" stroke="#FFFFFF" stroke-width="0.819000023"></line>
                    <path d="M23.3819332,50.9988268 C23.5672983,51.006225 23.7549305,51.0100018 23.9444902,51.0100018 C27.4742661,51.0100018 30.3357149,49.7004346 30.3357149,48.0850017" id="Path" stroke="#FFFFFF" stroke-width="0.819000023"></path>
                    <line x1="30.3357149" y1="44.5750016" x2="30.3357149" y2="48.1711245" id="Path-13-Copy" stroke="#FFFFFF" stroke-width="0.819000023"></line>
                    <path d="M23.4153825,47.4901214 C23.589861,47.4966652 23.7663242,47.5000017 23.9444902,47.5000017 C27.4742661,47.5000017 30.3357149,46.1904345 30.3357149,44.5750016" id="Path" stroke="#FFFFFF" stroke-width="0.819000023"></path>
                    <line x1="30.3357149" y1="41.0650015" x2="30.3357149" y2="44.6611244" id="Path-13-Copy" stroke="#FFFFFF" stroke-width="0.819000023"></line>
                    <path d="M23.4608207,43.9817514 C23.6204805,43.9872187 23.7817752,43.9900016 23.9444902,43.9900016 C27.4742661,43.9900016 30.3357149,42.6804344 30.3357149,41.0650015" id="Path" stroke="#FFFFFF" stroke-width="0.819000023"></path>
                    <line x1="30.3357149" y1="37.5550014" x2="30.3357149" y2="41.1511243" id="Path-13-Copy" stroke="#FFFFFF" stroke-width="0.819000023"></line>
                    <path d="M23.3906104,40.4691701 C23.5731532,40.4763416 23.7578878,40.4800015 23.9444902,40.4800015 C27.4742661,40.4800015 30.3357149,39.1704343 30.3357149,37.5550014" id="Path" stroke="#FFFFFF" stroke-width="0.819000023"></path>
                    <line x1="30.3357149" y1="34.0450013" x2="30.3357149" y2="37.6411242" id="Path-13-Copy" stroke="#FFFFFF" stroke-width="0.819000023"></line>
                    <path d="M23.4326692,36.9607587 C23.601514,36.9668816 23.772206,36.9700014 23.9444902,36.9700014 C27.4742661,36.9700014 30.3357149,35.6604342 30.3357149,34.0450013" id="Path" stroke="#FFFFFF" stroke-width="0.819000023"></path>
                    <line x1="30.3357149" y1="30.5350012" x2="30.3357149" y2="34.1311241" id="Path-13-Copy" stroke="#FFFFFF" stroke-width="0.819000023"></line>
                    <line x1="17.5532655" y1="27.0250011" x2="17.5532655" y2="31.5350012" id="Path-13" stroke="#FFFFFF" stroke-width="0.819000023"></line>
                    <line x1="30.3357149" y1="27.0250011" x2="30.3357149" y2="30.621124" id="Path-13-Copy" stroke="#FFFFFF" stroke-width="0.819000023"></line>
                    <path d="M17.5532655,27.0250011 C17.5532655,28.640434 20.4147143,29.9500012 23.9444902,29.9500012 C27.4742661,29.9500012 30.3357149,28.640434 30.3357149,27.0250011" id="Path" stroke="#FFFFFF" stroke-width="0.819000023"></path>
                    <path d="M17.5532655,30.8250009 C17.5532655,32.4404338 20.4147143,33.750001 23.9444902,33.750001 C27.4742661,33.750001 30.3357149,32.4404338 30.3357149,30.8250009" id="Path-Copy-15" stroke="#FFFFFF" stroke-width="0.819000023"></path>
                    <line x1="17.5532655" y1="23.515001" x2="17.5532655" y2="27.0250011" id="Path-13" stroke="#FFFFFF" stroke-width="0.819000023"></line>
                    <line x1="30.3357149" y1="23.515001" x2="30.3357149" y2="27.1111239" id="Path-13-Copy" stroke="#FFFFFF" stroke-width="0.819000023"></line>
                    <path d="M17.5532655,23.515001 C17.5532655,25.1304339 20.4147143,26.4400011 23.9444902,26.4400011 C27.4742661,26.4400011 30.3357149,25.1304339 30.3357149,23.515001" id="Path" stroke="#FFFFFF" stroke-width="0.819000023"></path>
                    <line x1="17.5532655" y1="20.0050009" x2="17.5532655" y2="23.515001" id="Path-13" stroke="#FFFFFF" stroke-width="0.819000023"></line>
                    <line x1="30.3357149" y1="20.0050009" x2="30.3357149" y2="23.6011238" id="Path-13-Copy" stroke="#FFFFFF" stroke-width="0.819000023"></line>
                    <path d="M17.5532655,20.0050009 C17.5532655,21.6204338 20.4147143,22.930001 23.9444902,22.930001 C27.4742661,22.930001 30.3357149,21.6204338 30.3357149,20.0050009" id="Path" stroke="#FFFFFF" stroke-width="0.819000023"></path>
                    <line x1="17.5532655" y1="16.4950008" x2="17.5532655" y2="20.0050009" id="Path-13" stroke="#FFFFFF" stroke-width="0.819000023"></line>
                    <line x1="30.3357149" y1="16.4950008" x2="30.3357149" y2="20.0911237" id="Path-13-Copy" stroke="#FFFFFF" stroke-width="0.819000023"></line>
                    <path d="M17.5532655,16.4950008 C17.5532655,18.1104337 20.4147143,19.4200009 23.9444902,19.4200009 C27.4742661,19.4200009 30.3357149,18.1104337 30.3357149,16.4950008" id="Path" stroke="#FFFFFF" stroke-width="0.819000023"></path>
                    <line x1="17.5532655" y1="12.9850007" x2="17.5532655" y2="16.4950008" id="Path-13" stroke="#FFFFFF" stroke-width="0.819000023"></line>
                    <line x1="30.3357149" y1="12.9850007" x2="30.3357149" y2="16.5811236" id="Path-13-Copy" stroke="#FFFFFF" stroke-width="0.819000023"></line>
                    <path d="M17.5532655,12.9850007 C17.5532655,14.6004336 20.4147143,15.9100008 23.9444902,15.9100008 C27.4742661,15.9100008 30.3357149,14.6004336 30.3357149,12.9850007" id="Path" stroke="#FFFFFF" stroke-width="0.819000023"></path>
                    <line x1="17.5532655" y1="9.47500058" x2="17.5532655" y2="12.9850007" id="Path-13" stroke="#FFFFFF" stroke-width="0.819000023"></line>
                    <line x1="30.3357149" y1="9.47500058" x2="30.3357149" y2="13.0711235" id="Path-13-Copy" stroke="#FFFFFF" stroke-width="0.819000023"></line>
                    <path d="M17.5532655,9.47500058 C17.5532655,11.0904335 20.4147143,12.4000007 23.9444902,12.4000007 C27.4742661,12.4000007 30.3357149,11.0904335 30.3357149,9.47500058" id="Path" stroke="#FFFFFF" stroke-width="0.819000023"></path>
                    <line x1="17.5532655" y1="5.96500048" x2="17.5532655" y2="9.47500058" id="Path-13" stroke="#FFFFFF" stroke-width="0.819000023"></line>
                    <line x1="30.3357149" y1="5.96500048" x2="30.3357149" y2="9.56112343" id="Path-13-Copy" stroke="#FFFFFF" stroke-width="0.819000023"></line>
                    <path d="M17.5532655,5.96500048 C17.5532655,7.58043342 20.4147143,8.89000057 23.9444902,8.89000057 C27.4742661,8.89000057 30.3357149,7.58043342 30.3357149,5.96500048" id="Path" stroke="#FFFFFF" stroke-width="0.819000023"></path>
                    <line x1="17.5532655" y1="2.45500038" x2="17.5532655" y2="5.96500048" id="Path-13" stroke="#FFFFFF" stroke-width="0.819000023"></line>
                    <line x1="30.3357149" y1="2.45500038" x2="30.3357149" y2="6.05112333" id="Path-13-Copy" stroke="#FFFFFF" stroke-width="0.819000023"></line>
                    <ellipse id="Oval" stroke="#FFFFFF" stroke-width="0.819000023" cx="23.9444902" cy="2.92500008" rx="6.39122467" ry="2.92500008"></ellipse>
                    <path d="M10.5810204,62.1250021 C10.5810204,63.740435 13.4424692,65.0500022 16.9722451,65.0500022 C20.502021,65.0500022 23.3634698,63.740435 23.3634698,62.1250021" id="Path" stroke="#FFFFFF" stroke-width="0.819000023"></path>
                    <line x1="10.5810204" y1="58.615002" x2="10.5810204" y2="62.1250021" id="Path-13" stroke="#FFFFFF" stroke-width="0.819000023"></line>
                    <line x1="23.3634698" y1="58.615002" x2="23.3634698" y2="62.2111249" id="Path-13-Copy" stroke="#FFFFFF" stroke-width="0.819000023"></line>
                    <path d="M10.5810204,58.615002 C10.5810204,60.2304349 13.4424692,61.5400021 16.9722451,61.5400021 C20.502021,61.5400021 23.3634698,60.2304349 23.3634698,58.615002" id="Path" stroke="#FFFFFF" stroke-width="0.819000023"></path>
                    <line x1="10.5810204" y1="55.1050019" x2="10.5810204" y2="58.615002" id="Path-13" stroke="#FFFFFF" stroke-width="0.819000023"></line>
                    <line x1="23.3634698" y1="55.1050019" x2="23.3634698" y2="58.7011248" id="Path-13-Copy" stroke="#FFFFFF" stroke-width="0.819000023"></line>
                    <path d="M10.5810204,55.1050019 C10.5810204,56.7204348 13.4424692,58.030002 16.9722451,58.030002 C20.502021,58.030002 23.3634698,56.7204348 23.3634698,55.1050019" id="Path" stroke="#FFFFFF" stroke-width="0.819000023"></path>
                    <line x1="10.5810204" y1="51.5950018" x2="10.5810204" y2="55.1050019" id="Path-13" stroke="#FFFFFF" stroke-width="0.819000023"></line>
                    <line x1="23.3634698" y1="51.5950018" x2="23.3634698" y2="55.1911247" id="Path-13-Copy" stroke="#FFFFFF" stroke-width="0.819000023"></line>
                    <path d="M10.5810204,51.5950018 C10.5810204,53.2104347 13.4424692,54.5200019 16.9722451,54.5200019 C20.502021,54.5200019 23.3634698,53.2104347 23.3634698,51.5950018" id="Path" stroke="#FFFFFF" stroke-width="0.819000023"></path>
                    <line x1="10.5810204" y1="48.0850017" x2="10.5810204" y2="51.5950018" id="Path-13" stroke="#FFFFFF" stroke-width="0.819000023"></line>
                    <line x1="23.3634698" y1="48.0850017" x2="23.3634698" y2="51.6811246" id="Path-13-Copy" stroke="#FFFFFF" stroke-width="0.819000023"></line>
                    <path d="M10.5810204,48.0850017 C10.5810204,49.7004346 13.4424692,51.0100018 16.9722451,51.0100018 C20.502021,51.0100018 23.3634698,49.7004346 23.3634698,48.0850017" id="Path" stroke="#FFFFFF" stroke-width="0.819000023"></path>
                    <line x1="10.5810204" y1="44.5750016" x2="10.5810204" y2="48.0850017" id="Path-13" stroke="#FFFFFF" stroke-width="0.819000023"></line>
                    <line x1="23.3634698" y1="44.5750016" x2="23.3634698" y2="48.1711245" id="Path-13-Copy" stroke="#FFFFFF" stroke-width="0.819000023"></line>
                    <path d="M10.5810204,44.5750016 C10.5810204,46.1904345 13.4424692,47.5000017 16.9722451,47.5000017 C20.502021,47.5000017 23.3634698,46.1904345 23.3634698,44.5750016" id="Path" stroke="#FFFFFF" stroke-width="0.819000023"></path>
                    <line x1="10.5810204" y1="41.0650015" x2="10.5810204" y2="44.5750016" id="Path-13" stroke="#FFFFFF" stroke-width="0.819000023"></line>
                    <line x1="23.3634698" y1="41.0650015" x2="23.3634698" y2="44.6611244" id="Path-13-Copy" stroke="#FFFFFF" stroke-width="0.819000023"></line>
                    <path d="M10.5810204,41.0650015 C10.5810204,42.6804344 13.4424692,43.9900016 16.9722451,43.9900016 C20.502021,43.9900016 23.3634698,42.6804344 23.3634698,41.0650015" id="Path" stroke="#FFFFFF" stroke-width="0.819000023"></path>
                    <line x1="10.5810204" y1="37.5550014" x2="10.5810204" y2="41.0650015" id="Path-13" stroke="#FFFFFF" stroke-width="0.819000023"></line>
                    <line x1="23.3634698" y1="37.5550014" x2="23.3634698" y2="41.1511243" id="Path-13-Copy" stroke="#FFFFFF" stroke-width="0.819000023"></line>
                    <ellipse id="Oval" stroke="#FFFFFF" stroke-width="0.819000023" cx="16.9722451" cy="37.0450013" rx="6.39122467" ry="2.92500008"></ellipse>
                    <ellipse id="Oval" stroke="#FFFFFF" stroke-width="0.819000023" fill="#343741" cx="32.6597966" cy="59.356548" rx="6.9722451" ry="7.0200002"></ellipse>
                    <text id="CHF" font-family="OpenSans-Light, Open Sans" font-size="4.5" font-weight="300" letter-spacing="0.28846153" fill="#FFFFFF">
                        <tspan x="27.9070499" y="60.9248998">CHF</tspan>
                    </text>
                    <text id="Aargau" font-family="OpenSans-Light, Open Sans" font-size="12.8700006" font-weight="300" fill="#FFFFFF">
                        <tspan x="1.00909463" y="87.4388995">Aargau</tspan>
                    </text>
                    <line x1="17.5532655" y1="30.0250011" x2="17.5532655" y2="34.5350012" id="Path-13-Copy-32" stroke="#FFFFFF" stroke-width="0.819000023"></line>
                </g>
                <g id="figure_2" transform="translate(52.306289, 30.480000)">
                    <path d="M17.1871448,76.9614062 C18.2417584,77.3127375 19.5402364,77.5200019 20.9444902,77.5200019 C24.4742661,77.5200019 27.3357149,76.2104347 27.3357149,74.5950018" id="Path" stroke="#FFFFFF" stroke-width="0.819000023"></path>
                    <line x1="27.3357149" y1="71.0850017" x2="27.3357149" y2="74.6811246" id="Path-13-Copy" stroke="#FFFFFF" stroke-width="0.819000023"></line>
                    <path d="M20.2863902,73.9946841 C20.5027438,74.0048124 20.7222928,74.0100018 20.9444902,74.0100018 C24.4742661,74.0100018 27.3357149,72.7004346 27.3357149,71.0850017" id="Path" stroke="#FFFFFF" stroke-width="0.819000023"></path>
                    <line x1="27.3357149" y1="67.5750016" x2="27.3357149" y2="71.1711245" id="Path-13-Copy" stroke="#FFFFFF" stroke-width="0.819000023"></line>
                    <path d="M20.2839141,70.4845679 C20.5010686,70.4947727 20.7214451,70.5000017 20.9444902,70.5000017 C24.4742661,70.5000017 27.3357149,69.1904345 27.3357149,67.5750016" id="Path" stroke="#FFFFFF" stroke-width="0.819000023"></path>
                    <line x1="27.3357149" y1="64.0650015" x2="27.3357149" y2="67.6611244" id="Path-13-Copy" stroke="#FFFFFF" stroke-width="0.819000023"></line>
                    <path d="M20.2805083,66.9744073 C20.4987643,66.9847177 20.720279,66.9900016 20.9444902,66.9900016 C24.4742661,66.9900016 27.3357149,65.6804344 27.3357149,64.0650015" id="Path" stroke="#FFFFFF" stroke-width="0.819000023"></path>
                    <line x1="27.3357149" y1="60.5550014" x2="27.3357149" y2="64.1511243" id="Path-13-Copy" stroke="#FFFFFF" stroke-width="0.819000023"></line>
                    <path d="M20.3987672,63.4694882 C20.5786558,63.4764498 20.7606667,63.4800015 20.9444902,63.4800015 C24.4742661,63.4800015 27.3357149,62.1704343 27.3357149,60.5550014" id="Path" stroke="#FFFFFF" stroke-width="0.819000023"></path>
                    <line x1="27.3357149" y1="57.0450013" x2="27.3357149" y2="60.6411242" id="Path-13-Copy" stroke="#FFFFFF" stroke-width="0.819000023"></line>
                    <path d="M20.3328459,59.9567804 C20.5341522,59.9655276 20.7381796,59.9700014 20.9444902,59.9700014 C24.4742661,59.9700014 27.3357149,58.6604342 27.3357149,57.0450013" id="Path" stroke="#FFFFFF" stroke-width="0.819000023"></path>
                    <line x1="27.3357149" y1="53.5350012" x2="27.3357149" y2="57.1311241" id="Path-13-Copy" stroke="#FFFFFF" stroke-width="0.819000023"></line>
                    <path d="M20.2625622,56.4435476 C20.4866186,56.4544237 20.7141312,56.4600013 20.9444902,56.4600013 C24.4742661,56.4600013 27.3357149,55.1504341 27.3357149,53.5350012" id="Path" stroke="#FFFFFF" stroke-width="0.819000023"></path>
                    <line x1="27.3357149" y1="50.0250011" x2="27.3357149" y2="53.621124" id="Path-13-Copy" stroke="#FFFFFF" stroke-width="0.819000023"></line>
                    <path d="M20.335646,52.9369016 C20.5360441,52.9455688 20.7391361,52.9500012 20.9444902,52.9500012 C24.4742661,52.9500012 27.3357149,51.640434 27.3357149,50.0250011" id="Path" stroke="#FFFFFF" stroke-width="0.819000023"></path>
                    <line x1="27.3357149" y1="46.515001" x2="27.3357149" y2="50.1111239" id="Path-13-Copy" stroke="#FFFFFF" stroke-width="0.819000023"></line>
                    <path d="M20.1897002,49.4198175 C20.437245,49.4331465 20.6891185,49.4400011 20.9444902,49.4400011 C24.4742661,49.4400011 27.3357149,48.1304339 27.3357149,46.515001" id="Path" stroke="#FFFFFF" stroke-width="0.819000023"></path>
                    <line x1="27.3357149" y1="43.0050009" x2="27.3357149" y2="46.6011238" id="Path-13-Copy" stroke="#FFFFFF" stroke-width="0.819000023"></line>
                    <path d="M20.4156745,45.9201317 C20.5900578,45.9266683 20.7664236,45.930001 20.9444902,45.930001 C24.4742661,45.930001 27.3357149,44.6204338 27.3357149,43.0050009" id="Path" stroke="#FFFFFF" stroke-width="0.819000023"></path>
                    <line x1="14.5532655" y1="39.4950008" x2="14.5532655" y2="42.0050009" id="Path-13" stroke="#FFFFFF" stroke-width="0.819000023"></line>
                    <line x1="27.3357149" y1="39.4950008" x2="27.3357149" y2="43.0911237" id="Path-13-Copy" stroke="#FFFFFF" stroke-width="0.819000023"></line>
                    <path d="M14.5532655,39.4950008 C14.5532655,41.1104337 17.4147143,42.4200009 20.9444902,42.4200009 C24.4742661,42.4200009 27.3357149,41.1104337 27.3357149,39.4950008" id="Path" stroke="#FFFFFF" stroke-width="0.819000023"></path>
                    <line x1="14.5532655" y1="35.9850007" x2="14.5532655" y2="39.4950008" id="Path-13" stroke="#FFFFFF" stroke-width="0.819000023"></line>
                    <line x1="27.3357149" y1="35.9850007" x2="27.3357149" y2="39.5811236" id="Path-13-Copy" stroke="#FFFFFF" stroke-width="0.819000023"></line>
                    <path d="M14.5532655,35.9850007 C14.5532655,37.6004336 17.4147143,38.9100008 20.9444902,38.9100008 C24.4742661,38.9100008 27.3357149,37.6004336 27.3357149,35.9850007" id="Path" stroke="#FFFFFF" stroke-width="0.819000023"></path>
                    <line x1="14.5532655" y1="32.4750006" x2="14.5532655" y2="35.9850007" id="Path-13" stroke="#FFFFFF" stroke-width="0.819000023"></line>
                    <line x1="27.3357149" y1="32.4750006" x2="27.3357149" y2="36.0711235" id="Path-13-Copy" stroke="#FFFFFF" stroke-width="0.819000023"></line>
                    <path d="M14.5532655,32.4750006 C14.5532655,34.0904335 17.4147143,35.4000007 20.9444902,35.4000007 C24.4742661,35.4000007 27.3357149,34.0904335 27.3357149,32.4750006" id="Path" stroke="#FFFFFF" stroke-width="0.819000023"></path>
                    <line x1="14.5532655" y1="28.9650005" x2="14.5532655" y2="32.4750006" id="Path-13" stroke="#FFFFFF" stroke-width="0.819000023"></line>
                    <line x1="27.3357149" y1="28.9650005" x2="27.3357149" y2="32.5611234" id="Path-13-Copy" stroke="#FFFFFF" stroke-width="0.819000023"></line>
                    <path d="M14.5532655,28.9650005 C14.5532655,30.5804334 17.4147143,31.8900006 20.9444902,31.8900006 C24.4742661,31.8900006 27.3357149,30.5804334 27.3357149,28.9650005" id="Path" stroke="#FFFFFF" stroke-width="0.819000023"></path>
                    <line x1="14.5532655" y1="25.4550004" x2="14.5532655" y2="28.9650005" id="Path-13" stroke="#FFFFFF" stroke-width="0.819000023"></line>
                    <line x1="27.3357149" y1="25.4550004" x2="27.3357149" y2="29.0511233" id="Path-13-Copy" stroke="#FFFFFF" stroke-width="0.819000023"></line>
                    <path d="M14.5532655,25.4550004 C14.5532655,27.0704333 17.4147143,28.3800005 20.9444902,28.3800005 C24.4742661,28.3800005 27.3357149,27.0704333 27.3357149,25.4550004" id="Path" stroke="#FFFFFF" stroke-width="0.819000023"></path>
                    <line x1="14.5532655" y1="21.9450003" x2="14.5532655" y2="25.4550004" id="Path-13" stroke="#FFFFFF" stroke-width="0.819000023"></line>
                    <line x1="27.3357149" y1="21.9450003" x2="27.3357149" y2="25.5411232" id="Path-13-Copy" stroke="#FFFFFF" stroke-width="0.819000023"></line>
                    <path d="M14.5532655,21.9450003 C14.5532655,23.5604332 17.4147143,24.8700004 20.9444902,24.8700004 C24.4742661,24.8700004 27.3357149,23.5604332 27.3357149,21.9450003" id="Path" stroke="#FFFFFF" stroke-width="0.819000023"></path>
                    <line x1="14.5532655" y1="18.4350002" x2="14.5532655" y2="21.9450003" id="Path-13" stroke="#FFFFFF" stroke-width="0.819000023"></line>
                    <line x1="27.3357149" y1="18.4350002" x2="27.3357149" y2="22.0311231" id="Path-13-Copy" stroke="#FFFFFF" stroke-width="0.819000023"></line>
                    <path d="M14.5532655,18.4350002 C14.5532655,20.0504331 17.4147143,21.3600003 20.9444902,21.3600003 C24.4742661,21.3600003 27.3357149,20.0504331 27.3357149,18.4350002" id="Path" stroke="#FFFFFF" stroke-width="0.819000023"></path>
                    <line x1="14.5532655" y1="14.9250001" x2="14.5532655" y2="18.4350002" id="Path-13" stroke="#FFFFFF" stroke-width="0.819000023"></line>
                    <line x1="27.3357149" y1="14.9250001" x2="27.3357149" y2="18.521123" id="Path-13-Copy" stroke="#FFFFFF" stroke-width="0.819000023"></line>
                    <path d="M7.58102042,74.5950018 C7.58102042,76.2104347 10.4424692,77.5200019 13.9722451,77.5200019 C17.502021,77.5200019 20.3634698,76.2104347 20.3634698,74.5950018" id="Path" stroke="#FFFFFF" stroke-width="0.819000023"></path>
                    <line x1="7.58102042" y1="71.0850017" x2="7.58102042" y2="74.5950018" id="Path-13" stroke="#FFFFFF" stroke-width="0.819000023"></line>
                    <line x1="20.3634698" y1="71.0850017" x2="20.3634698" y2="74.6811246" id="Path-13-Copy" stroke="#FFFFFF" stroke-width="0.819000023"></line>
                    <path d="M7.58102042,71.0850017 C7.58102042,72.7004346 10.4424692,74.0100018 13.9722451,74.0100018 C17.502021,74.0100018 20.3634698,72.7004346 20.3634698,71.0850017" id="Path" stroke="#FFFFFF" stroke-width="0.819000023"></path>
                    <line x1="7.58102042" y1="67.5750016" x2="7.58102042" y2="71.0850017" id="Path-13" stroke="#FFFFFF" stroke-width="0.819000023"></line>
                    <line x1="20.3634698" y1="67.5750016" x2="20.3634698" y2="71.1711245" id="Path-13-Copy" stroke="#FFFFFF" stroke-width="0.819000023"></line>
                    <path d="M7.58102042,67.5750016 C7.58102042,69.1904345 10.4424692,70.5000017 13.9722451,70.5000017 C17.502021,70.5000017 20.3634698,69.1904345 20.3634698,67.5750016" id="Path" stroke="#FFFFFF" stroke-width="0.819000023"></path>
                    <line x1="7.58102042" y1="64.0650015" x2="7.58102042" y2="67.5750016" id="Path-13" stroke="#FFFFFF" stroke-width="0.819000023"></line>
                    <line x1="20.3634698" y1="64.0650015" x2="20.3634698" y2="67.6611244" id="Path-13-Copy" stroke="#FFFFFF" stroke-width="0.819000023"></line>
                    <path d="M7.58102042,64.0650015 C7.58102042,65.6804344 10.4424692,66.9900016 13.9722451,66.9900016 C17.502021,66.9900016 20.3634698,65.6804344 20.3634698,64.0650015" id="Path" stroke="#FFFFFF" stroke-width="0.819000023"></path>
                    <line x1="7.58102042" y1="60.5550014" x2="7.58102042" y2="64.0650015" id="Path-13" stroke="#FFFFFF" stroke-width="0.819000023"></line>
                    <line x1="20.3634698" y1="60.5550014" x2="20.3634698" y2="64.1511243" id="Path-13-Copy" stroke="#FFFFFF" stroke-width="0.819000023"></line>
                    <path d="M7.58102042,60.5550014 C7.58102042,62.1704343 10.4424692,63.4800015 13.9722451,63.4800015 C17.502021,63.4800015 20.3634698,62.1704343 20.3634698,60.5550014" id="Path" stroke="#FFFFFF" stroke-width="0.819000023"></path>
                    <line x1="7.58102042" y1="57.0450013" x2="7.58102042" y2="60.5550014" id="Path-13" stroke="#FFFFFF" stroke-width="0.819000023"></line>
                    <line x1="20.3634698" y1="57.0450013" x2="20.3634698" y2="60.6411242" id="Path-13-Copy" stroke="#FFFFFF" stroke-width="0.819000023"></line>
                    <path d="M7.58102042,56.5550014 C7.58102042,58.1704343 10.4424692,59.4800015 13.9722451,59.4800015 C17.502021,59.4800015 20.3634698,58.1704343 20.3634698,56.5550014" id="Path-Copy-6" stroke="#FFFFFF" stroke-width="0.819000023"></path>
                    <path d="M7.58102042,52.5550014 C7.58102042,54.1704343 10.4424692,55.4800015 13.9722451,55.4800015 C17.502021,55.4800015 20.3634698,54.1704343 20.3634698,52.5550014" id="Path-Copy-7" stroke="#FFFFFF" stroke-width="0.819000023"></path>
                    <path d="M7.58102042,48.5550014 C7.58102042,50.1704343 10.4424692,51.4800015 13.9722451,51.4800015 C17.502021,51.4800015 20.3634698,50.1704343 20.3634698,48.5550014" id="Path-Copy-8" stroke="#FFFFFF" stroke-width="0.819000023"></path>
                    <ellipse id="Oval-Copy-10" stroke="#FFFFFF" stroke-width="0.819000023" cx="13.9722451" cy="45.0450013" rx="6.39122467" ry="2.92500008"></ellipse>
                    <ellipse id="Oval" stroke="#FFFFFF" stroke-width="0.819000023" fill="#343741" cx="29.6597966" cy="71.8265477" rx="6.9722451" ry="7.0200002"></ellipse>
                    <text id="CHF" font-family="OpenSans-Light, Open Sans" font-size="4.5" font-weight="300" letter-spacing="0.28846153" fill="#FFFFFF">
                        <tspan x="24.9070499" y="73.3948995">CHF</tspan>
                    </text>
                    <text id="Luzern" font-family="OpenSans-Light, Open Sans" font-size="12.8700006" font-weight="300" fill="#FFFFFF">
                        <tspan x="0.337687729" y="99.9088992">Luzern</tspan>
                    </text>
                    <line x1="14.5532655" y1="14.9250001" x2="14.5532655" y2="18.4350002" id="Path-13-Copy-3" stroke="#FFFFFF" stroke-width="0.819000023"></line>
                    <line x1="27.3357149" y1="14.9250001" x2="27.3357149" y2="18.521123" id="Path-13-Copy-2" stroke="#FFFFFF" stroke-width="0.819000023"></line>
                    <path d="M14.5532655,14.4350002 C14.5532655,16.0504331 17.4147143,17.3600003 20.9444902,17.3600003 C24.4742661,17.3600003 27.3357149,16.0504331 27.3357149,14.4350002" id="Path-Copy" stroke="#FFFFFF" stroke-width="0.819000023"></path>
                    <line x1="14.5532655" y1="10.9250001" x2="14.5532655" y2="14.4350002" id="Path-13-Copy-9" stroke="#FFFFFF" stroke-width="0.819000023"></line>
                    <line x1="27.3357149" y1="10.9250001" x2="27.3357149" y2="14.521123" id="Path-13-Copy-8" stroke="#FFFFFF" stroke-width="0.819000023"></line>
                    <path d="M14.5532655,10.4350002 C14.5532655,12.0504331 17.4147143,13.3600003 20.9444902,13.3600003 C24.4742661,13.3600003 27.3357149,12.0504331 27.3357149,10.4350002" id="Path-Copy-4" stroke="#FFFFFF" stroke-width="0.819000023"></path>
                    <line x1="14.5532655" y1="6.92500008" x2="14.5532655" y2="10.4350002" id="Path-13-Copy-11" stroke="#FFFFFF" stroke-width="0.819000023"></line>
                    <line x1="27.3357149" y1="6.92500008" x2="27.3357149" y2="10.521123" id="Path-13-Copy-10" stroke="#FFFFFF" stroke-width="0.819000023"></line>
                    <path d="M14.5532655,6.43500018 C14.5532655,8.05043312 17.4147143,9.36000027 20.9444902,9.36000027 C24.4742661,9.36000027 27.3357149,8.05043312 27.3357149,6.43500018" id="Path-Copy-5" stroke="#FFFFFF" stroke-width="0.819000023"></path>
                    <ellipse id="Oval-Copy-11" stroke="#FFFFFF" stroke-width="0.819000023" cx="20.9444902" cy="2.92500008" rx="6.39122467" ry="2.92500008"></ellipse>
                    <line x1="14.5532655" y1="2.92500008" x2="14.5532655" y2="6.43500018" id="Path-13-Copy-13" stroke="#FFFFFF" stroke-width="0.819000023"></line>
                    <line x1="27.3357149" y1="2.92500008" x2="27.3357149" y2="6.52112303" id="Path-13-Copy-12" stroke="#FFFFFF" stroke-width="0.819000023"></line>
                    <line x1="7.58102042" y1="53.0450013" x2="7.58102042" y2="56.5550014" id="Path-13-Copy-15" stroke="#FFFFFF" stroke-width="0.819000023"></line>
                    <line x1="20.3634698" y1="53.0450013" x2="20.3634698" y2="56.6411242" id="Path-13-Copy-14" stroke="#FFFFFF" stroke-width="0.819000023"></line>
                    <line x1="7.58102042" y1="49.0450013" x2="7.58102042" y2="52.5550014" id="Path-13-Copy-17" stroke="#FFFFFF" stroke-width="0.819000023"></line>
                    <line x1="20.3634698" y1="49.0450013" x2="20.3634698" y2="52.6411242" id="Path-13-Copy-16" stroke="#FFFFFF" stroke-width="0.819000023"></line>
                    <line x1="7.58102042" y1="45.0450013" x2="7.58102042" y2="48.5550014" id="Path-13-Copy-19" stroke="#FFFFFF" stroke-width="0.819000023"></line>
                    <line x1="20.3634698" y1="45.0450013" x2="20.3634698" y2="48.6411242" id="Path-13-Copy-18" stroke="#FFFFFF" stroke-width="0.819000023"></line>
                </g>
                <g id="figure_3" transform="translate(96.306289, 26.480000)">
                    <path d="M22.1871448,80.9614062 C23.2417584,81.3127375 24.5402364,81.5200019 25.9444902,81.5200019 C29.4742661,81.5200019 32.3357149,80.2104347 32.3357149,78.5950018" id="Path" stroke="#FFFFFF" stroke-width="0.819000023"></path>
                    <line x1="32.3357149" y1="75.0850017" x2="32.3357149" y2="78.6811246" id="Path-13-Copy" stroke="#FFFFFF" stroke-width="0.819000023"></line>
                    <path d="M25.2863902,77.9946841 C25.5027438,78.0048124 25.7222928,78.0100018 25.9444902,78.0100018 C29.4742661,78.0100018 32.3357149,76.7004346 32.3357149,75.0850017" id="Path" stroke="#FFFFFF" stroke-width="0.819000023"></path>
                    <line x1="32.3357149" y1="71.5750016" x2="32.3357149" y2="75.1711245" id="Path-13-Copy" stroke="#FFFFFF" stroke-width="0.819000023"></line>
                    <path d="M25.2839141,74.4845679 C25.5010686,74.4947727 25.7214451,74.5000017 25.9444902,74.5000017 C29.4742661,74.5000017 32.3357149,73.1904345 32.3357149,71.5750016" id="Path" stroke="#FFFFFF" stroke-width="0.819000023"></path>
                    <line x1="32.3357149" y1="68.0650015" x2="32.3357149" y2="71.6611244" id="Path-13-Copy" stroke="#FFFFFF" stroke-width="0.819000023"></line>
                    <path d="M25.2805083,70.9744073 C25.4987643,70.9847177 25.720279,70.9900016 25.9444902,70.9900016 C29.4742661,70.9900016 32.3357149,69.6804344 32.3357149,68.0650015" id="Path" stroke="#FFFFFF" stroke-width="0.819000023"></path>
                    <line x1="32.3357149" y1="64.5550014" x2="32.3357149" y2="68.1511243" id="Path-13-Copy" stroke="#FFFFFF" stroke-width="0.819000023"></line>
                    <path d="M25.3987672,67.4694882 C25.5786558,67.4764498 25.7606667,67.4800015 25.9444902,67.4800015 C29.4742661,67.4800015 32.3357149,66.1704343 32.3357149,64.5550014" id="Path" stroke="#FFFFFF" stroke-width="0.819000023"></path>
                    <line x1="32.3357149" y1="61.0450013" x2="32.3357149" y2="64.6411242" id="Path-13-Copy" stroke="#FFFFFF" stroke-width="0.819000023"></line>
                    <path d="M25.3328459,63.9567804 C25.5341522,63.9655276 25.7381796,63.9700014 25.9444902,63.9700014 C29.4742661,63.9700014 32.3357149,62.6604342 32.3357149,61.0450013" id="Path" stroke="#FFFFFF" stroke-width="0.819000023"></path>
                    <line x1="32.3357149" y1="57.5350012" x2="32.3357149" y2="61.1311241" id="Path-13-Copy" stroke="#FFFFFF" stroke-width="0.819000023"></line>
                    <path d="M25.2625622,60.4435476 C25.4866186,60.4544237 25.7141312,60.4600013 25.9444902,60.4600013 C29.4742661,60.4600013 32.3357149,59.1504341 32.3357149,57.5350012" id="Path" stroke="#FFFFFF" stroke-width="0.819000023"></path>
                    <line x1="32.3357149" y1="54.0250011" x2="32.3357149" y2="57.621124" id="Path-13-Copy" stroke="#FFFFFF" stroke-width="0.819000023"></line>
                    <path d="M25.335646,56.9369016 C25.5360441,56.9455688 25.7391361,56.9500012 25.9444902,56.9500012 C29.4742661,56.9500012 32.3357149,55.640434 32.3357149,54.0250011" id="Path" stroke="#FFFFFF" stroke-width="0.819000023"></path>
                    <line x1="32.3357149" y1="50.515001" x2="32.3357149" y2="54.1111239" id="Path-13-Copy" stroke="#FFFFFF" stroke-width="0.819000023"></line>
                    <path d="M25.1897002,53.4198175 C25.437245,53.4331465 25.6891185,53.4400011 25.9444902,53.4400011 C29.4742661,53.4400011 32.3357149,52.1304339 32.3357149,50.515001" id="Path" stroke="#FFFFFF" stroke-width="0.819000023"></path>
                    <line x1="32.3357149" y1="47.0050009" x2="32.3357149" y2="50.6011238" id="Path-13-Copy" stroke="#FFFFFF" stroke-width="0.819000023"></line>
                    <path d="M25.4156745,49.9201317 C25.5900578,49.9266683 25.7664236,49.930001 25.9444902,49.930001 C29.4742661,49.930001 32.3357149,48.6204338 32.3357149,47.0050009" id="Path" stroke="#FFFFFF" stroke-width="0.819000023"></path>
                    <line x1="19.5532655" y1="43.4950008" x2="19.5532655" y2="46.0050009" id="Path-13" stroke="#FFFFFF" stroke-width="0.819000023"></line>
                    <line x1="32.3357149" y1="43.4950008" x2="32.3357149" y2="47.0911237" id="Path-13-Copy" stroke="#FFFFFF" stroke-width="0.819000023"></line>
                    <path d="M19.5532655,43.4950008 C19.5532655,45.1104337 22.4147143,46.4200009 25.9444902,46.4200009 C29.4742661,46.4200009 32.3357149,45.1104337 32.3357149,43.4950008" id="Path" stroke="#FFFFFF" stroke-width="0.819000023"></path>
                    <line x1="19.5532655" y1="39.9850007" x2="19.5532655" y2="43.4950008" id="Path-13" stroke="#FFFFFF" stroke-width="0.819000023"></line>
                    <line x1="32.3357149" y1="39.9850007" x2="32.3357149" y2="43.5811236" id="Path-13-Copy" stroke="#FFFFFF" stroke-width="0.819000023"></line>
                    <path d="M19.5532655,39.9850007 C19.5532655,41.6004336 22.4147143,42.9100008 25.9444902,42.9100008 C29.4742661,42.9100008 32.3357149,41.6004336 32.3357149,39.9850007" id="Path" stroke="#FFFFFF" stroke-width="0.819000023"></path>
                    <line x1="19.5532655" y1="36.4750006" x2="19.5532655" y2="39.9850007" id="Path-13" stroke="#FFFFFF" stroke-width="0.819000023"></line>
                    <line x1="32.3357149" y1="36.4750006" x2="32.3357149" y2="40.0711235" id="Path-13-Copy" stroke="#FFFFFF" stroke-width="0.819000023"></line>
                    <path d="M19.5532655,36.4750006 C19.5532655,38.0904335 22.4147143,39.4000007 25.9444902,39.4000007 C29.4742661,39.4000007 32.3357149,38.0904335 32.3357149,36.4750006" id="Path" stroke="#FFFFFF" stroke-width="0.819000023"></path>
                    <line x1="19.5532655" y1="32.9650005" x2="19.5532655" y2="36.4750006" id="Path-13" stroke="#FFFFFF" stroke-width="0.819000023"></line>
                    <line x1="32.3357149" y1="32.9650005" x2="32.3357149" y2="36.5611234" id="Path-13-Copy" stroke="#FFFFFF" stroke-width="0.819000023"></line>
                    <path d="M19.5532655,32.9650005 C19.5532655,34.5804334 22.4147143,35.8900006 25.9444902,35.8900006 C29.4742661,35.8900006 32.3357149,34.5804334 32.3357149,32.9650005" id="Path" stroke="#FFFFFF" stroke-width="0.819000023"></path>
                    <line x1="19.5532655" y1="29.4550004" x2="19.5532655" y2="32.9650005" id="Path-13" stroke="#FFFFFF" stroke-width="0.819000023"></line>
                    <line x1="32.3357149" y1="29.4550004" x2="32.3357149" y2="33.0511233" id="Path-13-Copy" stroke="#FFFFFF" stroke-width="0.819000023"></line>
                    <path d="M19.5532655,29.4550004 C19.5532655,31.0704333 22.4147143,32.3800005 25.9444902,32.3800005 C29.4742661,32.3800005 32.3357149,31.0704333 32.3357149,29.4550004" id="Path" stroke="#FFFFFF" stroke-width="0.819000023"></path>
                    <line x1="19.5532655" y1="25.9450003" x2="19.5532655" y2="29.4550004" id="Path-13" stroke="#FFFFFF" stroke-width="0.819000023"></line>
                    <line x1="32.3357149" y1="25.9450003" x2="32.3357149" y2="29.5411232" id="Path-13-Copy" stroke="#FFFFFF" stroke-width="0.819000023"></line>
                    <path d="M19.5532655,25.9450003 C19.5532655,27.5604332 22.4147143,28.8700004 25.9444902,28.8700004 C29.4742661,28.8700004 32.3357149,27.5604332 32.3357149,25.9450003" id="Path" stroke="#FFFFFF" stroke-width="0.819000023"></path>
                    <line x1="19.5532655" y1="22.4350002" x2="19.5532655" y2="25.9450003" id="Path-13" stroke="#FFFFFF" stroke-width="0.819000023"></line>
                    <line x1="32.3357149" y1="22.4350002" x2="32.3357149" y2="26.0311231" id="Path-13-Copy" stroke="#FFFFFF" stroke-width="0.819000023"></line>
                    <path d="M19.5532655,22.4350002 C19.5532655,24.0504331 22.4147143,25.3600003 25.9444902,25.3600003 C29.4742661,25.3600003 32.3357149,24.0504331 32.3357149,22.4350002" id="Path" stroke="#FFFFFF" stroke-width="0.819000023"></path>
                    <line x1="19.5532655" y1="18.9250001" x2="19.5532655" y2="22.4350002" id="Path-13" stroke="#FFFFFF" stroke-width="0.819000023"></line>
                    <line x1="32.3357149" y1="18.9250001" x2="32.3357149" y2="22.521123" id="Path-13-Copy" stroke="#FFFFFF" stroke-width="0.819000023"></line>
                    <path d="M12.5810204,78.5950018 C12.5810204,80.2104347 15.4424692,81.5200019 18.9722451,81.5200019 C22.502021,81.5200019 25.3634698,80.2104347 25.3634698,78.5950018" id="Path" stroke="#FFFFFF" stroke-width="0.819000023"></path>
                    <line x1="12.5810204" y1="75.0850017" x2="12.5810204" y2="78.5950018" id="Path-13" stroke="#FFFFFF" stroke-width="0.819000023"></line>
                    <line x1="25.3634698" y1="75.0850017" x2="25.3634698" y2="78.6811246" id="Path-13-Copy" stroke="#FFFFFF" stroke-width="0.819000023"></line>
                    <path d="M12.5810204,75.0850017 C12.5810204,76.7004346 15.4424692,78.0100018 18.9722451,78.0100018 C22.502021,78.0100018 25.3634698,76.7004346 25.3634698,75.0850017" id="Path" stroke="#FFFFFF" stroke-width="0.819000023"></path>
                    <line x1="12.5810204" y1="71.5750016" x2="12.5810204" y2="75.0850017" id="Path-13" stroke="#FFFFFF" stroke-width="0.819000023"></line>
                    <line x1="25.3634698" y1="71.5750016" x2="25.3634698" y2="75.1711245" id="Path-13-Copy" stroke="#FFFFFF" stroke-width="0.819000023"></line>
                    <path d="M12.5810204,71.5750016 C12.5810204,73.1904345 15.4424692,74.5000017 18.9722451,74.5000017 C22.502021,74.5000017 25.3634698,73.1904345 25.3634698,71.5750016" id="Path" stroke="#FFFFFF" stroke-width="0.819000023"></path>
                    <line x1="12.5810204" y1="68.0650015" x2="12.5810204" y2="71.5750016" id="Path-13" stroke="#FFFFFF" stroke-width="0.819000023"></line>
                    <line x1="25.3634698" y1="68.0650015" x2="25.3634698" y2="71.6611244" id="Path-13-Copy" stroke="#FFFFFF" stroke-width="0.819000023"></line>
                    <path d="M12.5810204,68.0650015 C12.5810204,69.6804344 15.4424692,70.9900016 18.9722451,70.9900016 C22.502021,70.9900016 25.3634698,69.6804344 25.3634698,68.0650015" id="Path" stroke="#FFFFFF" stroke-width="0.819000023"></path>
                    <line x1="12.5810204" y1="64.5550014" x2="12.5810204" y2="68.0650015" id="Path-13" stroke="#FFFFFF" stroke-width="0.819000023"></line>
                    <line x1="25.3634698" y1="64.5550014" x2="25.3634698" y2="68.1511243" id="Path-13-Copy" stroke="#FFFFFF" stroke-width="0.819000023"></line>
                    <path d="M12.5810204,64.5550014 C12.5810204,66.1704343 15.4424692,67.4800015 18.9722451,67.4800015 C22.502021,67.4800015 25.3634698,66.1704343 25.3634698,64.5550014" id="Path" stroke="#FFFFFF" stroke-width="0.819000023"></path>
                    <line x1="12.5810204" y1="61.0450013" x2="12.5810204" y2="64.5550014" id="Path-13" stroke="#FFFFFF" stroke-width="0.819000023"></line>
                    <line x1="25.3634698" y1="61.0450013" x2="25.3634698" y2="64.6411242" id="Path-13-Copy" stroke="#FFFFFF" stroke-width="0.819000023"></line>
                    <path d="M12.5810204,60.5550014 C12.5810204,62.1704343 15.4424692,63.4800015 18.9722451,63.4800015 C22.502021,63.4800015 25.3634698,62.1704343 25.3634698,60.5550014" id="Path-Copy-6" stroke="#FFFFFF" stroke-width="0.819000023"></path>
                    <path d="M12.5810204,56.5550014 C12.5810204,58.1704343 15.4424692,59.4800015 18.9722451,59.4800015 C22.502021,59.4800015 25.3634698,58.1704343 25.3634698,56.5550014" id="Path-Copy-7" stroke="#FFFFFF" stroke-width="0.819000023"></path>
                    <path d="M12.5810204,52.5550014 C12.5810204,54.1704343 15.4424692,55.4800015 18.9722451,55.4800015 C22.502021,55.4800015 25.3634698,54.1704343 25.3634698,52.5550014" id="Path-Copy-8" stroke="#FFFFFF" stroke-width="0.819000023"></path>
                    <ellipse id="Oval-Copy-10" stroke="#FFFFFF" stroke-width="0.819000023" cx="18.9722451" cy="49.0450013" rx="6.39122467" ry="2.92500008"></ellipse>
                    <ellipse id="Oval" stroke="#FFFFFF" stroke-width="0.819000023" fill="#343741" cx="34.6597966" cy="75.8265477" rx="6.9722451" ry="7.0200002"></ellipse>
                    <text id="CHF" font-family="OpenSans-Light, Open Sans" font-size="4.5" font-weight="300" letter-spacing="0.28846153" fill="#FFFFFF">
                        <tspan x="29.9070499" y="77.3948995">CHF</tspan>
                    </text>
                    <text id="Basel--Stadt" font-family="OpenSans-Light, Open Sans" font-size="12.8700006" font-weight="300" fill="#FFFFFF">
                        <tspan x="7.63081629" y="103.908899">Basel- </tspan>
                        <tspan x="10.0722202" y="121.908899">Stadt</tspan>
                    </text>
                    <line x1="19.5532655" y1="18.9250001" x2="19.5532655" y2="22.4350002" id="Path-13-Copy-3" stroke="#FFFFFF" stroke-width="0.819000023"></line>
                    <line x1="32.3357149" y1="18.9250001" x2="32.3357149" y2="22.521123" id="Path-13-Copy-2" stroke="#FFFFFF" stroke-width="0.819000023"></line>
                    <path d="M19.5532655,18.4350002 C19.5532655,20.0504331 22.4147143,21.3600003 25.9444902,21.3600003 C29.4742661,21.3600003 32.3357149,20.0504331 32.3357149,18.4350002" id="Path-Copy" stroke="#FFFFFF" stroke-width="0.819000023"></path>
                    <line x1="19.5532655" y1="14.9250001" x2="19.5532655" y2="18.4350002" id="Path-13-Copy-9" stroke="#FFFFFF" stroke-width="0.819000023"></line>
                    <line x1="32.3357149" y1="14.9250001" x2="32.3357149" y2="18.521123" id="Path-13-Copy-8" stroke="#FFFFFF" stroke-width="0.819000023"></line>
                    <path d="M19.5532655,14.4350002 C19.5532655,16.0504331 22.4147143,17.3600003 25.9444902,17.3600003 C29.4742661,17.3600003 32.3357149,16.0504331 32.3357149,14.4350002" id="Path-Copy-4" stroke="#FFFFFF" stroke-width="0.819000023"></path>
                    <line x1="19.5532655" y1="10.9250001" x2="19.5532655" y2="14.4350002" id="Path-13-Copy-11" stroke="#FFFFFF" stroke-width="0.819000023"></line>
                    <line x1="32.3357149" y1="10.9250001" x2="32.3357149" y2="14.521123" id="Path-13-Copy-10" stroke="#FFFFFF" stroke-width="0.819000023"></line>
                    <path d="M19.5532655,10.4350002 C19.5532655,12.0504331 22.4147143,13.3600003 25.9444902,13.3600003 C29.4742661,13.3600003 32.3357149,12.0504331 32.3357149,10.4350002" id="Path-Copy-5" stroke="#FFFFFF" stroke-width="0.819000023"></path>
                    <path d="M19.5532655,6.43500018 C19.5532655,8.05043312 22.4147143,9.36000027 25.9444902,9.36000027 C29.4742661,9.36000027 32.3357149,8.05043312 32.3357149,6.43500018" id="Path-Copy-14" stroke="#FFFFFF" stroke-width="0.819000023"></path>
                    <line x1="19.5532655" y1="6.92500008" x2="19.5532655" y2="10.4350002" id="Path-13-Copy-13" stroke="#FFFFFF" stroke-width="0.819000023"></line>
                    <line x1="32.3357149" y1="6.92500008" x2="32.3357149" y2="10.521123" id="Path-13-Copy-12" stroke="#FFFFFF" stroke-width="0.819000023"></line>
                    <ellipse id="Oval-Copy-12" stroke="#FFFFFF" stroke-width="0.819000023" cx="25.9444902" cy="2.92500008" rx="6.39122467" ry="2.92500008"></ellipse>
                    <line x1="12.5810204" y1="57.0450013" x2="12.5810204" y2="60.5550014" id="Path-13-Copy-15" stroke="#FFFFFF" stroke-width="0.819000023"></line>
                    <line x1="25.3634698" y1="57.0450013" x2="25.3634698" y2="60.6411242" id="Path-13-Copy-14" stroke="#FFFFFF" stroke-width="0.819000023"></line>
                    <line x1="12.5810204" y1="53.0450013" x2="12.5810204" y2="56.5550014" id="Path-13-Copy-17" stroke="#FFFFFF" stroke-width="0.819000023"></line>
                    <line x1="25.3634698" y1="53.0450013" x2="25.3634698" y2="56.6411242" id="Path-13-Copy-16" stroke="#FFFFFF" stroke-width="0.819000023"></line>
                    <line x1="12.5810204" y1="49.0450013" x2="12.5810204" y2="52.5550014" id="Path-13-Copy-19" stroke="#FFFFFF" stroke-width="0.819000023"></line>
                    <line x1="25.3634698" y1="49.0450013" x2="25.3634698" y2="52.6411242" id="Path-13-Copy-18" stroke="#FFFFFF" stroke-width="0.819000023"></line>
                    <line x1="19.5532655" y1="2.92500008" x2="19.5532655" y2="6.43500018" id="Path-13-Copy-21" stroke="#FFFFFF" stroke-width="0.819000023"></line>
                    <line x1="32.3357149" y1="2.92500008" x2="32.3357149" y2="6.52112303" id="Path-13-Copy-20" stroke="#FFFFFF" stroke-width="0.819000023"></line>
                </g>
                <g id="figure_4" transform="translate(147.000000, 15.000000)">
                    <path d="M18.5397626,92.7957173 C19.4834018,93.0898339 20.6234514,93.261759 21.8512417,93.261759 C25.104283,93.261759 27.7413941,92.054862 27.7413941,90.5660791" id="Path" stroke="#FFFFFF" stroke-width="0.754790392"></path>
                    <line x1="27.7413941" y1="87.3312631" x2="27.7413941" y2="90.6454499" id="Path-13-Copy" stroke="#FFFFFF" stroke-width="0.754790392"></line>
                    <path d="M21.3562599,90.0175594 C21.519455,90.0237737 21.6845396,90.0269431 21.8512417,90.0269431 C25.104283,90.0269431 27.7413941,88.820046 27.7413941,87.3312631" id="Path" stroke="#FFFFFF" stroke-width="0.754790392"></path>
                    <line x1="27.7413941" y1="84.0964471" x2="27.7413941" y2="87.4106339" id="Path-13-Copy" stroke="#FFFFFF" stroke-width="0.754790392"></line>
                    <path d="M21.3176801,86.7812163 C21.4934236,86.7884381 21.6713913,86.7921271 21.8512417,86.7921271 C25.104283,86.7921271 27.7413941,85.5852301 27.7413941,84.0964471" id="Path" stroke="#FFFFFF" stroke-width="0.754790392"></path>
                    <line x1="27.7413941" y1="80.8616312" x2="27.7413941" y2="84.175818" id="Path-13-Copy" stroke="#FFFFFF" stroke-width="0.754790392"></line>
                    <path d="M21.315576,83.5463137 C21.492003,83.5535926 21.6706735,83.5573111 21.8512417,83.5573111 C25.104283,83.5573111 27.7413941,82.3504141 27.7413941,80.8616312" id="Path" stroke="#FFFFFF" stroke-width="0.754790392"></path>
                    <line x1="27.7413941" y1="77.6268152" x2="27.7413941" y2="80.941002" id="Path-13-Copy" stroke="#FFFFFF" stroke-width="0.754790392"></line>
                    <path d="M21.3186356,80.3116236 C21.4940686,80.3188195 21.6717172,80.3224952 21.8512417,80.3224952 C25.104283,80.3224952 27.7413941,79.1155981 27.7413941,77.6268152" id="Path" stroke="#FFFFFF" stroke-width="0.754790392"></path>
                    <line x1="27.7413941" y1="74.3919992" x2="27.7413941" y2="77.706186" id="Path-13-Copy" stroke="#FFFFFF" stroke-width="0.754790392"></line>
                    <path d="M21.3257061,77.0770957 C21.4988413,77.0841016 21.6741286,77.0876792 21.8512417,77.0876792 C25.104283,77.0876792 27.7413941,75.8807822 27.7413941,74.3919992" id="Path" stroke="#FFFFFF" stroke-width="0.754790392"></path>
                    <line x1="27.7413941" y1="71.1571833" x2="27.7413941" y2="74.4713701" id="Path-13-Copy" stroke="#FFFFFF" stroke-width="0.754790392"></line>
                    <path d="M21.4069917,73.8453111 C21.5536444,73.850316 21.701793,73.8528633 21.8512417,73.8528633 C25.104283,73.8528633 27.7413941,72.6459662 27.7413941,71.1571833" id="Path" stroke="#FFFFFF" stroke-width="0.754790392"></path>
                    <line x1="27.7413941" y1="67.9223673" x2="27.7413941" y2="71.2365541" id="Path-13-Copy" stroke="#FFFFFF" stroke-width="0.754790392"></line>
                    <path d="M21.3667567,70.6090591 C21.5265329,70.6150123 21.6881129,70.6180473 21.8512417,70.6180473 C25.104283,70.6180473 27.7413941,69.4111503 27.7413941,67.9223673" id="Path" stroke="#FFFFFF" stroke-width="0.754790392"></path>
                    <line x1="27.7413941" y1="64.6875514" x2="27.7413941" y2="68.0017381" id="Path-13-Copy" stroke="#FFFFFF" stroke-width="0.754790392"></line>
                    <path d="M21.3731146,67.3744784 C21.530819,67.3802763 21.6902763,67.3832313 21.8512417,67.3832313 C25.104283,67.3832313 27.7413941,66.1763343 27.7413941,64.6875514" id="Path" stroke="#FFFFFF" stroke-width="0.754790392"></path>
                    <line x1="27.7413941" y1="61.4527354" x2="27.7413941" y2="64.7669222" id="Path-13-Copy" stroke="#FFFFFF" stroke-width="0.754790392"></line>
                    <path d="M21.3782248,64.1398493 C21.5342634,64.1455239 21.6920147,64.1484154 21.8512417,64.1484154 C25.104283,64.1484154 27.7413941,62.9415183 27.7413941,61.4527354" id="Path" stroke="#FFFFFF" stroke-width="0.754790392"></path>
                    <line x1="27.7413941" y1="58.2179194" x2="27.7413941" y2="61.5321062" id="Path-13-Copy" stroke="#FFFFFF" stroke-width="0.754790392"></line>
                    <path d="M21.3405011,60.903606 C21.5088252,60.9102226 21.6791718,60.9135994 21.8512417,60.9135994 C25.104283,60.9135994 27.7413941,59.7067024 27.7413941,58.2179194" id="Path" stroke="#FFFFFF" stroke-width="0.754790392"></path>
                    <line x1="27.7413941" y1="54.9831035" x2="27.7413941" y2="58.2972902" id="Path-13-Copy" stroke="#FFFFFF" stroke-width="0.754790392"></line>
                    <path d="M21.3550072,57.669352 C21.5186102,57.6755978 21.684113,57.6787834 21.8512417,57.6787834 C25.104283,57.6787834 27.7413941,56.4718864 27.7413941,54.9831035" id="Path" stroke="#FFFFFF" stroke-width="0.754790392"></path>
                    <line x1="27.7413941" y1="51.7482875" x2="27.7413941" y2="55.0624743" id="Path-13-Copy" stroke="#FFFFFF" stroke-width="0.754790392"></line>
                    <path d="M21.3563254,54.4345863 C21.5194992,54.4407989 21.6845619,54.4439675 21.8512417,54.4439675 C25.104283,54.4439675 27.7413941,53.2370704 27.7413941,51.7482875" id="Path" stroke="#FFFFFF" stroke-width="0.754790392"></path>
                    <line x1="27.7413941" y1="48.5134715" x2="27.7413941" y2="51.8276583" id="Path-13-Copy" stroke="#FFFFFF" stroke-width="0.754790392"></line>
                    <path d="M21.2652536,51.1959787 C21.458004,51.2046913 21.6534847,51.2091515 21.8512417,51.2091515 C25.104283,51.2091515 27.7413941,50.0022545 27.7413941,48.5134715" id="Path" stroke="#FFFFFF" stroke-width="0.754790392"></path>
                    <line x1="15.9610892" y1="45.2786556" x2="15.9610892" y2="49.0526075" id="Path-13" stroke="#FFFFFF" stroke-width="0.754790392"></line>
                    <line x1="27.7413941" y1="45.2786556" x2="27.7413941" y2="48.5928424" id="Path-13-Copy" stroke="#FFFFFF" stroke-width="0.754790392"></line>
                    <path d="M15.9610892,45.2786556 C15.9610892,46.7674385 18.5982003,47.9743355 21.8512417,47.9743355 C25.104283,47.9743355 27.7413941,46.7674385 27.7413941,45.2786556" id="Path" stroke="#FFFFFF" stroke-width="0.754790392"></path>
                    <line x1="15.9610892" y1="42.0438396" x2="15.9610892" y2="45.2786556" id="Path-13" stroke="#FFFFFF" stroke-width="0.754790392"></line>
                    <line x1="27.7413941" y1="42.0438396" x2="27.7413941" y2="45.3580264" id="Path-13-Copy" stroke="#FFFFFF" stroke-width="0.754790392"></line>
                    <path d="M15.9610892,42.0438396 C15.9610892,43.5326225 18.5982003,44.7395196 21.8512417,44.7395196 C25.104283,44.7395196 27.7413941,43.5326225 27.7413941,42.0438396" id="Path" stroke="#FFFFFF" stroke-width="0.754790392"></path>
                    <line x1="15.9610892" y1="38.8090236" x2="15.9610892" y2="42.0438396" id="Path-13" stroke="#FFFFFF" stroke-width="0.754790392"></line>
                    <line x1="27.7413941" y1="38.8090236" x2="27.7413941" y2="42.1232104" id="Path-13-Copy" stroke="#FFFFFF" stroke-width="0.754790392"></line>
                    <path d="M15.9610892,38.8090236 C15.9610892,40.2978066 18.5982003,41.5047036 21.8512417,41.5047036 C25.104283,41.5047036 27.7413941,40.2978066 27.7413941,38.8090236" id="Path" stroke="#FFFFFF" stroke-width="0.754790392"></path>
                    <line x1="15.9610892" y1="35.5742077" x2="15.9610892" y2="38.8090236" id="Path-13" stroke="#FFFFFF" stroke-width="0.754790392"></line>
                    <line x1="27.7413941" y1="35.5742077" x2="27.7413941" y2="38.8883945" id="Path-13-Copy" stroke="#FFFFFF" stroke-width="0.754790392"></line>
                    <path d="M15.9610892,35.5742077 C15.9610892,37.0629906 18.5982003,38.2698876 21.8512417,38.2698876 C25.104283,38.2698876 27.7413941,37.0629906 27.7413941,35.5742077" id="Path" stroke="#FFFFFF" stroke-width="0.754790392"></path>
                    <line x1="15.9610892" y1="32.3393917" x2="15.9610892" y2="35.5742077" id="Path-13" stroke="#FFFFFF" stroke-width="0.754790392"></line>
                    <line x1="27.7413941" y1="32.3393917" x2="27.7413941" y2="35.6535785" id="Path-13-Copy" stroke="#FFFFFF" stroke-width="0.754790392"></line>
                    <path d="M15.9610892,32.3393917 C15.9610892,33.8281747 18.5982003,35.0350717 21.8512417,35.0350717 C25.104283,35.0350717 27.7413941,33.8281747 27.7413941,32.3393917" id="Path" stroke="#FFFFFF" stroke-width="0.754790392"></path>
                    <line x1="15.9610892" y1="29.1045758" x2="15.9610892" y2="32.3393917" id="Path-13" stroke="#FFFFFF" stroke-width="0.754790392"></line>
                    <line x1="27.7413941" y1="29.1045758" x2="27.7413941" y2="32.4187625" id="Path-13-Copy" stroke="#FFFFFF" stroke-width="0.754790392"></line>
                    <path d="M15.9610892,29.1045758 C15.9610892,30.5933587 18.5982003,31.8002557 21.8512417,31.8002557 C25.104283,31.8002557 27.7413941,30.5933587 27.7413941,29.1045758" id="Path" stroke="#FFFFFF" stroke-width="0.754790392"></path>
                    <line x1="15.9610892" y1="25.8697598" x2="15.9610892" y2="29.1045758" id="Path-13" stroke="#FFFFFF" stroke-width="0.754790392"></line>
                    <line x1="27.7413941" y1="25.8697598" x2="27.7413941" y2="29.1839466" id="Path-13-Copy" stroke="#FFFFFF" stroke-width="0.754790392"></line>
                    <path d="M15.9610892,25.8697598 C15.9610892,27.3585427 18.5982003,28.5654398 21.8512417,28.5654398 C25.104283,28.5654398 27.7413941,27.3585427 27.7413941,25.8697598" id="Path" stroke="#FFFFFF" stroke-width="0.754790392"></path>
                    <line x1="15.9610892" y1="22.6349438" x2="15.9610892" y2="25.8697598" id="Path-13" stroke="#FFFFFF" stroke-width="0.754790392"></line>
                    <line x1="27.7413941" y1="22.6349438" x2="27.7413941" y2="25.9491306" id="Path-13-Copy" stroke="#FFFFFF" stroke-width="0.754790392"></line>
                    <path d="M15.9610892,22.6349438 C15.9610892,24.1237268 18.5982003,25.3306238 21.8512417,25.3306238 C25.104283,25.3306238 27.7413941,24.1237268 27.7413941,22.6349438" id="Path" stroke="#FFFFFF" stroke-width="0.754790392"></path>
                    <line x1="15.9610892" y1="19.4001279" x2="15.9610892" y2="22.6349438" id="Path-13" stroke="#FFFFFF" stroke-width="0.754790392"></line>
                    <line x1="27.7413941" y1="19.4001279" x2="27.7413941" y2="22.7143146" id="Path-13-Copy" stroke="#FFFFFF" stroke-width="0.754790392"></line>
                    <path d="M15.9610892,19.4001279 C15.9610892,20.8889108 18.5982003,22.0958078 21.8512417,22.0958078 C25.104283,22.0958078 27.7413941,20.8889108 27.7413941,19.4001279" id="Path" stroke="#FFFFFF" stroke-width="0.754790392"></path>
                    <line x1="15.9610892" y1="16.1653119" x2="15.9610892" y2="19.4001279" id="Path-13" stroke="#FFFFFF" stroke-width="0.754790392"></line>
                    <line x1="27.7413941" y1="16.1653119" x2="27.7413941" y2="19.4794987" id="Path-13-Copy" stroke="#FFFFFF" stroke-width="0.754790392"></line>
                    <path d="M15.9610892,16.1653119 C15.9610892,17.6540948 18.5982003,18.8609919 21.8512417,18.8609919 C25.104283,18.8609919 27.7413941,17.6540948 27.7413941,16.1653119" id="Path" stroke="#FFFFFF" stroke-width="0.754790392"></path>
                    <path d="M15.9610892,12.665312 C15.9610892,14.1540949 18.5982003,15.360992 21.8512417,15.360992 C25.104283,15.360992 27.7413941,14.1540949 27.7413941,12.665312" id="Path-Copy-9" stroke="#FFFFFF" stroke-width="0.754790392"></path>
                    <line x1="15.9610892" y1="12.9304959" x2="15.9610892" y2="16.1653119" id="Path-13" stroke="#FFFFFF" stroke-width="0.754790392"></line>
                    <line x1="27.7413941" y1="12.9304959" x2="27.7413941" y2="16.2446827" id="Path-13-Copy" stroke="#FFFFFF" stroke-width="0.754790392"></line>
                    <ellipse id="Oval-Copy-19" stroke="#FFFFFF" stroke-width="0.754790392" cx="21.8901524" cy="2.69567997" rx="5.89015242" ry="2.69567997"></ellipse>
                    <path d="M9.5354684,90.5660791 C9.5354684,92.054862 12.1725795,93.261759 15.4256208,93.261759 C18.6786622,93.261759 21.3157732,92.054862 21.3157732,90.5660791" id="Path" stroke="#FFFFFF" stroke-width="0.754790392"></path>
                    <line x1="9.5354684" y1="87.3312631" x2="9.5354684" y2="90.5660791" id="Path-13" stroke="#FFFFFF" stroke-width="0.754790392"></line>
                    <line x1="21.3157732" y1="87.3312631" x2="21.3157732" y2="90.6454499" id="Path-13-Copy" stroke="#FFFFFF" stroke-width="0.754790392"></line>
                    <path d="M9.5354684,87.3312631 C9.5354684,88.820046 12.1725795,90.0269431 15.4256208,90.0269431 C18.6786622,90.0269431 21.3157732,88.820046 21.3157732,87.3312631" id="Path" stroke="#FFFFFF" stroke-width="0.754790392"></path>
                    <line x1="9.5354684" y1="84.0964471" x2="9.5354684" y2="87.3312631" id="Path-13" stroke="#FFFFFF" stroke-width="0.754790392"></line>
                    <line x1="21.3157732" y1="84.0964471" x2="21.3157732" y2="87.4106339" id="Path-13-Copy" stroke="#FFFFFF" stroke-width="0.754790392"></line>
                    <path d="M9.5354684,84.0964471 C9.5354684,85.5852301 12.1725795,86.7921271 15.4256208,86.7921271 C18.6786622,86.7921271 21.3157732,85.5852301 21.3157732,84.0964471" id="Path" stroke="#FFFFFF" stroke-width="0.754790392"></path>
                    <line x1="9.5354684" y1="80.8616312" x2="9.5354684" y2="84.0964471" id="Path-13" stroke="#FFFFFF" stroke-width="0.754790392"></line>
                    <line x1="21.3157732" y1="80.8616312" x2="21.3157732" y2="84.175818" id="Path-13-Copy" stroke="#FFFFFF" stroke-width="0.754790392"></line>
                    <path d="M9.5354684,80.8616312 C9.5354684,82.3504141 12.1725795,83.5573111 15.4256208,83.5573111 C18.6786622,83.5573111 21.3157732,82.3504141 21.3157732,80.8616312" id="Path" stroke="#FFFFFF" stroke-width="0.754790392"></path>
                    <line x1="9.5354684" y1="77.6268152" x2="9.5354684" y2="80.8616312" id="Path-13" stroke="#FFFFFF" stroke-width="0.754790392"></line>
                    <line x1="21.3157732" y1="77.6268152" x2="21.3157732" y2="80.941002" id="Path-13-Copy" stroke="#FFFFFF" stroke-width="0.754790392"></line>
                    <path d="M9.5354684,77.6268152 C9.5354684,79.1155981 12.1725795,80.3224952 15.4256208,80.3224952 C18.6786622,80.3224952 21.3157732,79.1155981 21.3157732,77.6268152" id="Path" stroke="#FFFFFF" stroke-width="0.754790392"></path>
                    <line x1="9.5354684" y1="74.3919992" x2="9.5354684" y2="77.6268152" id="Path-13" stroke="#FFFFFF" stroke-width="0.754790392"></line>
                    <line x1="21.3157732" y1="74.3919992" x2="21.3157732" y2="77.706186" id="Path-13-Copy" stroke="#FFFFFF" stroke-width="0.754790392"></line>
                    <path d="M9.5354684,74.3919992 C9.5354684,75.8807822 12.1725795,77.0876792 15.4256208,77.0876792 C18.6786622,77.0876792 21.3157732,75.8807822 21.3157732,74.3919992" id="Path" stroke="#FFFFFF" stroke-width="0.754790392"></path>
                    <line x1="9.5354684" y1="71.1571833" x2="9.5354684" y2="74.3919992" id="Path-13" stroke="#FFFFFF" stroke-width="0.754790392"></line>
                    <line x1="21.3157732" y1="71.1571833" x2="21.3157732" y2="74.4713701" id="Path-13-Copy" stroke="#FFFFFF" stroke-width="0.754790392"></line>
                    <path d="M9.5354684,71.1571833 C9.5354684,72.6459662 12.1725795,73.8528633 15.4256208,73.8528633 C18.6786622,73.8528633 21.3157732,72.6459662 21.3157732,71.1571833" id="Path" stroke="#FFFFFF" stroke-width="0.754790392"></path>
                    <line x1="9.5354684" y1="67.9223673" x2="9.5354684" y2="71.1571833" id="Path-13" stroke="#FFFFFF" stroke-width="0.754790392"></line>
                    <line x1="21.3157732" y1="67.9223673" x2="21.3157732" y2="71.2365541" id="Path-13-Copy" stroke="#FFFFFF" stroke-width="0.754790392"></line>
                    <path d="M9.5354684,67.9223673 C9.5354684,69.4111503 12.1725795,70.6180473 15.4256208,70.6180473 C18.6786622,70.6180473 21.3157732,69.4111503 21.3157732,67.9223673" id="Path" stroke="#FFFFFF" stroke-width="0.754790392"></path>
                    <line x1="9.5354684" y1="64.6875514" x2="9.5354684" y2="67.9223673" id="Path-13" stroke="#FFFFFF" stroke-width="0.754790392"></line>
                    <line x1="21.3157732" y1="64.6875514" x2="21.3157732" y2="68.0017381" id="Path-13-Copy" stroke="#FFFFFF" stroke-width="0.754790392"></line>
                    <path d="M9.5354684,64.6875514 C9.5354684,66.1763343 12.1725795,67.3832313 15.4256208,67.3832313 C18.6786622,67.3832313 21.3157732,66.1763343 21.3157732,64.6875514" id="Path" stroke="#FFFFFF" stroke-width="0.754790392"></path>
                    <line x1="9.5354684" y1="61.4527354" x2="9.5354684" y2="64.6875514" id="Path-13" stroke="#FFFFFF" stroke-width="0.754790392"></line>
                    <line x1="21.3157732" y1="61.4527354" x2="21.3157732" y2="64.7669222" id="Path-13-Copy" stroke="#FFFFFF" stroke-width="0.754790392"></line>
                    <path d="M9.5354684,61.4527354 C9.5354684,62.9415183 12.1725795,64.1484154 15.4256208,64.1484154 C18.6786622,64.1484154 21.3157732,62.9415183 21.3157732,61.4527354" id="Path" stroke="#FFFFFF" stroke-width="0.754790392"></path>
                    <path d="M9.5354684,58.4527354 C9.5354684,59.9415183 12.1725795,61.1484154 15.4256208,61.1484154 C18.6786622,61.1484154 21.3157732,59.9415183 21.3157732,58.4527354" id="Path-Copy-10" stroke="#FFFFFF" stroke-width="0.754790392"></path>
                    <line x1="9.5354684" y1="58.2179194" x2="9.5354684" y2="61.4527354" id="Path-13" stroke="#FFFFFF" stroke-width="0.754790392"></line>
                    <line x1="21.3157732" y1="58.2179194" x2="21.3157732" y2="61.5321062" id="Path-13-Copy" stroke="#FFFFFF" stroke-width="0.754790392"></line>
                    <path d="M9.5354684,55.4527354 C9.5354684,56.9415183 12.1725795,58.1484154 15.4256208,58.1484154 C18.6786622,58.1484154 21.3157732,56.9415183 21.3157732,55.4527354" id="Path-Copy-13" stroke="#FFFFFF" stroke-width="0.754790392"></path>
                    <ellipse id="Oval-Copy-18" stroke="#FFFFFF" stroke-width="0.754790392" cx="15.4256208" cy="52.19568" rx="5.89015242" ry="2.69567997"></ellipse>
                    <ellipse id="Oval" stroke="#FFFFFF" stroke-width="0.754790392" fill="#343741" cx="29.8832677" cy="88.0146719" rx="6.42562083" ry="6.46963193"></ellipse>
                    <text id="CHF" font-family="OpenSans-Light, Open Sans" font-size="4.5" font-weight="300" letter-spacing="0.313000805" fill="#FFFFFF">
                        <tspan x="25.5031366" y="89.916065">CHF</tspan>
                    </text>
                    <text id="Zug" font-family="OpenSans-Light, Open Sans" font-size="12.8700006" font-weight="300" fill="#FFFFFF">
                        <tspan x="8.30358631" y="115.3889">Zug</tspan>
                    </text>
                    <line x1="15.9610892" y1="9.4653119" x2="15.9610892" y2="12.7001279" id="Path-13-Copy-25" stroke="#FFFFFF" stroke-width="0.754790392"></line>
                    <line x1="27.7413941" y1="9.4653119" x2="27.7413941" y2="12.7794987" id="Path-13-Copy-24" stroke="#FFFFFF" stroke-width="0.754790392"></line>
                    <path d="M15.9610892,9.4653119 C15.9610892,10.9540948 18.5982003,12.1609919 21.8512417,12.1609919 C25.104283,12.1609919 27.7413941,10.9540948 27.7413941,9.4653119" id="Path-Copy-11" stroke="#FFFFFF" stroke-width="0.754790392"></path>
                    <line x1="15.9610892" y1="6.23049593" x2="15.9610892" y2="9.4653119" id="Path-13-Copy-23" stroke="#FFFFFF" stroke-width="0.754790392"></line>
                    <line x1="27.7413941" y1="6.23049593" x2="27.7413941" y2="9.54468271" id="Path-13-Copy-22" stroke="#FFFFFF" stroke-width="0.754790392"></line>
                    <line x1="15.9610892" y1="9.4653119" x2="15.9610892" y2="12.7001279" id="Path-13-Copy-25" stroke="#FFFFFF" stroke-width="0.754790392"></line>
                    <line x1="27.7413941" y1="9.4653119" x2="27.7413941" y2="12.7794987" id="Path-13-Copy-24" stroke="#FFFFFF" stroke-width="0.754790392"></line>
                    <path d="M15.9610892,9.4653119 C15.9610892,10.9540948 18.5982003,12.1609919 21.8512417,12.1609919 C25.104283,12.1609919 27.7413941,10.9540948 27.7413941,9.4653119" id="Path-Copy-11" stroke="#FFFFFF" stroke-width="0.754790392"></path>
                    <path d="M15.9610892,6.065312 C15.9610892,7.55409494 18.5982003,8.76099197 21.8512417,8.76099197 C25.104283,8.76099197 27.7413941,7.55409494 27.7413941,6.065312" id="Path-Copy-12" stroke="#FFFFFF" stroke-width="0.754790392"></path>
                    <line x1="15.9610892" y1="6.23049593" x2="15.9610892" y2="9.4653119" id="Path-13-Copy-23" stroke="#FFFFFF" stroke-width="0.754790392"></line>
                    <line x1="27.7413941" y1="6.23049593" x2="27.7413941" y2="9.54468271" id="Path-13-Copy-22" stroke="#FFFFFF" stroke-width="0.754790392"></line>
                    <line x1="15.9610892" y1="2.83049593" x2="15.9610892" y2="6.0653119" id="Path-13-Copy-27" stroke="#FFFFFF" stroke-width="0.754790392"></line>
                    <line x1="27.7413941" y1="2.83049593" x2="27.7413941" y2="6.14468271" id="Path-13-Copy-26" stroke="#FFFFFF" stroke-width="0.754790392"></line>
                    <line x1="9.5354684" y1="55.2179194" x2="9.5354684" y2="58.4527354" id="Path-13-Copy-29" stroke="#FFFFFF" stroke-width="0.754790392"></line>
                    <line x1="21.3157732" y1="55.2179194" x2="21.3157732" y2="58.5321062" id="Path-13-Copy-28" stroke="#FFFFFF" stroke-width="0.754790392"></line>
                    <line x1="9.5354684" y1="52.2179194" x2="9.5354684" y2="55.4527354" id="Path-13-Copy-31" stroke="#FFFFFF" stroke-width="0.754790392"></line>
                    <line x1="21.3157732" y1="52.2179194" x2="21.3157732" y2="55.5321062" id="Path-13-Copy-30" stroke="#FFFFFF" stroke-width="0.754790392"></line>
                </g>
                <g id="figure_5" transform="translate(198.000000, 0.000000)">
                    <path d="M16.5397626,107.795717 C17.4834018,108.089834 18.6234514,108.261759 19.8512417,108.261759 C23.104283,108.261759 25.7413941,107.054862 25.7413941,105.566079" id="Path" stroke="#FFFFFF" stroke-width="0.754790392"></path>
                    <path d="M19.3562599,105.017559 C19.519455,105.023774 19.6845396,105.026943 19.8512417,105.026943 C23.104283,105.026943 25.7413941,103.820046 25.7413941,102.331263" id="Path" stroke="#FFFFFF" stroke-width="0.754790392"></path>
                    <path d="M19.3176801,101.781216 C19.4934236,101.788438 19.6713913,101.792127 19.8512417,101.792127 C23.104283,101.792127 25.7413941,100.58523 25.7413941,99.0964471" id="Path" stroke="#FFFFFF" stroke-width="0.754790392"></path>
                    <path d="M19.315576,98.5463137 C19.492003,98.5535926 19.6706735,98.5573111 19.8512417,98.5573111 C21.6993149,98.5573111 23.3485999,98.1677915 24.4285064,97.558356" id="Path" stroke="#FFFFFF" stroke-width="0.754790392"></path>
                    <path d="M19.3186356,95.3116236 C19.4940686,95.3188195 19.6717172,95.3224952 19.8512417,95.3224952 C21.7471804,95.3224952 23.4339002,94.9125369 24.5112635,94.2757468" id="Path" stroke="#FFFFFF" stroke-width="0.754790392"></path>
                    <path d="M19.3257061,92.0770957 C19.4988413,92.0841016 19.6741286,92.0876792 19.8512417,92.0876792 C21.7476309,92.0876792 23.4347017,91.6775261 24.5120313,91.0404769" id="Path" stroke="#FFFFFF" stroke-width="0.754790392"></path>
                    <path d="M19.4069917,88.8453111 C19.5536444,88.850316 19.701793,88.8528633 19.8512417,88.8528633 C21.7193572,88.8528633 23.3843494,88.4548491 24.4634397,87.8340027" id="Path" stroke="#FFFFFF" stroke-width="0.754790392"></path>
                    <path d="M19.3667567,85.6090591 C19.5265329,85.6150123 19.6881129,85.6180473 19.8512417,85.6180473 C23.104283,85.6180473 25.7413941,84.4111503 25.7413941,82.9223673" id="Path" stroke="#FFFFFF" stroke-width="0.754790392"></path>
                    <path d="M19.3731146,82.3744784 C19.530819,82.3802763 19.6902763,82.3832313 19.8512417,82.3832313 C23.104283,82.3832313 25.7413941,81.1763343 25.7413941,79.6875514" id="Path" stroke="#FFFFFF" stroke-width="0.754790392"></path>
                    <path d="M19.3782248,79.1398493 C19.5342634,79.1455239 19.6920147,79.1484154 19.8512417,79.1484154 C23.104283,79.1484154 25.7413941,77.9415183 25.7413941,76.4527354" id="Path" stroke="#FFFFFF" stroke-width="0.754790392"></path>
                    <path d="M19.3405011,75.903606 C19.5088252,75.9102226 19.6791718,75.9135994 19.8512417,75.9135994 C23.104283,75.9135994 25.7413941,74.7067024 25.7413941,73.2179194" id="Path" stroke="#FFFFFF" stroke-width="0.754790392"></path>
                    <path d="M19.3550072,72.669352 C19.5186102,72.6755978 19.684113,72.6787834 19.8512417,72.6787834 C23.104283,72.6787834 25.7413941,71.4718864 25.7413941,69.9831035" id="Path" stroke="#FFFFFF" stroke-width="0.754790392"></path>
                    <path d="M19.3563254,69.4345863 C19.5194992,69.4407989 19.6845619,69.4439675 19.8512417,69.4439675 C23.104283,69.4439675 25.7413941,68.2370704 25.7413941,66.7482875" id="Path" stroke="#FFFFFF" stroke-width="0.754790392"></path>
                    <path d="M19.2652536,66.1959787 C19.458004,66.2046913 19.6534847,66.2091515 19.8512417,66.2091515 C23.104283,66.2091515 25.7413941,65.0022545 25.7413941,63.5134715" id="Path" stroke="#FFFFFF" stroke-width="0.754790392"></path>
                    <path d="M13.9610892,60.2786556 C13.9610892,60.6216855 14.1010897,60.9497504 14.3563674,61.2515356 C14.4079833,61.3125551 14.464312,61.3725001 14.5251492,61.4312773 M18.5381673,62.9071058 C18.6524053,62.9190092 18.7679063,62.9293928 18.8845635,62.9382076 C19.1990837,62.9619732 19.5220082,62.9743355 19.8512417,62.9743355 C23.104283,62.9743355 25.7413941,61.7674385 25.7413941,60.2786556" id="Shape" stroke="#FFFFFF" stroke-width="0.754790392"></path>
                    <path d="M13.9610892,57.0438396 C13.9610892,58.5326225 16.5982003,59.7395196 19.8512417,59.7395196 C23.104283,59.7395196 25.7413941,58.5326225 25.7413941,57.0438396" id="Path" stroke="#FFFFFF" stroke-width="0.754790392"></path>
                    <path d="M13.9610892,53.8090236 C13.9610892,55.2978066 16.5982003,56.5047036 19.8512417,56.5047036 C23.104283,56.5047036 25.7413941,55.2978066 25.7413941,53.8090236" id="Path" stroke="#FFFFFF" stroke-width="0.754790392"></path>
                    <path d="M13.9610892,50.5742077 C13.9610892,52.0629906 16.5982003,53.2698876 19.8512417,53.2698876 C23.104283,53.2698876 25.7413941,52.0629906 25.7413941,50.5742077" id="Path" stroke="#FFFFFF" stroke-width="0.754790392"></path>
                    <path d="M13.9610892,47.3393917 C13.9610892,48.8281747 16.5982003,50.0350717 19.8512417,50.0350717 C23.104283,50.0350717 25.7413941,48.8281747 25.7413941,47.3393917" id="Path" stroke="#FFFFFF" stroke-width="0.754790392"></path>
                    <path d="M13.9610892,44.1045758 C13.9610892,45.5933587 16.5982003,46.8002557 19.8512417,46.8002557 C23.104283,46.8002557 25.7413941,45.5933587 25.7413941,44.1045758" id="Path" stroke="#FFFFFF" stroke-width="0.754790392"></path>
                    <path d="M13.9610892,40.8697598 C13.9610892,42.3585427 16.5982003,43.5654398 19.8512417,43.5654398 C23.104283,43.5654398 25.7413941,42.3585427 25.7413941,40.8697598" id="Path" stroke="#FFFFFF" stroke-width="0.754790392"></path>
                    <path d="M13.9610892,37.6349438 C13.9610892,39.1237268 16.5982003,40.3306238 19.8512417,40.3306238 C23.104283,40.3306238 25.7413941,39.1237268 25.7413941,37.6349438" id="Path" stroke="#FFFFFF" stroke-width="0.754790392"></path>
                    <path d="M13.9610892,34.4001279 C13.9610892,35.8889108 16.5982003,37.0958078 19.8512417,37.0958078 C23.104283,37.0958078 25.7413941,35.8889108 25.7413941,34.4001279" id="Path" stroke="#FFFFFF" stroke-width="0.754790392"></path>
                    <path d="M13.9610892,31.1653119 C13.9610892,32.6540948 16.5982003,33.8609919 19.8512417,33.8609919 C23.104283,33.8609919 25.7413941,32.6540948 25.7413941,31.1653119" id="Path" stroke="#FFFFFF" stroke-width="0.754790392"></path>
                    <path d="M13.9610892,27.665312 C13.9610892,29.1540949 16.5982003,30.360992 19.8512417,30.360992 C23.104283,30.360992 25.7413941,29.1540949 25.7413941,27.665312" id="Path-Copy-9" stroke="#FFFFFF" stroke-width="0.754790392"></path>
                    <ellipse id="Oval-Copy-19" stroke="#FFFFFF" stroke-width="0.754790392" cx="19.8901524" cy="2.69567997" rx="5.89015242" ry="2.69567997"></ellipse>
                    <path d="M7.5354684,105.566079 C7.5354684,107.054862 10.1725795,108.261759 13.4256208,108.261759 C16.6786622,108.261759 19.3157732,107.054862 19.3157732,105.566079" id="Path" stroke="#FFFFFF" stroke-width="0.754790392"></path>
                    <path d="M7.5354684,102.331263 C7.5354684,103.820046 10.1725795,105.026943 13.4256208,105.026943 C16.6786622,105.026943 19.3157732,103.820046 19.3157732,102.331263" id="Path" stroke="#FFFFFF" stroke-width="0.754790392"></path>
                    <path d="M7.5354684,99.0964471 C7.5354684,100.58523 10.1725795,101.792127 13.4256208,101.792127 C16.6786622,101.792127 19.3157732,100.58523 19.3157732,99.0964471" id="Path" stroke="#FFFFFF" stroke-width="0.754790392"></path>
                    <path d="M7.5354684,95.8616312 C7.5354684,97.3504141 10.1725795,98.5573111 13.4256208,98.5573111 C16.6786622,98.5573111 19.3157732,97.3504141 19.3157732,95.8616312" id="Path" stroke="#FFFFFF" stroke-width="0.754790392"></path>
                    <path d="M7.5354684,92.6268152 C7.5354684,94.1155981 10.1725795,95.3224952 13.4256208,95.3224952 C16.6786622,95.3224952 19.3157732,94.1155981 19.3157732,92.6268152" id="Path" stroke="#FFFFFF" stroke-width="0.754790392"></path>
                    <path d="M7.5354684,89.3919992 C7.5354684,90.8807822 10.1725795,92.0876792 13.4256208,92.0876792 C16.6786622,92.0876792 19.3157732,90.8807822 19.3157732,89.3919992" id="Path" stroke="#FFFFFF" stroke-width="0.754790392"></path>
                    <path d="M7.5354684,86.1571833 C7.5354684,87.6459662 10.1725795,88.8528633 13.4256208,88.8528633 C16.6786622,88.8528633 19.3157732,87.6459662 19.3157732,86.1571833" id="Path" stroke="#FFFFFF" stroke-width="0.754790392"></path>
                    <path d="M7.5354684,82.9223673 C7.5354684,84.4111503 10.1725795,85.6180473 13.4256208,85.6180473 C16.6786622,85.6180473 19.3157732,84.4111503 19.3157732,82.9223673" id="Path" stroke="#FFFFFF" stroke-width="0.754790392"></path>
                    <path d="M7.5354684,79.6875514 C7.5354684,81.1763343 10.1725795,82.3832313 13.4256208,82.3832313 C16.6786622,82.3832313 19.3157732,81.1763343 19.3157732,79.6875514" id="Path" stroke="#FFFFFF" stroke-width="0.754790392"></path>
                    <path d="M7.5354684,76.4527354 C7.5354684,77.9415183 10.1725795,79.1484154 13.4256208,79.1484154 C16.6786622,79.1484154 19.3157732,77.9415183 19.3157732,76.4527354" id="Path" stroke="#FFFFFF" stroke-width="0.754790392"></path>
                    <path d="M7.5354684,73.4527354 C7.5354684,74.9415183 10.1725795,76.1484154 13.4256208,76.1484154 C16.6786622,76.1484154 19.3157732,74.9415183 19.3157732,73.4527354" id="Path-Copy-10" stroke="#FFFFFF" stroke-width="0.754790392"></path>
                    <path d="M7.5354684,70.4527354 C7.5354684,71.9415183 10.1725795,73.1484154 13.4256208,73.1484154 C16.6786622,73.1484154 19.3157732,71.9415183 19.3157732,70.4527354" id="Path-Copy-13" stroke="#FFFFFF" stroke-width="0.754790392"></path>
                    <ellipse id="Oval-Copy-18" stroke="#FFFFFF" stroke-width="0.754790392" cx="13.4256208" cy="64.19568" rx="5.89015242" ry="2.69567997"></ellipse>
                    <path d="M13.9610892,24.4653119 C13.9610892,25.9540948 16.5982003,27.1609919 19.8512417,27.1609919 C23.104283,27.1609919 25.7413941,25.9540948 25.7413941,24.4653119" id="Path-Copy-11" stroke="#FFFFFF" stroke-width="0.754790392"></path>
                    <path d="M13.9610892,24.4653119 C13.9610892,25.9540948 16.5982003,27.1609919 19.8512417,27.1609919 C23.104283,27.1609919 25.7413941,25.9540948 25.7413941,24.4653119" id="Path-Copy-11" stroke="#FFFFFF" stroke-width="0.754790392"></path>
                    <path d="M13.9610892,21.065312 C13.9610892,22.5540949 16.5982003,23.760992 19.8512417,23.760992 C23.104283,23.760992 25.7413941,22.5540949 25.7413941,21.065312" id="Path-Copy-12" stroke="#FFFFFF" stroke-width="0.754790392"></path>
                    <path d="M13.9610892,18.065312 C13.9610892,19.5540949 16.5982003,20.760992 19.8512417,20.760992 C23.104283,20.760992 25.7413941,19.5540949 25.7413941,18.065312" id="Path-Copy-22" stroke="#FFFFFF" stroke-width="0.754790392"></path>
                    <path d="M24.5354684,105.157183 C24.5354684,106.645966 27.1725795,107.852863 30.4256208,107.852863 C33.6786622,107.852863 36.3157732,106.645966 36.3157732,105.157183" id="Path-Copy-21" stroke="#FFFFFF" stroke-width="0.754790392"></path>
                    <path d="M24.5354684,101.922367 C24.5354684,103.41115 27.1725795,104.618047 30.4256208,104.618047 C33.6786622,104.618047 36.3157732,103.41115 36.3157732,101.922367" id="Path-Copy-20" stroke="#FFFFFF" stroke-width="0.754790392"></path>
                    <path d="M24.5354684,98.6875514 C24.5354684,100.176334 27.1725795,101.383231 30.4256208,101.383231 C33.6786622,101.383231 36.3157732,100.176334 36.3157732,98.6875514" id="Path-Copy-19" stroke="#FFFFFF" stroke-width="0.754790392"></path>
                    <path d="M24.5354684,95.4527354 C24.5354684,96.9415183 27.1725795,98.1484154 30.4256208,98.1484154 C33.6786622,98.1484154 36.3157732,96.9415183 36.3157732,95.4527354" id="Path-Copy-18" stroke="#FFFFFF" stroke-width="0.754790392"></path>
                    <path d="M24.5354684,92.4527354 C24.5354684,93.9415183 27.1725795,95.1484154 30.4256208,95.1484154 C33.6786622,95.1484154 36.3157732,93.9415183 36.3157732,92.4527354" id="Path-Copy-17" stroke="#FFFFFF" stroke-width="0.754790392"></path>
                    <path d="M24.5354684,89.4527354 C24.5354684,90.9415183 27.1725795,92.1484154 30.4256208,92.1484154 C33.6786622,92.1484154 36.3157732,90.9415183 36.3157732,89.4527354" id="Path-Copy-16" stroke="#FFFFFF" stroke-width="0.754790392"></path>
                    <ellipse id="Oval-Copy-20" stroke="#FFFFFF" stroke-width="0.754790392" cx="30.4256208" cy="86.19568" rx="5.89015242" ry="2.69567997"></ellipse>
                    <ellipse id="Oval" stroke="#FFFFFF" stroke-width="0.754790392" fill="#343741" cx="27.8832677" cy="103.014672" rx="6.42562083" ry="6.46963193"></ellipse>
                    <text id="CHF" font-family="OpenSans-Light, Open Sans" font-size="4.5" font-weight="300" letter-spacing="0.313000805" fill="#FFFFFF">
                        <tspan x="23.5031366" y="104.916065">CHF</tspan>
                    </text>
                    <text id="Zrich" font-family="OpenSans-Light, Open Sans" font-size="12.8700006" font-weight="300" fill="#FFFFFF">
                        <tspan x="0.9121213" y="130.3889">Zrich</tspan>
                    </text>
                    <line x1="25.7413941" y1="82.9223673" x2="25.7413941" y2="84.2365541" id="Path-13-Copy" stroke="#FFFFFF" stroke-width="0.754790392"></line>
                    <line x1="25.7413941" y1="79.6875514" x2="25.7413941" y2="83.0017381" id="Path-13-Copy" stroke="#FFFFFF" stroke-width="0.754790392"></line>
                    <line x1="25.7413941" y1="76.4527354" x2="25.7413941" y2="79.7669222" id="Path-13-Copy" stroke="#FFFFFF" stroke-width="0.754790392"></line>
                    <line x1="25.7413941" y1="73.2179194" x2="25.7413941" y2="76.5321062" id="Path-13-Copy" stroke="#FFFFFF" stroke-width="0.754790392"></line>
                    <line x1="25.7413941" y1="69.9831035" x2="25.7413941" y2="73.2972902" id="Path-13-Copy" stroke="#FFFFFF" stroke-width="0.754790392"></line>
                    <line x1="25.7413941" y1="66.7482875" x2="25.7413941" y2="70.0624743" id="Path-13-Copy" stroke="#FFFFFF" stroke-width="0.754790392"></line>
                    <line x1="25.7413941" y1="63.5134715" x2="25.7413941" y2="66.8276583" id="Path-13-Copy" stroke="#FFFFFF" stroke-width="0.754790392"></line>
                    <line x1="25.7413941" y1="60.2786556" x2="25.7413941" y2="63.5928424" id="Path-13-Copy" stroke="#FFFFFF" stroke-width="0.754790392"></line>
                    <line x1="13.9610892" y1="57.0438396" x2="13.9610892" y2="60.2786556" id="Path-13" stroke="#FFFFFF" stroke-width="0.754790392"></line>
                    <line x1="25.7413941" y1="57.0438396" x2="25.7413941" y2="60.3580264" id="Path-13-Copy" stroke="#FFFFFF" stroke-width="0.754790392"></line>
                    <line x1="13.9610892" y1="53.8090236" x2="13.9610892" y2="57.0438396" id="Path-13" stroke="#FFFFFF" stroke-width="0.754790392"></line>
                    <line x1="25.7413941" y1="53.8090236" x2="25.7413941" y2="57.1232104" id="Path-13-Copy" stroke="#FFFFFF" stroke-width="0.754790392"></line>
                    <line x1="13.9610892" y1="50.5742077" x2="13.9610892" y2="53.8090236" id="Path-13" stroke="#FFFFFF" stroke-width="0.754790392"></line>
                    <line x1="25.7413941" y1="50.5742077" x2="25.7413941" y2="53.8883945" id="Path-13-Copy" stroke="#FFFFFF" stroke-width="0.754790392"></line>
                    <line x1="13.9610892" y1="47.3393917" x2="13.9610892" y2="50.5742077" id="Path-13" stroke="#FFFFFF" stroke-width="0.754790392"></line>
                    <line x1="25.7413941" y1="47.3393917" x2="25.7413941" y2="50.6535785" id="Path-13-Copy" stroke="#FFFFFF" stroke-width="0.754790392"></line>
                    <line x1="13.9610892" y1="44.1045758" x2="13.9610892" y2="47.3393917" id="Path-13" stroke="#FFFFFF" stroke-width="0.754790392"></line>
                    <line x1="25.7413941" y1="44.1045758" x2="25.7413941" y2="47.4187625" id="Path-13-Copy" stroke="#FFFFFF" stroke-width="0.754790392"></line>
                    <line x1="13.9610892" y1="40.8697598" x2="13.9610892" y2="44.1045758" id="Path-13" stroke="#FFFFFF" stroke-width="0.754790392"></line>
                    <line x1="25.7413941" y1="40.8697598" x2="25.7413941" y2="44.1839466" id="Path-13-Copy" stroke="#FFFFFF" stroke-width="0.754790392"></line>
                    <line x1="13.9610892" y1="37.6349438" x2="13.9610892" y2="40.8697598" id="Path-13" stroke="#FFFFFF" stroke-width="0.754790392"></line>
                    <line x1="25.7413941" y1="37.6349438" x2="25.7413941" y2="40.9491306" id="Path-13-Copy" stroke="#FFFFFF" stroke-width="0.754790392"></line>
                    <line x1="13.9610892" y1="34.4001279" x2="13.9610892" y2="37.6349438" id="Path-13" stroke="#FFFFFF" stroke-width="0.754790392"></line>
                    <line x1="25.7413941" y1="34.4001279" x2="25.7413941" y2="37.7143146" id="Path-13-Copy" stroke="#FFFFFF" stroke-width="0.754790392"></line>
                    <line x1="13.9610892" y1="31.1653119" x2="13.9610892" y2="34.4001279" id="Path-13" stroke="#FFFFFF" stroke-width="0.754790392"></line>
                    <line x1="25.7413941" y1="31.1653119" x2="25.7413941" y2="34.4794987" id="Path-13-Copy" stroke="#FFFFFF" stroke-width="0.754790392"></line>
                    <line x1="13.9610892" y1="27.9304959" x2="13.9610892" y2="31.1653119" id="Path-13" stroke="#FFFFFF" stroke-width="0.754790392"></line>
                    <line x1="25.7413941" y1="27.9304959" x2="25.7413941" y2="31.2446827" id="Path-13-Copy" stroke="#FFFFFF" stroke-width="0.754790392"></line>
                    <line x1="7.5354684" y1="102.331263" x2="7.5354684" y2="105.566079" id="Path-13" stroke="#FFFFFF" stroke-width="0.754790392"></line>
                    <line x1="19.3157732" y1="102.331263" x2="19.3157732" y2="105.64545" id="Path-13-Copy" stroke="#FFFFFF" stroke-width="0.754790392"></line>
                    <line x1="7.5354684" y1="99.0964471" x2="7.5354684" y2="102.331263" id="Path-13" stroke="#FFFFFF" stroke-width="0.754790392"></line>
                    <line x1="19.3157732" y1="99.0964471" x2="19.3157732" y2="102.410634" id="Path-13-Copy" stroke="#FFFFFF" stroke-width="0.754790392"></line>
                    <line x1="7.5354684" y1="95.8616312" x2="7.5354684" y2="99.0964471" id="Path-13" stroke="#FFFFFF" stroke-width="0.754790392"></line>
                    <line x1="19.3157732" y1="95.8616312" x2="19.3157732" y2="99.175818" id="Path-13-Copy" stroke="#FFFFFF" stroke-width="0.754790392"></line>
                    <line x1="7.5354684" y1="92.6268152" x2="7.5354684" y2="95.8616312" id="Path-13" stroke="#FFFFFF" stroke-width="0.754790392"></line>
                    <line x1="19.3157732" y1="92.6268152" x2="19.3157732" y2="95.941002" id="Path-13-Copy" stroke="#FFFFFF" stroke-width="0.754790392"></line>
                    <line x1="7.5354684" y1="89.3919992" x2="7.5354684" y2="92.6268152" id="Path-13" stroke="#FFFFFF" stroke-width="0.754790392"></line>
                    <line x1="19.3157732" y1="89.3919992" x2="19.3157732" y2="92.706186" id="Path-13-Copy" stroke="#FFFFFF" stroke-width="0.754790392"></line>
                    <line x1="7.5354684" y1="86.1571833" x2="7.5354684" y2="89.3919992" id="Path-13" stroke="#FFFFFF" stroke-width="0.754790392"></line>
                    <line x1="19.3157732" y1="86.1571833" x2="19.3157732" y2="89.4713701" id="Path-13-Copy" stroke="#FFFFFF" stroke-width="0.754790392"></line>
                    <line x1="7.5354684" y1="82.9223673" x2="7.5354684" y2="86.1571833" id="Path-13" stroke="#FFFFFF" stroke-width="0.754790392"></line>
                    <line x1="19.3157732" y1="82.9223673" x2="19.3157732" y2="86.2365541" id="Path-13-Copy" stroke="#FFFFFF" stroke-width="0.754790392"></line>
                    <line x1="7.5354684" y1="79.6875514" x2="7.5354684" y2="82.9223673" id="Path-13" stroke="#FFFFFF" stroke-width="0.754790392"></line>
                    <line x1="19.3157732" y1="79.6875514" x2="19.3157732" y2="83.0017381" id="Path-13-Copy" stroke="#FFFFFF" stroke-width="0.754790392"></line>
                    <line x1="7.5354684" y1="76.4527354" x2="7.5354684" y2="79.6875514" id="Path-13" stroke="#FFFFFF" stroke-width="0.754790392"></line>
                    <line x1="19.3157732" y1="76.4527354" x2="19.3157732" y2="79.7669222" id="Path-13-Copy" stroke="#FFFFFF" stroke-width="0.754790392"></line>
                    <line x1="7.5354684" y1="73.2179194" x2="7.5354684" y2="76.4527354" id="Path-13" stroke="#FFFFFF" stroke-width="0.754790392"></line>
                    <line x1="19.3157732" y1="73.2179194" x2="19.3157732" y2="76.5321062" id="Path-13-Copy" stroke="#FFFFFF" stroke-width="0.754790392"></line>
                    <line x1="13.9610892" y1="24.4653119" x2="13.9610892" y2="27.7001279" id="Path-13-Copy-25" stroke="#FFFFFF" stroke-width="0.754790392"></line>
                    <line x1="25.7413941" y1="24.4653119" x2="25.7413941" y2="27.7794987" id="Path-13-Copy-24" stroke="#FFFFFF" stroke-width="0.754790392"></line>
                    <line x1="13.9610892" y1="21.2304959" x2="13.9610892" y2="24.4653119" id="Path-13-Copy-23" stroke="#FFFFFF" stroke-width="0.754790392"></line>
                    <line x1="25.7413941" y1="21.2304959" x2="25.7413941" y2="24.5446827" id="Path-13-Copy-22" stroke="#FFFFFF" stroke-width="0.754790392"></line>
                    <line x1="13.9610892" y1="24.4653119" x2="13.9610892" y2="27.7001279" id="Path-13-Copy-25" stroke="#FFFFFF" stroke-width="0.754790392"></line>
                    <line x1="25.7413941" y1="24.4653119" x2="25.7413941" y2="27.7794987" id="Path-13-Copy-24" stroke="#FFFFFF" stroke-width="0.754790392"></line>
                    <line x1="13.9610892" y1="21.2304959" x2="13.9610892" y2="24.4653119" id="Path-13-Copy-23" stroke="#FFFFFF" stroke-width="0.754790392"></line>
                    <line x1="25.7413941" y1="21.2304959" x2="25.7413941" y2="24.5446827" id="Path-13-Copy-22" stroke="#FFFFFF" stroke-width="0.754790392"></line>
                    <line x1="13.9610892" y1="17.8304959" x2="13.9610892" y2="21.0653119" id="Path-13-Copy-27" stroke="#FFFFFF" stroke-width="0.754790392"></line>
                    <line x1="25.7413941" y1="17.8304959" x2="25.7413941" y2="21.1446827" id="Path-13-Copy-26" stroke="#FFFFFF" stroke-width="0.754790392"></line>
                    <path d="M13.9610892,15.065312 C13.9610892,16.5540949 16.5982003,17.760992 19.8512417,17.760992 C23.104283,17.760992 25.7413941,16.5540949 25.7413941,15.065312" id="Path-Copy-24" stroke="#FFFFFF" stroke-width="0.754790392"></path>
                    <path d="M13.9610892,12.065312 C13.9610892,13.5540949 16.5982003,14.760992 19.8512417,14.760992 C23.104283,14.760992 25.7413941,13.5540949 25.7413941,12.065312" id="Path-Copy-23" stroke="#FFFFFF" stroke-width="0.754790392"></path>
                    <line x1="7.5354684" y1="70.2179194" x2="7.5354684" y2="73.4527354" id="Path-13-Copy-29" stroke="#FFFFFF" stroke-width="0.754790392"></line>
                    <line x1="19.3157732" y1="70.2179194" x2="19.3157732" y2="73.5321062" id="Path-13-Copy-28" stroke="#FFFFFF" stroke-width="0.754790392"></line>
                    <path d="M7.5354684,67.4527354 C7.5354684,68.9415183 10.1725795,70.1484154 13.4256208,70.1484154 C16.6786622,70.1484154 19.3157732,68.9415183 19.3157732,67.4527354" id="Path-Copy-28" stroke="#FFFFFF" stroke-width="0.754790392"></path>
                    <line x1="7.5354684" y1="67.2179194" x2="7.5354684" y2="70.4527354" id="Path-13-Copy-31" stroke="#FFFFFF" stroke-width="0.754790392"></line>
                    <line x1="19.3157732" y1="67.2179194" x2="19.3157732" y2="70.5321062" id="Path-13-Copy-30" stroke="#FFFFFF" stroke-width="0.754790392"></line>
                    <line x1="36.3157732" y1="101.922367" x2="36.3157732" y2="105.236554" id="Path-13-Copy-43" stroke="#FFFFFF" stroke-width="0.754790392"></line>
                    <line x1="36.3157732" y1="98.6875514" x2="36.3157732" y2="102.001738" id="Path-13-Copy-41" stroke="#FFFFFF" stroke-width="0.754790392"></line>
                    <line x1="24.5354684" y1="95.4527354" x2="24.5354684" y2="97.6875514" id="Path-13-Copy-40" stroke="#FFFFFF" stroke-width="0.754790392"></line>
                    <line x1="36.3157732" y1="95.4527354" x2="36.3157732" y2="98.7669222" id="Path-13-Copy-39" stroke="#FFFFFF" stroke-width="0.754790392"></line>
                    <line x1="24.5354684" y1="92.2179194" x2="24.5354684" y2="95.4527354" id="Path-13-Copy-38" stroke="#FFFFFF" stroke-width="0.754790392"></line>
                    <line x1="36.3157732" y1="92.2179194" x2="36.3157732" y2="95.5321062" id="Path-13-Copy-37" stroke="#FFFFFF" stroke-width="0.754790392"></line>
                    <line x1="24.5354684" y1="89.2179194" x2="24.5354684" y2="92.4527354" id="Path-13-Copy-36" stroke="#FFFFFF" stroke-width="0.754790392"></line>
                    <line x1="36.3157732" y1="89.2179194" x2="36.3157732" y2="92.5321062" id="Path-13-Copy-35" stroke="#FFFFFF" stroke-width="0.754790392"></line>
                    <line x1="24.5354684" y1="86.2179194" x2="24.5354684" y2="89.4527354" id="Path-13-Copy-34" stroke="#FFFFFF" stroke-width="0.754790392"></line>
                    <line x1="36.3157732" y1="86.2179194" x2="36.3157732" y2="89.5321062" id="Path-13-Copy-33" stroke="#FFFFFF" stroke-width="0.754790392"></line>
                    <line x1="13.9610892" y1="15.2304959" x2="13.9610892" y2="18.4653119" id="Path-13-Copy-46" stroke="#FFFFFF" stroke-width="0.754790392"></line>
                    <line x1="25.7413941" y1="15.2304959" x2="25.7413941" y2="18.5446827" id="Path-13-Copy-45" stroke="#FFFFFF" stroke-width="0.754790392"></line>
                    <line x1="13.9610892" y1="11.8304959" x2="13.9610892" y2="15.0653119" id="Path-13-Copy-44" stroke="#FFFFFF" stroke-width="0.754790392"></line>
                    <line x1="25.7413941" y1="11.8304959" x2="25.7413941" y2="15.1446827" id="Path-13-Copy-42" stroke="#FFFFFF" stroke-width="0.754790392"></line>
                    <path d="M13.9610892,9.065312 C13.9610892,10.5540949 16.5982003,11.760992 19.8512417,11.760992 C23.104283,11.760992 25.7413941,10.5540949 25.7413941,9.065312" id="Path-Copy-26" stroke="#FFFFFF" stroke-width="0.754790392"></path>
                    <path d="M13.9610892,6.065312 C13.9610892,7.55409494 16.5982003,8.76099197 19.8512417,8.76099197 C23.104283,8.76099197 25.7413941,7.55409494 25.7413941,6.065312" id="Path-Copy-25" stroke="#FFFFFF" stroke-width="0.754790392"></path>
                    <line x1="13.9610892" y1="9.23049593" x2="13.9610892" y2="12.4653119" id="Path-13-Copy-50" stroke="#FFFFFF" stroke-width="0.754790392"></line>
                    <line x1="25.7413941" y1="9.23049593" x2="25.7413941" y2="12.5446827" id="Path-13-Copy-49" stroke="#FFFFFF" stroke-width="0.754790392"></line>
                    <line x1="13.9610892" y1="5.83049593" x2="13.9610892" y2="9.0653119" id="Path-13-Copy-48" stroke="#FFFFFF" stroke-width="0.754790392"></line>
                    <line x1="25.7413941" y1="5.83049593" x2="25.7413941" y2="9.14468271" id="Path-13-Copy-47" stroke="#FFFFFF" stroke-width="0.754790392"></line>
                    <line x1="13.9610892" y1="2.83049593" x2="13.9610892" y2="6.0653119" id="Path-13-Copy-52" stroke="#FFFFFF" stroke-width="0.754790392"></line>
                    <line x1="25.7413941" y1="2.83049593" x2="25.7413941" y2="6.14468271" id="Path-13-Copy-51" stroke="#FFFFFF" stroke-width="0.754790392"></line>
                    <line x1="7.5354684" y1="67.2179194" x2="7.5354684" y2="70.4527354" id="Path-13-Copy-56" stroke="#FFFFFF" stroke-width="0.754790392"></line>
                    <line x1="19.3157732" y1="67.2179194" x2="19.3157732" y2="70.5321062" id="Path-13-Copy-55" stroke="#FFFFFF" stroke-width="0.754790392"></line>
                    <line x1="7.5354684" y1="64.2179194" x2="7.5354684" y2="67.4527354" id="Path-13-Copy-54" stroke="#FFFFFF" stroke-width="0.754790392"></line>
                    <line x1="19.3157732" y1="64.2179194" x2="19.3157732" y2="67.5321062" id="Path-13-Copy-53" stroke="#FFFFFF" stroke-width="0.754790392"></line>
                </g>
            </g>
        </g>
    </g>
</svg>